999
dxfrw 0.6.3
  0
SECTION
  2
HEADER
  9
$ACADVER
  1
AC1021
  9
$DWGCODEPAGE
  3
ANSI_1252
  9
$INSBASE
 10
0
 20
0
 30
0
  9
$EXTMIN
 10
-148.0049712126089
 20
-52.82758184602916
 30
0
  9
$EXTMAX
 10
148.0049712126088
 20
75.05022603948828
 30
0
  9
$LIMMIN
 10
0
 20
0
  9
$LIMMAX
 10
420
 20
297
  9
$ORTHOMODE
 70
    0
  9
$REGENMODE
 70
    1
  9
$FILLMODE
 70
    1
  9
$QTEXTMODE
 70
    0
  9
$MIRRTEXT
 70
    0
  9
$LTSCALE
 40
1
  9
$ATTMODE
 70
    0
  9
$TEXTSIZE
 40
2.5
  9
$TRACEWID
 40
15.68
  9
$TEXTSTYLE
  7
STANDARD
  9
$CLAYER
  8
0
  9
$CELTYPE
  6
BYLAYER
  9
$CECOLOR
 62
  256
  9
$CELTSCALE
 40
1
  9
$DISPSILH
 70
    0
  9
$DIMSCALE
 40
2.5
  9
$DIMASZ
 40
2.5
  9
$DIMEXO
 40
0.625
  9
$DIMDLI
 40
3.75
  9
$DIMRND
 40
0
  9
$DIMDLE
 40
0
  9
$DIMEXE
 40
1.25
  9
$DIMTP
 40
0
  9
$DIMTM
 40
0
  9
$DIMTXT
 40
2.5
  9
$DIMCEN
 40
2.5
  9
$DIMTSZ
 40
0
  9
$DIMTOL
 70
    0
  9
$DIMLIM
 70
    0
  9
$DIMTIH
 70
    0
  9
$DIMTOH
 70
    0
  9
$DIMSE1
 70
    0
  9
$DIMSE2
 70
    0
  9
$DIMTAD
 70
    1
  9
$DIMZIN
 70
    8
  9
$DIMBLK
  1

  9
$DIMASO
 70
    1
  9
$DIMSHO
 70
    1
  9
$DIMPOST
  1

  9
$DIMAPOST
  1

  9
$DIMALT
 70
    0
  9
$DIMALTD
 70
    3
  9
$DIMALTF
 40
0.03937
  9
$DIMLFAC
 40
1
  9
$DIMTOFL
 70
    1
  9
$DIMTVP
 40
0
  9
$DIMTIX
 70
    0
  9
$DIMSOXD
 70
    0
  9
$DIMSAH
 70
    0
  9
$DIMBLK1
  1

  9
$DIMBLK2
  1

  9
$DIMSTYLE
  2
STANDARD
  9
$DIMCLRD
 70
    0
  9
$DIMCLRE
 70
    0
  9
$DIMCLRT
 70
    0
  9
$DIMTFAC
 40
1
  9
$DIMGAP
 40
0.625
  9
$DIMJUST
 70
    0
  9
$DIMSD1
 70
    0
  9
$DIMSD2
 70
    0
  9
$DIMTOLJ
 70
    0
  9
$DIMTZIN
 70
    8
  9
$DIMALTZ
 70
    0
  9
$DIMALTTZ
 70
    0
  9
$DIMUPT
 70
    0
  9
$DIMDEC
 70
    2
  9
$DIMTDEC
 70
    2
  9
$DIMALTU
 70
    2
  9
$DIMALTTD
 70
    3
  9
$DIMTXSTY
  7
STANDARD
  9
$DIMAUNIT
 70
    0
  9
$DIMADEC
 70
    0
  9
$DIMALTRND
 40
0
  9
$DIMAZIN
 70
    0
  9
$DIMDSEP
 70
   44
  9
$DIMATFIT
 70
    3
  9
$DIMFRAC
 70
    0
  9
$DIMLDRBLK
  1
STANDARD
  9
$DIMLUNIT
 70
    2
  9
$DIMLWD
 70
   -2
  9
$DIMLWE
 70
   -2
  9
$DIMTMOVE
 70
    0
  9
$DIMFXL
 40
1
  9
$DIMFXLON
 70
    0
  9
$DIMJOGANG
 40
0.7854
  9
$DIMTFILL
 70
    0
  9
$DIMTFILLCLR
 70
    0
  9
$DIMARCSYM
 70
    0
  9
$DIMLTYPE
  6

  9
$DIMLTEX1
  6

  9
$DIMLTEX2
  6

  9
$LUNITS
 70
    2
  9
$LUPREC
 70
    4
  9
$SKETCHINC
 40
1
  9
$FILLETRAD
 40
0
  9
$AUNITS
 70
    0
  9
$AUPREC
 70
    2
  9
$MENU
  1
.
  9
$ELEVATION
 40
0
  9
$PELEVATION
 40
0
  9
$THICKNESS
 40
0
  9
$LIMCHECK
 70
    0
  9
$CHAMFERA
 40
0
  9
$CHAMFERB
 40
0
  9
$CHAMFERC
 40
0
  9
$CHAMFERD
 40
0
  9
$SKPOLY
 70
    0
  9
$USRTIMER
 70
    1
  9
$ANGBASE
 50
0
  9
$ANGDIR
 70
    0
  9
$PDMODE
 70
   34
  9
$PDSIZE
 40
0
  9
$PLINEWID
 40
0
  9
$SPLFRAME
 70
    0
  9
$SPLINETYPE
 70
    2
  9
$SPLINESEGS
 70
    8
  9
$HANDSEED
  5
20000
  9
$SURFTAB1
 70
    6
  9
$SURFTAB2
 70
    6
  9
$SURFTYPE
 70
    6
  9
$SURFU
 70
    6
  9
$SURFV
 70
    6
  9
$UCSBASE
  2

  9
$UCSNAME
  2

  9
$UCSORG
 10
0
 20
0
 30
0
  9
$UCSXDIR
 10
1
 20
0
 30
0
  9
$UCSYDIR
 10
0
 20
1
 30
0
  9
$UCSORTHOREF
  2

  9
$UCSORTHOVIEW
 70
    0
  9
$UCSORGTOP
 10
0
 20
0
 30
0
  9
$UCSORGBOTTOM
 10
0
 20
0
 30
0
  9
$UCSORGLEFT
 10
0
 20
0
 30
0
  9
$UCSORGRIGHT
 10
0
 20
0
 30
0
  9
$UCSORGFRONT
 10
0
 20
0
 30
0
  9
$UCSORGBACK
 10
0
 20
0
 30
0
  9
$PUCSBASE
  2

  9
$PUCSNAME
  2

  9
$PUCSORG
 10
0
 20
0
 30
0
  9
$PUCSXDIR
 10
1
 20
0
 30
0
  9
$PUCSYDIR
 10
0
 20
1
 30
0
  9
$PUCSORTHOREF
  2

  9
$PUCSORTHOVIEW
 70
    0
  9
$PUCSORGTOP
 10
0
 20
0
 30
0
  9
$PUCSORGBOTTOM
 10
0
 20
0
 30
0
  9
$PUCSORGLEFT
 10
0
 20
0
 30
0
  9
$PUCSORGRIGHT
 10
0
 20
0
 30
0
  9
$PUCSORGFRONT
 10
0
 20
0
 30
0
  9
$PUCSORGBACK
 10
0
 20
0
 30
0
  9
$USERI1
 70
    0
  9
$USERI2
 70
    0
  9
$USERI3
 70
    0
  9
$USERI4
 70
    0
  9
$USERI5
 70
    0
  9
$USERR1
 40
0
  9
$USERR2
 40
0
  9
$USERR3
 40
0
  9
$USERR4
 40
0
  9
$USERR5
 40
0
  9
$WORLDVIEW
 70
    1
  9
$SHADEDGE
 70
    3
  9
$SHADEDIF
 70
   70
  9
$TILEMODE
 70
    1
  9
$MAXACTVP
 70
   64
  9
$PINSBASE
 10
0
 20
0
 30
0
  9
$PLIMCHECK
 70
    0
  9
$PEXTMIN
 10
0
 20
0
 30
0
  9
$PEXTMAX
 10
0
 20
0
 30
0
  9
$GRIDMODE
 70
    1
  9
$SNAPSTYLE
 70
    0
  9
$PLIMMIN
 10
0
 20
0
  9
$PLIMMAX
 10
210
 20
297
  9
$UNITMODE
 70
    0
  9
$VISRETAIN
 70
    1
  9
$PLINEGEN
 70
    0
  9
$PSLTSCALE
 70
    1
  9
$TREEDEPTH
 70
 3020
  9
$CMLSTYLE
  2
Standard
  9
$CMLJUST
 70
    0
  9
$CMLSCALE
 40
20
  9
$PROXYGRAPHICS
 70
    1
  9
$MEASUREMENT
 70
    1
  9
$CELWEIGHT
370
   -1
  9
$ENDCAPS
280
    0
  9
$JOINSTYLE
280
    0
  9
$LWDISPLAY
290
    0
  9
$INSUNITS
 70
    0
  9
$HYPERLINKBASE
  1

  9
$STYLESHEET
  1

  9
$XEDIT
290
    1
  9
$CEPSNTYPE
380
    0
  9
$PSTYLEMODE
290
    1
  9
$EXTNAMES
290
    1
  9
$PSVPSCALE
 40
1
  9
$OLESTARTUP
290
    0
  9
$SORTENTS
280
  127
  9
$INDEXCTL
280
    0
  9
$HIDETEXT
280
    1
  9
$XCLIPFRAME
290
    0
  9
$HALOGAP
280
    0
  9
$OBSCOLOR
 70
  257
  9
$OBSLTYPE
280
    0
  9
$INTERSECTIONDISPLAY
280
    0
  9
$INTERSECTIONCOLOR
 70
  257
  9
$DIMASSOC
280
    1
  9
$PROJECTNAME
  1

  9
$CAMERADISPLAY
290
    0
  9
$LENSLENGTH
 40
50
  9
$CAMERAHEIGHT
 40
0
  9
$STEPSPERSEC
 40
2
  9
$STEPSIZE
 40
50
  9
$3DDWFPREC
 40
2
  9
$PSOLWIDTH
 40
5
  9
$PSOLHEIGHT
 40
80
  9
$LOFTANG1
 40
1.570796326794897
  9
$LOFTANG2
 40
1.570796326794897
  9
$LOFTMAG1
 40
0
  9
$LOFTMAG2
 40
0
  9
$LOFTPARAM
 70
    7
  9
$LOFTNORMALS
280
    1
  9
$LATITUDE
 40
1
  9
$LONGITUDE
 40
1
  9
$NORTHDIRECTION
 40
0
  9
$TIMEZONE
 70
-8000
  9
$LIGHTGLYPHDISPLAY
280
    1
  9
$TILEMODELIGHTSYNCH
280
    1
  9
$SOLIDHIST
280
    1
  9
$SHOWHIST
280
    1
  9
$DWFFRAME
280
    2
  9
$DGNFRAME
280
    0
  9
$REALWORLDSCALE
290
    1
  9
$INTERFERECOLOR
 62
    1
  9
$CSHADOW
280
    0
  9
$SHADOWPLANELOCATION
 40
0
  0
ENDSEC
  0
SECTION
  2
CLASSES
  0
ENDSEC
  0
SECTION
  2
TABLES
  0
TABLE
  2
VPORT
  5
8
330
0
100
AcDbSymbolTable
 70
    1
  0
VPORT
  5
31
330
2
100
AcDbSymbolTableRecord
100
AcDbViewportTableRecord
  2
*ACTIVE
 70
    0
 10
0
 20
0
 11
1
 21
1
 12
75.13749305425387
 22
51.52933813690522
 13
0
 23
0
 14
10
 24
10
 15
10
 25
10
 16
0
 26
0
 36
1
 17
0
 27
0
 37
0
 40
183.8712065678116
 41
1.634567901234568
 42
50
 43
0
 44
0
 50
0
 51
0
 71
    0
 72
  100
 73
    1
 74
    3
 75
    0
 76
    1
 77
    0
 78
    0
281
    0
 65
    1
110
0
120
0
130
0
111
1
121
0
131
0
112
0
122
1
132
0
 79
    0
146
0
348
10020
 60
    7
 61
    5
292
1
282
    1
141
0
142
0
 63
  250
421
3358443
  0
ENDTAB
  0
TABLE
  2
LTYPE
  5
5
330
0
100
AcDbSymbolTable
 70
    4
  0
LTYPE
  5
14
330
5
100
AcDbSymbolTableRecord
100
AcDbLinetypeTableRecord
  2
ByBlock
 70
    0
  3

 72
   65
 73
    0
 40
0
  0
LTYPE
  5
15
330
5
100
AcDbSymbolTableRecord
100
AcDbLinetypeTableRecord
  2
ByLayer
 70
    0
  3

 72
   65
 73
    0
 40
0
  0
LTYPE
  5
16
330
5
100
AcDbSymbolTableRecord
100
AcDbLinetypeTableRecord
  2
Continuous
 70
    0
  3
Solid line
 72
   65
 73
    0
 40
0
  0
LTYPE
  5
32
330
5
100
AcDbSymbolTableRecord
100
AcDbLinetypeTableRecord
  2
DOT
 70
    0
  3
Dot . . . . . . . . . . . . . . . . . . . . . .
 72
   65
 73
    2
 40
6.35
 49
0
 74
    0
 49
-6.35
 74
    0
  0
LTYPE
  5
33
330
5
100
AcDbSymbolTableRecord
100
AcDbLinetypeTableRecord
  2
DOTTINY
 70
    0
  3
Dot (.15x) .....................................
 72
   65
 73
    2
 40
0.9525
 49
0
 74
    0
 49
-0.9525
 74
    0
  0
LTYPE
  5
34
330
5
100
AcDbSymbolTableRecord
100
AcDbLinetypeTableRecord
  2
DOT2
 70
    0
  3
Dot (.5x) .....................................
 72
   65
 73
    2
 40
3.175
 49
0
 74
    0
 49
-3.175
 74
    0
  0
LTYPE
  5
35
330
5
100
AcDbSymbolTableRecord
100
AcDbLinetypeTableRecord
  2
DOTX2
 70
    0
  3
Dot (2x) .  .  .  .  .  .  .  .  .  .  .  .  .
 72
   65
 73
    2
 40
12.7
 49
0
 74
    0
 49
-12.7
 74
    0
  0
LTYPE
  5
36
330
5
100
AcDbSymbolTableRecord
100
AcDbLinetypeTableRecord
  2
DASHED
 70
    0
  3
Dashed _ _ _ _ _ _ _ _ _ _ _ _ _ _ _ _ _
 72
   65
 73
    2
 40
19.05
 49
12.7
 74
    0
 49
-6.35
 74
    0
  0
LTYPE
  5
37
330
5
100
AcDbSymbolTableRecord
100
AcDbLinetypeTableRecord
  2
DASHEDTINY
 70
    0
  3
Dashed (.15x) _ _ _ _ _ _ _ _ _ _ _ _ _ _ _ _ _
 72
   65
 73
    2
 40
2.8575
 49
1.905
 74
    0
 49
-0.9525
 74
    0
  0
LTYPE
  5
38
330
5
100
AcDbSymbolTableRecord
100
AcDbLinetypeTableRecord
  2
DASHED2
 70
    0
  3
Dashed (.5x) _ _ _ _ _ _ _ _ _ _ _ _ _ _ _ _ _
 72
   65
 73
    2
 40
9.524999999999999
 49
6.35
 74
    0
 49
-3.175
 74
    0
  0
LTYPE
  5
39
330
5
100
AcDbSymbolTableRecord
100
AcDbLinetypeTableRecord
  2
DASHEDX2
 70
    0
  3
Dashed (2x) ____  ____  ____  ____  ____  ___
 72
   65
 73
    2
 40
38.09999999999999
 49
25.4
 74
    0
 49
-12.7
 74
    0
  0
LTYPE
  5
3A
330
5
100
AcDbSymbolTableRecord
100
AcDbLinetypeTableRecord
  2
DASHDOT
 70
    0
  3
Dash dot __ . __ . __ . __ . __ . __ . __ . __
 72
   65
 73
    4
 40
25.4
 49
12.7
 74
    0
 49
-6.35
 74
    0
 49
0
 74
    0
 49
-6.35
 74
    0
  0
LTYPE
  5
3B
330
5
100
AcDbSymbolTableRecord
100
AcDbLinetypeTableRecord
  2
DASHDOTTINY
 70
    0
  3
Dash dot (.15x) _._._._._._._._._._._._._._._.
 72
   65
 73
    4
 40
3.81
 49
1.905
 74
    0
 49
-0.9525
 74
    0
 49
0
 74
    0
 49
-0.9525
 74
    0
  0
LTYPE
  5
3C
330
5
100
AcDbSymbolTableRecord
100
AcDbLinetypeTableRecord
  2
DASHDOT2
 70
    0
  3
Dash dot (.5x) _._._._._._._._._._._._._._._.
 72
   65
 73
    4
 40
12.7
 49
6.35
 74
    0
 49
-3.175
 74
    0
 49
0
 74
    0
 49
-3.175
 74
    0
  0
LTYPE
  5
3D
330
5
100
AcDbSymbolTableRecord
100
AcDbLinetypeTableRecord
  2
DASHDOTX2
 70
    0
  3
Dash dot (2x) ____  .  ____  .  ____  .  ___
 72
   65
 73
    4
 40
50.8
 49
25.4
 74
    0
 49
-12.7
 74
    0
 49
0
 74
    0
 49
-12.7
 74
    0
  0
LTYPE
  5
3E
330
5
100
AcDbSymbolTableRecord
100
AcDbLinetypeTableRecord
  2
DIVIDE
 70
    0
  3
Divide ____ . . ____ . . ____ . . ____ . . ____
 72
   65
 73
    6
 40
31.75
 49
12.7
 74
    0
 49
-6.35
 74
    0
 49
0
 74
    0
 49
-6.35
 74
    0
 49
0
 74
    0
 49
-6.35
 74
    0
  0
LTYPE
  5
3F
330
5
100
AcDbSymbolTableRecord
100
AcDbLinetypeTableRecord
  2
DIVIDETINY
 70
    0
  3
Divide (.15x) __..__..__..__..__..__..__..__.._
 72
   65
 73
    6
 40
4.7625
 49
1.905
 74
    0
 49
-0.9525
 74
    0
 49
0
 74
    0
 49
-0.9525
 74
    0
 49
0
 74
    0
 49
-0.9525
 74
    0
  0
LTYPE
  5
40
330
5
100
AcDbSymbolTableRecord
100
AcDbLinetypeTableRecord
  2
DIVIDE2
 70
    0
  3
Divide (.5x) __..__..__..__..__..__..__..__.._
 72
   65
 73
    6
 40
15.875
 49
6.35
 74
    0
 49
-3.175
 74
    0
 49
0
 74
    0
 49
-3.175
 74
    0
 49
0
 74
    0
 49
-3.175
 74
    0
  0
LTYPE
  5
41
330
5
100
AcDbSymbolTableRecord
100
AcDbLinetypeTableRecord
  2
DIVIDEX2
 70
    0
  3
Divide (2x) ________  .  .  ________  .  .  _
 72
   65
 73
    6
 40
63.5
 49
25.4
 74
    0
 49
-12.7
 74
    0
 49
0
 74
    0
 49
-12.7
 74
    0
 49
0
 74
    0
 49
-12.7
 74
    0
  0
LTYPE
  5
42
330
5
100
AcDbSymbolTableRecord
100
AcDbLinetypeTableRecord
  2
BORDER
 70
    0
  3
Border __ __ . __ __ . __ __ . __ __ . __ __ .
 72
   65
 73
    6
 40
44.45
 49
12.7
 74
    0
 49
-6.35
 74
    0
 49
12.7
 74
    0
 49
-6.35
 74
    0
 49
0
 74
    0
 49
-6.35
 74
    0
  0
LTYPE
  5
43
330
5
100
AcDbSymbolTableRecord
100
AcDbLinetypeTableRecord
  2
BORDERTINY
 70
    0
  3
Border (.15x) __.__.__.__.__.__.__.__.__.__.__.
 72
   65
 73
    6
 40
6.6675
 49
1.905
 74
    0
 49
-0.9525
 74
    0
 49
1.905
 74
    0
 49
-0.9525
 74
    0
 49
0
 74
    0
 49
-0.9525
 74
    0
  0
LTYPE
  5
44
330
5
100
AcDbSymbolTableRecord
100
AcDbLinetypeTableRecord
  2
BORDER2
 70
    0
  3
Border (.5x) __.__.__.__.__.__.__.__.__.__.__.
 72
   65
 73
    6
 40
22.225
 49
6.35
 74
    0
 49
-3.175
 74
    0
 49
6.35
 74
    0
 49
-3.175
 74
    0
 49
0
 74
    0
 49
-3.175
 74
    0
  0
LTYPE
  5
45
330
5
100
AcDbSymbolTableRecord
100
AcDbLinetypeTableRecord
  2
BORDERX2
 70
    0
  3
Border (2x) ____  ____  .  ____  ____  .  ___
 72
   65
 73
    6
 40
88.89999999999999
 49
25.4
 74
    0
 49
-12.7
 74
    0
 49
25.4
 74
    0
 49
-12.7
 74
    0
 49
0
 74
    0
 49
-12.7
 74
    0
  0
LTYPE
  5
46
330
5
100
AcDbSymbolTableRecord
100
AcDbLinetypeTableRecord
  2
CENTER
 70
    0
  3
Center ____ _ ____ _ ____ _ ____ _ ____ _ ____
 72
   65
 73
    4
 40
50.8
 49
31.75
 74
    0
 49
-6.35
 74
    0
 49
6.35
 74
    0
 49
-6.35
 74
    0
  0
LTYPE
  5
47
330
5
100
AcDbSymbolTableRecord
100
AcDbLinetypeTableRecord
  2
CENTERTINY
 70
    0
  3
Center (.15x) ___ _ ___ _ ___ _ ___ _ ___ _ ___
 72
   65
 73
    4
 40
7.619999999999999
 49
4.7625
 74
    0
 49
-0.9525
 74
    0
 49
0.9525
 74
    0
 49
-0.9525
 74
    0
  0
LTYPE
  5
48
330
5
100
AcDbSymbolTableRecord
100
AcDbLinetypeTableRecord
  2
CENTER2
 70
    0
  3
Center (.5x) ___ _ ___ _ ___ _ ___ _ ___ _ ___
 72
   65
 73
    4
 40
28.575
 49
19.05
 74
    0
 49
-3.175
 74
    0
 49
3.175
 74
    0
 49
-3.175
 74
    0
  0
LTYPE
  5
49
330
5
100
AcDbSymbolTableRecord
100
AcDbLinetypeTableRecord
  2
CENTERX2
 70
    0
  3
Center (2x) ________  __  ________  __  _____
 72
   65
 73
    4
 40
101.6
 49
63.5
 74
    0
 49
-12.7
 74
    0
 49
12.7
 74
    0
 49
-12.7
 74
    0
  0
ENDTAB
  0
TABLE
  2
LAYER
  5
2
330
0
100
AcDbSymbolTable
 70
    1
  0
LAYER
  5
10
330
2
100
AcDbSymbolTableRecord
100
AcDbLayerTableRecord
  2
0
 70
    4
 62
    7
  6
CONTINUOUS
370
    0
390
F
  0
LAYER
  5
4A
330
2
100
AcDbSymbolTableRecord
100
AcDbLayerTableRecord
  2
decoupe-int
 70
    4
 62
  163
420
6846133
  6
CONTINUOUS
370
   -3
390
F
  0
LAYER
  5
4B
330
2
100
AcDbSymbolTableRecord
100
AcDbLayerTableRecord
  2
ext1
 70
    4
 62
    1
  6
CONTINUOUS
370
   -3
390
F
  0
LAYER
  5
4C
330
2
100
AcDbSymbolTableRecord
100
AcDbLayerTableRecord
  2
ext2
 70
    4
 62
    3
  6
CONTINUOUS
370
   -3
390
F
  0
LAYER
  5
4D
330
2
100
AcDbSymbolTableRecord
100
AcDbLayerTableRecord
  2
ext3
 70
    4
 62
    5
  6
CONTINUOUS
370
   -3
390
F
  0
LAYER
  5
4E
330
2
100
AcDbSymbolTableRecord
100
AcDbLayerTableRecord
  2
logo
 70
    0
 62
    7
  6
CONTINUOUS
370
   -3
390
F
  0
LAYER
  5
4F
330
2
100
AcDbSymbolTableRecord
100
AcDbLayerTableRecord
  2
pcb
 70
    4
 62
    2
  6
CONTINUOUS
370
   -3
390
F
  0
LAYER
  5
50
330
2
100
AcDbSymbolTableRecord
100
AcDbLayerTableRecord
  2
supports
 70
    4
 62
    6
  6
CONTINUOUS
370
   -3
390
F
  0
ENDTAB
  0
TABLE
  2
STYLE
  5
3
330
0
100
AcDbSymbolTable
 70
    3
  0
STYLE
  5
51
330
2
100
AcDbSymbolTableRecord
100
AcDbTextStyleTableRecord
  2
Standard
 70
    0
 40
0
 41
1
 50
0
 71
    0
 42
1
  3
txt
  4

  0
ENDTAB
  0
TABLE
  2
VIEW
  5
6
330
0
100
AcDbSymbolTable
 70
    0
  0
ENDTAB
  0
TABLE
  2
UCS
  5
7
330
0
100
AcDbSymbolTable
 70
    0
  0
ENDTAB
  0
TABLE
  2
APPID
  5
9
330
0
100
AcDbSymbolTable
 70
    1
  0
APPID
  5
12
330
9
100
AcDbSymbolTableRecord
100
AcDbRegAppTableRecord
  2
ACAD
 70
    0
  0
APPID
  5
52
330
9
100
AcDbSymbolTableRecord
100
AcDbRegAppTableRecord
  2
LibreCad
 70
    0
  0
ENDTAB
  0
TABLE
  2
DIMSTYLE
  5
A
330
0
100
AcDbSymbolTable
 70
    1
100
AcDbDimStyleTable
 71
    1
  0
DIMSTYLE
105
53
330
A
100
AcDbSymbolTableRecord
100
AcDbDimStyleTableRecord
  2
Standard
 70
    0
 40
1
 41
2.5
 42
0.625
 43
0.38
 44
1.25
 45
0
 46
0
 47
0
 48
0
 49
1
140
2.5
141
0.09
142
2.5
143
25.4
144
1
145
0
146
1
147
0.625
148
0
 71
    0
 72
    0
 73
    0
 74
    1
 75
    0
 76
    0
 77
    0
 78
    1
 79
    0
170
    0
171
    2
172
    0
173
    0
174
    0
175
    0
176
    0
177
    0
178
    0
179
    0
271
    2
272
    4
273
    2
274
    2
275
    0
276
    0
277
    2
278
    0
279
    0
280
    0
281
    0
282
    0
283
    1
284
    0
285
    0
286
    0
288
    0
289
    3
340
standard
341

371
   -2
372
   -2
  0
ENDTAB
  0
TABLE
  2
BLOCK_RECORD
  5
1
330
0
100
AcDbSymbolTable
 70
    2
  0
BLOCK_RECORD
  5
1F
330
1
100
AcDbSymbolTableRecord
100
AcDbBlockTableRecord
  2
*Model_Space
 70
    0
280
    1
281
    0
  0
BLOCK_RECORD
  5
1E
330
1
100
AcDbSymbolTableRecord
100
AcDbBlockTableRecord
  2
*Paper_Space
 70
    0
280
    1
281
    0
  0
BLOCK_RECORD
  5
54
330
1
100
AcDbSymbolTableRecord
100
AcDbBlockTableRecord
  2
dessin2-0
 70
    0
280
    1
281
    0
  0
ENDTAB
  0
ENDSEC
  0
SECTION
  2
BLOCKS
  0
BLOCK
  5
20
330
1F
100
AcDbEntity
  8
0
100
AcDbBlockBegin
  2
*Model_Space
 70
    0
 10
0
 20
0
 30
0
  3
*Model_Space
  1

  0
ENDBLK
  5
21
330
1F
100
AcDbEntity
  8
0
100
AcDbBlockEnd
  0
BLOCK
  5
1C
330
1B
100
AcDbEntity
  8
0
100
AcDbBlockBegin
  2
*Paper_Space
 70
    0
 10
0
 20
0
 30
0
  3
*Paper_Space
  1

  0
ENDBLK
  5
1D
330
1F
100
AcDbEntity
  8
0
100
AcDbBlockEnd
  0
BLOCK
  5
55
330
54
100
AcDbEntity
  8
0
100
AcDbBlockBegin
  2
dessin2-0
 70
    0
 10
0
 20
0
  3
dessin2-0
  1

  0
SPLINE
  5
57
100
AcDbEntity
  8
0
  6
ByLayer
 62
    7
370
   -1
100
AcDbSpline
210
0
220
0
230
0
 70
    8
 71
    3
 72
    8
 73
    4
 74
    0
 42
1e-07
 43
1e-07
 40
0
 40
0
 40
0
 40
0
 40
1
 40
1
 40
1
 40
1
 10
9.320922000000003
 20
-18.02301
 30
0
 10
6.723708000000002
 20
-16.65279
 30
0
 10
-4.247202999999999
 20
-9.292179999999995
 30
0
 10
-4.558071999999996
 20
-8.711319999999994
 30
0
  0
SPLINE
  5
58
100
AcDbEntity
  8
0
  6
ByLayer
 62
    7
370
   -1
100
AcDbSpline
210
0
220
0
230
0
 70
    8
 71
    3
 72
    8
 73
    4
 74
    0
 42
1e-07
 43
1e-07
 40
0
 40
0
 40
0
 40
0
 40
1
 40
1
 40
1
 40
1
 10
-4.558071999999996
 20
-8.711319999999994
 30
0
 10
-4.700375999999999
 20
-8.445419999999999
 30
0
 10
-4.816803
 20
-7.989409999999999
 30
0
 10
-4.816803
 20
-7.697949999999999
 30
0
  0
SPLINE
  5
59
100
AcDbEntity
  8
0
  6
ByLayer
 62
    7
370
   -1
100
AcDbSpline
210
0
220
0
230
0
 70
    8
 71
    3
 72
    8
 73
    4
 74
    0
 42
1e-07
 43
1e-07
 40
0
 40
0
 40
0
 40
0
 40
1
 40
1
 40
1
 40
1
 10
-9.644399999999997
 20
-5.448829999999994
 30
0
 10
-16.271726
 20
-0.9542199999999923
 30
0
 10
-17.676241
 20
0.1152200000000079
 30
0
 10
-18.095929
 20
0.9864100000000064
 30
0
  0
SPLINE
  5
5A
100
AcDbEntity
  8
0
  6
ByLayer
 62
    7
370
   -1
100
AcDbSpline
210
0
220
0
230
0
 70
    8
 71
    3
 72
    8
 73
    4
 74
    0
 42
1e-07
 43
1e-07
 40
0
 40
0
 40
0
 40
0
 40
1
 40
1
 40
1
 40
1
 10
-18.095929
 20
0.9864100000000064
 30
0
 10
-18.347358
 20
1.508330000000001
 30
0
 10
-18.728083
 20
1.765610000000009
 30
0
 10
-19.479144
 20
1.921130000000005
 30
0
  0
SPLINE
  5
5B
100
AcDbEntity
  8
0
  6
ByLayer
 62
    7
370
   -1
100
AcDbSpline
210
0
220
0
230
0
 70
    8
 71
    3
 72
    8
 73
    4
 74
    0
 42
1e-07
 43
1e-07
 40
0
 40
0
 40
0
 40
0
 40
1
 40
1
 40
1
 40
1
 10
-19.479144
 20
1.921130000000005
 30
0
 10
-20.488704
 20
2.130189999999999
 30
0
 10
-26.459362
 20
5.910200000000003
 30
0
 10
-27.923907
 20
7.267490000000009
 30
0
  0
SPLINE
  5
5C
100
AcDbEntity
  8
0
  6
ByLayer
 62
    7
370
   -1
100
AcDbSpline
210
0
220
0
230
0
 70
    8
 71
    3
 72
    8
 73
    4
 74
    0
 42
1e-07
 43
1e-07
 40
0
 40
0
 40
0
 40
0
 40
1
 40
1
 40
1
 40
1
 10
-27.923907
 20
7.267490000000009
 30
0
 10
-28.787215
 20
8.067580000000007
 30
0
 10
-28.810483
 20
8.711799999999997
 30
0
 10
-28.094258
 20
11.98419
 30
0
  0
SPLINE
  5
5D
100
AcDbEntity
  8
0
  6
ByLayer
 62
    7
370
   -1
100
AcDbSpline
210
0
220
0
230
0
 70
    8
 71
    3
 72
    8
 73
    4
 74
    0
 42
1e-07
 43
1e-07
 40
0
 40
0
 40
0
 40
0
 40
1
 40
1
 40
1
 40
1
 10
-28.094258
 20
11.98419
 30
0
 10
-27.17218
 20
16.19712
 30
0
 10
-26.945893
 20
16.51164
 30
0
 10
-24.136207
 20
17.48559
 30
0
  0
SPLINE
  5
5E
100
AcDbEntity
  8
0
  6
ByLayer
 62
    7
370
   -1
100
AcDbSpline
210
0
220
0
230
0
 70
    8
 71
    3
 72
    8
 73
    4
 74
    0
 42
1e-07
 43
1e-07
 40
0
 40
0
 40
0
 40
0
 40
1
 40
1
 40
1
 40
1
 10
-24.136207
 20
17.48559
 30
0
 10
-23.18767
 20
17.81439
 30
0
 10
-21.870728
 20
18.35195
 30
0
 10
-21.209669
 20
18.68016
 30
0
  0
SPLINE
  5
5F
100
AcDbEntity
  8
0
  6
ByLayer
 62
    7
370
   -1
100
AcDbSpline
210
0
220
0
230
0
 70
    8
 71
    3
 72
    8
 73
    4
 74
    0
 42
1e-07
 43
1e-07
 40
0
 40
0
 40
0
 40
0
 40
1
 40
1
 40
1
 40
1
 10
-21.209669
 20
18.68016
 30
0
 10
-20.54861
 20
19.00837
 30
0
 10
-19.337889
 20
19.47164000000001
 30
0
 10
-18.519176
 20
19.70965000000001
 30
0
  0
LWPOLYLINE
  5
60
100
AcDbEntity
  8
0
  6
ByLayer
 62
    7
370
   -1
100
AcDbPolyline
 90
    5
 70
    0
 43
0
 10
-4.816803
 20
-7.697949999999999
 10
-4.816803
 20
-7.168019999999999
 10
-5.741796000000001
 20
-7.318129999999996
 10
-6.666787999999997
 20
-7.468229999999998
 10
-9.644399999999997
 20
-5.448829999999994
  0
SPLINE
  5
61
100
AcDbEntity
  8
0
  6
ByLayer
 62
    7
370
   -1
100
AcDbSpline
210
0
220
0
230
0
 70
    8
 71
    3
 72
    8
 73
    4
 74
    0
 42
1e-07
 43
1e-07
 40
0
 40
0
 40
0
 40
0
 40
1
 40
1
 40
1
 40
1
 10
-16.031177
 20
19.7248
 30
0
 10
-15.481489
 20
19.49512
 30
0
 10
-14.637538
 20
19.00653
 30
0
 10
-14.155731
 20
18.63904000000001
 30
0
  0
SPLINE
  5
62
100
AcDbEntity
  8
0
  6
ByLayer
 62
    7
370
   -1
100
AcDbSpline
210
0
220
0
230
0
 70
    8
 71
    3
 72
    8
 73
    4
 74
    0
 42
1e-07
 43
1e-07
 40
0
 40
0
 40
0
 40
0
 40
1
 40
1
 40
1
 40
1
 10
-14.155731
 20
18.63904000000001
 30
0
 10
-13.673923
 20
18.27155
 30
0
 10
-12.644985
 20
17.75249000000001
 30
0
 10
-11.869203
 20
17.48558
 30
0
  0
SPLINE
  5
63
100
AcDbEntity
  8
0
  6
ByLayer
 62
    7
370
   -1
100
AcDbSpline
210
0
220
0
230
0
 70
    8
 71
    3
 72
    8
 73
    4
 74
    0
 42
1e-07
 43
1e-07
 40
0
 40
0
 40
0
 40
0
 40
1
 40
1
 40
1
 40
1
 10
-11.869203
 20
17.48558
 30
0
 10
-9.958483999999999
 20
16.82820000000001
 30
0
 10
-9.370028999999999
 20
16.42333000000001
 30
0
 10
-9.068624999999997
 20
15.55872000000001
 30
0
  0
SPLINE
  5
64
100
AcDbEntity
  8
0
  6
ByLayer
 62
    7
370
   -1
100
AcDbSpline
210
0
220
0
230
0
 70
    8
 71
    3
 72
    8
 73
    4
 74
    0
 42
1e-07
 43
1e-07
 40
0
 40
0
 40
0
 40
0
 40
1
 40
1
 40
1
 40
1
 10
-9.068624999999997
 20
15.55872000000001
 30
0
 10
-8.676491999999996
 20
14.43385000000001
 30
0
 10
-8.432423999999997
 20
14.64970000000001
 30
0
 10
-7.489871999999998
 20
16.955
 30
0
  0
LWPOLYLINE
  5
65
100
AcDbEntity
  8
0
  6
ByLayer
 62
    7
370
   -1
100
AcDbPolyline
 90
    3
 70
    0
 43
0
 10
-18.519176
 20
19.70965000000001
 10
-17.030609
 20
20.14239000000001
 10
-16.031177
 20
19.7248
  0
SPLINE
  5
66
100
AcDbEntity
  8
0
  6
ByLayer
 62
    7
370
   -1
100
AcDbSpline
210
0
220
0
230
0
 70
    8
 71
    3
 72
    8
 73
    4
 74
    0
 42
1e-07
 43
1e-07
 40
0
 40
0
 40
0
 40
0
 40
1
 40
1
 40
1
 40
1
 10
-5.651888
 20
19.68889
 30
0
 10
-2.56935
 20
21.61533
 30
0
 10
-0.6332799999999992
 20
22.61624
 30
0
 10
0.8634150000000034
 20
23.05717
 30
0
  0
LWPOLYLINE
  5
67
100
AcDbEntity
  8
0
  6
ByLayer
 62
    7
370
   -1
100
AcDbPolyline
 90
    3
 70
    0
 43
0
 10
-7.489871999999998
 20
16.955
 10
-6.619264999999999
 20
19.08433000000001
 10
-5.651888
 20
19.68889
  0
SPLINE
  5
68
100
AcDbEntity
  8
0
  6
ByLayer
 62
    7
370
   -1
100
AcDbSpline
210
0
220
0
230
0
 70
    8
 71
    3
 72
    8
 73
    4
 74
    0
 42
1e-07
 43
1e-07
 40
0
 40
0
 40
0
 40
0
 40
1
 40
1
 40
1
 40
1
 10
4.038415000000001
 20
22.13234
 30
0
 10
5.352679999999999
 20
21.49643
 30
0
 10
7.111053000000005
 20
20.78002000000001
 30
0
 10
7.945906000000001
 20
20.54034
 30
0
  0
LWPOLYLINE
  5
69
100
AcDbEntity
  8
0
  6
ByLayer
 62
    7
370
   -1
100
AcDbPolyline
 90
    3
 70
    0
 43
0
 10
0.8634150000000034
 20
23.05717
 10
1.648841000000004
 20
23.28856
 10
4.038415000000001
 20
22.13234
  0
SPLINE
  5
6A
100
AcDbEntity
  8
0
  6
ByLayer
 62
    7
370
   -1
100
AcDbSpline
210
0
220
0
230
0
 70
    8
 71
    3
 72
    8
 73
    4
 74
    0
 42
1e-07
 43
1e-07
 40
0
 40
0
 40
0
 40
0
 40
1
 40
1
 40
1
 40
1
 10
9.617602000000005
 20
19.49184000000001
 30
0
 10
9.922203000000003
 20
18.27822
 30
0
 10
10.825118
 20
14.41329
 30
0
 10
10.96960900000001
 20
13.70457
 30
0
  0
SPLINE
  5
6B
100
AcDbEntity
  8
0
  6
ByLayer
 62
    7
370
   -1
100
AcDbSpline
210
0
220
0
230
0
 70
    8
 71
    3
 72
    8
 73
    4
 74
    0
 42
1e-07
 43
1e-07
 40
0
 40
0
 40
0
 40
0
 40
1
 40
1
 40
1
 40
1
 10
10.96960900000001
 20
13.70457
 30
0
 10
11.256169
 20
12.29903
 30
0
 10
10.860693
 20
11.74623
 30
0
 10
7.862723000000003
 20
9.361670000000004
 30
0
  0
LWPOLYLINE
  5
6C
100
AcDbEntity
  8
0
  6
ByLayer
 62
    7
370
   -1
100
AcDbPolyline
 90
    3
 70
    0
 43
0
 10
7.945906000000001
 20
20.54034
 10
9.463823000000005
 20
20.10455
 10
9.617602000000005
 20
19.49184000000001
  0
SPLINE
  5
6D
100
AcDbEntity
  8
0
  6
ByLayer
 62
    7
370
   -1
100
AcDbSpline
210
0
220
0
230
0
 70
    8
 71
    3
 72
    8
 73
    4
 74
    0
 42
1e-07
 43
1e-07
 40
0
 40
0
 40
0
 40
0
 40
1
 40
1
 40
1
 40
1
 10
5.089238999999999
 20
6.239730000000009
 30
0
 10
5.345988000000006
 20
4.955970000000008
 30
0
 10
5.632172000000004
 20
4.90925
 30
0
 10
6.972070000000002
 20
5.932340000000011
 30
0
  0
SPLINE
  5
6E
100
AcDbEntity
  8
0
  6
ByLayer
 62
    7
370
   -1
100
AcDbSpline
210
0
220
0
230
0
 70
    8
 71
    3
 72
    8
 73
    4
 74
    0
 42
1e-07
 43
1e-07
 40
0
 40
0
 40
0
 40
0
 40
1
 40
1
 40
1
 40
1
 10
6.972070000000002
 20
5.932340000000011
 30
0
 10
8.356097000000005
 20
6.98912
 30
0
 10
9.169223000000002
 20
7.102410000000006
 30
0
 10
10.418014
 20
6.412430000000001
 30
0
  0
SPLINE
  5
6F
100
AcDbEntity
  8
0
  6
ByLayer
 62
    7
370
   -1
100
AcDbSpline
210
0
220
0
230
0
 70
    8
 71
    3
 72
    8
 73
    4
 74
    0
 42
1e-07
 43
1e-07
 40
0
 40
0
 40
0
 40
0
 40
1
 40
1
 40
1
 40
1
 10
10.418014
 20
6.412430000000001
 30
0
 10
12.876379
 20
5.054150000000007
 30
0
 10
16.741923
 20
3.181550000000001
 30
0
 10
18.377728
 20
2.556470000000004
 30
0
  0
LWPOLYLINE
  5
70
100
AcDbEntity
  8
0
  6
ByLayer
 62
    7
370
   -1
100
AcDbPolyline
 90
    3
 70
    0
 43
0
 10
7.862723000000003
 20
9.361670000000004
 10
4.931193
 20
7.029960000000003
 10
5.089238999999999
 20
6.239730000000009
  0
SPLINE
  5
71
100
AcDbEntity
  8
0
  6
ByLayer
 62
    7
370
   -1
100
AcDbSpline
210
0
220
0
230
0
 70
    8
 71
    3
 72
    8
 73
    4
 74
    0
 42
1e-07
 43
1e-07
 40
0
 40
0
 40
0
 40
0
 40
1
 40
1
 40
1
 40
1
 10
20.67743100000001
 20
0.859499999999997
 30
0
 10
21.278249
 20
-0.5114399999999932
 30
0
 10
22.171046
 20
-4.550509999999996
 30
0
 10
22.168953
 20
-5.888229999999993
 30
0
  0
SPLINE
  5
72
100
AcDbEntity
  8
0
  6
ByLayer
 62
    7
370
   -1
100
AcDbSpline
210
0
220
0
230
0
 70
    8
 71
    3
 72
    8
 73
    4
 74
    0
 42
1e-07
 43
1e-07
 40
0
 40
0
 40
0
 40
0
 40
1
 40
1
 40
1
 40
1
 10
22.168953
 20
-5.888229999999993
 30
0
 10
22.167053
 20
-7.122089999999993
 30
0
 10
21.966248
 20
-7.474269999999997
 30
0
 10
19.657155
 20
-10.29414999999999
 30
0
  0
SPLINE
  5
73
100
AcDbEntity
  8
0
  6
ByLayer
 62
    7
370
   -1
100
AcDbSpline
210
0
220
0
230
0
 70
    8
 71
    3
 72
    8
 73
    4
 74
    0
 42
1e-07
 43
1e-07
 40
0
 40
0
 40
0
 40
0
 40
1
 40
1
 40
1
 40
1
 10
19.657155
 20
-10.29414999999999
 30
0
 10
18.78403
 20
-11.36042
 30
0
 10
17.712468
 20
-12.67713
 30
0
 10
17.275905
 20
-13.22017
 30
0
  0
SPLINE
  5
74
100
AcDbEntity
  8
0
  6
ByLayer
 62
    7
370
   -1
100
AcDbSpline
210
0
220
0
230
0
 70
    8
 71
    3
 72
    8
 73
    4
 74
    0
 42
1e-07
 43
1e-07
 40
0
 40
0
 40
0
 40
0
 40
1
 40
1
 40
1
 40
1
 10
17.275905
 20
-13.22017
 30
0
 10
13.286997
 20
-18.18198
 30
0
 10
13.289333
 20
-18.17963
 30
0
 10
11.786127
 20
-18.75115
 30
0
  0
LWPOLYLINE
  5
75
100
AcDbEntity
  8
0
  6
ByLayer
 62
    7
370
   -1
100
AcDbPolyline
 90
    3
 70
    0
 43
0
 10
18.377728
 20
2.556470000000004
 10
20.246721
 20
1.842290000000006
 10
20.67743100000001
 20
0.859499999999997
  0
SPLINE
  5
76
100
AcDbEntity
  8
0
  6
ByLayer
 62
    7
370
   -1
100
AcDbSpline
210
0
220
0
230
0
 70
    8
 71
    3
 72
    8
 73
    4
 74
    0
 42
1e-07
 43
1e-07
 40
0
 40
0
 40
0
 40
0
 40
1
 40
1
 40
1
 40
1
 10
15.172322
 20
-13.57550999999999
 30
0
 10
16.911376
 20
-11.44260999999999
 30
0
 10
18.790888
 20
-9.161429999999996
 30
0
 10
19.34901600000001
 20
-8.506229999999995
 30
0
  0
SPLINE
  5
77
100
AcDbEntity
  8
0
  6
ByLayer
 62
    7
370
   -1
100
AcDbSpline
210
0
220
0
230
0
 70
    8
 71
    3
 72
    8
 73
    4
 74
    0
 42
1e-07
 43
1e-07
 40
0
 40
0
 40
0
 40
0
 40
1
 40
1
 40
1
 40
1
 10
19.34901600000001
 20
-8.506229999999995
 30
0
 10
21.011682
 20
-6.554379999999995
 30
0
 10
21.083127
 20
-5.844929999999998
 30
0
 10
20.026712
 20
-1.776939999999996
 30
0
  0
SPLINE
  5
78
100
AcDbEntity
  8
0
  6
ByLayer
 62
    7
370
   -1
100
AcDbSpline
210
0
220
0
230
0
 70
    8
 71
    3
 72
    8
 73
    4
 74
    0
 42
1e-07
 43
1e-07
 40
0
 40
0
 40
0
 40
0
 40
1
 40
1
 40
1
 40
1
 10
20.026712
 20
-1.776939999999996
 30
0
 10
19.681732
 20
-0.4485099999999989
 30
0
 10
19.81730200000001
 20
-0.375079999999997
 30
0
 10
16.250986
 20
-3.822029999999998
 30
0
  0
LWPOLYLINE
  5
79
100
AcDbEntity
  8
0
  6
ByLayer
 62
    7
370
   -1
100
AcDbPolyline
 90
    3
 70
    0
 43
0
 10
11.786127
 20
-18.75115
 10
11.15551900000001
 20
-18.9909
 10
9.320922000000003
 20
-18.02301
  0
SPLINE
  5
7A
100
AcDbEntity
  8
0
  6
ByLayer
 62
    7
370
   -1
100
AcDbSpline
210
0
220
0
230
0
 70
    8
 71
    3
 72
    8
 73
    4
 74
    0
 42
1e-07
 43
1e-07
 40
0
 40
0
 40
0
 40
0
 40
1
 40
1
 40
1
 40
1
 10
12.160208
 20
-7.036539999999995
 30
0
 10
10.15334
 20
-7.413029999999999
 30
0
 10
6.459149000000004
 20
-5.804119999999998
 30
0
 10
2.231694000000005
 20
-2.712409999999998
 30
0
  0
SPLINE
  5
7B
100
AcDbEntity
  8
0
  6
ByLayer
 62
    7
370
   -1
100
AcDbSpline
210
0
220
0
230
0
 70
    8
 71
    3
 72
    8
 73
    4
 74
    0
 42
1e-07
 43
1e-07
 40
0
 40
0
 40
0
 40
0
 40
1
 40
1
 40
1
 40
1
 10
2.231694000000005
 20
-2.712409999999998
 30
0
 10
1.378942000000002
 20
-2.088759999999994
 30
0
 10
0.5300190000000029
 20
-1.578499999999991
 30
0
 10
0.3452020000000005
 20
-1.578499999999991
 30
0
  0
SPLINE
  5
7C
100
AcDbEntity
  8
0
  6
ByLayer
 62
    7
370
   -1
100
AcDbSpline
210
0
220
0
230
0
 70
    8
 71
    3
 72
    8
 73
    4
 74
    0
 42
1e-07
 43
1e-07
 40
0
 40
0
 40
0
 40
0
 40
1
 40
1
 40
1
 40
1
 10
0.3452020000000005
 20
-1.578499999999991
 30
0
 10
-0.1848570000000009
 20
-1.578499999999991
 30
0
 10
-3.261171999999995
 20
-6.891939999999998
 30
0
 10
-3.17268
 20
-7.654619999999994
 30
0
  0
LWPOLYLINE
  5
7D
100
AcDbEntity
  8
0
  6
ByLayer
 62
    7
370
   -1
100
AcDbPolyline
 90
    3
 70
    0
 43
0
 10
16.250986
 20
-3.822029999999998
 10
13.1094
 20
-6.858469999999997
 10
12.160208
 20
-7.036539999999995
  0
SPLINE
  5
7E
100
AcDbEntity
  8
0
  6
ByLayer
 62
    7
370
   -1
100
AcDbSpline
210
0
220
0
230
0
 70
    8
 71
    3
 72
    8
 73
    4
 74
    0
 42
1e-07
 43
1e-07
 40
0
 40
0
 40
0
 40
0
 40
1
 40
1
 40
1
 40
1
 10
1.665490000000005
 20
-11.53878
 30
0
 10
8.385999000000005
 20
-16.09956
 30
0
 10
10.56211500000001
 20
-17.42785
 30
0
 10
11.33586500000001
 20
-17.44156
 30
0
  0
LWPOLYLINE
  5
7F
100
AcDbEntity
  8
0
  6
ByLayer
 62
    7
370
   -1
100
AcDbPolyline
 90
    3
 70
    0
 43
0
 10
-3.17268
 20
-7.654619999999994
 10
-3.097009999999997
 20
-8.306769999999993
 10
1.665490000000005
 20
-11.53878
  0
SPLINE
  5
80
100
AcDbEntity
  8
0
  6
ByLayer
 62
    7
370
   -1
100
AcDbSpline
210
0
220
0
230
0
 70
    8
 71
    3
 72
    8
 73
    4
 74
    0
 42
1e-07
 43
1e-07
 40
0
 40
0
 40
0
 40
0
 40
1
 40
1
 40
1
 40
1
 10
-4.396252999999994
 20
-5.268039999999999
 30
0
 10
-3.912316999999994
 20
-4.96895
 30
0
 10
-3.095682999999994
 20
-4.046209999999995
 30
0
 10
-2.581512999999994
 20
-3.217519999999993
 30
0
  0
SPLINE
  5
81
100
AcDbEntity
  8
0
  6
ByLayer
 62
    7
370
   -1
100
AcDbSpline
210
0
220
0
230
0
 70
    8
 71
    3
 72
    8
 73
    4
 74
    0
 42
1e-07
 43
1e-07
 40
0
 40
0
 40
0
 40
0
 40
1
 40
1
 40
1
 40
1
 10
-2.581512999999994
 20
-3.217519999999993
 30
0
 10
-0.3751689999999996
 20
0.3384800000000041
 30
0
 10
0.3304910000000021
 20
1.206540000000004
 30
0
 10
1.847390000000004
 20
2.230590000000007
 30
0
  0
SPLINE
  5
82
100
AcDbEntity
  8
0
  6
ByLayer
 62
    7
370
   -1
100
AcDbSpline
210
0
220
0
230
0
 70
    8
 71
    3
 72
    8
 73
    4
 74
    0
 42
1e-07
 43
1e-07
 40
0
 40
0
 40
0
 40
0
 40
1
 40
1
 40
1
 40
1
 10
1.847390000000004
 20
2.230590000000007
 30
0
 10
2.620468000000002
 20
2.752499999999998
 30
0
 10
3.516895000000005
 20
3.38888
 30
0
 10
3.839448000000004
 20
3.644779999999997
 30
0
  0
LWPOLYLINE
  5
83
100
AcDbEntity
  8
0
  6
ByLayer
 62
    7
370
   -1
100
AcDbPolyline
 90
    4
 70
    0
 43
0
 10
11.33586500000001
 20
-17.44156
 10
12.01041
 20
-17.45356
 10
15.17232300000001
 20
-13.57556
 10
15.172322
 20
-13.57550999999999
  0
SPLINE
  5
84
100
AcDbEntity
  8
0
  6
ByLayer
 62
    7
370
   -1
100
AcDbSpline
210
0
220
0
230
0
 70
    8
 71
    3
 72
    8
 73
    4
 74
    0
 42
1e-07
 43
1e-07
 40
0
 40
0
 40
0
 40
0
 40
1
 40
1
 40
1
 40
1
 10
3.788905
 20
5.924469999999999
 30
0
 10
3.438554000000003
 20
6.922409999999999
 30
0
 10
3.095548000000001
 20
7.795259999999999
 30
0
 10
3.026669000000005
 20
7.864140000000006
 30
0
  0
SPLINE
  5
85
100
AcDbEntity
  8
0
  6
ByLayer
 62
    7
370
   -1
100
AcDbSpline
210
0
220
0
230
0
 70
    8
 71
    3
 72
    8
 73
    4
 74
    0
 42
1e-07
 43
1e-07
 40
0
 40
0
 40
0
 40
0
 40
1
 40
1
 40
1
 40
1
 10
3.026669000000005
 20
7.864140000000006
 30
0
 10
2.824491000000002
 20
8.066310000000001
 30
0
 10
-0.07946199999999948
 20
6.343590000000006
 30
0
 10
-3.207138999999998
 20
4.16604000000001
 30
0
  0
SPLINE
  5
86
100
AcDbEntity
  8
0
  6
ByLayer
 62
    7
370
   -1
100
AcDbSpline
210
0
220
0
230
0
 70
    8
 71
    3
 72
    8
 73
    4
 74
    0
 42
1e-07
 43
1e-07
 40
0
 40
0
 40
0
 40
0
 40
1
 40
1
 40
1
 40
1
 10
-3.207138999999998
 20
4.16604000000001
 30
0
 10
-4.039909999999999
 20
3.586250000000007
 30
0
 10
-4.762031999999998
 20
3.323130000000006
 30
0
 10
-5.720679999999994
 20
3.250200000000007
 30
0
  0
LWPOLYLINE
  5
87
100
AcDbEntity
  8
0
  6
ByLayer
 62
    7
370
   -1
100
AcDbPolyline
 90
    3
 70
    0
 43
0
 10
3.839448000000004
 20
3.644779999999997
 10
4.425905
 20
4.110039999999998
 10
3.788905
 20
5.924469999999999
  0
SPLINE
  5
88
100
AcDbEntity
  8
0
  6
ByLayer
 62
    7
370
   -1
100
AcDbSpline
210
0
220
0
230
0
 70
    8
 71
    3
 72
    8
 73
    4
 74
    0
 42
1e-07
 43
1e-07
 40
0
 40
0
 40
0
 40
0
 40
1
 40
1
 40
1
 40
1
 10
-9.300539999999998
 20
4.239879999999999
 30
0
 10
-10.529668
 20
4.840479999999999
 30
0
 10
-12.116111
 20
5.758229999999998
 30
0
 10
-12.82597
 20
6.279310000000009
 30
0
  0
LWPOLYLINE
  5
89
100
AcDbEntity
  8
0
  6
ByLayer
 62
    7
370
   -1
100
AcDbPolyline
 90
    3
 70
    0
 43
0
 10
-5.720679999999994
 20
3.250200000000007
 10
-7.065761999999996
 20
3.147869999999998
 10
-9.300539999999998
 20
4.239879999999999
  0
SPLINE
  5
8A
100
AcDbEntity
  8
0
  6
ByLayer
 62
    7
370
   -1
100
AcDbSpline
210
0
220
0
230
0
 70
    8
 71
    3
 72
    8
 73
    4
 74
    0
 42
1e-07
 43
1e-07
 40
0
 40
0
 40
0
 40
0
 40
1
 40
1
 40
1
 40
1
 10
-14.493936
 20
6.849420000000009
 30
0
 10
-15.088369
 20
6.254990000000006
 30
0
 10
-16.772008
 20
1.900810000000007
 30
0
 10
-16.603841
 20
1.392840000000007
 30
0
  0
SPLINE
  5
8B
100
AcDbEntity
  8
0
  6
ByLayer
 62
    7
370
   -1
100
AcDbSpline
210
0
220
0
230
0
 70
    8
 71
    3
 72
    8
 73
    4
 74
    0
 42
1e-07
 43
1e-07
 40
0
 40
0
 40
0
 40
0
 40
1
 40
1
 40
1
 40
1
 10
-16.603841
 20
1.392840000000007
 30
0
 10
-16.520481
 20
1.141050000000007
 30
0
 10
-14.906553
 20
-0.1365199999999902
 30
0
 10
-13.017331
 20
-1.446209999999994
 30
0
  0
SPLINE
  5
8C
100
AcDbEntity
  8
0
  6
ByLayer
 62
    7
370
   -1
100
AcDbSpline
210
0
220
0
230
0
 70
    8
 71
    3
 72
    8
 73
    4
 74
    0
 42
1e-07
 43
1e-07
 40
0
 40
0
 40
0
 40
0
 40
1
 40
1
 40
1
 40
1
 10
-13.017331
 20
-1.446209999999994
 30
0
 10
-11.128108
 20
-2.755899999999997
 30
0
 10
-8.974420999999996
 20
-4.273949999999999
 30
0
 10
-8.231357999999997
 20
-4.819649999999996
 30
0
  0
SPLINE
  5
8D
100
AcDbEntity
  8
0
  6
ByLayer
 62
    7
370
   -1
100
AcDbSpline
210
0
220
0
230
0
 70
    8
 71
    3
 72
    8
 73
    4
 74
    0
 42
1e-07
 43
1e-07
 40
0
 40
0
 40
0
 40
0
 40
1
 40
1
 40
1
 40
1
 10
-8.231357999999997
 20
-4.819649999999996
 30
0
 10
-6.673932999999998
 20
-5.963419999999999
 30
0
 10
-5.704749
 20
-6.076729999999998
 30
0
 10
-4.396252999999994
 20
-5.268039999999999
 30
0
  0
LWPOLYLINE
  5
8E
100
AcDbEntity
  8
0
  6
ByLayer
 62
    7
370
   -1
100
AcDbPolyline
 90
    3
 70
    0
 43
0
 10
-12.82597
 20
6.279310000000009
 10
-14.116621
 20
7.226740000000007
 10
-14.493936
 20
6.849420000000009
  0
SPLINE
  5
8F
100
AcDbEntity
  8
0
  6
ByLayer
 62
    7
370
   -1
100
AcDbSpline
210
0
220
0
230
0
 70
    8
 71
    3
 72
    8
 73
    4
 74
    0
 42
1e-07
 43
1e-07
 40
0
 40
0
 40
0
 40
0
 40
1
 40
1
 40
1
 40
1
 10
15.460565
 20
-2.706299999999999
 30
0
 10
17.113845
 20
-1.159459999999996
 30
0
 10
18.46653000000001
 20
0.1340700000000083
 30
0
 10
18.46653000000001
 20
0.168210000000002
 30
0
  0
SPLINE
  5
90
100
AcDbEntity
  8
0
  6
ByLayer
 62
    7
370
   -1
100
AcDbSpline
210
0
220
0
230
0
 70
    8
 71
    3
 72
    8
 73
    4
 74
    0
 42
1e-07
 43
1e-07
 40
0
 40
0
 40
0
 40
0
 40
1
 40
1
 40
1
 40
1
 10
18.46653000000001
 20
0.168210000000002
 30
0
 10
18.46653000000001
 20
0.2023099999999971
 30
0
 10
18.5388
 20
0.4186300000000074
 30
0
 10
18.62713
 20
0.6488099999999974
 30
0
  0
SPLINE
  5
91
100
AcDbEntity
  8
0
  6
ByLayer
 62
    7
370
   -1
100
AcDbSpline
210
0
220
0
230
0
 70
    8
 71
    3
 72
    8
 73
    4
 74
    0
 42
1e-07
 43
1e-07
 40
0
 40
0
 40
0
 40
0
 40
1
 40
1
 40
1
 40
1
 10
18.62713
 20
0.6488099999999974
 30
0
 10
18.727581
 20
0.9105899999999991
 30
0
 10
18.64557
 20
1.067329999999998
 30
0
 10
18.408171
 20
1.067329999999998
 30
0
  0
SPLINE
  5
92
100
AcDbEntity
  8
0
  6
ByLayer
 62
    7
370
   -1
100
AcDbSpline
210
0
220
0
230
0
 70
    8
 71
    3
 72
    8
 73
    4
 74
    0
 42
1e-07
 43
1e-07
 40
0
 40
0
 40
0
 40
0
 40
1
 40
1
 40
1
 40
1
 10
18.408171
 20
1.067329999999998
 30
0
 10
17.782223
 20
1.067329999999998
 30
0
 10
13.393214
 20
3.056460000000001
 30
0
 10
11.56939300000001
 20
4.166710000000009
 30
0
  0
SPLINE
  5
93
100
AcDbEntity
  8
0
  6
ByLayer
 62
    7
370
   -1
100
AcDbSpline
210
0
220
0
230
0
 70
    8
 71
    3
 72
    8
 73
    4
 74
    0
 42
1e-07
 43
1e-07
 40
0
 40
0
 40
0
 40
0
 40
1
 40
1
 40
1
 40
1
 10
11.56939300000001
 20
4.166710000000009
 30
0
 10
8.869351999999999
 20
5.810370000000006
 30
0
 10
9.389842999999999
 20
5.918930000000003
 30
0
 10
4.97278
 20
2.790890000000005
 30
0
  0
SPLINE
  5
94
100
AcDbEntity
  8
0
  6
ByLayer
 62
    7
370
   -1
100
AcDbSpline
210
0
220
0
230
0
 70
    8
 71
    3
 72
    8
 73
    4
 74
    0
 42
1e-07
 43
1e-07
 40
0
 40
0
 40
0
 40
0
 40
1
 40
1
 40
1
 40
1
 10
4.97278
 20
2.790890000000005
 30
0
 10
4.026895000000003
 20
2.121040000000008
 30
0
 10
2.867509000000005
 20
1.310380000000009
 30
0
 10
2.396368000000002
 20
0.9894299999999987
 30
0
  0
SPLINE
  5
95
100
AcDbEntity
  8
0
  6
ByLayer
 62
    7
370
   -1
100
AcDbSpline
210
0
220
0
230
0
 70
    8
 71
    3
 72
    8
 73
    4
 74
    0
 42
1e-07
 43
1e-07
 40
0
 40
0
 40
0
 40
0
 40
1
 40
1
 40
1
 40
1
 10
2.396368000000002
 20
0.9894299999999987
 30
0
 10
0.8566679999999991
 20
-0.0594600000000014
 30
0
 10
1.885421000000001
 20
-1.277289999999994
 30
0
 10
6.483165
 20
-3.848499999999994
 30
0
  0
SPLINE
  5
96
100
AcDbEntity
  8
0
  6
ByLayer
 62
    7
370
   -1
100
AcDbSpline
210
0
220
0
230
0
 70
    8
 71
    3
 72
    8
 73
    4
 74
    0
 42
1e-07
 43
1e-07
 40
0
 40
0
 40
0
 40
0
 40
1
 40
1
 40
1
 40
1
 10
6.483165
 20
-3.848499999999994
 30
0
 10
11.025984
 20
-6.388979999999997
 30
0
 10
11.602908
 20
-6.315579999999997
 30
0
 10
15.460565
 20
-2.706299999999999
 30
0
  0
SPLINE
  5
97
100
AcDbEntity
  8
0
  6
ByLayer
 62
    7
370
   -1
100
AcDbSpline
210
0
220
0
230
0
 70
    8
 71
    3
 72
    8
 73
    4
 74
    0
 42
1e-07
 43
1e-07
 40
0
 40
0
 40
0
 40
0
 40
1
 40
1
 40
1
 40
1
 10
-18.196777
 20
3.081209999999999
 30
0
 10
-17.964875
 20
3.170209999999997
 30
0
 10
-17.073856
 20
4.702640000000002
 30
0
 10
-16.216734
 20
6.486640000000008
 30
0
  0
SPLINE
  5
98
100
AcDbEntity
  8
0
  6
ByLayer
 62
    7
370
   -1
100
AcDbSpline
210
0
220
0
230
0
 70
    8
 71
    3
 72
    8
 73
    4
 74
    0
 42
1e-07
 43
1e-07
 40
0
 40
0
 40
0
 40
0
 40
1
 40
1
 40
1
 40
1
 10
-13.507879
 20
10.41373
 30
0
 10
-12.875131
 20
10.78962
 30
0
 10
-11.73235
 20
11.39375
 30
0
 10
-10.968366
 20
11.75623
 30
0
  0
SPLINE
  5
99
100
AcDbEntity
  8
0
  6
ByLayer
 62
    7
370
   -1
100
AcDbSpline
210
0
220
0
230
0
 70
    8
 71
    3
 72
    8
 73
    4
 74
    0
 42
1e-07
 43
1e-07
 40
0
 40
0
 40
0
 40
0
 40
1
 40
1
 40
1
 40
1
 10
-10.968366
 20
11.75623
 30
0
 10
-10.204381
 20
12.11872000000001
 30
0
 10
-9.579302999999996
 20
12.52637
 30
0
 10
-9.579302999999996
 20
12.66212
 30
0
  0
SPLINE
  5
9A
100
AcDbEntity
  8
0
  6
ByLayer
 62
    7
370
   -1
100
AcDbSpline
210
0
220
0
230
0
 70
    8
 71
    3
 72
    8
 73
    4
 74
    0
 42
1e-07
 43
1e-07
 40
0
 40
0
 40
0
 40
0
 40
1
 40
1
 40
1
 40
1
 10
-9.579302999999996
 20
12.66212
 30
0
 10
-9.579302999999996
 20
12.88552
 30
0
 10
-10.34181
 20
14.86303000000001
 30
0
 10
-10.49068
 20
15.02573000000001
 30
0
  0
SPLINE
  5
9B
100
AcDbEntity
  8
0
  6
ByLayer
 62
    7
370
   -1
100
AcDbSpline
210
0
220
0
230
0
 70
    8
 71
    3
 72
    8
 73
    4
 74
    0
 42
1e-07
 43
1e-07
 40
0
 40
0
 40
0
 40
0
 40
1
 40
1
 40
1
 40
1
 10
-10.49068
 20
15.02573000000001
 30
0
 10
-10.54559
 20
15.08573
 30
0
 10
-14.175938
 20
13.43259
 30
0
 10
-17.516803
 20
11.82626
 30
0
  0
SPLINE
  5
9C
100
AcDbEntity
  8
0
  6
ByLayer
 62
    7
370
   -1
100
AcDbSpline
210
0
220
0
230
0
 70
    8
 71
    3
 72
    8
 73
    4
 74
    0
 42
1e-07
 43
1e-07
 40
0
 40
0
 40
0
 40
0
 40
1
 40
1
 40
1
 40
1
 10
-17.516803
 20
11.82626
 30
0
 10
-19.742525
 20
10.7561
 30
0
 10
-22.255913
 20
11.25199000000001
 30
0
 10
-24.894672
 20
13.28192
 30
0
  0
SPLINE
  5
9D
100
AcDbEntity
  8
0
  6
ByLayer
 62
    7
370
   -1
100
AcDbSpline
210
0
220
0
230
0
 70
    8
 71
    3
 72
    8
 73
    4
 74
    0
 42
1e-07
 43
1e-07
 40
0
 40
0
 40
0
 40
0
 40
1
 40
1
 40
1
 40
1
 10
-24.894672
 20
13.28192
 30
0
 10
-25.9437
 20
14.08891
 30
0
 10
-26.134765
 20
13.88825
 30
0
 10
-26.821601
 20
11.25821000000001
 30
0
  0
LWPOLYLINE
  5
9E
100
AcDbEntity
  8
0
  6
ByLayer
 62
    7
370
   -1
100
AcDbPolyline
 90
    3
 70
    0
 43
0
 10
-16.216734
 20
6.486640000000008
 10
-14.65833
 20
9.730280000000008
 10
-13.507879
 20
10.41373
  0
SPLINE
  5
9F
100
AcDbEntity
  8
0
  6
ByLayer
 62
    7
370
   -1
100
AcDbSpline
210
0
220
0
230
0
 70
    8
 71
    3
 72
    8
 73
    4
 74
    0
 42
1e-07
 43
1e-07
 40
0
 40
0
 40
0
 40
0
 40
1
 40
1
 40
1
 40
1
 10
-26.79631
 20
8.124639999999999
 30
0
 10
-26.089275
 20
7.475880000000004
 30
0
 10
-20.111176
 20
3.452030000000008
 30
0
 10
-19.385534
 20
3.136450000000011
 30
0
  0
SPLINE
  5
A0
100
AcDbEntity
  8
0
  6
ByLayer
 62
    7
370
   -1
100
AcDbSpline
210
0
220
0
230
0
 70
    8
 71
    3
 72
    8
 73
    4
 74
    0
 42
1e-07
 43
1e-07
 40
0
 40
0
 40
0
 40
0
 40
1
 40
1
 40
1
 40
1
 10
-19.385534
 20
3.136450000000011
 30
0
 10
-18.835287
 20
2.897140000000007
 30
0
 10
-18.693604
 20
2.890560000000008
 30
0
 10
-18.196777
 20
3.081249999999997
 30
0
  0
LWPOLYLINE
  5
A1
100
AcDbEntity
  8
0
  6
ByLayer
 62
    7
370
   -1
100
AcDbPolyline
 90
    3
 70
    0
 43
0
 10
-26.821601
 20
11.25821000000001
 10
-27.476858
 20
8.749080000000006
 10
-26.79631
 20
8.124639999999999
  0
SPLINE
  5
A2
100
AcDbEntity
  8
0
  6
ByLayer
 62
    7
370
   -1
100
AcDbSpline
210
0
220
0
230
0
 70
    8
 71
    3
 72
    8
 73
    4
 74
    0
 42
1e-07
 43
1e-07
 40
0
 40
0
 40
0
 40
0
 40
1
 40
1
 40
1
 40
1
 10
-4.419927999999999
 20
5.135400000000004
 30
0
 10
2.181941999999999
 20
9.016109999999998
 30
0
 10
2.275618000000001
 20
9.11921000000001
 30
0
 10
0
 20
10
 30
0
  0
SPLINE
  5
A3
100
AcDbEntity
  8
0
  6
ByLayer
 62
    7
370
   -1
100
AcDbSpline
210
0
220
0
230
0
 70
    8
 71
    3
 72
    8
 73
    4
 74
    0
 42
1e-07
 43
1e-07
 40
0
 40
0
 40
0
 40
0
 40
1
 40
1
 40
1
 40
1
 10
0
 20
10
 30
0
 10
-0.850166999999999
 20
10.32906
 30
0
 10
-2.276629
 20
11.0732
 30
0
 10
-3.169911999999997
 20
11.65364000000001
 30
0
  0
SPLINE
  5
A4
100
AcDbEntity
  8
0
  6
ByLayer
 62
    7
370
   -1
100
AcDbSpline
210
0
220
0
230
0
 70
    8
 71
    3
 72
    8
 73
    4
 74
    0
 42
1e-07
 43
1e-07
 40
0
 40
0
 40
0
 40
0
 40
1
 40
1
 40
1
 40
1
 10
-3.169911999999997
 20
11.65364000000001
 30
0
 10
-5.145734999999995
 20
12.93751
 30
0
 10
-5.840921999999999
 20
12.96550000000001
 30
0
 10
-7.727219999999999
 20
11.83717
 30
0
  0
SPLINE
  5
A5
100
AcDbEntity
  8
0
  6
ByLayer
 62
    7
370
   -1
100
AcDbSpline
210
0
220
0
230
0
 70
    8
 71
    3
 72
    8
 73
    4
 74
    0
 42
1e-07
 43
1e-07
 40
0
 40
0
 40
0
 40
0
 40
1
 40
1
 40
1
 40
1
 10
-7.727219999999999
 20
11.83717
 30
0
 10
-8.527583999999997
 20
11.35841000000001
 30
0
 10
-9.834410999999996
 20
10.68899
 30
0
 10
-10.631278
 20
10.34957
 30
0
  0
SPLINE
  5
A6
100
AcDbEntity
  8
0
  6
ByLayer
 62
    7
370
   -1
100
AcDbSpline
210
0
220
0
230
0
 70
    8
 71
    3
 72
    8
 73
    4
 74
    0
 42
1e-07
 43
1e-07
 40
0
 40
0
 40
0
 40
0
 40
1
 40
1
 40
1
 40
1
 10
-10.631278
 20
10.34957
 30
0
 10
-13.91451
 20
8.951080000000005
 30
0
 10
-13.949326
 20
8.714939999999999
 30
0
 10
-11.143846
 20
6.873090000000005
 30
0
  0
SPLINE
  5
A7
100
AcDbEntity
  8
0
  6
ByLayer
 62
    7
370
   -1
100
AcDbSpline
210
0
220
0
230
0
 70
    8
 71
    3
 72
    8
 73
    4
 74
    0
 42
1e-07
 43
1e-07
 40
0
 40
0
 40
0
 40
0
 40
1
 40
1
 40
1
 40
1
 10
-11.143846
 20
6.873090000000005
 30
0
 10
-7.652732999999998
 20
4.58111000000001
 30
0
 10
-6.062170999999999
 20
4.170050000000003
 30
0
 10
-4.419927999999999
 20
5.135400000000004
 30
0
  0
SPLINE
  5
A8
100
AcDbEntity
  8
0
  6
ByLayer
 62
    7
370
   -1
100
AcDbSpline
210
0
220
0
230
0
 70
    8
 71
    3
 72
    8
 73
    4
 74
    0
 42
1e-07
 43
1e-07
 40
0
 40
0
 40
0
 40
0
 40
1
 40
1
 40
1
 40
1
 10
6.605498000000004
 20
10.12931
 30
0
 10
7.568546000000005
 20
10.89329000000001
 30
0
 10
8.680453
 20
11.75737000000001
 30
0
 10
9.076402000000002
 20
12.04949000000001
 30
0
  0
SPLINE
  5
A9
100
AcDbEntity
  8
0
  6
ByLayer
 62
    7
370
   -1
100
AcDbSpline
210
0
220
0
230
0
 70
    8
 71
    3
 72
    8
 73
    4
 74
    0
 42
1e-07
 43
1e-07
 40
0
 40
0
 40
0
 40
0
 40
1
 40
1
 40
1
 40
1
 10
9.341977
 20
14.80816
 30
0
 10
8.550968000000005
 20
18.68638
 30
0
 10
8.569592
 20
18.67591
 30
0
 10
5.86345
 20
16.76366
 30
0
  0
SPLINE
  5
AA
100
AcDbEntity
  8
0
  6
ByLayer
 62
    7
370
   -1
100
AcDbSpline
210
0
220
0
230
0
 70
    8
 71
    3
 72
    8
 73
    4
 74
    0
 42
1e-07
 43
1e-07
 40
0
 40
0
 40
0
 40
0
 40
1
 40
1
 40
1
 40
1
 10
5.86345
 20
16.76366
 30
0
 10
2.064435000000003
 20
14.07915
 30
0
 10
-0.6839349999999982
 20
14.02722
 30
0
 10
-4.429738999999998
 20
16.56920000000001
 30
0
  0
SPLINE
  5
AB
100
AcDbEntity
  8
0
  6
ByLayer
 62
    7
370
   -1
100
AcDbSpline
210
0
220
0
230
0
 70
    8
 71
    3
 72
    8
 73
    4
 74
    0
 42
1e-07
 43
1e-07
 40
0
 40
0
 40
0
 40
0
 40
1
 40
1
 40
1
 40
1
 10
-4.429738999999998
 20
16.56920000000001
 30
0
 10
-5.679576999999995
 20
17.41736
 30
0
 10
-5.725344999999997
 20
17.39332
 30
0
 10
-6.672080999999999
 20
15.39145000000001
 30
0
  0
LWPOLYLINE
  5
AC
100
AcDbEntity
  8
0
  6
ByLayer
 62
    7
370
   -1
100
AcDbPolyline
 90
    3
 70
    0
 43
0
 10
9.076402000000002
 20
12.04949000000001
 10
9.796309000000001
 20
12.58061000000001
 10
9.341977
 20
14.80816
  0
SPLINE
  5
AD
100
AcDbEntity
  8
0
  6
ByLayer
 62
    7
370
   -1
100
AcDbSpline
210
0
220
0
230
0
 70
    8
 71
    3
 72
    8
 73
    4
 74
    0
 42
1e-07
 43
1e-07
 40
0
 40
0
 40
0
 40
0
 40
1
 40
1
 40
1
 40
1
 10
-6.737675999999997
 20
13.92306000000001
 30
0
 10
-5.351261999999998
 20
14.33016000000001
 30
0
 10
-4.326646999999994
 20
14.14963
 30
0
 10
-3.124760999999999
 20
13.2865
 30
0
  0
SPLINE
  5
AE
100
AcDbEntity
  8
0
  6
ByLayer
 62
    7
370
   -1
100
AcDbSpline
210
0
220
0
230
0
 70
    8
 71
    3
 72
    8
 73
    4
 74
    0
 42
1e-07
 43
1e-07
 40
0
 40
0
 40
0
 40
0
 40
1
 40
1
 40
1
 40
1
 10
-3.124760999999999
 20
13.2865
 30
0
 10
-2.113422999999997
 20
12.56022
 30
0
 10
2.034945
 20
10.47455000000001
 30
0
 10
3.476546000000006
 20
9.967579999999998
 30
0
  0
SPLINE
  5
AF
100
AcDbEntity
  8
0
  6
ByLayer
 62
    7
370
   -1
100
AcDbSpline
210
0
220
0
230
0
 70
    8
 71
    3
 72
    8
 73
    4
 74
    0
 42
1e-07
 43
1e-07
 40
0
 40
0
 40
0
 40
0
 40
1
 40
1
 40
1
 40
1
 10
3.476546000000006
 20
9.967579999999998
 30
0
 10
3.745024000000001
 20
9.873180000000005
 30
0
 10
4.026800000000001
 20
9.558390000000003
 30
0
 10
4.102716000000001
 20
9.268079999999998
 30
0
  0
SPLINE
  5
B0
100
AcDbEntity
  8
0
  6
ByLayer
 62
    7
370
   -1
100
AcDbSpline
210
0
220
0
230
0
 70
    8
 71
    3
 72
    8
 73
    4
 74
    0
 42
1e-07
 43
1e-07
 40
0
 40
0
 40
0
 40
0
 40
1
 40
1
 40
1
 40
1
 10
4.102716000000001
 20
9.268079999999998
 30
0
 10
4.309515000000005
 20
8.477280000000007
 30
0
 10
4.686559000000003
 20
8.607020000000006
 30
0
 10
6.605498000000004
 20
10.12931
 30
0
  0
LWPOLYLINE
  5
B1
100
AcDbEntity
  8
0
  6
ByLayer
 62
    7
370
   -1
100
AcDbPolyline
 90
    3
 70
    0
 43
0
 10
-6.672080999999999
 20
15.39145000000001
 10
-7.467923999999996
 20
13.70864
 10
-6.737675999999997
 20
13.92306000000001
  0
SPLINE
  5
B2
100
AcDbEntity
  8
0
  6
ByLayer
 62
    7
370
   -1
100
AcDbSpline
210
0
220
0
230
0
 70
    8
 71
    3
 72
    8
 73
    4
 74
    0
 42
1e-07
 43
1e-07
 40
0
 40
0
 40
0
 40
0
 40
1
 40
1
 40
1
 40
1
 10
-16.618922
 20
13.75414000000001
 30
0
 10
-15.39189
 20
14.32897
 30
0
 10
-13.960852
 20
14.97773000000001
 30
0
 10
-13.438837
 20
15.19585000000001
 30
0
  0
SPLINE
  5
B3
100
AcDbEntity
  8
0
  6
ByLayer
 62
    7
370
   -1
100
AcDbSpline
210
0
220
0
230
0
 70
    8
 71
    3
 72
    8
 73
    4
 74
    0
 42
1e-07
 43
1e-07
 40
0
 40
0
 40
0
 40
0
 40
1
 40
1
 40
1
 40
1
 10
-13.438837
 20
15.19585000000001
 30
0
 10
-12.408887
 20
15.62619000000001
 30
0
 10
-12.22118
 20
16.06632
 30
0
 10
-12.952741
 20
16.33565
 30
0
  0
SPLINE
  5
B4
100
AcDbEntity
  8
0
  6
ByLayer
 62
    7
370
   -1
100
AcDbSpline
210
0
220
0
230
0
 70
    8
 71
    3
 72
    8
 73
    4
 74
    0
 42
1e-07
 43
1e-07
 40
0
 40
0
 40
0
 40
0
 40
1
 40
1
 40
1
 40
1
 10
-12.952741
 20
16.33565
 30
0
 10
-13.207402
 20
16.42945
 30
0
 10
-14.143003
 20
16.96145
 30
0
 10
-15.031853
 20
17.51797000000001
 30
0
  0
SPLINE
  5
B5
100
AcDbEntity
  8
0
  6
ByLayer
 62
    7
370
   -1
100
AcDbSpline
210
0
220
0
230
0
 70
    8
 71
    3
 72
    8
 73
    4
 74
    0
 42
1e-07
 43
1e-07
 40
0
 40
0
 40
0
 40
0
 40
1
 40
1
 40
1
 40
1
 10
-15.031853
 20
17.51797000000001
 30
0
 10
-17.035871
 20
18.77272000000001
 30
0
 10
-17.144312
 20
18.77146
 30
0
 10
-20.33582
 20
17.45677000000001
 30
0
  0
SPLINE
  5
B6
100
AcDbEntity
  8
0
  6
ByLayer
 62
    7
370
   -1
100
AcDbSpline
210
0
220
0
230
0
 70
    8
 71
    3
 72
    8
 73
    4
 74
    0
 42
1e-07
 43
1e-07
 40
0
 40
0
 40
0
 40
0
 40
1
 40
1
 40
1
 40
1
 10
-20.33582
 20
17.45677000000001
 30
0
 10
-21.768538
 20
16.86657000000001
 30
0
 10
-23.454534
 20
16.19789
 30
0
 10
-24.082478
 20
15.97082
 30
0
  0
SPLINE
  5
B7
100
AcDbEntity
  8
0
  6
ByLayer
 62
    7
370
   -1
100
AcDbSpline
210
0
220
0
230
0
 70
    8
 71
    3
 72
    8
 73
    4
 74
    0
 42
1e-07
 43
1e-07
 40
0
 40
0
 40
0
 40
0
 40
1
 40
1
 40
1
 40
1
 10
-24.611645
 20
14.89908
 30
0
 10
-22.397855
 20
12.51786
 30
0
 10
-19.993243
 20
12.17341
 30
0
 10
-16.618922
 20
13.75418000000001
 30
0
  0
LWPOLYLINE
  5
B8
100
AcDbEntity
  8
0
  6
ByLayer
 62
    7
370
   -1
100
AcDbPolyline
 90
    3
 70
    0
 43
0
 10
-24.082478
 20
15.97082
 10
-25.224195
 20
15.55796000000001
 10
-24.611645
 20
14.89908
  0
SPLINE
  5
B9
100
AcDbEntity
  8
0
  6
ByLayer
 62
    7
370
   -1
100
AcDbSpline
210
0
220
0
230
0
 70
    8
 71
    3
 72
    8
 73
    4
 74
    0
 42
1e-07
 43
1e-07
 40
0
 40
0
 40
0
 40
0
 40
1
 40
1
 40
1
 40
1
 10
3.735993000000001
 20
16.98675
 30
0
 10
7.252896
 20
19.02984000000001
 30
0
 10
7.456863000000006
 20
19.31505
 30
0
 10
5.763824
 20
19.8223
 30
0
  0
SPLINE
  5
BA
100
AcDbEntity
  8
0
  6
ByLayer
 62
    7
370
   -1
100
AcDbSpline
210
0
220
0
230
0
 70
    8
 71
    3
 72
    8
 73
    4
 74
    0
 42
1e-07
 43
1e-07
 40
0
 40
0
 40
0
 40
0
 40
1
 40
1
 40
1
 40
1
 10
5.763824
 20
19.8223
 30
0
 10
5.180253
 20
19.99714
 30
0
 10
3.934971000000004
 20
20.54040000000001
 30
0
 10
2.996532999999999
 20
21.02955
 30
0
  0
SPLINE
  5
BB
100
AcDbEntity
  8
0
  6
ByLayer
 62
    7
370
   -1
100
AcDbSpline
210
0
220
0
230
0
 70
    8
 71
    3
 72
    8
 73
    4
 74
    0
 42
1e-07
 43
1e-07
 40
0
 40
0
 40
0
 40
0
 40
1
 40
1
 40
1
 40
1
 10
-1.167947999999996
 20
20.61075000000001
 30
0
 10
-2.519973999999998
 20
19.89126
 30
0
 10
-3.858886999999996
 20
19.12755
 30
0
 10
-4.143308999999995
 20
18.91362000000001
 30
0
  0
LWPOLYLINE
  5
BC
100
AcDbEntity
  8
0
  6
ByLayer
 62
    7
370
   -1
100
AcDbPolyline
 90
    3
 70
    0
 43
0
 10
2.996532999999999
 20
21.02955
 10
1.290283000000002
 20
21.91891
 10
-1.167947999999996
 20
20.61075000000001
  0
SPLINE
  5
BD
100
AcDbEntity
  8
0
  6
ByLayer
 62
    7
370
   -1
100
AcDbSpline
210
0
220
0
230
0
 70
    8
 71
    3
 72
    8
 73
    4
 74
    0
 42
1e-07
 43
1e-07
 40
0
 40
0
 40
0
 40
0
 40
1
 40
1
 40
1
 40
1
 10
-4.275600999999995
 20
18.13989000000001
 30
0
 10
-2.249053999999994
 20
16.11372
 30
0
 10
1.343163000000004
 20
15.59668000000001
 30
0
 10
3.735993000000001
 20
16.98675
 30
0
  0
LWPOLYLINE
  5
BE
100
AcDbEntity
  8
0
  6
ByLayer
 62
    7
370
   -1
100
AcDbPolyline
 90
    3
 70
    0
 43
0
 10
-4.143308999999995
 20
18.91362000000001
 10
-4.660436999999995
 20
18.52465000000001
 10
-4.275600999999995
 20
18.13989000000001
  0
ENDBLK
  5
56
330
54
100
AcDbEntity
  8
0
100
AcDbBlockEnd
  0
ENDSEC
  0
SECTION
  2
ENTITIES
  0
LINE
  5
BF
100
AcDbEntity
  8
supports
  6
ByLayer
 62
  256
370
   -1
100
AcDbLine
 10
-28.94365089999999
 20
30.75249775397086
 11
-16.14115019999998
 21
28.49507145397087
  0
LINE
  5
C0
100
AcDbEntity
  8
supports
  6
ByLayer
 62
  256
370
   -1
100
AcDbLine
 10
-16.14115019999998
 20
28.49507145397087
 11
-17.19172169999999
 21
22.53698445397086
  0
LINE
  5
C1
100
AcDbEntity
  8
supports
  6
ByLayer
 62
  256
370
   -1
100
AcDbLine
 10
-17.19172169999999
 20
22.53698445397086
 11
-29.99422239999998
 21
24.79441075397085
  0
LINE
  5
C2
100
AcDbEntity
  8
supports
  6
ByLayer
 62
  256
370
   -1
100
AcDbLine
 10
-29.99422239999998
 20
24.79441075397085
 11
-28.94365089999999
 21
30.75249775397086
  0
LINE
  5
C3
100
AcDbEntity
  8
supports
  6
ByLayer
 62
  256
370
   -1
100
AcDbLine
 10
-103.9860017
 20
43.98448885397086
 11
-91.18350099999998
 21
41.72706255397087
  0
LINE
  5
C4
100
AcDbEntity
  8
supports
  6
ByLayer
 62
  256
370
   -1
100
AcDbLine
 10
-91.18350099999998
 20
41.72706255397087
 11
-92.2340725
 21
35.76897555397086
  0
LINE
  5
C5
100
AcDbEntity
  8
supports
  6
ByLayer
 62
  256
370
   -1
100
AcDbLine
 10
-92.2340725
 20
35.76897555397086
 11
-105.0365732
 21
38.02640185397085
  0
LINE
  5
C6
100
AcDbEntity
  8
supports
  6
ByLayer
 62
  256
370
   -1
100
AcDbLine
 10
-105.0365732
 20
38.02640185397085
 11
-103.9860017
 21
43.98448885397086
  0
LINE
  5
C7
100
AcDbEntity
  8
supports
  6
ByLayer
 62
  256
370
   -1
100
AcDbLine
 10
28.94365089999999
 20
30.75249775397083
 11
16.14115019999998
 21
28.49507145397085
  0
LINE
  5
C8
100
AcDbEntity
  8
supports
  6
ByLayer
 62
  256
370
   -1
100
AcDbLine
 10
16.14115019999998
 20
28.49507145397085
 11
17.1917217
 21
22.53698445397083
  0
LINE
  5
C9
100
AcDbEntity
  8
supports
  6
ByLayer
 62
  256
370
   -1
100
AcDbLine
 10
17.1917217
 20
22.53698445397083
 11
29.99422239999998
 21
24.79441075397085
  0
LINE
  5
CA
100
AcDbEntity
  8
supports
  6
ByLayer
 62
  256
370
   -1
100
AcDbLine
 10
29.99422239999998
 20
24.79441075397085
 11
28.94365089999999
 21
30.75249775397083
  0
LINE
  5
CB
100
AcDbEntity
  8
supports
  6
ByLayer
 62
  256
370
   -1
100
AcDbLine
 10
103.9860017
 20
43.98448885397083
 11
91.18350099999998
 21
41.72706255397087
  0
LINE
  5
CC
100
AcDbEntity
  8
supports
  6
ByLayer
 62
  256
370
   -1
100
AcDbLine
 10
91.18350099999998
 20
41.72706255397087
 11
92.2340725
 21
35.76897555397083
  0
LINE
  5
CD
100
AcDbEntity
  8
supports
  6
ByLayer
 62
  256
370
   -1
100
AcDbLine
 10
92.2340725
 20
35.76897555397083
 11
105.0365732
 21
38.02640185397085
  0
LINE
  5
CE
100
AcDbEntity
  8
supports
  6
ByLayer
 62
  256
370
   -1
100
AcDbLine
 10
105.0365732
 20
38.02640185397085
 11
103.9860017
 21
43.98448885397083
  0
ARC
  5
CF
100
AcDbEntity
  8
pcb
  6
ByLayer
 62
  256
370
   -1
100
AcDbCircle
 10
-15.19499623653931
 20
4.672418153970849
 40
50
100
AcDbArc
 50
259.5888850738406
 51
270
  0
LINE
  5
D0
100
AcDbEntity
  8
pcb
  6
ByLayer
 62
  256
370
   -1
100
AcDbLine
 10
-65.54786869032638
 20
-36.91296060671006
 11
-24.23049358184177
 21
-44.50440349732165
  0
ARC
  5
D1
100
AcDbEntity
  8
pcb
  6
ByLayer
 62
  256
370
   -1
100
AcDbCircle
 10
-64.64431895579615
 20
-31.9952784415808
 40
5
100
AcDbArc
 50
189.9905258015582
 51
259.5888850738408
  0
ARC
  5
D2
100
AcDbEntity
  8
pcb
  6
ByLayer
 62
  256
370
   -1
100
AcDbCircle
 10
-74.4926834888865
 20
-33.73013175623495
 40
5
100
AcDbArc
 50
9.990525801558229
 51
80.00000005026936
  0
LINE
  5
D3
100
AcDbEntity
  8
pcb
  6
ByLayer
 62
  256
370
   -1
100
AcDbLine
 10
-135.8317382739608
 20
-17.83726842331842
 11
-73.62444260487203
 21
-28.80609299041215
  0
ARC
  5
D4
100
AcDbEntity
  8
pcb
  6
ByLayer
 62
  256
370
   -1
100
AcDbCircle
 10
-134.9634973899463
 20
-12.91322965749561
 40
5
100
AcDbArc
 50
177.12501641386
 51
260.0000000502692
  0
LINE
  5
D5
100
AcDbEntity
  8
pcb
  6
ByLayer
 62
  256
370
   -1
100
AcDbLine
 10
-139.1648011905563
 20
3.116161181943237
 11
-139.9572041490252
 21
-12.66244527933577
  0
ARC
  5
D6
100
AcDbEntity
  8
pcb
  6
ByLayer
 62
  256
370
   -1
100
AcDbCircle
 10
-89.22773359976658
 20
0.6083174003448377
 40
50
100
AcDbArc
 50
169.9999999612021
 51
177.12501641386
  0
LINE
  5
D7
100
AcDbEntity
  8
pcb
  6
ByLayer
 62
  256
370
   -1
100
AcDbLine
 10
-129.9564513525258
 20
57.5628048388181
 11
-138.4681212444977
 21
9.290726317034558
  0
ARC
  5
D8
100
AcDbEntity
  8
pcb
  6
ByLayer
 62
  256
370
   -1
100
AcDbCircle
 10
-125.0324125880527
 20
56.69456394714912
 40
5
100
AcDbArc
 50
92.98549873910723
 51
169.9999999612021
  0
LINE
  5
D9
100
AcDbEntity
  8
pcb
  6
ByLayer
 62
  256
370
   -1
100
AcDbLine
 10
-125.2928286214461
 20
61.68777769077671
 11
-67.48791693221776
 21
64.70253463603636
  0
ARC
  5
DA
100
AcDbEntity
  8
pcb
  6
ByLayer
 62
  256
370
   -1
100
AcDbCircle
 10
-64.88375659828328
 20
14.7703971997603
 40
50
100
AcDbArc
 50
65.96375655561972
 51
92.98549873910731
  0
ARC
  5
DB
100
AcDbEntity
  8
pcb
  6
ByLayer
 62
  256
370
   -1
100
AcDbCircle
 10
15.19499623653931
 20
4.672418153970835
 40
50
100
AcDbArc
 50
270
 51
280.4111149261594
  0
LINE
  5
DC
100
AcDbEntity
  8
pcb
  6
ByLayer
 62
  256
370
   -1
100
AcDbLine
 10
65.54786869032638
 20
-36.91296060671005
 11
24.23049358184177
 21
-44.50440349732166
  0
ARC
  5
DD
100
AcDbEntity
  8
pcb
  6
ByLayer
 62
  256
370
   -1
100
AcDbCircle
 10
64.64431895579615
 20
-31.99527844158078
 40
5
100
AcDbArc
 50
280.4111149261592
 51
350.0094741984419
  0
ARC
  5
DE
100
AcDbEntity
  8
pcb
  6
ByLayer
 62
  256
370
   -1
100
AcDbCircle
 10
74.4926834888865
 20
-33.73013175623495
 40
5
100
AcDbArc
 50
99.99999994973064
 51
170.0094741984418
  0
LINE
  5
DF
100
AcDbEntity
  8
pcb
  6
ByLayer
 62
  256
370
   -1
100
AcDbLine
 10
135.8317382739608
 20
-17.83726842331844
 11
73.62444260487203
 21
-28.80609299041215
  0
ARC
  5
E0
100
AcDbEntity
  8
pcb
  6
ByLayer
 62
  256
370
   -1
100
AcDbCircle
 10
134.9634973899463
 20
-12.91322965749562
 40
5
100
AcDbArc
 50
279.9999999497308
 51
2.874983586140003
  0
LINE
  5
E1
100
AcDbEntity
  8
pcb
  6
ByLayer
 62
  256
370
   -1
100
AcDbLine
 10
139.1648011905563
 20
3.116161181943188
 11
139.9572041490252
 21
-12.66244527933579
  0
ARC
  5
E2
100
AcDbEntity
  8
pcb
  6
ByLayer
 62
  256
370
   -1
100
AcDbCircle
 10
89.22773359976658
 20
0.6083174003448271
 40
50
100
AcDbArc
 50
2.874983586140003
 51
10.00000003879792
  0
LINE
  5
E3
100
AcDbEntity
  8
pcb
  6
ByLayer
 62
  256
370
   -1
100
AcDbLine
 10
129.9564513525258
 20
57.56280483881807
 11
138.4681212444977
 21
9.290726317034558
  0
ARC
  5
E4
100
AcDbEntity
  8
pcb
  6
ByLayer
 62
  256
370
   -1
100
AcDbCircle
 10
125.0324125880527
 20
56.69456394714912
 40
5
100
AcDbArc
 50
10.00000003879795
 51
87.01450126089276
  0
LINE
  5
E5
100
AcDbEntity
  8
pcb
  6
ByLayer
 62
  256
370
   -1
100
AcDbLine
 10
125.2928286214461
 20
61.68777769077671
 11
67.48791693221776
 21
64.70253463603636
  0
ARC
  5
E6
100
AcDbEntity
  8
pcb
  6
ByLayer
 62
  256
370
   -1
100
AcDbCircle
 10
64.88375659828328
 20
14.77039719976031
 40
50
100
AcDbArc
 50
87.01450126089269
 51
114.0362434443803
  0
LINE
  5
E7
100
AcDbEntity
  8
pcb
  6
ByLayer
 62
  256
370
   -1
100
AcDbLine
 10
-20.3657220384798
 20
49.66318251951463
 11
-44.51803455980351
 21
60.43479652627481
  0
LINE
  5
E8
100
AcDbEntity
  8
pcb
  6
ByLayer
 62
  256
370
   -1
100
AcDbLine
 10
20.3657220384798
 20
49.66318251951463
 11
44.51803455980351
 21
60.43479652627481
  0
ARC
  5
E9
100
AcDbEntity
  8
pcb
  6
ByLayer
 62
  256
370
   -1
100
AcDbCircle
 10
0
 20
95.32758184602915
 40
50
100
AcDbArc
 50
245.9637565556197
 51
294.0362434443803
  0
LINE
  5
EA
100
AcDbEntity
  8
pcb
  6
ByLayer
 62
  256
370
   -1
100
AcDbLine
 10
-15.19499623653932
 20
-45.32758184602915
 11
15.1949962365393
 21
-45.32758184602916
  0
ARC
  5
EB
100
AcDbEntity
  8
ext1
  6
ByLayer
 62
  256
370
   -1
100
AcDbCircle
 10
0
 20
95.32758184602915
 40
49.5
100
AcDbArc
 50
245.9637565556197
 51
294.0362434443803
  0
LINE
  5
EC
100
AcDbEntity
  8
ext1
  6
ByLayer
 62
  256
370
   -1
100
AcDbLine
 10
20.162064818095
 20
50.11982651277978
 11
44.31437733941871
 21
60.89144051953996
  0
ARC
  5
ED
100
AcDbEntity
  8
ext1
  6
ByLayer
 62
  256
370
   -1
100
AcDbCircle
 10
64.88375659828328
 20
14.77039719976031
 40
50.5
100
AcDbArc
 50
87.01450126089269
 51
114.0362434443803
  0
LINE
  5
EE
100
AcDbEntity
  8
ext1
  6
ByLayer
 62
  256
370
   -1
100
AcDbLine
 10
125.3188702247855
 20
62.18709906513947
 11
67.51395853555711
 21
65.20185601039913
  0
ARC
  5
EF
100
AcDbEntity
  8
ext1
  6
ByLayer
 62
  256
370
   -1
100
AcDbCircle
 10
125.0324125880527
 20
56.69456394714912
 40
5.5
100
AcDbArc
 50
10.00000003879795
 51
87.01450126089276
  0
LINE
  5
F0
100
AcDbEntity
  8
ext1
  6
ByLayer
 62
  256
370
   -1
100
AcDbLine
 10
130.4488552289731
 20
57.64962892798496
 11
138.960525120945
 21
9.377550406201456
  0
ARC
  5
F1
100
AcDbEntity
  8
ext1
  6
ByLayer
 62
  256
370
   -1
100
AcDbCircle
 10
89.22773359976658
 20
0.6083174003448271
 40
50.5
100
AcDbArc
 50
2.874983586140003
 51
10.00000003879792
  0
LINE
  5
F2
100
AcDbEntity
  8
ext1
  6
ByLayer
 62
  256
370
   -1
100
AcDbLine
 10
139.6641718664642
 20
3.141239619759169
 11
140.4565748249331
 21
-12.63736684151981
  0
ARC
  5
F3
100
AcDbEntity
  8
ext1
  6
ByLayer
 62
  256
370
   -1
100
AcDbCircle
 10
134.9634973899463
 20
-12.91322965749562
 40
5.5
100
AcDbArc
 50
279.9999999497308
 51
2.874983586140003
  0
LINE
  5
F4
100
AcDbEntity
  8
ext1
  6
ByLayer
 62
  256
370
   -1
100
AcDbLine
 10
135.9185623623623
 20
-18.32967229990072
 11
73.71126669327347
 21
-29.29849686699443
  0
ARC
  5
F5
100
AcDbEntity
  8
ext1
  6
ByLayer
 62
  256
370
   -1
100
AcDbCircle
 10
74.4926834888865
 20
-33.73013175623495
 40
4.5
100
AcDbArc
 50
99.99999994973064
 51
170.0094741984418
  0
ARC
  5
F6
100
AcDbEntity
  8
ext1
  6
ByLayer
 62
  256
370
   -1
100
AcDbCircle
 10
64.64431895579615
 20
-31.99527844158078
 40
5.5
100
AcDbArc
 50
280.4111149261592
 51
350.0094741984419
  0
LINE
  5
F7
100
AcDbEntity
  8
ext1
  6
ByLayer
 62
  256
370
   -1
100
AcDbLine
 10
65.63822366377941
 20
-37.40472882322297
 11
24.32084855529479
 21
-44.99617171383458
  0
ARC
  5
F8
100
AcDbEntity
  8
ext1
  6
ByLayer
 62
  256
370
   -1
100
AcDbCircle
 10
15.19499623653931
 20
4.672418153970835
 40
50.5
100
AcDbArc
 50
270
 51
280.4111149261594
  0
LINE
  5
F9
100
AcDbEntity
  8
ext1
  6
ByLayer
 62
  256
370
   -1
100
AcDbLine
 10
-15.19499623653932
 20
-45.82758184602915
 11
15.1949962365393
 21
-45.82758184602916
  0
ARC
  5
FA
100
AcDbEntity
  8
ext1
  6
ByLayer
 62
  256
370
   -1
100
AcDbCircle
 10
-15.19499623653931
 20
4.672418153970849
 40
50.5
100
AcDbArc
 50
259.5888850738406
 51
270
  0
LINE
  5
FB
100
AcDbEntity
  8
ext1
  6
ByLayer
 62
  256
370
   -1
100
AcDbLine
 10
-65.63822366377941
 20
-37.40472882322298
 11
-24.32084855529479
 21
-44.99617171383458
  0
ARC
  5
FC
100
AcDbEntity
  8
ext1
  6
ByLayer
 62
  256
370
   -1
100
AcDbCircle
 10
-64.64431895579615
 20
-31.9952784415808
 40
5.5
100
AcDbArc
 50
189.9905258015582
 51
259.5888850738408
  0
ARC
  5
FD
100
AcDbEntity
  8
ext1
  6
ByLayer
 62
  256
370
   -1
100
AcDbCircle
 10
-74.4926834888865
 20
-33.73013175623495
 40
4.5
100
AcDbArc
 50
9.990525801558229
 51
80.00000005026936
  0
LINE
  5
FE
100
AcDbEntity
  8
ext1
  6
ByLayer
 62
  256
370
   -1
100
AcDbLine
 10
-135.9185623623623
 20
-18.3296722999007
 11
-73.71126669327347
 21
-29.29849686699443
  0
ARC
  5
FF
100
AcDbEntity
  8
ext1
  6
ByLayer
 62
  256
370
   -1
100
AcDbCircle
 10
-134.9634973899463
 20
-12.91322965749561
 40
5.5
100
AcDbArc
 50
177.12501641386
 51
260.0000000502692
  0
LINE
  5
100
100
AcDbEntity
  8
ext1
  6
ByLayer
 62
  256
370
   -1
100
AcDbLine
 10
-139.6641718664642
 20
3.141239619759219
 11
-140.4565748249331
 21
-12.63736684151979
  0
ARC
  5
101
100
AcDbEntity
  8
ext1
  6
ByLayer
 62
  256
370
   -1
100
AcDbCircle
 10
-89.22773359976658
 20
0.6083174003448377
 40
50.5
100
AcDbArc
 50
169.9999999612021
 51
177.12501641386
  0
LINE
  5
102
100
AcDbEntity
  8
ext1
  6
ByLayer
 62
  256
370
   -1
100
AcDbLine
 10
-130.4488552289731
 20
57.64962892798499
 11
-138.960525120945
 21
9.377550406201456
  0
ARC
  5
103
100
AcDbEntity
  8
ext1
  6
ByLayer
 62
  256
370
   -1
100
AcDbCircle
 10
-125.0324125880527
 20
56.69456394714912
 40
5.5
100
AcDbArc
 50
92.98549873910723
 51
169.9999999612021
  0
LINE
  5
104
100
AcDbEntity
  8
ext1
  6
ByLayer
 62
  256
370
   -1
100
AcDbLine
 10
-125.3188702247855
 20
62.18709906513947
 11
-67.51395853555711
 21
65.20185601039913
  0
ARC
  5
105
100
AcDbEntity
  8
ext1
  6
ByLayer
 62
  256
370
   -1
100
AcDbCircle
 10
-64.88375659828328
 20
14.7703971997603
 40
50.5
100
AcDbArc
 50
65.96375655561972
 51
92.98549873910731
  0
LINE
  5
106
100
AcDbEntity
  8
ext1
  6
ByLayer
 62
  256
370
   -1
100
AcDbLine
 10
-20.162064818095
 20
50.11982651277978
 11
-44.31437733941871
 21
60.89144051953996
  0
ARC
  5
107
100
AcDbEntity
  8
ext2
  6
ByLayer
 62
  256
370
   -1
100
AcDbCircle
 10
-125.0324125880527
 20
56.69456394714912
 40
10.5
100
AcDbArc
 50
92.98549873910723
 51
169.9999999612021
  0
LINE
  5
108
100
AcDbEntity
  8
ext2
  6
ByLayer
 62
  256
370
   -1
100
AcDbLine
 10
-135.3728939934462
 20
58.51786981965398
 11
-143.8845638854181
 21
10.24579129787044
  0
LINE
  5
109
100
AcDbEntity
  8
ext2
  6
ByLayer
 62
  256
370
   -1
100
AcDbLine
 10
-15.19499623653932
 20
-50.82758184602915
 11
15.1949962365393
 21
-50.82758184602916
  0
LINE
  5
10A
100
AcDbEntity
  8
ext2
  6
ByLayer
 62
  256
370
   -1
100
AcDbLine
 10
135.3728939934462
 20
58.51786981965395
 11
143.8845638854181
 21
10.24579129787043
  0
ARC
  5
10B
100
AcDbEntity
  8
ext2
  6
ByLayer
 62
  256
370
   -1
100
AcDbCircle
 10
125.0324125880527
 20
56.69456394714912
 40
10.5
100
AcDbArc
 50
10.00000003879795
 51
87.01450126089276
  0
LINE
  5
10C
100
AcDbEntity
  8
ext2
  6
ByLayer
 62
  256
370
   -1
100
AcDbLine
 10
-125.5792862581789
 20
67.18031280876707
 11
-26.04160333934557
 21
72.37160040224894
  0
LINE
  5
10D
100
AcDbEntity
  8
ext2
  6
ByLayer
 62
  256
370
   -1
100
AcDbLine
 10
125.5792862581789
 20
67.18031280876707
 11
26.04160333934381
 21
72.37160040224904
  0
ARC
  5
10E
100
AcDbEntity
  8
ext2
  6
ByLayer
 62
  256
370
   -1
100
AcDbCircle
 10
-9.094947017729282e-13
 20
-426.9497739605117
 40
500
100
AcDbArc
 50
87.0145012608927
 51
92.9854987391073
  0
ARC
  5
10F
100
AcDbEntity
  8
ext2
  6
ByLayer
 62
  256
370
   -1
100
AcDbCircle
 10
89.22773359976658
 20
0.6083174003448271
 40
55.5
100
AcDbArc
 50
2.874983586140003
 51
10.00000003879792
  0
LINE
  5
110
100
AcDbEntity
  8
ext2
  6
ByLayer
 62
  256
370
   -1
100
AcDbLine
 10
141.9085209471391
 20
-28.47491079343812
 11
25.22439828982504
 21
-49.91385387896383
  0
LINE
  5
111
100
AcDbEntity
  8
ext2
  6
ByLayer
 62
  256
370
   -1
100
AcDbLine
 10
144.6578786255432
 20
3.392023997918985
 11
145.9986779716878
 21
-23.30644425014905
  0
ARC
  5
112
100
AcDbEntity
  8
ext2
  6
ByLayer
 62
  256
370
   -1
100
AcDbCircle
 10
141.0049712126088
 20
-23.55722862830887
 40
5
100
AcDbArc
 50
280.4111149261595
 51
2.874983586139774
  0
LINE
  5
113
100
AcDbEntity
  8
ext2
  6
ByLayer
 62
  256
370
   -1
100
AcDbLine
 10
-144.6578786255432
 20
3.392023997919039
 11
-145.9986779716878
 21
-23.30644425014906
  0
LINE
  5
114
100
AcDbEntity
  8
ext2
  6
ByLayer
 62
  256
370
   -1
100
AcDbLine
 10
-141.9085209471391
 20
-28.47491079343812
 11
-25.22439828982504
 21
-49.91385387896383
  0
ARC
  5
115
100
AcDbEntity
  8
ext2
  6
ByLayer
 62
  256
370
   -1
100
AcDbCircle
 10
-141.0049712126089
 20
-23.55722862830887
 40
5
100
AcDbArc
 50
177.1250164138603
 51
259.5888850738408
  0
ARC
  5
116
100
AcDbEntity
  8
ext2
  6
ByLayer
 62
  256
370
   -1
100
AcDbCircle
 10
-89.22773359976658
 20
0.6083174003448377
 40
55.5
100
AcDbArc
 50
169.9999999612021
 51
177.12501641386
  0
ARC
  5
117
100
AcDbEntity
  8
ext2
  6
ByLayer
 62
  256
370
   -1
100
AcDbCircle
 10
-15.19499623653931
 20
4.672418153970849
 40
55.5
100
AcDbArc
 50
259.5888850738406
 51
270
  0
ARC
  5
118
100
AcDbEntity
  8
ext2
  6
ByLayer
 62
  256
370
   -1
100
AcDbCircle
 10
15.19499623653931
 20
4.672418153970835
 40
55.5
100
AcDbArc
 50
270
 51
280.4111149261594
  0
LINE
  5
119
100
AcDbEntity
  8
ext3
  6
ByLayer
 62
  256
370
   -1
100
AcDbLine
 10
-125.6834526715363
 20
69.17759830621812
 11
-26.14576975270295
 21
74.36888589969999
  0
ARC
  5
11A
100
AcDbEntity
  8
ext3
  6
ByLayer
 62
  256
370
   -1
100
AcDbCircle
 10
-9.094947017729282e-13
 20
-426.9497739605117
 40
502
100
AcDbArc
 50
87.0145012608927
 51
92.9854987391073
  0
LINE
  5
11B
100
AcDbEntity
  8
ext3
  6
ByLayer
 62
  256
370
   -1
100
AcDbLine
 10
125.6834526715363
 20
69.17759830621812
 11
26.14576975270119
 21
74.36888589970009
  0
ARC
  5
11C
100
AcDbEntity
  8
ext3
  6
ByLayer
 62
  256
370
   -1
100
AcDbCircle
 10
125.0324125880527
 20
56.69456394714912
 40
12.5
100
AcDbArc
 50
10.00000003879795
 51
87.01450126089276
  0
LINE
  5
11D
100
AcDbEntity
  8
ext3
  6
ByLayer
 62
  256
370
   -1
100
AcDbLine
 10
137.3425094992354
 20
58.86516617632154
 11
145.8541793912073
 21
10.59308765453803
  0
ARC
  5
11E
100
AcDbEntity
  8
ext3
  6
ByLayer
 62
  256
370
   -1
100
AcDbCircle
 10
89.22773359976658
 20
0.6083174003448271
 40
57.5
100
AcDbArc
 50
2.874983586140003
 51
10.00000003879792
  0
LINE
  5
11F
100
AcDbEntity
  8
ext3
  6
ByLayer
 62
  256
370
   -1
100
AcDbLine
 10
146.6553613291748
 20
3.492337749182912
 11
147.9961606753194
 21
-23.20613049888512
  0
ARC
  5
120
100
AcDbEntity
  8
ext3
  6
ByLayer
 62
  256
370
   -1
100
AcDbCircle
 10
141.0049712126088
 20
-23.55722862830887
 40
7
100
AcDbArc
 50
280.4111149261595
 51
2.874983586139774
  0
LINE
  5
121
100
AcDbEntity
  8
ext3
  6
ByLayer
 62
  256
370
   -1
100
AcDbLine
 10
142.2699408409512
 20
-30.44198365948982
 11
25.58581818363714
 21
-51.88092674501554
  0
ARC
  5
122
100
AcDbEntity
  8
ext3
  6
ByLayer
 62
  256
370
   -1
100
AcDbCircle
 10
15.19499623653931
 20
4.672418153970835
 40
57.5
100
AcDbArc
 50
270
 51
280.4111149261594
  0
LINE
  5
123
100
AcDbEntity
  8
ext3
  6
ByLayer
 62
  256
370
   -1
100
AcDbLine
 10
-15.19499623653932
 20
-52.82758184602915
 11
15.1949962365393
 21
-52.82758184602916
  0
ARC
  5
124
100
AcDbEntity
  8
ext3
  6
ByLayer
 62
  256
370
   -1
100
AcDbCircle
 10
-15.19499623653931
 20
4.672418153970849
 40
57.5
100
AcDbArc
 50
259.5888850738406
 51
270
  0
LINE
  5
125
100
AcDbEntity
  8
ext3
  6
ByLayer
 62
  256
370
   -1
100
AcDbLine
 10
-142.2699408409512
 20
-30.44198365948982
 11
-25.58581818363714
 21
-51.88092674501553
  0
ARC
  5
126
100
AcDbEntity
  8
ext3
  6
ByLayer
 62
  256
370
   -1
100
AcDbCircle
 10
-141.0049712126089
 20
-23.55722862830887
 40
7
100
AcDbArc
 50
177.1250164138603
 51
259.5888850738408
  0
LINE
  5
127
100
AcDbEntity
  8
ext3
  6
ByLayer
 62
  256
370
   -1
100
AcDbLine
 10
-146.6553613291748
 20
3.492337749182966
 11
-147.9961606753194
 21
-23.20613049888513
  0
ARC
  5
128
100
AcDbEntity
  8
ext3
  6
ByLayer
 62
  256
370
   -1
100
AcDbCircle
 10
-89.22773359976658
 20
0.6083174003448377
 40
57.5
100
AcDbArc
 50
169.9999999612021
 51
177.12501641386
  0
LINE
  5
129
100
AcDbEntity
  8
ext3
  6
ByLayer
 62
  256
370
   -1
100
AcDbLine
 10
-137.3425094992354
 20
58.86516617632157
 11
-145.8541793912073
 21
10.59308765453804
  0
ARC
  5
12A
100
AcDbEntity
  8
ext3
  6
ByLayer
 62
  256
370
   -1
100
AcDbCircle
 10
-125.0324125880527
 20
56.69456394714912
 40
12.5
100
AcDbArc
 50
92.98549873910723
 51
169.9999999612021
  0
LINE
  5
12B
100
AcDbEntity
  8
supports
  6
ByLayer
 62
  256
370
   -1
100
AcDbLine
 10
-125.2407454147674
 20
60.68913494205119
 11
-67.43583372553907
 21
63.70389188731084
  0
ARC
  5
12C
100
AcDbEntity
  8
supports
  6
ByLayer
 62
  256
370
   -1
100
AcDbCircle
 10
-64.88375659828328
 20
14.7703971997603
 40
49
100
AcDbArc
 50
65.96375655561972
 51
92.98549873910731
  0
LINE
  5
12D
100
AcDbEntity
  8
supports
  6
ByLayer
 62
  256
370
   -1
100
AcDbLine
 10
-20.7730364792494
 20
48.74989453298434
 11
-44.92534900057311
 21
59.52150853974452
  0
ARC
  5
12E
100
AcDbEntity
  8
supports
  6
ByLayer
 62
  256
370
   -1
100
AcDbCircle
 10
0
 20
95.32758184602915
 40
51
100
AcDbArc
 50
245.9637565556197
 51
294.0362434443803
  0
LINE
  5
12F
100
AcDbEntity
  8
supports
  6
ByLayer
 62
  256
370
   -1
100
AcDbLine
 10
20.7730364792494
 20
48.74989453298434
 11
44.92534900057311
 21
59.52150853974452
  0
ARC
  5
130
100
AcDbEntity
  8
supports
  6
ByLayer
 62
  256
370
   -1
100
AcDbCircle
 10
64.88375659828328
 20
14.77039719976031
 40
49
100
AcDbArc
 50
87.01450126089269
 51
114.0362434443803
  0
LINE
  5
131
100
AcDbEntity
  8
supports
  6
ByLayer
 62
  256
370
   -1
100
AcDbLine
 10
125.2407454147674
 20
60.68913494205119
 11
67.43583372553907
 21
63.70389188731084
  0
ARC
  5
132
100
AcDbEntity
  8
supports
  6
ByLayer
 62
  256
370
   -1
100
AcDbCircle
 10
125.0324125880527
 20
56.69456394714912
 40
4
100
AcDbArc
 50
10.00000003879795
 51
87.01450126089276
  0
LINE
  5
133
100
AcDbEntity
  8
supports
  6
ByLayer
 62
  256
370
   -1
100
AcDbLine
 10
128.9716435996312
 20
57.38915666048427
 11
137.4833134916031
 21
9.117078138700762
  0
ARC
  5
134
100
AcDbEntity
  8
supports
  6
ByLayer
 62
  256
370
   -1
100
AcDbCircle
 10
89.22773359976658
 20
0.6083174003448271
 40
49
100
AcDbArc
 50
2.874983586140003
 51
10.00000003879792
  0
LINE
  5
135
100
AcDbEntity
  8
supports
  6
ByLayer
 62
  256
370
   -1
100
AcDbLine
 10
138.1660598387405
 20
3.066004306311224
 11
138.9584627972094
 21
-12.71260215496775
  0
ARC
  5
136
100
AcDbEntity
  8
supports
  6
ByLayer
 62
  256
370
   -1
100
AcDbCircle
 10
134.9634973899463
 20
-12.91322965749562
 40
4
100
AcDbArc
 50
279.9999999497308
 51
2.874983586140003
  0
LINE
  5
137
100
AcDbEntity
  8
supports
  6
ByLayer
 62
  256
370
   -1
100
AcDbLine
 10
135.6580900971579
 20
-16.85246067015388
 11
73.45079442806913
 21
-27.82128523724759
  0
ARC
  5
138
100
AcDbEntity
  8
supports
  6
ByLayer
 62
  256
370
   -1
100
AcDbCircle
 10
74.4926834888865
 20
-33.73013175623495
 40
6
100
AcDbArc
 50
99.99999994973064
 51
170.0094741984418
  0
ARC
  5
139
100
AcDbEntity
  8
supports
  6
ByLayer
 62
  256
370
   -1
100
AcDbCircle
 10
64.64431895579615
 20
-31.99527844158078
 40
4
100
AcDbArc
 50
280.4111149261592
 51
350.0094741984419
  0
LINE
  5
13A
100
AcDbEntity
  8
supports
  6
ByLayer
 62
  256
370
   -1
100
AcDbLine
 10
65.36715874342033
 20
-35.9294241736842
 11
24.04978363493572
 21
-43.52086706429581
  0
ARC
  5
13B
100
AcDbEntity
  8
supports
  6
ByLayer
 62
  256
370
   -1
100
AcDbCircle
 10
15.19499623653931
 20
4.672418153970835
 40
49
100
AcDbArc
 50
270
 51
280.4111149261594
  0
LINE
  5
13C
100
AcDbEntity
  8
supports
  6
ByLayer
 62
  256
370
   -1
100
AcDbLine
 10
-15.19499623653932
 20
-44.32758184602915
 11
15.1949962365393
 21
-44.32758184602916
  0
ARC
  5
13D
100
AcDbEntity
  8
supports
  6
ByLayer
 62
  256
370
   -1
100
AcDbCircle
 10
-15.19499623653931
 20
4.672418153970849
 40
49
100
AcDbArc
 50
259.5888850738406
 51
270
  0
LINE
  5
13E
100
AcDbEntity
  8
supports
  6
ByLayer
 62
  256
370
   -1
100
AcDbLine
 10
-65.36715874342033
 20
-35.92942417368421
 11
-24.04978363493572
 21
-43.52086706429581
  0
ARC
  5
13F
100
AcDbEntity
  8
supports
  6
ByLayer
 62
  256
370
   -1
100
AcDbCircle
 10
-64.64431895579615
 20
-31.9952784415808
 40
4
100
AcDbArc
 50
189.9905258015582
 51
259.5888850738408
  0
ARC
  5
140
100
AcDbEntity
  8
supports
  6
ByLayer
 62
  256
370
   -1
100
AcDbCircle
 10
-74.4926834888865
 20
-33.73013175623495
 40
6
100
AcDbArc
 50
9.990525801558229
 51
80.00000005026936
  0
LINE
  5
141
100
AcDbEntity
  8
supports
  6
ByLayer
 62
  256
370
   -1
100
AcDbLine
 10
-135.6580900971579
 20
-16.85246067015386
 11
-73.45079442806913
 21
-27.82128523724759
  0
ARC
  5
142
100
AcDbEntity
  8
supports
  6
ByLayer
 62
  256
370
   -1
100
AcDbCircle
 10
-134.9634973899463
 20
-12.91322965749561
 40
4
100
AcDbArc
 50
177.12501641386
 51
260.0000000502692
  0
LINE
  5
143
100
AcDbEntity
  8
supports
  6
ByLayer
 62
  256
370
   -1
100
AcDbLine
 10
-138.1660598387405
 20
3.066004306311274
 11
-138.9584627972094
 21
-12.71260215496774
  0
ARC
  5
144
100
AcDbEntity
  8
supports
  6
ByLayer
 62
  256
370
   -1
100
AcDbCircle
 10
-89.22773359976658
 20
0.6083174003448377
 40
49
100
AcDbArc
 50
169.9999999612021
 51
177.12501641386
  0
LINE
  5
145
100
AcDbEntity
  8
supports
  6
ByLayer
 62
  256
370
   -1
100
AcDbLine
 10
-128.9716435996312
 20
57.3891566604843
 11
-137.4833134916031
 21
9.117078138700762
  0
ARC
  5
146
100
AcDbEntity
  8
supports
  6
ByLayer
 62
  256
370
   -1
100
AcDbCircle
 10
-125.0324125880527
 20
56.69456394714912
 40
4
100
AcDbArc
 50
92.98549873910723
 51
169.9999999612021
  0
CIRCLE
  5
147
100
AcDbEntity
  8
supports
  6
ByLayer
 62
  256
370
   -1
100
AcDbCircle
 10
-130.7148702
 20
2.102120853970856
 40
3.5
  0
CIRCLE
  5
148
100
AcDbEntity
  8
supports
  6
ByLayer
 62
  256
370
   -1
100
AcDbCircle
 10
-85.96544500000002
 20
-0.952440946029153
 40
3.5
  0
CIRCLE
  5
149
100
AcDbEntity
  8
supports
  6
ByLayer
 62
  256
370
   -1
100
AcDbCircle
 10
-26.84087499999999
 20
-33.92133184602913
 40
3.5
  0
CIRCLE
  5
14A
100
AcDbEntity
  8
supports
  6
ByLayer
 62
  256
370
   -1
100
AcDbCircle
 10
26.84087499999999
 20
-33.92133184602914
 40
3.5
  0
CIRCLE
  5
14B
100
AcDbEntity
  8
supports
  6
ByLayer
 62
  256
370
   -1
100
AcDbCircle
 10
85.96544500000002
 20
-0.9524409460291636
 40
3.5
  0
CIRCLE
  5
14C
100
AcDbEntity
  8
supports
  6
ByLayer
 62
  256
370
   -1
100
AcDbCircle
 10
130.7148702
 20
2.102120853970838
 40
3.5
  0
ARC
  5
14D
100
AcDbEntity
  8
decoupe-int
  6
ByLayer
 62
  256
370
   -1
100
AcDbCircle
 10
-64.88375659828328
 20
14.7703971997603
 40
39
100
AcDbArc
 50
65.96375655561972
 51
92.98549873910731
  0
ARC
  5
14E
100
AcDbEntity
  8
decoupe-int
  6
ByLayer
 62
  256
370
   -1
100
AcDbCircle
 10
-112.247026272721
 20
8.26991294537094
 40
5
100
AcDbArc
 50
169.9999999612021
 51
259.5888850738406
  0
ARC
  5
14F
100
AcDbEntity
  8
decoupe-int
  6
ByLayer
 62
  256
370
   -1
100
AcDbCircle
 10
-15
 20
6.919125603503463
 40
5
100
AcDbArc
 50
5.088887490341627e-14
 51
79.99999997373624
  0
LINE
  5
150
100
AcDbEntity
  8
decoupe-int
  6
ByLayer
 62
  256
370
   -1
100
AcDbLine
 10
-14.13175910940822
 20
11.84316436816651
 11
-36.65474295039571
 21
15.81457411603867
  0
ARC
  5
151
100
AcDbEntity
  8
decoupe-int
  6
ByLayer
 62
  256
370
   -1
100
AcDbCircle
 10
-35.78650205980394
 20
20.73861288070172
 40
5
100
AcDbArc
 50
169.9999999208028
 51
259.9999999737362
  0
LINE
  5
152
100
AcDbEntity
  8
decoupe-int
  6
ByLayer
 62
  256
370
   -1
100
AcDbLine
 10
-40.71054082366486
 20
21.60685377584264
 11
-37.28768177892915
 21
41.0188518904616
  0
LINE
  5
153
100
AcDbEntity
  8
decoupe-int
  6
ByLayer
 62
  256
370
   -1
100
AcDbLine
 10
-40.17514833894208
 20
46.45353271825398
 11
-48.99849340826906
 21
50.38862867444161
  0
ARC
  5
154
100
AcDbEntity
  8
decoupe-int
  6
ByLayer
 62
  256
370
   -1
100
AcDbCircle
 10
-42.21172054279006
 20
41.88709278560253
 40
5
100
AcDbArc
 50
349.9999999208027
 51
65.9637565556197
  0
LINE
  5
155
100
AcDbEntity
  8
decoupe-int
  6
ByLayer
 62
  256
370
   -1
100
AcDbLine
 10
-75.05356831970309
 20
53.29300565341018
 11
-66.91500165875217
 21
53.71746440005563
  0
ARC
  5
156
100
AcDbEntity
  8
decoupe-int
  6
ByLayer
 62
  256
370
   -1
100
AcDbCircle
 10
-74.79315228630963
 20
48.29979190978257
 40
5
100
AcDbArc
 50
92.98549873910738
 51
169.9999999208025
  0
LINE
  5
157
100
AcDbEntity
  8
decoupe-int
  6
ByLayer
 62
  256
370
   -1
100
AcDbLine
 10
-79.71719105017054
 20
49.16803280492351
 11
-83.25423586661698
 21
29.10845500437724
  0
ARC
  5
158
100
AcDbEntity
  8
decoupe-int
  6
ByLayer
 62
  256
370
   -1
100
AcDbCircle
 10
-88.17827463047789
 20
29.97669589951818
 40
5
100
AcDbArc
 50
259.9999999737362
 51
349.9999999208026
  0
LINE
  5
159
100
AcDbEntity
  8
decoupe-int
  6
ByLayer
 62
  256
370
   -1
100
AcDbLine
 10
-89.04651552106967
 20
25.05265713485513
 11
-108.6774269720302
 21
28.51411648883659
  0
LINE
  5
15A
100
AcDbEntity
  8
decoupe-int
  6
ByLayer
 62
  256
370
   -1
100
AcDbLine
 10
-114.4697066270951
 20
24.45831861584252
 11
-117.1710650371941
 21
9.138153837039908
  0
ARC
  5
15B
100
AcDbEntity
  8
decoupe-int
  6
ByLayer
 62
  256
370
   -1
100
AcDbCircle
 10
-109.5456678626219
 20
23.59007772417354
 40
5
100
AcDbArc
 50
79.99999997373624
 51
169.999999961202
  0
LINE
  5
15C
100
AcDbEntity
  8
decoupe-int
  6
ByLayer
 62
  256
370
   -1
100
AcDbLine
 10
-113.1505760072513
 20
3.352230780241693
 11
-103.7802218997525
 21
1.630569907906248
  0
ARC
  5
15D
100
AcDbEntity
  8
decoupe-int
  6
ByLayer
 62
  256
370
   -1
100
AcDbCircle
 10
-102.8766721652223
 20
6.548252073035497
 40
5
100
AcDbArc
 50
259.5888850738406
 51
336.0811176286855
  0
ARC
  5
15E
100
AcDbEntity
  8
decoupe-int
  6
ByLayer
 62
  256
370
   -1
100
AcDbCircle
 10
-69.67469143054819
 20
-9.719501350714001
 40
5
100
AcDbArc
 50
151.7125618383583
 51
259.5888850738406
  0
LINE
  5
15F
100
AcDbEntity
  8
decoupe-int
  6
ByLayer
 62
  256
370
   -1
100
AcDbLine
 10
-70.57824116507844
 20
-14.63718351584325
 11
-15.90354973453024
 21
-24.6828312963961
  0
LINE
  5
160
100
AcDbEntity
  8
decoupe-int
  6
ByLayer
 62
  256
370
   -1
100
AcDbLine
 10
-10
 20
6.919125603503467
 11
-10
 21
-19.76514913126685
  0
ARC
  5
161
100
AcDbEntity
  8
decoupe-int
  6
ByLayer
 62
  256
370
   -1
100
AcDbCircle
 10
-15
 20
-19.76514913126685
 40
5
100
AcDbArc
 50
259.5888850738407
 51
0
  0
ARC
  5
162
100
AcDbEntity
  8
decoupe-int
  6
ByLayer
 62
  256
370
   -1
100
AcDbCircle
 10
-85.96544500000002
 20
-0.952440946029153
 40
13.5
100
AcDbArc
 50
331.7125618383584
 51
156.0811145331933
  0
ARC
  5
163
100
AcDbEntity
  8
decoupe-int
  6
ByLayer
 62
  256
370
   -1
100
AcDbCircle
 10
64.88375659828328
 20
14.77039719976032
 40
39
100
AcDbArc
 50
87.01450126089269
 51
114.0362434443803
  0
ARC
  5
164
100
AcDbEntity
  8
decoupe-int
  6
ByLayer
 62
  256
370
   -1
100
AcDbCircle
 10
112.247026272721
 20
8.269912945370955
 40
5
100
AcDbArc
 50
280.4111149261594
 51
10.00000003879787
  0
ARC
  5
165
100
AcDbEntity
  8
decoupe-int
  6
ByLayer
 62
  256
370
   -1
100
AcDbCircle
 10
15
 20
6.919125603503457
 40
5
100
AcDbArc
 50
100.0000000262638
 51
179.9999999999999
  0
LINE
  5
166
100
AcDbEntity
  8
decoupe-int
  6
ByLayer
 62
  256
370
   -1
100
AcDbLine
 10
14.13175910940822
 20
11.84316436816649
 11
36.65474295039571
 21
15.81457411603867
  0
ARC
  5
167
100
AcDbEntity
  8
decoupe-int
  6
ByLayer
 62
  256
370
   -1
100
AcDbCircle
 10
35.78650205980394
 20
20.7386128807017
 40
5
100
AcDbArc
 50
280.0000000262638
 51
10.00000007919722
  0
LINE
  5
168
100
AcDbEntity
  8
decoupe-int
  6
ByLayer
 62
  256
370
   -1
100
AcDbLine
 10
40.71054082366486
 20
21.60685377584264
 11
37.28768177892915
 21
41.0188518904616
  0
LINE
  5
169
100
AcDbEntity
  8
decoupe-int
  6
ByLayer
 62
  256
370
   -1
100
AcDbLine
 10
40.17514833894208
 20
46.45353271825401
 11
48.99849340826906
 21
50.3886286744416
  0
ARC
  5
16A
100
AcDbEntity
  8
decoupe-int
  6
ByLayer
 62
  256
370
   -1
100
AcDbCircle
 10
42.21172054279006
 20
41.88709278560254
 40
5
100
AcDbArc
 50
114.0362434443803
 51
190.0000000791973
  0
LINE
  5
16B
100
AcDbEntity
  8
decoupe-int
  6
ByLayer
 62
  256
370
   -1
100
AcDbLine
 10
75.05356831970309
 20
53.29300565341017
 11
66.91500165875217
 21
53.71746440005564
  0
ARC
  5
16C
100
AcDbEntity
  8
decoupe-int
  6
ByLayer
 62
  256
370
   -1
100
AcDbCircle
 10
74.79315228630963
 20
48.29979190978266
 40
5
100
AcDbArc
 50
10.00000007919745
 51
87.01450126089262
  0
LINE
  5
16D
100
AcDbEntity
  8
decoupe-int
  6
ByLayer
 62
  256
370
   -1
100
AcDbLine
 10
79.71719105017054
 20
49.16803280492352
 11
83.25423586661698
 21
29.10845500437725
  0
ARC
  5
16E
100
AcDbEntity
  8
decoupe-int
  6
ByLayer
 62
  256
370
   -1
100
AcDbCircle
 10
88.17827463047789
 20
29.97669589951812
 40
5
100
AcDbArc
 50
190.0000000791974
 51
280.0000000262638
  0
LINE
  5
16F
100
AcDbEntity
  8
decoupe-int
  6
ByLayer
 62
  256
370
   -1
100
AcDbLine
 10
89.04651552106967
 20
25.05265713485515
 11
108.6774269720302
 21
28.51411648883657
  0
LINE
  5
170
100
AcDbEntity
  8
decoupe-int
  6
ByLayer
 62
  256
370
   -1
100
AcDbLine
 10
114.4697066270951
 20
24.45831861584254
 11
117.1710650371941
 21
9.138153837039965
  0
ARC
  5
171
100
AcDbEntity
  8
decoupe-int
  6
ByLayer
 62
  256
370
   -1
100
AcDbCircle
 10
109.5456678626219
 20
23.59007772417354
 40
5
100
AcDbArc
 50
10.000000038798
 51
100.0000000262638
  0
LINE
  5
172
100
AcDbEntity
  8
decoupe-int
  6
ByLayer
 62
  256
370
   -1
100
AcDbLine
 10
113.1505760072513
 20
3.352230780241674
 11
103.7802218997525
 21
1.63056990790625
  0
ARC
  5
173
100
AcDbEntity
  8
decoupe-int
  6
ByLayer
 62
  256
370
   -1
100
AcDbCircle
 10
102.8766721652223
 20
6.548252073035416
 40
5
100
AcDbArc
 50
203.9188823713144
 51
280.4111149261594
  0
ARC
  5
174
100
AcDbEntity
  8
decoupe-int
  6
ByLayer
 62
  256
370
   -1
100
AcDbCircle
 10
69.67469143054819
 20
-9.719501350713994
 40
5
100
AcDbArc
 50
280.4111149261594
 51
28.28743816164166
  0
LINE
  5
175
100
AcDbEntity
  8
decoupe-int
  6
ByLayer
 62
  256
370
   -1
100
AcDbLine
 10
70.57824116507844
 20
-14.63718351584327
 11
15.90354973453024
 21
-24.6828312963961
  0
LINE
  5
176
100
AcDbEntity
  8
decoupe-int
  6
ByLayer
 62
  256
370
   -1
100
AcDbLine
 10
10
 20
6.919125603503453
 11
10
 21
-19.76514913126683
  0
ARC
  5
177
100
AcDbEntity
  8
decoupe-int
  6
ByLayer
 62
  256
370
   -1
100
AcDbCircle
 10
15
 20
-19.76514913126683
 40
5
100
AcDbArc
 50
180
 51
280.4111149261593
  0
ARC
  5
178
100
AcDbEntity
  8
decoupe-int
  6
ByLayer
 62
  256
370
   -1
100
AcDbCircle
 10
85.96544500000002
 20
-0.9524409460291601
 40
13.5
100
AcDbArc
 50
23.91888546680669
 51
208.2874381616416
  0
ARC
  5
179
100
AcDbEntity
  8
logo
  6
ByLayer
 62
  256
370
   -1
100
AcDbCircle
 10
-20
 20
66.5
 40
4.5
100
AcDbArc
 50
270
 51
90
  0
ARC
  5
17A
100
AcDbEntity
  8
logo
  6
ByLayer
 62
  256
370
   -1
100
AcDbCircle
 10
-20
 20
57.5
 40
4.5
100
AcDbArc
 50
90
 51
270.0000000000001
  0
CIRCLE
  5
17B
100
AcDbEntity
  8
logo
  6
ByLayer
 62
  256
370
   -1
100
AcDbCircle
 10
-20
 20
66.5
 40
1.5
  0
ARC
  5
17C
100
AcDbEntity
  8
logo
  6
ByLayer
 62
  256
370
   -1
100
AcDbCircle
 10
-20
 20
62
 40
9
100
AcDbArc
 50
89.99999999999996
 51
270
  0
ARC
  5
17D
100
AcDbEntity
  8
logo
  6
ByLayer
 62
  256
370
   -1
100
AcDbCircle
 10
20.00000000000001
 20
57.5
 40
4.5
100
AcDbArc
 50
90.00000000000006
 51
270.0000000000001
  0
ARC
  5
17E
100
AcDbEntity
  8
logo
  6
ByLayer
 62
  256
370
   -1
100
AcDbCircle
 10
20.00000000000001
 20
66.5
 40
4.5
100
AcDbArc
 50
270.0000000000001
 51
90.0000000000001
  0
CIRCLE
  5
17F
100
AcDbEntity
  8
logo
  6
ByLayer
 62
  256
370
   -1
100
AcDbCircle
 10
20.00000000000001
 20
57.5
 40
1.5
  0
ARC
  5
180
100
AcDbEntity
  8
logo
  6
ByLayer
 62
  256
370
   -1
100
AcDbCircle
 10
20.00000000000001
 20
62
 40
9
100
AcDbArc
 50
270
 51
90.00000000000006
  0
SPLINE
  5
181
100
AcDbEntity
  8
logo
  6
ByLayer
 62
    7
370
   -1
100
AcDbSpline
210
0
220
0
230
0
 70
    8
 71
    3
 72
    8
 73
    4
 74
    0
 42
1e-07
 43
1e-07
 40
0
 40
0
 40
0
 40
0
 40
1
 40
1
 40
1
 40
1
 10
-134.2780585054642
 20
-26.78190618249524
 30
0
 10
-134.5292381536164
 20
-27.04830984803263
 30
0
 10
-134.8480771193313
 20
-27.24099950966198
 30
0
 10
-135.2345745202057
 20
-27.35997399533339
 30
0
  0
SPLINE
  5
182
100
AcDbEntity
  8
logo
  6
ByLayer
 62
    7
370
   -1
100
AcDbSpline
210
0
220
0
230
0
 70
    8
 71
    3
 72
    8
 73
    4
 74
    0
 42
1e-07
 43
1e-07
 40
0
 40
0
 40
0
 40
0
 40
1
 40
1
 40
1
 40
1
 10
-135.2345745202057
 20
-27.35997399533339
 30
0
 10
-135.5994756596322
 20
-27.46146740422781
 30
0
 10
-135.9775603870921
 20
-27.47627322586532
 30
0
 10
-136.3688299931863
 20
-27.40439122314345
 30
0
  0
SPLINE
  5
183
100
AcDbEntity
  8
logo
  6
ByLayer
 62
    7
370
   -1
100
AcDbSpline
210
0
220
0
230
0
 70
    8
 71
    3
 72
    8
 73
    4
 74
    0
 42
1e-07
 43
1e-07
 40
0
 40
0
 40
0
 40
0
 40
1
 40
1
 40
1
 40
1
 10
-137.9739228600336
 20
-27.10951196846449
 30
0
 10
-138.3385144503459
 20
-27.04253111107356
 30
0
 10
-138.4884086836665
 20
-26.83267364539932
 30
0
 10
-138.4236062052958
 20
-26.47993945289052
 30
0
  0
LWPOLYLINE
  5
184
100
AcDbEntity
  8
logo
  6
ByLayer
 62
    7
370
   -1
100
AcDbPolyline
 90
    2
 70
    0
 43
0
 10
-136.3688299931863
 20
-27.40439122314345
 10
-137.9739228600336
 20
-27.10951196846449
  0
SPLINE
  5
185
100
AcDbEntity
  8
logo
  6
ByLayer
 62
    7
370
   -1
100
AcDbSpline
210
0
220
0
230
0
 70
    8
 71
    3
 72
    8
 73
    4
 74
    0
 42
1e-07
 43
1e-07
 40
0
 40
0
 40
0
 40
0
 40
1
 40
1
 40
1
 40
1
 10
-137.4237948454165
 20
-21.03774554988962
 30
0
 10
-137.3965668266561
 20
-20.889537434204
 30
0
 10
-137.327750982408
 20
-20.77348214405158
 30
0
 10
-137.2173467859231
 20
-20.68958044328419
 30
0
  0
SPLINE
  5
186
100
AcDbEntity
  8
logo
  6
ByLayer
 62
    7
370
   -1
100
AcDbSpline
210
0
220
0
230
0
 70
    8
 71
    3
 72
    8
 73
    4
 74
    0
 42
1e-07
 43
1e-07
 40
0
 40
0
 40
0
 40
0
 40
1
 40
1
 40
1
 40
1
 10
-137.2173467859231
 20
-20.68958044328419
 30
0
 10
-137.1015587190283
 20
-20.60973173822676
 30
0
 10
-136.9651142435
 20
-20.58423859504223
 30
0
 10
-136.8080138860874
 20
-20.61310024987882
 30
0
  0
LWPOLYLINE
  5
187
100
AcDbEntity
  8
logo
  6
ByLayer
 62
    7
370
   -1
100
AcDbPolyline
 90
    2
 70
    0
 43
0
 10
-138.4236062052958
 20
-26.47993945289052
 10
-137.4237948454165
 20
-21.03774554988962
  0
SPLINE
  5
188
100
AcDbEntity
  8
logo
  6
ByLayer
 62
    7
370
   -1
100
AcDbSpline
210
0
220
0
230
0
 70
    8
 71
    3
 72
    8
 73
    4
 74
    0
 42
1e-07
 43
1e-07
 40
0
 40
0
 40
0
 40
0
 40
1
 40
1
 40
1
 40
1
 10
-135.3496468795376
 20
-20.88102379799378
 30
0
 10
-134.6589978218974
 20
-21.00790622552691
 30
0
 10
-134.1828074810056
 20
-21.36810513738686
 30
0
 10
-133.9210758568624
 20
-21.96162053357363
 30
0
  0
SPLINE
  5
189
100
AcDbEntity
  8
logo
  6
ByLayer
 62
    7
370
   -1
100
AcDbSpline
210
0
220
0
230
0
 70
    8
 71
    3
 72
    8
 73
    4
 74
    0
 42
1e-07
 43
1e-07
 40
0
 40
0
 40
0
 40
0
 40
1
 40
1
 40
1
 40
1
 10
-133.9210758568624
 20
-21.96162053357363
 30
0
 10
-133.8000395288558
 20
-22.25350384153942
 30
0
 10
-133.7640270585037
 20
-22.53283357925448
 30
0
 10
-133.8130376819545
 20
-22.7996092199695
 30
0
  0
SPLINE
  5
18A
100
AcDbEntity
  8
logo
  6
ByLayer
 62
    7
370
   -1
100
AcDbSpline
210
0
220
0
230
0
 70
    8
 71
    3
 72
    8
 73
    4
 74
    0
 42
1e-07
 43
1e-07
 40
0
 40
0
 40
0
 40
0
 40
1
 40
1
 40
1
 40
1
 10
-133.8130376819545
 20
-22.7996092199695
 30
0
 10
-133.9301180559281
 20
-23.43690353664716
 30
0
 10
-134.2434306615509
 20
-23.84969961482353
 30
0
 10
-134.7529747349709
 20
-24.0379969277493
 30
0
  0
SPLINE
  5
18B
100
AcDbEntity
  8
logo
  6
ByLayer
 62
    7
370
   -1
100
AcDbSpline
210
0
220
0
230
0
 70
    8
 71
    3
 72
    8
 73
    4
 74
    0
 42
1e-07
 43
1e-07
 40
0
 40
0
 40
0
 40
0
 40
1
 40
1
 40
1
 40
1
 10
-134.7529747349709
 20
-24.0379969277493
 30
0
 10
-134.0027506084558
 20
-24.45772758665668
 30
0
 10
-133.7025152445013
 20
-25.0751651321963
 30
0
 10
-133.8522691698568
 20
-25.89030880051636
 30
0
  0
SPLINE
  5
18C
100
AcDbEntity
  8
logo
  6
ByLayer
 62
    7
370
   -1
100
AcDbSpline
210
0
220
0
230
0
 70
    8
 71
    3
 72
    8
 73
    4
 74
    0
 42
1e-07
 43
1e-07
 40
0
 40
0
 40
0
 40
0
 40
1
 40
1
 40
1
 40
1
 10
-133.8522691698568
 20
-25.89030880051636
 30
0
 10
-133.9159833478517
 20
-26.23711913387762
 30
0
 10
-134.0579133414876
 20
-26.53431822168682
 30
0
 10
-134.2780585054642
 20
-26.78190618249524
 30
0
  0
LWPOLYLINE
  5
18D
100
AcDbEntity
  8
logo
  6
ByLayer
 62
    7
370
   -1
100
AcDbPolyline
 90
    2
 70
    0
 43
0
 10
-136.8080138860874
 20
-20.61310024987882
 10
-135.3496468795376
 20
-20.88102379799378
  0
SPLINE
  5
18E
100
AcDbEntity
  8
logo
  6
ByLayer
 62
    7
370
   -1
100
AcDbSpline
210
0
220
0
230
0
 70
    8
 71
    3
 72
    8
 73
    4
 74
    0
 42
1e-07
 43
1e-07
 40
0
 40
0
 40
0
 40
0
 40
1
 40
1
 40
1
 40
1
 10
-134.8630835513082
 20
-22.78595807677836
 30
0
 10
-134.8184292116931
 20
-22.5428946504681
 30
0
 10
-134.8561681933644
 20
-22.32299876535476
 30
0
 10
-134.9763009045205
 20
-22.12626901228597
 30
0
  0
SPLINE
  5
18F
100
AcDbEntity
  8
logo
  6
ByLayer
 62
    7
370
   -1
100
AcDbSpline
210
0
220
0
230
0
 70
    8
 71
    3
 72
    8
 73
    4
 74
    0
 42
1e-07
 43
1e-07
 40
0
 40
0
 40
0
 40
0
 40
1
 40
1
 40
1
 40
1
 10
-134.9763009045205
 20
-22.12626901228597
 30
0
 10
-135.0958884645343
 20
-21.92657551229298
 30
0
 10
-135.2935158631119
 20
-21.80140669180864
 30
0
 10
-135.5691824549527
 20
-21.75076266938421
 30
0
  0
SPLINE
  5
190
100
AcDbEntity
  8
logo
  6
ByLayer
 62
    7
370
   -1
100
AcDbSpline
210
0
220
0
230
0
 70
    8
 71
    3
 72
    8
 73
    4
 74
    0
 42
1e-07
 43
1e-07
 40
0
 40
0
 40
0
 40
0
 40
1
 40
1
 40
1
 40
1
 10
-135.9832093311657
 20
-23.50402710911485
 30
0
 10
-135.5771197523937
 20
-23.57863175959616
 30
0
 10
-135.2674796578561
 20
-23.47771273015894
 30
0
 10
-135.0542903381539
 20
-23.20126978370073
 30
0
  0
SPLINE
  5
191
100
AcDbEntity
  8
logo
  6
ByLayer
 62
    7
370
   -1
100
AcDbSpline
210
0
220
0
230
0
 70
    8
 71
    3
 72
    8
 73
    4
 74
    0
 42
1e-07
 43
1e-07
 40
0
 40
0
 40
0
 40
0
 40
1
 40
1
 40
1
 40
1
 10
-135.0542903381539
 20
-23.20126978370073
 30
0
 10
-134.9551360808182
 20
-23.07853184387332
 30
0
 10
-134.8914007003032
 20
-22.94009456871545
 30
0
 10
-134.8630835513082
 20
-22.78595807677836
 30
0
  0
LWPOLYLINE
  5
192
100
AcDbEntity
  8
logo
  6
ByLayer
 62
    7
370
   -1
100
AcDbPolyline
 90
    4
 70
    0
 43
0
 10
-135.5691824549527
 20
-21.75076266938421
 10
-136.4762156325203
 20
-21.58412728466934
 10
-136.8013175102618
 20
-23.35372855936648
 10
-135.9832093311657
 20
-23.50402710911485
  0
SPLINE
  5
193
100
AcDbEntity
  8
logo
  6
ByLayer
 62
    7
370
   -1
100
AcDbSpline
210
0
220
0
230
0
 70
    8
 71
    3
 72
    8
 73
    4
 74
    0
 42
1e-07
 43
1e-07
 40
0
 40
0
 40
0
 40
0
 40
1
 40
1
 40
1
 40
1
 10
-134.9167134661031
 20
-25.12941089331232
 30
0
 10
-135.0523847141462
 20
-24.73371825223222
 30
0
 10
-135.3840305594315
 20
-24.48740643311143
 30
0
 10
-135.9116515287083
 20
-24.39047467209817
 30
0
  0
SPLINE
  5
194
100
AcDbEntity
  8
logo
  6
ByLayer
 62
    7
370
   -1
100
AcDbSpline
210
0
220
0
230
0
 70
    8
 71
    3
 72
    8
 73
    4
 74
    0
 42
1e-07
 43
1e-07
 40
0
 40
0
 40
0
 40
0
 40
1
 40
1
 40
1
 40
1
 10
-136.3796828778507
 20
-26.48773707895399
 30
0
 10
-136.0150912875384
 20
-26.55471793634492
 30
0
 10
-135.6972267815384
 20
-26.52578487179283
 30
0
 10
-135.4260898866003
 20
-26.40093712144592
 30
0
  0
SPLINE
  5
195
100
AcDbEntity
  8
logo
  6
ByLayer
 62
    7
370
   -1
100
AcDbSpline
210
0
220
0
230
0
 70
    8
 71
    3
 72
    8
 73
    4
 74
    0
 42
1e-07
 43
1e-07
 40
0
 40
0
 40
0
 40
0
 40
1
 40
1
 40
1
 40
1
 10
-135.4260898866003
 20
-26.40093712144592
 30
0
 10
-135.1204094908689
 20
-26.25485442528745
 30
0
 10
-134.9370742654651
 20
-26.01582009614285
 30
0
 10
-134.8760835650884
 20
-25.68383425256335
 30
0
  0
SPLINE
  5
196
100
AcDbEntity
  8
logo
  6
ByLayer
 62
    7
370
   -1
100
AcDbSpline
210
0
220
0
230
0
 70
    8
 71
    3
 72
    8
 73
    4
 74
    0
 42
1e-07
 43
1e-07
 40
0
 40
0
 40
0
 40
0
 40
1
 40
1
 40
1
 40
1
 10
-134.8760835650884
 20
-25.68383425256335
 30
0
 10
-134.8401427415543
 20
-25.4882004174671
 30
0
 10
-134.8536862569927
 20
-25.30339259153301
 30
0
 10
-134.9167134661031
 20
-25.12941089331232
 30
0
  0
LWPOLYLINE
  5
197
100
AcDbEntity
  8
logo
  6
ByLayer
 62
    7
370
   -1
100
AcDbPolyline
 90
    4
 70
    0
 43
0
 10
-135.9116515287083
 20
-24.39047467209817
 10
-136.9565176795461
 20
-24.1985173354467
 10
-137.3445169172444
 20
-26.31048282264163
 10
-136.3796828778507
 20
-26.48773707895399
  0
SPLINE
  5
198
100
AcDbEntity
  8
logo
  6
ByLayer
 62
    7
370
   -1
100
AcDbSpline
210
0
220
0
230
0
 70
    8
 71
    3
 72
    8
 73
    4
 74
    0
 42
1e-07
 43
1e-07
 40
0
 40
0
 40
0
 40
0
 40
1
 40
1
 40
1
 40
1
 10
-129.4077819915769
 20
-27.44223590215541
 30
0
 10
-129.6599337065292
 20
-27.79732540290118
 30
0
 10
-129.979289358923
 20
-28.05120413001726
 30
0
 10
-130.365848422009
 20
-28.20387284735543
 30
0
  0
SPLINE
  5
199
100
AcDbEntity
  8
logo
  6
ByLayer
 62
    7
370
   -1
100
AcDbSpline
210
0
220
0
230
0
 70
    8
 71
    3
 72
    8
 73
    4
 74
    0
 42
1e-07
 43
1e-07
 40
0
 40
0
 40
0
 40
0
 40
1
 40
1
 40
1
 40
1
 10
-130.365848422009
 20
-28.20387284735543
 30
0
 10
-130.761059984265
 20
-28.37027680568961
 30
0
 10
-131.1765315546834
 20
-28.41345395668003
 30
0
 10
-131.6122630147127
 20
-28.33340365502614
 30
0
  0
SPLINE
  5
19A
100
AcDbEntity
  8
logo
  6
ByLayer
 62
    7
370
   -1
100
AcDbSpline
210
0
220
0
230
0
 70
    8
 71
    3
 72
    8
 73
    4
 74
    0
 42
1e-07
 43
1e-07
 40
0
 40
0
 40
0
 40
0
 40
1
 40
1
 40
1
 40
1
 10
-131.6122630147127
 20
-28.33340365502614
 30
0
 10
-132.2940198306261
 20
-28.20815486356917
 30
0
 10
-132.8029672989388
 20
-27.85113034861836
 30
0
 10
-133.1391054196507
 20
-27.26233011017372
 30
0
  0
SPLINE
  5
19B
100
AcDbEntity
  8
logo
  6
ByLayer
 62
    7
370
   -1
100
AcDbSpline
210
0
220
0
230
0
 70
    8
 71
    3
 72
    8
 73
    4
 74
    0
 42
1e-07
 43
1e-07
 40
0
 40
0
 40
0
 40
0
 40
1
 40
1
 40
1
 40
1
 10
-133.1391054196507
 20
-27.26233011017372
 30
0
 10
-133.4478436497014
 20
-26.72453413212686
 30
0
 10
-133.5401326377374
 20
-26.11772031002106
 30
0
 10
-133.4159723837587
 20
-25.44188864385632
 30
0
  0
SPLINE
  5
19C
100
AcDbEntity
  8
logo
  6
ByLayer
 62
    7
370
   -1
100
AcDbSpline
210
0
220
0
230
0
 70
    8
 71
    3
 72
    8
 73
    4
 74
    0
 42
1e-07
 43
1e-07
 40
0
 40
0
 40
0
 40
0
 40
1
 40
1
 40
1
 40
1
 10
-133.4159723837587
 20
-25.44188864385632
 30
0
 10
-133.2901792050114
 20
-24.75716860776802
 30
0
 10
-132.9906547264121
 20
-24.21927280435741
 30
0
 10
-132.5173981841091
 20
-23.82820070687513
 30
0
  0
SPLINE
  5
19D
100
AcDbEntity
  8
logo
  6
ByLayer
 62
    7
370
   -1
100
AcDbSpline
210
0
220
0
230
0
 70
    8
 71
    3
 72
    8
 73
    4
 74
    0
 42
1e-07
 43
1e-07
 40
0
 40
0
 40
0
 40
0
 40
1
 40
1
 40
1
 40
1
 10
-132.5173981841091
 20
-23.82820070687513
 30
0
 10
-131.9998586980748
 20
-23.39623831668989
 30
0
 10
-131.3957643669619
 20
-23.24369801271355
 30
0
 10
-130.7051153093216
 20
-23.37058044024667
 30
0
  0
SPLINE
  5
19E
100
AcDbEntity
  8
logo
  6
ByLayer
 62
    7
370
   -1
100
AcDbSpline
210
0
220
0
230
0
 70
    8
 71
    3
 72
    8
 73
    4
 74
    0
 42
1e-07
 43
1e-07
 40
0
 40
0
 40
0
 40
0
 40
1
 40
1
 40
1
 40
1
 10
-130.7051153093216
 20
-23.37058044024667
 30
0
 10
-130.0115017409053
 20
-23.49800749217268
 30
0
 10
-129.5010716615508
 20
-23.85530238341825
 30
0
 10
-129.1738249527071
 20
-24.44246446868281
 30
0
  0
SPLINE
  5
19F
100
AcDbEntity
  8
logo
  6
ByLayer
 62
    7
370
   -1
100
AcDbSpline
210
0
220
0
230
0
 70
    8
 71
    3
 72
    8
 73
    4
 74
    0
 42
1e-07
 43
1e-07
 40
0
 40
0
 40
0
 40
0
 40
1
 40
1
 40
1
 40
1
 10
-129.1738249527071
 20
-24.44246446868281
 30
0
 10
-128.8769441864669
 20
-24.978086058064
 30
0
 10
-128.7911281990752
 20
-25.58677526071131
 30
0
 10
-128.9163767534297
 20
-26.26853078602359
 30
0
  0
SPLINE
  5
1A0
100
AcDbEntity
  8
logo
  6
ByLayer
 62
    7
370
   -1
100
AcDbSpline
210
0
220
0
230
0
 70
    8
 71
    3
 72
    8
 73
    4
 74
    0
 42
1e-07
 43
1e-07
 40
0
 40
0
 40
0
 40
0
 40
1
 40
1
 40
1
 40
1
 10
-128.9163767534297
 20
-26.26853078602359
 30
0
 10
-128.9958827863445
 20
-26.70129967117863
 30
0
 10
-129.1596847474937
 20
-27.09253467037216
 30
0
 10
-129.4077819915769
 20
-27.44223590215541
 30
0
  0
SPLINE
  5
1A1
100
AcDbEntity
  8
logo
  6
ByLayer
 62
    7
370
   -1
100
AcDbSpline
210
0
220
0
230
0
 70
    8
 71
    3
 72
    8
 73
    4
 74
    0
 42
1e-07
 43
1e-07
 40
0
 40
0
 40
0
 40
0
 40
1
 40
1
 40
1
 40
1
 10
-129.9382525694916
 20
-25.22588717533968
 30
0
 10
-130.0380453015127
 20
-24.66825481227884
 30
0
 10
-130.3458235125356
 20
-24.34206226240221
 30
0
 10
-130.861587084009
 20
-24.24730888040921
 30
0
  0
SPLINE
  5
1A2
100
AcDbEntity
  8
logo
  6
ByLayer
 62
    7
370
   -1
100
AcDbSpline
210
0
220
0
230
0
 70
    8
 71
    3
 72
    8
 73
    4
 74
    0
 42
1e-07
 43
1e-07
 40
0
 40
0
 40
0
 40
0
 40
1
 40
1
 40
1
 40
1
 10
-130.861587084009
 20
-24.24730888040921
 30
0
 10
-131.3714229245314
 20
-24.15364451009948
 30
0
 10
-131.7769182644715
 20
-24.34267038055401
 30
0
 10
-132.0780736305785
 20
-24.81438572792101
 30
0
  0
SPLINE
  5
1A3
100
AcDbEntity
  8
logo
  6
ByLayer
 62
    7
370
   -1
100
AcDbSpline
210
0
220
0
230
0
 70
    8
 71
    3
 72
    8
 73
    4
 74
    0
 42
1e-07
 43
1e-07
 40
0
 40
0
 40
0
 40
0
 40
1
 40
1
 40
1
 40
1
 10
-132.0780736305785
 20
-24.81438572792101
 30
0
 10
-132.2319190007136
 20
-25.06803014361032
 30
0
 10
-132.335524520396
 20
-25.34009472503908
 30
0
 10
-132.3888907163749
 20
-25.63057870835548
 30
0
  0
SPLINE
  5
1A4
100
AcDbEntity
  8
logo
  6
ByLayer
 62
    7
370
   -1
100
AcDbSpline
210
0
220
0
230
0
 70
    8
 71
    3
 72
    8
 73
    4
 74
    0
 42
1e-07
 43
1e-07
 40
0
 40
0
 40
0
 40
0
 40
1
 40
1
 40
1
 40
1
 10
-132.3888907163749
 20
-25.63057870835548
 30
0
 10
-132.4634958410611
 20
-26.03667086832974
 30
0
 10
-132.4254009711541
 20
-26.42975945278835
 30
0
 10
-132.2746056984558
 20
-26.80984587088363
 30
0
  0
SPLINE
  5
1A5
100
AcDbEntity
  8
logo
  6
ByLayer
 62
    7
370
   -1
100
AcDbSpline
210
0
220
0
230
0
 70
    8
 71
    3
 72
    8
 73
    4
 74
    0
 42
1e-07
 43
1e-07
 40
0
 40
0
 40
0
 40
0
 40
1
 40
1
 40
1
 40
1
 10
-132.2746056984558
 20
-26.80984587088363
 30
0
 10
-132.1383282823595
 20
-27.16888041482152
 30
0
 10
-131.8701089137755
 20
-27.38515512426358
 30
0
 10
-131.4699470659544
 20
-27.4586707630616
 30
0
  0
SPLINE
  5
1A6
100
AcDbEntity
  8
logo
  6
ByLayer
 62
    7
370
   -1
100
AcDbSpline
210
0
220
0
230
0
 70
    8
 71
    3
 72
    8
 73
    4
 74
    0
 42
1e-07
 43
1e-07
 40
0
 40
0
 40
0
 40
0
 40
1
 40
1
 40
1
 40
1
 10
-131.4699470659544
 20
-27.4586707630616
 30
0
 10
-130.9541828491805
 20
-27.55342426360585
 30
0
 10
-130.5416701213056
 20
-27.35955979243491
 30
0
 10
-130.2324081184781
 20
-26.8770768227995
 30
0
  0
SPLINE
  5
1A7
100
AcDbEntity
  8
logo
  6
ByLayer
 62
    7
370
   -1
100
AcDbSpline
210
0
220
0
230
0
 70
    8
 71
    3
 72
    8
 73
    4
 74
    0
 42
1e-07
 43
1e-07
 40
0
 40
0
 40
0
 40
0
 40
1
 40
1
 40
1
 40
1
 10
-130.2324081184781
 20
-26.8770768227995
 30
0
 10
-130.0918113924567
 20
-26.64551163073936
 30
0
 10
-129.9940129618638
 20
-26.38003828170976
 30
0
 10
-129.9390122999501
 20
-26.0806575395625
 30
0
  0
SPLINE
  5
1A8
100
AcDbEntity
  8
logo
  6
ByLayer
 62
    7
370
   -1
100
AcDbSpline
210
0
220
0
230
0
 70
    8
 71
    3
 72
    8
 73
    4
 74
    0
 42
1e-07
 43
1e-07
 40
0
 40
0
 40
0
 40
0
 40
1
 40
1
 40
1
 40
1
 10
-129.9390122999501
 20
-26.0806575395625
 30
0
 10
-129.887824245889
 20
-25.80202966344848
 30
0
 10
-129.887571217503
 20
-25.51710616919046
 30
0
 10
-129.9382525694916
 20
-25.22588717533968
 30
0
  0
SPLINE
  5
1A9
100
AcDbEntity
  8
logo
  6
ByLayer
 62
    7
370
   -1
100
AcDbSpline
210
0
220
0
230
0
 70
    8
 71
    3
 72
    8
 73
    4
 74
    0
 42
1e-07
 43
1e-07
 40
0
 40
0
 40
0
 40
0
 40
1
 40
1
 40
1
 40
1
 10
-126.1375988848542
 20
-25.30361872825053
 30
0
 10
-126.3389830158566
 20
-25.31565188322086
 30
0
 10
-126.449656130669
 20
-25.32596326015695
 30
0
 10
-126.4696194013412
 20
-25.33455197665578
 30
0
  0
SPLINE
  5
1AA
100
AcDbEntity
  8
logo
  6
ByLayer
 62
    7
370
   -1
100
AcDbSpline
210
0
220
0
230
0
 70
    8
 71
    3
 72
    8
 73
    4
 74
    0
 42
1e-07
 43
1e-07
 40
0
 40
0
 40
0
 40
0
 40
1
 40
1
 40
1
 40
1
 10
-126.4696194013412
 20
-25.33455197665578
 30
0
 10
-126.9030609685972
 20
-25.47554378664237
 30
0
 10
-127.1655246885943
 20
-25.79502859034486
 30
0
 10
-127.2570106798838
 20
-26.29300703306383
 30
0
  0
SPLINE
  5
1AB
100
AcDbEntity
  8
logo
  6
ByLayer
 62
    7
370
   -1
100
AcDbSpline
210
0
220
0
230
0
 70
    8
 71
    3
 72
    8
 73
    4
 74
    0
 42
1e-07
 43
1e-07
 40
0
 40
0
 40
0
 40
0
 40
1
 40
1
 40
1
 40
1
 10
-127.6703324622748
 20
-28.54280872003169
 30
0
 10
-127.6970159751936
 20
-28.68805297024186
 30
0
 10
-127.764742978854
 20
-28.79817782968987
 30
0
 10
-127.8735127094041
 20
-28.87318277162643
 30
0
  0
SPLINE
  5
1AC
100
AcDbEntity
  8
logo
  6
ByLayer
 62
    7
370
   -1
100
AcDbSpline
210
0
220
0
230
0
 70
    8
 71
    3
 72
    8
 73
    4
 74
    0
 42
1e-07
 43
1e-07
 40
0
 40
0
 40
0
 40
0
 40
1
 40
1
 40
1
 40
1
 10
-127.8735127094041
 20
-28.87318277162643
 30
0
 10
-127.9828277756546
 20
-28.95115609614236
 30
0
 10
-128.1101071705102
 20
-28.97680138386684
 30
0
 10
-128.2553507754198
 20
-28.95011798949928
 30
0
  0
SPLINE
  5
1AD
100
AcDbEntity
  8
logo
  6
ByLayer
 62
    7
370
   -1
100
AcDbSpline
210
0
220
0
230
0
 70
    8
 71
    3
 72
    8
 73
    4
 74
    0
 42
1e-07
 43
1e-07
 40
0
 40
0
 40
0
 40
0
 40
1
 40
1
 40
1
 40
1
 10
-128.2553507754198
 20
-28.95011798949928
 30
0
 10
-128.3946666493785
 20
-28.92452360681501
 30
0
 10
-128.5045197233794
 20
-28.85531358391484
 30
0
 10
-128.5849107612743
 20
-28.74248844754811
 30
0
  0
SPLINE
  5
1AE
100
AcDbEntity
  8
logo
  6
ByLayer
 62
    7
370
   -1
100
AcDbSpline
210
0
220
0
230
0
 70
    8
 71
    3
 72
    8
 73
    4
 74
    0
 42
1e-07
 43
1e-07
 40
0
 40
0
 40
0
 40
0
 40
1
 40
1
 40
1
 40
1
 10
-128.5849107612743
 20
-28.74248844754811
 30
0
 10
-128.6787928990558
 20
-28.63638116424264
 30
0
 10
-128.7107586346865
 20
-28.50181347840817
 30
0
 10
-128.6808078496154
 20
-28.33878474474416
 30
0
  0
LWPOLYLINE
  5
1AF
100
AcDbEntity
  8
logo
  6
ByLayer
 62
    7
370
   -1
100
AcDbPolyline
 90
    2
 70
    0
 43
0
 10
-127.2570106798838
 20
-26.29300703306383
 10
-127.6703324622748
 20
-28.54280872003169
  0
SPLINE
  5
1B0
100
AcDbEntity
  8
logo
  6
ByLayer
 62
    7
370
   -1
100
AcDbSpline
210
0
220
0
230
0
 70
    8
 71
    3
 72
    8
 73
    4
 74
    0
 42
1e-07
 43
1e-07
 40
0
 40
0
 40
0
 40
0
 40
1
 40
1
 40
1
 40
1
 10
-127.9595373682825
 20
-24.41275032121185
 30
0
 10
-127.9339429855982
 20
-24.27343444725316
 30
0
 10
-127.8632521164624
 20
-24.16385409364677
 30
0
 10
-127.7474648794262
 20
-24.08400990569327
 30
0
  0
SPLINE
  5
1B1
100
AcDbEntity
  8
logo
  6
ByLayer
 62
    7
370
   -1
100
AcDbSpline
210
0
220
0
230
0
 70
    8
 71
    3
 72
    8
 73
    4
 74
    0
 42
1e-07
 43
1e-07
 40
0
 40
0
 40
0
 40
0
 40
1
 40
1
 40
1
 40
1
 10
-127.7474648794262
 20
-24.08400990569327
 30
0
 10
-127.6316768125315
 20
-24.00416120063583
 30
0
 10
-127.5041252240306
 20
-23.97703430282392
 30
0
 10
-127.3648093500719
 20
-24.00262868550819
 30
0
  0
SPLINE
  5
1B2
100
AcDbEntity
  8
logo
  6
ByLayer
 62
    7
370
   -1
100
AcDbSpline
210
0
220
0
230
0
 70
    8
 71
    3
 72
    8
 73
    4
 74
    0
 42
1e-07
 43
1e-07
 40
0
 40
0
 40
0
 40
0
 40
1
 40
1
 40
1
 40
1
 10
-127.3648093500719
 20
-24.00262868550819
 30
0
 10
-127.2195657451623
 20
-24.02931207987574
 30
0
 10
-127.106475848189
 20
-24.09758447178077
 30
0
 10
-127.0255403044524
 20
-24.20744574267206
 30
0
  0
SPLINE
  5
1B3
100
AcDbEntity
  8
logo
  6
ByLayer
 62
    7
370
   -1
100
AcDbSpline
210
0
220
0
230
0
 70
    8
 71
    3
 72
    8
 73
    4
 74
    0
 42
1e-07
 43
1e-07
 40
0
 40
0
 40
0
 40
0
 40
1
 40
1
 40
1
 40
1
 10
-127.0255403044524
 20
-24.20744574267206
 30
0
 10
-126.9413366587049
 20
-24.29951801300556
 30
0
 10
-126.9147547934839
 20
-24.43003270313006
 30
0
 10
-126.9457947087896
 20
-24.59898981304554
 30
0
  0
LWPOLYLINE
  5
1B4
100
AcDbEntity
  8
logo
  6
ByLayer
 62
    7
370
   -1
100
AcDbPolyline
 90
    2
 70
    0
 43
0
 10
-128.6808078496154
 20
-28.33878474474416
 10
-127.9595373682825
 20
-24.41275032121185
  0
SPLINE
  5
1B5
100
AcDbEntity
  8
logo
  6
ByLayer
 62
    7
370
   -1
100
AcDbSpline
210
0
220
0
230
0
 70
    8
 71
    3
 72
    8
 73
    4
 74
    0
 42
1e-07
 43
1e-07
 40
0
 40
0
 40
0
 40
0
 40
1
 40
1
 40
1
 40
1
 10
-126.9555988962713
 20
-24.6523561694183
 30
0
 10
-126.5592928912019
 20
-24.32988307494671
 30
0
 10
-126.1966291629899
 20
-24.19886924305255
 30
0
 10
-125.8676078301864
 20
-24.25931531903638
 30
0
  0
SPLINE
  5
1B6
100
AcDbEntity
  8
logo
  6
ByLayer
 62
    7
370
   -1
100
AcDbSpline
210
0
220
0
230
0
 70
    8
 71
    3
 72
    8
 73
    4
 74
    0
 42
1e-07
 43
1e-07
 40
0
 40
0
 40
0
 40
0
 40
1
 40
1
 40
1
 40
1
 10
-125.8676078301864
 20
-24.25931531903638
 30
0
 10
-125.7223642252768
 20
-24.28599871340393
 30
0
 10
-125.5968730699589
 20
-24.35348550030255
 30
0
 10
-125.4911348909819
 20
-24.46177491588042
 30
0
  0
SPLINE
  5
1B7
100
AcDbEntity
  8
logo
  6
ByLayer
 62
    7
370
   -1
100
AcDbSpline
210
0
220
0
230
0
 70
    8
 71
    3
 72
    8
 73
    4
 74
    0
 42
1e-07
 43
1e-07
 40
0
 40
0
 40
0
 40
0
 40
1
 40
1
 40
1
 40
1
 10
-125.4911348909819
 20
-24.46177491588042
 30
0
 10
-125.4005200253528
 20
-24.58566668263975
 30
0
 10
-125.368554289722
 20
-24.72023436847422
 30
0
 10
-125.3952378026408
 20
-24.86547861868438
 30
0
  0
SPLINE
  5
1B8
100
AcDbEntity
  8
logo
  6
ByLayer
 62
    7
370
   -1
100
AcDbSpline
210
0
220
0
230
0
 70
    8
 71
    3
 72
    8
 73
    4
 74
    0
 42
1e-07
 43
1e-07
 40
0
 40
0
 40
0
 40
0
 40
1
 40
1
 40
1
 40
1
 10
-125.3952378026408
 20
-24.86547861868438
 30
0
 10
-125.4262777179464
 20
-25.03443572859986
 30
0
 10
-125.5069501961461
 20
-25.14831211298268
 30
0
 10
-125.637256119643
 20
-25.20710894388271
 30
0
  0
SPLINE
  5
1B9
100
AcDbEntity
  8
logo
  6
ByLayer
 62
    7
370
   -1
100
AcDbSpline
210
0
220
0
230
0
 70
    8
 71
    3
 72
    8
 73
    4
 74
    0
 42
1e-07
 43
1e-07
 40
0
 40
0
 40
0
 40
0
 40
1
 40
1
 40
1
 40
1
 10
-125.637256119643
 20
-25.20710894388271
 30
0
 10
-125.7788734599426
 20
-25.26075913173434
 30
0
 10
-125.9456547023037
 20
-25.29293322579465
 30
0
 10
-126.1376012558789
 20
-25.30363163426175
 30
0
  0
LWPOLYLINE
  5
1BA
100
AcDbEntity
  8
logo
  6
ByLayer
 62
    7
370
   -1
100
AcDbPolyline
 90
    2
 70
    0
 43
0
 10
-126.9457947087896
 20
-24.59898981304554
 10
-126.9555988962713
 20
-24.6523561694183
  0
SPLINE
  5
1BB
100
AcDbEntity
  8
logo
  6
ByLayer
 62
    7
370
   -1
100
AcDbSpline
210
0
220
0
230
0
 70
    8
 71
    3
 72
    8
 73
    4
 74
    0
 42
1e-07
 43
1e-07
 40
0
 40
0
 40
0
 40
0
 40
1
 40
1
 40
1
 40
1
 10
-124.0843189920106
 20
-25.06033859096213
 30
0
 10
-123.6962433562828
 20
-24.81602017294012
 30
0
 10
-123.2591444299363
 20
-24.73851521126522
 30
0
 10
-122.7730220944197
 20
-24.82782306063687
 30
0
  0
SPLINE
  5
1BC
100
AcDbEntity
  8
logo
  6
ByLayer
 62
    7
370
   -1
100
AcDbSpline
210
0
220
0
230
0
 70
    8
 71
    3
 72
    8
 73
    4
 74
    0
 42
1e-07
 43
1e-07
 40
0
 40
0
 40
0
 40
0
 40
1
 40
1
 40
1
 40
1
 10
-122.7730220944197
 20
-24.82782306063687
 30
0
 10
-122.1950108949562
 20
-24.93401225081668
 30
0
 10
-121.7788861720628
 20
-25.19584408686589
 30
0
 10
-121.5246486895914
 20
-25.61331909553384
 30
0
  0
SPLINE
  5
1BD
100
AcDbEntity
  8
logo
  6
ByLayer
 62
    7
370
   -1
100
AcDbSpline
210
0
220
0
230
0
 70
    8
 71
    3
 72
    8
 73
    4
 74
    0
 42
1e-07
 43
1e-07
 40
0
 40
0
 40
0
 40
0
 40
1
 40
1
 40
1
 40
1
 10
-121.5246486895914
 20
-25.61331909553384
 30
0
 10
-121.2754915523018
 20
-26.00841147389577
 30
0
 10
-121.2018292920057
 20
-26.48310818283257
 30
0
 10
-121.3036624354524
 20
-27.03740845849246
 30
0
  0
SPLINE
  5
1BE
100
AcDbEntity
  8
logo
  6
ByLayer
 62
    7
370
   -1
100
AcDbSpline
210
0
220
0
230
0
 70
    8
 71
    3
 72
    8
 73
    4
 74
    0
 42
1e-07
 43
1e-07
 40
0
 40
0
 40
0
 40
0
 40
1
 40
1
 40
1
 40
1
 10
-121.7790635742497
 20
-29.62512178408905
 30
0
 10
-121.8046572456266
 20
-29.76443378624438
 30
0
 10
-121.8748034903695
 20
-29.87104962907475
 30
0
 10
-121.9895024270297
 20
-29.94496995788071
 30
0
  0
SPLINE
  5
1BF
100
AcDbEntity
  8
logo
  6
ByLayer
 62
    7
370
   -1
100
AcDbSpline
210
0
220
0
230
0
 70
    8
 71
    3
 72
    8
 73
    4
 74
    0
 42
1e-07
 43
1e-07
 40
0
 40
0
 40
0
 40
0
 40
1
 40
1
 40
1
 40
1
 10
-121.9895024270297
 20
-29.94496995788071
 30
0
 10
-122.1036568578484
 20
-30.01592642121122
 30
0
 10
-122.2333561390872
 20
-30.03806257376679
 30
0
 10
-122.3785997439968
 20
-30.01137917939924
 30
0
  0
SPLINE
  5
1C0
100
AcDbEntity
  8
logo
  6
ByLayer
 62
    7
370
   -1
100
AcDbSpline
210
0
220
0
230
0
 70
    8
 71
    3
 72
    8
 73
    4
 74
    0
 42
1e-07
 43
1e-07
 40
0
 40
0
 40
0
 40
0
 40
1
 40
1
 40
1
 40
1
 10
-122.3785997439968
 20
-30.01137917939924
 30
0
 10
-122.5149511071795
 20
-29.98632942110785
 30
0
 10
-122.6250771386774
 20
-29.91860153504446
 30
0
 10
-122.7089765478893
 20
-29.80819575831153
 30
0
  0
SPLINE
  5
1C1
100
AcDbEntity
  8
logo
  6
ByLayer
 62
    7
370
   -1
100
AcDbSpline
210
0
220
0
230
0
 70
    8
 71
    3
 72
    8
 73
    4
 74
    0
 42
1e-07
 43
1e-07
 40
0
 40
0
 40
0
 40
0
 40
1
 40
1
 40
1
 40
1
 10
-122.7089765478893
 20
-29.80819575831153
 30
0
 10
-122.7893675857842
 20
-29.6953706219448
 30
0
 10
-122.8173107748849
 20
-29.57226591815922
 30
0
 10
-122.7928062337426
 20
-29.43888229225536
 30
0
  0
LWPOLYLINE
  5
1C2
100
AcDbEntity
  8
logo
  6
ByLayer
 62
    7
370
   -1
100
AcDbPolyline
 90
    2
 70
    0
 43
0
 10
-121.3036624354524
 20
-27.03740845849246
 10
-121.7790635742497
 20
-29.62512178408905
  0
SPLINE
  5
1C3
100
AcDbEntity
  8
logo
  6
ByLayer
 62
    7
370
   -1
100
AcDbSpline
210
0
220
0
230
0
 70
    8
 71
    3
 72
    8
 73
    4
 74
    0
 42
1e-07
 43
1e-07
 40
0
 40
0
 40
0
 40
0
 40
1
 40
1
 40
1
 40
1
 10
-122.3206723670976
 20
-26.86895345011262
 30
0
 10
-122.26730534126
 20
-26.57846494969229
 30
0
 10
-122.3183216686108
 20
-26.32242426024672
 30
0
 10
-122.4737205852982
 20
-26.10083085502659
 30
0
  0
SPLINE
  5
1C4
100
AcDbEntity
  8
logo
  6
ByLayer
 62
    7
370
   -1
100
AcDbSpline
210
0
220
0
230
0
 70
    8
 71
    3
 72
    8
 73
    4
 74
    0
 42
1e-07
 43
1e-07
 40
0
 40
0
 40
0
 40
0
 40
1
 40
1
 40
1
 40
1
 10
-122.4737205852982
 20
-26.10083085502659
 30
0
 10
-122.6256111306686
 20
-25.87681809017264
 30
0
 10
-122.8497645190394
 20
-25.73758368898524
 30
0
 10
-123.14618010511
 20
-25.68312777001563
 30
0
  0
SPLINE
  5
1C5
100
AcDbEntity
  8
logo
  6
ByLayer
 62
    7
370
   -1
100
AcDbSpline
210
0
220
0
230
0
 70
    8
 71
    3
 72
    8
 73
    4
 74
    0
 42
1e-07
 43
1e-07
 40
0
 40
0
 40
0
 40
0
 40
1
 40
1
 40
1
 40
1
 10
-123.14618010511
 20
-25.68312777001563
 30
0
 10
-123.4544530889842
 20
-25.62649347202574
 30
0
 10
-123.7181766037145
 20
-25.67762996703305
 30
0
 10
-123.9373505307495
 20
-25.83653660973701
 30
0
  0
SPLINE
  5
1C6
100
AcDbEntity
  8
logo
  6
ByLayer
 62
    7
370
   -1
100
AcDbSpline
210
0
220
0
230
0
 70
    8
 71
    3
 72
    8
 73
    4
 74
    0
 42
1e-07
 43
1e-07
 40
0
 40
0
 40
0
 40
0
 40
1
 40
1
 40
1
 40
1
 10
-123.9373505307495
 20
-25.83653660973701
 30
0
 10
-124.158944462719
 20
-25.99193476257263
 30
0
 10
-124.2969694474641
 20
-26.21784195467606
 30
0
 10
-124.3514256035362
 20
-26.51425883134786
 30
0
  0
LWPOLYLINE
  5
1C7
100
AcDbEntity
  8
logo
  6
ByLayer
 62
    7
370
   -1
100
AcDbPolyline
 90
    2
 70
    0
 43
0
 10
-122.7928062337426
 20
-29.43888229225536
 10
-122.3206723670976
 20
-26.86895345011262
  0
SPLINE
  5
1C8
100
AcDbEntity
  8
logo
  6
ByLayer
 62
    7
370
   -1
100
AcDbSpline
210
0
220
0
230
0
 70
    8
 71
    3
 72
    8
 73
    4
 74
    0
 42
1e-07
 43
1e-07
 40
0
 40
0
 40
0
 40
0
 40
1
 40
1
 40
1
 40
1
 10
-124.820292198029
 20
-29.06640319003675
 30
0
 10
-124.8480648411823
 20
-29.21757581649838
 30
0
 10
-124.9168808565259
 20
-29.33362840689731
 30
0
 10
-125.0267397173105
 20
-29.41456172508534
 30
0
  0
SPLINE
  5
1C9
100
AcDbEntity
  8
logo
  6
ByLayer
 62
    7
370
   -1
100
AcDbSpline
210
0
220
0
230
0
 70
    8
 71
    3
 72
    8
 73
    4
 74
    0
 42
1e-07
 43
1e-07
 40
0
 40
0
 40
0
 40
0
 40
1
 40
1
 40
1
 40
1
 10
-125.0267397173105
 20
-29.41456172508534
 30
0
 10
-125.136054783561
 20
-29.49253504960127
 30
0
 10
-125.2633348237172
 20
-29.5181802187745
 30
0
 10
-125.4085784286268
 20
-29.49149682440695
 30
0
  0
SPLINE
  5
1CA
100
AcDbEntity
  8
logo
  6
ByLayer
 62
    7
370
   -1
100
AcDbSpline
210
0
220
0
230
0
 70
    8
 71
    3
 72
    8
 73
    4
 74
    0
 42
1e-07
 43
1e-07
 40
0
 40
0
 40
0
 40
0
 40
1
 40
1
 40
1
 40
1
 10
-125.4085784286268
 20
-29.49149682440695
 30
0
 10
-125.5538220335364
 20
-29.4648134300394
 30
0
 10
-125.6690589779471
 20
-29.39155041142926
 30
0
 10
-125.754289261859
 20
-29.27170776857655
 30
0
  0
SPLINE
  5
1CB
100
AcDbEntity
  8
logo
  6
ByLayer
 62
    7
370
   -1
100
AcDbSpline
210
0
220
0
230
0
 70
    8
 71
    3
 72
    8
 73
    4
 74
    0
 42
1e-07
 43
1e-07
 40
0
 40
0
 40
0
 40
0
 40
1
 40
1
 40
1
 40
1
 10
-125.754289261859
 20
-29.27170776857655
 30
0
 10
-125.8341365052197
 20
-29.15592263853773
 30
0
 10
-125.8607183704407
 20
-29.02540794841323
 30
0
 10
-125.8340348575219
 20
-28.88016369820306
 30
0
  0
LWPOLYLINE
  5
1CC
100
AcDbEntity
  8
logo
  6
ByLayer
 62
    7
370
   -1
100
AcDbPolyline
 90
    2
 70
    0
 43
0
 10
-124.3514256035362
 20
-26.51425883134786
 10
-124.820292198029
 20
-29.06640319003675
  0
SPLINE
  5
1CD
100
AcDbEntity
  8
logo
  6
ByLayer
 62
    7
370
   -1
100
AcDbSpline
210
0
220
0
230
0
 70
    8
 71
    3
 72
    8
 73
    4
 74
    0
 42
1e-07
 43
1e-07
 40
0
 40
0
 40
0
 40
0
 40
1
 40
1
 40
1
 40
1
 10
-125.1094971040366
 20
-24.93634479121691
 30
0
 10
-125.0806354492
 20
-24.77924443380437
 30
0
 10
-125.008310943988
 20
-24.66077183847106
 30
0
 10
-124.8925237069519
 20
-24.58092765051756
 30
0
  0
SPLINE
  5
1CE
100
AcDbEntity
  8
logo
  6
ByLayer
 62
    7
370
   -1
100
AcDbSpline
210
0
220
0
230
0
 70
    8
 71
    3
 72
    8
 73
    4
 74
    0
 42
1e-07
 43
1e-07
 40
0
 40
0
 40
0
 40
0
 40
1
 40
1
 40
1
 40
1
 10
-124.8925237069519
 20
-24.58092765051756
 30
0
 10
-124.7748609048162
 20
-24.50755182755323
 30
0
 10
-124.6478531768564
 20
-24.483388913768
 30
0
 10
-124.5115018136737
 20
-24.5084386720594
 30
0
  0
SPLINE
  5
1CF
100
AcDbEntity
  8
logo
  6
ByLayer
 62
    7
370
   -1
100
AcDbSpline
210
0
220
0
230
0
 70
    8
 71
    3
 72
    8
 73
    4
 74
    0
 42
1e-07
 43
1e-07
 40
0
 40
0
 40
0
 40
0
 40
1
 40
1
 40
1
 40
1
 10
-124.5115018136737
 20
-24.5084386720594
 30
0
 10
-124.2032294751001
 20
-24.56507285149805
 30
0
 10
-124.0608349465951
 20
-24.74903931554918
 30
0
 10
-124.0843189920106
 20
-25.06033859096213
 30
0
  0
LWPOLYLINE
  5
1D0
100
AcDbEntity
  8
logo
  6
ByLayer
 62
    7
370
   -1
100
AcDbPolyline
 90
    2
 70
    0
 43
0
 10
-125.8340348575219
 20
-28.88016369820306
 10
-125.1094971040366
 20
-24.93634479121691
  0
SPLINE
  5
1D1
100
AcDbEntity
  8
logo
  6
ByLayer
 62
    7
370
   -1
100
AcDbSpline
210
0
220
0
230
0
 70
    8
 71
    3
 72
    8
 73
    4
 74
    0
 42
1e-07
 43
1e-07
 40
0
 40
0
 40
0
 40
0
 40
1
 40
1
 40
1
 40
1
 10
-116.2231052638505
 20
-26.80331812977942
 30
0
 10
-116.3181443365154
 20
-26.88697873138204
 30
0
 10
-116.4368036832894
 20
-26.91573926527012
 30
0
 10
-116.5790834227235
 20
-26.8896003767442
 30
0
  0
SPLINE
  5
1D2
100
AcDbEntity
  8
logo
  6
ByLayer
 62
    7
370
   -1
100
AcDbSpline
210
0
220
0
230
0
 70
    8
 71
    3
 72
    8
 73
    4
 74
    0
 42
1e-07
 43
1e-07
 40
0
 40
0
 40
0
 40
0
 40
1
 40
1
 40
1
 40
1
 10
-117.5094944784157
 20
-30.42788938570459
 30
0
 10
-117.5339998494167
 20
-30.56127752871238
 30
0
 10
-117.6141274661211
 20
-30.67218811171806
 30
0
 10
-117.7498779738294
 20
-30.7606210161704
 30
0
  0
SPLINE
  5
1D3
100
AcDbEntity
  8
logo
  6
ByLayer
 62
    7
370
   -1
100
AcDbSpline
210
0
220
0
230
0
 70
    8
 71
    3
 72
    8
 73
    4
 74
    0
 42
1e-07
 43
1e-07
 40
0
 40
0
 40
0
 40
0
 40
1
 40
1
 40
1
 40
1
 10
-117.7498779738294
 20
-30.7606210161704
 30
0
 10
-117.8677825204305
 20
-30.81863159676345
 30
0
 10
-117.9993566554615
 20
-30.83429551252647
 30
0
 10
-118.1446002603711
 20
-30.80761211815892
 30
0
  0
SPLINE
  5
1D4
100
AcDbEntity
  8
logo
  6
ByLayer
 62
    7
370
   -1
100
AcDbSpline
210
0
220
0
230
0
 70
    8
 71
    3
 72
    8
 73
    4
 74
    0
 42
1e-07
 43
1e-07
 40
0
 40
0
 40
0
 40
0
 40
1
 40
1
 40
1
 40
1
 10
-118.1446002603711
 20
-30.80761211815892
 30
0
 10
-118.2720593818268
 20
-30.78419599594368
 30
0
 10
-118.3735648384937
 20
-30.7195841198957
 30
0
 10
-118.4491165118204
 20
-30.61377584471438
 30
0
  0
SPLINE
  5
1D5
100
AcDbEntity
  8
logo
  6
ByLayer
 62
    7
370
   -1
100
AcDbSpline
210
0
220
0
230
0
 70
    8
 71
    3
 72
    8
 73
    4
 74
    0
 42
1e-07
 43
1e-07
 40
0
 40
0
 40
0
 40
0
 40
1
 40
1
 40
1
 40
1
 10
-118.4491165118204
 20
-30.61377584471438
 30
0
 10
-118.5341057625743
 20
-30.5093023160363
 30
0
 10
-118.5621698831833
 20
-30.37851531371537
 30
0
 10
-118.5333082283467
 20
-30.22141495630282
 30
0
  0
LWPOLYLINE
  5
1D6
100
AcDbEntity
  8
logo
  6
ByLayer
 62
    7
370
   -1
100
AcDbPolyline
 90
    3
 70
    0
 43
0
 10
-116.5790834227235
 20
-26.8896003767442
 10
-116.8503045390014
 20
-26.83977305380661
 10
-117.5094944784157
 20
-30.42788938570459
  0
SPLINE
  5
1D7
100
AcDbEntity
  8
logo
  6
ByLayer
 62
    7
370
   -1
100
AcDbSpline
210
0
220
0
230
0
 70
    8
 71
    3
 72
    8
 73
    4
 74
    0
 42
1e-07
 43
1e-07
 40
0
 40
0
 40
0
 40
0
 40
1
 40
1
 40
1
 40
1
 10
-118.1263754277448
 20
-26.60533999366273
 30
0
 10
-118.2597622801514
 20
-26.58083485976421
 30
0
 10
-118.3663792950317
 20
-26.51068773261824
 30
0
 10
-118.4462257085337
 20
-26.39489808547549
 30
0
  0
SPLINE
  5
1D8
100
AcDbEntity
  8
logo
  6
ByLayer
 62
    7
370
   -1
100
AcDbSpline
210
0
220
0
230
0
 70
    8
 71
    3
 72
    8
 73
    4
 74
    0
 42
1e-07
 43
1e-07
 40
0
 40
0
 40
0
 40
0
 40
1
 40
1
 40
1
 40
1
 10
-118.4462257085337
 20
-26.39489808547549
 30
0
 10
-118.5360549691564
 20
-26.28340757706075
 30
0
 10
-118.5692610971586
 20
-26.16393217610055
 30
0
 10
-118.5458448563921
 20
-26.03647240934424
 30
0
  0
SPLINE
  5
1D9
100
AcDbEntity
  8
logo
  6
ByLayer
 62
    7
370
   -1
100
AcDbSpline
210
0
220
0
230
0
 70
    8
 71
    3
 72
    8
 73
    4
 74
    0
 42
1e-07
 43
1e-07
 40
0
 40
0
 40
0
 40
0
 40
1
 40
1
 40
1
 40
1
 10
-118.5458448563921
 20
-26.03647240934424
 30
0
 10
-118.5246067575435
 20
-25.92086874979029
 30
0
 10
-118.4624462180127
 20
-25.8327028277637
 30
0
 10
-118.3593630006975
 20
-25.77197335266335
 30
0
  0
SPLINE
  5
1DA
100
AcDbEntity
  8
logo
  6
ByLayer
 62
    7
370
   -1
100
AcDbSpline
210
0
220
0
230
0
 70
    8
 71
    3
 72
    8
 73
    4
 74
    0
 42
1e-07
 43
1e-07
 40
0
 40
0
 40
0
 40
0
 40
1
 40
1
 40
1
 40
1
 10
-118.3593630006975
 20
-25.77197335266335
 30
0
 10
-118.258698958458
 20
-25.70773087059073
 30
0
 10
-118.1268526297818
 20
-25.69058534474026
 30
0
 10
-117.9638238961178
 20
-25.72053612981136
 30
0
  0
LWPOLYLINE
  5
1DB
100
AcDbEntity
  8
logo
  6
ByLayer
 62
    7
370
   -1
100
AcDbPolyline
 90
    3
 70
    0
 43
0
 10
-118.5333082283467
 20
-30.22141495630282
 10
-117.8773855610847
 20
-26.6510831078587
 10
-118.1263754277448
 20
-26.60533999366273
  0
SPLINE
  5
1DC
100
AcDbEntity
  8
logo
  6
ByLayer
 62
    7
370
   -1
100
AcDbSpline
210
0
220
0
230
0
 70
    8
 71
    3
 72
    8
 73
    4
 74
    0
 42
1e-07
 43
1e-07
 40
0
 40
0
 40
0
 40
0
 40
1
 40
1
 40
1
 40
1
 10
-117.5408470452977
 20
-24.81922968806748
 30
0
 10
-117.5141635323789
 20
-24.6739854378573
 30
0
 10
-117.4490079143411
 20
-24.56951664246432
 30
0
 10
-117.3453808364848
 20
-24.50582318333727
 30
0
  0
SPLINE
  5
1DD
100
AcDbEntity
  8
logo
  6
ByLayer
 62
    7
370
   -1
100
AcDbSpline
210
0
220
0
230
0
 70
    8
 71
    3
 72
    8
 73
    4
 74
    0
 42
1e-07
 43
1e-07
 40
0
 40
0
 40
0
 40
0
 40
1
 40
1
 40
1
 40
1
 10
-117.3453808364848
 20
-24.50582318333727
 30
0
 10
-117.2263871596492
 20
-24.44188422649275
 30
0
 10
-117.097232384252
 20
-24.42271193941262
 30
0
 10
-116.9579171555939
 20
-24.44830620354566
 30
0
  0
SPLINE
  5
1DE
100
AcDbEntity
  8
logo
  6
ByLayer
 62
    7
370
   -1
100
AcDbSpline
210
0
220
0
230
0
 70
    8
 71
    3
 72
    8
 73
    4
 74
    0
 42
1e-07
 43
1e-07
 40
0
 40
0
 40
0
 40
0
 40
1
 40
1
 40
1
 40
1
 10
-116.9579171555939
 20
-24.44830620354566
 30
0
 10
-116.6051823177846
 20
-24.51310880046756
 30
0
 10
-116.4582208554591
 20
-24.70557502639269
 30
0
 10
-116.5170332953667
 20
-25.02570411746924
 30
0
  0
LWPOLYLINE
  5
1DF
100
AcDbEntity
  8
logo
  6
ByLayer
 62
    7
370
   -1
100
AcDbPolyline
 90
    3
 70
    0
 43
0
 10
-117.9638238961178
 20
-25.72053612981136
 10
-117.7148340294577
 20
-25.76627924400732
 10
-117.5408470452977
 20
-24.81922968806748
  0
SPLINE
  5
1E0
100
AcDbEntity
  8
logo
  6
ByLayer
 62
    7
370
   -1
100
AcDbSpline
210
0
220
0
230
0
 70
    8
 71
    3
 72
    8
 73
    4
 74
    0
 42
1e-07
 43
1e-07
 40
0
 40
0
 40
0
 40
0
 40
1
 40
1
 40
1
 40
1
 10
-116.4521021486054
 20
-25.99826173148573
 30
0
 10
-116.3068585436958
 20
-26.02494512585328
 30
0
 10
-116.1932241408808
 20
-26.09025365228286
 30
0
 10
-116.1111988216092
 20
-26.19418666547391
 30
0
  0
SPLINE
  5
1E1
100
AcDbEntity
  8
logo
  6
ByLayer
 62
    7
370
   -1
100
AcDbSpline
210
0
220
0
230
0
 70
    8
 71
    3
 72
    8
 73
    4
 74
    0
 42
1e-07
 43
1e-07
 40
0
 40
0
 40
0
 40
0
 40
1
 40
1
 40
1
 40
1
 10
-116.1111988216092
 20
-26.19418666547391
 30
0
 10
-116.046958565085
 20
-26.2948482976068
 30
0
 10
-116.0265461752803
 20
-26.40890873367675
 30
0
 10
-116.0499624160468
 20
-26.53636850043307
 30
0
  0
SPLINE
  5
1E2
100
AcDbEntity
  8
logo
  6
ByLayer
 62
    7
370
   -1
100
AcDbSpline
210
0
220
0
230
0
 70
    8
 71
    3
 72
    8
 73
    4
 74
    0
 42
1e-07
 43
1e-07
 40
0
 40
0
 40
0
 40
0
 40
1
 40
1
 40
1
 40
1
 10
-116.0499624160468
 20
-26.53636850043307
 30
0
 10
-116.0695668788194
 20
-26.64307991826008
 30
0
 10
-116.1272812974866
 20
-26.73206265832474
 30
0
 10
-116.2231052638505
 20
-26.80331812977942
 30
0
  0
LWPOLYLINE
  5
1E3
100
AcDbEntity
  8
logo
  6
ByLayer
 62
    7
370
   -1
100
AcDbPolyline
 90
    3
 70
    0
 43
0
 10
-116.5170332953667
 20
-25.02570411746924
 10
-116.6877530073745
 20
-25.95496918995524
 10
-116.4521021486054
 20
-25.99826173148573
  0
SPLINE
  5
1E4
100
AcDbEntity
  8
logo
  6
ByLayer
 62
    7
370
   -1
100
AcDbSpline
210
0
220
0
230
0
 70
    8
 71
    3
 72
    8
 73
    4
 74
    0
 42
1e-07
 43
1e-07
 40
0
 40
0
 40
0
 40
0
 40
1
 40
1
 40
1
 40
1
 10
-112.4542682023008
 20
-30.55684665996806
 30
0
 10
-112.7064199172532
 20
-30.91193616071382
 30
0
 10
-113.0257749243464
 20
-31.16581500638114
 30
0
 10
-113.4123346327329
 20
-31.31848360516808
 30
0
  0
SPLINE
  5
1E5
100
AcDbEntity
  8
logo
  6
ByLayer
 62
    7
370
   -1
100
AcDbSpline
210
0
220
0
230
0
 70
    8
 71
    3
 72
    8
 73
    4
 74
    0
 42
1e-07
 43
1e-07
 40
0
 40
0
 40
0
 40
0
 40
1
 40
1
 40
1
 40
1
 10
-113.4123346327329
 20
-31.31848360516808
 30
0
 10
-113.8075455496884
 20
-31.48488768205349
 30
0
 10
-114.2230171201067
 20
-31.52806483304392
 30
0
 10
-114.6587485801361
 20
-31.44801453139003
 30
0
  0
SPLINE
  5
1E6
100
AcDbEntity
  8
logo
  6
ByLayer
 62
    7
370
   -1
100
AcDbSpline
210
0
220
0
230
0
 70
    8
 71
    3
 72
    8
 73
    4
 74
    0
 42
1e-07
 43
1e-07
 40
0
 40
0
 40
0
 40
0
 40
1
 40
1
 40
1
 40
1
 10
-114.6587485801361
 20
-31.44801453139003
 30
0
 10
-115.3405053960495
 20
-31.32276573993305
 30
0
 10
-115.8494535096627
 20
-30.965741106431
 30
0
 10
-116.1855916303747
 20
-30.37694086798637
 30
0
  0
SPLINE
  5
1E7
100
AcDbEntity
  8
logo
  6
ByLayer
 62
    7
370
   -1
100
AcDbSpline
210
0
220
0
230
0
 70
    8
 71
    3
 72
    8
 73
    4
 74
    0
 42
1e-07
 43
1e-07
 40
0
 40
0
 40
0
 40
0
 40
1
 40
1
 40
1
 40
1
 10
-116.1855916303747
 20
-30.37694086798637
 30
0
 10
-116.4943298604253
 20
-29.8391448899395
 30
0
 10
-116.5866188484613
 20
-29.2323310678337
 30
0
 10
-116.4624585944826
 20
-28.55649940166897
 30
0
  0
SPLINE
  5
1E8
100
AcDbEntity
  8
logo
  6
ByLayer
 62
    7
370
   -1
100
AcDbSpline
210
0
220
0
230
0
 70
    8
 71
    3
 72
    8
 73
    4
 74
    0
 42
1e-07
 43
1e-07
 40
0
 40
0
 40
0
 40
0
 40
1
 40
1
 40
1
 40
1
 10
-116.4624585944826
 20
-28.55649940166897
 30
0
 10
-116.3366654157353
 20
-27.87177936558067
 30
0
 10
-116.0371402918354
 20
-27.33388368072129
 30
0
 10
-115.5638837495324
 20
-26.94281158323902
 30
0
  0
SPLINE
  5
1E9
100
AcDbEntity
  8
logo
  6
ByLayer
 62
    7
370
   -1
100
AcDbSpline
210
0
220
0
230
0
 70
    8
 71
    3
 72
    8
 73
    4
 74
    0
 42
1e-07
 43
1e-07
 40
0
 40
0
 40
0
 40
0
 40
1
 40
1
 40
1
 40
1
 10
-115.5638837495324
 20
-26.94281158323902
 30
0
 10
-115.0463449087987
 20
-26.51084907450253
 30
0
 10
-114.4422505776858
 20
-26.35830877052619
 30
0
 10
-113.7516015200455
 20
-26.48519119805932
 30
0
  0
SPLINE
  5
1EA
100
AcDbEntity
  8
logo
  6
ByLayer
 62
    7
370
   -1
100
AcDbSpline
210
0
220
0
230
0
 70
    8
 71
    3
 72
    8
 73
    4
 74
    0
 42
1e-07
 43
1e-07
 40
0
 40
0
 40
0
 40
0
 40
1
 40
1
 40
1
 40
1
 10
-113.7516015200455
 20
-26.48519119805932
 30
0
 10
-113.0579879516292
 20
-26.61261824998532
 30
0
 10
-112.5475578722748
 20
-26.96991314123089
 30
0
 10
-112.220311163431
 20
-27.55707522649545
 30
0
  0
SPLINE
  5
1EB
100
AcDbEntity
  8
logo
  6
ByLayer
 62
    7
370
   -1
100
AcDbSpline
210
0
220
0
230
0
 70
    8
 71
    3
 72
    8
 73
    4
 74
    0
 42
1e-07
 43
1e-07
 40
0
 40
0
 40
0
 40
0
 40
1
 40
1
 40
1
 40
1
 10
-112.220311163431
 20
-27.55707522649545
 30
0
 10
-111.9234303971908
 20
-28.09269681587665
 30
0
 10
-111.8376144097991
 20
-28.70138601852395
 30
0
 10
-111.9628629641536
 20
-29.38314154383623
 30
0
  0
SPLINE
  5
1EC
100
AcDbEntity
  8
logo
  6
ByLayer
 62
    7
370
   -1
100
AcDbSpline
210
0
220
0
230
0
 70
    8
 71
    3
 72
    8
 73
    4
 74
    0
 42
1e-07
 43
1e-07
 40
0
 40
0
 40
0
 40
0
 40
1
 40
1
 40
1
 40
1
 10
-111.9628629641536
 20
-29.38314154383623
 30
0
 10
-112.0423689970684
 20
-29.81591042899127
 30
0
 10
-112.2061709582176
 20
-30.2071454281848
 30
0
 10
-112.4542682023008
 20
-30.55684665996806
 30
0
  0
SPLINE
  5
1ED
100
AcDbEntity
  8
logo
  6
ByLayer
 62
    7
370
   -1
100
AcDbSpline
210
0
220
0
230
0
 70
    8
 71
    3
 72
    8
 73
    4
 74
    0
 42
1e-07
 43
1e-07
 40
0
 40
0
 40
0
 40
0
 40
1
 40
1
 40
1
 40
1
 10
-112.9847387802155
 20
-28.34049793315232
 30
0
 10
-113.0845308669361
 20
-27.78286568864272
 30
0
 10
-113.3923090779589
 20
-27.45667313876609
 30
0
 10
-113.9080726494323
 20
-27.36191975677309
 30
0
  0
SPLINE
  5
1EE
100
AcDbEntity
  8
logo
  6
ByLayer
 62
    7
370
   -1
100
AcDbSpline
210
0
220
0
230
0
 70
    8
 71
    3
 72
    8
 73
    4
 74
    0
 42
1e-07
 43
1e-07
 40
0
 40
0
 40
0
 40
0
 40
1
 40
1
 40
1
 40
1
 10
-113.9080726494323
 20
-27.36191975677309
 30
0
 10
-114.4179084899548
 20
-27.26825538646337
 30
0
 10
-114.8234038298948
 20
-27.4572812569179
 30
0
 10
-115.1245591960018
 20
-27.92899660428489
 30
0
  0
SPLINE
  5
1EF
100
AcDbEntity
  8
logo
  6
ByLayer
 62
    7
370
   -1
100
AcDbSpline
210
0
220
0
230
0
 70
    8
 71
    3
 72
    8
 73
    4
 74
    0
 42
1e-07
 43
1e-07
 40
0
 40
0
 40
0
 40
0
 40
1
 40
1
 40
1
 40
1
 10
-115.1245591960018
 20
-27.92899660428489
 30
0
 10
-115.278404566137
 20
-28.1826410199742
 30
0
 10
-115.3820107311199
 20
-28.45470548285171
 30
0
 10
-115.4353769270988
 20
-28.74518946616812
 30
0
  0
SPLINE
  5
1F0
100
AcDbEntity
  8
logo
  6
ByLayer
 62
    7
370
   -1
100
AcDbSpline
210
0
220
0
230
0
 70
    8
 71
    3
 72
    8
 73
    4
 74
    0
 42
1e-07
 43
1e-07
 40
0
 40
0
 40
0
 40
0
 40
1
 40
1
 40
1
 40
1
 10
-115.4353769270988
 20
-28.74518946616812
 30
0
 10
-115.5099820517851
 20
-29.15128162614239
 30
0
 10
-115.4718865365775
 20
-29.54437032915222
 30
0
 10
-115.3210912638791
 20
-29.92445674724751
 30
0
  0
SPLINE
  5
1F1
100
AcDbEntity
  8
logo
  6
ByLayer
 62
    7
370
   -1
100
AcDbSpline
210
0
220
0
230
0
 70
    8
 71
    3
 72
    8
 73
    4
 74
    0
 42
1e-07
 43
1e-07
 40
0
 40
0
 40
0
 40
0
 40
1
 40
1
 40
1
 40
1
 10
-115.3210912638791
 20
-29.92445674724751
 30
0
 10
-115.1848138477829
 20
-30.2834912911854
 30
0
 10
-114.9165944791989
 20
-30.49976600062746
 30
0
 10
-114.5164326313778
 20
-30.57328163942549
 30
0
  0
SPLINE
  5
1F2
100
AcDbEntity
  8
logo
  6
ByLayer
 62
    7
370
   -1
100
AcDbSpline
210
0
220
0
230
0
 70
    8
 71
    3
 72
    8
 73
    4
 74
    0
 42
1e-07
 43
1e-07
 40
0
 40
0
 40
0
 40
0
 40
1
 40
1
 40
1
 40
1
 10
-114.5164326313778
 20
-30.57328163942549
 30
0
 10
-114.0006690599044
 20
-30.66803502141849
 30
0
 10
-113.588155686729
 20
-30.47417066879881
 30
0
 10
-113.2788936839015
 20
-29.99168769916338
 30
0
  0
SPLINE
  5
1F3
100
AcDbEntity
  8
logo
  6
ByLayer
 62
    7
370
   -1
100
AcDbSpline
210
0
220
0
230
0
 70
    8
 71
    3
 72
    8
 73
    4
 74
    0
 42
1e-07
 43
1e-07
 40
0
 40
0
 40
0
 40
0
 40
1
 40
1
 40
1
 40
1
 10
-113.2788936839015
 20
-29.99168769916338
 30
0
 10
-113.1382976031806
 20
-29.760122388552
 30
0
 10
-113.0404991725878
 20
-29.4946490395224
 30
0
 10
-112.985498510674
 20
-29.19526829737515
 30
0
  0
SPLINE
  5
1F4
100
AcDbEntity
  8
logo
  6
ByLayer
 62
    7
370
   -1
100
AcDbSpline
210
0
220
0
230
0
 70
    8
 71
    3
 72
    8
 73
    4
 74
    0
 42
1e-07
 43
1e-07
 40
0
 40
0
 40
0
 40
0
 40
1
 40
1
 40
1
 40
1
 10
-112.985498510674
 20
-29.19526829737515
 30
0
 10
-112.9343104566129
 20
-28.91664042126112
 30
0
 10
-112.9340574282269
 20
-28.6317169270031
 30
0
 10
-112.9847387802155
 20
-28.34049793315232
 30
0
  0
SPLINE
  5
1F5
100
AcDbEntity
  8
logo
  6
ByLayer
 62
    7
370
   -1
100
AcDbSpline
210
0
220
0
230
0
 70
    8
 71
    3
 72
    8
 73
    4
 74
    0
 42
1e-07
 43
1e-07
 40
0
 40
0
 40
0
 40
0
 40
1
 40
1
 40
1
 40
1
 10
-108.5095778658105
 20
-32.12726875185238
 30
0
 10
-108.6103712563593
 20
-32.40904432894781
 30
0
 10
-108.8104586453575
 20
-32.52243172726305
 30
0
 10
-109.1098387422042
 20
-32.46743118390056
 30
0
  0
SPLINE
  5
1F6
100
AcDbEntity
  8
logo
  6
ByLayer
 62
    7
370
   -1
100
AcDbSpline
210
0
220
0
230
0
 70
    8
 71
    3
 72
    8
 73
    4
 74
    0
 42
1e-07
 43
1e-07
 40
0
 40
0
 40
0
 40
0
 40
1
 40
1
 40
1
 40
1
 10
-109.1098387422042
 20
-32.46743118390056
 30
0
 10
-109.2491546161629
 20
-32.44183680121628
 30
0
 10
-109.3590076901638
 20
-32.37262677831612
 30
0
 10
-109.4393987280587
 20
-32.25980164194939
 30
0
  0
SPLINE
  5
1F7
100
AcDbEntity
  8
logo
  6
ByLayer
 62
    7
370
   -1
100
AcDbSpline
210
0
220
0
230
0
 70
    8
 71
    3
 72
    8
 73
    4
 74
    0
 42
1e-07
 43
1e-07
 40
0
 40
0
 40
0
 40
0
 40
1
 40
1
 40
1
 40
1
 10
-109.4393987280587
 20
-32.25980164194939
 30
0
 10
-109.5127722594677
 20
-32.1421372595657
 30
0
 10
-109.5369341197542
 20
-32.01513105930953
 30
0
 10
-109.5118850727703
 20
-31.87878356793022
 30
0
  0
SPLINE
  5
1F8
100
AcDbEntity
  8
logo
  6
ByLayer
 62
    7
370
   -1
100
AcDbSpline
210
0
220
0
230
0
 70
    8
 71
    3
 72
    8
 73
    4
 74
    0
 42
1e-07
 43
1e-07
 40
0
 40
0
 40
0
 40
0
 40
1
 40
1
 40
1
 40
1
 10
-108.3944471733582
 20
-25.79632244856836
 30
0
 10
-108.3683081662811
 20
-25.65404206383365
 30
0
 10
-108.3030011675551
 20
-25.5404087145173
 30
0
 10
-108.1985261771803
 20
-25.4554224006193
 30
0
  0
SPLINE
  5
1F9
100
AcDbEntity
  8
logo
  6
ByLayer
 62
    7
370
   -1
100
AcDbSpline
210
0
220
0
230
0
 70
    8
 71
    3
 72
    8
 73
    4
 74
    0
 42
1e-07
 43
1e-07
 40
0
 40
0
 40
0
 40
0
 40
1
 40
1
 40
1
 40
1
 10
-108.1985261771803
 20
-25.4554224006193
 30
0
 10
-108.088666486537
 20
-25.37448456532736
 30
0
 10
-107.9581503872601
 20
-25.34790229190832
 30
0
 10
-107.8069784060991
 20
-25.37567481651038
 30
0
  0
SPLINE
  5
1FA
100
AcDbEntity
  8
logo
  6
ByLayer
 62
    7
370
   -1
100
AcDbSpline
210
0
220
0
230
0
 70
    8
 71
    3
 72
    8
 73
    4
 74
    0
 42
1e-07
 43
1e-07
 40
0
 40
0
 40
0
 40
0
 40
1
 40
1
 40
1
 40
1
 10
-107.8069784060991
 20
-25.37567481651038
 30
0
 10
-107.6617348011895
 20
-25.40235821087793
 30
0
 10
-107.5451358875984
 20
-25.46821136170039
 30
0
 10
-107.4571828373759
 20
-25.57323338657471
 30
0
  0
SPLINE
  5
1FB
100
AcDbEntity
  8
logo
  6
ByLayer
 62
    7
370
   -1
100
AcDbSpline
210
0
220
0
230
0
 70
    8
 71
    3
 72
    8
 73
    4
 74
    0
 42
1e-07
 43
1e-07
 40
0
 40
0
 40
0
 40
0
 40
1
 40
1
 40
1
 40
1
 10
-107.4571828373759
 20
-25.57323338657471
 30
0
 10
-107.3757019579391
 20
-25.68012627488661
 30
0
 10
-107.3496645985597
 20
-25.81360483048656
 30
0
 10
-107.3790708777892
 20
-25.97366969867512
 30
0
  0
LWPOLYLINE
  5
1FC
100
AcDbEntity
  8
logo
  6
ByLayer
 62
    7
370
   -1
100
AcDbPolyline
 90
    2
 70
    0
 43
0
 10
-109.5118850727703
 20
-31.87878356793022
 10
-108.3944471733582
 20
-25.79632244856836
  0
SPLINE
  5
1FD
100
AcDbEntity
  8
logo
  6
ByLayer
 62
    7
370
   -1
100
AcDbSpline
210
0
220
0
230
0
 70
    8
 71
    3
 72
    8
 73
    4
 74
    0
 42
1e-07
 43
1e-07
 40
0
 40
0
 40
0
 40
0
 40
1
 40
1
 40
1
 40
1
 10
-107.751550572764
 20
-28.00115888946428
 30
0
 10
-107.3481091679157
 20
-27.75659949082872
 30
0
 10
-106.9166663056242
 20
-27.6765231435313
 30
0
 10
-106.4572219858895
 20
-27.76092984757202
 30
0
  0
SPLINE
  5
1FE
100
AcDbEntity
  8
logo
  6
ByLayer
 62
    7
370
   -1
100
AcDbSpline
210
0
220
0
230
0
 70
    8
 71
    3
 72
    8
 73
    4
 74
    0
 42
1e-07
 43
1e-07
 40
0
 40
0
 40
0
 40
0
 40
1
 40
1
 40
1
 40
1
 10
-106.4572219858895
 20
-27.76092984757202
 30
0
 10
-105.7754651699761
 20
-27.88617863902899
 30
0
 10
-105.2835161059058
 20
-28.25233455896982
 30
0
 10
-104.9813747936788
 20
-28.85939760739451
 30
0
  0
SPLINE
  5
1FF
100
AcDbEntity
  8
logo
  6
ByLayer
 62
    7
370
   -1
100
AcDbSpline
210
0
220
0
230
0
 70
    8
 71
    3
 72
    8
 73
    4
 74
    0
 42
1e-07
 43
1e-07
 40
0
 40
0
 40
0
 40
0
 40
1
 40
1
 40
1
 40
1
 10
-104.9813747936788
 20
-28.85939760739451
 30
0
 10
-104.7039127922691
 20
-29.40064404779909
 30
0
 10
-104.6275335524461
 20
-30.01066347984569
 30
0
 10
-104.7522376009589
 20
-30.68945513968252
 30
0
  0
SPLINE
  5
200
100
AcDbEntity
  8
logo
  6
ByLayer
 62
    7
370
   -1
100
AcDbSpline
210
0
220
0
230
0
 70
    8
 71
    3
 72
    8
 73
    4
 74
    0
 42
1e-07
 43
1e-07
 40
0
 40
0
 40
0
 40
0
 40
1
 40
1
 40
1
 40
1
 10
-104.7522376009589
 20
-30.68945513968252
 30
0
 10
-104.8807542573244
 20
-31.38899966555256
 30
0
 10
-105.1813682218119
 20
-31.93282578111634
 30
0
 10
-105.6540802582733
 20
-32.32093401312316
 30
0
  0
SPLINE
  5
201
100
AcDbEntity
  8
logo
  6
ByLayer
 62
    7
370
   -1
100
AcDbSpline
210
0
220
0
230
0
 70
    8
 71
    3
 72
    8
 73
    4
 74
    0
 42
1e-07
 43
1e-07
 40
0
 40
0
 40
0
 40
0
 40
1
 40
1
 40
1
 40
1
 10
-105.6540802582733
 20
-32.32093401312316
 30
0
 10
-106.1616378455967
 20
-32.74860242698489
 30
0
 10
-106.7666698077048
 20
-32.89790590798878
 30
0
 10
-107.4691756178481
 20
-32.76884521998661
 30
0
  0
SPLINE
  5
202
100
AcDbEntity
  8
logo
  6
ByLayer
 62
    7
370
   -1
100
AcDbSpline
210
0
220
0
230
0
 70
    8
 71
    3
 72
    8
 73
    4
 74
    0
 42
1e-07
 43
1e-07
 40
0
 40
0
 40
0
 40
0
 40
1
 40
1
 40
1
 40
1
 10
-107.4691756178481
 20
-32.76884521998661
 30
0
 10
-107.9523340878892
 20
-32.68008187645659
 30
0
 10
-108.2991350523102
 20
-32.4662230142281
 30
0
 10
-108.5095778658105
 20
-32.12726875185238
 30
0
  0
LWPOLYLINE
  5
203
100
AcDbEntity
  8
logo
  6
ByLayer
 62
    7
370
   -1
100
AcDbPolyline
 90
    2
 70
    0
 43
0
 10
-107.3790708777892
 20
-25.97366969867512
 10
-107.751550572764
 20
-28.00115888946428
  0
SPLINE
  5
204
100
AcDbEntity
  8
logo
  6
ByLayer
 62
    7
370
   -1
100
AcDbSpline
210
0
220
0
230
0
 70
    8
 71
    3
 72
    8
 73
    4
 74
    0
 42
1e-07
 43
1e-07
 40
0
 40
0
 40
0
 40
0
 40
1
 40
1
 40
1
 40
1
 10
-108.2027949756175
 20
-29.98202457629759
 30
0
 10
-108.2872019167607
 20
-30.44147018663341
 30
0
 10
-108.2620522842905
 20
-30.83830900542568
 30
0
 10
-108.1273468420589
 20
-31.17254155942373
 30
0
  0
SPLINE
  5
205
100
AcDbEntity
  8
logo
  6
ByLayer
 62
    7
370
   -1
100
AcDbSpline
210
0
220
0
230
0
 70
    8
 71
    3
 72
    8
 73
    4
 74
    0
 42
1e-07
 43
1e-07
 40
0
 40
0
 40
0
 40
0
 40
1
 40
1
 40
1
 40
1
 10
-108.1273468420589
 20
-31.17254155942373
 30
0
 10
-107.9620337127585
 20
-31.57367985167642
 30
0
 10
-107.6585474933425
 20
-31.81481833182107
 30
0
 10
-107.2168876570616
 20
-31.89595776370947
 30
0
  0
SPLINE
  5
206
100
AcDbEntity
  8
logo
  6
ByLayer
 62
    7
370
   -1
100
AcDbSpline
210
0
220
0
230
0
 70
    8
 71
    3
 72
    8
 73
    4
 74
    0
 42
1e-07
 43
1e-07
 40
0
 40
0
 40
0
 40
0
 40
1
 40
1
 40
1
 40
1
 10
-107.2168876570616
 20
-31.89595776370947
 30
0
 10
-106.822654185492
 20
-31.96838427227298
 30
0
 10
-106.4877569579958
 20
-31.83839778985059
 30
0
 10
-106.2121959745731
 20
-31.50599831644229
 30
0
  0
SPLINE
  5
207
100
AcDbEntity
  8
logo
  6
ByLayer
 62
    7
370
   -1
100
AcDbSpline
210
0
220
0
230
0
 70
    8
 71
    3
 72
    8
 73
    4
 74
    0
 42
1e-07
 43
1e-07
 40
0
 40
0
 40
0
 40
0
 40
1
 40
1
 40
1
 40
1
 10
-106.2121959745731
 20
-31.50599831644229
 30
0
 10
-105.9882382027439
 20
-31.23765748960066
 30
0
 10
-105.837867360877
 20
-30.89451300186713
 30
0
 10
-105.7610840942729
 20
-30.47656473469048
 30
0
  0
SPLINE
  5
208
100
AcDbEntity
  8
logo
  6
ByLayer
 62
    7
370
   -1
100
AcDbSpline
210
0
220
0
230
0
 70
    8
 71
    3
 72
    8
 73
    4
 74
    0
 42
1e-07
 43
1e-07
 40
0
 40
0
 40
0
 40
0
 40
1
 40
1
 40
1
 40
1
 10
-105.7610840942729
 20
-30.47656473469048
 30
0
 10
-105.6973707461368
 20
-30.12975891843315
 30
0
 10
-105.7047378798697
 20
-29.81125954281443
 30
0
 10
-105.7831863778747
 20
-29.52106777988417
 30
0
  0
SPLINE
  5
209
100
AcDbEntity
  8
logo
  6
ByLayer
 62
    7
370
   -1
100
AcDbSpline
210
0
220
0
230
0
 70
    8
 71
    3
 72
    8
 73
    4
 74
    0
 42
1e-07
 43
1e-07
 40
0
 40
0
 40
0
 40
0
 40
1
 40
1
 40
1
 40
1
 10
-105.7831863778747
 20
-29.52106777988417
 30
0
 10
-105.8696175428766
 20
-29.17425529444007
 30
0
 10
-106.045038999533
 20
-28.91987407551665
 30
0
 10
-106.3094503396458
 20
-28.75792553226628
 30
0
  0
SPLINE
  5
20A
100
AcDbEntity
  8
logo
  6
ByLayer
 62
    7
370
   -1
100
AcDbSpline
210
0
220
0
230
0
 70
    8
 71
    3
 72
    8
 73
    4
 74
    0
 42
1e-07
 43
1e-07
 40
0
 40
0
 40
0
 40
0
 40
1
 40
1
 40
1
 40
1
 10
-106.3094503396458
 20
-28.75792553226628
 30
0
 10
-106.4001861586732
 20
-28.70140932282926
 30
0
 10
-106.5092832469888
 20
-28.66144289362846
 30
0
 10
-106.6367423684446
 20
-28.63802677141323
 30
0
  0
SPLINE
  5
20B
100
AcDbEntity
  8
logo
  6
ByLayer
 62
    7
370
   -1
100
AcDbSpline
210
0
220
0
230
0
 70
    8
 71
    3
 72
    8
 73
    4
 74
    0
 42
1e-07
 43
1e-07
 40
0
 40
0
 40
0
 40
0
 40
1
 40
1
 40
1
 40
1
 10
-106.6367423684446
 20
-28.63802677141323
 30
0
 10
-107.0487609687686
 20
-28.56233287214616
 30
0
 10
-107.4041037838178
 20
-28.67017846872789
 30
0
 10
-107.7027721041933
 20
-28.96156332405589
 30
0
  0
SPLINE
  5
20C
100
AcDbEntity
  8
logo
  6
ByLayer
 62
    7
370
   -1
100
AcDbSpline
210
0
220
0
230
0
 70
    8
 71
    3
 72
    8
 73
    4
 74
    0
 42
1e-07
 43
1e-07
 40
0
 40
0
 40
0
 40
0
 40
1
 40
1
 40
1
 40
1
 10
-107.7027721041933
 20
-28.96156332405589
 30
0
 10
-107.9625412326961
 20
-29.20800424567041
 30
0
 10
-108.1340536671971
 20
-29.54113691226264
 30
0
 10
-108.2173098158942
 20
-29.96095991468022
 30
0
  0
LWPOLYLINE
  5
20D
100
AcDbEntity
  8
logo
  6
ByLayer
 62
    7
370
   -1
100
AcDbPolyline
 90
    2
 70
    0
 43
0
 10
-108.2173074448694
 20
-29.96094700866901
 10
-108.2027949756175
 20
-29.98202457629759
  0
SPLINE
  5
20E
100
AcDbEntity
  8
logo
  6
ByLayer
 62
    7
370
   -1
100
AcDbSpline
210
0
220
0
230
0
 70
    8
 71
    3
 72
    8
 73
    4
 74
    0
 42
1e-07
 43
1e-07
 40
0
 40
0
 40
0
 40
0
 40
1
 40
1
 40
1
 40
1
 10
-100.5469759728073
 20
-33.04315722015203
 30
0
 10
-100.9823107026167
 20
-33.62811197901511
 30
0
 10
-101.6579407771686
 20
-33.83645484805114
 30
0
 10
-102.5738668417636
 20
-33.66818570870888
 30
0
  0
SPLINE
  5
20F
100
AcDbEntity
  8
logo
  6
ByLayer
 62
    7
370
   -1
100
AcDbSpline
210
0
220
0
230
0
 70
    8
 71
    3
 72
    8
 73
    4
 74
    0
 42
1e-07
 43
1e-07
 40
0
 40
0
 40
0
 40
0
 40
1
 40
1
 40
1
 40
1
 10
-102.5738668417636
 20
-33.66818570870888
 30
0
 10
-103.6320720004923
 20
-33.47377779939193
 30
0
 10
-104.1919464333329
 20
-32.88524420864064
 30
0
 10
-104.2534893764336
 20
-31.90258440970566
 30
0
  0
SPLINE
  5
210
100
AcDbEntity
  8
logo
  6
ByLayer
 62
    7
370
   -1
100
AcDbSpline
210
0
220
0
230
0
 70
    8
 71
    3
 72
    8
 73
    4
 74
    0
 42
1e-07
 43
1e-07
 40
0
 40
0
 40
0
 40
0
 40
1
 40
1
 40
1
 40
1
 10
-104.2534893764336
 20
-31.90258440970566
 30
0
 10
-104.2642495656635
 20
-31.74433273309776
 30
0
 10
-104.2527487013961
 20
-31.57331829422154
 30
0
 10
-104.2189861383311
 20
-31.38954121162822
 30
0
  0
SPLINE
  5
211
100
AcDbEntity
  8
logo
  6
ByLayer
 62
    7
370
   -1
100
AcDbSpline
210
0
220
0
230
0
 70
    8
 71
    3
 72
    8
 73
    4
 74
    0
 42
1e-07
 43
1e-07
 40
0
 40
0
 40
0
 40
0
 40
1
 40
1
 40
1
 40
1
 10
-103.7509363618765
 20
-28.84184297380279
 30
0
 10
-103.7242528489577
 20
-28.69659872359263
 30
0
 10
-103.6565258452973
 20
-28.58647386414461
 30
0
 10
-103.5477561147472
 20
-28.51146892220806
 30
0
  0
SPLINE
  5
212
100
AcDbEntity
  8
logo
  6
ByLayer
 62
    7
370
   -1
100
AcDbSpline
210
0
220
0
230
0
 70
    8
 71
    3
 72
    8
 73
    4
 74
    0
 42
1e-07
 43
1e-07
 40
0
 40
0
 40
0
 40
0
 40
1
 40
1
 40
1
 40
1
 10
-103.5477561147472
 20
-28.51146892220806
 30
0
 10
-103.4319680478524
 20
-28.43162021715062
 30
0
 10
-103.3014519485755
 20
-28.40503794373159
 30
0
 10
-103.1562083436659
 20
-28.43172133809913
 30
0
  0
SPLINE
  5
213
100
AcDbEntity
  8
logo
  6
ByLayer
 62
    7
370
   -1
100
AcDbSpline
210
0
220
0
230
0
 70
    8
 71
    3
 72
    8
 73
    4
 74
    0
 42
1e-07
 43
1e-07
 40
0
 40
0
 40
0
 40
0
 40
1
 40
1
 40
1
 40
1
 10
-103.1562083436659
 20
-28.43172133809913
 30
0
 10
-103.0109647387564
 20
-28.45840473246668
 30
0
 10
-102.8949109763075
 20
-28.52722163021335
 30
0
 10
-102.8080470563195
 20
-28.63817203133915
 30
0
  0
SPLINE
  5
214
100
AcDbEntity
  8
logo
  6
ByLayer
 62
    7
370
   -1
100
AcDbSpline
210
0
220
0
230
0
 70
    8
 71
    3
 72
    8
 73
    4
 74
    0
 42
1e-07
 43
1e-07
 40
0
 40
0
 40
0
 40
0
 40
1
 40
1
 40
1
 40
1
 10
-102.8080470563195
 20
-28.63817203133915
 30
0
 10
-102.7341281892103
 20
-28.75286803114346
 30
0
 10
-102.7105101894648
 20
-28.88283821542631
 30
0
 10
-102.7371937023836
 20
-29.02808246563648
 30
0
  0
LWPOLYLINE
  5
215
100
AcDbEntity
  8
logo
  6
ByLayer
 62
    7
370
   -1
100
AcDbPolyline
 90
    2
 70
    0
 43
0
 10
-104.2189861383311
 20
-31.38954121162822
 10
-103.7509363618765
 20
-28.84184297380279
  0
SPLINE
  5
216
100
AcDbEntity
  8
logo
  6
ByLayer
 62
    7
370
   -1
100
AcDbSpline
210
0
220
0
230
0
 70
    8
 71
    3
 72
    8
 73
    4
 74
    0
 42
1e-07
 43
1e-07
 40
0
 40
0
 40
0
 40
0
 40
1
 40
1
 40
1
 40
1
 10
-103.2019762066859
 20
-31.55799622000806
 30
0
 10
-103.3315811634272
 20
-32.26346460502565
 30
0
 10
-103.0629155428304
 20
-32.67746181010761
 30
0
 10
-102.3959793448954
 20
-32.79998783525392
 30
0
  0
SPLINE
  5
217
100
AcDbEntity
  8
logo
  6
ByLayer
 62
    7
370
   -1
100
AcDbSpline
210
0
220
0
230
0
 70
    8
 71
    3
 72
    8
 73
    4
 74
    0
 42
1e-07
 43
1e-07
 40
0
 40
0
 40
0
 40
0
 40
1
 40
1
 40
1
 40
1
 10
-102.3959793448954
 20
-32.79998783525392
 30
0
 10
-101.711258018206
 20
-32.92578125110377
 30
0
 10
-101.3040951991409
 20
-32.63594370724427
 30
0
 10
-101.1744902423996
 20
-31.93047532222668
 30
0
  0
LWPOLYLINE
  5
218
100
AcDbEntity
  8
logo
  6
ByLayer
 62
    7
370
   -1
100
AcDbPolyline
 90
    2
 70
    0
 43
0
 10
-102.7371937023836
 20
-29.02808246563648
 10
-103.2019762066859
 20
-31.55799622000806
  0
SPLINE
  5
219
100
AcDbEntity
  8
logo
  6
ByLayer
 62
    7
370
   -1
100
AcDbSpline
210
0
220
0
230
0
 70
    8
 71
    3
 72
    8
 73
    4
 74
    0
 42
1e-07
 43
1e-07
 40
0
 40
0
 40
0
 40
0
 40
1
 40
1
 40
1
 40
1
 10
-100.7097077380972
 20
-29.40056156785509
 30
0
 10
-100.6830242251784
 20
-29.25531731764493
 30
0
 10
-100.6152972215181
 20
-29.14519245819691
 30
0
 10
-100.5065274909679
 20
-29.07018751626035
 30
0
  0
SPLINE
  5
21A
100
AcDbEntity
  8
logo
  6
ByLayer
 62
    7
370
   -1
100
AcDbSpline
210
0
220
0
230
0
 70
    8
 71
    3
 72
    8
 73
    4
 74
    0
 42
1e-07
 43
1e-07
 40
0
 40
0
 40
0
 40
0
 40
1
 40
1
 40
1
 40
1
 10
-100.5065274909679
 20
-29.07018751626035
 30
0
 10
-100.3907394240732
 20
-28.99033881120292
 30
0
 10
-100.2602233247963
 20
-28.96375653778388
 30
0
 10
-100.1149797198867
 20
-28.99043993215144
 30
0
  0
SPLINE
  5
21B
100
AcDbEntity
  8
logo
  6
ByLayer
 62
    7
370
   -1
100
AcDbSpline
210
0
220
0
230
0
 70
    8
 71
    3
 72
    8
 73
    4
 74
    0
 42
1e-07
 43
1e-07
 40
0
 40
0
 40
0
 40
0
 40
1
 40
1
 40
1
 40
1
 10
-100.1149797198867
 20
-28.99043993215144
 30
0
 10
-99.77410163458028
 20
-29.0530642686043
 30
0
 10
-99.63442987238597
 20
-29.25185135063383
 30
0
 10
-99.6959650786043
 20
-29.58680105968878
 30
0
  0
LWPOLYLINE
  5
21C
100
AcDbEntity
  8
logo
  6
ByLayer
 62
    7
370
   -1
100
AcDbPolyline
 90
    2
 70
    0
 43
0
 10
-101.1744902423996
 20
-31.93047532222668
 10
-100.7097077380972
 20
-29.40056156785509
  0
SPLINE
  5
21D
100
AcDbEntity
  8
logo
  6
ByLayer
 62
    7
370
   -1
100
AcDbSpline
210
0
220
0
230
0
 70
    8
 71
    3
 72
    8
 73
    4
 74
    0
 42
1e-07
 43
1e-07
 40
0
 40
0
 40
0
 40
0
 40
1
 40
1
 40
1
 40
1
 10
-100.164014855059
 20
-32.1344992975142
 30
0
 10
-100.2266391915118
 20
-32.47537738282062
 30
0
 10
-100.3542924277105
 20
-32.77826322096721
 30
0
 10
-100.5469746822062
 20
-33.0431574572545
 30
0
  0
LWPOLYLINE
  5
21E
100
AcDbEntity
  8
logo
  6
ByLayer
 62
    7
370
   -1
100
AcDbPolyline
 90
    2
 70
    0
 43
0
 10
-99.6959650786043
 20
-29.58680105968878
 10
-100.164014855059
 20
-32.1344992975142
  0
SPLINE
  5
21F
100
AcDbEntity
  8
logo
  6
ByLayer
 62
    7
370
   -1
100
AcDbSpline
210
0
220
0
230
0
 70
    8
 71
    3
 72
    8
 73
    4
 74
    0
 42
1e-07
 43
1e-07
 40
0
 40
0
 40
0
 40
0
 40
1
 40
1
 40
1
 40
1
 10
-98.20425783655305
 20
-28.87264380305983
 30
0
 10
-98.37321494646855
 20
-28.84160388775422
 30
0
 10
-98.50784020652998
 20
-28.75711886770874
 30
0
 10
-98.60813220758503
 20
-28.61918833472532
 30
0
  0
SPLINE
  5
220
100
AcDbEntity
  8
logo
  6
ByLayer
 62
    7
370
   -1
100
AcDbSpline
210
0
220
0
230
0
 70
    8
 71
    3
 72
    8
 73
    4
 74
    0
 42
1e-07
 43
1e-07
 40
0
 40
0
 40
0
 40
0
 40
1
 40
1
 40
1
 40
1
 10
-98.60813220758503
 20
-28.61918833472532
 30
0
 10
-98.69923003539553
 20
-28.46456684707524
 30
0
 10
-98.73143687019109
 20
-28.31463403742075
 30
0
 10
-98.70475335727231
 20
-28.16938978721058
 30
0
  0
SPLINE
  5
221
100
AcDbEntity
  8
logo
  6
ByLayer
 62
    7
370
   -1
100
AcDbSpline
210
0
220
0
230
0
 70
    8
 71
    3
 72
    8
 73
    4
 74
    0
 42
1e-07
 43
1e-07
 40
0
 40
0
 40
0
 40
0
 40
1
 40
1
 40
1
 40
1
 10
-98.70475335727231
 20
-28.16938978721058
 30
0
 10
-98.67752533851188
 20
-28.02118167152496
 30
0
 10
-98.59385778180504
 20
-27.89100241377574
 30
0
 10
-98.45375004185124
 20
-27.77885213251417
 30
0
  0
SPLINE
  5
222
100
AcDbEntity
  8
logo
  6
ByLayer
 62
    7
370
   -1
100
AcDbSpline
210
0
220
0
230
0
 70
    8
 71
    3
 72
    8
 73
    4
 74
    0
 42
1e-07
 43
1e-07
 40
0
 40
0
 40
0
 40
0
 40
1
 40
1
 40
1
 40
1
 10
-98.45375004185124
 20
-27.77885213251417
 30
0
 10
-98.29912509059589
 20
-27.68775360685875
 30
0
 10
-98.14326185023698
 20
-27.65663561265085
 30
0
 10
-97.98616149282445
 20
-27.68549726748743
 30
0
  0
SPLINE
  5
223
100
AcDbEntity
  8
logo
  6
ByLayer
 62
    7
370
   -1
100
AcDbSpline
210
0
220
0
230
0
 70
    8
 71
    3
 72
    8
 73
    4
 74
    0
 42
1e-07
 43
1e-07
 40
0
 40
0
 40
0
 40
0
 40
1
 40
1
 40
1
 40
1
 10
-97.98616149282445
 20
-27.68549726748743
 30
0
 10
-97.81720438290897
 20
-27.71653718279304
 30
0
 10
-97.68554363362354
 20
-27.80047757844564
 30
0
 10
-97.5911793635194
 20
-27.93731909974579
 30
0
  0
SPLINE
  5
224
100
AcDbEntity
  8
logo
  6
ByLayer
 62
    7
370
   -1
100
AcDbSpline
210
0
220
0
230
0
 70
    8
 71
    3
 72
    8
 73
    4
 74
    0
 42
1e-07
 43
1e-07
 40
0
 40
0
 40
0
 40
0
 40
1
 40
1
 40
1
 40
1
 10
-97.5911793635194
 20
-27.93731909974579
 30
0
 10
-97.49681509341529
 20
-28.07416062104593
 30
0
 10
-97.46488092646986
 20
-28.22557762199012
 30
0
 10
-97.4953762173826
 20
-28.39157022112959
 30
0
  0
SPLINE
  5
225
100
AcDbEntity
  8
logo
  6
ByLayer
 62
    7
370
   -1
100
AcDbSpline
210
0
220
0
230
0
 70
    8
 71
    3
 72
    8
 73
    4
 74
    0
 42
1e-07
 43
1e-07
 40
0
 40
0
 40
0
 40
0
 40
1
 40
1
 40
1
 40
1
 10
-97.4953762173826
 20
-28.39157022112959
 30
0
 10
-97.5264161326882
 20
-28.56052733104507
 30
0
 10
-97.61277553232091
 20
-28.68867777311172
 30
0
 10
-97.75445441628069
 20
-28.77602154732954
 30
0
  0
SPLINE
  5
226
100
AcDbEntity
  8
logo
  6
ByLayer
 62
    7
370
   -1
100
AcDbSpline
210
0
220
0
230
0
 70
    8
 71
    3
 72
    8
 73
    4
 74
    0
 42
1e-07
 43
1e-07
 40
0
 40
0
 40
0
 40
0
 40
1
 40
1
 40
1
 40
1
 10
-97.75445441628069
 20
-28.77602154732954
 30
0
 10
-97.8912948840822
 20
-28.87038734513727
 30
0
 10
-98.04122910288906
 20
-28.90259458813093
 30
0
 10
-98.20425783655305
 20
-28.87264380305983
 30
0
  0
SPLINE
  5
227
100
AcDbEntity
  8
logo
  6
ByLayer
 62
    7
370
   -1
100
AcDbSpline
210
0
220
0
230
0
 70
    8
 71
    3
 72
    8
 73
    4
 74
    0
 42
1e-07
 43
1e-07
 40
0
 40
0
 40
0
 40
0
 40
1
 40
1
 40
1
 40
1
 10
-98.80117926972183
 20
-34.22339196699442
 30
0
 10
-98.92126207679192
 20
-34.29325930009041
 30
0
 10
-99.05392586880672
 20
-34.31485082825311
 30
0
 10
-99.19916947371632
 20
-34.28816743388556
 30
0
  0
SPLINE
  5
228
100
AcDbEntity
  8
logo
  6
ByLayer
 62
    7
370
   -1
100
AcDbSpline
210
0
220
0
230
0
 70
    8
 71
    3
 72
    8
 73
    4
 74
    0
 42
1e-07
 43
1e-07
 40
0
 40
0
 40
0
 40
0
 40
1
 40
1
 40
1
 40
1
 10
-99.19916947371632
 20
-34.28816743388556
 30
0
 10
-99.31477184266912
 20
-34.26692957213935
 30
0
 10
-99.41924116481142
 20
-34.20177319024972
 30
0
 10
-99.51257796689258
 20
-34.09269752436487
 30
0
  0
SPLINE
  5
229
100
AcDbEntity
  8
logo
  6
ByLayer
 62
    7
370
   -1
100
AcDbSpline
210
0
220
0
230
0
 70
    8
 71
    3
 72
    8
 73
    4
 74
    0
 42
1e-07
 43
1e-07
 40
0
 40
0
 40
0
 40
0
 40
1
 40
1
 40
1
 40
1
 10
-99.51257796689258
 20
-34.09269752436487
 30
0
 10
-99.60319212121425
 20
-33.96880188580218
 30
0
 10
-99.63570236268669
 20
-33.83719806544316
 30
0
 10
-99.61010869130985
 20
-33.69788606328783
 30
0
  0
SPLINE
  5
22A
100
AcDbEntity
  8
logo
  6
ByLayer
 62
    7
370
   -1
100
AcDbSpline
210
0
220
0
230
0
 70
    8
 71
    3
 72
    8
 73
    4
 74
    0
 42
1e-07
 43
1e-07
 40
0
 40
0
 40
0
 40
0
 40
1
 40
1
 40
1
 40
1
 10
-98.87576912136764
 20
-29.70071370594013
 30
0
 10
-98.84636284213818
 20
-29.54064883775158
 30
0
 10
-98.77458260566537
 20
-29.4251388172926
 30
0
 10
-98.66042817484673
 20
-29.3541823539621
 30
0
  0
SPLINE
  5
22B
100
AcDbEntity
  8
logo
  6
ByLayer
 62
    7
370
   -1
100
AcDbSpline
210
0
220
0
230
0
 70
    8
 71
    3
 72
    8
 73
    4
 74
    0
 42
1e-07
 43
1e-07
 40
0
 40
0
 40
0
 40
0
 40
1
 40
1
 40
1
 40
1
 10
-98.66042817484673
 20
-29.3541823539621
 30
0
 10
-98.54464093781063
 20
-29.27433816600859
 30
0
 10
-98.41708970496352
 20
-29.24721320409835
 30
0
 10
-98.27777383100481
 20
-29.27280758678263
 30
0
  0
SPLINE
  5
22C
100
AcDbEntity
  8
logo
  6
ByLayer
 62
    7
370
   -1
100
AcDbSpline
210
0
220
0
230
0
 70
    8
 71
    3
 72
    8
 73
    4
 74
    0
 42
1e-07
 43
1e-07
 40
0
 40
0
 40
0
 40
0
 40
1
 40
1
 40
1
 40
1
 10
-98.27777383100481
 20
-29.27280758678263
 30
0
 10
-98.13253022609523
 20
-29.29949098115018
 30
0
 10
-98.01647546269213
 20
-29.36830606154641
 30
0
 10
-97.92961071284542
 20
-29.47925194556827
 30
0
  0
SPLINE
  5
22D
100
AcDbEntity
  8
logo
  6
ByLayer
 62
    7
370
   -1
100
AcDbSpline
210
0
220
0
230
0
 70
    8
 71
    3
 72
    8
 73
    4
 74
    0
 42
1e-07
 43
1e-07
 40
0
 40
0
 40
0
 40
0
 40
1
 40
1
 40
1
 40
1
 10
-97.92961071284542
 20
-29.47925194556827
 30
0
 10
-97.85514805120199
 20
-29.59098795170049
 30
0
 10
-97.83125885876558
 20
-29.71947834324634
 30
0
 10
-97.85794237168435
 20
-29.86472259345651
 30
0
  0
LWPOLYLINE
  5
22E
100
AcDbEntity
  8
logo
  6
ByLayer
 62
    7
370
   -1
100
AcDbPolyline
 90
    2
 70
    0
 43
0
 10
-99.61010869130985
 20
-33.69788606328783
 10
-98.87576912136764
 20
-29.70071370594013
  0
SPLINE
  5
22F
100
AcDbEntity
  8
logo
  6
ByLayer
 62
    7
370
   -1
100
AcDbSpline
210
0
220
0
230
0
 70
    8
 71
    3
 72
    8
 73
    4
 74
    0
 42
1e-07
 43
1e-07
 40
0
 40
0
 40
0
 40
0
 40
1
 40
1
 40
1
 40
1
 10
-98.59636603181696
 20
-33.88412555512151
 30
0
 10
-98.62413867497025
 20
-34.03529818158315
 30
0
 10
-98.69240953917169
 20
-34.14838702505786
 30
0
 10
-98.80117926972183
 20
-34.22339196699442
 30
0
  0
LWPOLYLINE
  5
230
100
AcDbEntity
  8
logo
  6
ByLayer
 62
    7
370
   -1
100
AcDbPolyline
 90
    2
 70
    0
 43
0
 10
-97.85794237168435
 20
-29.86472259345651
 10
-98.59636603181696
 20
-33.88412555512151
  0
SPLINE
  5
231
100
AcDbEntity
  8
logo
  6
ByLayer
 62
    7
370
   -1
100
AcDbSpline
210
0
220
0
230
0
 70
    8
 71
    3
 72
    8
 73
    4
 74
    0
 42
1e-07
 43
1e-07
 40
0
 40
0
 40
0
 40
0
 40
1
 40
1
 40
1
 40
1
 10
-97.35397898193584
 20
-34.62715616668433
 30
0
 10
-97.48143810339158
 20
-34.60374004446909
 30
0
 10
-97.58536280114102
 20
-34.53561915180344
 30
0
 10
-97.66575383903593
 20
-34.42279401543671
 30
0
  0
SPLINE
  5
232
100
AcDbEntity
  8
logo
  6
ByLayer
 62
    7
370
   -1
100
AcDbSpline
210
0
220
0
230
0
 70
    8
 71
    3
 72
    8
 73
    4
 74
    0
 42
1e-07
 43
1e-07
 40
0
 40
0
 40
0
 40
0
 40
1
 40
1
 40
1
 40
1
 10
-97.66575383903593
 20
-34.42279401543671
 30
0
 10
-97.7585469651341
 20
-34.31075900118032
 30
0
 10
-97.79051258221364
 20
-34.1761906700453
 30
0
 10
-97.76165092737706
 20
-34.01909031263275
 30
0
  0
SPLINE
  5
233
100
AcDbEntity
  8
logo
  6
ByLayer
 62
    7
370
   -1
100
AcDbSpline
210
0
220
0
230
0
 70
    8
 71
    3
 72
    8
 73
    4
 74
    0
 42
1e-07
 43
1e-07
 40
0
 40
0
 40
0
 40
0
 40
1
 40
1
 40
1
 40
1
 10
-96.65074757226964
 20
-27.97219816017858
 30
0
 10
-96.62515318958538
 20
-27.83288228621989
 30
0
 10
-96.55688168008338
 20
-27.71979356129642
 30
0
 10
-96.4459336890642
 20
-27.63293186685693
 30
0
  0
SPLINE
  5
234
100
AcDbEntity
  8
logo
  6
ByLayer
 62
    7
370
   -1
100
AcDbSpline
210
0
220
0
230
0
 70
    8
 71
    3
 72
    8
 73
    4
 74
    0
 42
1e-07
 43
1e-07
 40
0
 40
0
 40
0
 40
0
 40
1
 40
1
 40
1
 40
1
 10
-96.4459336890642
 20
-27.63293186685693
 30
0
 10
-96.33014562216943
 20
-27.55308316179949
 30
0
 10
-96.19962952289256
 20
-27.52650088838045
 30
0
 10
-96.05438591798298
 20
-27.553184282748
 30
0
  0
SPLINE
  5
235
100
AcDbEntity
  8
logo
  6
ByLayer
 62
    7
370
   -1
100
AcDbSpline
210
0
220
0
230
0
 70
    8
 71
    3
 72
    8
 73
    4
 74
    0
 42
1e-07
 43
1e-07
 40
0
 40
0
 40
0
 40
0
 40
1
 40
1
 40
1
 40
1
 10
-96.05438591798298
 20
-27.553184282748
 30
0
 10
-95.713507187376
 20
-27.61580873775211
 30
0
 10
-95.57383542518168
 20
-27.81459581978164
 30
0
 10
-95.63537063140004
 20
-28.14954552883658
 30
0
  0
LWPOLYLINE
  5
236
100
AcDbEntity
  8
logo
  6
ByLayer
 62
    7
370
   -1
100
AcDbPolyline
 90
    2
 70
    0
 43
0
 10
-97.76165092737706
 20
-34.01909031263275
 10
-96.65074757226964
 20
-27.97219816017858
  0
SPLINE
  5
237
100
AcDbEntity
  8
logo
  6
ByLayer
 62
    7
370
   -1
100
AcDbSpline
210
0
220
0
230
0
 70
    8
 71
    3
 72
    8
 73
    4
 74
    0
 42
1e-07
 43
1e-07
 40
0
 40
0
 40
0
 40
0
 40
1
 40
1
 40
1
 40
1
 10
-96.74790762258361
 20
-34.20532992301768
 30
0
 10
-96.77567943587825
 20
-34.35649803237538
 30
0
 10
-96.84449545122187
 20
-34.47255062277431
 30
0
 10
-96.95435514186519
 20
-34.55348845806627
 30
0
  0
SPLINE
  5
238
100
AcDbEntity
  8
logo
  6
ByLayer
 62
    7
370
   -1
100
AcDbSpline
210
0
220
0
230
0
 70
    8
 71
    3
 72
    8
 73
    4
 74
    0
 42
1e-07
 43
1e-07
 40
0
 40
0
 40
0
 40
0
 40
1
 40
1
 40
1
 40
1
 10
-96.95435514186519
 20
-34.55348845806627
 30
0
 10
-97.06959858436709
 20
-34.63037265234768
 30
0
 10
-97.20280635547419
 20
-34.65492880983764
 30
0
 10
-97.35397898193584
 20
-34.62715616668433
 30
0
  0
LWPOLYLINE
  5
239
100
AcDbEntity
  8
logo
  6
ByLayer
 62
    7
370
   -1
100
AcDbPolyline
 90
    2
 70
    0
 43
0
 10
-95.63537063140004
 20
-28.14954552883658
 10
-96.74790762258361
 20
-34.20532992301768
  0
SPLINE
  5
23A
100
AcDbEntity
  8
logo
  6
ByLayer
 62
    7
370
   -1
100
AcDbSpline
210
0
220
0
230
0
 70
    8
 71
    3
 72
    8
 73
    4
 74
    0
 42
1e-07
 43
1e-07
 40
0
 40
0
 40
0
 40
0
 40
1
 40
1
 40
1
 40
1
 10
-92.76099251435839
 20
-35.02051636798905
 30
0
 10
-93.12263252407016
 20
-35.2543705704195
 30
0
 10
-93.52576502510475
 20
-35.33045558421846
 30
0
 10
-93.97039001746215
 20
-35.24877140938595
 30
0
  0
SPLINE
  5
23B
100
AcDbEntity
  8
logo
  6
ByLayer
 62
    7
370
   -1
100
AcDbSpline
210
0
220
0
230
0
 70
    8
 71
    3
 72
    8
 73
    4
 74
    0
 42
1e-07
 43
1e-07
 40
0
 40
0
 40
0
 40
0
 40
1
 40
1
 40
1
 40
1
 10
-93.97039001746215
 20
-35.24877140938595
 30
0
 10
-94.67585840247976
 20
-35.11916645264461
 30
0
 10
-95.19073424704393
 20
-34.76105280745929
 30
0
 10
-95.51501755115466
 20
-34.17443047382996
 30
0
  0
SPLINE
  5
23C
100
AcDbEntity
  8
logo
  6
ByLayer
 62
    7
370
   -1
100
AcDbSpline
210
0
220
0
230
0
 70
    8
 71
    3
 72
    8
 73
    4
 74
    0
 42
1e-07
 43
1e-07
 40
0
 40
0
 40
0
 40
0
 40
1
 40
1
 40
1
 40
1
 10
-95.51501755115466
 20
-34.17443047382996
 30
0
 10
-95.81891459928663
 20
-33.6436523579228
 30
0
 10
-95.9071493010115
 20
-33.03145490250964
 30
0
 10
-95.77972177488056
 20
-32.33783875289106
 30
0
  0
SPLINE
  5
23D
100
AcDbEntity
  8
logo
  6
ByLayer
 62
    7
370
   -1
100
AcDbSpline
210
0
220
0
230
0
 70
    8
 71
    3
 72
    8
 73
    4
 74
    0
 42
1e-07
 43
1e-07
 40
0
 40
0
 40
0
 40
0
 40
1
 40
1
 40
1
 40
1
 10
-95.77972177488056
 20
-32.33783875289106
 30
0
 10
-95.65937412875452
 20
-31.68275995275955
 30
0
 10
-95.36523404731439
 20
-31.14081038978716
 30
0
 10
-94.89730100381081
 20
-30.71199082782569
 30
0
  0
SPLINE
  5
23E
100
AcDbEntity
  8
logo
  6
ByLayer
 62
    7
370
   -1
100
AcDbSpline
210
0
220
0
230
0
 70
    8
 71
    3
 72
    8
 73
    4
 74
    0
 42
1e-07
 43
1e-07
 40
0
 40
0
 40
0
 40
0
 40
1
 40
1
 40
1
 40
1
 10
-94.89730100381081
 20
-30.71199082782569
 30
0
 10
-94.39318830824249
 20
-30.25304854288529
 30
0
 10
-93.8106286949171
 20
-30.08429572931975
 30
0
 10
-93.14962151853413
 20
-30.2057325056803
 30
0
  0
SPLINE
  5
23F
100
AcDbEntity
  8
logo
  6
ByLayer
 62
    7
370
   -1
100
AcDbSpline
210
0
220
0
230
0
 70
    8
 71
    3
 72
    8
 73
    4
 74
    0
 42
1e-07
 43
1e-07
 40
0
 40
0
 40
0
 40
0
 40
1
 40
1
 40
1
 40
1
 10
-93.14962151853413
 20
-30.2057325056803
 30
0
 10
-92.66942755926901
 20
-30.29395122481743
 30
0
 10
-92.29555674451376
 20
-30.51891168372229
 30
0
 10
-92.02800831041655
 20
-30.88061335564556
 30
0
  0
SPLINE
  5
240
100
AcDbEntity
  8
logo
  6
ByLayer
 62
    7
370
   -1
100
AcDbSpline
210
0
220
0
230
0
 70
    8
 71
    3
 72
    8
 73
    4
 74
    0
 42
1e-07
 43
1e-07
 40
0
 40
0
 40
0
 40
0
 40
1
 40
1
 40
1
 40
1
 10
-91.6369015019274
 20
-28.85195005819482
 30
0
 10
-91.61130711924311
 20
-28.71263418423613
 30
0
 10
-91.54088985290487
 20
-28.60453584891527
 30
0
 10
-91.42564970291262
 20
-28.52765505223227
 30
0
  0
SPLINE
  5
241
100
AcDbEntity
  8
logo
  6
ByLayer
 62
    7
370
   -1
100
AcDbSpline
210
0
220
0
230
0
 70
    8
 71
    3
 72
    8
 73
    4
 74
    0
 42
1e-07
 43
1e-07
 40
0
 40
0
 40
0
 40
0
 40
1
 40
1
 40
1
 40
1
 10
-91.42564970291262
 20
-28.52765505223227
 30
0
 10
-91.31984107207761
 20
-28.45210144300387
 30
0
 10
-91.1928326988173
 20
-28.42793864776988
 30
0
 10
-91.04462458313166
 20
-28.45516666653031
 30
0
  0
SPLINE
  5
242
100
AcDbEntity
  8
logo
  6
ByLayer
 62
    7
370
   -1
100
AcDbSpline
210
0
220
0
230
0
 70
    8
 71
    3
 72
    8
 73
    4
 74
    0
 42
1e-07
 43
1e-07
 40
0
 40
0
 40
0
 40
0
 40
1
 40
1
 40
1
 40
1
 10
-91.04462458313166
 20
-28.45516666653031
 30
0
 10
-90.89345195667002
 20
-28.48293930968362
 30
0
 10
-90.77942366484976
 20
-28.55444799781178
 30
0
 10
-90.70253982622205
 20
-28.66969337621537
 30
0
  0
SPLINE
  5
243
100
AcDbEntity
  8
logo
  6
ByLayer
 62
    7
370
   -1
100
AcDbSpline
210
0
220
0
230
0
 70
    8
 71
    3
 72
    8
 73
    4
 74
    0
 42
1e-07
 43
1e-07
 40
0
 40
0
 40
0
 40
0
 40
1
 40
1
 40
1
 40
1
 10
-90.70253982622205
 20
-28.66969337621537
 30
0
 10
-90.62215065822195
 20
-28.78251416657378
 30
0
 10
-90.5955700836021
 20
-28.9130286195958
 30
0
 10
-90.62279810236255
 20
-29.06123673528142
 30
0
  0
LWPOLYLINE
  5
244
100
AcDbEntity
  8
logo
  6
ByLayer
 62
    7
370
   -1
100
AcDbPolyline
 90
    2
 70
    0
 43
0
 10
-92.02800831041655
 20
-30.88061335564556
 10
-91.6369015019274
 20
-28.85195005819482
  0
SPLINE
  5
245
100
AcDbEntity
  8
logo
  6
ByLayer
 62
    7
370
   -1
100
AcDbSpline
210
0
220
0
230
0
 70
    8
 71
    3
 72
    8
 73
    4
 74
    0
 42
1e-07
 43
1e-07
 40
0
 40
0
 40
0
 40
0
 40
1
 40
1
 40
1
 40
1
 10
-91.74023600177458
 20
-35.14369785464328
 30
0
 10
-91.76691951469337
 20
-35.28894210485345
 30
0
 10
-91.83612683784004
 20
-35.39879500775874
 30
0
 10
-91.94785849796394
 20
-35.47325579950738
 30
0
  0
SPLINE
  5
246
100
AcDbEntity
  8
logo
  6
ByLayer
 62
    7
370
   -1
100
AcDbSpline
210
0
220
0
230
0
 70
    8
 71
    3
 72
    8
 73
    4
 74
    0
 42
1e-07
 43
1e-07
 40
0
 40
0
 40
0
 40
0
 40
1
 40
1
 40
1
 40
1
 10
-91.94785849796394
 20
-35.47325579950738
 30
0
 10
-92.06310387636753
 20
-35.55013963813507
 30
0
 10
-92.19631229277519
 20
-35.57469567707379
 30
0
 10
-92.34748491923683
 20
-35.54692303392049
 30
0
  0
SPLINE
  5
247
100
AcDbEntity
  8
logo
  6
ByLayer
 62
    7
370
   -1
100
AcDbSpline
210
0
220
0
230
0
 70
    8
 71
    3
 72
    8
 73
    4
 74
    0
 42
1e-07
 43
1e-07
 40
0
 40
0
 40
0
 40
0
 40
1
 40
1
 40
1
 40
1
 10
-92.34748491923683
 20
-35.54692303392049
 30
0
 10
-92.46605244426624
 20
-35.52514042923016
 30
0
 10
-92.56755725563249
 20
-35.46052867173341
 30
0
 10
-92.65199858948391
 20
-35.3530872346809
 30
0
  0
SPLINE
  5
248
100
AcDbEntity
  8
logo
  6
ByLayer
 62
    7
370
   -1
100
AcDbSpline
210
0
220
0
230
0
 70
    8
 71
    3
 72
    8
 73
    4
 74
    0
 42
1e-07
 43
1e-07
 40
0
 40
0
 40
0
 40
0
 40
1
 40
1
 40
1
 40
1
 10
-92.65199858948391
 20
-35.3530872346809
 30
0
 10
-92.73753440053243
 20
-35.25157786112512
 30
0
 10
-92.77385706529935
 20
-35.14072227114416
 30
0
 10
-92.76096670233596
 20
-35.02052111003862
 30
0
  0
LWPOLYLINE
  5
249
100
AcDbEntity
  8
logo
  6
ByLayer
 62
    7
370
   -1
100
AcDbPolyline
 90
    2
 70
    0
 43
0
 10
-90.62279810236255
 20
-29.06123673528142
 10
-91.74023600177458
 20
-35.14369785464328
  0
SPLINE
  5
24A
100
AcDbEntity
  8
logo
  6
ByLayer
 62
    7
370
   -1
100
AcDbSpline
210
0
220
0
230
0
 70
    8
 71
    3
 72
    8
 73
    4
 74
    0
 42
1e-07
 43
1e-07
 40
0
 40
0
 40
0
 40
0
 40
1
 40
1
 40
1
 40
1
 10
-92.28974904474171
 20
-32.05514558997373
 30
0
 10
-92.41652377851526
 20
-31.51093696197159
 30
0
 10
-92.72593644201042
 20
-31.19363383551715
 30
0
 10
-93.21798650847792
 20
-31.10323697446223
 30
0
  0
SPLINE
  5
24B
100
AcDbEntity
  8
logo
  6
ByLayer
 62
    7
370
   -1
100
AcDbSpline
210
0
220
0
230
0
 70
    8
 71
    3
 72
    8
 73
    4
 74
    0
 42
1e-07
 43
1e-07
 40
0
 40
0
 40
0
 40
0
 40
1
 40
1
 40
1
 40
1
 10
-93.21798650847792
 20
-31.10323697446223
 30
0
 10
-93.73374943465073
 20
-31.00848371102046
 30
0
 10
-94.14387308097598
 20
-31.22270610572069
 30
0
 10
-94.44835692070436
 20
-31.74590492241469
 30
0
  0
SPLINE
  5
24C
100
AcDbEntity
  8
logo
  6
ByLayer
 62
    7
370
   -1
100
AcDbSpline
210
0
220
0
230
0
 70
    8
 71
    3
 72
    8
 73
    4
 74
    0
 42
1e-07
 43
1e-07
 40
0
 40
0
 40
0
 40
0
 40
1
 40
1
 40
1
 40
1
 10
-94.44835692070436
 20
-31.74590492241469
 30
0
 10
-94.60329271167512
 20
-32.00547747725298
 30
0
 10
-94.70308762541345
 20
-32.25679282734939
 30
0
 10
-94.74774113516993
 20
-32.49985173655574
 30
0
  0
SPLINE
  5
24D
100
AcDbEntity
  8
logo
  6
ByLayer
 62
    7
370
   -1
100
AcDbSpline
210
0
220
0
230
0
 70
    8
 71
    3
 72
    8
 73
    4
 74
    0
 42
1e-07
 43
1e-07
 40
0
 40
0
 40
0
 40
0
 40
1
 40
1
 40
1
 40
1
 10
-94.74774113516993
 20
-32.49985173655574
 30
0
 10
-94.8288808041608
 20
-32.94151286343769
 30
0
 10
-94.79647321134048
 20
-33.3488774414818
 30
0
 10
-94.6505184752602
 20
-33.72194611598863
 30
0
  0
SPLINE
  5
24E
100
AcDbEntity
  8
logo
  6
ByLayer
 62
    7
370
   -1
100
AcDbSpline
210
0
220
0
230
0
 70
    8
 71
    3
 72
    8
 73
    4
 74
    0
 42
1e-07
 43
1e-07
 40
0
 40
0
 40
0
 40
0
 40
1
 40
1
 40
1
 40
1
 10
-94.6505184752602
 20
-33.72194611598863
 30
0
 10
-94.50613119594064
 20
-34.07021363041429
 30
0
 10
-94.25164214305062
 20
-34.27783807969725
 30
0
 10
-93.88705184333944
 20
-34.3448186999857
 30
0
  0
SPLINE
  5
24F
100
AcDbEntity
  8
logo
  6
ByLayer
 62
    7
370
   -1
100
AcDbSpline
210
0
220
0
230
0
 70
    8
 71
    3
 72
    8
 73
    4
 74
    0
 42
1e-07
 43
1e-07
 40
0
 40
0
 40
0
 40
0
 40
1
 40
1
 40
1
 40
1
 10
-93.88705184333944
 20
-34.3448186999857
 30
0
 10
-93.45131909270893
 20
-34.42486923874207
 30
0
 10
-93.08653953009119
 20
-34.31569341276105
 30
0
 10
-92.79271239163435
 20
-34.01729069529333
 30
0
  0
SPLINE
  5
250
100
AcDbEntity
  8
logo
  6
ByLayer
 62
    7
370
   -1
100
AcDbSpline
210
0
220
0
230
0
 70
    8
 71
    3
 72
    8
 73
    4
 74
    0
 42
1e-07
 43
1e-07
 40
0
 40
0
 40
0
 40
0
 40
1
 40
1
 40
1
 40
1
 10
-92.79271239163435
 20
-34.01729069529333
 30
0
 10
-92.54558691124204
 20
-33.75627001776272
 30
0
 10
-92.38118182025494
 20
-33.40344756474462
 30
0
 10
-92.29949764542242
 20
-32.95882257238721
 30
0
  0
SPLINE
  5
251
100
AcDbEntity
  8
logo
  6
ByLayer
 62
    7
370
   -1
100
AcDbSpline
210
0
220
0
230
0
 70
    8
 71
    3
 72
    8
 73
    4
 74
    0
 42
1e-07
 43
1e-07
 40
0
 40
0
 40
0
 40
0
 40
1
 40
1
 40
1
 40
1
 10
-92.29949764542242
 20
-32.95882257238721
 30
0
 10
-92.23905156943859
 20
-32.62980123958372
 30
0
 10
-92.23580217194437
 20
-32.32857510906178
 30
0
 10
-92.28974904474171
 20
-32.05514558997373
 30
0
  0
INSERT
  5
252
100
AcDbEntity
  8
logo
  6
ByLayer
 62
  256
370
   -1
100
AcDbBlockReference
  2
dessin2-0
 10
135.34451987
 20
-24.2634717
 30
0
 41
0.21
 42
0.21
 43
0
 50
0
 70
    1
 71
    1
 44
0
 45
0
  0
ENDSEC
  0
SECTION
  2
OBJECTS
  0
DICTIONARY
  5
C
330
0
100
AcDbDictionary
281
    1
  3
ACAD_GROUP
350
D
  0
DICTIONARY
  5
D
330
C
100
AcDbDictionary
281
    1
  0
PLOTSETTINGS
  5
253
100
AcDbPlotSettings
  6
1x1
 40
0
 41
0
 42
0
 43
0
  0
ENDSEC
  0
EOF
