999
dxfrw 0.6.3
  0
SECTION
  2
HEADER
  9
$ACADVER
  1
AC1021
  9
$DWGCODEPAGE
  3
ANSI_1252
  9
$INSBASE
 10
0
 20
0
 30
0
  9
$EXTMIN
 10
-147.5307973608772
 20
-54.90000000000002
 30
0
  9
$EXTMAX
 10
147.5307973608772
 20
71.79792015697342
 30
0
  9
$LIMMIN
 10
0
 20
0
  9
$LIMMAX
 10
420
 20
297
  9
$ORTHOMODE
 70
    0
  9
$REGENMODE
 70
    1
  9
$FILLMODE
 70
    1
  9
$QTEXTMODE
 70
    0
  9
$MIRRTEXT
 70
    0
  9
$LTSCALE
 40
1
  9
$ATTMODE
 70
    0
  9
$TEXTSIZE
 40
2.5
  9
$TRACEWID
 40
15.68
  9
$TEXTSTYLE
  7
STANDARD
  9
$CLAYER
  8
logo
  9
$CELTYPE
  6
BYLAYER
  9
$CECOLOR
 62
  256
  9
$CELTSCALE
 40
1
  9
$DISPSILH
 70
    0
  9
$DIMSCALE
 40
2.5
  9
$DIMASZ
 40
2.5
  9
$DIMEXO
 40
0.625
  9
$DIMDLI
 40
3.75
  9
$DIMRND
 40
0
  9
$DIMDLE
 40
0
  9
$DIMEXE
 40
1.25
  9
$DIMTP
 40
0
  9
$DIMTM
 40
0
  9
$DIMTXT
 40
2.5
  9
$DIMCEN
 40
2.5
  9
$DIMTSZ
 40
0
  9
$DIMTOL
 70
    0
  9
$DIMLIM
 70
    0
  9
$DIMTIH
 70
    0
  9
$DIMTOH
 70
    0
  9
$DIMSE1
 70
    0
  9
$DIMSE2
 70
    0
  9
$DIMTAD
 70
    1
  9
$DIMZIN
 70
    8
  9
$DIMBLK
  1

  9
$DIMASO
 70
    1
  9
$DIMSHO
 70
    1
  9
$DIMPOST
  1

  9
$DIMAPOST
  1

  9
$DIMALT
 70
    0
  9
$DIMALTD
 70
    3
  9
$DIMALTF
 40
0.03937
  9
$DIMLFAC
 40
1
  9
$DIMTOFL
 70
    1
  9
$DIMTVP
 40
0
  9
$DIMTIX
 70
    0
  9
$DIMSOXD
 70
    0
  9
$DIMSAH
 70
    0
  9
$DIMBLK1
  1

  9
$DIMBLK2
  1

  9
$DIMSTYLE
  2
STANDARD
  9
$DIMCLRD
 70
    0
  9
$DIMCLRE
 70
    0
  9
$DIMCLRT
 70
    0
  9
$DIMTFAC
 40
1
  9
$DIMGAP
 40
0.625
  9
$DIMJUST
 70
    0
  9
$DIMSD1
 70
    0
  9
$DIMSD2
 70
    0
  9
$DIMTOLJ
 70
    0
  9
$DIMTZIN
 70
    8
  9
$DIMALTZ
 70
    0
  9
$DIMALTTZ
 70
    0
  9
$DIMUPT
 70
    0
  9
$DIMDEC
 70
    2
  9
$DIMTDEC
 70
    2
  9
$DIMALTU
 70
    2
  9
$DIMALTTD
 70
    3
  9
$DIMTXSTY
  7
STANDARD
  9
$DIMAUNIT
 70
    0
  9
$DIMADEC
 70
    0
  9
$DIMALTRND
 40
0
  9
$DIMAZIN
 70
    0
  9
$DIMDSEP
 70
   44
  9
$DIMATFIT
 70
    3
  9
$DIMFRAC
 70
    0
  9
$DIMLDRBLK
  1
STANDARD
  9
$DIMLUNIT
 70
    2
  9
$DIMLWD
 70
   -2
  9
$DIMLWE
 70
   -2
  9
$DIMTMOVE
 70
    0
  9
$DIMFXL
 40
1
  9
$DIMFXLON
 70
    0
  9
$DIMJOGANG
 40
0.7854
  9
$DIMTFILL
 70
    0
  9
$DIMTFILLCLR
 70
    0
  9
$DIMARCSYM
 70
    0
  9
$DIMLTYPE
  6

  9
$DIMLTEX1
  6

  9
$DIMLTEX2
  6

  9
$LUNITS
 70
    2
  9
$LUPREC
 70
    4
  9
$SKETCHINC
 40
1
  9
$FILLETRAD
 40
0
  9
$AUNITS
 70
    0
  9
$AUPREC
 70
    2
  9
$MENU
  1
.
  9
$ELEVATION
 40
0
  9
$PELEVATION
 40
0
  9
$THICKNESS
 40
0
  9
$LIMCHECK
 70
    0
  9
$CHAMFERA
 40
0
  9
$CHAMFERB
 40
0
  9
$CHAMFERC
 40
0
  9
$CHAMFERD
 40
0
  9
$SKPOLY
 70
    0
  9
$USRTIMER
 70
    1
  9
$ANGBASE
 50
0
  9
$ANGDIR
 70
    0
  9
$PDMODE
 70
   34
  9
$PDSIZE
 40
0
  9
$PLINEWID
 40
0
  9
$SPLFRAME
 70
    0
  9
$SPLINETYPE
 70
    2
  9
$SPLINESEGS
 70
    8
  9
$HANDSEED
  5
20000
  9
$SURFTAB1
 70
    6
  9
$SURFTAB2
 70
    6
  9
$SURFTYPE
 70
    6
  9
$SURFU
 70
    6
  9
$SURFV
 70
    6
  9
$UCSBASE
  2

  9
$UCSNAME
  2

  9
$UCSORG
 10
0
 20
0
 30
0
  9
$UCSXDIR
 10
1
 20
0
 30
0
  9
$UCSYDIR
 10
0
 20
1
 30
0
  9
$UCSORTHOREF
  2

  9
$UCSORTHOVIEW
 70
    0
  9
$UCSORGTOP
 10
0
 20
0
 30
0
  9
$UCSORGBOTTOM
 10
0
 20
0
 30
0
  9
$UCSORGLEFT
 10
0
 20
0
 30
0
  9
$UCSORGRIGHT
 10
0
 20
0
 30
0
  9
$UCSORGFRONT
 10
0
 20
0
 30
0
  9
$UCSORGBACK
 10
0
 20
0
 30
0
  9
$PUCSBASE
  2

  9
$PUCSNAME
  2

  9
$PUCSORG
 10
0
 20
0
 30
0
  9
$PUCSXDIR
 10
1
 20
0
 30
0
  9
$PUCSYDIR
 10
0
 20
1
 30
0
  9
$PUCSORTHOREF
  2

  9
$PUCSORTHOVIEW
 70
    0
  9
$PUCSORGTOP
 10
0
 20
0
 30
0
  9
$PUCSORGBOTTOM
 10
0
 20
0
 30
0
  9
$PUCSORGLEFT
 10
0
 20
0
 30
0
  9
$PUCSORGRIGHT
 10
0
 20
0
 30
0
  9
$PUCSORGFRONT
 10
0
 20
0
 30
0
  9
$PUCSORGBACK
 10
0
 20
0
 30
0
  9
$USERI1
 70
    0
  9
$USERI2
 70
    0
  9
$USERI3
 70
    0
  9
$USERI4
 70
    0
  9
$USERI5
 70
    0
  9
$USERR1
 40
0
  9
$USERR2
 40
0
  9
$USERR3
 40
0
  9
$USERR4
 40
0
  9
$USERR5
 40
0
  9
$WORLDVIEW
 70
    1
  9
$SHADEDGE
 70
    3
  9
$SHADEDIF
 70
   70
  9
$TILEMODE
 70
    1
  9
$MAXACTVP
 70
   64
  9
$PINSBASE
 10
0
 20
0
 30
0
  9
$PLIMCHECK
 70
    0
  9
$PEXTMIN
 10
0
 20
0
 30
0
  9
$PEXTMAX
 10
0
 20
0
 30
0
  9
$SNAPSTYLE
 70
    0
  9
$PLIMMIN
 10
0
 20
0
  9
$PLIMMAX
 10
210
 20
297
  9
$UNITMODE
 70
    0
  9
$VISRETAIN
 70
    1
  9
$PLINEGEN
 70
    0
  9
$PSLTSCALE
 70
    1
  9
$TREEDEPTH
 70
 3020
  9
$CMLSTYLE
  2
Standard
  9
$CMLJUST
 70
    0
  9
$CMLSCALE
 40
20
  9
$PROXYGRAPHICS
 70
    1
  9
$MEASUREMENT
 70
    1
  9
$CELWEIGHT
370
   -1
  9
$ENDCAPS
280
    0
  9
$JOINSTYLE
280
    0
  9
$LWDISPLAY
290
    0
  9
$INSUNITS
 70
    0
  9
$HYPERLINKBASE
  1

  9
$STYLESHEET
  1

  9
$XEDIT
290
    1
  9
$CEPSNTYPE
380
    0
  9
$PSTYLEMODE
290
    1
  9
$EXTNAMES
290
    1
  9
$PSVPSCALE
 40
1
  9
$OLESTARTUP
290
    0
  9
$SORTENTS
280
  127
  9
$INDEXCTL
280
    0
  9
$HIDETEXT
280
    1
  9
$XCLIPFRAME
290
    0
  9
$HALOGAP
280
    0
  9
$OBSCOLOR
 70
  257
  9
$OBSLTYPE
280
    0
  9
$INTERSECTIONDISPLAY
280
    0
  9
$INTERSECTIONCOLOR
 70
  257
  9
$DIMASSOC
280
    1
  9
$PROJECTNAME
  1

  9
$CAMERADISPLAY
290
    0
  9
$LENSLENGTH
 40
50
  9
$CAMERAHEIGHT
 40
0
  9
$STEPSPERSEC
 40
2
  9
$STEPSIZE
 40
50
  9
$3DDWFPREC
 40
2
  9
$PSOLWIDTH
 40
5
  9
$PSOLHEIGHT
 40
80
  9
$LOFTANG1
 40
1.570796326794897
  9
$LOFTANG2
 40
1.570796326794897
  9
$LOFTMAG1
 40
0
  9
$LOFTMAG2
 40
0
  9
$LOFTPARAM
 70
    7
  9
$LOFTNORMALS
280
    1
  9
$LATITUDE
 40
1
  9
$LONGITUDE
 40
1
  9
$NORTHDIRECTION
 40
0
  9
$TIMEZONE
 70
-8000
  9
$LIGHTGLYPHDISPLAY
280
    1
  9
$TILEMODELIGHTSYNCH
280
    1
  9
$SOLIDHIST
280
    1
  9
$SHOWHIST
280
    1
  9
$DWFFRAME
280
    2
  9
$DGNFRAME
280
    0
  9
$REALWORLDSCALE
290
    1
  9
$INTERFERECOLOR
 62
    1
  9
$CSHADOW
280
    0
  9
$SHADOWPLANELOCATION
 40
0
  0
ENDSEC
  0
SECTION
  2
CLASSES
  0
ENDSEC
  0
SECTION
  2
TABLES
  0
TABLE
  2
VPORT
  5
8
330
0
100
AcDbSymbolTable
 70
    1
  0
VPORT
  5
31
330
2
100
AcDbSymbolTableRecord
100
AcDbViewportTableRecord
  2
*ACTIVE
 70
    0
 10
0
 20
0
 11
1
 21
1
 12
75.15196632480776
 22
58.37449782794108
 13
0
 23
0
 14
10
 24
10
 15
10
 25
10
 16
0
 26
0
 36
1
 17
0
 27
0
 37
0
 40
216.3045525215869
 41
1.38974358974359
 42
50
 43
0
 44
0
 50
0
 51
0
 71
    0
 72
  100
 73
    1
 74
    3
 75
    0
 76
    1
 77
    0
 78
    0
281
    0
 65
    1
110
0
120
0
130
0
111
1
121
0
131
0
112
0
122
1
132
0
 79
    0
146
0
348
10020
 60
    7
 61
    5
292
1
282
    1
141
0
142
0
 63
  250
421
3358443
  0
ENDTAB
  0
TABLE
  2
LTYPE
  5
5
330
0
100
AcDbSymbolTable
 70
    4
  0
LTYPE
  5
14
330
5
100
AcDbSymbolTableRecord
100
AcDbLinetypeTableRecord
  2
ByBlock
 70
    0
  3

 72
   65
 73
    0
 40
0
  0
LTYPE
  5
15
330
5
100
AcDbSymbolTableRecord
100
AcDbLinetypeTableRecord
  2
ByLayer
 70
    0
  3

 72
   65
 73
    0
 40
0
  0
LTYPE
  5
16
330
5
100
AcDbSymbolTableRecord
100
AcDbLinetypeTableRecord
  2
Continuous
 70
    0
  3
Solid line
 72
   65
 73
    0
 40
0
  0
LTYPE
  5
32
330
5
100
AcDbSymbolTableRecord
100
AcDbLinetypeTableRecord
  2
DOT
 70
    0
  3
Dot . . . . . . . . . . . . . . . . . . . . . .
 72
   65
 73
    2
 40
6.35
 49
0
 74
    0
 49
-6.35
 74
    0
  0
LTYPE
  5
33
330
5
100
AcDbSymbolTableRecord
100
AcDbLinetypeTableRecord
  2
DOTTINY
 70
    0
  3
Dot (.15x) .....................................
 72
   65
 73
    2
 40
0.9525
 49
0
 74
    0
 49
-0.9525
 74
    0
  0
LTYPE
  5
34
330
5
100
AcDbSymbolTableRecord
100
AcDbLinetypeTableRecord
  2
DOT2
 70
    0
  3
Dot (.5x) .....................................
 72
   65
 73
    2
 40
3.175
 49
0
 74
    0
 49
-3.175
 74
    0
  0
LTYPE
  5
35
330
5
100
AcDbSymbolTableRecord
100
AcDbLinetypeTableRecord
  2
DOTX2
 70
    0
  3
Dot (2x) .  .  .  .  .  .  .  .  .  .  .  .  .
 72
   65
 73
    2
 40
12.7
 49
0
 74
    0
 49
-12.7
 74
    0
  0
LTYPE
  5
36
330
5
100
AcDbSymbolTableRecord
100
AcDbLinetypeTableRecord
  2
DASHED
 70
    0
  3
Dashed _ _ _ _ _ _ _ _ _ _ _ _ _ _ _ _ _
 72
   65
 73
    2
 40
19.05
 49
12.7
 74
    0
 49
-6.35
 74
    0
  0
LTYPE
  5
37
330
5
100
AcDbSymbolTableRecord
100
AcDbLinetypeTableRecord
  2
DASHEDTINY
 70
    0
  3
Dashed (.15x) _ _ _ _ _ _ _ _ _ _ _ _ _ _ _ _ _
 72
   65
 73
    2
 40
2.8575
 49
1.905
 74
    0
 49
-0.9525
 74
    0
  0
LTYPE
  5
38
330
5
100
AcDbSymbolTableRecord
100
AcDbLinetypeTableRecord
  2
DASHED2
 70
    0
  3
Dashed (.5x) _ _ _ _ _ _ _ _ _ _ _ _ _ _ _ _ _
 72
   65
 73
    2
 40
9.524999999999999
 49
6.35
 74
    0
 49
-3.175
 74
    0
  0
LTYPE
  5
39
330
5
100
AcDbSymbolTableRecord
100
AcDbLinetypeTableRecord
  2
DASHEDX2
 70
    0
  3
Dashed (2x) ____  ____  ____  ____  ____  ___
 72
   65
 73
    2
 40
38.09999999999999
 49
25.4
 74
    0
 49
-12.7
 74
    0
  0
LTYPE
  5
3A
330
5
100
AcDbSymbolTableRecord
100
AcDbLinetypeTableRecord
  2
DASHDOT
 70
    0
  3
Dash dot __ . __ . __ . __ . __ . __ . __ . __
 72
   65
 73
    4
 40
25.4
 49
12.7
 74
    0
 49
-6.35
 74
    0
 49
0
 74
    0
 49
-6.35
 74
    0
  0
LTYPE
  5
3B
330
5
100
AcDbSymbolTableRecord
100
AcDbLinetypeTableRecord
  2
DASHDOTTINY
 70
    0
  3
Dash dot (.15x) _._._._._._._._._._._._._._._.
 72
   65
 73
    4
 40
3.81
 49
1.905
 74
    0
 49
-0.9525
 74
    0
 49
0
 74
    0
 49
-0.9525
 74
    0
  0
LTYPE
  5
3C
330
5
100
AcDbSymbolTableRecord
100
AcDbLinetypeTableRecord
  2
DASHDOT2
 70
    0
  3
Dash dot (.5x) _._._._._._._._._._._._._._._.
 72
   65
 73
    4
 40
12.7
 49
6.35
 74
    0
 49
-3.175
 74
    0
 49
0
 74
    0
 49
-3.175
 74
    0
  0
LTYPE
  5
3D
330
5
100
AcDbSymbolTableRecord
100
AcDbLinetypeTableRecord
  2
DASHDOTX2
 70
    0
  3
Dash dot (2x) ____  .  ____  .  ____  .  ___
 72
   65
 73
    4
 40
50.8
 49
25.4
 74
    0
 49
-12.7
 74
    0
 49
0
 74
    0
 49
-12.7
 74
    0
  0
LTYPE
  5
3E
330
5
100
AcDbSymbolTableRecord
100
AcDbLinetypeTableRecord
  2
DIVIDE
 70
    0
  3
Divide ____ . . ____ . . ____ . . ____ . . ____
 72
   65
 73
    6
 40
31.75
 49
12.7
 74
    0
 49
-6.35
 74
    0
 49
0
 74
    0
 49
-6.35
 74
    0
 49
0
 74
    0
 49
-6.35
 74
    0
  0
LTYPE
  5
3F
330
5
100
AcDbSymbolTableRecord
100
AcDbLinetypeTableRecord
  2
DIVIDETINY
 70
    0
  3
Divide (.15x) __..__..__..__..__..__..__..__.._
 72
   65
 73
    6
 40
4.7625
 49
1.905
 74
    0
 49
-0.9525
 74
    0
 49
0
 74
    0
 49
-0.9525
 74
    0
 49
0
 74
    0
 49
-0.9525
 74
    0
  0
LTYPE
  5
40
330
5
100
AcDbSymbolTableRecord
100
AcDbLinetypeTableRecord
  2
DIVIDE2
 70
    0
  3
Divide (.5x) __..__..__..__..__..__..__..__.._
 72
   65
 73
    6
 40
15.875
 49
6.35
 74
    0
 49
-3.175
 74
    0
 49
0
 74
    0
 49
-3.175
 74
    0
 49
0
 74
    0
 49
-3.175
 74
    0
  0
LTYPE
  5
41
330
5
100
AcDbSymbolTableRecord
100
AcDbLinetypeTableRecord
  2
DIVIDEX2
 70
    0
  3
Divide (2x) ________  .  .  ________  .  .  _
 72
   65
 73
    6
 40
63.5
 49
25.4
 74
    0
 49
-12.7
 74
    0
 49
0
 74
    0
 49
-12.7
 74
    0
 49
0
 74
    0
 49
-12.7
 74
    0
  0
LTYPE
  5
42
330
5
100
AcDbSymbolTableRecord
100
AcDbLinetypeTableRecord
  2
BORDER
 70
    0
  3
Border __ __ . __ __ . __ __ . __ __ . __ __ .
 72
   65
 73
    6
 40
44.45
 49
12.7
 74
    0
 49
-6.35
 74
    0
 49
12.7
 74
    0
 49
-6.35
 74
    0
 49
0
 74
    0
 49
-6.35
 74
    0
  0
LTYPE
  5
43
330
5
100
AcDbSymbolTableRecord
100
AcDbLinetypeTableRecord
  2
BORDERTINY
 70
    0
  3
Border (.15x) __.__.__.__.__.__.__.__.__.__.__.
 72
   65
 73
    6
 40
6.6675
 49
1.905
 74
    0
 49
-0.9525
 74
    0
 49
1.905
 74
    0
 49
-0.9525
 74
    0
 49
0
 74
    0
 49
-0.9525
 74
    0
  0
LTYPE
  5
44
330
5
100
AcDbSymbolTableRecord
100
AcDbLinetypeTableRecord
  2
BORDER2
 70
    0
  3
Border (.5x) __.__.__.__.__.__.__.__.__.__.__.
 72
   65
 73
    6
 40
22.225
 49
6.35
 74
    0
 49
-3.175
 74
    0
 49
6.35
 74
    0
 49
-3.175
 74
    0
 49
0
 74
    0
 49
-3.175
 74
    0
  0
LTYPE
  5
45
330
5
100
AcDbSymbolTableRecord
100
AcDbLinetypeTableRecord
  2
BORDERX2
 70
    0
  3
Border (2x) ____  ____  .  ____  ____  .  ___
 72
   65
 73
    6
 40
88.89999999999999
 49
25.4
 74
    0
 49
-12.7
 74
    0
 49
25.4
 74
    0
 49
-12.7
 74
    0
 49
0
 74
    0
 49
-12.7
 74
    0
  0
LTYPE
  5
46
330
5
100
AcDbSymbolTableRecord
100
AcDbLinetypeTableRecord
  2
CENTER
 70
    0
  3
Center ____ _ ____ _ ____ _ ____ _ ____ _ ____
 72
   65
 73
    4
 40
50.8
 49
31.75
 74
    0
 49
-6.35
 74
    0
 49
6.35
 74
    0
 49
-6.35
 74
    0
  0
LTYPE
  5
47
330
5
100
AcDbSymbolTableRecord
100
AcDbLinetypeTableRecord
  2
CENTERTINY
 70
    0
  3
Center (.15x) ___ _ ___ _ ___ _ ___ _ ___ _ ___
 72
   65
 73
    4
 40
7.619999999999999
 49
4.7625
 74
    0
 49
-0.9525
 74
    0
 49
0.9525
 74
    0
 49
-0.9525
 74
    0
  0
LTYPE
  5
48
330
5
100
AcDbSymbolTableRecord
100
AcDbLinetypeTableRecord
  2
CENTER2
 70
    0
  3
Center (.5x) ___ _ ___ _ ___ _ ___ _ ___ _ ___
 72
   65
 73
    4
 40
28.575
 49
19.05
 74
    0
 49
-3.175
 74
    0
 49
3.175
 74
    0
 49
-3.175
 74
    0
  0
LTYPE
  5
49
330
5
100
AcDbSymbolTableRecord
100
AcDbLinetypeTableRecord
  2
CENTERX2
 70
    0
  3
Center (2x) ________  __  ________  __  _____
 72
   65
 73
    4
 40
101.6
 49
63.5
 74
    0
 49
-12.7
 74
    0
 49
12.7
 74
    0
 49
-12.7
 74
    0
  0
ENDTAB
  0
TABLE
  2
LAYER
  5
2
330
0
100
AcDbSymbolTable
 70
    1
  0
LAYER
  5
10
330
2
100
AcDbSymbolTableRecord
100
AcDbLayerTableRecord
  2
0
 70
    4
 62
    7
  6
CONTINUOUS
370
    0
390
F
  0
LAYER
  5
4A
330
2
100
AcDbSymbolTableRecord
100
AcDbLayerTableRecord
  2
ajour
 70
    4
 62
    4
  6
CONTINUOUS
370
   -3
390
F
  0
LAYER
  5
4B
330
2
100
AcDbSymbolTableRecord
100
AcDbLayerTableRecord
  2
ext1
 70
    4
 62
    6
  6
CONTINUOUS
370
    0
390
F
  0
LAYER
  5
4C
330
2
100
AcDbSymbolTableRecord
100
AcDbLayerTableRecord
  2
ext2
 70
    4
 62
  216
420
8388736
  6
CONTINUOUS
370
   -3
390
F
  0
LAYER
  5
4D
330
2
100
AcDbSymbolTableRecord
100
AcDbLayerTableRecord
  2
ext3
 70
    4
 62
  176
420
  128
  6
CONTINUOUS
370
   -3
390
F
  0
LAYER
  5
4E
330
2
100
AcDbSymbolTableRecord
100
AcDbLayerTableRecord
  2
int
 70
    4
 62
    3
  6
CONTINUOUS
370
   -3
390
F
  0
LAYER
  5
4F
330
2
100
AcDbSymbolTableRecord
100
AcDbLayerTableRecord
  2
logo
 70
    0
 62
    7
  6
CONTINUOUS
370
    0
390
F
  0
ENDTAB
  0
TABLE
  2
STYLE
  5
3
330
0
100
AcDbSymbolTable
 70
    3
  0
STYLE
  5
50
330
2
100
AcDbSymbolTableRecord
100
AcDbTextStyleTableRecord
  2
Standard
 70
    0
 40
0
 41
1
 50
0
 71
    0
 42
1
  3
txt
  4

  0
ENDTAB
  0
TABLE
  2
VIEW
  5
6
330
0
100
AcDbSymbolTable
 70
    0
  0
ENDTAB
  0
TABLE
  2
UCS
  5
7
330
0
100
AcDbSymbolTable
 70
    0
  0
ENDTAB
  0
TABLE
  2
APPID
  5
9
330
0
100
AcDbSymbolTable
 70
    1
  0
APPID
  5
12
330
9
100
AcDbSymbolTableRecord
100
AcDbRegAppTableRecord
  2
ACAD
 70
    0
  0
APPID
  5
51
330
9
100
AcDbSymbolTableRecord
100
AcDbRegAppTableRecord
  2
LibreCad
 70
    0
  0
ENDTAB
  0
TABLE
  2
DIMSTYLE
  5
A
330
0
100
AcDbSymbolTable
 70
    1
100
AcDbDimStyleTable
 71
    1
  0
DIMSTYLE
105
52
330
A
100
AcDbSymbolTableRecord
100
AcDbDimStyleTableRecord
  2
Standard
 70
    0
 40
1
 41
2.5
 42
0.625
 43
0.38
 44
1.25
 45
0
 46
0
 47
0
 48
0
 49
1
140
2.5
141
0.09
142
2.5
143
25.4
144
1
145
0
146
1
147
0.625
148
0
 71
    0
 72
    0
 73
    0
 74
    1
 75
    0
 76
    0
 77
    0
 78
    1
 79
    0
170
    0
171
    2
172
    0
173
    0
174
    0
175
    0
176
    0
177
    0
178
    0
179
    0
271
    2
272
    4
273
    2
274
    2
275
    0
276
    0
277
    2
278
    0
279
    0
280
    0
281
    0
282
    0
283
    1
284
    0
285
    0
286
    0
288
    0
289
    3
340
standard
341

371
   -2
372
   -2
  0
ENDTAB
  0
TABLE
  2
BLOCK_RECORD
  5
1
330
0
100
AcDbSymbolTable
 70
    2
  0
BLOCK_RECORD
  5
1F
330
1
100
AcDbSymbolTableRecord
100
AcDbBlockTableRecord
  2
*Model_Space
 70
    0
280
    1
281
    0
  0
BLOCK_RECORD
  5
1E
330
1
100
AcDbSymbolTableRecord
100
AcDbBlockTableRecord
  2
*Paper_Space
 70
    0
280
    1
281
    0
  0
ENDTAB
  0
ENDSEC
  0
SECTION
  2
BLOCKS
  0
BLOCK
  5
20
330
1F
100
AcDbEntity
  8
0
100
AcDbBlockBegin
  2
*Model_Space
 70
    0
 10
0
 20
0
 30
0
  3
*Model_Space
  1

  0
ENDBLK
  5
21
330
1F
100
AcDbEntity
  8
0
100
AcDbBlockEnd
  0
BLOCK
  5
1C
330
1B
100
AcDbEntity
  8
0
100
AcDbBlockBegin
  2
*Paper_Space
 70
    0
 10
0
 20
0
 30
0
  3
*Paper_Space
  1

  0
ENDBLK
  5
1D
330
1F
100
AcDbEntity
  8
0
100
AcDbBlockEnd
  0
ENDSEC
  0
SECTION
  2
ENTITIES
  0
ARC
  5
53
100
AcDbEntity
  8
ext1
  6
ByLayer
 62
  256
370
   -1
100
AcDbCircle
 10
-1.77635683940025e-15
 20
93.00516369205829
 40
49.75
100
AcDbArc
 50
245.9637565556197
 51
294.0362434443803
  0
LINE
  5
54
100
AcDbEntity
  8
ext1
  6
ByLayer
 62
  256
370
   -1
100
AcDbLine
 10
20.2638934282874
 20
47.56908636217635
 11
44.41620594961111
 21
58.34070036893652
  0
ARC
  5
55
100
AcDbEntity
  8
ext1
  6
ByLayer
 62
  256
370
   -1
100
AcDbCircle
 10
64.88375659828328
 20
12.44797904578945
 40
50.25
100
AcDbArc
 50
87.01450126089269
 51
114.0362434443803
  0
LINE
  5
56
100
AcDbEntity
  8
ext1
  6
ByLayer
 62
  256
370
   -1
100
AcDbLine
 10
125.3058494231158
 20
59.61502022398723
 11
67.50093773388743
 21
62.62977716924688
  0
ARC
  5
57
100
AcDbEntity
  8
ext1
  6
ByLayer
 62
  256
370
   -1
100
AcDbCircle
 10
125.0324125880527
 20
54.37214579317826
 40
5.25
100
AcDbArc
 50
10.00000003879795
 51
87.01450126089276
  0
LINE
  5
58
100
AcDbEntity
  8
ext1
  6
ByLayer
 62
  256
370
   -1
100
AcDbLine
 10
130.2026532907495
 20
55.28379872943066
 11
138.7143231827214
 21
7.011720207647148
  0
ARC
  5
59
100
AcDbEntity
  8
ext1
  6
ByLayer
 62
  256
370
   -1
100
AcDbCircle
 10
89.22773359976658
 20
-1.714100753626031
 40
50.25
100
AcDbArc
 50
2.874983586140003
 51
10.00000003879792
  0
LINE
  5
5A
100
AcDbEntity
  8
ext1
  6
ByLayer
 62
  256
370
   -1
100
AcDbLine
 10
139.4144865285102
 20
0.8062822468803219
 11
140.2068894869791
 21
-14.97232421439866
  0
ARC
  5
5B
100
AcDbEntity
  8
ext1
  6
ByLayer
 62
  256
370
   -1
100
AcDbCircle
 10
134.9634973899463
 20
-15.23564781146648
 40
5.25
100
AcDbArc
 50
279.9999999497308
 51
2.874983586140003
  0
LINE
  5
5C
100
AcDbEntity
  8
ext1
  6
ByLayer
 62
  256
370
   -1
100
AcDbLine
 10
135.8751503181615
 20
-20.40588851558044
 11
73.66785464907275
 21
-31.37471308267415
  0
ARC
  5
5D
100
AcDbEntity
  8
ext1
  6
ByLayer
 62
  256
370
   -1
100
AcDbCircle
 10
74.4926834888865
 20
-36.0525499102058
 40
4.75
100
AcDbArc
 50
99.99999994973064
 51
170.0094741984418
  0
ARC
  5
5E
100
AcDbEntity
  8
ext1
  6
ByLayer
 62
  256
370
   -1
100
AcDbCircle
 10
64.64431895579615
 20
-34.31769659555164
 40
5.25
100
AcDbArc
 50
280.4111149261592
 51
350.0094741984419
  0
LINE
  5
5F
100
AcDbEntity
  8
ext1
  6
ByLayer
 62
  256
370
   -1
100
AcDbLine
 10
65.5930461770529
 20
-39.48126286893737
 11
24.27567106856828
 21
-47.07270575954898
  0
ARC
  5
60
100
AcDbEntity
  8
ext1
  6
ByLayer
 62
  256
370
   -1
100
AcDbCircle
 10
15.19499623653931
 20
2.349999999999977
 40
50.25
100
AcDbArc
 50
270
 51
280.4111149261594
  0
LINE
  5
61
100
AcDbEntity
  8
ext1
  6
ByLayer
 62
  256
370
   -1
100
AcDbLine
 10
-20.2638934282874
 20
47.56908636217635
 11
-44.41620594961111
 21
58.34070036893655
  0
ARC
  5
62
100
AcDbEntity
  8
ext1
  6
ByLayer
 62
  256
370
   -1
100
AcDbCircle
 10
-64.88375659828328
 20
12.44797904578946
 40
50.25
100
AcDbArc
 50
65.9637565556197
 51
92.98549873910731
  0
LINE
  5
63
100
AcDbEntity
  8
ext1
  6
ByLayer
 62
  256
370
   -1
100
AcDbLine
 10
-125.3058494231158
 20
59.61502022398717
 11
-67.50093773388743
 21
62.62977716924688
  0
ARC
  5
64
100
AcDbEntity
  8
ext1
  6
ByLayer
 62
  256
370
   -1
100
AcDbCircle
 10
-125.0324125880527
 20
54.37214579317826
 40
5.25
100
AcDbArc
 50
92.98549873910724
 51
169.9999999612021
  0
LINE
  5
65
100
AcDbEntity
  8
ext1
  6
ByLayer
 62
  256
370
   -1
100
AcDbLine
 10
-130.2026532907495
 20
55.28379872943063
 11
-138.7143231827214
 21
7.011720207647148
  0
ARC
  5
66
100
AcDbEntity
  8
ext1
  6
ByLayer
 62
  256
370
   -1
100
AcDbCircle
 10
-89.22773359976658
 20
-1.714100753626045
 40
50.25
100
AcDbArc
 50
169.9999999612021
 51
177.12501641386
  0
LINE
  5
67
100
AcDbEntity
  8
ext1
  6
ByLayer
 62
  256
370
   -1
100
AcDbLine
 10
-139.4144865285102
 20
0.8062822468803148
 11
-140.2068894869791
 21
-14.97232421439864
  0
ARC
  5
68
100
AcDbEntity
  8
ext1
  6
ByLayer
 62
  256
370
   -1
100
AcDbCircle
 10
-134.9634973899463
 20
-15.23564781146647
 40
5.25
100
AcDbArc
 50
177.12501641386
 51
260.0000000502692
  0
LINE
  5
69
100
AcDbEntity
  8
ext1
  6
ByLayer
 62
  256
370
   -1
100
AcDbLine
 10
-135.8751503181615
 20
-20.40588851558044
 11
-73.66785464907275
 21
-31.37471308267415
  0
ARC
  5
6A
100
AcDbEntity
  8
ext1
  6
ByLayer
 62
  256
370
   -1
100
AcDbCircle
 10
-74.4926834888865
 20
-36.05254991020581
 40
4.75
100
AcDbArc
 50
9.99052580155818
 51
80.00000005026936
  0
ARC
  5
6B
100
AcDbEntity
  8
ext1
  6
ByLayer
 62
  256
370
   -1
100
AcDbCircle
 10
-64.64431895579615
 20
-34.31769659555163
 40
5.25
100
AcDbArc
 50
189.9905258015581
 51
259.5888850738408
  0
LINE
  5
6C
100
AcDbEntity
  8
ext1
  6
ByLayer
 62
  256
370
   -1
100
AcDbLine
 10
-65.5930461770529
 20
-39.48126286893738
 11
-24.27567106856829
 21
-47.07270575954899
  0
ARC
  5
6D
100
AcDbEntity
  8
ext1
  6
ByLayer
 62
  256
370
   -1
100
AcDbCircle
 10
-15.19499623653931
 20
2.349999999999962
 40
50.25
100
AcDbArc
 50
259.5888850738406
 51
270
  0
LINE
  5
6E
100
AcDbEntity
  8
ext1
  6
ByLayer
 62
  256
370
   -1
100
AcDbLine
 10
15.19499623653932
 20
-47.90000000000001
 11
-15.1949962365393
 21
-47.90000000000001
  0
ARC
  5
6F
100
AcDbEntity
  8
ext2
  6
ByLayer
 62
  256
370
   -1
100
AcDbCircle
 10
-125.0324125880527
 20
54.37214579317826
 40
10.25
100
AcDbArc
 50
92.98549873910724
 51
169.9999999612021
  0
LINE
  5
70
100
AcDbEntity
  8
ext2
  6
ByLayer
 62
  256
370
   -1
100
AcDbLine
 10
-135.1266920552225
 20
56.15203962109962
 11
-143.6383619471945
 21
7.879961099316137
  0
ARC
  5
71
100
AcDbEntity
  8
ext2
  6
ByLayer
 62
  256
370
   -1
100
AcDbCircle
 10
-89.22773359976658
 20
-1.714100753626045
 40
55.25
100
AcDbArc
 50
169.9999999612021
 51
177.12501641386
  0
LINE
  5
72
100
AcDbEntity
  8
ext2
  6
ByLayer
 62
  256
370
   -1
100
AcDbLine
 10
-144.4081932875892
 20
1.057066625040132
 11
-145.5182108790352
 21
-21.04599413884786
  0
ARC
  5
73
100
AcDbEntity
  8
ext2
  6
ByLayer
 62
  256
370
   -1
100
AcDbCircle
 10
-135.5307973608772
 20
-21.5475628951675
 40
10
100
AcDbArc
 50
177.1250164138602
 51
259.5888850738406
  0
LINE
  5
74
100
AcDbEntity
  8
ext2
  6
ByLayer
 62
  256
370
   -1
100
AcDbLine
 10
-125.5662654565092
 20
64.60823396761478
 11
-52.08320667869008
 21
68.44066888249485
  0
ARC
  5
75
100
AcDbEntity
  8
ext2
  6
ByLayer
 62
  256
370
   -1
100
AcDbCircle
 10
-1.77635683940025e-15
 20
-930.2020798430266
 40
1000
100
AcDbArc
 50
87.01450126089271
 51
92.98549873910736
  0
LINE
  5
76
100
AcDbEntity
  8
ext2
  6
ByLayer
 62
  256
370
   -1
100
AcDbLine
 10
-137.3378968299377
 20
-31.38292722542601
 11
-29.18904533169112
 21
-51.25364330258502
  0
ARC
  5
77
100
AcDbEntity
  8
ext2
  6
ByLayer
 62
  256
370
   -1
100
AcDbCircle
 10
-11.11805064108614
 20
47.09999999999998
 40
100
100
AcDbArc
 50
259.5888850738406
 51
270
  0
ARC
  5
78
100
AcDbEntity
  8
ext2
  6
ByLayer
 62
  256
370
   -1
100
AcDbCircle
 10
11.11805064108597
 20
47.09999999999998
 40
100
100
AcDbArc
 50
270
 51
280.4111149261594
  0
LINE
  5
79
100
AcDbEntity
  8
ext2
  6
ByLayer
 62
  256
370
   -1
100
AcDbLine
 10
11.11805064108595
 20
-52.90000000000002
 11
-11.11805064108616
 21
-52.90000000000002
  0
ARC
  5
7A
100
AcDbEntity
  8
ext2
  6
ByLayer
 62
  256
370
   -1
100
AcDbCircle
 10
125.0324125880527
 20
54.37214579317826
 40
10.25
100
AcDbArc
 50
10.00000003879795
 51
87.01450126089276
  0
LINE
  5
7B
100
AcDbEntity
  8
ext2
  6
ByLayer
 62
  256
370
   -1
100
AcDbLine
 10
135.1266920552225
 20
56.15203962109959
 11
143.6383619471945
 21
7.879961099316137
  0
ARC
  5
7C
100
AcDbEntity
  8
ext2
  6
ByLayer
 62
  256
370
   -1
100
AcDbCircle
 10
89.22773359976658
 20
-1.71410075362606
 40
55.25
100
AcDbArc
 50
2.874983586140003
 51
10.00000003879792
  0
LINE
  5
7D
100
AcDbEntity
  8
ext2
  6
ByLayer
 62
  256
370
   -1
100
AcDbLine
 10
144.4081932875892
 20
1.05706662504009
 11
145.5182108790352
 21
-21.04599413884785
  0
ARC
  5
7E
100
AcDbEntity
  8
ext2
  6
ByLayer
 62
  256
370
   -1
100
AcDbCircle
 10
135.5307973608772
 20
-21.54756289516749
 40
10
100
AcDbArc
 50
280.4111149261594
 51
2.874983586139749
  0
LINE
  5
7F
100
AcDbEntity
  8
ext2
  6
ByLayer
 62
  256
370
   -1
100
AcDbLine
 10
125.5662654565092
 20
64.60823396761481
 11
52.08320667869008
 21
68.44066888249479
  0
LINE
  5
80
100
AcDbEntity
  8
ext2
  6
ByLayer
 62
  256
370
   -1
100
AcDbLine
 10
137.3378968299377
 20
-31.38292722542602
 11
29.18904533169112
 21
-51.25364330258501
  0
ARC
  5
81
100
AcDbEntity
  8
ext3
  6
ByLayer
 62
  256
370
   -1
100
AcDbCircle
 10
-1.77635683940025e-15
 20
-930.2020798430266
 40
1002
100
AcDbArc
 50
87.01450126089271
 51
92.98549873910736
  0
LINE
  5
82
100
AcDbEntity
  8
ext3
  6
ByLayer
 62
  256
370
   -1
100
AcDbLine
 10
125.6704318698666
 20
66.60551946506585
 11
52.18737309204745
 21
70.43795437994584
  0
ARC
  5
83
100
AcDbEntity
  8
ext3
  6
ByLayer
 62
  256
370
   -1
100
AcDbCircle
 10
125.0324125880527
 20
54.37214579317826
 40
12.25
100
AcDbArc
 50
10.00000003879795
 51
87.01450126089276
  0
LINE
  5
84
100
AcDbEntity
  8
ext3
  6
ByLayer
 62
  256
370
   -1
100
AcDbLine
 10
137.0963075610118
 20
56.49933597776719
 11
145.6079774529837
 21
8.227257455983729
  0
ARC
  5
85
100
AcDbEntity
  8
ext3
  6
ByLayer
 62
  256
370
   -1
100
AcDbCircle
 10
89.22773359976658
 20
-1.71410075362606
 40
57.25
100
AcDbArc
 50
2.874983586140003
 51
10.00000003879792
  0
LINE
  5
86
100
AcDbEntity
  8
ext3
  6
ByLayer
 62
  256
370
   -1
100
AcDbLine
 10
146.4056759912208
 20
1.157380376304015
 11
147.5156935826668
 21
-20.94568038758392
  0
ARC
  5
87
100
AcDbEntity
  8
ext3
  6
ByLayer
 62
  256
370
   -1
100
AcDbCircle
 10
135.5307973608772
 20
-21.54756289516749
 40
12
100
AcDbArc
 50
280.4111149261594
 51
2.874983586139749
  0
LINE
  5
88
100
AcDbEntity
  8
ext3
  6
ByLayer
 62
  256
370
   -1
100
AcDbLine
 10
137.6993167237498
 20
-33.35000009147772
 11
29.55046522550322
 21
-53.22071616863671
  0
ARC
  5
89
100
AcDbEntity
  8
ext3
  6
ByLayer
 62
  256
370
   -1
100
AcDbCircle
 10
11.11805064108597
 20
47.09999999999998
 40
102
100
AcDbArc
 50
270
 51
280.4111149261594
  0
LINE
  5
8A
100
AcDbEntity
  8
ext3
  6
ByLayer
 62
  256
370
   -1
100
AcDbLine
 10
11.11805064108595
 20
-54.90000000000002
 11
-11.11805064108616
 21
-54.90000000000002
  0
ARC
  5
8B
100
AcDbEntity
  8
ext3
  6
ByLayer
 62
  256
370
   -1
100
AcDbCircle
 10
-11.11805064108614
 20
47.09999999999998
 40
102
100
AcDbArc
 50
259.5888850738406
 51
270
  0
LINE
  5
8C
100
AcDbEntity
  8
ext3
  6
ByLayer
 62
  256
370
   -1
100
AcDbLine
 10
-137.6993167237498
 20
-33.3500000914777
 11
-29.55046522550322
 21
-53.22071616863672
  0
ARC
  5
8D
100
AcDbEntity
  8
ext3
  6
ByLayer
 62
  256
370
   -1
100
AcDbCircle
 10
-135.5307973608772
 20
-21.5475628951675
 40
12
100
AcDbArc
 50
177.1250164138602
 51
259.5888850738406
  0
LINE
  5
8E
100
AcDbEntity
  8
ext3
  6
ByLayer
 62
  256
370
   -1
100
AcDbLine
 10
-146.4056759912208
 20
1.157380376304058
 11
-147.5156935826668
 21
-20.94568038758393
  0
ARC
  5
8F
100
AcDbEntity
  8
ext3
  6
ByLayer
 62
  256
370
   -1
100
AcDbCircle
 10
-89.22773359976658
 20
-1.714100753626045
 40
57.25
100
AcDbArc
 50
169.9999999612021
 51
177.12501641386
  0
LINE
  5
90
100
AcDbEntity
  8
ext3
  6
ByLayer
 62
  256
370
   -1
100
AcDbLine
 10
-137.0963075610118
 20
56.49933597776722
 11
-145.6079774529837
 21
8.227257455983729
  0
ARC
  5
91
100
AcDbEntity
  8
ext3
  6
ByLayer
 62
  256
370
   -1
100
AcDbCircle
 10
-125.0324125880527
 20
54.37214579317826
 40
12.25
100
AcDbArc
 50
92.98549873910724
 51
169.9999999612021
  0
LINE
  5
92
100
AcDbEntity
  8
ext3
  6
ByLayer
 62
  256
370
   -1
100
AcDbLine
 10
-125.6704318698666
 20
66.60551946506583
 11
-52.18737309204746
 21
70.43795437994589
  0
ARC
  5
93
100
AcDbEntity
  8
int
  6
ByLayer
 62
  256
370
   -1
100
AcDbCircle
 10
-64.88375659828328
 20
12.44797904578946
 40
48.25
100
AcDbArc
 50
65.9637565556197
 51
92.98549873910731
  0
LINE
  5
94
100
AcDbEntity
  8
int
  6
ByLayer
 62
  256
370
   -1
100
AcDbLine
 10
-21.0785223098266
 20
45.74251038911576
 11
-45.2308348311503
 21
56.51412439587597
  0
ARC
  5
95
100
AcDbEntity
  8
int
  6
ByLayer
 62
  256
370
   -1
100
AcDbCircle
 10
-1.77635683940025e-15
 20
93.00516369205829
 40
51.75
100
AcDbArc
 50
245.9637565556197
 51
294.0362434443803
  0
LINE
  5
96
100
AcDbEntity
  8
int
  6
ByLayer
 62
  256
370
   -1
100
AcDbLine
 10
21.07852230982659
 20
45.74251038911576
 11
45.2308348311503
 21
56.51412439587594
  0
LINE
  5
97
100
AcDbEntity
  8
int
  6
ByLayer
 62
  256
370
   -1
100
AcDbLine
 10
-125.2016830097584
 20
57.61773472653613
 11
-67.39677132053005
 21
60.63249167179583
  0
LINE
  5
98
100
AcDbEntity
  8
int
  6
ByLayer
 62
  256
370
   -1
100
AcDbLine
 10
-128.2330377849602
 20
54.93650237276303
 11
-136.7447076769321
 21
6.664423850979556
  0
ARC
  5
99
100
AcDbEntity
  8
int
  6
ByLayer
 62
  256
370
   -1
100
AcDbCircle
 10
-89.22773359976658
 20
-1.714100753626045
 40
48.25
100
AcDbArc
 50
169.9999999612021
 51
177.12501641386
  0
LINE
  5
9A
100
AcDbEntity
  8
int
  6
ByLayer
 62
  256
370
   -1
100
AcDbLine
 10
-137.4170038248786
 20
0.7059684956163856
 11
-138.2094067833475
 21
-15.07263796566257
  0
ARC
  5
9B
100
AcDbEntity
  8
int
  6
ByLayer
 62
  256
370
   -1
100
AcDbCircle
 10
-134.9634973899463
 20
-15.23564781146647
 40
3.25
100
AcDbArc
 50
177.12501641386
 51
260.0000000502692
  0
LINE
  5
9C
100
AcDbEntity
  8
int
  6
ByLayer
 62
  256
370
   -1
100
AcDbLine
 10
-135.5278539645557
 20
-18.43627300925132
 11
-73.32055829546697
 21
-29.40509757634503
  0
ARC
  5
9D
100
AcDbEntity
  8
int
  6
ByLayer
 62
  256
370
   -1
100
AcDbCircle
 10
-74.4926834888865
 20
-36.05254991020581
 40
6.75
100
AcDbArc
 50
9.99052580155818
 51
80.00000005026936
  0
ARC
  5
9E
100
AcDbEntity
  8
int
  6
ByLayer
 62
  256
370
   -1
100
AcDbCircle
 10
-64.64431895579615
 20
-34.31769659555163
 40
3.25
100
AcDbArc
 50
189.9905258015581
 51
259.5888850738408
  0
LINE
  5
9F
100
AcDbEntity
  8
int
  6
ByLayer
 62
  256
370
   -1
100
AcDbLine
 10
-65.2316262832408
 20
-37.51419000288568
 11
-23.91425117475619
 21
-45.10563289349729
  0
ARC
  5
A0
100
AcDbEntity
  8
int
  6
ByLayer
 62
  256
370
   -1
100
AcDbCircle
 10
-15.19499623653931
 20
2.349999999999962
 40
48.25
100
AcDbArc
 50
259.5888850738406
 51
270
  0
LINE
  5
A1
100
AcDbEntity
  8
int
  6
ByLayer
 62
  256
370
   -1
100
AcDbLine
 10
15.19499623653932
 20
-45.90000000000001
 11
-15.1949962365393
 21
-45.90000000000001
  0
ARC
  5
A2
100
AcDbEntity
  8
int
  6
ByLayer
 62
  256
370
   -1
100
AcDbCircle
 10
15.19499623653931
 20
2.349999999999977
 40
48.25
100
AcDbArc
 50
270
 51
280.4111149261594
  0
LINE
  5
A3
100
AcDbEntity
  8
int
  6
ByLayer
 62
  256
370
   -1
100
AcDbLine
 10
65.2316262832408
 20
-37.51419000288567
 11
23.91425117475618
 21
-45.10563289349729
  0
ARC
  5
A4
100
AcDbEntity
  8
int
  6
ByLayer
 62
  256
370
   -1
100
AcDbCircle
 10
64.64431895579615
 20
-34.31769659555164
 40
3.25
100
AcDbArc
 50
280.4111149261592
 51
350.0094741984419
  0
ARC
  5
A5
100
AcDbEntity
  8
int
  6
ByLayer
 62
  256
370
   -1
100
AcDbCircle
 10
74.4926834888865
 20
-36.0525499102058
 40
6.75
100
AcDbArc
 50
99.99999994973064
 51
170.0094741984418
  0
LINE
  5
A6
100
AcDbEntity
  8
int
  6
ByLayer
 62
  256
370
   -1
100
AcDbLine
 10
135.5278539645557
 20
-18.43627300925132
 11
73.32055829546697
 21
-29.40509757634503
  0
ARC
  5
A7
100
AcDbEntity
  8
int
  6
ByLayer
 62
  256
370
   -1
100
AcDbCircle
 10
134.9634973899463
 20
-15.23564781146648
 40
3.25
100
AcDbArc
 50
279.9999999497308
 51
2.874983586140003
  0
LINE
  5
A8
100
AcDbEntity
  8
int
  6
ByLayer
 62
  256
370
   -1
100
AcDbLine
 10
137.4170038248786
 20
0.7059684956163963
 11
138.2094067833475
 21
-15.07263796566258
  0
LINE
  5
A9
100
AcDbEntity
  8
int
  6
ByLayer
 62
  256
370
   -1
100
AcDbLine
 10
128.2330377849602
 20
54.93650237276306
 11
136.7447076769321
 21
6.664423850979556
  0
ARC
  5
AA
100
AcDbEntity
  8
int
  6
ByLayer
 62
  256
370
   -1
100
AcDbCircle
 10
89.22773359976658
 20
-1.714100753626031
 40
48.25
100
AcDbArc
 50
2.874983586140003
 51
10.00000003879792
  0
ARC
  5
AB
100
AcDbEntity
  8
int
  6
ByLayer
 62
  256
370
   -1
100
AcDbCircle
 10
125.0324125880527
 20
54.37214579317826
 40
3.25
100
AcDbArc
 50
10.00000003879795
 51
87.01450126089276
  0
LINE
  5
AC
100
AcDbEntity
  8
int
  6
ByLayer
 62
  256
370
   -1
100
AcDbLine
 10
125.2016830097584
 20
57.61773472653618
 11
67.39677132053005
 21
60.63249167179583
  0
ARC
  5
AD
100
AcDbEntity
  8
int
  6
ByLayer
 62
  256
370
   -1
100
AcDbCircle
 10
64.88375659828328
 20
12.44797904578945
 40
48.25
100
AcDbArc
 50
87.01450126089269
 51
114.0362434443803
  0
ARC
  5
AE
100
AcDbEntity
  8
int
  6
ByLayer
 62
  256
370
   -1
100
AcDbCircle
 10
-125.0324125880527
 20
54.37214579317826
 40
3.25
100
AcDbArc
 50
92.98549873910724
 51
169.9999999612021
  0
CIRCLE
  5
AF
100
AcDbEntity
  8
int
  6
ByLayer
 62
  256
370
   -1
100
AcDbCircle
 10
26.84087499999999
 20
-36.24375
 40
4
  0
CIRCLE
  5
B0
100
AcDbEntity
  8
int
  6
ByLayer
 62
  256
370
   -1
100
AcDbCircle
 10
85.96544500000002
 20
-3.274859100000022
 40
4
  0
ARC
  5
B1
100
AcDbEntity
  8
int
  6
ByLayer
 62
  256
370
   -1
100
AcDbCircle
 10
103.1748421260956
 20
40.50361476910945
 40
1
100
AcDbArc
 50
10.00000007919768
 51
100.0000000262639
  0
LINE
  5
B2
100
AcDbEntity
  8
int
  6
ByLayer
 62
  256
370
   -1
100
AcDbLine
 10
104.8629250208114
 20
36.688791453682
 11
104.1596498788678
 21
40.67726294813764
  0
ARC
  5
B3
100
AcDbEntity
  8
int
  6
ByLayer
 62
  256
370
   -1
100
AcDbCircle
 10
103.8781172680392
 20
36.51514327465381
 40
1
100
AcDbArc
 50
280.0000000262639
 51
10.00000007919768
  0
LINE
  5
B4
100
AcDbEntity
  8
int
  6
ByLayer
 62
  256
370
   -1
100
AcDbLine
 10
93.21888025202279
 20
33.6202055779579
 11
104.0517654461576
 21
35.53033552172121
  0
ARC
  5
B5
100
AcDbEntity
  8
int
  6
ByLayer
 62
  256
370
   -1
100
AcDbCircle
 10
93.04523207390443
 20
34.60501333089051
 40
1
100
AcDbArc
 50
190.0000000791975
 51
280.0000000262638
  0
LINE
  5
B6
100
AcDbEntity
  8
int
  6
ByLayer
 62
  256
370
   -1
100
AcDbLine
 10
91.3571491791886
 20
38.419836646318
 11
92.06042432113223
 21
34.43136515186232
  0
LINE
  5
B7
100
AcDbEntity
  8
int
  6
ByLayer
 62
  256
370
   -1
100
AcDbLine
 10
103.0011939479772
 20
41.48842252204204
 11
92.16830875384241
 21
39.57829257827879
  0
ARC
  5
B8
100
AcDbEntity
  8
int
  6
ByLayer
 62
  256
370
   -1
100
AcDbCircle
 10
92.34195693196077
 20
38.59348482534618
 40
1
100
AcDbArc
 50
100.0000000262638
 51
190.000000079197
  0
ARC
  5
B9
100
AcDbEntity
  8
int
  6
ByLayer
 62
  256
370
   -1
100
AcDbCircle
 10
17.29960613196077
 20
25.36149372534618
 40
1
100
AcDbArc
 50
100.0000000262636
 51
190.0000000791973
  0
LINE
  5
BA
100
AcDbEntity
  8
int
  6
ByLayer
 62
  256
370
   -1
100
AcDbLine
 10
27.95884314797721
 20
28.25643142204204
 11
17.12595795384242
 21
26.34630147827878
  0
ARC
  5
BB
100
AcDbEntity
  8
int
  6
ByLayer
 62
  256
370
   -1
100
AcDbCircle
 10
28.13249132609557
 20
27.27162366910944
 40
1
100
AcDbArc
 50
10.00000007919735
 51
100.0000000262636
  0
LINE
  5
BC
100
AcDbEntity
  8
int
  6
ByLayer
 62
  256
370
   -1
100
AcDbLine
 10
29.82057422081137
 20
23.456800353682
 11
29.11729907886775
 21
27.44527184813763
  0
ARC
  5
BD
100
AcDbEntity
  8
int
  6
ByLayer
 62
  256
370
   -1
100
AcDbCircle
 10
28.83576646803919
 20
23.28315217465382
 40
1
100
AcDbArc
 50
280.0000000262638
 51
10.0000000791973
  0
LINE
  5
BE
100
AcDbEntity
  8
int
  6
ByLayer
 62
  256
370
   -1
100
AcDbLine
 10
18.17652945202278
 20
20.38821447795791
 11
29.00941464615754
 21
22.29834442172121
  0
LINE
  5
BF
100
AcDbEntity
  8
int
  6
ByLayer
 62
  256
370
   -1
100
AcDbLine
 10
16.31479837918859
 20
25.18784554631799
 11
17.01807352113224
 21
21.19937405186233
  0
ARC
  5
C0
100
AcDbEntity
  8
int
  6
ByLayer
 62
  256
370
   -1
100
AcDbCircle
 10
18.00288127390441
 20
21.37302223089052
 40
1
100
AcDbArc
 50
190.0000000791973
 51
280.0000000262639
  0
ARC
  5
C1
100
AcDbEntity
  8
int
  6
ByLayer
 62
  256
370
   -1
100
AcDbCircle
 10
56.61226323492285
 20
-4.096975402660966
 40
1
100
AcDbArc
 50
9.999999949730711
 51
99.99999994973058
  0
LINE
  5
C2
100
AcDbEntity
  8
int
  6
ByLayer
 62
  256
370
   -1
100
AcDbLine
 10
57.59707098808742
 20
-3.92332722585807
 11
59.75981389604568
 21
-16.1888518231971
  0
ARC
  5
C3
100
AcDbEntity
  8
int
  6
ByLayer
 62
  256
370
   -1
100
AcDbCircle
 10
58.77500614288113
 20
-16.36249999999999
 40
1
100
AcDbArc
 50
270
 51
9.999999949730634
  0
LINE
  5
C4
100
AcDbEntity
  8
int
  6
ByLayer
 62
  256
370
   -1
100
AcDbLine
 10
39.97093310030291
 20
-17.36249999999999
 11
58.77500614288113
 21
-17.36249999999999
  0
ARC
  5
C5
100
AcDbEntity
  8
int
  6
ByLayer
 62
  256
370
   -1
100
AcDbCircle
 10
39.97093310030291
 20
-16.36249999999999
 40
1
100
AcDbArc
 50
168.3514141580151
 51
270
  0
LINE
  5
C6
100
AcDbEntity
  8
int
  6
ByLayer
 62
  256
370
   -1
100
AcDbLine
 10
40.98776268023885
 20
-6.477392467058667
 11
38.99152871351837
 21
-16.16059148817547
  0
LINE
  5
C7
100
AcDbEntity
  8
int
  6
ByLayer
 62
  256
370
   -1
100
AcDbLine
 10
41.79351889022051
 20
-5.694493225718631
 11
56.43861505811996
 21
-3.112167649496406
  0
ARC
  5
C8
100
AcDbEntity
  8
int
  6
ByLayer
 62
  256
370
   -1
100
AcDbCircle
 10
41.9671670670234
 20
-6.679300978883191
 40
1
100
AcDbArc
 50
99.99999994973058
 51
168.351414158015
  0
ARC
  5
C9
100
AcDbEntity
  8
int
  6
ByLayer
 62
  256
370
   -1
100
AcDbCircle
 10
63.99966783626482
 20
43.26791304679607
 40
1
100
AcDbArc
 50
10.00000000953382
 51
99.99999994973044
  0
LINE
  5
CA
100
AcDbEntity
  8
int
  6
ByLayer
 62
  256
370
   -1
100
AcDbLine
 10
64.98447558924813
 20
43.44156122462687
 11
65.68775072064892
 21
39.45308976160527
  0
ARC
  5
CB
100
AcDbEntity
  8
int
  6
ByLayer
 62
  256
370
   -1
100
AcDbCircle
 10
64.70294296766561
 20
39.27944158377447
 40
1
100
AcDbArc
 50
279.999999949731
 51
10.00000000953382
  0
LINE
  5
CC
100
AcDbEntity
  8
int
  6
ByLayer
 62
  256
370
   -1
100
AcDbLine
 10
54.04370594658487
 20
36.38450390110556
 11
64.87659114446851
 21
38.29463383060991
  0
ARC
  5
CD
100
AcDbEntity
  8
int
  6
ByLayer
 62
  256
370
   -1
100
AcDbCircle
 10
53.87005776978198
 20
37.36931165427012
 40
1
100
AcDbArc
 50
190.0000000791978
 51
279.9999999497306
  0
LINE
  5
CE
100
AcDbEntity
  8
int
  6
ByLayer
 62
  256
370
   -1
100
AcDbLine
 10
52.1819748807596
 20
41.18413493740846
 11
52.88525001700981
 21
37.19566347524193
  0
LINE
  5
CF
100
AcDbEntity
  8
int
  6
ByLayer
 62
  256
370
   -1
100
AcDbLine
 10
52.9931344567289
 20
42.34259086960122
 11
63.82601965946193
 21
44.25272079996064
  0
ARC
  5
D0
100
AcDbEntity
  8
int
  6
ByLayer
 62
  256
370
   -1
100
AcDbCircle
 10
53.1667826335318
 20
41.35778311643665
 40
1
100
AcDbArc
 50
99.99999994973044
 51
190.0000000791976
  0
CIRCLE
  5
D1
100
AcDbEntity
  8
int
  6
ByLayer
 62
  256
370
   -1
100
AcDbCircle
 10
130.7148702
 20
-0.2202973000000199
 40
3
  0
ARC
  5
D2
100
AcDbEntity
  8
int
  6
ByLayer
 62
  256
370
   -1
100
AcDbCircle
 10
3.000000000000002
 20
26.99999999999999
 40
1
100
AcDbArc
 50
0
 51
90
  0
LINE
  5
D3
100
AcDbEntity
  8
int
  6
ByLayer
 62
  256
370
   -1
100
AcDbLine
 10
4.000000000000002
 20
6.000000000000004
 11
4.000000000000002
 21
26.99999999999999
  0
ARC
  5
D4
100
AcDbEntity
  8
int
  6
ByLayer
 62
  256
370
   -1
100
AcDbCircle
 10
3.000000000000001
 20
6.000000000000004
 40
1
100
AcDbArc
 50
270
 51
0
  0
LINE
  5
D5
100
AcDbEntity
  8
int
  6
ByLayer
 62
  256
370
   -1
100
AcDbLine
 10
-3.000000000000002
 20
5.000000000000004
 11
3.000000000000002
 21
5.000000000000004
  0
ARC
  5
D6
100
AcDbEntity
  8
int
  6
ByLayer
 62
  256
370
   -1
100
AcDbCircle
 10
-3.000000000000002
 20
6.000000000000004
 40
1
100
AcDbArc
 50
180
 51
270
  0
LINE
  5
D7
100
AcDbEntity
  8
int
  6
ByLayer
 62
  256
370
   -1
100
AcDbLine
 10
-4.000000000000002
 20
26.99999999999999
 11
-4.000000000000002
 21
6.000000000000004
  0
LINE
  5
D8
100
AcDbEntity
  8
int
  6
ByLayer
 62
  256
370
   -1
100
AcDbLine
 10
3.000000000000002
 20
27.99999999999999
 11
-3.000000000000001
 21
27.99999999999999
  0
ARC
  5
D9
100
AcDbEntity
  8
int
  6
ByLayer
 62
  256
370
   -1
100
AcDbCircle
 10
-3.000000000000002
 20
26.99999999999999
 40
1
100
AcDbArc
 50
89.99999999999994
 51
180
  0
CIRCLE
  5
DA
100
AcDbEntity
  8
int
  6
ByLayer
 62
  256
370
   -1
100
AcDbCircle
 10
-26.84087499999999
 20
-36.24375000000001
 40
4
  0
CIRCLE
  5
DB
100
AcDbEntity
  8
int
  6
ByLayer
 62
  256
370
   -1
100
AcDbCircle
 10
-85.96544500000002
 20
-3.274859100000029
 40
4
  0
ARC
  5
DC
100
AcDbEntity
  8
int
  6
ByLayer
 62
  256
370
   -1
100
AcDbCircle
 10
-103.1748421260956
 20
40.50361476910942
 40
1
100
AcDbArc
 50
79.9999999737361
 51
169.9999999208023
  0
LINE
  5
DD
100
AcDbEntity
  8
int
  6
ByLayer
 62
  256
370
   -1
100
AcDbLine
 10
-104.8629250208114
 20
36.688791453682
 11
-104.1596498788678
 21
40.67726294813767
  0
ARC
  5
DE
100
AcDbEntity
  8
int
  6
ByLayer
 62
  256
370
   -1
100
AcDbCircle
 10
-103.8781172680392
 20
36.51514327465384
 40
1
100
AcDbArc
 50
169.9999999208023
 51
259.9999999737361
  0
LINE
  5
DF
100
AcDbEntity
  8
int
  6
ByLayer
 62
  256
370
   -1
100
AcDbLine
 10
-93.21888025202279
 20
33.6202055779579
 11
-104.0517654461576
 21
35.53033552172121
  0
ARC
  5
E0
100
AcDbEntity
  8
int
  6
ByLayer
 62
  256
370
   -1
100
AcDbCircle
 10
-93.04523207390443
 20
34.60501333089051
 40
1
100
AcDbArc
 50
259.9999999737362
 51
349.9999999208025
  0
LINE
  5
E1
100
AcDbEntity
  8
int
  6
ByLayer
 62
  256
370
   -1
100
AcDbLine
 10
-91.3571491791886
 20
38.41983664631792
 11
-92.06042432113223
 21
34.43136515186235
  0
LINE
  5
E2
100
AcDbEntity
  8
int
  6
ByLayer
 62
  256
370
   -1
100
AcDbLine
 10
-103.0011939479772
 20
41.48842252204207
 11
-92.16830875384241
 21
39.57829257827882
  0
ARC
  5
E3
100
AcDbEntity
  8
int
  6
ByLayer
 62
  256
370
   -1
100
AcDbCircle
 10
-92.34195693196077
 20
38.59348482534618
 40
1
100
AcDbArc
 50
349.999999920803
 51
79.99999997373627
  0
ARC
  5
E4
100
AcDbEntity
  8
int
  6
ByLayer
 62
  256
370
   -1
100
AcDbCircle
 10
-17.29960613196077
 20
25.36149372534616
 40
1
100
AcDbArc
 50
349.9999999208027
 51
79.99999997373637
  0
LINE
  5
E5
100
AcDbEntity
  8
int
  6
ByLayer
 62
  256
370
   -1
100
AcDbLine
 10
-27.95884314797722
 20
28.25643142204202
 11
-17.12595795384242
 21
26.34630147827878
  0
ARC
  5
E6
100
AcDbEntity
  8
int
  6
ByLayer
 62
  256
370
   -1
100
AcDbCircle
 10
-28.13249132609557
 20
27.27162366910948
 40
1
100
AcDbArc
 50
79.99999997373637
 51
169.9999999208027
  0
LINE
  5
E7
100
AcDbEntity
  8
int
  6
ByLayer
 62
  256
370
   -1
100
AcDbLine
 10
-29.82057422081137
 20
23.45680035368197
 11
-29.11729907886775
 21
27.44527184813763
  0
ARC
  5
E8
100
AcDbEntity
  8
int
  6
ByLayer
 62
  256
370
   -1
100
AcDbCircle
 10
-28.83576646803919
 20
23.28315217465383
 40
1
100
AcDbArc
 50
169.9999999208027
 51
259.9999999737362
  0
LINE
  5
E9
100
AcDbEntity
  8
int
  6
ByLayer
 62
  256
370
   -1
100
AcDbLine
 10
-18.17652945202278
 20
20.38821447795791
 11
-29.00941464615754
 21
22.29834442172124
  0
LINE
  5
EA
100
AcDbEntity
  8
int
  6
ByLayer
 62
  256
370
   -1
100
AcDbLine
 10
-16.31479837918859
 20
25.18784554631796
 11
-17.01807352113224
 21
21.19937405186235
  0
ARC
  5
EB
100
AcDbEntity
  8
int
  6
ByLayer
 62
  256
370
   -1
100
AcDbCircle
 10
-18.00288127390442
 20
21.37302223089049
 40
1
100
AcDbArc
 50
259.9999999737361
 51
349.9999999208027
  0
ARC
  5
EC
100
AcDbEntity
  8
int
  6
ByLayer
 62
  256
370
   -1
100
AcDbCircle
 10
-56.61226323492285
 20
-4.096975402660973
 40
1
100
AcDbArc
 50
80.00000005026942
 51
170.0000000502693
  0
LINE
  5
ED
100
AcDbEntity
  8
int
  6
ByLayer
 62
  256
370
   -1
100
AcDbLine
 10
-57.59707098808742
 20
-3.92332722585807
 11
-59.75981389604568
 21
-16.18885182319709
  0
ARC
  5
EE
100
AcDbEntity
  8
int
  6
ByLayer
 62
  256
370
   -1
100
AcDbCircle
 10
-58.77500614288113
 20
-16.3625
 40
1
100
AcDbArc
 50
170.0000000502694
 51
270
  0
LINE
  5
EF
100
AcDbEntity
  8
int
  6
ByLayer
 62
  256
370
   -1
100
AcDbLine
 10
-39.97093310030291
 20
-17.3625
 11
-58.77500614288113
 21
-17.3625
  0
ARC
  5
F0
100
AcDbEntity
  8
int
  6
ByLayer
 62
  256
370
   -1
100
AcDbCircle
 10
-39.97093310030291
 20
-16.3625
 40
1
100
AcDbArc
 50
270
 51
11.64858584198495
  0
LINE
  5
F1
100
AcDbEntity
  8
int
  6
ByLayer
 62
  256
370
   -1
100
AcDbLine
 10
-40.98776268023885
 20
-6.477392467058653
 11
-38.99152871351837
 21
-16.16059148817549
  0
LINE
  5
F2
100
AcDbEntity
  8
int
  6
ByLayer
 62
  256
370
   -1
100
AcDbLine
 10
-41.79351889022051
 20
-5.694493225718624
 11
-56.43861505811996
 21
-3.112167649496413
  0
ARC
  5
F3
100
AcDbEntity
  8
int
  6
ByLayer
 62
  256
370
   -1
100
AcDbCircle
 10
-41.9671670670234
 20
-6.679300978883184
 40
1
100
AcDbArc
 50
11.64858584198495
 51
80.00000005026942
  0
ARC
  5
F4
100
AcDbEntity
  8
int
  6
ByLayer
 62
  256
370
   -1
100
AcDbCircle
 10
-63.99966783626482
 20
43.26791304679607
 40
1
100
AcDbArc
 50
80.00000005026955
 51
169.9999999904662
  0
LINE
  5
F5
100
AcDbEntity
  8
int
  6
ByLayer
 62
  256
370
   -1
100
AcDbLine
 10
-64.98447558924813
 20
43.44156122462684
 11
-65.68775072064892
 21
39.4530897616053
  0
ARC
  5
F6
100
AcDbEntity
  8
int
  6
ByLayer
 62
  256
370
   -1
100
AcDbCircle
 10
-64.70294296766561
 20
39.27944158377447
 40
1
100
AcDbArc
 50
169.9999999904662
 51
260.000000050269
  0
LINE
  5
F7
100
AcDbEntity
  8
int
  6
ByLayer
 62
  256
370
   -1
100
AcDbLine
 10
-54.04370594658487
 20
36.38450390110556
 11
-64.87659114446851
 21
38.29463383060988
  0
ARC
  5
F8
100
AcDbEntity
  8
int
  6
ByLayer
 62
  256
370
   -1
100
AcDbCircle
 10
-53.87005776978198
 20
37.36931165427009
 40
1
100
AcDbArc
 50
260.0000000502694
 51
349.9999999208022
  0
LINE
  5
F9
100
AcDbEntity
  8
int
  6
ByLayer
 62
  256
370
   -1
100
AcDbLine
 10
-52.1819748807596
 20
41.18413493740849
 11
-52.88525001700981
 21
37.1956634752419
  0
LINE
  5
FA
100
AcDbEntity
  8
int
  6
ByLayer
 62
  256
370
   -1
100
AcDbLine
 10
-52.9931344567289
 20
42.3425908696012
 11
-63.82601965946193
 21
44.25272079996064
  0
ARC
  5
FB
100
AcDbEntity
  8
int
  6
ByLayer
 62
  256
370
   -1
100
AcDbCircle
 10
-53.1667826335318
 20
41.35778311643662
 40
1
100
AcDbArc
 50
349.9999999208023
 51
80.00000005026956
  0
CIRCLE
  5
FC
100
AcDbEntity
  8
int
  6
ByLayer
 62
  256
370
   -1
100
AcDbCircle
 10
-130.7148702
 20
-0.220297300000027
 40
3
  0
ARC
  5
FD
100
AcDbEntity
  8
int
  6
ByLayer
 62
  256
370
   -1
100
AcDbCircle
 10
-64.88375659828328
 20
12.44797904578946
 40
48.25
100
AcDbArc
 50
65.9637565556197
 51
92.98549873910731
  0
LINE
  5
FE
100
AcDbEntity
  8
int
  6
ByLayer
 62
  256
370
   -1
100
AcDbLine
 10
-21.0785223098266
 20
45.74251038911576
 11
-45.2308348311503
 21
56.51412439587597
  0
ARC
  5
FF
100
AcDbEntity
  8
int
  6
ByLayer
 62
  256
370
   -1
100
AcDbCircle
 10
-1.77635683940025e-15
 20
93.00516369205829
 40
51.75
100
AcDbArc
 50
245.9637565556197
 51
294.0362434443803
  0
LINE
  5
100
100
AcDbEntity
  8
int
  6
ByLayer
 62
  256
370
   -1
100
AcDbLine
 10
21.07852230982659
 20
45.74251038911576
 11
45.2308348311503
 21
56.51412439587594
  0
LINE
  5
101
100
AcDbEntity
  8
int
  6
ByLayer
 62
  256
370
   -1
100
AcDbLine
 10
-125.2016830097584
 20
57.61773472653613
 11
-67.39677132053005
 21
60.63249167179583
  0
LINE
  5
102
100
AcDbEntity
  8
int
  6
ByLayer
 62
  256
370
   -1
100
AcDbLine
 10
-128.2330377849602
 20
54.93650237276303
 11
-136.7447076769321
 21
6.664423850979556
  0
ARC
  5
103
100
AcDbEntity
  8
int
  6
ByLayer
 62
  256
370
   -1
100
AcDbCircle
 10
-89.22773359976658
 20
-1.714100753626045
 40
48.25
100
AcDbArc
 50
169.9999999612021
 51
177.12501641386
  0
LINE
  5
104
100
AcDbEntity
  8
int
  6
ByLayer
 62
  256
370
   -1
100
AcDbLine
 10
-137.4170038248786
 20
0.7059684956163856
 11
-138.2094067833475
 21
-15.07263796566257
  0
ARC
  5
105
100
AcDbEntity
  8
int
  6
ByLayer
 62
  256
370
   -1
100
AcDbCircle
 10
-134.9634973899463
 20
-15.23564781146647
 40
3.25
100
AcDbArc
 50
177.12501641386
 51
260.0000000502692
  0
LINE
  5
106
100
AcDbEntity
  8
int
  6
ByLayer
 62
  256
370
   -1
100
AcDbLine
 10
-135.5278539645557
 20
-18.43627300925132
 11
-73.32055829546697
 21
-29.40509757634503
  0
ARC
  5
107
100
AcDbEntity
  8
int
  6
ByLayer
 62
  256
370
   -1
100
AcDbCircle
 10
-74.4926834888865
 20
-36.05254991020581
 40
6.75
100
AcDbArc
 50
9.99052580155818
 51
80.00000005026936
  0
ARC
  5
108
100
AcDbEntity
  8
int
  6
ByLayer
 62
  256
370
   -1
100
AcDbCircle
 10
-64.64431895579615
 20
-34.31769659555163
 40
3.25
100
AcDbArc
 50
189.9905258015581
 51
259.5888850738408
  0
LINE
  5
109
100
AcDbEntity
  8
int
  6
ByLayer
 62
  256
370
   -1
100
AcDbLine
 10
-65.2316262832408
 20
-37.51419000288568
 11
-23.91425117475619
 21
-45.10563289349729
  0
ARC
  5
10A
100
AcDbEntity
  8
int
  6
ByLayer
 62
  256
370
   -1
100
AcDbCircle
 10
-15.19499623653931
 20
2.349999999999962
 40
48.25
100
AcDbArc
 50
259.5888850738406
 51
270
  0
LINE
  5
10B
100
AcDbEntity
  8
int
  6
ByLayer
 62
  256
370
   -1
100
AcDbLine
 10
15.19499623653932
 20
-45.90000000000001
 11
-15.1949962365393
 21
-45.90000000000001
  0
ARC
  5
10C
100
AcDbEntity
  8
int
  6
ByLayer
 62
  256
370
   -1
100
AcDbCircle
 10
15.19499623653931
 20
2.349999999999977
 40
48.25
100
AcDbArc
 50
270
 51
280.4111149261594
  0
LINE
  5
10D
100
AcDbEntity
  8
int
  6
ByLayer
 62
  256
370
   -1
100
AcDbLine
 10
65.2316262832408
 20
-37.51419000288567
 11
23.91425117475618
 21
-45.10563289349729
  0
ARC
  5
10E
100
AcDbEntity
  8
int
  6
ByLayer
 62
  256
370
   -1
100
AcDbCircle
 10
64.64431895579615
 20
-34.31769659555164
 40
3.25
100
AcDbArc
 50
280.4111149261592
 51
350.0094741984419
  0
ARC
  5
10F
100
AcDbEntity
  8
int
  6
ByLayer
 62
  256
370
   -1
100
AcDbCircle
 10
74.4926834888865
 20
-36.0525499102058
 40
6.75
100
AcDbArc
 50
99.99999994973064
 51
170.0094741984418
  0
LINE
  5
110
100
AcDbEntity
  8
int
  6
ByLayer
 62
  256
370
   -1
100
AcDbLine
 10
135.5278539645557
 20
-18.43627300925132
 11
73.32055829546697
 21
-29.40509757634503
  0
ARC
  5
111
100
AcDbEntity
  8
int
  6
ByLayer
 62
  256
370
   -1
100
AcDbCircle
 10
134.9634973899463
 20
-15.23564781146648
 40
3.25
100
AcDbArc
 50
279.9999999497308
 51
2.874983586140003
  0
LINE
  5
112
100
AcDbEntity
  8
int
  6
ByLayer
 62
  256
370
   -1
100
AcDbLine
 10
137.4170038248786
 20
0.7059684956163963
 11
138.2094067833475
 21
-15.07263796566258
  0
LINE
  5
113
100
AcDbEntity
  8
int
  6
ByLayer
 62
  256
370
   -1
100
AcDbLine
 10
128.2330377849602
 20
54.93650237276306
 11
136.7447076769321
 21
6.664423850979556
  0
ARC
  5
114
100
AcDbEntity
  8
int
  6
ByLayer
 62
  256
370
   -1
100
AcDbCircle
 10
89.22773359976658
 20
-1.714100753626031
 40
48.25
100
AcDbArc
 50
2.874983586140003
 51
10.00000003879792
  0
ARC
  5
115
100
AcDbEntity
  8
int
  6
ByLayer
 62
  256
370
   -1
100
AcDbCircle
 10
125.0324125880527
 20
54.37214579317826
 40
3.25
100
AcDbArc
 50
10.00000003879795
 51
87.01450126089276
  0
LINE
  5
116
100
AcDbEntity
  8
int
  6
ByLayer
 62
  256
370
   -1
100
AcDbLine
 10
125.2016830097584
 20
57.61773472653618
 11
67.39677132053005
 21
60.63249167179583
  0
ARC
  5
117
100
AcDbEntity
  8
int
  6
ByLayer
 62
  256
370
   -1
100
AcDbCircle
 10
64.88375659828328
 20
12.44797904578945
 40
48.25
100
AcDbArc
 50
87.01450126089269
 51
114.0362434443803
  0
ARC
  5
118
100
AcDbEntity
  8
int
  6
ByLayer
 62
  256
370
   -1
100
AcDbCircle
 10
-125.0324125880527
 20
54.37214579317826
 40
3.25
100
AcDbArc
 50
92.98549873910724
 51
169.9999999612021
  0
ARC
  5
119
100
AcDbEntity
  8
ajour
  6
ByLayer
 62
  256
370
   -1
100
AcDbCircle
 10
-27.52373651966957
 20
-22.26041348309694
 40
2
100
AcDbArc
 50
191.6485858419849
 51
272.7957580945797
  0
ARC
  5
11A
100
AcDbEntity
  8
ajour
  6
ByLayer
 62
  256
370
   -1
100
AcDbCircle
 10
-15.24663020971955
 20
-28.39687242079344
 40
2
100
AcDbArc
 50
214.0897781547366
 51
259.5888850738406
  0
LINE
  5
11B
100
AcDbEntity
  8
ajour
  6
ByLayer
 62
  256
370
   -1
100
AcDbLine
 10
-15.60805010353165
 20
-30.36394528684514
 11
-14.3614198938121
 21
-30.592994736815
  0
ARC
  5
11C
100
AcDbEntity
  8
ajour
  6
ByLayer
 62
  256
370
   -1
100
AcDbCircle
 10
-14
 20
-28.6259218707633
 40
2
100
AcDbArc
 50
259.5888850738406
 51
2.035554996136651e-13
  0
LINE
  5
11D
100
AcDbEntity
  8
ajour
  6
ByLayer
 62
  256
370
   -1
100
AcDbLine
 10
-34.11216999953118
 20
-0.2071547473556627
 11
-29.48254529323865
 21
-22.66423050674598
  0
ARC
  5
11E
100
AcDbEntity
  8
ajour
  6
ByLayer
 62
  256
370
   -1
100
AcDbCircle
 10
-36.07097877310026
 20
-0.6109717710047029
 40
2
100
AcDbArc
 50
11.64858584198485
 51
80.00000005026943
  0
LINE
  5
11F
100
AcDbEntity
  8
ajour
  6
ByLayer
 62
  256
370
   -1
100
AcDbLine
 10
-35.72368241949448
 20
1.358643735324417
 11
-61.94308391584873
 21
5.981831613440331
  0
ARC
  5
120
100
AcDbEntity
  8
ajour
  6
ByLayer
 62
  256
370
   -1
100
AcDbCircle
 10
-62.29038026945452
 20
4.012216107111211
 40
2
100
AcDbArc
 50
80.00000005026922
 51
170.0000000502693
  0
LINE
  5
121
100
AcDbEntity
  8
ajour
  6
ByLayer
 62
  256
370
   -1
100
AcDbLine
 10
-64.25999577578365
 20
4.359512460717003
 11
-67.18162633476472
 21
-12.209877897081
  0
ARC
  5
122
100
AcDbEntity
  8
ajour
  6
ByLayer
 62
  256
370
   -1
100
AcDbCircle
 10
-69.15124184109384
 20
-11.86258154347522
 40
2
100
AcDbArc
 50
260.0000000502695
 51
350.0000000502694
  0
LINE
  5
123
100
AcDbEntity
  8
ajour
  6
ByLayer
 62
  256
370
   -1
100
AcDbLine
 10
-74.61135632518304
 20
-12.93066927056999
 11
-69.49853819469962
 21
-13.83219704980435
  0
ARC
  5
124
100
AcDbEntity
  8
ajour
  6
ByLayer
 62
  256
370
   -1
100
AcDbCircle
 10
-74.26405997157725
 20
-10.96105376424087
 40
2
100
AcDbArc
 50
146.7006110247173
 51
260.0000000502695
  0
ARC
  5
125
100
AcDbEntity
  8
ajour
  6
ByLayer
 62
  256
370
   -1
100
AcDbCircle
 10
-125.6902909211874
 20
11.76943176578492
 40
2
100
AcDbArc
 50
169.999999961202
 51
247.2627274361597
  0
ARC
  5
126
100
AcDbEntity
  8
ajour
  6
ByLayer
 62
  256
370
   -1
100
AcDbCircle
 10
-118.0697169932663
 20
-3.236934563284407
 40
2
100
AcDbArc
 50
166.5822637914336
 51
260.0000000502695
  0
LINE
  5
127
100
AcDbEntity
  8
ajour
  6
ByLayer
 62
  256
370
   -1
100
AcDbLine
 10
-118.4170133468721
 20
-5.206550069613535
 11
-99.93727991283083
 21
-8.465025653617715
  0
ARC
  5
128
100
AcDbEntity
  8
ajour
  6
ByLayer
 62
  256
370
   -1
100
AcDbCircle
 10
-99.58998355922505
 20
-6.495410147288592
 40
2
100
AcDbArc
 50
260.0000000502695
 51
13.29938907582136
  0
LINE
  5
129
100
AcDbEntity
  8
ajour
  6
ByLayer
 62
  256
370
   -1
100
AcDbLine
 10
-121.2871684515047
 20
48.25832100082326
 11
-127.6599064269767
 21
12.11672812245251
  0
ARC
  5
12A
100
AcDbEntity
  8
ajour
  6
ByLayer
 62
  256
370
   -1
100
AcDbCircle
 10
-119.3175529457154
 20
47.91102464415566
 40
2
100
AcDbArc
 50
92.98549873910721
 51
169.999999961202
  0
LINE
  5
12B
100
AcDbEntity
  8
ajour
  6
ByLayer
 62
  256
370
   -1
100
AcDbLine
 10
-119.4217193590728
 20
49.90831014160672
 11
-113.0842951011716
 21
50.23883212041852
  0
ARC
  5
12C
100
AcDbEntity
  8
ajour
  6
ByLayer
 62
  256
370
   -1
100
AcDbCircle
 10
-112.9801286878142
 20
48.24154662296746
 40
2
100
AcDbArc
 50
349.9999999208027
 51
92.98549873910721
  0
LINE
  5
12D
100
AcDbEntity
  8
ajour
  6
ByLayer
 62
  256
370
   -1
100
AcDbLine
 10
-113.9569242973091
 20
31.18432261013342
 11
-111.0105131822698
 21
47.89425026491109
  0
ARC
  5
12E
100
AcDbEntity
  8
ajour
  6
ByLayer
 62
  256
370
   -1
100
AcDbCircle
 10
-111.9873087917647
 20
30.83702625207706
 40
2
100
AcDbArc
 50
169.9999999208028
 51
259.9999999737362
  0
LINE
  5
12F
100
AcDbEntity
  8
ajour
  6
ByLayer
 62
  256
370
   -1
100
AcDbLine
 10
-87.71441141281018
 20
24.52620630879152
 11
-112.3346051480015
 21
28.86741074621184
  0
ARC
  5
130
100
AcDbEntity
  8
ajour
  6
ByLayer
 62
  256
370
   -1
100
AcDbCircle
 10
-87.36711505657347
 20
26.49582181465673
 40
2
100
AcDbArc
 50
259.9999999737362
 51
349.9999999208025
  0
LINE
  5
131
100
AcDbEntity
  8
ajour
  6
ByLayer
 62
  256
370
   -1
100
AcDbLine
 10
-81.12965122797084
 20
50.35269586440661
 11
-85.39749955102911
 21
26.14852545660036
  0
ARC
  5
132
100
AcDbEntity
  8
ajour
  6
ByLayer
 62
  256
370
   -1
100
AcDbCircle
 10
-79.16003572242647
 20
50.00539950635023
 40
2
100
AcDbArc
 50
92.98549873910723
 51
169.9999999208023
  0
LINE
  5
133
100
AcDbEntity
  8
ajour
  6
ByLayer
 62
  256
370
   -1
100
AcDbLine
 10
-79.26420213578385
 20
52.00268500380128
 11
-74.03746040176947
 21
52.27528045431271
  0
ARC
  5
134
100
AcDbEntity
  8
ajour
  6
ByLayer
 62
  256
370
   -1
100
AcDbCircle
 10
-73.93329398841209
 20
50.27799495686165
 40
2
100
AcDbArc
 50
349.9999999904657
 51
92.98549873910721
  0
LINE
  5
135
100
AcDbEntity
  8
ajour
  6
ByLayer
 62
  256
370
   -1
100
AcDbLine
 10
-71.96367848244547
 20
49.93069860120004
 11
-74.78174999059981
 21
33.9486209061731
  0
ARC
  5
136
100
AcDbEntity
  8
ajour
  6
ByLayer
 62
  256
370
   -1
100
AcDbCircle
 10
-72.81213448463316
 20
33.60132455051149
 40
2
100
AcDbArc
 50
169.9999999904659
 51
260.0000000502694
  0
LINE
  5
137
100
AcDbEntity
  8
ajour
  6
ByLayer
 62
  256
370
   -1
100
AcDbLine
 10
-48.53923710443315
 20
27.29050464091548
 11
-73.15943083823895
 21
31.63170904418238
  0
ARC
  5
138
100
AcDbEntity
  8
ajour
  6
ByLayer
 62
  256
370
   -1
100
AcDbCircle
 10
-48.19194075082736
 20
29.2601201472446
 40
2
100
AcDbArc
 50
260.0000000502694
 51
349.9999999208027
  0
LINE
  5
139
100
AcDbEntity
  8
ajour
  6
ByLayer
 62
  256
370
   -1
100
AcDbLine
 10
-43.51475782044854
 20
44.26820157692522
 11
-46.222325245283
 21
28.91282378918823
  0
ARC
  5
13A
100
AcDbEntity
  8
ajour
  6
ByLayer
 62
  256
370
   -1
100
AcDbCircle
 10
-41.54514231490418
 20
43.92090521886885
 40
2
100
AcDbArc
 50
65.96375655561957
 51
169.9999999208027
  0
LINE
  5
13B
100
AcDbEntity
  8
ajour
  6
ByLayer
 62
  256
370
   -1
100
AcDbLine
 10
-35.92939522454326
 20
43.60624556074104
 11
-40.73051343336499
 21
45.74748119192942
  0
ARC
  5
13C
100
AcDbEntity
  8
ajour
  6
ByLayer
 62
  256
370
   -1
100
AcDbCircle
 10
-36.74402410608245
 20
41.77966958768047
 40
2
100
AcDbArc
 50
349.9999999208027
 51
65.96375655561957
  0
LINE
  5
13D
100
AcDbEntity
  8
ajour
  6
ByLayer
 62
  256
370
   -1
100
AcDbLine
 10
-38.91457349730909
 20
17.95233151013346
 11
-34.77440860053808
 21
41.4323732296241
  0
ARC
  5
13E
100
AcDbEntity
  8
ajour
  6
ByLayer
 62
  256
370
   -1
100
AcDbCircle
 10
-36.94495799176472
 20
17.60503515207709
 40
2
100
AcDbArc
 50
169.9999999208027
 51
259.9999999737358
  0
LINE
  5
13F
100
AcDbEntity
  8
ajour
  6
ByLayer
 62
  256
370
   -1
100
AcDbLine
 10
-13.65270364376328
 20
11.46712903405576
 11
-37.29225434800145
 21
15.63541964621188
  0
LINE
  5
140
100
AcDbEntity
  8
ajour
  6
ByLayer
 62
  256
370
   -1
100
AcDbLine
 10
-12
 20
9.497513528190535
 11
-12
 21
-28.6259218707633
  0
ARC
  5
141
100
AcDbEntity
  8
ajour
  6
ByLayer
 62
  256
370
   -1
100
AcDbCircle
 10
-14
 20
9.497513528190535
 40
2
100
AcDbArc
 50
0
 51
79.99999997373594
  0
ARC
  5
142
100
AcDbEntity
  8
ajour
  6
ByLayer
 62
  256
370
   -1
100
AcDbCircle
 10
-130.7148702
 20
-0.220297300000027
 40
11
100
AcDbArc
 50
346.5822637914335
 51
67.26272743615975
  0
ARC
  5
143
100
AcDbEntity
  8
ajour
  6
ByLayer
 62
  256
370
   -1
100
AcDbCircle
 10
-85.96544500000002
 20
-3.274859100000029
 40
12
100
AcDbArc
 50
326.7006110247174
 51
193.2993890758214
  0
ARC
  5
144
100
AcDbEntity
  8
ajour
  6
ByLayer
 62
  256
370
   -1
100
AcDbCircle
 10
-26.84087499999999
 20
-36.24375000000001
 40
12
100
AcDbArc
 50
90
 51
92.79575809457975
  0
ARC
  5
145
100
AcDbEntity
  8
ajour
  6
ByLayer
 62
  256
370
   -1
100
AcDbCircle
 10
-26.84087499999999
 20
-36.24375000000001
 40
12
100
AcDbArc
 50
34.08977815473668
 51
90
  0
ARC
  5
146
100
AcDbEntity
  8
ajour
  6
ByLayer
 62
  256
370
   -1
100
AcDbCircle
 10
-58.08327288313099
 20
-28.6602003140547
 40
2
100
AcDbArc
 50
155.4363115853516
 51
259.5888850738406
  0
LINE
  5
147
100
AcDbEntity
  8
ajour
  6
ByLayer
 62
  256
370
   -1
100
AcDbLine
 10
-59.30913331572137
 20
-26.53109105159039
 11
-59.90227237749718
 21
-27.82879136564509
  0
ARC
  5
148
100
AcDbEntity
  8
ajour
  6
ByLayer
 62
  256
370
   -1
100
AcDbCircle
 10
-57.49013382135518
 20
-27.3625
 40
2
100
AcDbArc
 50
90.0000000000002
 51
155.4363115853517
  0
LINE
  5
149
100
AcDbEntity
  8
ajour
  6
ByLayer
 62
  256
370
   -1
100
AcDbLine
 10
-37.66323141796646
 20
-25.3625
 11
-57.49013382135519
 21
-25.3625
  0
ARC
  5
14A
100
AcDbEntity
  8
ajour
  6
ByLayer
 62
  256
370
   -1
100
AcDbCircle
 10
-37.66323141796646
 20
-27.3625
 40
2
100
AcDbArc
 50
320.6263552148443
 51
90
  0
LINE
  5
14B
100
AcDbEntity
  8
ajour
  6
ByLayer
 62
  256
370
   -1
100
AcDbLine
 10
-58.44469277694309
 20
-30.6272731801064
 11
-40.52826603418066
 21
-33.91914566872384
  0
ARC
  5
14C
100
AcDbEntity
  8
ajour
  6
ByLayer
 62
  256
370
   -1
100
AcDbCircle
 10
-40.16684614036856
 20
-31.95207280267214
 40
2
100
AcDbArc
 50
259.5888850738406
 51
342.1486580961438
  0
ARC
  5
14D
100
AcDbEntity
  8
ajour
  6
ByLayer
 62
  256
370
   -1
100
AcDbCircle
 10
-26.84087499999999
 20
-36.24375000000001
 40
12
100
AcDbArc
 50
140.6263552148443
 51
162.1486580961439
  0
ARC
  5
14E
100
AcDbEntity
  8
ajour
  6
ByLayer
 62
  256
370
   -1
100
AcDbCircle
 10
27.52373651966956
 20
-22.26041348309693
 40
2
100
AcDbArc
 50
267.2042419054203
 51
348.3514141580151
  0
ARC
  5
14F
100
AcDbEntity
  8
ajour
  6
ByLayer
 62
  256
370
   -1
100
AcDbCircle
 10
15.24663020971955
 20
-28.39687242079344
 40
2
100
AcDbArc
 50
280.4111149261594
 51
325.9102218452634
  0
LINE
  5
150
100
AcDbEntity
  8
ajour
  6
ByLayer
 62
  256
370
   -1
100
AcDbLine
 10
15.60805010353164
 20
-30.36394528684513
 11
14.3614198938121
 21
-30.592994736815
  0
ARC
  5
151
100
AcDbEntity
  8
ajour
  6
ByLayer
 62
  256
370
   -1
100
AcDbCircle
 10
14
 20
-28.6259218707633
 40
2
100
AcDbArc
 50
179.9999999999998
 51
280.4111149261594
  0
LINE
  5
152
100
AcDbEntity
  8
ajour
  6
ByLayer
 62
  256
370
   -1
100
AcDbLine
 10
34.11216999953118
 20
-0.2071547473556485
 11
29.48254529323865
 21
-22.66423050674598
  0
ARC
  5
153
100
AcDbEntity
  8
ajour
  6
ByLayer
 62
  256
370
   -1
100
AcDbCircle
 10
36.07097877310026
 20
-0.6109717710047171
 40
2
100
AcDbArc
 50
99.99999994973057
 51
168.3514141580152
  0
LINE
  5
154
100
AcDbEntity
  8
ajour
  6
ByLayer
 62
  256
370
   -1
100
AcDbLine
 10
35.72368241949448
 20
1.358643735324403
 11
61.94308391584873
 21
5.981831613440317
  0
ARC
  5
155
100
AcDbEntity
  8
ajour
  6
ByLayer
 62
  256
370
   -1
100
AcDbCircle
 10
62.29038026945452
 20
4.012216107111168
 40
2
100
AcDbArc
 50
9.999999949730737
 51
99.99999994973078
  0
LINE
  5
156
100
AcDbEntity
  8
ajour
  6
ByLayer
 62
  256
370
   -1
100
AcDbLine
 10
64.25999577578365
 20
4.359512460717003
 11
67.18162633476472
 21
-12.20987789708099
  0
ARC
  5
157
100
AcDbEntity
  8
ajour
  6
ByLayer
 62
  256
370
   -1
100
AcDbCircle
 10
69.15124184109384
 20
-11.86258154347526
 40
2
100
AcDbArc
 50
189.9999999497306
 51
279.9999999497305
  0
LINE
  5
158
100
AcDbEntity
  8
ajour
  6
ByLayer
 62
  256
370
   -1
100
AcDbLine
 10
74.61135632518304
 20
-12.93066927056999
 11
69.49853819469962
 21
-13.83219704980435
  0
ARC
  5
159
100
AcDbEntity
  8
ajour
  6
ByLayer
 62
  256
370
   -1
100
AcDbCircle
 10
74.26405997157725
 20
-10.96105376424087
 40
2
100
AcDbArc
 50
279.9999999497305
 51
33.29938897528268
  0
ARC
  5
15A
100
AcDbEntity
  8
ajour
  6
ByLayer
 62
  256
370
   -1
100
AcDbCircle
 10
125.6902909211874
 20
11.76943176578492
 40
2
100
AcDbArc
 50
292.7372725638403
 51
10.00000003879797
  0
ARC
  5
15B
100
AcDbEntity
  8
ajour
  6
ByLayer
 62
  256
370
   -1
100
AcDbCircle
 10
118.0697169932663
 20
-3.2369345632844
 40
2
100
AcDbArc
 50
279.9999999497305
 51
13.41773620856641
  0
LINE
  5
15C
100
AcDbEntity
  8
ajour
  6
ByLayer
 62
  256
370
   -1
100
AcDbLine
 10
118.4170133468721
 20
-5.206550069613542
 11
99.93727991283083
 21
-8.465025653617708
  0
ARC
  5
15D
100
AcDbEntity
  8
ajour
  6
ByLayer
 62
  256
370
   -1
100
AcDbCircle
 10
99.58998355922505
 20
-6.495410147288592
 40
2
100
AcDbArc
 50
166.7006109241786
 51
279.9999999497305
  0
LINE
  5
15E
100
AcDbEntity
  8
ajour
  6
ByLayer
 62
  256
370
   -1
100
AcDbLine
 10
121.2871684515047
 20
48.25832100082329
 11
127.6599064269767
 21
12.11672812245252
  0
ARC
  5
15F
100
AcDbEntity
  8
ajour
  6
ByLayer
 62
  256
370
   -1
100
AcDbCircle
 10
119.3175529457154
 20
47.91102464415566
 40
2
100
AcDbArc
 50
10.00000003879802
 51
87.01450126089279
  0
LINE
  5
160
100
AcDbEntity
  8
ajour
  6
ByLayer
 62
  256
370
   -1
100
AcDbLine
 10
119.4217193590728
 20
49.90831014160672
 11
113.0842951011716
 21
50.23883212041849
  0
ARC
  5
161
100
AcDbEntity
  8
ajour
  6
ByLayer
 62
  256
370
   -1
100
AcDbCircle
 10
112.9801286878142
 20
48.24154662296743
 40
2
100
AcDbArc
 50
87.01450126089279
 51
190.0000000791973
  0
LINE
  5
162
100
AcDbEntity
  8
ajour
  6
ByLayer
 62
  256
370
   -1
100
AcDbLine
 10
113.9569242973091
 20
31.18432261013342
 11
111.0105131822698
 21
47.89425026491109
  0
ARC
  5
163
100
AcDbEntity
  8
ajour
  6
ByLayer
 62
  256
370
   -1
100
AcDbCircle
 10
111.9873087917647
 20
30.83702625207706
 40
2
100
AcDbArc
 50
280.0000000262638
 51
10.00000007919722
  0
LINE
  5
164
100
AcDbEntity
  8
ajour
  6
ByLayer
 62
  256
370
   -1
100
AcDbLine
 10
87.71441141281018
 20
24.52620630879155
 11
112.3346051480015
 21
28.86741074621184
  0
ARC
  5
165
100
AcDbEntity
  8
ajour
  6
ByLayer
 62
  256
370
   -1
100
AcDbCircle
 10
87.36711505657347
 20
26.49582181465675
 40
2
100
AcDbArc
 50
190.0000000791975
 51
280.0000000262638
  0
LINE
  5
166
100
AcDbEntity
  8
ajour
  6
ByLayer
 62
  256
370
   -1
100
AcDbLine
 10
81.12965122797084
 20
50.35269586440667
 11
85.39749955102911
 21
26.14852545660036
  0
ARC
  5
167
100
AcDbEntity
  8
ajour
  6
ByLayer
 62
  256
370
   -1
100
AcDbCircle
 10
79.16003572242647
 20
50.00539950635023
 40
2
100
AcDbArc
 50
10.00000007919766
 51
87.01450126089277
  0
LINE
  5
168
100
AcDbEntity
  8
ajour
  6
ByLayer
 62
  256
370
   -1
100
AcDbLine
 10
79.26420213578385
 20
52.0026850038013
 11
74.03746040176947
 21
52.27528045431274
  0
ARC
  5
169
100
AcDbEntity
  8
ajour
  6
ByLayer
 62
  256
370
   -1
100
AcDbCircle
 10
73.93329398841209
 20
50.27799495686168
 40
2
100
AcDbArc
 50
87.01450126089279
 51
190.0000000095343
  0
LINE
  5
16A
100
AcDbEntity
  8
ajour
  6
ByLayer
 62
  256
370
   -1
100
AcDbLine
 10
71.96367848244547
 20
49.93069860120004
 11
74.78174999059981
 21
33.94862090617308
  0
ARC
  5
16B
100
AcDbEntity
  8
ajour
  6
ByLayer
 62
  256
370
   -1
100
AcDbCircle
 10
72.81213448463316
 20
33.60132455051152
 40
2
100
AcDbArc
 50
279.9999999497306
 51
10.00000000953412
  0
LINE
  5
16C
100
AcDbEntity
  8
ajour
  6
ByLayer
 62
  256
370
   -1
100
AcDbLine
 10
48.53923710443315
 20
27.29050464091547
 11
73.15943083823895
 21
31.63170904418238
  0
ARC
  5
16D
100
AcDbEntity
  8
ajour
  6
ByLayer
 62
  256
370
   -1
100
AcDbCircle
 10
48.19194075082736
 20
29.26012014724456
 40
2
100
AcDbArc
 50
190.0000000791973
 51
279.9999999497306
  0
LINE
  5
16E
100
AcDbEntity
  8
ajour
  6
ByLayer
 62
  256
370
   -1
100
AcDbLine
 10
43.51475782044854
 20
44.26820157692522
 11
46.222325245283
 21
28.91282378918828
  0
ARC
  5
16F
100
AcDbEntity
  8
ajour
  6
ByLayer
 62
  256
370
   -1
100
AcDbCircle
 10
41.54514231490418
 20
43.92090521886885
 40
2
100
AcDbArc
 50
10.00000007919733
 51
114.0362434443804
  0
LINE
  5
170
100
AcDbEntity
  8
ajour
  6
ByLayer
 62
  256
370
   -1
100
AcDbLine
 10
35.92939522454326
 20
43.60624556074104
 11
40.73051343336499
 21
45.74748119192945
  0
ARC
  5
171
100
AcDbEntity
  8
ajour
  6
ByLayer
 62
  256
370
   -1
100
AcDbCircle
 10
36.74402410608245
 20
41.77966958768047
 40
2
100
AcDbArc
 50
114.0362434443804
 51
190.0000000791973
  0
LINE
  5
172
100
AcDbEntity
  8
ajour
  6
ByLayer
 62
  256
370
   -1
100
AcDbLine
 10
38.91457349730909
 20
17.95233151013344
 11
34.77440860053808
 21
41.43237322962408
  0
ARC
  5
173
100
AcDbEntity
  8
ajour
  6
ByLayer
 62
  256
370
   -1
100
AcDbCircle
 10
36.94495799176472
 20
17.60503515207713
 40
2
100
AcDbArc
 50
280.0000000262642
 51
10.00000007919728
  0
LINE
  5
174
100
AcDbEntity
  8
ajour
  6
ByLayer
 62
  256
370
   -1
100
AcDbLine
 10
13.65270364376328
 20
11.46712903405577
 11
37.29225434800145
 21
15.63541964621185
  0
LINE
  5
175
100
AcDbEntity
  8
ajour
  6
ByLayer
 62
  256
370
   -1
100
AcDbLine
 10
12
 20
9.497513528190549
 11
12
 21
-28.62592187076331
  0
ARC
  5
176
100
AcDbEntity
  8
ajour
  6
ByLayer
 62
  256
370
   -1
100
AcDbCircle
 10
14
 20
9.497513528190549
 40
2
100
AcDbArc
 50
100.0000000262641
 51
180
  0
ARC
  5
177
100
AcDbEntity
  8
ajour
  6
ByLayer
 62
  256
370
   -1
100
AcDbCircle
 10
130.7148702
 20
-0.2202973000000199
 40
11
100
AcDbArc
 50
112.7372725638402
 51
193.4177362085665
  0
ARC
  5
178
100
AcDbEntity
  8
ajour
  6
ByLayer
 62
  256
370
   -1
100
AcDbCircle
 10
85.96544500000002
 20
-3.27485910000005
 40
12
100
AcDbArc
 50
346.7006109241786
 51
213.2993889752826
  0
ARC
  5
179
100
AcDbEntity
  8
ajour
  6
ByLayer
 62
  256
370
   -1
100
AcDbCircle
 10
26.84087499999999
 20
-36.24375000000001
 40
12
100
AcDbArc
 50
87.20424190542025
 51
90
  0
ARC
  5
17A
100
AcDbEntity
  8
ajour
  6
ByLayer
 62
  256
370
   -1
100
AcDbCircle
 10
26.84087499999999
 20
-36.24375000000001
 40
12
100
AcDbArc
 50
90
 51
145.9102218452633
  0
ARC
  5
17B
100
AcDbEntity
  8
ajour
  6
ByLayer
 62
  256
370
   -1
100
AcDbCircle
 10
58.08327288313099
 20
-28.66020031405471
 40
2
100
AcDbArc
 50
280.4111149261594
 51
24.56368841464838
  0
LINE
  5
17C
100
AcDbEntity
  8
ajour
  6
ByLayer
 62
  256
370
   -1
100
AcDbLine
 10
59.30913331572137
 20
-26.53109105159039
 11
59.90227237749718
 21
-27.82879136564509
  0
ARC
  5
17D
100
AcDbEntity
  8
ajour
  6
ByLayer
 62
  256
370
   -1
100
AcDbCircle
 10
57.49013382135518
 20
-27.36249999999998
 40
2
100
AcDbArc
 50
24.5636884146483
 51
89.9999999999998
  0
LINE
  5
17E
100
AcDbEntity
  8
ajour
  6
ByLayer
 62
  256
370
   -1
100
AcDbLine
 10
37.66323141796646
 20
-25.3625
 11
57.49013382135519
 21
-25.3625
  0
ARC
  5
17F
100
AcDbEntity
  8
ajour
  6
ByLayer
 62
  256
370
   -1
100
AcDbCircle
 10
37.66323141796646
 20
-27.36249999999998
 40
2
100
AcDbArc
 50
90
 51
219.3736447851557
  0
LINE
  5
180
100
AcDbEntity
  8
ajour
  6
ByLayer
 62
  256
370
   -1
100
AcDbLine
 10
58.44469277694309
 20
-30.62727318010641
 11
40.52826603418066
 21
-33.91914566872384
  0
ARC
  5
181
100
AcDbEntity
  8
ajour
  6
ByLayer
 62
  256
370
   -1
100
AcDbCircle
 10
40.16684614036856
 20
-31.95207280267212
 40
2
100
AcDbArc
 50
197.8513419038562
 51
280.4111149261594
  0
ARC
  5
182
100
AcDbEntity
  8
ajour
  6
ByLayer
 62
  256
370
   -1
100
AcDbCircle
 10
26.84087499999999
 20
-36.24375000000001
 40
12
100
AcDbArc
 50
17.85134190385608
 51
39.3736447851557
  0
SPLINE
  5
183
100
AcDbEntity
  8
logo
  6
ByLayer
 62
    7
370
   -1
100
AcDbSpline
210
0
220
0
230
0
 70
    8
 71
    3
 72
    8
 73
    4
 74
    0
 42
1e-07
 43
1e-07
 40
0
 40
0
 40
0
 40
0
 40
1
 40
1
 40
1
 40
1
 10
21.8334298704351
 20
51.9656735494317
 30
0
 10
21.77766566388146
 20
51.96767053528696
 30
0
 10
21.41566938689028
 20
51.96369260780848
 30
0
 10
21.02899210756862
 20
51.95684273799503
 30
0
  0
SPLINE
  5
184
100
AcDbEntity
  8
logo
  6
ByLayer
 62
    7
370
   -1
100
AcDbSpline
210
0
220
0
230
0
 70
    8
 71
    3
 72
    8
 73
    4
 74
    0
 42
1e-07
 43
1e-07
 40
0
 40
0
 40
0
 40
0
 40
1
 40
1
 40
1
 40
1
 10
21.02899210756862
 20
51.95684273799503
 30
0
 10
16.10534995247914
 20
51.86963892846704
 30
0
 10
12.02559570444379
 20
55.78372327407632
 30
0
 10
11.00458131999999
 20
61.57418359014059
 30
0
  0
SPLINE
  5
185
100
AcDbEntity
  8
logo
  6
ByLayer
 62
    7
370
   -1
100
AcDbSpline
210
0
220
0
230
0
 70
    8
 71
    3
 72
    8
 73
    4
 74
    0
 42
1e-07
 43
1e-07
 40
0
 40
0
 40
0
 40
0
 40
1
 40
1
 40
1
 40
1
 10
11.00458131999999
 20
61.57418359014059
 30
0
 10
10.8046792743516
 20
62.70788442733071
 30
0
 10
10.82827403069871
 20
62.80038439614549
 30
0
 10
11.08256076863499
 20
61.87988639175857
 30
0
  0
SPLINE
  5
186
100
AcDbEntity
  8
logo
  6
ByLayer
 62
    7
370
   -1
100
AcDbSpline
210
0
220
0
230
0
 70
    8
 71
    3
 72
    8
 73
    4
 74
    0
 42
1e-07
 43
1e-07
 40
0
 40
0
 40
0
 40
0
 40
1
 40
1
 40
1
 40
1
 10
11.08256076863499
 20
61.87988639175857
 30
0
 10
12.0554114323828
 20
58.35824346755311
 30
0
 10
14.05333175427102
 20
55.63726085060657
 30
0
 10
16.41628685053392
 20
54.61584357342893
 30
0
  0
SPLINE
  5
187
100
AcDbEntity
  8
logo
  6
ByLayer
 62
    7
370
   -1
100
AcDbSpline
210
0
220
0
230
0
 70
    8
 71
    3
 72
    8
 73
    4
 74
    0
 42
1e-07
 43
1e-07
 40
0
 40
0
 40
0
 40
0
 40
1
 40
1
 40
1
 40
1
 10
16.41628685053392
 20
54.61584357342893
 30
0
 10
19.48877474900074
 20
53.28772336770658
 30
0
 10
23.3482637872564
 20
54.58941726105543
 30
0
 10
22.48469374037242
 20
56.66254283183427
 30
0
  0
SPLINE
  5
188
100
AcDbEntity
  8
logo
  6
ByLayer
 62
    7
370
   -1
100
AcDbSpline
210
0
220
0
230
0
 70
    8
 71
    3
 72
    8
 73
    4
 74
    0
 42
1e-07
 43
1e-07
 40
0
 40
0
 40
0
 40
0
 40
1
 40
1
 40
1
 40
1
 10
22.48469374037242
 20
56.66254283183427
 30
0
 10
22.16778878587533
 20
57.42332079064535
 30
0
 10
21.05545380641508
 20
57.47968971919181
 30
0
 10
20.95663951165431
 20
56.73998045107883
 30
0
  0
SPLINE
  5
189
100
AcDbEntity
  8
logo
  6
ByLayer
 62
    7
370
   -1
100
AcDbSpline
210
0
220
0
230
0
 70
    8
 71
    3
 72
    8
 73
    4
 74
    0
 42
1e-07
 43
1e-07
 40
0
 40
0
 40
0
 40
0
 40
1
 40
1
 40
1
 40
1
 10
20.95663951165431
 20
56.73998045107883
 30
0
 10
20.92457830218455
 20
56.49997434849152
 30
0
 10
20.80621798494748
 20
56.64852562274402
 30
0
 10
20.74275956078043
 20
57.00841623002418
 30
0
  0
SPLINE
  5
18A
100
AcDbEntity
  8
logo
  6
ByLayer
 62
    7
370
   -1
100
AcDbSpline
210
0
220
0
230
0
 70
    8
 71
    3
 72
    8
 73
    4
 74
    0
 42
1e-07
 43
1e-07
 40
0
 40
0
 40
0
 40
0
 40
1
 40
1
 40
1
 40
1
 10
20.74275956078043
 20
57.00841623002418
 30
0
 10
20.50901088058209
 20
58.33407087039268
 30
0
 10
22.35678889875489
 20
59.21454300613345
 30
0
 10
23.34051593978259
 20
58.24625748128133
 30
0
  0
SPLINE
  5
18B
100
AcDbEntity
  8
logo
  6
ByLayer
 62
    7
370
   -1
100
AcDbSpline
210
0
220
0
230
0
 70
    8
 71
    3
 72
    8
 73
    4
 74
    0
 42
1e-07
 43
1e-07
 40
0
 40
0
 40
0
 40
0
 40
1
 40
1
 40
1
 40
1
 10
23.34051593978259
 20
58.24625748128133
 30
0
 10
24.71866147835367
 20
56.8897464926328
 30
0
 10
24.19269077435676
 20
54.90220491584447
 30
0
 10
22.21105852411866
 20
53.97825369158092
 30
0
  0
SPLINE
  5
18C
100
AcDbEntity
  8
logo
  6
ByLayer
 62
    7
370
   -1
100
AcDbSpline
210
0
220
0
230
0
 70
    8
 71
    3
 72
    8
 73
    4
 74
    0
 42
1e-07
 43
1e-07
 40
0
 40
0
 40
0
 40
0
 40
1
 40
1
 40
1
 40
1
 10
22.21105852411866
 20
53.97825369158092
 30
0
 10
19.47857294730933
 20
52.70421199453251
 30
0
 10
15.84990611433247
 20
53.76678853690073
 30
0
 10
13.52525876535542
 20
56.52170361127286
 30
0
  0
SPLINE
  5
18D
100
AcDbEntity
  8
logo
  6
ByLayer
 62
    7
370
   -1
100
AcDbSpline
210
0
220
0
230
0
 70
    8
 71
    3
 72
    8
 73
    4
 74
    0
 42
1e-07
 43
1e-07
 40
0
 40
0
 40
0
 40
0
 40
1
 40
1
 40
1
 40
1
 10
13.52525876535542
 20
56.52170361127286
 30
0
 10
13.00036622938577
 20
57.1437472190574
 30
0
 10
12.99529888419346
 20
57.04114096423337
 30
0
 10
13.51563698348544
 20
56.32685765854685
 30
0
  0
SPLINE
  5
18E
100
AcDbEntity
  8
logo
  6
ByLayer
 62
    7
370
   -1
100
AcDbSpline
210
0
220
0
230
0
 70
    8
 71
    3
 72
    8
 73
    4
 74
    0
 42
1e-07
 43
1e-07
 40
0
 40
0
 40
0
 40
0
 40
1
 40
1
 40
1
 40
1
 10
13.51563698348544
 20
56.32685765854685
 30
0
 10
16.13284797420724
 20
52.7341325098371
 30
0
 10
20.06660011026317
 20
51.55055773941584
 30
0
 10
24.39545524701364
 20
53.0533716656406
 30
0
  0
SPLINE
  5
18F
100
AcDbEntity
  8
logo
  6
ByLayer
 62
    7
370
   -1
100
AcDbSpline
210
0
220
0
230
0
 70
    8
 71
    3
 72
    8
 73
    4
 74
    0
 42
1e-07
 43
1e-07
 40
0
 40
0
 40
0
 40
0
 40
1
 40
1
 40
1
 40
1
 10
24.39545524701364
 20
53.0533716656406
 30
0
 10
28.17258499831969
 20
54.36464708378795
 30
0
 10
29.60585211876949
 20
56.45320875207788
 30
0
 10
29.01768012790539
 20
59.78889787067381
 30
0
  0
SPLINE
  5
190
100
AcDbEntity
  8
logo
  6
ByLayer
 62
    7
370
   -1
100
AcDbSpline
210
0
220
0
230
0
 70
    8
 71
    3
 72
    8
 73
    4
 74
    0
 42
1e-07
 43
1e-07
 40
0
 40
0
 40
0
 40
0
 40
1
 40
1
 40
1
 40
1
 10
29.01768012790539
 20
59.78889787067381
 30
0
 10
28.7877868713717
 20
61.09268731690604
 30
0
 10
28.76795410389776
 20
61.12943669866037
 30
0
 10
28.50415016672238
 20
60.74075518007862
 30
0
  0
SPLINE
  5
191
100
AcDbEntity
  8
logo
  6
ByLayer
 62
    7
370
   -1
100
AcDbSpline
210
0
220
0
230
0
 70
    8
 71
    3
 72
    8
 73
    4
 74
    0
 42
1e-07
 43
1e-07
 40
0
 40
0
 40
0
 40
0
 40
1
 40
1
 40
1
 40
1
 10
28.50415016672238
 20
60.74075518007862
 30
0
 10
27.5195347192795
 20
59.29007440123481
 30
0
 10
25.28946541202575
 20
59.32162119666712
 30
0
 10
24.32073232186928
 20
60.79993131333273
 30
0
  0
SPLINE
  5
192
100
AcDbEntity
  8
logo
  6
ByLayer
 62
    7
370
   -1
100
AcDbSpline
210
0
220
0
230
0
 70
    8
 71
    3
 72
    8
 73
    4
 74
    0
 42
1e-07
 43
1e-07
 40
0
 40
0
 40
0
 40
0
 40
1
 40
1
 40
1
 40
1
 10
24.32073232186928
 20
60.79993131333273
 30
0
 10
22.40857174320034
 20
63.71793667155413
 30
0
 10
26.45574862898465
 20
67.10753213391925
 30
0
 10
29.40603462810176
 20
65.05898183921818
 30
0
  0
SPLINE
  5
193
100
AcDbEntity
  8
logo
  6
ByLayer
 62
    7
370
   -1
100
AcDbSpline
210
0
220
0
230
0
 70
    8
 71
    3
 72
    8
 73
    4
 74
    0
 42
1e-07
 43
1e-07
 40
0
 40
0
 40
0
 40
0
 40
1
 40
1
 40
1
 40
1
 10
29.40603462810176
 20
65.05898183921818
 30
0
 10
32.39404490641353
 20
62.98423684043894
 30
0
 10
32.05179439692166
 20
58.38828279414425
 30
0
 10
28.67053201698322
 20
55.18225091550314
 30
0
  0
SPLINE
  5
194
100
AcDbEntity
  8
logo
  6
ByLayer
 62
    7
370
   -1
100
AcDbSpline
210
0
220
0
230
0
 70
    8
 71
    3
 72
    8
 73
    4
 74
    0
 42
1e-07
 43
1e-07
 40
0
 40
0
 40
0
 40
0
 40
1
 40
1
 40
1
 40
1
 10
28.67053201698322
 20
55.18225091550314
 30
0
 10
28.09775637697498
 20
54.63915360086125
 30
0
 10
28.2048986759885
 20
54.64459381491151
 30
0
 10
28.93499070767133
 20
55.19567766774562
 30
0
  0
SPLINE
  5
195
100
AcDbEntity
  8
logo
  6
ByLayer
 62
    7
370
   -1
100
AcDbSpline
210
0
220
0
230
0
 70
    8
 71
    3
 72
    8
 73
    4
 74
    0
 42
1e-07
 43
1e-07
 40
0
 40
0
 40
0
 40
0
 40
1
 40
1
 40
1
 40
1
 10
28.93499070767133
 20
55.19567766774562
 30
0
 10
30.61991065525175
 20
56.46747490388748
 30
0
 10
33.71639436394878
 20
60.13538749103158
 30
0
 10
33.38096987066714
 20
60.46211790822478
 30
0
  0
SPLINE
  5
196
100
AcDbEntity
  8
logo
  6
ByLayer
 62
    7
370
   -1
100
AcDbSpline
210
0
220
0
230
0
 70
    8
 71
    3
 72
    8
 73
    4
 74
    0
 42
1e-07
 43
1e-07
 40
0
 40
0
 40
0
 40
0
 40
1
 40
1
 40
1
 40
1
 10
33.38096987066714
 20
60.46211790822478
 30
0
 10
32.54861149743278
 20
61.27289796441323
 30
0
 10
32.77147172472198
 20
62.58889519166814
 30
0
 10
33.82487610488854
 20
63.08338180539836
 30
0
  0
SPLINE
  5
197
100
AcDbEntity
  8
logo
  6
ByLayer
 62
    7
370
   -1
100
AcDbSpline
210
0
220
0
230
0
 70
    8
 71
    3
 72
    8
 73
    4
 74
    0
 42
1e-07
 43
1e-07
 40
0
 40
0
 40
0
 40
0
 40
1
 40
1
 40
1
 40
1
 10
33.82487610488854
 20
63.08338180539836
 30
0
 10
34.2340840513909
 20
63.27547332134992
 30
0
 10
34.2998348534775
 20
63.28267524166462
 30
0
 10
35.07911066851784
 20
63.22077211932233
 30
0
  0
SPLINE
  5
198
100
AcDbEntity
  8
logo
  6
ByLayer
 62
    7
370
   -1
100
AcDbSpline
210
0
220
0
230
0
 70
    8
 71
    3
 72
    8
 73
    4
 74
    0
 42
1e-07
 43
1e-07
 40
0
 40
0
 40
0
 40
0
 40
1
 40
1
 40
1
 40
1
 10
35.07911066851784
 20
63.22077211932233
 30
0
 10
35.19496613253665
 20
63.21157041495653
 30
0
 10
35.3041320884337
 20
63.29436725429436
 30
0
 10
35.52343590457178
 20
63.55777572892742
 30
0
  0
SPLINE
  5
199
100
AcDbEntity
  8
logo
  6
ByLayer
 62
    7
370
   -1
100
AcDbSpline
210
0
220
0
230
0
 70
    8
 71
    3
 72
    8
 73
    4
 74
    0
 42
1e-07
 43
1e-07
 40
0
 40
0
 40
0
 40
0
 40
1
 40
1
 40
1
 40
1
 10
35.52343590457178
 20
63.55777572892742
 30
0
 10
37.07979028185541
 20
65.42713103790868
 30
0
 10
40.01973172488513
 20
66.78102012941045
 30
0
 10
41.93367410958277
 20
66.50979471315964
 30
0
  0
SPLINE
  5
19A
100
AcDbEntity
  8
logo
  6
ByLayer
 62
    7
370
   -1
100
AcDbSpline
210
0
220
0
230
0
 70
    8
 71
    3
 72
    8
 73
    4
 74
    0
 42
1e-07
 43
1e-07
 40
0
 40
0
 40
0
 40
0
 40
1
 40
1
 40
1
 40
1
 10
41.93367410958277
 20
66.50979471315964
 30
0
 10
45.27425153400987
 20
66.03640047304832
 30
0
 10
46.41179126611132
 20
61.19607932009558
 30
0
 10
43.43917883981435
 20
60.10376589400173
 30
0
  0
SPLINE
  5
19B
100
AcDbEntity
  8
logo
  6
ByLayer
 62
    7
370
   -1
100
AcDbSpline
210
0
220
0
230
0
 70
    8
 71
    3
 72
    8
 73
    4
 74
    0
 42
1e-07
 43
1e-07
 40
0
 40
0
 40
0
 40
0
 40
1
 40
1
 40
1
 40
1
 10
43.43917883981435
 20
60.10376589400173
 30
0
 10
41.94083071400757
 20
59.55318338701137
 30
0
 10
40.73094749425434
 20
60.44538897841998
 30
0
 10
40.77221192917543
 20
62.07047061392846
 30
0
  0
SPLINE
  5
19C
100
AcDbEntity
  8
logo
  6
ByLayer
 62
    7
370
   -1
100
AcDbSpline
210
0
220
0
230
0
 70
    8
 71
    3
 72
    8
 73
    4
 74
    0
 42
1e-07
 43
1e-07
 40
0
 40
0
 40
0
 40
0
 40
1
 40
1
 40
1
 40
1
 10
40.77221192917543
 20
62.07047061392846
 30
0
 10
40.78805027896877
 20
62.69428810389013
 30
0
 10
40.89913961118972
 20
63.06620887622169
 30
0
 10
40.96242525541999
 20
62.70729815265577
 30
0
  0
SPLINE
  5
19D
100
AcDbEntity
  8
logo
  6
ByLayer
 62
    7
370
   -1
100
AcDbSpline
210
0
220
0
230
0
 70
    8
 71
    3
 72
    8
 73
    4
 74
    0
 42
1e-07
 43
1e-07
 40
0
 40
0
 40
0
 40
0
 40
1
 40
1
 40
1
 40
1
 10
40.96242525541999
 20
62.70729815265577
 30
0
 10
41.16938392888832
 20
61.53357719040261
 30
0
 10
42.68424554042135
 20
61.23023418683063
 30
0
 10
43.53786195153
 20
62.19158571084108
 30
0
  0
SPLINE
  5
19E
100
AcDbEntity
  8
logo
  6
ByLayer
 62
    7
370
   -1
100
AcDbSpline
210
0
220
0
230
0
 70
    8
 71
    3
 72
    8
 73
    4
 74
    0
 42
1e-07
 43
1e-07
 40
0
 40
0
 40
0
 40
0
 40
1
 40
1
 40
1
 40
1
 10
43.53786195153
 20
62.19158571084108
 30
0
 10
44.28500757265402
 20
63.03302960994263
 30
0
 10
43.81024183047975
 20
64.86839573954938
 30
0
 10
42.63820114945396
 20
65.66951125592833
 30
0
  0
SPLINE
  5
19F
100
AcDbEntity
  8
logo
  6
ByLayer
 62
    7
370
   -1
100
AcDbSpline
210
0
220
0
230
0
 70
    8
 71
    3
 72
    8
 73
    4
 74
    0
 42
1e-07
 43
1e-07
 40
0
 40
0
 40
0
 40
0
 40
1
 40
1
 40
1
 40
1
 10
42.63820114945396
 20
65.66951125592833
 30
0
 10
41.24943588532332
 20
66.61876854986943
 30
0
 10
38.15937159859281
 20
65.69867117097199
 30
0
 10
36.24219385264453
 20
63.76504309379344
 30
0
  0
SPLINE
  5
1A0
100
AcDbEntity
  8
logo
  6
ByLayer
 62
    7
370
   -1
100
AcDbSpline
210
0
220
0
230
0
 70
    8
 71
    3
 72
    8
 73
    4
 74
    0
 42
1e-07
 43
1e-07
 40
0
 40
0
 40
0
 40
0
 40
1
 40
1
 40
1
 40
1
 10
36.24219385264453
 20
63.76504309379344
 30
0
 10
35.60400485953274
 20
63.12137649620412
 30
0
 10
35.56110124541343
 20
63.01273332795134
 30
0
 10
35.81975446553398
 20
62.6953030084578
 30
0
  0
SPLINE
  5
1A1
100
AcDbEntity
  8
logo
  6
ByLayer
 62
    7
370
   -1
100
AcDbSpline
210
0
220
0
230
0
 70
    8
 71
    3
 72
    8
 73
    4
 74
    0
 42
1e-07
 43
1e-07
 40
0
 40
0
 40
0
 40
0
 40
1
 40
1
 40
1
 40
1
 10
35.81975446553398
 20
62.6953030084578
 30
0
 10
36.7636550304087
 20
61.53690850605732
 30
0
 10
35.47365378047887
 20
59.66249051879814
 30
0
 10
34.0616715256696
 20
60.14074818189401
 30
0
  0
SPLINE
  5
1A2
100
AcDbEntity
  8
logo
  6
ByLayer
 62
    7
370
   -1
100
AcDbSpline
210
0
220
0
230
0
 70
    8
 71
    3
 72
    8
 73
    4
 74
    0
 42
1e-07
 43
1e-07
 40
0
 40
0
 40
0
 40
0
 40
1
 40
1
 40
1
 40
1
 10
33.03628490576251
 20
59.08538837712811
 30
0
 10
30.51467044749045
 20
55.58667886258714
 30
0
 10
27.89710319901079
 20
53.60728158768066
 30
0
 10
24.26992485539199
 20
52.45629256878297
 30
0
  0
SPLINE
  5
1A3
100
AcDbEntity
  8
logo
  6
ByLayer
 62
    7
370
   -1
100
AcDbSpline
210
0
220
0
230
0
 70
    8
 71
    3
 72
    8
 73
    4
 74
    0
 42
1e-07
 43
1e-07
 40
0
 40
0
 40
0
 40
0
 40
1
 40
1
 40
1
 40
1
 10
24.26992485539199
 20
52.45629256878297
 30
0
 10
23.66553213830359
 20
52.2645046859806
 30
0
 10
22.12903306994072
 20
51.95511154577005
 30
0
 10
21.8334298704351
 20
51.9656735494317
 30
0
  0
LWPOLYLINE
  5
1A4
100
AcDbEntity
  8
logo
  6
ByLayer
 62
    7
370
   -1
100
AcDbPolyline
 90
    2
 70
    0
 43
0
 10
34.0616715256696
 20
60.14074818189401
 10
33.03628490576251
 20
59.08538837712811
  0
SPLINE
  5
1A5
100
AcDbEntity
  8
logo
  6
ByLayer
 62
    7
370
   -1
100
AcDbSpline
210
0
220
0
230
0
 70
    8
 71
    3
 72
    8
 73
    4
 74
    0
 42
1e-07
 43
1e-07
 40
0
 40
0
 40
0
 40
0
 40
1
 40
1
 40
1
 40
1
 10
-21.8334298704351
 20
51.9656735494317
 30
0
 10
-21.77766566388146
 20
51.96767053528696
 30
0
 10
-21.41566938689028
 20
51.96369260780848
 30
0
 10
-21.02899210756862
 20
51.95684273799503
 30
0
  0
SPLINE
  5
1A6
100
AcDbEntity
  8
logo
  6
ByLayer
 62
    7
370
   -1
100
AcDbSpline
210
0
220
0
230
0
 70
    8
 71
    3
 72
    8
 73
    4
 74
    0
 42
1e-07
 43
1e-07
 40
0
 40
0
 40
0
 40
0
 40
1
 40
1
 40
1
 40
1
 10
-21.02899210756862
 20
51.95684273799503
 30
0
 10
-16.10534995247914
 20
51.86963892846704
 30
0
 10
-12.02559570444379
 20
55.78372327407632
 30
0
 10
-11.00458131999999
 20
61.57418359014059
 30
0
  0
SPLINE
  5
1A7
100
AcDbEntity
  8
logo
  6
ByLayer
 62
    7
370
   -1
100
AcDbSpline
210
0
220
0
230
0
 70
    8
 71
    3
 72
    8
 73
    4
 74
    0
 42
1e-07
 43
1e-07
 40
0
 40
0
 40
0
 40
0
 40
1
 40
1
 40
1
 40
1
 10
-11.00458131999999
 20
61.57418359014059
 30
0
 10
-10.8046792743516
 20
62.70788442733071
 30
0
 10
-10.82827403069871
 20
62.80038439614549
 30
0
 10
-11.08256076863499
 20
61.87988639175857
 30
0
  0
SPLINE
  5
1A8
100
AcDbEntity
  8
logo
  6
ByLayer
 62
    7
370
   -1
100
AcDbSpline
210
0
220
0
230
0
 70
    8
 71
    3
 72
    8
 73
    4
 74
    0
 42
1e-07
 43
1e-07
 40
0
 40
0
 40
0
 40
0
 40
1
 40
1
 40
1
 40
1
 10
-11.08256076863499
 20
61.87988639175857
 30
0
 10
-12.0554114323828
 20
58.35824346755311
 30
0
 10
-14.05333175427102
 20
55.63726085060657
 30
0
 10
-16.41628685053392
 20
54.61584357342893
 30
0
  0
SPLINE
  5
1A9
100
AcDbEntity
  8
logo
  6
ByLayer
 62
    7
370
   -1
100
AcDbSpline
210
0
220
0
230
0
 70
    8
 71
    3
 72
    8
 73
    4
 74
    0
 42
1e-07
 43
1e-07
 40
0
 40
0
 40
0
 40
0
 40
1
 40
1
 40
1
 40
1
 10
-16.41628685053392
 20
54.61584357342893
 30
0
 10
-19.48877474900074
 20
53.28772336770658
 30
0
 10
-23.3482637872564
 20
54.58941726105543
 30
0
 10
-22.48469374037242
 20
56.66254283183427
 30
0
  0
SPLINE
  5
1AA
100
AcDbEntity
  8
logo
  6
ByLayer
 62
    7
370
   -1
100
AcDbSpline
210
0
220
0
230
0
 70
    8
 71
    3
 72
    8
 73
    4
 74
    0
 42
1e-07
 43
1e-07
 40
0
 40
0
 40
0
 40
0
 40
1
 40
1
 40
1
 40
1
 10
-22.48469374037242
 20
56.66254283183427
 30
0
 10
-22.16778878587533
 20
57.42332079064535
 30
0
 10
-21.05545380641508
 20
57.47968971919181
 30
0
 10
-20.95663951165431
 20
56.73998045107884
 30
0
  0
SPLINE
  5
1AB
100
AcDbEntity
  8
logo
  6
ByLayer
 62
    7
370
   -1
100
AcDbSpline
210
0
220
0
230
0
 70
    8
 71
    3
 72
    8
 73
    4
 74
    0
 42
1e-07
 43
1e-07
 40
0
 40
0
 40
0
 40
0
 40
1
 40
1
 40
1
 40
1
 10
-20.95663951165431
 20
56.73998045107884
 30
0
 10
-20.92457830218455
 20
56.49997434849152
 30
0
 10
-20.80621798494748
 20
56.64852562274402
 30
0
 10
-20.74275956078043
 20
57.00841623002418
 30
0
  0
SPLINE
  5
1AC
100
AcDbEntity
  8
logo
  6
ByLayer
 62
    7
370
   -1
100
AcDbSpline
210
0
220
0
230
0
 70
    8
 71
    3
 72
    8
 73
    4
 74
    0
 42
1e-07
 43
1e-07
 40
0
 40
0
 40
0
 40
0
 40
1
 40
1
 40
1
 40
1
 10
-20.74275956078043
 20
57.00841623002418
 30
0
 10
-20.50901088058209
 20
58.33407087039268
 30
0
 10
-22.35678889875489
 20
59.21454300613345
 30
0
 10
-23.34051593978259
 20
58.24625748128133
 30
0
  0
SPLINE
  5
1AD
100
AcDbEntity
  8
logo
  6
ByLayer
 62
    7
370
   -1
100
AcDbSpline
210
0
220
0
230
0
 70
    8
 71
    3
 72
    8
 73
    4
 74
    0
 42
1e-07
 43
1e-07
 40
0
 40
0
 40
0
 40
0
 40
1
 40
1
 40
1
 40
1
 10
-23.34051593978259
 20
58.24625748128133
 30
0
 10
-24.71866147835367
 20
56.88974649263282
 30
0
 10
-24.19269077435676
 20
54.90220491584447
 30
0
 10
-22.21105852411866
 20
53.97825369158091
 30
0
  0
SPLINE
  5
1AE
100
AcDbEntity
  8
logo
  6
ByLayer
 62
    7
370
   -1
100
AcDbSpline
210
0
220
0
230
0
 70
    8
 71
    3
 72
    8
 73
    4
 74
    0
 42
1e-07
 43
1e-07
 40
0
 40
0
 40
0
 40
0
 40
1
 40
1
 40
1
 40
1
 10
-22.21105852411866
 20
53.97825369158091
 30
0
 10
-19.47857294730933
 20
52.70421199453251
 30
0
 10
-15.84990611433247
 20
53.76678853690073
 30
0
 10
-13.52525876535542
 20
56.52170361127286
 30
0
  0
SPLINE
  5
1AF
100
AcDbEntity
  8
logo
  6
ByLayer
 62
    7
370
   -1
100
AcDbSpline
210
0
220
0
230
0
 70
    8
 71
    3
 72
    8
 73
    4
 74
    0
 42
1e-07
 43
1e-07
 40
0
 40
0
 40
0
 40
0
 40
1
 40
1
 40
1
 40
1
 10
-13.52525876535542
 20
56.52170361127286
 30
0
 10
-13.00036622938577
 20
57.1437472190574
 30
0
 10
-12.99529888419346
 20
57.04114096423337
 30
0
 10
-13.51563698348544
 20
56.32685765854684
 30
0
  0
SPLINE
  5
1B0
100
AcDbEntity
  8
logo
  6
ByLayer
 62
    7
370
   -1
100
AcDbSpline
210
0
220
0
230
0
 70
    8
 71
    3
 72
    8
 73
    4
 74
    0
 42
1e-07
 43
1e-07
 40
0
 40
0
 40
0
 40
0
 40
1
 40
1
 40
1
 40
1
 10
-13.51563698348544
 20
56.32685765854684
 30
0
 10
-16.13284797420724
 20
52.7341325098371
 30
0
 10
-20.06660011026317
 20
51.55055773941584
 30
0
 10
-24.39545524701364
 20
53.0533716656406
 30
0
  0
SPLINE
  5
1B1
100
AcDbEntity
  8
logo
  6
ByLayer
 62
    7
370
   -1
100
AcDbSpline
210
0
220
0
230
0
 70
    8
 71
    3
 72
    8
 73
    4
 74
    0
 42
1e-07
 43
1e-07
 40
0
 40
0
 40
0
 40
0
 40
1
 40
1
 40
1
 40
1
 10
-24.39545524701364
 20
53.0533716656406
 30
0
 10
-28.17258499831969
 20
54.36464708378795
 30
0
 10
-29.60585211876949
 20
56.45320875207788
 30
0
 10
-29.01768012790539
 20
59.78889787067381
 30
0
  0
SPLINE
  5
1B2
100
AcDbEntity
  8
logo
  6
ByLayer
 62
    7
370
   -1
100
AcDbSpline
210
0
220
0
230
0
 70
    8
 71
    3
 72
    8
 73
    4
 74
    0
 42
1e-07
 43
1e-07
 40
0
 40
0
 40
0
 40
0
 40
1
 40
1
 40
1
 40
1
 10
-29.01768012790539
 20
59.78889787067381
 30
0
 10
-28.7877868713717
 20
61.09268731690604
 30
0
 10
-28.76795410389776
 20
61.12943669866037
 30
0
 10
-28.50415016672238
 20
60.74075518007862
 30
0
  0
SPLINE
  5
1B3
100
AcDbEntity
  8
logo
  6
ByLayer
 62
    7
370
   -1
100
AcDbSpline
210
0
220
0
230
0
 70
    8
 71
    3
 72
    8
 73
    4
 74
    0
 42
1e-07
 43
1e-07
 40
0
 40
0
 40
0
 40
0
 40
1
 40
1
 40
1
 40
1
 10
-28.50415016672238
 20
60.74075518007862
 30
0
 10
-27.5195347192795
 20
59.29007440123481
 30
0
 10
-25.28946541202575
 20
59.32162119666712
 30
0
 10
-24.32073232186928
 20
60.79993131333273
 30
0
  0
SPLINE
  5
1B4
100
AcDbEntity
  8
logo
  6
ByLayer
 62
    7
370
   -1
100
AcDbSpline
210
0
220
0
230
0
 70
    8
 71
    3
 72
    8
 73
    4
 74
    0
 42
1e-07
 43
1e-07
 40
0
 40
0
 40
0
 40
0
 40
1
 40
1
 40
1
 40
1
 10
-24.32073232186928
 20
60.79993131333273
 30
0
 10
-22.40857174320034
 20
63.71793667155413
 30
0
 10
-26.45574862898465
 20
67.10753213391925
 30
0
 10
-29.40603462810176
 20
65.05898183921818
 30
0
  0
SPLINE
  5
1B5
100
AcDbEntity
  8
logo
  6
ByLayer
 62
    7
370
   -1
100
AcDbSpline
210
0
220
0
230
0
 70
    8
 71
    3
 72
    8
 73
    4
 74
    0
 42
1e-07
 43
1e-07
 40
0
 40
0
 40
0
 40
0
 40
1
 40
1
 40
1
 40
1
 10
-29.40603462810176
 20
65.05898183921818
 30
0
 10
-32.39404490641353
 20
62.98423684043894
 30
0
 10
-32.05179439692166
 20
58.38828279414425
 30
0
 10
-28.67053201698322
 20
55.18225091550314
 30
0
  0
SPLINE
  5
1B6
100
AcDbEntity
  8
logo
  6
ByLayer
 62
    7
370
   -1
100
AcDbSpline
210
0
220
0
230
0
 70
    8
 71
    3
 72
    8
 73
    4
 74
    0
 42
1e-07
 43
1e-07
 40
0
 40
0
 40
0
 40
0
 40
1
 40
1
 40
1
 40
1
 10
-28.67053201698322
 20
55.18225091550314
 30
0
 10
-28.09775637697498
 20
54.63915360086125
 30
0
 10
-28.2048986759885
 20
54.64459381491151
 30
0
 10
-28.93499070767133
 20
55.19567766774562
 30
0
  0
SPLINE
  5
1B7
100
AcDbEntity
  8
logo
  6
ByLayer
 62
    7
370
   -1
100
AcDbSpline
210
0
220
0
230
0
 70
    8
 71
    3
 72
    8
 73
    4
 74
    0
 42
1e-07
 43
1e-07
 40
0
 40
0
 40
0
 40
0
 40
1
 40
1
 40
1
 40
1
 10
-28.93499070767133
 20
55.19567766774562
 30
0
 10
-30.61991065525175
 20
56.46747490388748
 30
0
 10
-33.71639436394878
 20
60.13538749103158
 30
0
 10
-33.38096987066714
 20
60.46211790822478
 30
0
  0
SPLINE
  5
1B8
100
AcDbEntity
  8
logo
  6
ByLayer
 62
    7
370
   -1
100
AcDbSpline
210
0
220
0
230
0
 70
    8
 71
    3
 72
    8
 73
    4
 74
    0
 42
1e-07
 43
1e-07
 40
0
 40
0
 40
0
 40
0
 40
1
 40
1
 40
1
 40
1
 10
-33.38096987066714
 20
60.46211790822478
 30
0
 10
-32.54861149743278
 20
61.27289796441323
 30
0
 10
-32.77147172472198
 20
62.58889519166814
 30
0
 10
-33.82487610488854
 20
63.08338180539836
 30
0
  0
SPLINE
  5
1B9
100
AcDbEntity
  8
logo
  6
ByLayer
 62
    7
370
   -1
100
AcDbSpline
210
0
220
0
230
0
 70
    8
 71
    3
 72
    8
 73
    4
 74
    0
 42
1e-07
 43
1e-07
 40
0
 40
0
 40
0
 40
0
 40
1
 40
1
 40
1
 40
1
 10
-33.82487610488854
 20
63.08338180539836
 30
0
 10
-34.2340840513909
 20
63.27547332134992
 30
0
 10
-34.2998348534775
 20
63.28267524166462
 30
0
 10
-35.07911066851784
 20
63.22077211932233
 30
0
  0
SPLINE
  5
1BA
100
AcDbEntity
  8
logo
  6
ByLayer
 62
    7
370
   -1
100
AcDbSpline
210
0
220
0
230
0
 70
    8
 71
    3
 72
    8
 73
    4
 74
    0
 42
1e-07
 43
1e-07
 40
0
 40
0
 40
0
 40
0
 40
1
 40
1
 40
1
 40
1
 10
-35.07911066851784
 20
63.22077211932233
 30
0
 10
-35.19496613253665
 20
63.21157041495653
 30
0
 10
-35.3041320884337
 20
63.29436725429436
 30
0
 10
-35.52343590457178
 20
63.55777572892742
 30
0
  0
SPLINE
  5
1BB
100
AcDbEntity
  8
logo
  6
ByLayer
 62
    7
370
   -1
100
AcDbSpline
210
0
220
0
230
0
 70
    8
 71
    3
 72
    8
 73
    4
 74
    0
 42
1e-07
 43
1e-07
 40
0
 40
0
 40
0
 40
0
 40
1
 40
1
 40
1
 40
1
 10
-35.52343590457178
 20
63.55777572892742
 30
0
 10
-37.07979028185541
 20
65.42713103790868
 30
0
 10
-40.01973172488513
 20
66.78102012941045
 30
0
 10
-41.93367410958277
 20
66.50979471315964
 30
0
  0
SPLINE
  5
1BC
100
AcDbEntity
  8
logo
  6
ByLayer
 62
    7
370
   -1
100
AcDbSpline
210
0
220
0
230
0
 70
    8
 71
    3
 72
    8
 73
    4
 74
    0
 42
1e-07
 43
1e-07
 40
0
 40
0
 40
0
 40
0
 40
1
 40
1
 40
1
 40
1
 10
-41.93367410958277
 20
66.50979471315964
 30
0
 10
-45.27425153400987
 20
66.03640047304832
 30
0
 10
-46.41179126611132
 20
61.19607932009558
 30
0
 10
-43.43917883981435
 20
60.10376589400173
 30
0
  0
SPLINE
  5
1BD
100
AcDbEntity
  8
logo
  6
ByLayer
 62
    7
370
   -1
100
AcDbSpline
210
0
220
0
230
0
 70
    8
 71
    3
 72
    8
 73
    4
 74
    0
 42
1e-07
 43
1e-07
 40
0
 40
0
 40
0
 40
0
 40
1
 40
1
 40
1
 40
1
 10
-43.43917883981435
 20
60.10376589400173
 30
0
 10
-41.94083071400757
 20
59.55318338701137
 30
0
 10
-40.73094749425434
 20
60.44538897841998
 30
0
 10
-40.77221192917543
 20
62.07047061392846
 30
0
  0
SPLINE
  5
1BE
100
AcDbEntity
  8
logo
  6
ByLayer
 62
    7
370
   -1
100
AcDbSpline
210
0
220
0
230
0
 70
    8
 71
    3
 72
    8
 73
    4
 74
    0
 42
1e-07
 43
1e-07
 40
0
 40
0
 40
0
 40
0
 40
1
 40
1
 40
1
 40
1
 10
-40.77221192917543
 20
62.07047061392846
 30
0
 10
-40.78805027896877
 20
62.69428810389013
 30
0
 10
-40.89913961118972
 20
63.06620887622169
 30
0
 10
-40.96242525541999
 20
62.70729815265577
 30
0
  0
SPLINE
  5
1BF
100
AcDbEntity
  8
logo
  6
ByLayer
 62
    7
370
   -1
100
AcDbSpline
210
0
220
0
230
0
 70
    8
 71
    3
 72
    8
 73
    4
 74
    0
 42
1e-07
 43
1e-07
 40
0
 40
0
 40
0
 40
0
 40
1
 40
1
 40
1
 40
1
 10
-40.96242525541999
 20
62.70729815265577
 30
0
 10
-41.16938392888832
 20
61.53357719040261
 30
0
 10
-42.68424554042135
 20
61.23023418683063
 30
0
 10
-43.53786195153
 20
62.19158571084108
 30
0
  0
SPLINE
  5
1C0
100
AcDbEntity
  8
logo
  6
ByLayer
 62
    7
370
   -1
100
AcDbSpline
210
0
220
0
230
0
 70
    8
 71
    3
 72
    8
 73
    4
 74
    0
 42
1e-07
 43
1e-07
 40
0
 40
0
 40
0
 40
0
 40
1
 40
1
 40
1
 40
1
 10
-43.53786195153
 20
62.19158571084108
 30
0
 10
-44.28500757265402
 20
63.03302960994263
 30
0
 10
-43.81024183047975
 20
64.86839573954938
 30
0
 10
-42.63820114945396
 20
65.66951125592833
 30
0
  0
SPLINE
  5
1C1
100
AcDbEntity
  8
logo
  6
ByLayer
 62
    7
370
   -1
100
AcDbSpline
210
0
220
0
230
0
 70
    8
 71
    3
 72
    8
 73
    4
 74
    0
 42
1e-07
 43
1e-07
 40
0
 40
0
 40
0
 40
0
 40
1
 40
1
 40
1
 40
1
 10
-42.63820114945396
 20
65.66951125592833
 30
0
 10
-41.24943588532332
 20
66.61876854986943
 30
0
 10
-38.15937159859281
 20
65.69867117097199
 30
0
 10
-36.24219385264453
 20
63.76504309379344
 30
0
  0
SPLINE
  5
1C2
100
AcDbEntity
  8
logo
  6
ByLayer
 62
    7
370
   -1
100
AcDbSpline
210
0
220
0
230
0
 70
    8
 71
    3
 72
    8
 73
    4
 74
    0
 42
1e-07
 43
1e-07
 40
0
 40
0
 40
0
 40
0
 40
1
 40
1
 40
1
 40
1
 10
-36.24219385264453
 20
63.76504309379344
 30
0
 10
-35.60400485953274
 20
63.12137649620412
 30
0
 10
-35.56110124541343
 20
63.01273332795134
 30
0
 10
-35.81975446553398
 20
62.6953030084578
 30
0
  0
SPLINE
  5
1C3
100
AcDbEntity
  8
logo
  6
ByLayer
 62
    7
370
   -1
100
AcDbSpline
210
0
220
0
230
0
 70
    8
 71
    3
 72
    8
 73
    4
 74
    0
 42
1e-07
 43
1e-07
 40
0
 40
0
 40
0
 40
0
 40
1
 40
1
 40
1
 40
1
 10
-35.81975446553398
 20
62.6953030084578
 30
0
 10
-36.7636550304087
 20
61.53690850605732
 30
0
 10
-35.47365378047887
 20
59.66249051879814
 30
0
 10
-34.0616715256696
 20
60.14074818189401
 30
0
  0
SPLINE
  5
1C4
100
AcDbEntity
  8
logo
  6
ByLayer
 62
    7
370
   -1
100
AcDbSpline
210
0
220
0
230
0
 70
    8
 71
    3
 72
    8
 73
    4
 74
    0
 42
1e-07
 43
1e-07
 40
0
 40
0
 40
0
 40
0
 40
1
 40
1
 40
1
 40
1
 10
-33.03628490576251
 20
59.08538837712811
 30
0
 10
-30.51467044749045
 20
55.58667886258714
 30
0
 10
-27.89710319901079
 20
53.60728158768066
 30
0
 10
-24.26992485539199
 20
52.45629256878297
 30
0
  0
SPLINE
  5
1C5
100
AcDbEntity
  8
logo
  6
ByLayer
 62
    7
370
   -1
100
AcDbSpline
210
0
220
0
230
0
 70
    8
 71
    3
 72
    8
 73
    4
 74
    0
 42
1e-07
 43
1e-07
 40
0
 40
0
 40
0
 40
0
 40
1
 40
1
 40
1
 40
1
 10
-24.26992485539199
 20
52.45629256878297
 30
0
 10
-23.66553213830359
 20
52.26450468598062
 30
0
 10
-22.12903306994072
 20
51.95511154577005
 30
0
 10
-21.8334298704351
 20
51.9656735494317
 30
0
  0
LWPOLYLINE
  5
1C6
100
AcDbEntity
  8
logo
  6
ByLayer
 62
    7
370
   -1
100
AcDbPolyline
 90
    2
 70
    0
 43
0
 10
-34.0616715256696
 20
60.14074818189401
 10
-33.03628490576251
 20
59.08538837712811
  0
ENDSEC
  0
SECTION
  2
OBJECTS
  0
DICTIONARY
  5
C
330
0
100
AcDbDictionary
281
    1
  3
ACAD_GROUP
350
D
  0
DICTIONARY
  5
D
330
C
100
AcDbDictionary
281
    1
  0
PLOTSETTINGS
  5
1C7
100
AcDbPlotSettings
  6
1x1
 40
0
 41
0
 42
0
 43
0
  0
ENDSEC
  0
EOF
