0
SECTION
2
HEADER
9
$INSUNITS
70
4
0
ENDSEC
0
SECTION
2
TABLES
0
TABLE
2
LTYPE
0
LTYPE
72
65
70
64
2
CONTINUOUS
3
______
73
0
40
0
0
ENDTAB
0
TABLE
2
LAYER
0
ENDTAB
0
ENDSEC
0
SECTION
2
ENTITIES
0
LINE
8
0
10
3.025
20
-2.525
11
16.025
21
-2.525
0
LINE
8
0
10
3.025
20
-16.525
11
16.025
21
-16.525
0
LINE
8
0
10
2.525
20
-3.025
11
2.525
21
-16.025
0
LINE
8
0
10
16.525
20
-3.025
11
16.525
21
-16.025
0
ARC
8
0
10
3.025
20
-3.025
40
0.5
50
90
51
180
0
ARC
8
0
10
16.025
20
-3.025
40
0.5
50
0
51
90
0
ARC
8
0
10
3.025
20
-16.025
40
0.5
50
180
51
270
0
ARC
8
0
10
16.025
20
-16.025
40
0.5
50
270
51
0
0
LINE
8
0
10
22.075
20
-2.525
11
35.075
21
-2.525
0
LINE
8
0
10
22.075
20
-16.525
11
35.075
21
-16.525
0
LINE
8
0
10
21.575
20
-3.025
11
21.575
21
-16.025
0
LINE
8
0
10
35.575
20
-3.025
11
35.575
21
-16.025
0
ARC
8
0
10
22.075
20
-3.025
40
0.5
50
90
51
180
0
ARC
8
0
10
35.075
20
-3.025
40
0.5
50
0
51
90
0
ARC
8
0
10
22.075
20
-16.025
40
0.5
50
180
51
270
0
ARC
8
0
10
35.075
20
-16.025
40
0.5
50
270
51
0
0
LINE
8
0
10
41.125
20
-2.525
11
54.125
21
-2.525
0
LINE
8
0
10
41.125
20
-16.525
11
54.125
21
-16.525
0
LINE
8
0
10
40.625
20
-3.025
11
40.625
21
-16.025
0
LINE
8
0
10
54.625
20
-3.025
11
54.625
21
-16.025
0
ARC
8
0
10
41.125
20
-3.025
40
0.5
50
90
51
180
0
ARC
8
0
10
54.125
20
-3.025
40
0.5
50
0
51
90
0
ARC
8
0
10
41.125
20
-16.025
40
0.5
50
180
51
270
0
ARC
8
0
10
54.125
20
-16.025
40
0.5
50
270
51
0
0
LINE
8
0
10
60.175
20
-2.525
11
73.175
21
-2.525
0
LINE
8
0
10
60.175
20
-16.525
11
73.175
21
-16.525
0
LINE
8
0
10
59.675
20
-3.025
11
59.675
21
-16.025
0
LINE
8
0
10
73.675
20
-3.025
11
73.675
21
-16.025
0
ARC
8
0
10
60.175
20
-3.025
40
0.5
50
90
51
180
0
ARC
8
0
10
73.175
20
-3.025
40
0.5
50
0
51
90
0
ARC
8
0
10
60.175
20
-16.025
40
0.5
50
180
51
270
0
ARC
8
0
10
73.175
20
-16.025
40
0.5
50
270
51
0
0
LINE
8
0
10
79.225
20
-2.525
11
92.225
21
-2.525
0
LINE
8
0
10
79.225
20
-16.525
11
92.225
21
-16.525
0
LINE
8
0
10
78.725
20
-3.025
11
78.725
21
-16.025
0
LINE
8
0
10
92.725
20
-3.025
11
92.725
21
-16.025
0
ARC
8
0
10
79.225
20
-3.025
40
0.5
50
90
51
180
0
ARC
8
0
10
92.225
20
-3.025
40
0.5
50
0
51
90
0
ARC
8
0
10
79.225
20
-16.025
40
0.5
50
180
51
270
0
ARC
8
0
10
92.225
20
-16.025
40
0.5
50
270
51
0
0
LINE
8
0
10
98.275
20
-2.525
11
111.275
21
-2.525
0
LINE
8
0
10
98.275
20
-16.525
11
111.275
21
-16.525
0
LINE
8
0
10
97.775
20
-3.025
11
97.775
21
-16.025
0
LINE
8
0
10
111.775
20
-3.025
11
111.775
21
-16.025
0
ARC
8
0
10
98.275
20
-3.025
40
0.5
50
90
51
180
0
ARC
8
0
10
111.275
20
-3.025
40
0.5
50
0
51
90
0
ARC
8
0
10
98.275
20
-16.025
40
0.5
50
180
51
270
0
ARC
8
0
10
111.275
20
-16.025
40
0.5
50
270
51
0
0
LINE
8
0
10
117.325
20
-2.525
11
130.325
21
-2.525
0
LINE
8
0
10
117.325
20
-16.525
11
130.325
21
-16.525
0
LINE
8
0
10
116.825
20
-3.025
11
116.825
21
-16.025
0
LINE
8
0
10
130.825
20
-3.025
11
130.825
21
-16.025
0
ARC
8
0
10
117.325
20
-3.025
40
0.5
50
90
51
180
0
ARC
8
0
10
130.325
20
-3.025
40
0.5
50
0
51
90
0
ARC
8
0
10
117.325
20
-16.025
40
0.5
50
180
51
270
0
ARC
8
0
10
130.325
20
-16.025
40
0.5
50
270
51
0
0
LINE
8
0
10
136.375
20
-2.525
11
149.375
21
-2.525
0
LINE
8
0
10
136.375
20
-16.525
11
149.375
21
-16.525
0
LINE
8
0
10
135.875
20
-3.025
11
135.875
21
-16.025
0
LINE
8
0
10
149.875
20
-3.025
11
149.875
21
-16.025
0
ARC
8
0
10
136.375
20
-3.025
40
0.5
50
90
51
180
0
ARC
8
0
10
149.375
20
-3.025
40
0.5
50
0
51
90
0
ARC
8
0
10
136.375
20
-16.025
40
0.5
50
180
51
270
0
ARC
8
0
10
149.375
20
-16.025
40
0.5
50
270
51
0
0
LINE
8
0
10
155.425
20
-2.525
11
168.425
21
-2.525
0
LINE
8
0
10
155.425
20
-16.525
11
168.425
21
-16.525
0
LINE
8
0
10
154.925
20
-3.025
11
154.925
21
-16.025
0
LINE
8
0
10
168.925
20
-3.025
11
168.925
21
-16.025
0
ARC
8
0
10
155.425
20
-3.025
40
0.5
50
90
51
180
0
ARC
8
0
10
168.425
20
-3.025
40
0.5
50
0
51
90
0
ARC
8
0
10
155.425
20
-16.025
40
0.5
50
180
51
270
0
ARC
8
0
10
168.425
20
-16.025
40
0.5
50
270
51
0
0
LINE
8
0
10
174.475
20
-2.525
11
187.475
21
-2.525
0
LINE
8
0
10
174.475
20
-16.525
11
187.475
21
-16.525
0
LINE
8
0
10
173.975
20
-3.025
11
173.975
21
-16.025
0
LINE
8
0
10
187.975
20
-3.025
11
187.975
21
-16.025
0
ARC
8
0
10
174.475
20
-3.025
40
0.5
50
90
51
180
0
ARC
8
0
10
187.475
20
-3.025
40
0.5
50
0
51
90
0
ARC
8
0
10
174.475
20
-16.025
40
0.5
50
180
51
270
0
ARC
8
0
10
187.475
20
-16.025
40
0.5
50
270
51
0
0
LINE
8
0
10
193.525
20
-2.525
11
206.525
21
-2.525
0
LINE
8
0
10
193.525
20
-16.525
11
206.525
21
-16.525
0
LINE
8
0
10
193.025
20
-3.025
11
193.025
21
-16.025
0
LINE
8
0
10
207.025
20
-3.025
11
207.025
21
-16.025
0
ARC
8
0
10
193.525
20
-3.025
40
0.5
50
90
51
180
0
ARC
8
0
10
206.525
20
-3.025
40
0.5
50
0
51
90
0
ARC
8
0
10
193.525
20
-16.025
40
0.5
50
180
51
270
0
ARC
8
0
10
206.525
20
-16.025
40
0.5
50
270
51
0
0
LINE
8
0
10
212.575
20
-2.525
11
225.575
21
-2.525
0
LINE
8
0
10
212.575
20
-16.525
11
225.575
21
-16.525
0
LINE
8
0
10
212.075
20
-3.025
11
212.075
21
-16.025
0
LINE
8
0
10
226.075
20
-3.025
11
226.075
21
-16.025
0
ARC
8
0
10
212.575
20
-3.025
40
0.5
50
90
51
180
0
ARC
8
0
10
225.575
20
-3.025
40
0.5
50
0
51
90
0
ARC
8
0
10
212.575
20
-16.025
40
0.5
50
180
51
270
0
ARC
8
0
10
225.575
20
-16.025
40
0.5
50
270
51
0
0
LINE
8
0
10
260.2
20
-2.525
11
273.2
21
-2.525
0
LINE
8
0
10
260.2
20
-16.525
11
273.2
21
-16.525
0
LINE
8
0
10
259.7
20
-3.025
11
259.7
21
-16.025
0
LINE
8
0
10
273.7
20
-3.025
11
273.7
21
-16.025
0
ARC
8
0
10
260.2
20
-3.025
40
0.5
50
90
51
180
0
ARC
8
0
10
273.2
20
-3.025
40
0.5
50
0
51
90
0
ARC
8
0
10
260.2
20
-16.025
40
0.5
50
180
51
270
0
ARC
8
0
10
273.2
20
-16.025
40
0.5
50
270
51
0
0
LINE
8
0
10
279.25
20
-2.525
11
292.25
21
-2.525
0
LINE
8
0
10
279.25
20
-16.525
11
292.25
21
-16.525
0
LINE
8
0
10
278.75
20
-3.025
11
278.75
21
-16.025
0
LINE
8
0
10
292.75
20
-3.025
11
292.75
21
-16.025
0
ARC
8
0
10
279.25
20
-3.025
40
0.5
50
90
51
180
0
ARC
8
0
10
292.25
20
-3.025
40
0.5
50
0
51
90
0
ARC
8
0
10
279.25
20
-16.025
40
0.5
50
180
51
270
0
ARC
8
0
10
292.25
20
-16.025
40
0.5
50
270
51
0
0
LINE
8
0
10
298.3
20
-2.525
11
311.3
21
-2.525
0
LINE
8
0
10
298.3
20
-16.525
11
311.3
21
-16.525
0
LINE
8
0
10
297.8
20
-3.025
11
297.8
21
-16.025
0
LINE
8
0
10
311.8
20
-3.025
11
311.8
21
-16.025
0
ARC
8
0
10
298.3
20
-3.025
40
0.5
50
90
51
180
0
ARC
8
0
10
311.3
20
-3.025
40
0.5
50
0
51
90
0
ARC
8
0
10
298.3
20
-16.025
40
0.5
50
180
51
270
0
ARC
8
0
10
311.3
20
-16.025
40
0.5
50
270
51
0
0
LINE
8
0
10
317.35
20
-2.525
11
330.35
21
-2.525
0
LINE
8
0
10
317.35
20
-16.525
11
330.35
21
-16.525
0
LINE
8
0
10
316.85
20
-3.025
11
316.85
21
-16.025
0
LINE
8
0
10
330.85
20
-3.025
11
330.85
21
-16.025
0
ARC
8
0
10
317.35
20
-3.025
40
0.5
50
90
51
180
0
ARC
8
0
10
330.35
20
-3.025
40
0.5
50
0
51
90
0
ARC
8
0
10
317.35
20
-16.025
40
0.5
50
180
51
270
0
ARC
8
0
10
330.35
20
-16.025
40
0.5
50
270
51
0
0
LINE
8
0
10
5.40625
20
-21.575
11
18.40625
21
-21.575
0
LINE
8
0
10
5.40625
20
-35.575
11
18.40625
21
-35.575
0
LINE
8
0
10
4.90625
20
-22.075
11
4.90625
21
-35.075
0
LINE
8
0
10
18.90625
20
-22.075
11
18.90625
21
-35.075
0
ARC
8
0
10
5.40625
20
-22.075
40
0.5
50
90
51
180
0
ARC
8
0
10
18.40625
20
-22.075
40
0.5
50
0
51
90
0
ARC
8
0
10
5.40625
20
-35.075
40
0.5
50
180
51
270
0
ARC
8
0
10
18.40625
20
-35.075
40
0.5
50
270
51
0
0
LINE
8
0
10
26.8375
20
-21.575
11
39.8375
21
-21.575
0
LINE
8
0
10
26.8375
20
-35.575
11
39.8375
21
-35.575
0
LINE
8
0
10
26.3375
20
-22.075
11
26.3375
21
-35.075
0
LINE
8
0
10
40.3375
20
-22.075
11
40.3375
21
-35.075
0
ARC
8
0
10
26.8375
20
-22.075
40
0.5
50
90
51
180
0
ARC
8
0
10
39.8375
20
-22.075
40
0.5
50
0
51
90
0
ARC
8
0
10
26.8375
20
-35.075
40
0.5
50
180
51
270
0
ARC
8
0
10
39.8375
20
-35.075
40
0.5
50
270
51
0
0
LINE
8
0
10
45.8875
20
-21.575
11
58.8875
21
-21.575
0
LINE
8
0
10
45.8875
20
-35.575
11
58.8875
21
-35.575
0
LINE
8
0
10
45.3875
20
-22.075
11
45.3875
21
-35.075
0
LINE
8
0
10
59.3875
20
-22.075
11
59.3875
21
-35.075
0
ARC
8
0
10
45.8875
20
-22.075
40
0.5
50
90
51
180
0
ARC
8
0
10
58.8875
20
-22.075
40
0.5
50
0
51
90
0
ARC
8
0
10
45.8875
20
-35.075
40
0.5
50
180
51
270
0
ARC
8
0
10
58.8875
20
-35.075
40
0.5
50
270
51
0
0
LINE
8
0
10
64.9375
20
-21.575
11
77.9375
21
-21.575
0
LINE
8
0
10
64.9375
20
-35.575
11
77.9375
21
-35.575
0
LINE
8
0
10
64.4375
20
-22.075
11
64.4375
21
-35.075
0
LINE
8
0
10
78.4375
20
-22.075
11
78.4375
21
-35.075
0
ARC
8
0
10
64.9375
20
-22.075
40
0.5
50
90
51
180
0
ARC
8
0
10
77.9375
20
-22.075
40
0.5
50
0
51
90
0
ARC
8
0
10
64.9375
20
-35.075
40
0.5
50
180
51
270
0
ARC
8
0
10
77.9375
20
-35.075
40
0.5
50
270
51
0
0
LINE
8
0
10
83.9875
20
-21.575
11
96.9875
21
-21.575
0
LINE
8
0
10
83.9875
20
-35.575
11
96.9875
21
-35.575
0
LINE
8
0
10
83.4875
20
-22.075
11
83.4875
21
-35.075
0
LINE
8
0
10
97.4875
20
-22.075
11
97.4875
21
-35.075
0
ARC
8
0
10
83.9875
20
-22.075
40
0.5
50
90
51
180
0
ARC
8
0
10
96.9875
20
-22.075
40
0.5
50
0
51
90
0
ARC
8
0
10
83.9875
20
-35.075
40
0.5
50
180
51
270
0
ARC
8
0
10
96.9875
20
-35.075
40
0.5
50
270
51
0
0
LINE
8
0
10
103.0375
20
-21.575
11
116.0375
21
-21.575
0
LINE
8
0
10
103.0375
20
-35.575
11
116.0375
21
-35.575
0
LINE
8
0
10
102.5375
20
-22.075
11
102.5375
21
-35.075
0
LINE
8
0
10
116.5375
20
-22.075
11
116.5375
21
-35.075
0
ARC
8
0
10
103.0375
20
-22.075
40
0.5
50
90
51
180
0
ARC
8
0
10
116.0375
20
-22.075
40
0.5
50
0
51
90
0
ARC
8
0
10
103.0375
20
-35.075
40
0.5
50
180
51
270
0
ARC
8
0
10
116.0375
20
-35.075
40
0.5
50
270
51
0
0
LINE
8
0
10
122.0875
20
-21.575
11
135.0875
21
-21.575
0
LINE
8
0
10
122.0875
20
-35.575
11
135.0875
21
-35.575
0
LINE
8
0
10
121.5875
20
-22.075
11
121.5875
21
-35.075
0
LINE
8
0
10
135.5875
20
-22.075
11
135.5875
21
-35.075
0
ARC
8
0
10
122.0875
20
-22.075
40
0.5
50
90
51
180
0
ARC
8
0
10
135.0875
20
-22.075
40
0.5
50
0
51
90
0
ARC
8
0
10
122.0875
20
-35.075
40
0.5
50
180
51
270
0
ARC
8
0
10
135.0875
20
-35.075
40
0.5
50
270
51
0
0
LINE
8
0
10
141.1375
20
-21.575
11
154.1375
21
-21.575
0
LINE
8
0
10
141.1375
20
-35.575
11
154.1375
21
-35.575
0
LINE
8
0
10
140.6375
20
-22.075
11
140.6375
21
-35.075
0
LINE
8
0
10
154.6375
20
-22.075
11
154.6375
21
-35.075
0
ARC
8
0
10
141.1375
20
-22.075
40
0.5
50
90
51
180
0
ARC
8
0
10
154.1375
20
-22.075
40
0.5
50
0
51
90
0
ARC
8
0
10
141.1375
20
-35.075
40
0.5
50
180
51
270
0
ARC
8
0
10
154.1375
20
-35.075
40
0.5
50
270
51
0
0
LINE
8
0
10
160.1875
20
-21.575
11
173.1875
21
-21.575
0
LINE
8
0
10
160.1875
20
-35.575
11
173.1875
21
-35.575
0
LINE
8
0
10
159.6875
20
-22.075
11
159.6875
21
-35.075
0
LINE
8
0
10
173.6875
20
-22.075
11
173.6875
21
-35.075
0
ARC
8
0
10
160.1875
20
-22.075
40
0.5
50
90
51
180
0
ARC
8
0
10
173.1875
20
-22.075
40
0.5
50
0
51
90
0
ARC
8
0
10
160.1875
20
-35.075
40
0.5
50
180
51
270
0
ARC
8
0
10
173.1875
20
-35.075
40
0.5
50
270
51
0
0
LINE
8
0
10
179.2375
20
-21.575
11
192.2375
21
-21.575
0
LINE
8
0
10
179.2375
20
-35.575
11
192.2375
21
-35.575
0
LINE
8
0
10
178.7375
20
-22.075
11
178.7375
21
-35.075
0
LINE
8
0
10
192.7375
20
-22.075
11
192.7375
21
-35.075
0
ARC
8
0
10
179.2375
20
-22.075
40
0.5
50
90
51
180
0
ARC
8
0
10
192.2375
20
-22.075
40
0.5
50
0
51
90
0
ARC
8
0
10
179.2375
20
-35.075
40
0.5
50
180
51
270
0
ARC
8
0
10
192.2375
20
-35.075
40
0.5
50
270
51
0
0
LINE
8
0
10
205.43125
20
-21.575
11
218.43125
21
-21.575
0
LINE
8
0
10
205.43125
20
-35.575
11
218.43125
21
-35.575
0
LINE
8
0
10
204.93125
20
-22.075
11
204.93125
21
-35.075
0
LINE
8
0
10
218.93125
20
-22.075
11
218.93125
21
-35.075
0
ARC
8
0
10
205.43125
20
-22.075
40
0.5
50
90
51
180
0
ARC
8
0
10
218.43125
20
-22.075
40
0.5
50
0
51
90
0
ARC
8
0
10
205.43125
20
-35.075
40
0.5
50
180
51
270
0
ARC
8
0
10
218.43125
20
-35.075
40
0.5
50
270
51
0
0
LINE
8
0
10
260.2
20
-21.575
11
273.2
21
-21.575
0
LINE
8
0
10
260.2
20
-35.575
11
273.2
21
-35.575
0
LINE
8
0
10
259.7
20
-22.075
11
259.7
21
-35.075
0
LINE
8
0
10
273.7
20
-22.075
11
273.7
21
-35.075
0
ARC
8
0
10
260.2
20
-22.075
40
0.5
50
90
51
180
0
ARC
8
0
10
273.2
20
-22.075
40
0.5
50
0
51
90
0
ARC
8
0
10
260.2
20
-35.075
40
0.5
50
180
51
270
0
ARC
8
0
10
273.2
20
-35.075
40
0.5
50
270
51
0
0
LINE
8
0
10
279.25
20
-21.575
11
292.25
21
-21.575
0
LINE
8
0
10
279.25
20
-35.575
11
292.25
21
-35.575
0
LINE
8
0
10
278.75
20
-22.075
11
278.75
21
-35.075
0
LINE
8
0
10
292.75
20
-22.075
11
292.75
21
-35.075
0
ARC
8
0
10
279.25
20
-22.075
40
0.5
50
90
51
180
0
ARC
8
0
10
292.25
20
-22.075
40
0.5
50
0
51
90
0
ARC
8
0
10
279.25
20
-35.075
40
0.5
50
180
51
270
0
ARC
8
0
10
292.25
20
-35.075
40
0.5
50
270
51
0
0
LINE
8
0
10
298.3
20
-21.575
11
311.3
21
-21.575
0
LINE
8
0
10
298.3
20
-35.575
11
311.3
21
-35.575
0
LINE
8
0
10
297.8
20
-22.075
11
297.8
21
-35.075
0
LINE
8
0
10
311.8
20
-22.075
11
311.8
21
-35.075
0
ARC
8
0
10
298.3
20
-22.075
40
0.5
50
90
51
180
0
ARC
8
0
10
311.3
20
-22.075
40
0.5
50
0
51
90
0
ARC
8
0
10
298.3
20
-35.075
40
0.5
50
180
51
270
0
ARC
8
0
10
311.3
20
-35.075
40
0.5
50
270
51
0
0
LINE
8
0
10
317.35
20
-21.575
11
330.35
21
-21.575
0
LINE
8
0
10
317.35
20
-35.575
11
330.35
21
-35.575
0
LINE
8
0
10
316.85
20
-22.075
11
316.85
21
-35.075
0
LINE
8
0
10
330.85
20
-22.075
11
330.85
21
-35.075
0
ARC
8
0
10
317.35
20
-22.075
40
0.5
50
90
51
180
0
ARC
8
0
10
330.35
20
-22.075
40
0.5
50
0
51
90
0
ARC
8
0
10
317.35
20
-35.075
40
0.5
50
180
51
270
0
ARC
8
0
10
330.35
20
-35.075
40
0.5
50
270
51
0
0
LINE
8
0
10
10.16875
20
-40.625
11
23.16875
21
-40.625
0
LINE
8
0
10
10.16875
20
-54.625
11
23.16875
21
-54.625
0
LINE
8
0
10
9.66875
20
-41.125
11
9.66875
21
-54.125
0
LINE
8
0
10
23.66875
20
-41.125
11
23.66875
21
-54.125
0
ARC
8
0
10
10.16875
20
-41.125
40
0.5
50
90
51
180
0
ARC
8
0
10
23.16875
20
-41.125
40
0.5
50
0
51
90
0
ARC
8
0
10
10.16875
20
-54.125
40
0.5
50
180
51
270
0
ARC
8
0
10
23.16875
20
-54.125
40
0.5
50
270
51
0
0
LINE
8
0
10
36.3625
20
-40.625
11
49.3625
21
-40.625
0
LINE
8
0
10
36.3625
20
-54.625
11
49.3625
21
-54.625
0
LINE
8
0
10
35.8625
20
-41.125
11
35.8625
21
-54.125
0
LINE
8
0
10
49.8625
20
-41.125
11
49.8625
21
-54.125
0
ARC
8
0
10
36.3625
20
-41.125
40
0.5
50
90
51
180
0
ARC
8
0
10
49.3625
20
-41.125
40
0.5
50
0
51
90
0
ARC
8
0
10
36.3625
20
-54.125
40
0.5
50
180
51
270
0
ARC
8
0
10
49.3625
20
-54.125
40
0.5
50
270
51
0
0
LINE
8
0
10
55.4125
20
-40.625
11
68.4125
21
-40.625
0
LINE
8
0
10
55.4125
20
-54.625
11
68.4125
21
-54.625
0
LINE
8
0
10
54.9125
20
-41.125
11
54.9125
21
-54.125
0
LINE
8
0
10
68.9125
20
-41.125
11
68.9125
21
-54.125
0
ARC
8
0
10
55.4125
20
-41.125
40
0.5
50
90
51
180
0
ARC
8
0
10
68.4125
20
-41.125
40
0.5
50
0
51
90
0
ARC
8
0
10
55.4125
20
-54.125
40
0.5
50
180
51
270
0
ARC
8
0
10
68.4125
20
-54.125
40
0.5
50
270
51
0
0
LINE
8
0
10
74.4625
20
-40.625
11
87.4625
21
-40.625
0
LINE
8
0
10
74.4625
20
-54.625
11
87.4625
21
-54.625
0
LINE
8
0
10
73.9625
20
-41.125
11
73.9625
21
-54.125
0
LINE
8
0
10
87.9625
20
-41.125
11
87.9625
21
-54.125
0
ARC
8
0
10
74.4625
20
-41.125
40
0.5
50
90
51
180
0
ARC
8
0
10
87.4625
20
-41.125
40
0.5
50
0
51
90
0
ARC
8
0
10
74.4625
20
-54.125
40
0.5
50
180
51
270
0
ARC
8
0
10
87.4625
20
-54.125
40
0.5
50
270
51
0
0
LINE
8
0
10
93.5125
20
-40.625
11
106.5125
21
-40.625
0
LINE
8
0
10
93.5125
20
-54.625
11
106.5125
21
-54.625
0
LINE
8
0
10
93.0125
20
-41.125
11
93.0125
21
-54.125
0
LINE
8
0
10
107.0125
20
-41.125
11
107.0125
21
-54.125
0
ARC
8
0
10
93.5125
20
-41.125
40
0.5
50
90
51
180
0
ARC
8
0
10
106.5125
20
-41.125
40
0.5
50
0
51
90
0
ARC
8
0
10
93.5125
20
-54.125
40
0.5
50
180
51
270
0
ARC
8
0
10
106.5125
20
-54.125
40
0.5
50
270
51
0
0
LINE
8
0
10
112.5625
20
-40.625
11
125.5625
21
-40.625
0
LINE
8
0
10
112.5625
20
-54.625
11
125.5625
21
-54.625
0
LINE
8
0
10
112.0625
20
-41.125
11
112.0625
21
-54.125
0
LINE
8
0
10
126.0625
20
-41.125
11
126.0625
21
-54.125
0
ARC
8
0
10
112.5625
20
-41.125
40
0.5
50
90
51
180
0
ARC
8
0
10
125.5625
20
-41.125
40
0.5
50
0
51
90
0
ARC
8
0
10
112.5625
20
-54.125
40
0.5
50
180
51
270
0
ARC
8
0
10
125.5625
20
-54.125
40
0.5
50
270
51
0
0
LINE
8
0
10
131.6125
20
-40.625
11
144.6125
21
-40.625
0
LINE
8
0
10
131.6125
20
-54.625
11
144.6125
21
-54.625
0
LINE
8
0
10
131.1125
20
-41.125
11
131.1125
21
-54.125
0
LINE
8
0
10
145.1125
20
-41.125
11
145.1125
21
-54.125
0
ARC
8
0
10
131.6125
20
-41.125
40
0.5
50
90
51
180
0
ARC
8
0
10
144.6125
20
-41.125
40
0.5
50
0
51
90
0
ARC
8
0
10
131.6125
20
-54.125
40
0.5
50
180
51
270
0
ARC
8
0
10
144.6125
20
-54.125
40
0.5
50
270
51
0
0
LINE
8
0
10
150.6625
20
-40.625
11
163.6625
21
-40.625
0
LINE
8
0
10
150.6625
20
-54.625
11
163.6625
21
-54.625
0
LINE
8
0
10
150.1625
20
-41.125
11
150.1625
21
-54.125
0
LINE
8
0
10
164.1625
20
-41.125
11
164.1625
21
-54.125
0
ARC
8
0
10
150.6625
20
-41.125
40
0.5
50
90
51
180
0
ARC
8
0
10
163.6625
20
-41.125
40
0.5
50
0
51
90
0
ARC
8
0
10
150.6625
20
-54.125
40
0.5
50
180
51
270
0
ARC
8
0
10
163.6625
20
-54.125
40
0.5
50
270
51
0
0
LINE
8
0
10
169.7125
20
-40.625
11
182.7125
21
-40.625
0
LINE
8
0
10
169.7125
20
-54.625
11
182.7125
21
-54.625
0
LINE
8
0
10
169.2125
20
-41.125
11
169.2125
21
-54.125
0
LINE
8
0
10
183.2125
20
-41.125
11
183.2125
21
-54.125
0
ARC
8
0
10
169.7125
20
-41.125
40
0.5
50
90
51
180
0
ARC
8
0
10
182.7125
20
-41.125
40
0.5
50
0
51
90
0
ARC
8
0
10
169.7125
20
-54.125
40
0.5
50
180
51
270
0
ARC
8
0
10
182.7125
20
-54.125
40
0.5
50
270
51
0
0
LINE
8
0
10
188.7625
20
-40.625
11
201.7625
21
-40.625
0
LINE
8
0
10
188.7625
20
-54.625
11
201.7625
21
-54.625
0
LINE
8
0
10
188.2625
20
-41.125
11
188.2625
21
-54.125
0
LINE
8
0
10
202.2625
20
-41.125
11
202.2625
21
-54.125
0
ARC
8
0
10
188.7625
20
-41.125
40
0.5
50
90
51
180
0
ARC
8
0
10
201.7625
20
-41.125
40
0.5
50
0
51
90
0
ARC
8
0
10
188.7625
20
-54.125
40
0.5
50
180
51
270
0
ARC
8
0
10
201.7625
20
-54.125
40
0.5
50
270
51
0
0
LINE
8
0
10
210.19375
20
-40.625
11
223.19375
21
-40.625
0
LINE
8
0
10
210.19375
20
-54.625
11
223.19375
21
-54.625
0
LINE
8
0
10
209.69375
20
-41.125
11
209.69375
21
-54.125
0
LINE
8
0
10
223.69375
20
-41.125
11
223.69375
21
-54.125
0
ARC
8
0
10
210.19375
20
-41.125
40
0.5
50
90
51
180
0
ARC
8
0
10
223.19375
20
-41.125
40
0.5
50
0
51
90
0
ARC
8
0
10
210.19375
20
-54.125
40
0.5
50
180
51
270
0
ARC
8
0
10
223.19375
20
-54.125
40
0.5
50
270
51
0
0
LINE
8
0
10
260.2
20
-40.625
11
273.2
21
-40.625
0
LINE
8
0
10
260.2
20
-54.625
11
273.2
21
-54.625
0
LINE
8
0
10
259.7
20
-41.125
11
259.7
21
-54.125
0
LINE
8
0
10
273.7
20
-41.125
11
273.7
21
-54.125
0
ARC
8
0
10
260.2
20
-41.125
40
0.5
50
90
51
180
0
ARC
8
0
10
273.2
20
-41.125
40
0.5
50
0
51
90
0
ARC
8
0
10
260.2
20
-54.125
40
0.5
50
180
51
270
0
ARC
8
0
10
273.2
20
-54.125
40
0.5
50
270
51
0
0
LINE
8
0
10
279.25
20
-40.625
11
292.25
21
-40.625
0
LINE
8
0
10
279.25
20
-54.625
11
292.25
21
-54.625
0
LINE
8
0
10
278.75
20
-41.125
11
278.75
21
-54.125
0
LINE
8
0
10
292.75
20
-41.125
11
292.75
21
-54.125
0
ARC
8
0
10
279.25
20
-41.125
40
0.5
50
90
51
180
0
ARC
8
0
10
292.25
20
-41.125
40
0.5
50
0
51
90
0
ARC
8
0
10
279.25
20
-54.125
40
0.5
50
180
51
270
0
ARC
8
0
10
292.25
20
-54.125
40
0.5
50
270
51
0
0
LINE
8
0
10
298.3
20
-40.625
11
311.3
21
-40.625
0
LINE
8
0
10
298.3
20
-54.625
11
311.3
21
-54.625
0
LINE
8
0
10
297.8
20
-41.125
11
297.8
21
-54.125
0
LINE
8
0
10
311.8
20
-41.125
11
311.8
21
-54.125
0
ARC
8
0
10
298.3
20
-41.125
40
0.5
50
90
51
180
0
ARC
8
0
10
311.3
20
-41.125
40
0.5
50
0
51
90
0
ARC
8
0
10
298.3
20
-54.125
40
0.5
50
180
51
270
0
ARC
8
0
10
311.3
20
-54.125
40
0.5
50
270
51
0
0
LINE
8
0
10
330.85
20
-50.65
11
330.85
21
-63.65
0
LINE
8
0
10
316.85
20
-50.65
11
316.85
21
-63.65
0
LINE
8
0
10
330.35
20
-50.15
11
317.35
21
-50.15
0
LINE
8
0
10
330.35
20
-64.15
11
317.35
21
-64.15
0
ARC
8
0
10
330.35
20
-50.65
40
0.5
50
0
51
90
0
ARC
8
0
10
330.35
20
-63.65
40
0.5
50
270
51
0
0
ARC
8
0
10
317.35
20
-50.65
40
0.5
50
90
51
180
0
ARC
8
0
10
317.35
20
-63.65
40
0.5
50
180
51
270
0
LINE
8
0
10
329.85
20
-42.212
11
329.85
21
-48.212
0
LINE
8
0
10
314.85
20
-42.212
11
314.85
21
-48.212
0
LINE
8
0
10
329.35
20
-41.712
11
315.35
21
-41.712
0
LINE
8
0
10
329.35
20
-48.712
11
315.35
21
-48.712
0
ARC
8
0
10
329.35
20
-42.212
40
0.5
50
0
51
90
0
ARC
8
0
10
329.35
20
-48.212
40
0.5
50
270
51
0
0
ARC
8
0
10
315.35
20
-42.212
40
0.5
50
90
51
180
0
ARC
8
0
10
315.35
20
-48.212
40
0.5
50
180
51
270
0
LINE
8
0
10
329.85
20
-66.088
11
329.85
21
-72.088
0
LINE
8
0
10
314.85
20
-66.088
11
314.85
21
-72.088
0
LINE
8
0
10
329.35
20
-65.588
11
315.35
21
-65.588
0
LINE
8
0
10
329.35
20
-72.588
11
315.35
21
-72.588
0
ARC
8
0
10
329.35
20
-66.088
40
0.5
50
0
51
90
0
ARC
8
0
10
329.35
20
-72.088
40
0.5
50
270
51
0
0
ARC
8
0
10
315.35
20
-66.088
40
0.5
50
90
51
180
0
ARC
8
0
10
315.35
20
-72.088
40
0.5
50
180
51
270
0
LINE
8
0
10
236.3875
20
-45.3875
11
249.3875
21
-45.3875
0
LINE
8
0
10
236.3875
20
-59.3875
11
249.3875
21
-59.3875
0
LINE
8
0
10
235.8875
20
-45.8875
11
235.8875
21
-58.8875
0
LINE
8
0
10
249.8875
20
-45.8875
11
249.8875
21
-58.8875
0
ARC
8
0
10
236.3875
20
-45.8875
40
0.5
50
90
51
180
0
ARC
8
0
10
249.3875
20
-45.8875
40
0.5
50
0
51
90
0
ARC
8
0
10
236.3875
20
-58.8875
40
0.5
50
180
51
270
0
ARC
8
0
10
249.3875
20
-58.8875
40
0.5
50
270
51
0
0
LINE
8
0
10
5.40625
20
-59.675
11
18.40625
21
-59.675
0
LINE
8
0
10
5.40625
20
-73.675
11
18.40625
21
-73.675
0
LINE
8
0
10
4.90625
20
-60.175
11
4.90625
21
-73.175
0
LINE
8
0
10
18.90625
20
-60.175
11
18.90625
21
-73.175
0
ARC
8
0
10
5.40625
20
-60.175
40
0.5
50
90
51
180
0
ARC
8
0
10
18.40625
20
-60.175
40
0.5
50
0
51
90
0
ARC
8
0
10
5.40625
20
-73.175
40
0.5
50
180
51
270
0
ARC
8
0
10
18.40625
20
-73.175
40
0.5
50
270
51
0
0
LINE
8
0
10
26.8375
20
-59.675
11
39.8375
21
-59.675
0
LINE
8
0
10
26.8375
20
-73.675
11
39.8375
21
-73.675
0
LINE
8
0
10
26.3375
20
-60.175
11
26.3375
21
-73.175
0
LINE
8
0
10
40.3375
20
-60.175
11
40.3375
21
-73.175
0
ARC
8
0
10
26.8375
20
-60.175
40
0.5
50
90
51
180
0
ARC
8
0
10
39.8375
20
-60.175
40
0.5
50
0
51
90
0
ARC
8
0
10
26.8375
20
-73.175
40
0.5
50
180
51
270
0
ARC
8
0
10
39.8375
20
-73.175
40
0.5
50
270
51
0
0
LINE
8
0
10
48.26875
20
-59.675
11
61.26875
21
-59.675
0
LINE
8
0
10
48.26875
20
-73.675
11
61.26875
21
-73.675
0
LINE
8
0
10
47.76875
20
-60.175
11
47.76875
21
-73.175
0
LINE
8
0
10
61.76875
20
-60.175
11
61.76875
21
-73.175
0
ARC
8
0
10
48.26875
20
-60.175
40
0.5
50
90
51
180
0
ARC
8
0
10
61.26875
20
-60.175
40
0.5
50
0
51
90
0
ARC
8
0
10
48.26875
20
-73.175
40
0.5
50
180
51
270
0
ARC
8
0
10
61.26875
20
-73.175
40
0.5
50
270
51
0
0
LINE
8
0
10
86.36875
20
-59.675
11
99.36875
21
-59.675
0
LINE
8
0
10
86.36875
20
-73.675
11
99.36875
21
-73.675
0
LINE
8
0
10
85.86875
20
-60.175
11
85.86875
21
-73.175
0
LINE
8
0
10
99.86875
20
-60.175
11
99.86875
21
-73.175
0
ARC
8
0
10
86.36875
20
-60.175
40
0.5
50
90
51
180
0
ARC
8
0
10
99.36875
20
-60.175
40
0.5
50
0
51
90
0
ARC
8
0
10
86.36875
20
-73.175
40
0.5
50
180
51
270
0
ARC
8
0
10
99.36875
20
-73.175
40
0.5
50
270
51
0
0
LINE
8
0
10
77.93075
20
-60.675
11
83.93075
21
-60.675
0
LINE
8
0
10
77.93075
20
-75.675
11
83.93075
21
-75.675
0
LINE
8
0
10
77.43075
20
-61.175
11
77.43075
21
-75.175
0
LINE
8
0
10
84.43075
20
-61.175
11
84.43075
21
-75.175
0
ARC
8
0
10
77.93075
20
-61.175
40
0.5
50
90
51
180
0
ARC
8
0
10
83.93075
20
-61.175
40
0.5
50
0
51
90
0
ARC
8
0
10
77.93075
20
-75.175
40
0.5
50
180
51
270
0
ARC
8
0
10
83.93075
20
-75.175
40
0.5
50
270
51
0
0
LINE
8
0
10
101.80675
20
-60.675
11
107.80675
21
-60.675
0
LINE
8
0
10
101.80675
20
-75.675
11
107.80675
21
-75.675
0
LINE
8
0
10
101.30675
20
-61.175
11
101.30675
21
-75.175
0
LINE
8
0
10
108.30675
20
-61.175
11
108.30675
21
-75.175
0
ARC
8
0
10
101.80675
20
-61.175
40
0.5
50
90
51
180
0
ARC
8
0
10
107.80675
20
-61.175
40
0.5
50
0
51
90
0
ARC
8
0
10
101.80675
20
-75.175
40
0.5
50
180
51
270
0
ARC
8
0
10
107.80675
20
-75.175
40
0.5
50
270
51
0
0
LINE
8
0
10
133.99375
20
-59.675
11
146.99375
21
-59.675
0
LINE
8
0
10
133.99375
20
-73.675
11
146.99375
21
-73.675
0
LINE
8
0
10
133.49375
20
-60.175
11
133.49375
21
-73.175
0
LINE
8
0
10
147.49375
20
-60.175
11
147.49375
21
-73.175
0
ARC
8
0
10
133.99375
20
-60.175
40
0.5
50
90
51
180
0
ARC
8
0
10
146.99375
20
-60.175
40
0.5
50
0
51
90
0
ARC
8
0
10
133.99375
20
-73.175
40
0.5
50
180
51
270
0
ARC
8
0
10
146.99375
20
-73.175
40
0.5
50
270
51
0
0
LINE
8
0
10
125.55575
20
-60.675
11
131.55575
21
-60.675
0
LINE
8
0
10
125.55575
20
-75.675
11
131.55575
21
-75.675
0
LINE
8
0
10
125.05575
20
-61.175
11
125.05575
21
-75.175
0
LINE
8
0
10
132.05575
20
-61.175
11
132.05575
21
-75.175
0
ARC
8
0
10
125.55575
20
-61.175
40
0.5
50
90
51
180
0
ARC
8
0
10
131.55575
20
-61.175
40
0.5
50
0
51
90
0
ARC
8
0
10
125.55575
20
-75.175
40
0.5
50
180
51
270
0
ARC
8
0
10
131.55575
20
-75.175
40
0.5
50
270
51
0
0
LINE
8
0
10
149.43175
20
-60.675
11
155.43175
21
-60.675
0
LINE
8
0
10
149.43175
20
-75.675
11
155.43175
21
-75.675
0
LINE
8
0
10
148.93175
20
-61.175
11
148.93175
21
-75.175
0
LINE
8
0
10
155.93175
20
-61.175
11
155.93175
21
-75.175
0
ARC
8
0
10
149.43175
20
-61.175
40
0.5
50
90
51
180
0
ARC
8
0
10
155.43175
20
-61.175
40
0.5
50
0
51
90
0
ARC
8
0
10
149.43175
20
-75.175
40
0.5
50
180
51
270
0
ARC
8
0
10
155.43175
20
-75.175
40
0.5
50
270
51
0
0
LINE
8
0
10
167.33125
20
-59.675
11
180.33125
21
-59.675
0
LINE
8
0
10
167.33125
20
-73.675
11
180.33125
21
-73.675
0
LINE
8
0
10
166.83125
20
-60.175
11
166.83125
21
-73.175
0
LINE
8
0
10
180.83125
20
-60.175
11
180.83125
21
-73.175
0
ARC
8
0
10
167.33125
20
-60.175
40
0.5
50
90
51
180
0
ARC
8
0
10
180.33125
20
-60.175
40
0.5
50
0
51
90
0
ARC
8
0
10
167.33125
20
-73.175
40
0.5
50
180
51
270
0
ARC
8
0
10
180.33125
20
-73.175
40
0.5
50
270
51
0
0
LINE
8
0
10
191.14375
20
-59.675
11
204.14375
21
-59.675
0
LINE
8
0
10
191.14375
20
-73.675
11
204.14375
21
-73.675
0
LINE
8
0
10
190.64375
20
-60.175
11
190.64375
21
-73.175
0
LINE
8
0
10
204.64375
20
-60.175
11
204.64375
21
-73.175
0
ARC
8
0
10
191.14375
20
-60.175
40
0.5
50
90
51
180
0
ARC
8
0
10
204.14375
20
-60.175
40
0.5
50
0
51
90
0
ARC
8
0
10
191.14375
20
-73.175
40
0.5
50
180
51
270
0
ARC
8
0
10
204.14375
20
-73.175
40
0.5
50
270
51
0
0
LINE
8
0
10
279.25
20
-59.675
11
292.25
21
-59.675
0
LINE
8
0
10
279.25
20
-73.675
11
292.25
21
-73.675
0
LINE
8
0
10
278.75
20
-60.175
11
278.75
21
-73.175
0
LINE
8
0
10
292.75
20
-60.175
11
292.75
21
-73.175
0
ARC
8
0
10
279.25
20
-60.175
40
0.5
50
90
51
180
0
ARC
8
0
10
292.25
20
-60.175
40
0.5
50
0
51
90
0
ARC
8
0
10
279.25
20
-73.175
40
0.5
50
180
51
270
0
ARC
8
0
10
292.25
20
-73.175
40
0.5
50
270
51
0
0
LINE
8
0
10
298.3
20
-59.675
11
311.3
21
-59.675
0
LINE
8
0
10
298.3
20
-73.675
11
311.3
21
-73.675
0
LINE
8
0
10
297.8
20
-60.175
11
297.8
21
-73.175
0
LINE
8
0
10
311.8
20
-60.175
11
311.8
21
-73.175
0
ARC
8
0
10
298.3
20
-60.175
40
0.5
50
90
51
180
0
ARC
8
0
10
311.3
20
-60.175
40
0.5
50
0
51
90
0
ARC
8
0
10
298.3
20
-73.175
40
0.5
50
180
51
270
0
ARC
8
0
10
311.3
20
-73.175
40
0.5
50
270
51
0
0
LINE
8
0
10
217.3375
20
-64.4375
11
230.3375
21
-64.4375
0
LINE
8
0
10
217.3375
20
-78.4375
11
230.3375
21
-78.4375
0
LINE
8
0
10
216.8375
20
-64.9375
11
216.8375
21
-77.9375
0
LINE
8
0
10
230.8375
20
-64.9375
11
230.8375
21
-77.9375
0
ARC
8
0
10
217.3375
20
-64.9375
40
0.5
50
90
51
180
0
ARC
8
0
10
230.3375
20
-64.9375
40
0.5
50
0
51
90
0
ARC
8
0
10
217.3375
20
-77.9375
40
0.5
50
180
51
270
0
ARC
8
0
10
230.3375
20
-77.9375
40
0.5
50
270
51
0
0
LINE
8
0
10
236.3875
20
-64.4375
11
249.3875
21
-64.4375
0
LINE
8
0
10
236.3875
20
-78.4375
11
249.3875
21
-78.4375
0
LINE
8
0
10
235.8875
20
-64.9375
11
235.8875
21
-77.9375
0
LINE
8
0
10
249.8875
20
-64.9375
11
249.8875
21
-77.9375
0
ARC
8
0
10
236.3875
20
-64.9375
40
0.5
50
90
51
180
0
ARC
8
0
10
249.3875
20
-64.9375
40
0.5
50
0
51
90
0
ARC
8
0
10
236.3875
20
-77.9375
40
0.5
50
180
51
270
0
ARC
8
0
10
249.3875
20
-77.9375
40
0.5
50
270
51
0
0
LINE
8
0
10
255.4375
20
-64.4375
11
268.4375
21
-64.4375
0
LINE
8
0
10
255.4375
20
-78.4375
11
268.4375
21
-78.4375
0
LINE
8
0
10
254.9375
20
-64.9375
11
254.9375
21
-77.9375
0
LINE
8
0
10
268.9375
20
-64.9375
11
268.9375
21
-77.9375
0
ARC
8
0
10
255.4375
20
-64.9375
40
0.5
50
90
51
180
0
ARC
8
0
10
268.4375
20
-64.9375
40
0.5
50
0
51
90
0
ARC
8
0
10
255.4375
20
-77.9375
40
0.5
50
180
51
270
0
ARC
8
0
10
268.4375
20
-77.9375
40
0.5
50
270
51
0
0
LINE
8
0
10
0
20
-80.9625
11
333.375
21
-80.9625
0
LINE
8
0
10
0
20
0
11
333.375
21
0
0
LINE
8
0
10
0
20
-80.9625
11
0
21
0
0
LINE
8
0
10
333.375
20
-80.9625
11
333.375
21
0
0
ENDSEC
0
EOF