  0
SECTION
  2
HEADER
  9
$ACADVER
  1
AC1009
  9
$FILLMODE
 70
 0
  9
$SPLFRAME
 70
 1
  9
$EXTMIN
 10
0
 20
0
 30
0.0
  9
$EXTMAX
 10
1058.33
 20
1058.33
 30
0.0
  0
ENDSEC
  0
SECTION
  2
TABLES
  0
TABLE
  2
LAYER
 70
1
  0
LAYER
  2
0
 70
     0
 62
     7
  6
CONTINUOUS
  0
ENDTAB
  0
ENDSEC
  0
SECTION
  2
ENTITIES
  0
LINE
  8
0
 62
     0
 10
94.3462
 20
76.4575
 30
0.0
 11
94.4245
 21
76.4551
 31
0.0
  0
LINE
  8
0
 62
     0
 10
94.4245
 20
76.4551
 30
0.0
 11
94.5032
 21
76.4452
 31
0.0
  0
LINE
  8
0
 62
     0
 10
94.5032
 20
76.4452
 30
0.0
 11
94.579
 21
76.43
 31
0.0
  0
LINE
  8
0
 62
     0
 10
94.579
 20
76.43
 30
0.0
 11
94.6559
 21
76.4095
 31
0.0
  0
LINE
  8
0
 62
     0
 10
94.6559
 20
76.4095
 30
0.0
 11
94.729
 21
76.382
 31
0.0
  0
LINE
  8
0
 62
     0
 10
94.729
 20
76.382
 30
0.0
 11
94.7995
 21
76.3489
 31
0.0
  0
LINE
  8
0
 62
     0
 10
94.7995
 20
76.3489
 30
0.0
 11
94.8683
 21
76.3104
 31
0.0
  0
LINE
  8
0
 62
     0
 10
94.8683
 20
76.3104
 30
0.0
 11
94.9332
 21
76.2674
 31
0.0
  0
LINE
  8
0
 62
     0
 10
94.9332
 20
76.2674
 30
0.0
 11
94.9949
 21
76.218
 31
0.0
  0
LINE
  8
0
 62
     0
 10
94.9949
 20
76.218
 30
0.0
 11
95.0528
 21
76.1654
 31
0.0
  0
LINE
  8
0
 62
     0
 10
95.0528
 20
76.1654
 30
0.0
 11
95.1068
 21
76.1076
 31
0.0
  0
LINE
  8
0
 62
     0
 10
95.1068
 20
76.1076
 30
0.0
 11
95.1548
 21
76.0458
 31
0.0
  0
LINE
  8
0
 62
     0
 10
95.1548
 20
76.0458
 30
0.0
 11
95.1989
 21
75.9809
 31
0.0
  0
LINE
  8
0
 62
     0
 10
95.1989
 20
75.9809
 30
0.0
 11
95.2377
 21
75.9107
 31
0.0
  0
LINE
  8
0
 62
     0
 10
95.2377
 20
75.9107
 30
0.0
 11
95.2694
 21
75.8402
 31
0.0
  0
LINE
  8
0
 62
     0
 10
95.2694
 20
75.8402
 30
0.0
 11
95.2969
 21
75.7671
 31
0.0
  0
LINE
  8
0
 62
     0
 10
95.2969
 20
75.7671
 30
0.0
 11
95.3188
 21
75.6916
 31
0.0
  0
LINE
  8
0
 62
     0
 10
95.3188
 20
75.6916
 30
0.0
 11
95.334
 21
75.6144
 31
0.0
  0
LINE
  8
0
 62
     0
 10
95.334
 20
75.6144
 30
0.0
 11
95.3424
 21
75.5357
 31
0.0
  0
LINE
  8
0
 62
     0
 10
95.3424
 20
75.5357
 30
0.0
 11
95.3463
 21
75.4574
 31
0.0
  0
LINE
  8
0
 62
     0
 10
95.3463
 20
75.4574
 30
0.0
 11
95.3452
 21
1.25677
 31
0.0
  0
LINE
  8
0
 62
     0
 10
95.3452
 20
1.25677
 30
0.0
 11
95.3424
 21
1.17822
 31
0.0
  0
LINE
  8
0
 62
     0
 10
95.3424
 20
1.17822
 30
0.0
 11
95.334
 21
1.09968
 31
0.0
  0
LINE
  8
0
 62
     0
 10
95.334
 20
1.09968
 30
0.0
 11
95.3188
 21
1.02388
 31
0.0
  0
LINE
  8
0
 62
     0
 10
95.3188
 20
1.02388
 30
0.0
 11
95.2969
 21
0.946711
 31
0.0
  0
LINE
  8
0
 62
     0
 10
95.2969
 20
0.946711
 30
0.0
 11
95.2694
 21
0.873675
 31
0.0
  0
LINE
  8
0
 62
     0
 10
95.2694
 20
0.873675
 30
0.0
 11
95.2377
 21
0.803395
 31
0.0
  0
LINE
  8
0
 62
     0
 10
95.2377
 20
0.803395
 30
0.0
 11
95.1989
 21
0.734494
 31
0.0
  0
LINE
  8
0
 62
     0
 10
95.1989
 20
0.734494
 30
0.0
 11
95.1548
 21
0.669727
 31
0.0
  0
LINE
  8
0
 62
     0
 10
95.1548
 20
0.669727
 30
0.0
 11
95.1068
 21
0.607716
 31
0.0
  0
LINE
  8
0
 62
     0
 10
95.1068
 20
0.607716
 30
0.0
 11
95.0528
 21
0.549836
 31
0.0
  0
LINE
  8
0
 62
     0
 10
95.0528
 20
0.549836
 30
0.0
 11
94.9949
 21
0.496094
 31
0.0
  0
LINE
  8
0
 62
     0
 10
94.9949
 20
0.496094
 30
0.0
 11
94.9332
 21
0.447862
 31
0.0
  0
LINE
  8
0
 62
     0
 10
94.9332
 20
0.447862
 30
0.0
 11
94.8683
 21
0.403765
 31
0.0
  0
LINE
  8
0
 62
     0
 10
94.8683
 20
0.403765
 30
0.0
 11
94.7995
 21
0.365181
 31
0.0
  0
LINE
  8
0
 62
     0
 10
94.7995
 20
0.365181
 30
0.0
 11
94.729
 21
0.333485
 31
0.0
  0
LINE
  8
0
 62
     0
 10
94.729
 20
0.333485
 30
0.0
 11
94.6559
 21
0.305925
 31
0.0
  0
LINE
  8
0
 62
     0
 10
94.6559
 20
0.305925
 30
0.0
 11
94.579
 21
0.283876
 31
0.0
  0
LINE
  8
0
 62
     0
 10
94.579
 20
0.283876
 30
0.0
 11
94.5032
 21
0.268718
 31
0.0
  0
LINE
  8
0
 62
     0
 10
94.5032
 20
0.268718
 30
0.0
 11
94.4245
 21
0.260449
 31
0.0
  0
LINE
  8
0
 62
     0
 10
94.4245
 20
0.260449
 30
0.0
 11
94.3462
 21
0.256315
 31
0.0
  0
LINE
  8
0
 62
     0
 10
94.3462
 20
0.256315
 30
0.0
 11
1.09554
 21
0.256315
 31
0.0
  0
LINE
  8
0
 62
     0
 10
1.09554
 20
0.256315
 30
0.0
 11
1.01699
 21
0.260449
 31
0.0
  0
LINE
  8
0
 62
     0
 10
1.01699
 20
0.260449
 30
0.0
 11
0.938445
 21
0.268718
 31
0.0
  0
LINE
  8
0
 62
     0
 10
0.938445
 20
0.268718
 30
0.0
 11
0.861275
 21
0.283876
 31
0.0
  0
LINE
  8
0
 62
     0
 10
0.861275
 20
0.283876
 30
0.0
 11
0.785481
 21
0.305925
 31
0.0
  0
LINE
  8
0
 62
     0
 10
0.785481
 20
0.305925
 30
0.0
 11
0.712445
 21
0.333485
 31
0.0
  0
LINE
  8
0
 62
     0
 10
0.712445
 20
0.333485
 30
0.0
 11
0.642165
 21
0.365181
 31
0.0
  0
LINE
  8
0
 62
     0
 10
0.642165
 20
0.365181
 30
0.0
 11
0.571885
 21
0.403765
 31
0.0
  0
LINE
  8
0
 62
     0
 10
0.571885
 20
0.403765
 30
0.0
 11
0.507118
 21
0.447862
 31
0.0
  0
LINE
  8
0
 62
     0
 10
0.507118
 20
0.447862
 30
0.0
 11
0.445107
 21
0.496094
 31
0.0
  0
LINE
  8
0
 62
     0
 10
0.445107
 20
0.496094
 30
0.0
 11
0.38723
 21
0.549836
 31
0.0
  0
LINE
  8
0
 62
     0
 10
0.38723
 20
0.549836
 30
0.0
 11
0.334863
 21
0.607716
 31
0.0
  0
LINE
  8
0
 62
     0
 10
0.334863
 20
0.607716
 30
0.0
 11
0.285254
 21
0.669727
 31
0.0
  0
LINE
  8
0
 62
     0
 10
0.285254
 20
0.669727
 30
0.0
 11
0.242535
 21
0.734494
 31
0.0
  0
LINE
  8
0
 62
     0
 10
0.242535
 20
0.734494
 30
0.0
 11
0.20395
 21
0.803395
 31
0.0
  0
LINE
  8
0
 62
     0
 10
0.20395
 20
0.803395
 30
0.0
 11
0.170877
 21
0.873675
 31
0.0
  0
LINE
  8
0
 62
     0
 10
0.170877
 20
0.873675
 30
0.0
 11
0.143316
 21
0.946711
 31
0.0
  0
LINE
  8
0
 62
     0
 10
0.143316
 20
0.946711
 30
0.0
 11
0.122645
 21
1.02388
 31
0.0
  0
LINE
  8
0
 62
     0
 10
0.122645
 20
1.02388
 30
0.0
 11
0.107487
 21
1.09968
 31
0.0
  0
LINE
  8
0
 62
     0
 10
0.107487
 20
1.09968
 30
0.0
 11
0.0978408
 21
1.17822
 31
0.0
  0
LINE
  8
0
 62
     0
 10
0.0978408
 20
1.17822
 30
0.0
 11
0.0950846
 21
1.25677
 31
0.0
  0
LINE
  8
0
 62
     0
 10
0.0950846
 20
1.25677
 30
0.0
 11
0.0950846
 21
75.4574
 31
0.0
  0
LINE
  8
0
 62
     0
 10
0.0950846
 20
75.4574
 30
0.0
 11
0.0978408
 21
75.5357
 31
0.0
  0
LINE
  8
0
 62
     0
 10
0.0978408
 20
75.5357
 30
0.0
 11
0.107487
 21
75.6144
 31
0.0
  0
LINE
  8
0
 62
     0
 10
0.107487
 20
75.6144
 30
0.0
 11
0.122645
 21
75.6916
 31
0.0
  0
LINE
  8
0
 62
     0
 10
0.122645
 20
75.6916
 30
0.0
 11
0.143316
 21
75.7671
 31
0.0
  0
LINE
  8
0
 62
     0
 10
0.143316
 20
75.7671
 30
0.0
 11
0.170877
 21
75.8402
 31
0.0
  0
LINE
  8
0
 62
     0
 10
0.170877
 20
75.8402
 30
0.0
 11
0.20395
 21
75.9107
 31
0.0
  0
LINE
  8
0
 62
     0
 10
0.20395
 20
75.9107
 30
0.0
 11
0.242535
 21
75.9809
 31
0.0
  0
LINE
  8
0
 62
     0
 10
0.242535
 20
75.9809
 30
0.0
 11
0.285254
 21
76.0458
 31
0.0
  0
LINE
  8
0
 62
     0
 10
0.285254
 20
76.0458
 30
0.0
 11
0.334863
 21
76.1076
 31
0.0
  0
LINE
  8
0
 62
     0
 10
0.334863
 20
76.1076
 30
0.0
 11
0.38723
 21
76.1654
 31
0.0
  0
LINE
  8
0
 62
     0
 10
0.38723
 20
76.1654
 30
0.0
 11
0.445107
 21
76.218
 31
0.0
  0
LINE
  8
0
 62
     0
 10
0.445107
 20
76.218
 30
0.0
 11
0.507118
 21
76.2674
 31
0.0
  0
LINE
  8
0
 62
     0
 10
0.507118
 20
76.2674
 30
0.0
 11
0.571885
 21
76.3104
 31
0.0
  0
LINE
  8
0
 62
     0
 10
0.571885
 20
76.3104
 30
0.0
 11
0.642165
 21
76.3489
 31
0.0
  0
LINE
  8
0
 62
     0
 10
0.642165
 20
76.3489
 30
0.0
 11
0.712445
 21
76.382
 31
0.0
  0
LINE
  8
0
 62
     0
 10
0.712445
 20
76.382
 30
0.0
 11
0.785481
 21
76.4095
 31
0.0
  0
LINE
  8
0
 62
     0
 10
0.785481
 20
76.4095
 30
0.0
 11
0.861275
 21
76.43
 31
0.0
  0
LINE
  8
0
 62
     0
 10
0.861275
 20
76.43
 30
0.0
 11
0.938445
 21
76.4452
 31
0.0
  0
LINE
  8
0
 62
     0
 10
0.938445
 20
76.4452
 30
0.0
 11
1.01699
 21
76.4551
 31
0.0
  0
LINE
  8
0
 62
     0
 10
1.01699
 20
76.4551
 30
0.0
 11
1.09554
 21
76.4575
 31
0.0
  0
LINE
  8
0
 62
     0
 10
1.09554
 20
76.4575
 30
0.0
 11
94.3462
 21
76.4575
 31
0.0
  0
LINE
  8
0
 62
     0
 10
2.62103
 20
16.7817
 30
0.0
 11
2.62103
 21
15.7827
 31
0.0
  0
LINE
  8
0
 62
     0
 10
2.62103
 20
15.7827
 30
0.0
 11
1.82039
 21
15.7827
 31
0.0
  0
LINE
  8
0
 62
     0
 10
1.82039
 20
15.7827
 30
0.0
 11
1.82039
 21
12.6835
 31
0.0
  0
LINE
  8
0
 62
     0
 10
1.82039
 20
12.6835
 30
0.0
 11
2.62103
 21
12.6835
 31
0.0
  0
LINE
  8
0
 62
     0
 10
2.62103
 20
12.6835
 30
0.0
 11
2.62103
 21
6.88192
 31
0.0
  0
LINE
  8
0
 62
     0
 10
2.62103
 20
6.88192
 30
0.0
 11
1.82039
 21
6.88192
 31
0.0
  0
LINE
  8
0
 62
     0
 10
1.82039
 20
6.88192
 30
0.0
 11
1.82039
 21
3.78273
 31
0.0
  0
LINE
  8
0
 62
     0
 10
1.82039
 20
3.78273
 30
0.0
 11
2.62103
 21
3.78273
 31
0.0
  0
LINE
  8
0
 62
     0
 10
2.62103
 20
3.78273
 30
0.0
 11
2.62103
 21
2.78226
 31
0.0
  0
LINE
  8
0
 62
     0
 10
2.62103
 20
2.78226
 30
0.0
 11
16.6205
 21
2.78226
 31
0.0
  0
LINE
  8
0
 62
     0
 10
16.6205
 20
2.78226
 30
0.0
 11
16.6205
 21
3.78273
 31
0.0
  0
LINE
  8
0
 62
     0
 10
16.6205
 20
3.78273
 30
0.0
 11
17.4212
 21
3.78273
 31
0.0
  0
LINE
  8
0
 62
     0
 10
17.4212
 20
3.78273
 30
0.0
 11
17.4212
 21
6.88192
 31
0.0
  0
LINE
  8
0
 62
     0
 10
17.4212
 20
6.88192
 30
0.0
 11
16.6205
 21
6.88192
 31
0.0
  0
LINE
  8
0
 62
     0
 10
16.6205
 20
6.88192
 30
0.0
 11
16.6205
 21
12.6835
 31
0.0
  0
LINE
  8
0
 62
     0
 10
16.6205
 20
12.6835
 30
0.0
 11
17.4212
 21
12.6835
 31
0.0
  0
LINE
  8
0
 62
     0
 10
17.4212
 20
12.6835
 30
0.0
 11
17.4212
 21
15.7827
 31
0.0
  0
LINE
  8
0
 62
     0
 10
17.4212
 20
15.7827
 30
0.0
 11
16.6205
 21
15.7827
 31
0.0
  0
LINE
  8
0
 62
     0
 10
16.6205
 20
15.7827
 30
0.0
 11
16.6205
 21
16.7817
 31
0.0
  0
LINE
  8
0
 62
     0
 10
16.6205
 20
16.7817
 30
0.0
 11
2.62103
 21
16.7817
 31
0.0
  0
LINE
  8
0
 62
     0
 10
21.671
 20
16.7817
 30
0.0
 11
21.671
 21
15.7827
 31
0.0
  0
LINE
  8
0
 62
     0
 10
21.671
 20
15.7827
 30
0.0
 11
20.8704
 21
15.7827
 31
0.0
  0
LINE
  8
0
 62
     0
 10
20.8704
 20
15.7827
 30
0.0
 11
20.8704
 21
12.6835
 31
0.0
  0
LINE
  8
0
 62
     0
 10
20.8704
 20
12.6835
 30
0.0
 11
21.671
 21
12.6835
 31
0.0
  0
LINE
  8
0
 62
     0
 10
21.671
 20
12.6835
 30
0.0
 11
21.671
 21
6.88192
 31
0.0
  0
LINE
  8
0
 62
     0
 10
21.671
 20
6.88192
 30
0.0
 11
20.8704
 21
6.88192
 31
0.0
  0
LINE
  8
0
 62
     0
 10
20.8704
 20
6.88192
 30
0.0
 11
20.8704
 21
3.78273
 31
0.0
  0
LINE
  8
0
 62
     0
 10
20.8704
 20
3.78273
 30
0.0
 11
21.671
 21
3.78273
 31
0.0
  0
LINE
  8
0
 62
     0
 10
21.671
 20
3.78273
 30
0.0
 11
21.671
 21
2.78226
 31
0.0
  0
LINE
  8
0
 62
     0
 10
21.671
 20
2.78226
 30
0.0
 11
35.6704
 21
2.78226
 31
0.0
  0
LINE
  8
0
 62
     0
 10
35.6704
 20
2.78226
 30
0.0
 11
35.6704
 21
3.78273
 31
0.0
  0
LINE
  8
0
 62
     0
 10
35.6704
 20
3.78273
 30
0.0
 11
36.4712
 21
3.78273
 31
0.0
  0
LINE
  8
0
 62
     0
 10
36.4712
 20
3.78273
 30
0.0
 11
36.4712
 21
6.88192
 31
0.0
  0
LINE
  8
0
 62
     0
 10
36.4712
 20
6.88192
 30
0.0
 11
35.6704
 21
6.88192
 31
0.0
  0
LINE
  8
0
 62
     0
 10
35.6704
 20
6.88192
 30
0.0
 11
35.6704
 21
12.6835
 31
0.0
  0
LINE
  8
0
 62
     0
 10
35.6704
 20
12.6835
 30
0.0
 11
36.4712
 21
12.6835
 31
0.0
  0
LINE
  8
0
 62
     0
 10
36.4712
 20
12.6835
 30
0.0
 11
36.4712
 21
15.7827
 31
0.0
  0
LINE
  8
0
 62
     0
 10
36.4712
 20
15.7827
 30
0.0
 11
35.6704
 21
15.7827
 31
0.0
  0
LINE
  8
0
 62
     0
 10
35.6704
 20
15.7827
 30
0.0
 11
35.6704
 21
16.7817
 31
0.0
  0
LINE
  8
0
 62
     0
 10
35.6704
 20
16.7817
 30
0.0
 11
21.671
 21
16.7817
 31
0.0
  0
LINE
  8
0
 62
     0
 10
40.7211
 20
16.7817
 30
0.0
 11
40.7211
 21
15.7827
 31
0.0
  0
LINE
  8
0
 62
     0
 10
40.7211
 20
15.7827
 30
0.0
 11
39.9203
 21
15.7827
 31
0.0
  0
LINE
  8
0
 62
     0
 10
39.9203
 20
15.7827
 30
0.0
 11
39.9203
 21
12.6835
 31
0.0
  0
LINE
  8
0
 62
     0
 10
39.9203
 20
12.6835
 30
0.0
 11
40.7211
 21
12.6835
 31
0.0
  0
LINE
  8
0
 62
     0
 10
40.7211
 20
12.6835
 30
0.0
 11
40.7211
 21
6.88192
 31
0.0
  0
LINE
  8
0
 62
     0
 10
40.7211
 20
6.88192
 30
0.0
 11
39.9203
 21
6.88192
 31
0.0
  0
LINE
  8
0
 62
     0
 10
39.9203
 20
6.88192
 30
0.0
 11
39.9203
 21
3.78273
 31
0.0
  0
LINE
  8
0
 62
     0
 10
39.9203
 20
3.78273
 30
0.0
 11
40.7211
 21
3.78273
 31
0.0
  0
LINE
  8
0
 62
     0
 10
40.7211
 20
3.78273
 30
0.0
 11
40.7211
 21
2.78226
 31
0.0
  0
LINE
  8
0
 62
     0
 10
40.7211
 20
2.78226
 30
0.0
 11
54.7204
 21
2.78226
 31
0.0
  0
LINE
  8
0
 62
     0
 10
54.7204
 20
2.78226
 30
0.0
 11
54.7204
 21
3.78273
 31
0.0
  0
LINE
  8
0
 62
     0
 10
54.7204
 20
3.78273
 30
0.0
 11
55.5212
 21
3.78273
 31
0.0
  0
LINE
  8
0
 62
     0
 10
55.5212
 20
3.78273
 30
0.0
 11
55.5212
 21
6.88192
 31
0.0
  0
LINE
  8
0
 62
     0
 10
55.5212
 20
6.88192
 30
0.0
 11
54.7204
 21
6.88192
 31
0.0
  0
LINE
  8
0
 62
     0
 10
54.7204
 20
6.88192
 30
0.0
 11
54.7204
 21
12.6835
 31
0.0
  0
LINE
  8
0
 62
     0
 10
54.7204
 20
12.6835
 30
0.0
 11
55.5212
 21
12.6835
 31
0.0
  0
LINE
  8
0
 62
     0
 10
55.5212
 20
12.6835
 30
0.0
 11
55.5212
 21
15.7827
 31
0.0
  0
LINE
  8
0
 62
     0
 10
55.5212
 20
15.7827
 30
0.0
 11
54.7204
 21
15.7827
 31
0.0
  0
LINE
  8
0
 62
     0
 10
54.7204
 20
15.7827
 30
0.0
 11
54.7204
 21
16.7817
 31
0.0
  0
LINE
  8
0
 62
     0
 10
54.7204
 20
16.7817
 30
0.0
 11
40.7211
 21
16.7817
 31
0.0
  0
LINE
  8
0
 62
     0
 10
59.7711
 20
16.7817
 30
0.0
 11
59.7711
 21
15.7827
 31
0.0
  0
LINE
  8
0
 62
     0
 10
59.7711
 20
15.7827
 30
0.0
 11
58.9703
 21
15.7827
 31
0.0
  0
LINE
  8
0
 62
     0
 10
58.9703
 20
15.7827
 30
0.0
 11
58.9703
 21
12.6835
 31
0.0
  0
LINE
  8
0
 62
     0
 10
58.9703
 20
12.6835
 30
0.0
 11
59.7711
 21
12.6835
 31
0.0
  0
LINE
  8
0
 62
     0
 10
59.7711
 20
12.6835
 30
0.0
 11
59.7711
 21
6.88192
 31
0.0
  0
LINE
  8
0
 62
     0
 10
59.7711
 20
6.88192
 30
0.0
 11
58.9703
 21
6.88192
 31
0.0
  0
LINE
  8
0
 62
     0
 10
58.9703
 20
6.88192
 30
0.0
 11
58.9703
 21
3.78273
 31
0.0
  0
LINE
  8
0
 62
     0
 10
58.9703
 20
3.78273
 30
0.0
 11
59.7711
 21
3.78273
 31
0.0
  0
LINE
  8
0
 62
     0
 10
59.7711
 20
3.78273
 30
0.0
 11
59.7711
 21
2.78226
 31
0.0
  0
LINE
  8
0
 62
     0
 10
59.7711
 20
2.78226
 30
0.0
 11
73.7704
 21
2.78226
 31
0.0
  0
LINE
  8
0
 62
     0
 10
73.7704
 20
2.78226
 30
0.0
 11
73.7704
 21
3.78273
 31
0.0
  0
LINE
  8
0
 62
     0
 10
73.7704
 20
3.78273
 30
0.0
 11
74.5712
 21
3.78273
 31
0.0
  0
LINE
  8
0
 62
     0
 10
74.5712
 20
3.78273
 30
0.0
 11
74.5712
 21
6.88192
 31
0.0
  0
LINE
  8
0
 62
     0
 10
74.5712
 20
6.88192
 30
0.0
 11
73.7704
 21
6.88192
 31
0.0
  0
LINE
  8
0
 62
     0
 10
73.7704
 20
6.88192
 30
0.0
 11
73.7704
 21
12.6835
 31
0.0
  0
LINE
  8
0
 62
     0
 10
73.7704
 20
12.6835
 30
0.0
 11
74.5712
 21
12.6835
 31
0.0
  0
LINE
  8
0
 62
     0
 10
74.5712
 20
12.6835
 30
0.0
 11
74.5712
 21
15.7827
 31
0.0
  0
LINE
  8
0
 62
     0
 10
74.5712
 20
15.7827
 30
0.0
 11
73.7704
 21
15.7827
 31
0.0
  0
LINE
  8
0
 62
     0
 10
73.7704
 20
15.7827
 30
0.0
 11
73.7704
 21
16.7817
 31
0.0
  0
LINE
  8
0
 62
     0
 10
73.7704
 20
16.7817
 30
0.0
 11
59.7711
 21
16.7817
 31
0.0
  0
LINE
  8
0
 62
     0
 10
78.8211
 20
16.7817
 30
0.0
 11
78.8211
 21
15.7827
 31
0.0
  0
LINE
  8
0
 62
     0
 10
78.8211
 20
15.7827
 30
0.0
 11
78.0203
 21
15.7827
 31
0.0
  0
LINE
  8
0
 62
     0
 10
78.0203
 20
15.7827
 30
0.0
 11
78.0203
 21
12.6835
 31
0.0
  0
LINE
  8
0
 62
     0
 10
78.0203
 20
12.6835
 30
0.0
 11
78.8211
 21
12.6835
 31
0.0
  0
LINE
  8
0
 62
     0
 10
78.8211
 20
12.6835
 30
0.0
 11
78.8211
 21
6.88192
 31
0.0
  0
LINE
  8
0
 62
     0
 10
78.8211
 20
6.88192
 30
0.0
 11
78.0203
 21
6.88192
 31
0.0
  0
LINE
  8
0
 62
     0
 10
78.0203
 20
6.88192
 30
0.0
 11
78.0203
 21
3.78273
 31
0.0
  0
LINE
  8
0
 62
     0
 10
78.0203
 20
3.78273
 30
0.0
 11
78.8211
 21
3.78273
 31
0.0
  0
LINE
  8
0
 62
     0
 10
78.8211
 20
3.78273
 30
0.0
 11
78.8211
 21
2.78226
 31
0.0
  0
LINE
  8
0
 62
     0
 10
78.8211
 20
2.78226
 30
0.0
 11
92.8204
 21
2.78226
 31
0.0
  0
LINE
  8
0
 62
     0
 10
92.8204
 20
2.78226
 30
0.0
 11
92.8204
 21
3.78273
 31
0.0
  0
LINE
  8
0
 62
     0
 10
92.8204
 20
3.78273
 30
0.0
 11
93.6198
 21
3.78273
 31
0.0
  0
LINE
  8
0
 62
     0
 10
93.6198
 20
3.78273
 30
0.0
 11
93.6198
 21
6.88192
 31
0.0
  0
LINE
  8
0
 62
     0
 10
93.6198
 20
6.88192
 30
0.0
 11
92.8204
 21
6.88192
 31
0.0
  0
LINE
  8
0
 62
     0
 10
92.8204
 20
6.88192
 30
0.0
 11
92.8204
 21
12.6835
 31
0.0
  0
LINE
  8
0
 62
     0
 10
92.8204
 20
12.6835
 30
0.0
 11
93.6198
 21
12.6835
 31
0.0
  0
LINE
  8
0
 62
     0
 10
93.6198
 20
12.6835
 30
0.0
 11
93.6198
 21
15.7827
 31
0.0
  0
LINE
  8
0
 62
     0
 10
93.6198
 20
15.7827
 30
0.0
 11
92.8204
 21
15.7827
 31
0.0
  0
LINE
  8
0
 62
     0
 10
92.8204
 20
15.7827
 30
0.0
 11
92.8204
 21
16.7817
 31
0.0
  0
LINE
  8
0
 62
     0
 10
92.8204
 20
16.7817
 30
0.0
 11
78.8211
 21
16.7817
 31
0.0
  0
LINE
  8
0
 62
     0
 10
21.671
 20
35.8316
 30
0.0
 11
21.671
 21
34.8327
 31
0.0
  0
LINE
  8
0
 62
     0
 10
21.671
 20
34.8327
 30
0.0
 11
20.8704
 21
34.8327
 31
0.0
  0
LINE
  8
0
 62
     0
 10
20.8704
 20
34.8327
 30
0.0
 11
20.8704
 21
31.7321
 31
0.0
  0
LINE
  8
0
 62
     0
 10
20.8704
 20
31.7321
 30
0.0
 11
21.671
 21
31.7321
 31
0.0
  0
LINE
  8
0
 62
     0
 10
21.671
 20
31.7321
 30
0.0
 11
21.671
 21
25.9319
 31
0.0
  0
LINE
  8
0
 62
     0
 10
21.671
 20
25.9319
 30
0.0
 11
20.8704
 21
25.9319
 31
0.0
  0
LINE
  8
0
 62
     0
 10
20.8704
 20
25.9319
 30
0.0
 11
20.8704
 21
22.8327
 31
0.0
  0
LINE
  8
0
 62
     0
 10
20.8704
 20
22.8327
 30
0.0
 11
21.671
 21
22.8327
 31
0.0
  0
LINE
  8
0
 62
     0
 10
21.671
 20
22.8327
 30
0.0
 11
21.671
 21
21.8323
 31
0.0
  0
LINE
  8
0
 62
     0
 10
21.671
 20
21.8323
 30
0.0
 11
35.6704
 21
21.8323
 31
0.0
  0
LINE
  8
0
 62
     0
 10
35.6704
 20
21.8323
 30
0.0
 11
35.6704
 21
22.8327
 31
0.0
  0
LINE
  8
0
 62
     0
 10
35.6704
 20
22.8327
 30
0.0
 11
36.4712
 21
22.8327
 31
0.0
  0
LINE
  8
0
 62
     0
 10
36.4712
 20
22.8327
 30
0.0
 11
36.4712
 21
25.9319
 31
0.0
  0
LINE
  8
0
 62
     0
 10
36.4712
 20
25.9319
 30
0.0
 11
35.6704
 21
25.9319
 31
0.0
  0
LINE
  8
0
 62
     0
 10
35.6704
 20
25.9319
 30
0.0
 11
35.6704
 21
31.7321
 31
0.0
  0
LINE
  8
0
 62
     0
 10
35.6704
 20
31.7321
 30
0.0
 11
36.4712
 21
31.7321
 31
0.0
  0
LINE
  8
0
 62
     0
 10
36.4712
 20
31.7321
 30
0.0
 11
36.4712
 21
34.8327
 31
0.0
  0
LINE
  8
0
 62
     0
 10
36.4712
 20
34.8327
 30
0.0
 11
35.6704
 21
34.8327
 31
0.0
  0
LINE
  8
0
 62
     0
 10
35.6704
 20
34.8327
 30
0.0
 11
35.6704
 21
35.8316
 31
0.0
  0
LINE
  8
0
 62
     0
 10
35.6704
 20
35.8316
 30
0.0
 11
21.671
 21
35.8316
 31
0.0
  0
LINE
  8
0
 62
     0
 10
40.7211
 20
35.8316
 30
0.0
 11
40.7211
 21
34.8327
 31
0.0
  0
LINE
  8
0
 62
     0
 10
40.7211
 20
34.8327
 30
0.0
 11
39.9203
 21
34.8327
 31
0.0
  0
LINE
  8
0
 62
     0
 10
39.9203
 20
34.8327
 30
0.0
 11
39.9203
 21
31.7321
 31
0.0
  0
LINE
  8
0
 62
     0
 10
39.9203
 20
31.7321
 30
0.0
 11
40.7211
 21
31.7321
 31
0.0
  0
LINE
  8
0
 62
     0
 10
40.7211
 20
31.7321
 30
0.0
 11
40.7211
 21
25.9319
 31
0.0
  0
LINE
  8
0
 62
     0
 10
40.7211
 20
25.9319
 30
0.0
 11
39.9203
 21
25.9319
 31
0.0
  0
LINE
  8
0
 62
     0
 10
39.9203
 20
25.9319
 30
0.0
 11
39.9203
 21
22.8327
 31
0.0
  0
LINE
  8
0
 62
     0
 10
39.9203
 20
22.8327
 30
0.0
 11
40.7211
 21
22.8327
 31
0.0
  0
LINE
  8
0
 62
     0
 10
40.7211
 20
22.8327
 30
0.0
 11
40.7211
 21
21.8323
 31
0.0
  0
LINE
  8
0
 62
     0
 10
40.7211
 20
21.8323
 30
0.0
 11
54.7204
 21
21.8323
 31
0.0
  0
LINE
  8
0
 62
     0
 10
54.7204
 20
21.8323
 30
0.0
 11
54.7204
 21
22.8327
 31
0.0
  0
LINE
  8
0
 62
     0
 10
54.7204
 20
22.8327
 30
0.0
 11
55.5212
 21
22.8327
 31
0.0
  0
LINE
  8
0
 62
     0
 10
55.5212
 20
22.8327
 30
0.0
 11
55.5212
 21
25.9319
 31
0.0
  0
LINE
  8
0
 62
     0
 10
55.5212
 20
25.9319
 30
0.0
 11
54.7204
 21
25.9319
 31
0.0
  0
LINE
  8
0
 62
     0
 10
54.7204
 20
25.9319
 30
0.0
 11
54.7204
 21
31.7321
 31
0.0
  0
LINE
  8
0
 62
     0
 10
54.7204
 20
31.7321
 30
0.0
 11
55.5212
 21
31.7321
 31
0.0
  0
LINE
  8
0
 62
     0
 10
55.5212
 20
31.7321
 30
0.0
 11
55.5212
 21
34.8327
 31
0.0
  0
LINE
  8
0
 62
     0
 10
55.5212
 20
34.8327
 30
0.0
 11
54.7204
 21
34.8327
 31
0.0
  0
LINE
  8
0
 62
     0
 10
54.7204
 20
34.8327
 30
0.0
 11
54.7204
 21
35.8316
 31
0.0
  0
LINE
  8
0
 62
     0
 10
54.7204
 20
35.8316
 30
0.0
 11
40.7211
 21
35.8316
 31
0.0
  0
LINE
  8
0
 62
     0
 10
59.7711
 20
35.8316
 30
0.0
 11
59.7711
 21
34.8327
 31
0.0
  0
LINE
  8
0
 62
     0
 10
59.7711
 20
34.8327
 30
0.0
 11
58.9703
 21
34.8327
 31
0.0
  0
LINE
  8
0
 62
     0
 10
58.9703
 20
34.8327
 30
0.0
 11
58.9703
 21
31.7321
 31
0.0
  0
LINE
  8
0
 62
     0
 10
58.9703
 20
31.7321
 30
0.0
 11
59.7711
 21
31.7321
 31
0.0
  0
LINE
  8
0
 62
     0
 10
59.7711
 20
31.7321
 30
0.0
 11
59.7711
 21
25.9319
 31
0.0
  0
LINE
  8
0
 62
     0
 10
59.7711
 20
25.9319
 30
0.0
 11
58.9703
 21
25.9319
 31
0.0
  0
LINE
  8
0
 62
     0
 10
58.9703
 20
25.9319
 30
0.0
 11
58.9703
 21
22.8327
 31
0.0
  0
LINE
  8
0
 62
     0
 10
58.9703
 20
22.8327
 30
0.0
 11
59.7711
 21
22.8327
 31
0.0
  0
LINE
  8
0
 62
     0
 10
59.7711
 20
22.8327
 30
0.0
 11
59.7711
 21
21.8323
 31
0.0
  0
LINE
  8
0
 62
     0
 10
59.7711
 20
21.8323
 30
0.0
 11
73.7704
 21
21.8323
 31
0.0
  0
LINE
  8
0
 62
     0
 10
73.7704
 20
21.8323
 30
0.0
 11
73.7704
 21
22.8327
 31
0.0
  0
LINE
  8
0
 62
     0
 10
73.7704
 20
22.8327
 30
0.0
 11
74.5712
 21
22.8327
 31
0.0
  0
LINE
  8
0
 62
     0
 10
74.5712
 20
22.8327
 30
0.0
 11
74.5712
 21
25.9319
 31
0.0
  0
LINE
  8
0
 62
     0
 10
74.5712
 20
25.9319
 30
0.0
 11
73.7704
 21
25.9319
 31
0.0
  0
LINE
  8
0
 62
     0
 10
73.7704
 20
25.9319
 30
0.0
 11
73.7704
 21
31.7321
 31
0.0
  0
LINE
  8
0
 62
     0
 10
73.7704
 20
31.7321
 30
0.0
 11
74.5712
 21
31.7321
 31
0.0
  0
LINE
  8
0
 62
     0
 10
74.5712
 20
31.7321
 30
0.0
 11
74.5712
 21
34.8327
 31
0.0
  0
LINE
  8
0
 62
     0
 10
74.5712
 20
34.8327
 30
0.0
 11
73.7704
 21
34.8327
 31
0.0
  0
LINE
  8
0
 62
     0
 10
73.7704
 20
34.8327
 30
0.0
 11
73.7704
 21
35.8316
 31
0.0
  0
LINE
  8
0
 62
     0
 10
73.7704
 20
35.8316
 30
0.0
 11
59.7711
 21
35.8316
 31
0.0
  0
LINE
  8
0
 62
     0
 10
78.8211
 20
35.8316
 30
0.0
 11
78.8211
 21
34.8327
 31
0.0
  0
LINE
  8
0
 62
     0
 10
78.8211
 20
34.8327
 30
0.0
 11
78.0203
 21
34.8327
 31
0.0
  0
LINE
  8
0
 62
     0
 10
78.0203
 20
34.8327
 30
0.0
 11
78.0203
 21
31.7321
 31
0.0
  0
LINE
  8
0
 62
     0
 10
78.0203
 20
31.7321
 30
0.0
 11
78.8211
 21
31.7321
 31
0.0
  0
LINE
  8
0
 62
     0
 10
78.8211
 20
31.7321
 30
0.0
 11
78.8211
 21
25.9319
 31
0.0
  0
LINE
  8
0
 62
     0
 10
78.8211
 20
25.9319
 30
0.0
 11
78.0203
 21
25.9319
 31
0.0
  0
LINE
  8
0
 62
     0
 10
78.0203
 20
25.9319
 30
0.0
 11
78.0203
 21
22.8327
 31
0.0
  0
LINE
  8
0
 62
     0
 10
78.0203
 20
22.8327
 30
0.0
 11
78.8211
 21
22.8327
 31
0.0
  0
LINE
  8
0
 62
     0
 10
78.8211
 20
22.8327
 30
0.0
 11
78.8211
 21
21.8323
 31
0.0
  0
LINE
  8
0
 62
     0
 10
78.8211
 20
21.8323
 30
0.0
 11
92.8204
 21
21.8323
 31
0.0
  0
LINE
  8
0
 62
     0
 10
92.8204
 20
21.8323
 30
0.0
 11
92.8204
 21
22.8327
 31
0.0
  0
LINE
  8
0
 62
     0
 10
92.8204
 20
22.8327
 30
0.0
 11
93.6198
 21
22.8327
 31
0.0
  0
LINE
  8
0
 62
     0
 10
93.6198
 20
22.8327
 30
0.0
 11
93.6198
 21
25.9319
 31
0.0
  0
LINE
  8
0
 62
     0
 10
93.6198
 20
25.9319
 30
0.0
 11
92.8204
 21
25.9319
 31
0.0
  0
LINE
  8
0
 62
     0
 10
92.8204
 20
25.9319
 30
0.0
 11
92.8204
 21
31.7321
 31
0.0
  0
LINE
  8
0
 62
     0
 10
92.8204
 20
31.7321
 30
0.0
 11
93.6198
 21
31.7321
 31
0.0
  0
LINE
  8
0
 62
     0
 10
93.6198
 20
31.7321
 30
0.0
 11
93.6198
 21
34.8327
 31
0.0
  0
LINE
  8
0
 62
     0
 10
93.6198
 20
34.8327
 30
0.0
 11
92.8204
 21
34.8327
 31
0.0
  0
LINE
  8
0
 62
     0
 10
92.8204
 20
34.8327
 30
0.0
 11
92.8204
 21
35.8316
 31
0.0
  0
LINE
  8
0
 62
     0
 10
92.8204
 20
35.8316
 30
0.0
 11
78.8211
 21
35.8316
 31
0.0
  0
LINE
  8
0
 62
     0
 10
21.671
 20
54.8816
 30
0.0
 11
21.671
 21
53.8826
 31
0.0
  0
LINE
  8
0
 62
     0
 10
21.671
 20
53.8826
 30
0.0
 11
20.8704
 21
53.8826
 31
0.0
  0
LINE
  8
0
 62
     0
 10
20.8704
 20
53.8826
 30
0.0
 11
20.8704
 21
50.782
 31
0.0
  0
LINE
  8
0
 62
     0
 10
20.8704
 20
50.782
 30
0.0
 11
21.671
 21
50.782
 31
0.0
  0
LINE
  8
0
 62
     0
 10
21.671
 20
50.782
 30
0.0
 11
21.671
 21
44.982
 31
0.0
  0
LINE
  8
0
 62
     0
 10
21.671
 20
44.982
 30
0.0
 11
20.8704
 21
44.982
 31
0.0
  0
LINE
  8
0
 62
     0
 10
20.8704
 20
44.982
 30
0.0
 11
20.8704
 21
41.8828
 31
0.0
  0
LINE
  8
0
 62
     0
 10
20.8704
 20
41.8828
 30
0.0
 11
21.671
 21
41.8828
 31
0.0
  0
LINE
  8
0
 62
     0
 10
21.671
 20
41.8828
 30
0.0
 11
21.671
 21
40.8824
 31
0.0
  0
LINE
  8
0
 62
     0
 10
21.671
 20
40.8824
 30
0.0
 11
35.6704
 21
40.8824
 31
0.0
  0
LINE
  8
0
 62
     0
 10
35.6704
 20
40.8824
 30
0.0
 11
35.6704
 21
41.8828
 31
0.0
  0
LINE
  8
0
 62
     0
 10
35.6704
 20
41.8828
 30
0.0
 11
36.4712
 21
41.8828
 31
0.0
  0
LINE
  8
0
 62
     0
 10
36.4712
 20
41.8828
 30
0.0
 11
36.4712
 21
44.982
 31
0.0
  0
LINE
  8
0
 62
     0
 10
36.4712
 20
44.982
 30
0.0
 11
35.6704
 21
44.982
 31
0.0
  0
LINE
  8
0
 62
     0
 10
35.6704
 20
44.982
 30
0.0
 11
35.6704
 21
50.782
 31
0.0
  0
LINE
  8
0
 62
     0
 10
35.6704
 20
50.782
 30
0.0
 11
36.4712
 21
50.782
 31
0.0
  0
LINE
  8
0
 62
     0
 10
36.4712
 20
50.782
 30
0.0
 11
36.4712
 21
53.8826
 31
0.0
  0
LINE
  8
0
 62
     0
 10
36.4712
 20
53.8826
 30
0.0
 11
35.6704
 21
53.8826
 31
0.0
  0
LINE
  8
0
 62
     0
 10
35.6704
 20
53.8826
 30
0.0
 11
35.6704
 21
54.8816
 31
0.0
  0
LINE
  8
0
 62
     0
 10
35.6704
 20
54.8816
 30
0.0
 11
21.671
 21
54.8816
 31
0.0
  0
LINE
  8
0
 62
     0
 10
40.7211
 20
54.8816
 30
0.0
 11
40.7211
 21
53.8826
 31
0.0
  0
LINE
  8
0
 62
     0
 10
40.7211
 20
53.8826
 30
0.0
 11
39.9203
 21
53.8826
 31
0.0
  0
LINE
  8
0
 62
     0
 10
39.9203
 20
53.8826
 30
0.0
 11
39.9203
 21
50.782
 31
0.0
  0
LINE
  8
0
 62
     0
 10
39.9203
 20
50.782
 30
0.0
 11
40.7211
 21
50.782
 31
0.0
  0
LINE
  8
0
 62
     0
 10
40.7211
 20
50.782
 30
0.0
 11
40.7211
 21
44.982
 31
0.0
  0
LINE
  8
0
 62
     0
 10
40.7211
 20
44.982
 30
0.0
 11
39.9203
 21
44.982
 31
0.0
  0
LINE
  8
0
 62
     0
 10
39.9203
 20
44.982
 30
0.0
 11
39.9203
 21
41.8828
 31
0.0
  0
LINE
  8
0
 62
     0
 10
39.9203
 20
41.8828
 30
0.0
 11
40.7211
 21
41.8828
 31
0.0
  0
LINE
  8
0
 62
     0
 10
40.7211
 20
41.8828
 30
0.0
 11
40.7211
 21
40.8824
 31
0.0
  0
LINE
  8
0
 62
     0
 10
40.7211
 20
40.8824
 30
0.0
 11
54.7204
 21
40.8824
 31
0.0
  0
LINE
  8
0
 62
     0
 10
54.7204
 20
40.8824
 30
0.0
 11
54.7204
 21
41.8828
 31
0.0
  0
LINE
  8
0
 62
     0
 10
54.7204
 20
41.8828
 30
0.0
 11
55.5212
 21
41.8828
 31
0.0
  0
LINE
  8
0
 62
     0
 10
55.5212
 20
41.8828
 30
0.0
 11
55.5212
 21
44.982
 31
0.0
  0
LINE
  8
0
 62
     0
 10
55.5212
 20
44.982
 30
0.0
 11
54.7204
 21
44.982
 31
0.0
  0
LINE
  8
0
 62
     0
 10
54.7204
 20
44.982
 30
0.0
 11
54.7204
 21
50.782
 31
0.0
  0
LINE
  8
0
 62
     0
 10
54.7204
 20
50.782
 30
0.0
 11
55.5212
 21
50.782
 31
0.0
  0
LINE
  8
0
 62
     0
 10
55.5212
 20
50.782
 30
0.0
 11
55.5212
 21
53.8826
 31
0.0
  0
LINE
  8
0
 62
     0
 10
55.5212
 20
53.8826
 30
0.0
 11
54.7204
 21
53.8826
 31
0.0
  0
LINE
  8
0
 62
     0
 10
54.7204
 20
53.8826
 30
0.0
 11
54.7204
 21
54.8816
 31
0.0
  0
LINE
  8
0
 62
     0
 10
54.7204
 20
54.8816
 30
0.0
 11
40.7211
 21
54.8816
 31
0.0
  0
LINE
  8
0
 62
     0
 10
59.7711
 20
54.8816
 30
0.0
 11
59.7711
 21
53.8826
 31
0.0
  0
LINE
  8
0
 62
     0
 10
59.7711
 20
53.8826
 30
0.0
 11
58.9703
 21
53.8826
 31
0.0
  0
LINE
  8
0
 62
     0
 10
58.9703
 20
53.8826
 30
0.0
 11
58.9703
 21
50.782
 31
0.0
  0
LINE
  8
0
 62
     0
 10
58.9703
 20
50.782
 30
0.0
 11
59.7711
 21
50.782
 31
0.0
  0
LINE
  8
0
 62
     0
 10
59.7711
 20
50.782
 30
0.0
 11
59.7711
 21
44.982
 31
0.0
  0
LINE
  8
0
 62
     0
 10
59.7711
 20
44.982
 30
0.0
 11
58.9703
 21
44.982
 31
0.0
  0
LINE
  8
0
 62
     0
 10
58.9703
 20
44.982
 30
0.0
 11
58.9703
 21
41.8828
 31
0.0
  0
LINE
  8
0
 62
     0
 10
58.9703
 20
41.8828
 30
0.0
 11
59.7711
 21
41.8828
 31
0.0
  0
LINE
  8
0
 62
     0
 10
59.7711
 20
41.8828
 30
0.0
 11
59.7711
 21
40.8824
 31
0.0
  0
LINE
  8
0
 62
     0
 10
59.7711
 20
40.8824
 30
0.0
 11
73.7704
 21
40.8824
 31
0.0
  0
LINE
  8
0
 62
     0
 10
73.7704
 20
40.8824
 30
0.0
 11
73.7704
 21
41.8828
 31
0.0
  0
LINE
  8
0
 62
     0
 10
73.7704
 20
41.8828
 30
0.0
 11
74.5712
 21
41.8828
 31
0.0
  0
LINE
  8
0
 62
     0
 10
74.5712
 20
41.8828
 30
0.0
 11
74.5712
 21
44.982
 31
0.0
  0
LINE
  8
0
 62
     0
 10
74.5712
 20
44.982
 30
0.0
 11
73.7704
 21
44.982
 31
0.0
  0
LINE
  8
0
 62
     0
 10
73.7704
 20
44.982
 30
0.0
 11
73.7704
 21
50.782
 31
0.0
  0
LINE
  8
0
 62
     0
 10
73.7704
 20
50.782
 30
0.0
 11
74.5712
 21
50.782
 31
0.0
  0
LINE
  8
0
 62
     0
 10
74.5712
 20
50.782
 30
0.0
 11
74.5712
 21
53.8826
 31
0.0
  0
LINE
  8
0
 62
     0
 10
74.5712
 20
53.8826
 30
0.0
 11
73.7704
 21
53.8826
 31
0.0
  0
LINE
  8
0
 62
     0
 10
73.7704
 20
53.8826
 30
0.0
 11
73.7704
 21
54.8816
 31
0.0
  0
LINE
  8
0
 62
     0
 10
73.7704
 20
54.8816
 30
0.0
 11
59.7711
 21
54.8816
 31
0.0
  0
LINE
  8
0
 62
     0
 10
78.8211
 20
54.8816
 30
0.0
 11
78.8211
 21
53.8826
 31
0.0
  0
LINE
  8
0
 62
     0
 10
78.8211
 20
53.8826
 30
0.0
 11
78.0203
 21
53.8826
 31
0.0
  0
LINE
  8
0
 62
     0
 10
78.0203
 20
53.8826
 30
0.0
 11
78.0203
 21
50.782
 31
0.0
  0
LINE
  8
0
 62
     0
 10
78.0203
 20
50.782
 30
0.0
 11
78.8211
 21
50.782
 31
0.0
  0
LINE
  8
0
 62
     0
 10
78.8211
 20
50.782
 30
0.0
 11
78.8211
 21
44.982
 31
0.0
  0
LINE
  8
0
 62
     0
 10
78.8211
 20
44.982
 30
0.0
 11
78.0203
 21
44.982
 31
0.0
  0
LINE
  8
0
 62
     0
 10
78.0203
 20
44.982
 30
0.0
 11
78.0203
 21
41.8828
 31
0.0
  0
LINE
  8
0
 62
     0
 10
78.0203
 20
41.8828
 30
0.0
 11
78.8211
 21
41.8828
 31
0.0
  0
LINE
  8
0
 62
     0
 10
78.8211
 20
41.8828
 30
0.0
 11
78.8211
 21
40.8824
 31
0.0
  0
LINE
  8
0
 62
     0
 10
78.8211
 20
40.8824
 30
0.0
 11
92.8204
 21
40.8824
 31
0.0
  0
LINE
  8
0
 62
     0
 10
92.8204
 20
40.8824
 30
0.0
 11
92.8204
 21
41.8828
 31
0.0
  0
LINE
  8
0
 62
     0
 10
92.8204
 20
41.8828
 30
0.0
 11
93.6198
 21
41.8828
 31
0.0
  0
LINE
  8
0
 62
     0
 10
93.6198
 20
41.8828
 30
0.0
 11
93.6198
 21
44.982
 31
0.0
  0
LINE
  8
0
 62
     0
 10
93.6198
 20
44.982
 30
0.0
 11
92.8204
 21
44.982
 31
0.0
  0
LINE
  8
0
 62
     0
 10
92.8204
 20
44.982
 30
0.0
 11
92.8204
 21
50.782
 31
0.0
  0
LINE
  8
0
 62
     0
 10
92.8204
 20
50.782
 30
0.0
 11
93.6198
 21
50.782
 31
0.0
  0
LINE
  8
0
 62
     0
 10
93.6198
 20
50.782
 30
0.0
 11
93.6198
 21
53.8826
 31
0.0
  0
LINE
  8
0
 62
     0
 10
93.6198
 20
53.8826
 30
0.0
 11
92.8204
 21
53.8826
 31
0.0
  0
LINE
  8
0
 62
     0
 10
92.8204
 20
53.8826
 30
0.0
 11
92.8204
 21
54.8816
 31
0.0
  0
LINE
  8
0
 62
     0
 10
92.8204
 20
54.8816
 30
0.0
 11
78.8211
 21
54.8816
 31
0.0
  0
LINE
  8
0
 62
     0
 10
21.671
 20
73.9316
 30
0.0
 11
21.671
 21
72.9326
 31
0.0
  0
LINE
  8
0
 62
     0
 10
21.671
 20
72.9326
 30
0.0
 11
20.8704
 21
72.9326
 31
0.0
  0
LINE
  8
0
 62
     0
 10
20.8704
 20
72.9326
 30
0.0
 11
20.8704
 21
69.832
 31
0.0
  0
LINE
  8
0
 62
     0
 10
20.8704
 20
69.832
 30
0.0
 11
21.671
 21
69.832
 31
0.0
  0
LINE
  8
0
 62
     0
 10
21.671
 20
69.832
 30
0.0
 11
21.671
 21
64.032
 31
0.0
  0
LINE
  8
0
 62
     0
 10
21.671
 20
64.032
 30
0.0
 11
20.8704
 21
64.032
 31
0.0
  0
LINE
  8
0
 62
     0
 10
20.8704
 20
64.032
 30
0.0
 11
20.8704
 21
60.9328
 31
0.0
  0
LINE
  8
0
 62
     0
 10
20.8704
 20
60.9328
 30
0.0
 11
21.671
 21
60.9328
 31
0.0
  0
LINE
  8
0
 62
     0
 10
21.671
 20
60.9328
 30
0.0
 11
21.671
 21
59.9324
 31
0.0
  0
LINE
  8
0
 62
     0
 10
21.671
 20
59.9324
 30
0.0
 11
35.6704
 21
59.9324
 31
0.0
  0
LINE
  8
0
 62
     0
 10
35.6704
 20
59.9324
 30
0.0
 11
35.6704
 21
60.9328
 31
0.0
  0
LINE
  8
0
 62
     0
 10
35.6704
 20
60.9328
 30
0.0
 11
36.4712
 21
60.9328
 31
0.0
  0
LINE
  8
0
 62
     0
 10
36.4712
 20
60.9328
 30
0.0
 11
36.4712
 21
64.032
 31
0.0
  0
LINE
  8
0
 62
     0
 10
36.4712
 20
64.032
 30
0.0
 11
35.6704
 21
64.032
 31
0.0
  0
LINE
  8
0
 62
     0
 10
35.6704
 20
64.032
 30
0.0
 11
35.6704
 21
69.832
 31
0.0
  0
LINE
  8
0
 62
     0
 10
35.6704
 20
69.832
 30
0.0
 11
36.4712
 21
69.832
 31
0.0
  0
LINE
  8
0
 62
     0
 10
36.4712
 20
69.832
 30
0.0
 11
36.4712
 21
72.9326
 31
0.0
  0
LINE
  8
0
 62
     0
 10
36.4712
 20
72.9326
 30
0.0
 11
35.6704
 21
72.9326
 31
0.0
  0
LINE
  8
0
 62
     0
 10
35.6704
 20
72.9326
 30
0.0
 11
35.6704
 21
73.9316
 31
0.0
  0
LINE
  8
0
 62
     0
 10
35.6704
 20
73.9316
 30
0.0
 11
21.671
 21
73.9316
 31
0.0
  0
LINE
  8
0
 62
     0
 10
40.7211
 20
73.9316
 30
0.0
 11
40.7211
 21
72.9326
 31
0.0
  0
LINE
  8
0
 62
     0
 10
40.7211
 20
72.9326
 30
0.0
 11
39.9203
 21
72.9326
 31
0.0
  0
LINE
  8
0
 62
     0
 10
39.9203
 20
72.9326
 30
0.0
 11
39.9203
 21
69.832
 31
0.0
  0
LINE
  8
0
 62
     0
 10
39.9203
 20
69.832
 30
0.0
 11
40.7211
 21
69.832
 31
0.0
  0
LINE
  8
0
 62
     0
 10
40.7211
 20
69.832
 30
0.0
 11
40.7211
 21
64.032
 31
0.0
  0
LINE
  8
0
 62
     0
 10
40.7211
 20
64.032
 30
0.0
 11
39.9203
 21
64.032
 31
0.0
  0
LINE
  8
0
 62
     0
 10
39.9203
 20
64.032
 30
0.0
 11
39.9203
 21
60.9328
 31
0.0
  0
LINE
  8
0
 62
     0
 10
39.9203
 20
60.9328
 30
0.0
 11
40.7211
 21
60.9328
 31
0.0
  0
LINE
  8
0
 62
     0
 10
40.7211
 20
60.9328
 30
0.0
 11
40.7211
 21
59.9324
 31
0.0
  0
LINE
  8
0
 62
     0
 10
40.7211
 20
59.9324
 30
0.0
 11
54.7204
 21
59.9324
 31
0.0
  0
LINE
  8
0
 62
     0
 10
54.7204
 20
59.9324
 30
0.0
 11
54.7204
 21
60.9328
 31
0.0
  0
LINE
  8
0
 62
     0
 10
54.7204
 20
60.9328
 30
0.0
 11
55.5212
 21
60.9328
 31
0.0
  0
LINE
  8
0
 62
     0
 10
55.5212
 20
60.9328
 30
0.0
 11
55.5212
 21
64.032
 31
0.0
  0
LINE
  8
0
 62
     0
 10
55.5212
 20
64.032
 30
0.0
 11
54.7204
 21
64.032
 31
0.0
  0
LINE
  8
0
 62
     0
 10
54.7204
 20
64.032
 30
0.0
 11
54.7204
 21
69.832
 31
0.0
  0
LINE
  8
0
 62
     0
 10
54.7204
 20
69.832
 30
0.0
 11
55.5212
 21
69.832
 31
0.0
  0
LINE
  8
0
 62
     0
 10
55.5212
 20
69.832
 30
0.0
 11
55.5212
 21
72.9326
 31
0.0
  0
LINE
  8
0
 62
     0
 10
55.5212
 20
72.9326
 30
0.0
 11
54.7204
 21
72.9326
 31
0.0
  0
LINE
  8
0
 62
     0
 10
54.7204
 20
72.9326
 30
0.0
 11
54.7204
 21
73.9316
 31
0.0
  0
LINE
  8
0
 62
     0
 10
54.7204
 20
73.9316
 30
0.0
 11
40.7211
 21
73.9316
 31
0.0
  0
LINE
  8
0
 62
     0
 10
59.7711
 20
73.9316
 30
0.0
 11
59.7711
 21
72.9326
 31
0.0
  0
LINE
  8
0
 62
     0
 10
59.7711
 20
72.9326
 30
0.0
 11
58.9703
 21
72.9326
 31
0.0
  0
LINE
  8
0
 62
     0
 10
58.9703
 20
72.9326
 30
0.0
 11
58.9703
 21
69.832
 31
0.0
  0
LINE
  8
0
 62
     0
 10
58.9703
 20
69.832
 30
0.0
 11
59.7711
 21
69.832
 31
0.0
  0
LINE
  8
0
 62
     0
 10
59.7711
 20
69.832
 30
0.0
 11
59.7711
 21
64.032
 31
0.0
  0
LINE
  8
0
 62
     0
 10
59.7711
 20
64.032
 30
0.0
 11
58.9703
 21
64.032
 31
0.0
  0
LINE
  8
0
 62
     0
 10
58.9703
 20
64.032
 30
0.0
 11
58.9703
 21
60.9328
 31
0.0
  0
LINE
  8
0
 62
     0
 10
58.9703
 20
60.9328
 30
0.0
 11
59.7711
 21
60.9328
 31
0.0
  0
LINE
  8
0
 62
     0
 10
59.7711
 20
60.9328
 30
0.0
 11
59.7711
 21
59.9324
 31
0.0
  0
LINE
  8
0
 62
     0
 10
59.7711
 20
59.9324
 30
0.0
 11
73.7704
 21
59.9324
 31
0.0
  0
LINE
  8
0
 62
     0
 10
73.7704
 20
59.9324
 30
0.0
 11
73.7704
 21
60.9328
 31
0.0
  0
LINE
  8
0
 62
     0
 10
73.7704
 20
60.9328
 30
0.0
 11
74.5712
 21
60.9328
 31
0.0
  0
LINE
  8
0
 62
     0
 10
74.5712
 20
60.9328
 30
0.0
 11
74.5712
 21
64.032
 31
0.0
  0
LINE
  8
0
 62
     0
 10
74.5712
 20
64.032
 30
0.0
 11
73.7704
 21
64.032
 31
0.0
  0
LINE
  8
0
 62
     0
 10
73.7704
 20
64.032
 30
0.0
 11
73.7704
 21
69.832
 31
0.0
  0
LINE
  8
0
 62
     0
 10
73.7704
 20
69.832
 30
0.0
 11
74.5712
 21
69.832
 31
0.0
  0
LINE
  8
0
 62
     0
 10
74.5712
 20
69.832
 30
0.0
 11
74.5712
 21
72.9326
 31
0.0
  0
LINE
  8
0
 62
     0
 10
74.5712
 20
72.9326
 30
0.0
 11
73.7704
 21
72.9326
 31
0.0
  0
LINE
  8
0
 62
     0
 10
73.7704
 20
72.9326
 30
0.0
 11
73.7704
 21
73.9316
 31
0.0
  0
LINE
  8
0
 62
     0
 10
73.7704
 20
73.9316
 30
0.0
 11
59.7711
 21
73.9316
 31
0.0
  0
LINE
  8
0
 62
     0
 10
78.8211
 20
73.9316
 30
0.0
 11
78.8211
 21
72.9326
 31
0.0
  0
LINE
  8
0
 62
     0
 10
78.8211
 20
72.9326
 30
0.0
 11
78.0203
 21
72.9326
 31
0.0
  0
LINE
  8
0
 62
     0
 10
78.0203
 20
72.9326
 30
0.0
 11
78.0203
 21
69.832
 31
0.0
  0
LINE
  8
0
 62
     0
 10
78.0203
 20
69.832
 30
0.0
 11
78.8211
 21
69.832
 31
0.0
  0
LINE
  8
0
 62
     0
 10
78.8211
 20
69.832
 30
0.0
 11
78.8211
 21
64.032
 31
0.0
  0
LINE
  8
0
 62
     0
 10
78.8211
 20
64.032
 30
0.0
 11
78.0203
 21
64.032
 31
0.0
  0
LINE
  8
0
 62
     0
 10
78.0203
 20
64.032
 30
0.0
 11
78.0203
 21
60.9328
 31
0.0
  0
LINE
  8
0
 62
     0
 10
78.0203
 20
60.9328
 30
0.0
 11
78.8211
 21
60.9328
 31
0.0
  0
LINE
  8
0
 62
     0
 10
78.8211
 20
60.9328
 30
0.0
 11
78.8211
 21
59.9324
 31
0.0
  0
LINE
  8
0
 62
     0
 10
78.8211
 20
59.9324
 30
0.0
 11
92.8204
 21
59.9324
 31
0.0
  0
LINE
  8
0
 62
     0
 10
92.8204
 20
59.9324
 30
0.0
 11
92.8204
 21
60.9328
 31
0.0
  0
LINE
  8
0
 62
     0
 10
92.8204
 20
60.9328
 30
0.0
 11
93.6198
 21
60.9328
 31
0.0
  0
LINE
  8
0
 62
     0
 10
93.6198
 20
60.9328
 30
0.0
 11
93.6198
 21
64.032
 31
0.0
  0
LINE
  8
0
 62
     0
 10
93.6198
 20
64.032
 30
0.0
 11
92.8204
 21
64.032
 31
0.0
  0
LINE
  8
0
 62
     0
 10
92.8204
 20
64.032
 30
0.0
 11
92.8204
 21
69.832
 31
0.0
  0
LINE
  8
0
 62
     0
 10
92.8204
 20
69.832
 30
0.0
 11
93.6198
 21
69.832
 31
0.0
  0
LINE
  8
0
 62
     0
 10
93.6198
 20
69.832
 30
0.0
 11
93.6198
 21
72.9326
 31
0.0
  0
LINE
  8
0
 62
     0
 10
93.6198
 20
72.9326
 30
0.0
 11
92.8204
 21
72.9326
 31
0.0
  0
LINE
  8
0
 62
     0
 10
92.8204
 20
72.9326
 30
0.0
 11
92.8204
 21
73.9316
 31
0.0
  0
LINE
  8
0
 62
     0
 10
92.8204
 20
73.9316
 30
0.0
 11
78.8211
 21
73.9316
 31
0.0
  0
ENDSEC
  0
EOF
