0
SECTION
2
HEADER
9
$INSUNITS
70
4
0
ENDSEC
0
SECTION
2
TABLES
0
TABLE
2
LTYPE
0
LTYPE
72
65
70
64
2
CONTINUOUS
3
______
73
0
40
0
0
ENDTAB
0
TABLE
2
LAYER
0
ENDTAB
0
ENDSEC
0
SECTION
2
ENTITIES
0
LINE
8
0
10
3.025
20
-2.525
11
16.025
21
-2.525
0
LINE
8
0
10
3.025
20
-16.525
11
16.025
21
-16.525
0
LINE
8
0
10
2.525
20
-3.025
11
2.525
21
-16.025
0
LINE
8
0
10
16.525
20
-3.025
11
16.525
21
-16.025
0
ARC
8
0
10
3.025
20
-3.025
40
0.5
50
90
51
180
0
ARC
8
0
10
16.025
20
-3.025
40
0.5
50
0
51
90
0
ARC
8
0
10
3.025
20
-16.025
40
0.5
50
180
51
270
0
ARC
8
0
10
16.025
20
-16.025
40
0.5
50
270
51
0
0
LINE
8
0
10
26.8375
20
-2.525
11
39.8375
21
-2.525
0
LINE
8
0
10
26.8375
20
-16.525
11
39.8375
21
-16.525
0
LINE
8
0
10
26.3375
20
-3.025
11
26.3375
21
-16.025
0
LINE
8
0
10
40.3375
20
-3.025
11
40.3375
21
-16.025
0
ARC
8
0
10
26.8375
20
-3.025
40
0.5
50
90
51
180
0
ARC
8
0
10
39.8375
20
-3.025
40
0.5
50
0
51
90
0
ARC
8
0
10
26.8375
20
-16.025
40
0.5
50
180
51
270
0
ARC
8
0
10
39.8375
20
-16.025
40
0.5
50
270
51
0
0
LINE
8
0
10
45.8875
20
-2.525
11
58.8875
21
-2.525
0
LINE
8
0
10
45.8875
20
-16.525
11
58.8875
21
-16.525
0
LINE
8
0
10
45.3875
20
-3.025
11
45.3875
21
-16.025
0
LINE
8
0
10
59.3875
20
-3.025
11
59.3875
21
-16.025
0
ARC
8
0
10
45.8875
20
-3.025
40
0.5
50
90
51
180
0
ARC
8
0
10
58.8875
20
-3.025
40
0.5
50
0
51
90
0
ARC
8
0
10
45.8875
20
-16.025
40
0.5
50
180
51
270
0
ARC
8
0
10
58.8875
20
-16.025
40
0.5
50
270
51
0
0
LINE
8
0
10
64.9375
20
-2.525
11
77.9375
21
-2.525
0
LINE
8
0
10
64.9375
20
-16.525
11
77.9375
21
-16.525
0
LINE
8
0
10
64.4375
20
-3.025
11
64.4375
21
-16.025
0
LINE
8
0
10
78.4375
20
-3.025
11
78.4375
21
-16.025
0
ARC
8
0
10
64.9375
20
-3.025
40
0.5
50
90
51
180
0
ARC
8
0
10
77.9375
20
-3.025
40
0.5
50
0
51
90
0
ARC
8
0
10
64.9375
20
-16.025
40
0.5
50
180
51
270
0
ARC
8
0
10
77.9375
20
-16.025
40
0.5
50
270
51
0
0
LINE
8
0
10
83.9875
20
-2.525
11
96.9875
21
-2.525
0
LINE
8
0
10
83.9875
20
-16.525
11
96.9875
21
-16.525
0
LINE
8
0
10
83.4875
20
-3.025
11
83.4875
21
-16.025
0
LINE
8
0
10
97.4875
20
-3.025
11
97.4875
21
-16.025
0
ARC
8
0
10
83.9875
20
-3.025
40
0.5
50
90
51
180
0
ARC
8
0
10
96.9875
20
-3.025
40
0.5
50
0
51
90
0
ARC
8
0
10
83.9875
20
-16.025
40
0.5
50
180
51
270
0
ARC
8
0
10
96.9875
20
-16.025
40
0.5
50
270
51
0
0
LINE
8
0
10
103.0375
20
-2.525
11
116.0375
21
-2.525
0
LINE
8
0
10
103.0375
20
-16.525
11
116.0375
21
-16.525
0
LINE
8
0
10
102.5375
20
-3.025
11
102.5375
21
-16.025
0
LINE
8
0
10
116.5375
20
-3.025
11
116.5375
21
-16.025
0
ARC
8
0
10
103.0375
20
-3.025
40
0.5
50
90
51
180
0
ARC
8
0
10
116.0375
20
-3.025
40
0.5
50
0
51
90
0
ARC
8
0
10
103.0375
20
-16.025
40
0.5
50
180
51
270
0
ARC
8
0
10
116.0375
20
-16.025
40
0.5
50
270
51
0
0
LINE
8
0
10
122.0875
20
-2.525
11
135.0875
21
-2.525
0
LINE
8
0
10
122.0875
20
-16.525
11
135.0875
21
-16.525
0
LINE
8
0
10
121.5875
20
-3.025
11
121.5875
21
-16.025
0
LINE
8
0
10
135.5875
20
-3.025
11
135.5875
21
-16.025
0
ARC
8
0
10
122.0875
20
-3.025
40
0.5
50
90
51
180
0
ARC
8
0
10
135.0875
20
-3.025
40
0.5
50
0
51
90
0
ARC
8
0
10
122.0875
20
-16.025
40
0.5
50
180
51
270
0
ARC
8
0
10
135.0875
20
-16.025
40
0.5
50
270
51
0
0
LINE
8
0
10
141.1375
20
-2.525
11
154.1375
21
-2.525
0
LINE
8
0
10
141.1375
20
-16.525
11
154.1375
21
-16.525
0
LINE
8
0
10
140.6375
20
-3.025
11
140.6375
21
-16.025
0
LINE
8
0
10
154.6375
20
-3.025
11
154.6375
21
-16.025
0
ARC
8
0
10
141.1375
20
-3.025
40
0.5
50
90
51
180
0
ARC
8
0
10
154.1375
20
-3.025
40
0.5
50
0
51
90
0
ARC
8
0
10
141.1375
20
-16.025
40
0.5
50
180
51
270
0
ARC
8
0
10
154.1375
20
-16.025
40
0.5
50
270
51
0
0
LINE
8
0
10
160.1875
20
-2.525
11
173.1875
21
-2.525
0
LINE
8
0
10
160.1875
20
-16.525
11
173.1875
21
-16.525
0
LINE
8
0
10
159.6875
20
-3.025
11
159.6875
21
-16.025
0
LINE
8
0
10
173.6875
20
-3.025
11
173.6875
21
-16.025
0
ARC
8
0
10
160.1875
20
-3.025
40
0.5
50
90
51
180
0
ARC
8
0
10
173.1875
20
-3.025
40
0.5
50
0
51
90
0
ARC
8
0
10
160.1875
20
-16.025
40
0.5
50
180
51
270
0
ARC
8
0
10
173.1875
20
-16.025
40
0.5
50
270
51
0
0
LINE
8
0
10
179.2375
20
-2.525
11
192.2375
21
-2.525
0
LINE
8
0
10
179.2375
20
-16.525
11
192.2375
21
-16.525
0
LINE
8
0
10
178.7375
20
-3.025
11
178.7375
21
-16.025
0
LINE
8
0
10
192.7375
20
-3.025
11
192.7375
21
-16.025
0
ARC
8
0
10
179.2375
20
-3.025
40
0.5
50
90
51
180
0
ARC
8
0
10
192.2375
20
-3.025
40
0.5
50
0
51
90
0
ARC
8
0
10
179.2375
20
-16.025
40
0.5
50
180
51
270
0
ARC
8
0
10
192.2375
20
-16.025
40
0.5
50
270
51
0
0
LINE
8
0
10
198.2875
20
-2.525
11
211.2875
21
-2.525
0
LINE
8
0
10
198.2875
20
-16.525
11
211.2875
21
-16.525
0
LINE
8
0
10
197.7875
20
-3.025
11
197.7875
21
-16.025
0
LINE
8
0
10
211.7875
20
-3.025
11
211.7875
21
-16.025
0
ARC
8
0
10
198.2875
20
-3.025
40
0.5
50
90
51
180
0
ARC
8
0
10
211.2875
20
-3.025
40
0.5
50
0
51
90
0
ARC
8
0
10
198.2875
20
-16.025
40
0.5
50
180
51
270
0
ARC
8
0
10
211.2875
20
-16.025
40
0.5
50
270
51
0
0
LINE
8
0
10
217.3375
20
-2.525
11
230.3375
21
-2.525
0
LINE
8
0
10
217.3375
20
-16.525
11
230.3375
21
-16.525
0
LINE
8
0
10
216.8375
20
-3.025
11
216.8375
21
-16.025
0
LINE
8
0
10
230.8375
20
-3.025
11
230.8375
21
-16.025
0
ARC
8
0
10
217.3375
20
-3.025
40
0.5
50
90
51
180
0
ARC
8
0
10
230.3375
20
-3.025
40
0.5
50
0
51
90
0
ARC
8
0
10
217.3375
20
-16.025
40
0.5
50
180
51
270
0
ARC
8
0
10
230.3375
20
-16.025
40
0.5
50
270
51
0
0
LINE
8
0
10
243.53125
20
-2.525
11
256.53125
21
-2.525
0
LINE
8
0
10
243.53125
20
-16.525
11
256.53125
21
-16.525
0
LINE
8
0
10
243.03125
20
-3.025
11
243.03125
21
-16.025
0
LINE
8
0
10
257.03125
20
-3.025
11
257.03125
21
-16.025
0
ARC
8
0
10
243.53125
20
-3.025
40
0.5
50
90
51
180
0
ARC
8
0
10
256.53125
20
-3.025
40
0.5
50
0
51
90
0
ARC
8
0
10
243.53125
20
-16.025
40
0.5
50
180
51
270
0
ARC
8
0
10
256.53125
20
-16.025
40
0.5
50
270
51
0
0
LINE
8
0
10
274.4875
20
-2.525
11
287.4875
21
-2.525
0
LINE
8
0
10
274.4875
20
-16.525
11
287.4875
21
-16.525
0
LINE
8
0
10
273.9875
20
-3.025
11
273.9875
21
-16.025
0
LINE
8
0
10
287.9875
20
-3.025
11
287.9875
21
-16.025
0
ARC
8
0
10
274.4875
20
-3.025
40
0.5
50
90
51
180
0
ARC
8
0
10
287.4875
20
-3.025
40
0.5
50
0
51
90
0
ARC
8
0
10
274.4875
20
-16.025
40
0.5
50
180
51
270
0
ARC
8
0
10
287.4875
20
-16.025
40
0.5
50
270
51
0
0
LINE
8
0
10
3.025
20
-21.575
11
16.025
21
-21.575
0
LINE
8
0
10
3.025
20
-35.575
11
16.025
21
-35.575
0
LINE
8
0
10
2.525
20
-22.075
11
2.525
21
-35.075
0
LINE
8
0
10
16.525
20
-22.075
11
16.525
21
-35.075
0
ARC
8
0
10
3.025
20
-22.075
40
0.5
50
90
51
180
0
ARC
8
0
10
16.025
20
-22.075
40
0.5
50
0
51
90
0
ARC
8
0
10
3.025
20
-35.075
40
0.5
50
180
51
270
0
ARC
8
0
10
16.025
20
-35.075
40
0.5
50
270
51
0
0
LINE
8
0
10
29.21875
20
-21.575
11
42.21875
21
-21.575
0
LINE
8
0
10
29.21875
20
-35.575
11
42.21875
21
-35.575
0
LINE
8
0
10
28.71875
20
-22.075
11
28.71875
21
-35.075
0
LINE
8
0
10
42.71875
20
-22.075
11
42.71875
21
-35.075
0
ARC
8
0
10
29.21875
20
-22.075
40
0.5
50
90
51
180
0
ARC
8
0
10
42.21875
20
-22.075
40
0.5
50
0
51
90
0
ARC
8
0
10
29.21875
20
-35.075
40
0.5
50
180
51
270
0
ARC
8
0
10
42.21875
20
-35.075
40
0.5
50
270
51
0
0
LINE
8
0
10
50.65
20
-21.575
11
63.65
21
-21.575
0
LINE
8
0
10
50.65
20
-35.575
11
63.65
21
-35.575
0
LINE
8
0
10
50.15
20
-22.075
11
50.15
21
-35.075
0
LINE
8
0
10
64.15
20
-22.075
11
64.15
21
-35.075
0
ARC
8
0
10
50.65
20
-22.075
40
0.5
50
90
51
180
0
ARC
8
0
10
63.65
20
-22.075
40
0.5
50
0
51
90
0
ARC
8
0
10
50.65
20
-35.075
40
0.5
50
180
51
270
0
ARC
8
0
10
63.65
20
-35.075
40
0.5
50
270
51
0
0
LINE
8
0
10
69.7
20
-21.575
11
82.7
21
-21.575
0
LINE
8
0
10
69.7
20
-35.575
11
82.7
21
-35.575
0
LINE
8
0
10
69.2
20
-22.075
11
69.2
21
-35.075
0
LINE
8
0
10
83.2
20
-22.075
11
83.2
21
-35.075
0
ARC
8
0
10
69.7
20
-22.075
40
0.5
50
90
51
180
0
ARC
8
0
10
82.7
20
-22.075
40
0.5
50
0
51
90
0
ARC
8
0
10
69.7
20
-35.075
40
0.5
50
180
51
270
0
ARC
8
0
10
82.7
20
-35.075
40
0.5
50
270
51
0
0
LINE
8
0
10
88.75
20
-21.575
11
101.75
21
-21.575
0
LINE
8
0
10
88.75
20
-35.575
11
101.75
21
-35.575
0
LINE
8
0
10
88.25
20
-22.075
11
88.25
21
-35.075
0
LINE
8
0
10
102.25
20
-22.075
11
102.25
21
-35.075
0
ARC
8
0
10
88.75
20
-22.075
40
0.5
50
90
51
180
0
ARC
8
0
10
101.75
20
-22.075
40
0.5
50
0
51
90
0
ARC
8
0
10
88.75
20
-35.075
40
0.5
50
180
51
270
0
ARC
8
0
10
101.75
20
-35.075
40
0.5
50
270
51
0
0
LINE
8
0
10
107.8
20
-21.575
11
120.8
21
-21.575
0
LINE
8
0
10
107.8
20
-35.575
11
120.8
21
-35.575
0
LINE
8
0
10
107.3
20
-22.075
11
107.3
21
-35.075
0
LINE
8
0
10
121.3
20
-22.075
11
121.3
21
-35.075
0
ARC
8
0
10
107.8
20
-22.075
40
0.5
50
90
51
180
0
ARC
8
0
10
120.8
20
-22.075
40
0.5
50
0
51
90
0
ARC
8
0
10
107.8
20
-35.075
40
0.5
50
180
51
270
0
ARC
8
0
10
120.8
20
-35.075
40
0.5
50
270
51
0
0
LINE
8
0
10
126.85
20
-21.575
11
139.85
21
-21.575
0
LINE
8
0
10
126.85
20
-35.575
11
139.85
21
-35.575
0
LINE
8
0
10
126.35
20
-22.075
11
126.35
21
-35.075
0
LINE
8
0
10
140.35
20
-22.075
11
140.35
21
-35.075
0
ARC
8
0
10
126.85
20
-22.075
40
0.5
50
90
51
180
0
ARC
8
0
10
139.85
20
-22.075
40
0.5
50
0
51
90
0
ARC
8
0
10
126.85
20
-35.075
40
0.5
50
180
51
270
0
ARC
8
0
10
139.85
20
-35.075
40
0.5
50
270
51
0
0
LINE
8
0
10
145.9
20
-21.575
11
158.9
21
-21.575
0
LINE
8
0
10
145.9
20
-35.575
11
158.9
21
-35.575
0
LINE
8
0
10
145.4
20
-22.075
11
145.4
21
-35.075
0
LINE
8
0
10
159.4
20
-22.075
11
159.4
21
-35.075
0
ARC
8
0
10
145.9
20
-22.075
40
0.5
50
90
51
180
0
ARC
8
0
10
158.9
20
-22.075
40
0.5
50
0
51
90
0
ARC
8
0
10
145.9
20
-35.075
40
0.5
50
180
51
270
0
ARC
8
0
10
158.9
20
-35.075
40
0.5
50
270
51
0
0
LINE
8
0
10
164.95
20
-21.575
11
177.95
21
-21.575
0
LINE
8
0
10
164.95
20
-35.575
11
177.95
21
-35.575
0
LINE
8
0
10
164.45
20
-22.075
11
164.45
21
-35.075
0
LINE
8
0
10
178.45
20
-22.075
11
178.45
21
-35.075
0
ARC
8
0
10
164.95
20
-22.075
40
0.5
50
90
51
180
0
ARC
8
0
10
177.95
20
-22.075
40
0.5
50
0
51
90
0
ARC
8
0
10
164.95
20
-35.075
40
0.5
50
180
51
270
0
ARC
8
0
10
177.95
20
-35.075
40
0.5
50
270
51
0
0
LINE
8
0
10
184
20
-21.575
11
197
21
-21.575
0
LINE
8
0
10
184
20
-35.575
11
197
21
-35.575
0
LINE
8
0
10
183.5
20
-22.075
11
183.5
21
-35.075
0
LINE
8
0
10
197.5
20
-22.075
11
197.5
21
-35.075
0
ARC
8
0
10
184
20
-22.075
40
0.5
50
90
51
180
0
ARC
8
0
10
197
20
-22.075
40
0.5
50
0
51
90
0
ARC
8
0
10
184
20
-35.075
40
0.5
50
180
51
270
0
ARC
8
0
10
197
20
-35.075
40
0.5
50
270
51
0
0
LINE
8
0
10
203.05
20
-21.575
11
216.05
21
-21.575
0
LINE
8
0
10
203.05
20
-35.575
11
216.05
21
-35.575
0
LINE
8
0
10
202.55
20
-22.075
11
202.55
21
-35.075
0
LINE
8
0
10
216.55
20
-22.075
11
216.55
21
-35.075
0
ARC
8
0
10
203.05
20
-22.075
40
0.5
50
90
51
180
0
ARC
8
0
10
216.05
20
-22.075
40
0.5
50
0
51
90
0
ARC
8
0
10
203.05
20
-35.075
40
0.5
50
180
51
270
0
ARC
8
0
10
216.05
20
-35.075
40
0.5
50
270
51
0
0
LINE
8
0
10
222.1
20
-21.575
11
235.1
21
-21.575
0
LINE
8
0
10
222.1
20
-35.575
11
235.1
21
-35.575
0
LINE
8
0
10
221.6
20
-22.075
11
221.6
21
-35.075
0
LINE
8
0
10
235.6
20
-22.075
11
235.6
21
-35.075
0
ARC
8
0
10
222.1
20
-22.075
40
0.5
50
90
51
180
0
ARC
8
0
10
235.1
20
-22.075
40
0.5
50
0
51
90
0
ARC
8
0
10
222.1
20
-35.075
40
0.5
50
180
51
270
0
ARC
8
0
10
235.1
20
-35.075
40
0.5
50
270
51
0
0
LINE
8
0
10
245.9125
20
-21.575
11
258.9125
21
-21.575
0
LINE
8
0
10
245.9125
20
-35.575
11
258.9125
21
-35.575
0
LINE
8
0
10
245.4125
20
-22.075
11
245.4125
21
-35.075
0
LINE
8
0
10
259.4125
20
-22.075
11
259.4125
21
-35.075
0
ARC
8
0
10
245.9125
20
-22.075
40
0.5
50
90
51
180
0
ARC
8
0
10
258.9125
20
-22.075
40
0.5
50
0
51
90
0
ARC
8
0
10
245.9125
20
-35.075
40
0.5
50
180
51
270
0
ARC
8
0
10
258.9125
20
-35.075
40
0.5
50
270
51
0
0
LINE
8
0
10
274.4875
20
-21.575
11
287.4875
21
-21.575
0
LINE
8
0
10
274.4875
20
-35.575
11
287.4875
21
-35.575
0
LINE
8
0
10
273.9875
20
-22.075
11
273.9875
21
-35.075
0
LINE
8
0
10
287.9875
20
-22.075
11
287.9875
21
-35.075
0
ARC
8
0
10
274.4875
20
-22.075
40
0.5
50
90
51
180
0
ARC
8
0
10
287.4875
20
-22.075
40
0.5
50
0
51
90
0
ARC
8
0
10
274.4875
20
-35.075
40
0.5
50
180
51
270
0
ARC
8
0
10
287.4875
20
-35.075
40
0.5
50
270
51
0
0
LINE
8
0
10
3.025
20
-40.625
11
16.025
21
-40.625
0
LINE
8
0
10
3.025
20
-54.625
11
16.025
21
-54.625
0
LINE
8
0
10
2.525
20
-41.125
11
2.525
21
-54.125
0
LINE
8
0
10
16.525
20
-41.125
11
16.525
21
-54.125
0
ARC
8
0
10
3.025
20
-41.125
40
0.5
50
90
51
180
0
ARC
8
0
10
16.025
20
-41.125
40
0.5
50
0
51
90
0
ARC
8
0
10
3.025
20
-54.125
40
0.5
50
180
51
270
0
ARC
8
0
10
16.025
20
-54.125
40
0.5
50
270
51
0
0
LINE
8
0
10
33.98125
20
-40.625
11
46.98125
21
-40.625
0
LINE
8
0
10
33.98125
20
-54.625
11
46.98125
21
-54.625
0
LINE
8
0
10
33.48125
20
-41.125
11
33.48125
21
-54.125
0
LINE
8
0
10
47.48125
20
-41.125
11
47.48125
21
-54.125
0
ARC
8
0
10
33.98125
20
-41.125
40
0.5
50
90
51
180
0
ARC
8
0
10
46.98125
20
-41.125
40
0.5
50
0
51
90
0
ARC
8
0
10
33.98125
20
-54.125
40
0.5
50
180
51
270
0
ARC
8
0
10
46.98125
20
-54.125
40
0.5
50
270
51
0
0
LINE
8
0
10
60.175
20
-40.625
11
73.175
21
-40.625
0
LINE
8
0
10
60.175
20
-54.625
11
73.175
21
-54.625
0
LINE
8
0
10
59.675
20
-41.125
11
59.675
21
-54.125
0
LINE
8
0
10
73.675
20
-41.125
11
73.675
21
-54.125
0
ARC
8
0
10
60.175
20
-41.125
40
0.5
50
90
51
180
0
ARC
8
0
10
73.175
20
-41.125
40
0.5
50
0
51
90
0
ARC
8
0
10
60.175
20
-54.125
40
0.5
50
180
51
270
0
ARC
8
0
10
73.175
20
-54.125
40
0.5
50
270
51
0
0
LINE
8
0
10
79.225
20
-40.625
11
92.225
21
-40.625
0
LINE
8
0
10
79.225
20
-54.625
11
92.225
21
-54.625
0
LINE
8
0
10
78.725
20
-41.125
11
78.725
21
-54.125
0
LINE
8
0
10
92.725
20
-41.125
11
92.725
21
-54.125
0
ARC
8
0
10
79.225
20
-41.125
40
0.5
50
90
51
180
0
ARC
8
0
10
92.225
20
-41.125
40
0.5
50
0
51
90
0
ARC
8
0
10
79.225
20
-54.125
40
0.5
50
180
51
270
0
ARC
8
0
10
92.225
20
-54.125
40
0.5
50
270
51
0
0
LINE
8
0
10
98.275
20
-40.625
11
111.275
21
-40.625
0
LINE
8
0
10
98.275
20
-54.625
11
111.275
21
-54.625
0
LINE
8
0
10
97.775
20
-41.125
11
97.775
21
-54.125
0
LINE
8
0
10
111.775
20
-41.125
11
111.775
21
-54.125
0
ARC
8
0
10
98.275
20
-41.125
40
0.5
50
90
51
180
0
ARC
8
0
10
111.275
20
-41.125
40
0.5
50
0
51
90
0
ARC
8
0
10
98.275
20
-54.125
40
0.5
50
180
51
270
0
ARC
8
0
10
111.275
20
-54.125
40
0.5
50
270
51
0
0
LINE
8
0
10
117.325
20
-40.625
11
130.325
21
-40.625
0
LINE
8
0
10
117.325
20
-54.625
11
130.325
21
-54.625
0
LINE
8
0
10
116.825
20
-41.125
11
116.825
21
-54.125
0
LINE
8
0
10
130.825
20
-41.125
11
130.825
21
-54.125
0
ARC
8
0
10
117.325
20
-41.125
40
0.5
50
90
51
180
0
ARC
8
0
10
130.325
20
-41.125
40
0.5
50
0
51
90
0
ARC
8
0
10
117.325
20
-54.125
40
0.5
50
180
51
270
0
ARC
8
0
10
130.325
20
-54.125
40
0.5
50
270
51
0
0
LINE
8
0
10
136.375
20
-40.625
11
149.375
21
-40.625
0
LINE
8
0
10
136.375
20
-54.625
11
149.375
21
-54.625
0
LINE
8
0
10
135.875
20
-41.125
11
135.875
21
-54.125
0
LINE
8
0
10
149.875
20
-41.125
11
149.875
21
-54.125
0
ARC
8
0
10
136.375
20
-41.125
40
0.5
50
90
51
180
0
ARC
8
0
10
149.375
20
-41.125
40
0.5
50
0
51
90
0
ARC
8
0
10
136.375
20
-54.125
40
0.5
50
180
51
270
0
ARC
8
0
10
149.375
20
-54.125
40
0.5
50
270
51
0
0
LINE
8
0
10
155.425
20
-40.625
11
168.425
21
-40.625
0
LINE
8
0
10
155.425
20
-54.625
11
168.425
21
-54.625
0
LINE
8
0
10
154.925
20
-41.125
11
154.925
21
-54.125
0
LINE
8
0
10
168.925
20
-41.125
11
168.925
21
-54.125
0
ARC
8
0
10
155.425
20
-41.125
40
0.5
50
90
51
180
0
ARC
8
0
10
168.425
20
-41.125
40
0.5
50
0
51
90
0
ARC
8
0
10
155.425
20
-54.125
40
0.5
50
180
51
270
0
ARC
8
0
10
168.425
20
-54.125
40
0.5
50
270
51
0
0
LINE
8
0
10
174.475
20
-40.625
11
187.475
21
-40.625
0
LINE
8
0
10
174.475
20
-54.625
11
187.475
21
-54.625
0
LINE
8
0
10
173.975
20
-41.125
11
173.975
21
-54.125
0
LINE
8
0
10
187.975
20
-41.125
11
187.975
21
-54.125
0
ARC
8
0
10
174.475
20
-41.125
40
0.5
50
90
51
180
0
ARC
8
0
10
187.475
20
-41.125
40
0.5
50
0
51
90
0
ARC
8
0
10
174.475
20
-54.125
40
0.5
50
180
51
270
0
ARC
8
0
10
187.475
20
-54.125
40
0.5
50
270
51
0
0
LINE
8
0
10
193.525
20
-40.625
11
206.525
21
-40.625
0
LINE
8
0
10
193.525
20
-54.625
11
206.525
21
-54.625
0
LINE
8
0
10
193.025
20
-41.125
11
193.025
21
-54.125
0
LINE
8
0
10
207.025
20
-41.125
11
207.025
21
-54.125
0
ARC
8
0
10
193.525
20
-41.125
40
0.5
50
90
51
180
0
ARC
8
0
10
206.525
20
-41.125
40
0.5
50
0
51
90
0
ARC
8
0
10
193.525
20
-54.125
40
0.5
50
180
51
270
0
ARC
8
0
10
206.525
20
-54.125
40
0.5
50
270
51
0
0
LINE
8
0
10
212.575
20
-40.625
11
225.575
21
-40.625
0
LINE
8
0
10
212.575
20
-54.625
11
225.575
21
-54.625
0
LINE
8
0
10
212.075
20
-41.125
11
212.075
21
-54.125
0
LINE
8
0
10
226.075
20
-41.125
11
226.075
21
-54.125
0
ARC
8
0
10
212.575
20
-41.125
40
0.5
50
90
51
180
0
ARC
8
0
10
225.575
20
-41.125
40
0.5
50
0
51
90
0
ARC
8
0
10
212.575
20
-54.125
40
0.5
50
180
51
270
0
ARC
8
0
10
225.575
20
-54.125
40
0.5
50
270
51
0
0
LINE
8
0
10
231.625
20
-40.625
11
244.625
21
-40.625
0
LINE
8
0
10
231.625
20
-54.625
11
244.625
21
-54.625
0
LINE
8
0
10
231.125
20
-41.125
11
231.125
21
-54.125
0
LINE
8
0
10
245.125
20
-41.125
11
245.125
21
-54.125
0
ARC
8
0
10
231.625
20
-41.125
40
0.5
50
90
51
180
0
ARC
8
0
10
244.625
20
-41.125
40
0.5
50
0
51
90
0
ARC
8
0
10
231.625
20
-54.125
40
0.5
50
180
51
270
0
ARC
8
0
10
244.625
20
-54.125
40
0.5
50
270
51
0
0
LINE
8
0
10
255.4375
20
-45.3875
11
268.4375
21
-45.3875
0
LINE
8
0
10
255.4375
20
-59.3875
11
268.4375
21
-59.3875
0
LINE
8
0
10
254.9375
20
-45.8875
11
254.9375
21
-58.8875
0
LINE
8
0
10
268.9375
20
-45.8875
11
268.9375
21
-58.8875
0
ARC
8
0
10
255.4375
20
-45.8875
40
0.5
50
90
51
180
0
ARC
8
0
10
268.4375
20
-45.8875
40
0.5
50
0
51
90
0
ARC
8
0
10
255.4375
20
-58.8875
40
0.5
50
180
51
270
0
ARC
8
0
10
268.4375
20
-58.8875
40
0.5
50
270
51
0
0
LINE
8
0
10
3.025
20
-59.675
11
16.025
21
-59.675
0
LINE
8
0
10
3.025
20
-73.675
11
16.025
21
-73.675
0
LINE
8
0
10
2.525
20
-60.175
11
2.525
21
-73.175
0
LINE
8
0
10
16.525
20
-60.175
11
16.525
21
-73.175
0
ARC
8
0
10
3.025
20
-60.175
40
0.5
50
90
51
180
0
ARC
8
0
10
16.025
20
-60.175
40
0.5
50
0
51
90
0
ARC
8
0
10
3.025
20
-73.175
40
0.5
50
180
51
270
0
ARC
8
0
10
16.025
20
-73.175
40
0.5
50
270
51
0
0
LINE
8
0
10
29.21875
20
-59.675
11
42.21875
21
-59.675
0
LINE
8
0
10
29.21875
20
-73.675
11
42.21875
21
-73.675
0
LINE
8
0
10
28.71875
20
-60.175
11
28.71875
21
-73.175
0
LINE
8
0
10
42.71875
20
-60.175
11
42.71875
21
-73.175
0
ARC
8
0
10
29.21875
20
-60.175
40
0.5
50
90
51
180
0
ARC
8
0
10
42.21875
20
-60.175
40
0.5
50
0
51
90
0
ARC
8
0
10
29.21875
20
-73.175
40
0.5
50
180
51
270
0
ARC
8
0
10
42.21875
20
-73.175
40
0.5
50
270
51
0
0
LINE
8
0
10
50.65
20
-59.675
11
63.65
21
-59.675
0
LINE
8
0
10
50.65
20
-73.675
11
63.65
21
-73.675
0
LINE
8
0
10
50.15
20
-60.175
11
50.15
21
-73.175
0
LINE
8
0
10
64.15
20
-60.175
11
64.15
21
-73.175
0
ARC
8
0
10
50.65
20
-60.175
40
0.5
50
90
51
180
0
ARC
8
0
10
63.65
20
-60.175
40
0.5
50
0
51
90
0
ARC
8
0
10
50.65
20
-73.175
40
0.5
50
180
51
270
0
ARC
8
0
10
63.65
20
-73.175
40
0.5
50
270
51
0
0
LINE
8
0
10
72.08125
20
-59.675
11
85.08125
21
-59.675
0
LINE
8
0
10
72.08125
20
-73.675
11
85.08125
21
-73.675
0
LINE
8
0
10
71.58125
20
-60.175
11
71.58125
21
-73.175
0
LINE
8
0
10
85.58125
20
-60.175
11
85.58125
21
-73.175
0
ARC
8
0
10
72.08125
20
-60.175
40
0.5
50
90
51
180
0
ARC
8
0
10
85.08125
20
-60.175
40
0.5
50
0
51
90
0
ARC
8
0
10
72.08125
20
-73.175
40
0.5
50
180
51
270
0
ARC
8
0
10
85.08125
20
-73.175
40
0.5
50
270
51
0
0
LINE
8
0
10
112.5625
20
-59.675
11
125.5625
21
-59.675
0
LINE
8
0
10
112.5625
20
-73.675
11
125.5625
21
-73.675
0
LINE
8
0
10
112.0625
20
-60.175
11
112.0625
21
-73.175
0
LINE
8
0
10
126.0625
20
-60.175
11
126.0625
21
-73.175
0
ARC
8
0
10
112.5625
20
-60.175
40
0.5
50
90
51
180
0
ARC
8
0
10
125.5625
20
-60.175
40
0.5
50
0
51
90
0
ARC
8
0
10
112.5625
20
-73.175
40
0.5
50
180
51
270
0
ARC
8
0
10
125.5625
20
-73.175
40
0.5
50
270
51
0
0
LINE
8
0
10
97.0125
20
-60.675
11
103.0125
21
-60.675
0
LINE
8
0
10
97.0125
20
-75.675
11
103.0125
21
-75.675
0
LINE
8
0
10
96.5125
20
-61.175
11
96.5125
21
-75.175
0
LINE
8
0
10
103.5125
20
-61.175
11
103.5125
21
-75.175
0
ARC
8
0
10
97.0125
20
-61.175
40
0.5
50
90
51
180
0
ARC
8
0
10
103.0125
20
-61.175
40
0.5
50
0
51
90
0
ARC
8
0
10
97.0125
20
-75.175
40
0.5
50
180
51
270
0
ARC
8
0
10
103.0125
20
-75.175
40
0.5
50
270
51
0
0
LINE
8
0
10
135.1125
20
-60.675
11
141.1125
21
-60.675
0
LINE
8
0
10
135.1125
20
-75.675
11
141.1125
21
-75.675
0
LINE
8
0
10
134.6125
20
-61.175
11
134.6125
21
-75.175
0
LINE
8
0
10
141.6125
20
-61.175
11
141.6125
21
-75.175
0
ARC
8
0
10
135.1125
20
-61.175
40
0.5
50
90
51
180
0
ARC
8
0
10
141.1125
20
-61.175
40
0.5
50
0
51
90
0
ARC
8
0
10
135.1125
20
-75.175
40
0.5
50
180
51
270
0
ARC
8
0
10
141.1125
20
-75.175
40
0.5
50
270
51
0
0
LINE
8
0
10
167.33125
20
-59.675
11
180.33125
21
-59.675
0
LINE
8
0
10
167.33125
20
-73.675
11
180.33125
21
-73.675
0
LINE
8
0
10
166.83125
20
-60.175
11
166.83125
21
-73.175
0
LINE
8
0
10
180.83125
20
-60.175
11
180.83125
21
-73.175
0
ARC
8
0
10
167.33125
20
-60.175
40
0.5
50
90
51
180
0
ARC
8
0
10
180.33125
20
-60.175
40
0.5
50
0
51
90
0
ARC
8
0
10
167.33125
20
-73.175
40
0.5
50
180
51
270
0
ARC
8
0
10
180.33125
20
-73.175
40
0.5
50
270
51
0
0
LINE
8
0
10
158.89325
20
-60.675
11
164.89325
21
-60.675
0
LINE
8
0
10
158.89325
20
-75.675
11
164.89325
21
-75.675
0
LINE
8
0
10
158.39325
20
-61.175
11
158.39325
21
-75.175
0
LINE
8
0
10
165.39325
20
-61.175
11
165.39325
21
-75.175
0
ARC
8
0
10
158.89325
20
-61.175
40
0.5
50
90
51
180
0
ARC
8
0
10
164.89325
20
-61.175
40
0.5
50
0
51
90
0
ARC
8
0
10
158.89325
20
-75.175
40
0.5
50
180
51
270
0
ARC
8
0
10
164.89325
20
-75.175
40
0.5
50
270
51
0
0
LINE
8
0
10
182.76925
20
-60.675
11
188.76925
21
-60.675
0
LINE
8
0
10
182.76925
20
-75.675
11
188.76925
21
-75.675
0
LINE
8
0
10
182.26925
20
-61.175
11
182.26925
21
-75.175
0
LINE
8
0
10
189.26925
20
-61.175
11
189.26925
21
-75.175
0
ARC
8
0
10
182.76925
20
-61.175
40
0.5
50
90
51
180
0
ARC
8
0
10
188.76925
20
-61.175
40
0.5
50
0
51
90
0
ARC
8
0
10
182.76925
20
-75.175
40
0.5
50
180
51
270
0
ARC
8
0
10
188.76925
20
-75.175
40
0.5
50
270
51
0
0
LINE
8
0
10
207.8125
20
-59.675
11
220.8125
21
-59.675
0
LINE
8
0
10
207.8125
20
-73.675
11
220.8125
21
-73.675
0
LINE
8
0
10
207.3125
20
-60.175
11
207.3125
21
-73.175
0
LINE
8
0
10
221.3125
20
-60.175
11
221.3125
21
-73.175
0
ARC
8
0
10
207.8125
20
-60.175
40
0.5
50
90
51
180
0
ARC
8
0
10
220.8125
20
-60.175
40
0.5
50
0
51
90
0
ARC
8
0
10
207.8125
20
-73.175
40
0.5
50
180
51
270
0
ARC
8
0
10
220.8125
20
-73.175
40
0.5
50
270
51
0
0
LINE
8
0
10
236.3875
20
-64.4375
11
249.3875
21
-64.4375
0
LINE
8
0
10
236.3875
20
-78.4375
11
249.3875
21
-78.4375
0
LINE
8
0
10
235.8875
20
-64.9375
11
235.8875
21
-77.9375
0
LINE
8
0
10
249.8875
20
-64.9375
11
249.8875
21
-77.9375
0
ARC
8
0
10
236.3875
20
-64.9375
40
0.5
50
90
51
180
0
ARC
8
0
10
249.3875
20
-64.9375
40
0.5
50
0
51
90
0
ARC
8
0
10
236.3875
20
-77.9375
40
0.5
50
180
51
270
0
ARC
8
0
10
249.3875
20
-77.9375
40
0.5
50
270
51
0
0
LINE
8
0
10
255.4375
20
-64.4375
11
268.4375
21
-64.4375
0
LINE
8
0
10
255.4375
20
-78.4375
11
268.4375
21
-78.4375
0
LINE
8
0
10
254.9375
20
-64.9375
11
254.9375
21
-77.9375
0
LINE
8
0
10
268.9375
20
-64.9375
11
268.9375
21
-77.9375
0
ARC
8
0
10
255.4375
20
-64.9375
40
0.5
50
90
51
180
0
ARC
8
0
10
268.4375
20
-64.9375
40
0.5
50
0
51
90
0
ARC
8
0
10
255.4375
20
-77.9375
40
0.5
50
180
51
270
0
ARC
8
0
10
268.4375
20
-77.9375
40
0.5
50
270
51
0
0
LINE
8
0
10
274.4875
20
-64.4375
11
287.4875
21
-64.4375
0
LINE
8
0
10
274.4875
20
-78.4375
11
287.4875
21
-78.4375
0
LINE
8
0
10
273.9875
20
-64.9375
11
273.9875
21
-77.9375
0
LINE
8
0
10
287.9875
20
-64.9375
11
287.9875
21
-77.9375
0
ARC
8
0
10
274.4875
20
-64.9375
40
0.5
50
90
51
180
0
ARC
8
0
10
287.4875
20
-64.9375
40
0.5
50
0
51
90
0
ARC
8
0
10
274.4875
20
-77.9375
40
0.5
50
180
51
270
0
ARC
8
0
10
287.4875
20
-77.9375
40
0.5
50
270
51
0
0
LINE
8
0
10
0
20
-80.9625
11
290.5125
21
-80.9625
0
LINE
8
0
10
0
20
0
11
290.5125
21
0
0
LINE
8
0
10
0
20
-80.9625
11
0
21
0
0
LINE
8
0
10
290.5125
20
-80.9625
11
290.5125
21
0
0
ENDSEC
0
EOF