%TF.GenerationSoftware,KiCad,Pcbnew,7.0.8+dfsg-1*%
%TF.CreationDate,2023-11-03T17:26:10+01:00*%
%TF.ProjectId,plopplop-rounded,706c6f70-706c-46f7-902d-726f756e6465,rev?*%
%TF.SameCoordinates,PXfbec30PY8198450*%
%TF.FileFunction,Soldermask,Top*%
%TF.FilePolarity,Negative*%
%FSLAX46Y46*%
G04 Gerber Fmt 4.6, Leading zero omitted, Abs format (unit mm)*
G04 Created by KiCad (PCBNEW 7.0.8+dfsg-1) date 2023-11-03 17:26:10*
%MOMM*%
%LPD*%
G01*
G04 APERTURE LIST*
%ADD10C,3.987800*%
%ADD11C,3.048000*%
%ADD12C,1.701800*%
%ADD13C,2.200000*%
%ADD14O,1.600000X1.600000*%
%ADD15R,1.600000X1.600000*%
G04 APERTURE END LIST*
D10*
%TO.C,MX34-1*%
X245459250Y63182500D03*
X221583250Y63182500D03*
D11*
X245459250Y47942500D03*
X221583250Y47942500D03*
D12*
X238601250Y54927500D03*
X228441250Y54927500D03*
D10*
X233521250Y54927500D03*
%TD*%
D13*
%TO.C,REF\u002A\u002A*%
X257333750Y4921250D03*
%TD*%
%TO.C,REF\u002A\u002A*%
X4921250Y4921250D03*
%TD*%
%TO.C,REF\u002A\u002A*%
X257333750Y109696250D03*
%TD*%
%TO.C,REF\u002A\u002A*%
X4921250Y109696250D03*
%TD*%
D12*
%TO.C,MX53*%
X245745000Y16827500D03*
X235585000Y16827500D03*
D10*
X240665000Y16827500D03*
%TD*%
D12*
%TO.C,MX52*%
X219551250Y16827500D03*
X209391250Y16827500D03*
D10*
X214471250Y16827500D03*
%TD*%
D12*
%TO.C,MX51*%
X195738750Y16827500D03*
X185578750Y16827500D03*
D10*
X190658750Y16827500D03*
%TD*%
%TO.C,MX50*%
X169259250Y25082500D03*
X145383250Y25082500D03*
D11*
X169259250Y9842500D03*
X145383250Y9842500D03*
D12*
X162401250Y16827500D03*
X152241250Y16827500D03*
D10*
X157321250Y16827500D03*
%TD*%
%TO.C,MX49*%
X121634250Y25082500D03*
X97758250Y25082500D03*
D11*
X121634250Y9842500D03*
X97758250Y9842500D03*
D12*
X114776250Y16827500D03*
X104616250Y16827500D03*
D10*
X109696250Y16827500D03*
%TD*%
D12*
%TO.C,MX48*%
X76717500Y16827500D03*
X66557500Y16827500D03*
D10*
X71637500Y16827500D03*
%TD*%
D12*
%TO.C,MX47*%
X52863750Y16827500D03*
X42703750Y16827500D03*
D10*
X47783750Y16827500D03*
%TD*%
D12*
%TO.C,MX46*%
X26670000Y16827500D03*
X16510000Y16827500D03*
D10*
X21590000Y16827500D03*
%TD*%
D14*
%TO.C,D53*%
X250190000Y20637500D03*
D15*
X250190000Y13017500D03*
%TD*%
D14*
%TO.C,D52*%
X223996250Y20637500D03*
D15*
X223996250Y13017500D03*
%TD*%
D14*
%TO.C,D51*%
X200183750Y20637500D03*
D15*
X200183750Y13017500D03*
%TD*%
D14*
%TO.C,D50*%
X178752500Y20637500D03*
D15*
X178752500Y13017500D03*
%TD*%
D14*
%TO.C,D49*%
X135890000Y20637500D03*
D15*
X135890000Y13017500D03*
%TD*%
D14*
%TO.C,D48*%
X81121250Y20637500D03*
D15*
X81121250Y13017500D03*
%TD*%
D14*
%TO.C,D47*%
X57308750Y20637500D03*
D15*
X57308750Y13017500D03*
%TD*%
D14*
%TO.C,D46*%
X31115000Y20637500D03*
D15*
X31115000Y13017500D03*
%TD*%
D12*
%TO.C,MX45*%
X243363750Y35877500D03*
X233203750Y35877500D03*
D10*
X238283750Y35877500D03*
%TD*%
D12*
%TO.C,MX44*%
X217170000Y35877500D03*
X207010000Y35877500D03*
D10*
X212090000Y35877500D03*
%TD*%
D12*
%TO.C,MX43*%
X198120000Y35877500D03*
X187960000Y35877500D03*
D10*
X193040000Y35877500D03*
%TD*%
D12*
%TO.C,MX42*%
X179070000Y35877500D03*
X168910000Y35877500D03*
D10*
X173990000Y35877500D03*
%TD*%
D12*
%TO.C,MX41*%
X160020000Y35877500D03*
X149860000Y35877500D03*
D10*
X154940000Y35877500D03*
%TD*%
D12*
%TO.C,MX40*%
X140970000Y35877500D03*
X130810000Y35877500D03*
D10*
X135890000Y35877500D03*
%TD*%
D12*
%TO.C,MX39*%
X121920000Y35877500D03*
X111760000Y35877500D03*
D10*
X116840000Y35877500D03*
%TD*%
D12*
%TO.C,MX38*%
X102870000Y35877500D03*
X92710000Y35877500D03*
D10*
X97790000Y35877500D03*
%TD*%
D12*
%TO.C,MX37*%
X83820000Y35877500D03*
X73660000Y35877500D03*
D10*
X78740000Y35877500D03*
%TD*%
D12*
%TO.C,MX36*%
X64770000Y35877500D03*
X54610000Y35877500D03*
D10*
X59690000Y35877500D03*
%TD*%
%TO.C,MX35*%
X40671750Y44132500D03*
X16795750Y44132500D03*
D11*
X40671750Y28892500D03*
X16795750Y28892500D03*
D12*
X33813750Y35877500D03*
X23653750Y35877500D03*
D10*
X28733750Y35877500D03*
%TD*%
D14*
%TO.C,D45*%
X247808750Y39687500D03*
D15*
X247808750Y32067500D03*
%TD*%
D14*
%TO.C,D44*%
X221615000Y39687500D03*
D15*
X221615000Y32067500D03*
%TD*%
D14*
%TO.C,D43*%
X202565000Y39687500D03*
D15*
X202565000Y32067500D03*
%TD*%
D14*
%TO.C,D42*%
X183515000Y39687500D03*
D15*
X183515000Y32067500D03*
%TD*%
D14*
%TO.C,D41*%
X164465000Y39687500D03*
D15*
X164465000Y32067500D03*
%TD*%
D14*
%TO.C,D40*%
X144115000Y39687500D03*
D15*
X144115000Y32067500D03*
%TD*%
D14*
%TO.C,D39*%
X126365000Y39687500D03*
D15*
X126365000Y32067500D03*
%TD*%
D14*
%TO.C,D38*%
X107315000Y39687500D03*
D15*
X107315000Y32067500D03*
%TD*%
D14*
%TO.C,D37*%
X88265000Y39687500D03*
D15*
X88265000Y32067500D03*
%TD*%
D14*
%TO.C,D36*%
X69215000Y39687500D03*
D15*
X69215000Y32067500D03*
%TD*%
D14*
%TO.C,D35*%
X50165000Y39687500D03*
D15*
X50165000Y32067500D03*
%TD*%
D12*
%TO.C,MX34*%
X248126250Y54927500D03*
X237966250Y54927500D03*
D10*
X243046250Y54927500D03*
%TD*%
D12*
%TO.C,MX33*%
X226695000Y54927500D03*
X216535000Y54927500D03*
D10*
X221615000Y54927500D03*
%TD*%
D12*
%TO.C,MX32*%
X207645000Y54927500D03*
X197485000Y54927500D03*
D10*
X202565000Y54927500D03*
%TD*%
D12*
%TO.C,MX31*%
X188595000Y54927500D03*
X178435000Y54927500D03*
D10*
X183515000Y54927500D03*
%TD*%
D12*
%TO.C,MX30*%
X169545000Y54927500D03*
X159385000Y54927500D03*
D10*
X164465000Y54927500D03*
%TD*%
D12*
%TO.C,MX29*%
X150495000Y54927500D03*
X140335000Y54927500D03*
D10*
X145415000Y54927500D03*
%TD*%
D12*
%TO.C,MX28*%
X131445000Y54927500D03*
X121285000Y54927500D03*
D10*
X126365000Y54927500D03*
%TD*%
D12*
%TO.C,MX27*%
X112395000Y54927500D03*
X102235000Y54927500D03*
D10*
X107315000Y54927500D03*
%TD*%
D12*
%TO.C,MX26*%
X93345000Y54927500D03*
X83185000Y54927500D03*
D10*
X88265000Y54927500D03*
%TD*%
D12*
%TO.C,MX25*%
X74295000Y54927500D03*
X64135000Y54927500D03*
D10*
X69215000Y54927500D03*
%TD*%
D12*
%TO.C,MX24*%
X55245000Y54927500D03*
X45085000Y54927500D03*
D10*
X50165000Y54927500D03*
%TD*%
D12*
%TO.C,MX23*%
X29051250Y54927500D03*
X18891250Y54927500D03*
D10*
X23971250Y54927500D03*
%TD*%
D14*
%TO.C,D34*%
X252571250Y58737500D03*
D15*
X252571250Y51117500D03*
%TD*%
D14*
%TO.C,D33*%
X215900000Y45402500D03*
D15*
X208280000Y45402500D03*
%TD*%
D14*
%TO.C,D32*%
X212090000Y58737500D03*
D15*
X212090000Y51117500D03*
%TD*%
D14*
%TO.C,D31*%
X193040000Y58737500D03*
D15*
X193040000Y51117500D03*
%TD*%
D14*
%TO.C,D30*%
X173990000Y58737500D03*
D15*
X173990000Y51117500D03*
%TD*%
D14*
%TO.C,D29*%
X154940000Y58737500D03*
D15*
X154940000Y51117500D03*
%TD*%
D14*
%TO.C,D28*%
X135890000Y58737500D03*
D15*
X135890000Y51117500D03*
%TD*%
D14*
%TO.C,D27*%
X116840000Y58737500D03*
D15*
X116840000Y51117500D03*
%TD*%
D14*
%TO.C,D26*%
X97790000Y58737500D03*
D15*
X97790000Y51117500D03*
%TD*%
D14*
%TO.C,D25*%
X78740000Y58737500D03*
D15*
X78740000Y51117500D03*
%TD*%
D14*
%TO.C,D24*%
X59690000Y58737500D03*
D15*
X59690000Y51117500D03*
%TD*%
D14*
%TO.C,D23*%
X33496250Y58737500D03*
D15*
X33496250Y51117500D03*
%TD*%
D12*
%TO.C,MX22*%
X245745000Y73977500D03*
X235585000Y73977500D03*
D10*
X240665000Y73977500D03*
%TD*%
D12*
%TO.C,MX21*%
X221932500Y73977500D03*
X211772500Y73977500D03*
D10*
X216852500Y73977500D03*
%TD*%
D12*
%TO.C,MX20*%
X202882500Y73977500D03*
X192722500Y73977500D03*
D10*
X197802500Y73977500D03*
%TD*%
D12*
%TO.C,MX19*%
X183832500Y73977500D03*
X173672500Y73977500D03*
D10*
X178752500Y73977500D03*
%TD*%
D14*
%TO.C,D22*%
X250190000Y77787500D03*
D15*
X250190000Y70167500D03*
%TD*%
D14*
%TO.C,D21*%
X226377500Y77787500D03*
D15*
X226377500Y70167500D03*
%TD*%
D14*
%TO.C,D20*%
X207327500Y77787500D03*
D15*
X207327500Y70167500D03*
%TD*%
D14*
%TO.C,D19*%
X188277500Y77787500D03*
D15*
X188277500Y70167500D03*
%TD*%
D12*
%TO.C,MX18*%
X164782500Y73977500D03*
X154622500Y73977500D03*
D10*
X159702500Y73977500D03*
%TD*%
D12*
%TO.C,MX17*%
X145732500Y73977500D03*
X135572500Y73977500D03*
D10*
X140652500Y73977500D03*
%TD*%
D12*
%TO.C,MX16*%
X126682500Y73977500D03*
X116522500Y73977500D03*
D10*
X121602500Y73977500D03*
%TD*%
D12*
%TO.C,MX15*%
X107632500Y73977500D03*
X97472500Y73977500D03*
D10*
X102552500Y73977500D03*
%TD*%
D12*
%TO.C,MX14*%
X88582500Y73977500D03*
X78422500Y73977500D03*
D10*
X83502500Y73977500D03*
%TD*%
D12*
%TO.C,MX13*%
X69532500Y73977500D03*
X59372500Y73977500D03*
D10*
X64452500Y73977500D03*
%TD*%
D12*
%TO.C,MX12*%
X50482500Y73977500D03*
X40322500Y73977500D03*
D10*
X45402500Y73977500D03*
%TD*%
D12*
%TO.C,MX11*%
X26670000Y73977500D03*
X16510000Y73977500D03*
D10*
X21590000Y73977500D03*
%TD*%
D14*
%TO.C,D18*%
X169227500Y77787500D03*
D15*
X169227500Y70167500D03*
%TD*%
D14*
%TO.C,D17*%
X150177500Y77787500D03*
D15*
X150177500Y70167500D03*
%TD*%
D14*
%TO.C,D16*%
X131127500Y77787500D03*
D15*
X131127500Y70167500D03*
%TD*%
D14*
%TO.C,D15*%
X112077500Y77787500D03*
D15*
X112077500Y70167500D03*
%TD*%
D14*
%TO.C,D14*%
X93027500Y77787500D03*
D15*
X93027500Y70167500D03*
%TD*%
D14*
%TO.C,D13*%
X73977500Y77787500D03*
D15*
X73977500Y70167500D03*
%TD*%
D14*
%TO.C,D12*%
X54927500Y77787500D03*
D15*
X54927500Y70167500D03*
%TD*%
D14*
%TO.C,D11*%
X31115000Y77787500D03*
D15*
X31115000Y70167500D03*
%TD*%
D12*
%TO.C,MX10*%
X250507500Y97790000D03*
X240347500Y97790000D03*
D10*
X245427500Y97790000D03*
%TD*%
D12*
%TO.C,MX9*%
X226695000Y97790000D03*
X216535000Y97790000D03*
D10*
X221615000Y97790000D03*
%TD*%
D12*
%TO.C,MX8*%
X207645000Y97790000D03*
X197485000Y97790000D03*
D10*
X202565000Y97790000D03*
%TD*%
D12*
%TO.C,MX7*%
X188595000Y97790000D03*
X178435000Y97790000D03*
D10*
X183515000Y97790000D03*
%TD*%
D12*
%TO.C,MX6*%
X169545000Y97790000D03*
X159385000Y97790000D03*
D10*
X164465000Y97790000D03*
%TD*%
D12*
%TO.C,MX5*%
X145732500Y97790000D03*
X135572500Y97790000D03*
D10*
X140652500Y97790000D03*
%TD*%
D12*
%TO.C,MX4*%
X126682500Y97790000D03*
X116522500Y97790000D03*
D10*
X121602500Y97790000D03*
%TD*%
D12*
%TO.C,MX3*%
X107632500Y97790000D03*
X97472500Y97790000D03*
D10*
X102552500Y97790000D03*
%TD*%
D12*
%TO.C,MX1*%
X64770000Y97790000D03*
X54610000Y97790000D03*
D10*
X59690000Y97790000D03*
%TD*%
D14*
%TO.C,D10*%
X235902500Y101600000D03*
D15*
X235902500Y93980000D03*
%TD*%
D14*
%TO.C,D9*%
X231140000Y101600000D03*
D15*
X231140000Y93980000D03*
%TD*%
D14*
%TO.C,D8*%
X212090000Y101600000D03*
D15*
X212090000Y93980000D03*
%TD*%
D14*
%TO.C,D7*%
X193040000Y101600000D03*
D15*
X193040000Y93980000D03*
%TD*%
D14*
%TO.C,D6*%
X173990000Y101600000D03*
D15*
X173990000Y93980000D03*
%TD*%
D14*
%TO.C,D5*%
X150177500Y101600000D03*
D15*
X150177500Y93980000D03*
%TD*%
D14*
%TO.C,D4*%
X131127500Y101600000D03*
D15*
X131127500Y93980000D03*
%TD*%
D14*
%TO.C,D3*%
X112077500Y101600000D03*
D15*
X112077500Y93980000D03*
%TD*%
D10*
%TO.C,MX2*%
X83502500Y97790000D03*
D12*
X78422500Y97790000D03*
X88582500Y97790000D03*
%TD*%
D14*
%TO.C,D2*%
X93027500Y101600000D03*
D15*
X93027500Y93980000D03*
%TD*%
D14*
%TO.C,D1*%
X69215000Y101600000D03*
D15*
X69215000Y93980000D03*
%TD*%
M02*
