%TF.GenerationSoftware,KiCad,Pcbnew,7.0.8+dfsg-1*%
%TF.CreationDate,2023-11-03T17:26:10+01:00*%
%TF.ProjectId,plopplop-rounded,706c6f70-706c-46f7-902d-726f756e6465,rev?*%
%TF.SameCoordinates,PXfbec30PY8198450*%
%TF.FileFunction,Legend,Top*%
%TF.FilePolarity,Positive*%
%FSLAX46Y46*%
G04 Gerber Fmt 4.6, Leading zero omitted, Abs format (unit mm)*
G04 Created by KiCad (PCBNEW 7.0.8+dfsg-1) date 2023-11-03 17:26:10*
%MOMM*%
%LPD*%
G01*
G04 APERTURE LIST*
%ADD10C,0.150000*%
%ADD11C,0.120000*%
G04 APERTURE END LIST*
D10*
X248844819Y12755596D02*
X247844819Y12755596D01*
X248844819Y13327024D02*
X248273390Y12898453D01*
X247844819Y13327024D02*
X248416247Y12755596D01*
X222651069Y12755596D02*
X221651069Y12755596D01*
X222651069Y13327024D02*
X222079640Y12898453D01*
X221651069Y13327024D02*
X222222497Y12755596D01*
X198838569Y12755596D02*
X197838569Y12755596D01*
X198838569Y13327024D02*
X198267140Y12898453D01*
X197838569Y13327024D02*
X198409997Y12755596D01*
X177407319Y12755596D02*
X176407319Y12755596D01*
X177407319Y13327024D02*
X176835890Y12898453D01*
X176407319Y13327024D02*
X176978747Y12755596D01*
X134544819Y12755596D02*
X133544819Y12755596D01*
X134544819Y13327024D02*
X133973390Y12898453D01*
X133544819Y13327024D02*
X134116247Y12755596D01*
X79776069Y12755596D02*
X78776069Y12755596D01*
X79776069Y13327024D02*
X79204640Y12898453D01*
X78776069Y13327024D02*
X79347497Y12755596D01*
X55963569Y12755596D02*
X54963569Y12755596D01*
X55963569Y13327024D02*
X55392140Y12898453D01*
X54963569Y13327024D02*
X55534997Y12755596D01*
X29769819Y12755596D02*
X28769819Y12755596D01*
X29769819Y13327024D02*
X29198390Y12898453D01*
X28769819Y13327024D02*
X29341247Y12755596D01*
X246463569Y31805596D02*
X245463569Y31805596D01*
X246463569Y32377024D02*
X245892140Y31948453D01*
X245463569Y32377024D02*
X246034997Y31805596D01*
X220269819Y31805596D02*
X219269819Y31805596D01*
X220269819Y32377024D02*
X219698390Y31948453D01*
X219269819Y32377024D02*
X219841247Y31805596D01*
X201219819Y31805596D02*
X200219819Y31805596D01*
X201219819Y32377024D02*
X200648390Y31948453D01*
X200219819Y32377024D02*
X200791247Y31805596D01*
X182169819Y31805596D02*
X181169819Y31805596D01*
X182169819Y32377024D02*
X181598390Y31948453D01*
X181169819Y32377024D02*
X181741247Y31805596D01*
X163119819Y31805596D02*
X162119819Y31805596D01*
X163119819Y32377024D02*
X162548390Y31948453D01*
X162119819Y32377024D02*
X162691247Y31805596D01*
X142769819Y31805596D02*
X141769819Y31805596D01*
X142769819Y32377024D02*
X142198390Y31948453D01*
X141769819Y32377024D02*
X142341247Y31805596D01*
X125019819Y31805596D02*
X124019819Y31805596D01*
X125019819Y32377024D02*
X124448390Y31948453D01*
X124019819Y32377024D02*
X124591247Y31805596D01*
X105969819Y31805596D02*
X104969819Y31805596D01*
X105969819Y32377024D02*
X105398390Y31948453D01*
X104969819Y32377024D02*
X105541247Y31805596D01*
X86919819Y31805596D02*
X85919819Y31805596D01*
X86919819Y32377024D02*
X86348390Y31948453D01*
X85919819Y32377024D02*
X86491247Y31805596D01*
X67869819Y31805596D02*
X66869819Y31805596D01*
X67869819Y32377024D02*
X67298390Y31948453D01*
X66869819Y32377024D02*
X67441247Y31805596D01*
X48819819Y31805596D02*
X47819819Y31805596D01*
X48819819Y32377024D02*
X48248390Y31948453D01*
X47819819Y32377024D02*
X48391247Y31805596D01*
X251226069Y50855596D02*
X250226069Y50855596D01*
X251226069Y51427024D02*
X250654640Y50998453D01*
X250226069Y51427024D02*
X250797497Y50855596D01*
X208018095Y46747681D02*
X208018095Y47747681D01*
X208589523Y46747681D02*
X208160952Y47319110D01*
X208589523Y47747681D02*
X208018095Y47176253D01*
X210744819Y50855596D02*
X209744819Y50855596D01*
X210744819Y51427024D02*
X210173390Y50998453D01*
X209744819Y51427024D02*
X210316247Y50855596D01*
X191694819Y50855596D02*
X190694819Y50855596D01*
X191694819Y51427024D02*
X191123390Y50998453D01*
X190694819Y51427024D02*
X191266247Y50855596D01*
X172644819Y50855596D02*
X171644819Y50855596D01*
X172644819Y51427024D02*
X172073390Y50998453D01*
X171644819Y51427024D02*
X172216247Y50855596D01*
X153594819Y50855596D02*
X152594819Y50855596D01*
X153594819Y51427024D02*
X153023390Y50998453D01*
X152594819Y51427024D02*
X153166247Y50855596D01*
X134544819Y50855596D02*
X133544819Y50855596D01*
X134544819Y51427024D02*
X133973390Y50998453D01*
X133544819Y51427024D02*
X134116247Y50855596D01*
X115494819Y50855596D02*
X114494819Y50855596D01*
X115494819Y51427024D02*
X114923390Y50998453D01*
X114494819Y51427024D02*
X115066247Y50855596D01*
X96444819Y50855596D02*
X95444819Y50855596D01*
X96444819Y51427024D02*
X95873390Y50998453D01*
X95444819Y51427024D02*
X96016247Y50855596D01*
X77394819Y50855596D02*
X76394819Y50855596D01*
X77394819Y51427024D02*
X76823390Y50998453D01*
X76394819Y51427024D02*
X76966247Y50855596D01*
X58344819Y50855596D02*
X57344819Y50855596D01*
X58344819Y51427024D02*
X57773390Y50998453D01*
X57344819Y51427024D02*
X57916247Y50855596D01*
X32151069Y50855596D02*
X31151069Y50855596D01*
X32151069Y51427024D02*
X31579640Y50998453D01*
X31151069Y51427024D02*
X31722497Y50855596D01*
X248844819Y69905596D02*
X247844819Y69905596D01*
X248844819Y70477024D02*
X248273390Y70048453D01*
X247844819Y70477024D02*
X248416247Y69905596D01*
X225032319Y69905596D02*
X224032319Y69905596D01*
X225032319Y70477024D02*
X224460890Y70048453D01*
X224032319Y70477024D02*
X224603747Y69905596D01*
X205982319Y69905596D02*
X204982319Y69905596D01*
X205982319Y70477024D02*
X205410890Y70048453D01*
X204982319Y70477024D02*
X205553747Y69905596D01*
X186932319Y69905596D02*
X185932319Y69905596D01*
X186932319Y70477024D02*
X186360890Y70048453D01*
X185932319Y70477024D02*
X186503747Y69905596D01*
X167882319Y69905596D02*
X166882319Y69905596D01*
X167882319Y70477024D02*
X167310890Y70048453D01*
X166882319Y70477024D02*
X167453747Y69905596D01*
X148832319Y69905596D02*
X147832319Y69905596D01*
X148832319Y70477024D02*
X148260890Y70048453D01*
X147832319Y70477024D02*
X148403747Y69905596D01*
X129782319Y69905596D02*
X128782319Y69905596D01*
X129782319Y70477024D02*
X129210890Y70048453D01*
X128782319Y70477024D02*
X129353747Y69905596D01*
X110732319Y69905596D02*
X109732319Y69905596D01*
X110732319Y70477024D02*
X110160890Y70048453D01*
X109732319Y70477024D02*
X110303747Y69905596D01*
X91682319Y69905596D02*
X90682319Y69905596D01*
X91682319Y70477024D02*
X91110890Y70048453D01*
X90682319Y70477024D02*
X91253747Y69905596D01*
X72632319Y69905596D02*
X71632319Y69905596D01*
X72632319Y70477024D02*
X72060890Y70048453D01*
X71632319Y70477024D02*
X72203747Y69905596D01*
X53582319Y69905596D02*
X52582319Y69905596D01*
X53582319Y70477024D02*
X53010890Y70048453D01*
X52582319Y70477024D02*
X53153747Y69905596D01*
X29769819Y69905596D02*
X28769819Y69905596D01*
X29769819Y70477024D02*
X29198390Y70048453D01*
X28769819Y70477024D02*
X29341247Y69905596D01*
X234557319Y93718096D02*
X233557319Y93718096D01*
X234557319Y94289524D02*
X233985890Y93860953D01*
X233557319Y94289524D02*
X234128747Y93718096D01*
X229794819Y93718096D02*
X228794819Y93718096D01*
X229794819Y94289524D02*
X229223390Y93860953D01*
X228794819Y94289524D02*
X229366247Y93718096D01*
X210744819Y93718096D02*
X209744819Y93718096D01*
X210744819Y94289524D02*
X210173390Y93860953D01*
X209744819Y94289524D02*
X210316247Y93718096D01*
X191694819Y93718096D02*
X190694819Y93718096D01*
X191694819Y94289524D02*
X191123390Y93860953D01*
X190694819Y94289524D02*
X191266247Y93718096D01*
X172644819Y93718096D02*
X171644819Y93718096D01*
X172644819Y94289524D02*
X172073390Y93860953D01*
X171644819Y94289524D02*
X172216247Y93718096D01*
X148832319Y93718096D02*
X147832319Y93718096D01*
X148832319Y94289524D02*
X148260890Y93860953D01*
X147832319Y94289524D02*
X148403747Y93718096D01*
X129782319Y93718096D02*
X128782319Y93718096D01*
X129782319Y94289524D02*
X129210890Y93860953D01*
X128782319Y94289524D02*
X129353747Y93718096D01*
X110732319Y93718096D02*
X109732319Y93718096D01*
X110732319Y94289524D02*
X110160890Y93860953D01*
X109732319Y94289524D02*
X110303747Y93718096D01*
X91682319Y93718096D02*
X90682319Y93718096D01*
X91682319Y94289524D02*
X91110890Y93860953D01*
X90682319Y94289524D02*
X91253747Y93718096D01*
X9022319Y96528096D02*
X9831842Y96528096D01*
X9831842Y96528096D02*
X9927080Y96575715D01*
X9927080Y96575715D02*
X9974700Y96623334D01*
X9974700Y96623334D02*
X10022319Y96718572D01*
X10022319Y96718572D02*
X10022319Y96909048D01*
X10022319Y96909048D02*
X9974700Y97004286D01*
X9974700Y97004286D02*
X9927080Y97051905D01*
X9927080Y97051905D02*
X9831842Y97099524D01*
X9831842Y97099524D02*
X9022319Y97099524D01*
X9974700Y97528096D02*
X10022319Y97670953D01*
X10022319Y97670953D02*
X10022319Y97909048D01*
X10022319Y97909048D02*
X9974700Y98004286D01*
X9974700Y98004286D02*
X9927080Y98051905D01*
X9927080Y98051905D02*
X9831842Y98099524D01*
X9831842Y98099524D02*
X9736604Y98099524D01*
X9736604Y98099524D02*
X9641366Y98051905D01*
X9641366Y98051905D02*
X9593747Y98004286D01*
X9593747Y98004286D02*
X9546128Y97909048D01*
X9546128Y97909048D02*
X9498509Y97718572D01*
X9498509Y97718572D02*
X9450890Y97623334D01*
X9450890Y97623334D02*
X9403271Y97575715D01*
X9403271Y97575715D02*
X9308033Y97528096D01*
X9308033Y97528096D02*
X9212795Y97528096D01*
X9212795Y97528096D02*
X9117557Y97575715D01*
X9117557Y97575715D02*
X9069938Y97623334D01*
X9069938Y97623334D02*
X9022319Y97718572D01*
X9022319Y97718572D02*
X9022319Y97956667D01*
X9022319Y97956667D02*
X9069938Y98099524D01*
X9498509Y98861429D02*
X9546128Y99004286D01*
X9546128Y99004286D02*
X9593747Y99051905D01*
X9593747Y99051905D02*
X9688985Y99099524D01*
X9688985Y99099524D02*
X9831842Y99099524D01*
X9831842Y99099524D02*
X9927080Y99051905D01*
X9927080Y99051905D02*
X9974700Y99004286D01*
X9974700Y99004286D02*
X10022319Y98909048D01*
X10022319Y98909048D02*
X10022319Y98528096D01*
X10022319Y98528096D02*
X9022319Y98528096D01*
X9022319Y98528096D02*
X9022319Y98861429D01*
X9022319Y98861429D02*
X9069938Y98956667D01*
X9069938Y98956667D02*
X9117557Y99004286D01*
X9117557Y99004286D02*
X9212795Y99051905D01*
X9212795Y99051905D02*
X9308033Y99051905D01*
X9308033Y99051905D02*
X9403271Y99004286D01*
X9403271Y99004286D02*
X9450890Y98956667D01*
X9450890Y98956667D02*
X9498509Y98861429D01*
X9498509Y98861429D02*
X9498509Y98528096D01*
X10755652Y95170953D02*
X10755652Y95551905D01*
X10422319Y95313810D02*
X11279461Y95313810D01*
X11279461Y95313810D02*
X11374700Y95361429D01*
X11374700Y95361429D02*
X11422319Y95456667D01*
X11422319Y95456667D02*
X11422319Y95551905D01*
X11422319Y96028096D02*
X11374700Y95932858D01*
X11374700Y95932858D02*
X11327080Y95885239D01*
X11327080Y95885239D02*
X11231842Y95837620D01*
X11231842Y95837620D02*
X10946128Y95837620D01*
X10946128Y95837620D02*
X10850890Y95885239D01*
X10850890Y95885239D02*
X10803271Y95932858D01*
X10803271Y95932858D02*
X10755652Y96028096D01*
X10755652Y96028096D02*
X10755652Y96170953D01*
X10755652Y96170953D02*
X10803271Y96266191D01*
X10803271Y96266191D02*
X10850890Y96313810D01*
X10850890Y96313810D02*
X10946128Y96361429D01*
X10946128Y96361429D02*
X11231842Y96361429D01*
X11231842Y96361429D02*
X11327080Y96313810D01*
X11327080Y96313810D02*
X11374700Y96266191D01*
X11374700Y96266191D02*
X11422319Y96170953D01*
X11422319Y96170953D02*
X11422319Y96028096D01*
X10755652Y96790001D02*
X11755652Y96790001D01*
X10803271Y96790001D02*
X10755652Y96885239D01*
X10755652Y96885239D02*
X10755652Y97075715D01*
X10755652Y97075715D02*
X10803271Y97170953D01*
X10803271Y97170953D02*
X10850890Y97218572D01*
X10850890Y97218572D02*
X10946128Y97266191D01*
X10946128Y97266191D02*
X11231842Y97266191D01*
X11231842Y97266191D02*
X11327080Y97218572D01*
X11327080Y97218572D02*
X11374700Y97170953D01*
X11374700Y97170953D02*
X11422319Y97075715D01*
X11422319Y97075715D02*
X11422319Y96885239D01*
X11422319Y96885239D02*
X11374700Y96790001D01*
X11374700Y97647144D02*
X11422319Y97742382D01*
X11422319Y97742382D02*
X11422319Y97932858D01*
X11422319Y97932858D02*
X11374700Y98028096D01*
X11374700Y98028096D02*
X11279461Y98075715D01*
X11279461Y98075715D02*
X11231842Y98075715D01*
X11231842Y98075715D02*
X11136604Y98028096D01*
X11136604Y98028096D02*
X11088985Y97932858D01*
X11088985Y97932858D02*
X11088985Y97790001D01*
X11088985Y97790001D02*
X11041366Y97694763D01*
X11041366Y97694763D02*
X10946128Y97647144D01*
X10946128Y97647144D02*
X10898509Y97647144D01*
X10898509Y97647144D02*
X10803271Y97694763D01*
X10803271Y97694763D02*
X10755652Y97790001D01*
X10755652Y97790001D02*
X10755652Y97932858D01*
X10755652Y97932858D02*
X10803271Y98028096D01*
X11422319Y98504287D02*
X10755652Y98504287D01*
X10422319Y98504287D02*
X10469938Y98456668D01*
X10469938Y98456668D02*
X10517557Y98504287D01*
X10517557Y98504287D02*
X10469938Y98551906D01*
X10469938Y98551906D02*
X10422319Y98504287D01*
X10422319Y98504287D02*
X10517557Y98504287D01*
X11422319Y99409048D02*
X10422319Y99409048D01*
X11374700Y99409048D02*
X11422319Y99313810D01*
X11422319Y99313810D02*
X11422319Y99123334D01*
X11422319Y99123334D02*
X11374700Y99028096D01*
X11374700Y99028096D02*
X11327080Y98980477D01*
X11327080Y98980477D02*
X11231842Y98932858D01*
X11231842Y98932858D02*
X10946128Y98932858D01*
X10946128Y98932858D02*
X10850890Y98980477D01*
X10850890Y98980477D02*
X10803271Y99028096D01*
X10803271Y99028096D02*
X10755652Y99123334D01*
X10755652Y99123334D02*
X10755652Y99313810D01*
X10755652Y99313810D02*
X10803271Y99409048D01*
X11374700Y100266191D02*
X11422319Y100170953D01*
X11422319Y100170953D02*
X11422319Y99980477D01*
X11422319Y99980477D02*
X11374700Y99885239D01*
X11374700Y99885239D02*
X11279461Y99837620D01*
X11279461Y99837620D02*
X10898509Y99837620D01*
X10898509Y99837620D02*
X10803271Y99885239D01*
X10803271Y99885239D02*
X10755652Y99980477D01*
X10755652Y99980477D02*
X10755652Y100170953D01*
X10755652Y100170953D02*
X10803271Y100266191D01*
X10803271Y100266191D02*
X10898509Y100313810D01*
X10898509Y100313810D02*
X10993747Y100313810D01*
X10993747Y100313810D02*
X11088985Y99837620D01*
X11052319Y90455715D02*
X11052319Y89884287D01*
X11052319Y90170001D02*
X10052319Y90170001D01*
X10052319Y90170001D02*
X10195176Y90074763D01*
X10195176Y90074763D02*
X10290414Y89979525D01*
X10290414Y89979525D02*
X10338033Y89884287D01*
X9022319Y96528096D02*
X9831842Y96528096D01*
X9831842Y96528096D02*
X9927080Y96575715D01*
X9927080Y96575715D02*
X9974700Y96623334D01*
X9974700Y96623334D02*
X10022319Y96718572D01*
X10022319Y96718572D02*
X10022319Y96909048D01*
X10022319Y96909048D02*
X9974700Y97004286D01*
X9974700Y97004286D02*
X9927080Y97051905D01*
X9927080Y97051905D02*
X9831842Y97099524D01*
X9831842Y97099524D02*
X9022319Y97099524D01*
X9974700Y97528096D02*
X10022319Y97670953D01*
X10022319Y97670953D02*
X10022319Y97909048D01*
X10022319Y97909048D02*
X9974700Y98004286D01*
X9974700Y98004286D02*
X9927080Y98051905D01*
X9927080Y98051905D02*
X9831842Y98099524D01*
X9831842Y98099524D02*
X9736604Y98099524D01*
X9736604Y98099524D02*
X9641366Y98051905D01*
X9641366Y98051905D02*
X9593747Y98004286D01*
X9593747Y98004286D02*
X9546128Y97909048D01*
X9546128Y97909048D02*
X9498509Y97718572D01*
X9498509Y97718572D02*
X9450890Y97623334D01*
X9450890Y97623334D02*
X9403271Y97575715D01*
X9403271Y97575715D02*
X9308033Y97528096D01*
X9308033Y97528096D02*
X9212795Y97528096D01*
X9212795Y97528096D02*
X9117557Y97575715D01*
X9117557Y97575715D02*
X9069938Y97623334D01*
X9069938Y97623334D02*
X9022319Y97718572D01*
X9022319Y97718572D02*
X9022319Y97956667D01*
X9022319Y97956667D02*
X9069938Y98099524D01*
X9498509Y98861429D02*
X9546128Y99004286D01*
X9546128Y99004286D02*
X9593747Y99051905D01*
X9593747Y99051905D02*
X9688985Y99099524D01*
X9688985Y99099524D02*
X9831842Y99099524D01*
X9831842Y99099524D02*
X9927080Y99051905D01*
X9927080Y99051905D02*
X9974700Y99004286D01*
X9974700Y99004286D02*
X10022319Y98909048D01*
X10022319Y98909048D02*
X10022319Y98528096D01*
X10022319Y98528096D02*
X9022319Y98528096D01*
X9022319Y98528096D02*
X9022319Y98861429D01*
X9022319Y98861429D02*
X9069938Y98956667D01*
X9069938Y98956667D02*
X9117557Y99004286D01*
X9117557Y99004286D02*
X9212795Y99051905D01*
X9212795Y99051905D02*
X9308033Y99051905D01*
X9308033Y99051905D02*
X9403271Y99004286D01*
X9403271Y99004286D02*
X9450890Y98956667D01*
X9450890Y98956667D02*
X9498509Y98861429D01*
X9498509Y98861429D02*
X9498509Y98528096D01*
X67869819Y93718096D02*
X66869819Y93718096D01*
X67869819Y94289524D02*
X67298390Y93860953D01*
X66869819Y94289524D02*
X67441247Y93718096D01*
D11*
%TO.C,D53*%
X250190000Y19597500D02*
X250190000Y18947500D01*
X251310000Y14707500D02*
X251310000Y18947500D01*
X249070000Y14707500D02*
X251310000Y14707500D01*
X250190000Y14057500D02*
X250190000Y14707500D01*
X249070000Y15547500D02*
X251310000Y15547500D01*
X251310000Y18947500D02*
X249070000Y18947500D01*
X249070000Y15307500D02*
X251310000Y15307500D01*
X249070000Y15427500D02*
X251310000Y15427500D01*
X249070000Y18947500D02*
X249070000Y14707500D01*
%TO.C,D52*%
X223996250Y19597500D02*
X223996250Y18947500D01*
X225116250Y14707500D02*
X225116250Y18947500D01*
X222876250Y14707500D02*
X225116250Y14707500D01*
X223996250Y14057500D02*
X223996250Y14707500D01*
X222876250Y15547500D02*
X225116250Y15547500D01*
X225116250Y18947500D02*
X222876250Y18947500D01*
X222876250Y15307500D02*
X225116250Y15307500D01*
X222876250Y15427500D02*
X225116250Y15427500D01*
X222876250Y18947500D02*
X222876250Y14707500D01*
%TO.C,D51*%
X200183750Y19597500D02*
X200183750Y18947500D01*
X201303750Y14707500D02*
X201303750Y18947500D01*
X199063750Y14707500D02*
X201303750Y14707500D01*
X200183750Y14057500D02*
X200183750Y14707500D01*
X199063750Y15547500D02*
X201303750Y15547500D01*
X201303750Y18947500D02*
X199063750Y18947500D01*
X199063750Y15307500D02*
X201303750Y15307500D01*
X199063750Y15427500D02*
X201303750Y15427500D01*
X199063750Y18947500D02*
X199063750Y14707500D01*
%TO.C,D50*%
X178752500Y19597500D02*
X178752500Y18947500D01*
X179872500Y14707500D02*
X179872500Y18947500D01*
X177632500Y14707500D02*
X179872500Y14707500D01*
X178752500Y14057500D02*
X178752500Y14707500D01*
X177632500Y15547500D02*
X179872500Y15547500D01*
X179872500Y18947500D02*
X177632500Y18947500D01*
X177632500Y15307500D02*
X179872500Y15307500D01*
X177632500Y15427500D02*
X179872500Y15427500D01*
X177632500Y18947500D02*
X177632500Y14707500D01*
%TO.C,D49*%
X135890000Y19597500D02*
X135890000Y18947500D01*
X137010000Y14707500D02*
X137010000Y18947500D01*
X134770000Y14707500D02*
X137010000Y14707500D01*
X135890000Y14057500D02*
X135890000Y14707500D01*
X134770000Y15547500D02*
X137010000Y15547500D01*
X137010000Y18947500D02*
X134770000Y18947500D01*
X134770000Y15307500D02*
X137010000Y15307500D01*
X134770000Y15427500D02*
X137010000Y15427500D01*
X134770000Y18947500D02*
X134770000Y14707500D01*
%TO.C,D48*%
X81121250Y19597500D02*
X81121250Y18947500D01*
X82241250Y14707500D02*
X82241250Y18947500D01*
X80001250Y14707500D02*
X82241250Y14707500D01*
X81121250Y14057500D02*
X81121250Y14707500D01*
X80001250Y15547500D02*
X82241250Y15547500D01*
X82241250Y18947500D02*
X80001250Y18947500D01*
X80001250Y15307500D02*
X82241250Y15307500D01*
X80001250Y15427500D02*
X82241250Y15427500D01*
X80001250Y18947500D02*
X80001250Y14707500D01*
%TO.C,D47*%
X57308750Y19597500D02*
X57308750Y18947500D01*
X58428750Y14707500D02*
X58428750Y18947500D01*
X56188750Y14707500D02*
X58428750Y14707500D01*
X57308750Y14057500D02*
X57308750Y14707500D01*
X56188750Y15547500D02*
X58428750Y15547500D01*
X58428750Y18947500D02*
X56188750Y18947500D01*
X56188750Y15307500D02*
X58428750Y15307500D01*
X56188750Y15427500D02*
X58428750Y15427500D01*
X56188750Y18947500D02*
X56188750Y14707500D01*
%TO.C,D46*%
X31115000Y19597500D02*
X31115000Y18947500D01*
X32235000Y14707500D02*
X32235000Y18947500D01*
X29995000Y14707500D02*
X32235000Y14707500D01*
X31115000Y14057500D02*
X31115000Y14707500D01*
X29995000Y15547500D02*
X32235000Y15547500D01*
X32235000Y18947500D02*
X29995000Y18947500D01*
X29995000Y15307500D02*
X32235000Y15307500D01*
X29995000Y15427500D02*
X32235000Y15427500D01*
X29995000Y18947500D02*
X29995000Y14707500D01*
%TO.C,D45*%
X247808750Y38647500D02*
X247808750Y37997500D01*
X248928750Y33757500D02*
X248928750Y37997500D01*
X246688750Y33757500D02*
X248928750Y33757500D01*
X247808750Y33107500D02*
X247808750Y33757500D01*
X246688750Y34597500D02*
X248928750Y34597500D01*
X248928750Y37997500D02*
X246688750Y37997500D01*
X246688750Y34357500D02*
X248928750Y34357500D01*
X246688750Y34477500D02*
X248928750Y34477500D01*
X246688750Y37997500D02*
X246688750Y33757500D01*
%TO.C,D44*%
X221615000Y38647500D02*
X221615000Y37997500D01*
X222735000Y33757500D02*
X222735000Y37997500D01*
X220495000Y33757500D02*
X222735000Y33757500D01*
X221615000Y33107500D02*
X221615000Y33757500D01*
X220495000Y34597500D02*
X222735000Y34597500D01*
X222735000Y37997500D02*
X220495000Y37997500D01*
X220495000Y34357500D02*
X222735000Y34357500D01*
X220495000Y34477500D02*
X222735000Y34477500D01*
X220495000Y37997500D02*
X220495000Y33757500D01*
%TO.C,D43*%
X202565000Y38647500D02*
X202565000Y37997500D01*
X203685000Y33757500D02*
X203685000Y37997500D01*
X201445000Y33757500D02*
X203685000Y33757500D01*
X202565000Y33107500D02*
X202565000Y33757500D01*
X201445000Y34597500D02*
X203685000Y34597500D01*
X203685000Y37997500D02*
X201445000Y37997500D01*
X201445000Y34357500D02*
X203685000Y34357500D01*
X201445000Y34477500D02*
X203685000Y34477500D01*
X201445000Y37997500D02*
X201445000Y33757500D01*
%TO.C,D42*%
X183515000Y38647500D02*
X183515000Y37997500D01*
X184635000Y33757500D02*
X184635000Y37997500D01*
X182395000Y33757500D02*
X184635000Y33757500D01*
X183515000Y33107500D02*
X183515000Y33757500D01*
X182395000Y34597500D02*
X184635000Y34597500D01*
X184635000Y37997500D02*
X182395000Y37997500D01*
X182395000Y34357500D02*
X184635000Y34357500D01*
X182395000Y34477500D02*
X184635000Y34477500D01*
X182395000Y37997500D02*
X182395000Y33757500D01*
%TO.C,D41*%
X164465000Y38647500D02*
X164465000Y37997500D01*
X165585000Y33757500D02*
X165585000Y37997500D01*
X163345000Y33757500D02*
X165585000Y33757500D01*
X164465000Y33107500D02*
X164465000Y33757500D01*
X163345000Y34597500D02*
X165585000Y34597500D01*
X165585000Y37997500D02*
X163345000Y37997500D01*
X163345000Y34357500D02*
X165585000Y34357500D01*
X163345000Y34477500D02*
X165585000Y34477500D01*
X163345000Y37997500D02*
X163345000Y33757500D01*
%TO.C,D40*%
X144115000Y38647500D02*
X144115000Y37997500D01*
X145235000Y33757500D02*
X145235000Y37997500D01*
X142995000Y33757500D02*
X145235000Y33757500D01*
X144115000Y33107500D02*
X144115000Y33757500D01*
X142995000Y34597500D02*
X145235000Y34597500D01*
X145235000Y37997500D02*
X142995000Y37997500D01*
X142995000Y34357500D02*
X145235000Y34357500D01*
X142995000Y34477500D02*
X145235000Y34477500D01*
X142995000Y37997500D02*
X142995000Y33757500D01*
%TO.C,D39*%
X126365000Y38647500D02*
X126365000Y37997500D01*
X127485000Y33757500D02*
X127485000Y37997500D01*
X125245000Y33757500D02*
X127485000Y33757500D01*
X126365000Y33107500D02*
X126365000Y33757500D01*
X125245000Y34597500D02*
X127485000Y34597500D01*
X127485000Y37997500D02*
X125245000Y37997500D01*
X125245000Y34357500D02*
X127485000Y34357500D01*
X125245000Y34477500D02*
X127485000Y34477500D01*
X125245000Y37997500D02*
X125245000Y33757500D01*
%TO.C,D38*%
X107315000Y38647500D02*
X107315000Y37997500D01*
X108435000Y33757500D02*
X108435000Y37997500D01*
X106195000Y33757500D02*
X108435000Y33757500D01*
X107315000Y33107500D02*
X107315000Y33757500D01*
X106195000Y34597500D02*
X108435000Y34597500D01*
X108435000Y37997500D02*
X106195000Y37997500D01*
X106195000Y34357500D02*
X108435000Y34357500D01*
X106195000Y34477500D02*
X108435000Y34477500D01*
X106195000Y37997500D02*
X106195000Y33757500D01*
%TO.C,D37*%
X88265000Y38647500D02*
X88265000Y37997500D01*
X89385000Y33757500D02*
X89385000Y37997500D01*
X87145000Y33757500D02*
X89385000Y33757500D01*
X88265000Y33107500D02*
X88265000Y33757500D01*
X87145000Y34597500D02*
X89385000Y34597500D01*
X89385000Y37997500D02*
X87145000Y37997500D01*
X87145000Y34357500D02*
X89385000Y34357500D01*
X87145000Y34477500D02*
X89385000Y34477500D01*
X87145000Y37997500D02*
X87145000Y33757500D01*
%TO.C,D36*%
X69215000Y38647500D02*
X69215000Y37997500D01*
X70335000Y33757500D02*
X70335000Y37997500D01*
X68095000Y33757500D02*
X70335000Y33757500D01*
X69215000Y33107500D02*
X69215000Y33757500D01*
X68095000Y34597500D02*
X70335000Y34597500D01*
X70335000Y37997500D02*
X68095000Y37997500D01*
X68095000Y34357500D02*
X70335000Y34357500D01*
X68095000Y34477500D02*
X70335000Y34477500D01*
X68095000Y37997500D02*
X68095000Y33757500D01*
%TO.C,D35*%
X50165000Y38647500D02*
X50165000Y37997500D01*
X51285000Y33757500D02*
X51285000Y37997500D01*
X49045000Y33757500D02*
X51285000Y33757500D01*
X50165000Y33107500D02*
X50165000Y33757500D01*
X49045000Y34597500D02*
X51285000Y34597500D01*
X51285000Y37997500D02*
X49045000Y37997500D01*
X49045000Y34357500D02*
X51285000Y34357500D01*
X49045000Y34477500D02*
X51285000Y34477500D01*
X49045000Y37997500D02*
X49045000Y33757500D01*
%TO.C,D34*%
X252571250Y57697500D02*
X252571250Y57047500D01*
X253691250Y52807500D02*
X253691250Y57047500D01*
X251451250Y52807500D02*
X253691250Y52807500D01*
X252571250Y52157500D02*
X252571250Y52807500D01*
X251451250Y53647500D02*
X253691250Y53647500D01*
X253691250Y57047500D02*
X251451250Y57047500D01*
X251451250Y53407500D02*
X253691250Y53407500D01*
X251451250Y53527500D02*
X253691250Y53527500D01*
X251451250Y57047500D02*
X251451250Y52807500D01*
%TO.C,D33*%
X214860000Y45402500D02*
X214210000Y45402500D01*
X209970000Y44282500D02*
X214210000Y44282500D01*
X209970000Y46522500D02*
X209970000Y44282500D01*
X209320000Y45402500D02*
X209970000Y45402500D01*
X210810000Y46522500D02*
X210810000Y44282500D01*
X214210000Y44282500D02*
X214210000Y46522500D01*
X210570000Y46522500D02*
X210570000Y44282500D01*
X210690000Y46522500D02*
X210690000Y44282500D01*
X214210000Y46522500D02*
X209970000Y46522500D01*
%TO.C,D32*%
X212090000Y57697500D02*
X212090000Y57047500D01*
X213210000Y52807500D02*
X213210000Y57047500D01*
X210970000Y52807500D02*
X213210000Y52807500D01*
X212090000Y52157500D02*
X212090000Y52807500D01*
X210970000Y53647500D02*
X213210000Y53647500D01*
X213210000Y57047500D02*
X210970000Y57047500D01*
X210970000Y53407500D02*
X213210000Y53407500D01*
X210970000Y53527500D02*
X213210000Y53527500D01*
X210970000Y57047500D02*
X210970000Y52807500D01*
%TO.C,D31*%
X193040000Y57697500D02*
X193040000Y57047500D01*
X194160000Y52807500D02*
X194160000Y57047500D01*
X191920000Y52807500D02*
X194160000Y52807500D01*
X193040000Y52157500D02*
X193040000Y52807500D01*
X191920000Y53647500D02*
X194160000Y53647500D01*
X194160000Y57047500D02*
X191920000Y57047500D01*
X191920000Y53407500D02*
X194160000Y53407500D01*
X191920000Y53527500D02*
X194160000Y53527500D01*
X191920000Y57047500D02*
X191920000Y52807500D01*
%TO.C,D30*%
X173990000Y57697500D02*
X173990000Y57047500D01*
X175110000Y52807500D02*
X175110000Y57047500D01*
X172870000Y52807500D02*
X175110000Y52807500D01*
X173990000Y52157500D02*
X173990000Y52807500D01*
X172870000Y53647500D02*
X175110000Y53647500D01*
X175110000Y57047500D02*
X172870000Y57047500D01*
X172870000Y53407500D02*
X175110000Y53407500D01*
X172870000Y53527500D02*
X175110000Y53527500D01*
X172870000Y57047500D02*
X172870000Y52807500D01*
%TO.C,D29*%
X154940000Y57697500D02*
X154940000Y57047500D01*
X156060000Y52807500D02*
X156060000Y57047500D01*
X153820000Y52807500D02*
X156060000Y52807500D01*
X154940000Y52157500D02*
X154940000Y52807500D01*
X153820000Y53647500D02*
X156060000Y53647500D01*
X156060000Y57047500D02*
X153820000Y57047500D01*
X153820000Y53407500D02*
X156060000Y53407500D01*
X153820000Y53527500D02*
X156060000Y53527500D01*
X153820000Y57047500D02*
X153820000Y52807500D01*
%TO.C,D28*%
X135890000Y57697500D02*
X135890000Y57047500D01*
X137010000Y52807500D02*
X137010000Y57047500D01*
X134770000Y52807500D02*
X137010000Y52807500D01*
X135890000Y52157500D02*
X135890000Y52807500D01*
X134770000Y53647500D02*
X137010000Y53647500D01*
X137010000Y57047500D02*
X134770000Y57047500D01*
X134770000Y53407500D02*
X137010000Y53407500D01*
X134770000Y53527500D02*
X137010000Y53527500D01*
X134770000Y57047500D02*
X134770000Y52807500D01*
%TO.C,D27*%
X116840000Y57697500D02*
X116840000Y57047500D01*
X117960000Y52807500D02*
X117960000Y57047500D01*
X115720000Y52807500D02*
X117960000Y52807500D01*
X116840000Y52157500D02*
X116840000Y52807500D01*
X115720000Y53647500D02*
X117960000Y53647500D01*
X117960000Y57047500D02*
X115720000Y57047500D01*
X115720000Y53407500D02*
X117960000Y53407500D01*
X115720000Y53527500D02*
X117960000Y53527500D01*
X115720000Y57047500D02*
X115720000Y52807500D01*
%TO.C,D26*%
X97790000Y57697500D02*
X97790000Y57047500D01*
X98910000Y52807500D02*
X98910000Y57047500D01*
X96670000Y52807500D02*
X98910000Y52807500D01*
X97790000Y52157500D02*
X97790000Y52807500D01*
X96670000Y53647500D02*
X98910000Y53647500D01*
X98910000Y57047500D02*
X96670000Y57047500D01*
X96670000Y53407500D02*
X98910000Y53407500D01*
X96670000Y53527500D02*
X98910000Y53527500D01*
X96670000Y57047500D02*
X96670000Y52807500D01*
%TO.C,D25*%
X78740000Y57697500D02*
X78740000Y57047500D01*
X79860000Y52807500D02*
X79860000Y57047500D01*
X77620000Y52807500D02*
X79860000Y52807500D01*
X78740000Y52157500D02*
X78740000Y52807500D01*
X77620000Y53647500D02*
X79860000Y53647500D01*
X79860000Y57047500D02*
X77620000Y57047500D01*
X77620000Y53407500D02*
X79860000Y53407500D01*
X77620000Y53527500D02*
X79860000Y53527500D01*
X77620000Y57047500D02*
X77620000Y52807500D01*
%TO.C,D24*%
X59690000Y57697500D02*
X59690000Y57047500D01*
X60810000Y52807500D02*
X60810000Y57047500D01*
X58570000Y52807500D02*
X60810000Y52807500D01*
X59690000Y52157500D02*
X59690000Y52807500D01*
X58570000Y53647500D02*
X60810000Y53647500D01*
X60810000Y57047500D02*
X58570000Y57047500D01*
X58570000Y53407500D02*
X60810000Y53407500D01*
X58570000Y53527500D02*
X60810000Y53527500D01*
X58570000Y57047500D02*
X58570000Y52807500D01*
%TO.C,D23*%
X33496250Y57697500D02*
X33496250Y57047500D01*
X34616250Y52807500D02*
X34616250Y57047500D01*
X32376250Y52807500D02*
X34616250Y52807500D01*
X33496250Y52157500D02*
X33496250Y52807500D01*
X32376250Y53647500D02*
X34616250Y53647500D01*
X34616250Y57047500D02*
X32376250Y57047500D01*
X32376250Y53407500D02*
X34616250Y53407500D01*
X32376250Y53527500D02*
X34616250Y53527500D01*
X32376250Y57047500D02*
X32376250Y52807500D01*
%TO.C,D22*%
X250190000Y76747500D02*
X250190000Y76097500D01*
X251310000Y71857500D02*
X251310000Y76097500D01*
X249070000Y71857500D02*
X251310000Y71857500D01*
X250190000Y71207500D02*
X250190000Y71857500D01*
X249070000Y72697500D02*
X251310000Y72697500D01*
X251310000Y76097500D02*
X249070000Y76097500D01*
X249070000Y72457500D02*
X251310000Y72457500D01*
X249070000Y72577500D02*
X251310000Y72577500D01*
X249070000Y76097500D02*
X249070000Y71857500D01*
%TO.C,D21*%
X226377500Y76747500D02*
X226377500Y76097500D01*
X227497500Y71857500D02*
X227497500Y76097500D01*
X225257500Y71857500D02*
X227497500Y71857500D01*
X226377500Y71207500D02*
X226377500Y71857500D01*
X225257500Y72697500D02*
X227497500Y72697500D01*
X227497500Y76097500D02*
X225257500Y76097500D01*
X225257500Y72457500D02*
X227497500Y72457500D01*
X225257500Y72577500D02*
X227497500Y72577500D01*
X225257500Y76097500D02*
X225257500Y71857500D01*
%TO.C,D20*%
X207327500Y76747500D02*
X207327500Y76097500D01*
X208447500Y71857500D02*
X208447500Y76097500D01*
X206207500Y71857500D02*
X208447500Y71857500D01*
X207327500Y71207500D02*
X207327500Y71857500D01*
X206207500Y72697500D02*
X208447500Y72697500D01*
X208447500Y76097500D02*
X206207500Y76097500D01*
X206207500Y72457500D02*
X208447500Y72457500D01*
X206207500Y72577500D02*
X208447500Y72577500D01*
X206207500Y76097500D02*
X206207500Y71857500D01*
%TO.C,D19*%
X188277500Y76747500D02*
X188277500Y76097500D01*
X189397500Y71857500D02*
X189397500Y76097500D01*
X187157500Y71857500D02*
X189397500Y71857500D01*
X188277500Y71207500D02*
X188277500Y71857500D01*
X187157500Y72697500D02*
X189397500Y72697500D01*
X189397500Y76097500D02*
X187157500Y76097500D01*
X187157500Y72457500D02*
X189397500Y72457500D01*
X187157500Y72577500D02*
X189397500Y72577500D01*
X187157500Y76097500D02*
X187157500Y71857500D01*
%TO.C,D18*%
X169227500Y76747500D02*
X169227500Y76097500D01*
X170347500Y71857500D02*
X170347500Y76097500D01*
X168107500Y71857500D02*
X170347500Y71857500D01*
X169227500Y71207500D02*
X169227500Y71857500D01*
X168107500Y72697500D02*
X170347500Y72697500D01*
X170347500Y76097500D02*
X168107500Y76097500D01*
X168107500Y72457500D02*
X170347500Y72457500D01*
X168107500Y72577500D02*
X170347500Y72577500D01*
X168107500Y76097500D02*
X168107500Y71857500D01*
%TO.C,D17*%
X150177500Y76747500D02*
X150177500Y76097500D01*
X151297500Y71857500D02*
X151297500Y76097500D01*
X149057500Y71857500D02*
X151297500Y71857500D01*
X150177500Y71207500D02*
X150177500Y71857500D01*
X149057500Y72697500D02*
X151297500Y72697500D01*
X151297500Y76097500D02*
X149057500Y76097500D01*
X149057500Y72457500D02*
X151297500Y72457500D01*
X149057500Y72577500D02*
X151297500Y72577500D01*
X149057500Y76097500D02*
X149057500Y71857500D01*
%TO.C,D16*%
X131127500Y76747500D02*
X131127500Y76097500D01*
X132247500Y71857500D02*
X132247500Y76097500D01*
X130007500Y71857500D02*
X132247500Y71857500D01*
X131127500Y71207500D02*
X131127500Y71857500D01*
X130007500Y72697500D02*
X132247500Y72697500D01*
X132247500Y76097500D02*
X130007500Y76097500D01*
X130007500Y72457500D02*
X132247500Y72457500D01*
X130007500Y72577500D02*
X132247500Y72577500D01*
X130007500Y76097500D02*
X130007500Y71857500D01*
%TO.C,D15*%
X112077500Y76747500D02*
X112077500Y76097500D01*
X113197500Y71857500D02*
X113197500Y76097500D01*
X110957500Y71857500D02*
X113197500Y71857500D01*
X112077500Y71207500D02*
X112077500Y71857500D01*
X110957500Y72697500D02*
X113197500Y72697500D01*
X113197500Y76097500D02*
X110957500Y76097500D01*
X110957500Y72457500D02*
X113197500Y72457500D01*
X110957500Y72577500D02*
X113197500Y72577500D01*
X110957500Y76097500D02*
X110957500Y71857500D01*
%TO.C,D14*%
X93027500Y76747500D02*
X93027500Y76097500D01*
X94147500Y71857500D02*
X94147500Y76097500D01*
X91907500Y71857500D02*
X94147500Y71857500D01*
X93027500Y71207500D02*
X93027500Y71857500D01*
X91907500Y72697500D02*
X94147500Y72697500D01*
X94147500Y76097500D02*
X91907500Y76097500D01*
X91907500Y72457500D02*
X94147500Y72457500D01*
X91907500Y72577500D02*
X94147500Y72577500D01*
X91907500Y76097500D02*
X91907500Y71857500D01*
%TO.C,D13*%
X73977500Y76747500D02*
X73977500Y76097500D01*
X75097500Y71857500D02*
X75097500Y76097500D01*
X72857500Y71857500D02*
X75097500Y71857500D01*
X73977500Y71207500D02*
X73977500Y71857500D01*
X72857500Y72697500D02*
X75097500Y72697500D01*
X75097500Y76097500D02*
X72857500Y76097500D01*
X72857500Y72457500D02*
X75097500Y72457500D01*
X72857500Y72577500D02*
X75097500Y72577500D01*
X72857500Y76097500D02*
X72857500Y71857500D01*
%TO.C,D12*%
X54927500Y76747500D02*
X54927500Y76097500D01*
X56047500Y71857500D02*
X56047500Y76097500D01*
X53807500Y71857500D02*
X56047500Y71857500D01*
X54927500Y71207500D02*
X54927500Y71857500D01*
X53807500Y72697500D02*
X56047500Y72697500D01*
X56047500Y76097500D02*
X53807500Y76097500D01*
X53807500Y72457500D02*
X56047500Y72457500D01*
X53807500Y72577500D02*
X56047500Y72577500D01*
X53807500Y76097500D02*
X53807500Y71857500D01*
%TO.C,D11*%
X31115000Y76747500D02*
X31115000Y76097500D01*
X32235000Y71857500D02*
X32235000Y76097500D01*
X29995000Y71857500D02*
X32235000Y71857500D01*
X31115000Y71207500D02*
X31115000Y71857500D01*
X29995000Y72697500D02*
X32235000Y72697500D01*
X32235000Y76097500D02*
X29995000Y76097500D01*
X29995000Y72457500D02*
X32235000Y72457500D01*
X29995000Y72577500D02*
X32235000Y72577500D01*
X29995000Y76097500D02*
X29995000Y71857500D01*
%TO.C,D10*%
X235902500Y100560000D02*
X235902500Y99910000D01*
X237022500Y95670000D02*
X237022500Y99910000D01*
X234782500Y95670000D02*
X237022500Y95670000D01*
X235902500Y95020000D02*
X235902500Y95670000D01*
X234782500Y96510000D02*
X237022500Y96510000D01*
X237022500Y99910000D02*
X234782500Y99910000D01*
X234782500Y96270000D02*
X237022500Y96270000D01*
X234782500Y96390000D02*
X237022500Y96390000D01*
X234782500Y99910000D02*
X234782500Y95670000D01*
%TO.C,D9*%
X231140000Y100560000D02*
X231140000Y99910000D01*
X232260000Y95670000D02*
X232260000Y99910000D01*
X230020000Y95670000D02*
X232260000Y95670000D01*
X231140000Y95020000D02*
X231140000Y95670000D01*
X230020000Y96510000D02*
X232260000Y96510000D01*
X232260000Y99910000D02*
X230020000Y99910000D01*
X230020000Y96270000D02*
X232260000Y96270000D01*
X230020000Y96390000D02*
X232260000Y96390000D01*
X230020000Y99910000D02*
X230020000Y95670000D01*
%TO.C,D8*%
X212090000Y100560000D02*
X212090000Y99910000D01*
X213210000Y95670000D02*
X213210000Y99910000D01*
X210970000Y95670000D02*
X213210000Y95670000D01*
X212090000Y95020000D02*
X212090000Y95670000D01*
X210970000Y96510000D02*
X213210000Y96510000D01*
X213210000Y99910000D02*
X210970000Y99910000D01*
X210970000Y96270000D02*
X213210000Y96270000D01*
X210970000Y96390000D02*
X213210000Y96390000D01*
X210970000Y99910000D02*
X210970000Y95670000D01*
%TO.C,D7*%
X193040000Y100560000D02*
X193040000Y99910000D01*
X194160000Y95670000D02*
X194160000Y99910000D01*
X191920000Y95670000D02*
X194160000Y95670000D01*
X193040000Y95020000D02*
X193040000Y95670000D01*
X191920000Y96510000D02*
X194160000Y96510000D01*
X194160000Y99910000D02*
X191920000Y99910000D01*
X191920000Y96270000D02*
X194160000Y96270000D01*
X191920000Y96390000D02*
X194160000Y96390000D01*
X191920000Y99910000D02*
X191920000Y95670000D01*
%TO.C,D6*%
X173990000Y100560000D02*
X173990000Y99910000D01*
X175110000Y95670000D02*
X175110000Y99910000D01*
X172870000Y95670000D02*
X175110000Y95670000D01*
X173990000Y95020000D02*
X173990000Y95670000D01*
X172870000Y96510000D02*
X175110000Y96510000D01*
X175110000Y99910000D02*
X172870000Y99910000D01*
X172870000Y96270000D02*
X175110000Y96270000D01*
X172870000Y96390000D02*
X175110000Y96390000D01*
X172870000Y99910000D02*
X172870000Y95670000D01*
%TO.C,D5*%
X150177500Y100560000D02*
X150177500Y99910000D01*
X151297500Y95670000D02*
X151297500Y99910000D01*
X149057500Y95670000D02*
X151297500Y95670000D01*
X150177500Y95020000D02*
X150177500Y95670000D01*
X149057500Y96510000D02*
X151297500Y96510000D01*
X151297500Y99910000D02*
X149057500Y99910000D01*
X149057500Y96270000D02*
X151297500Y96270000D01*
X149057500Y96390000D02*
X151297500Y96390000D01*
X149057500Y99910000D02*
X149057500Y95670000D01*
%TO.C,D4*%
X131127500Y100560000D02*
X131127500Y99910000D01*
X132247500Y95670000D02*
X132247500Y99910000D01*
X130007500Y95670000D02*
X132247500Y95670000D01*
X131127500Y95020000D02*
X131127500Y95670000D01*
X130007500Y96510000D02*
X132247500Y96510000D01*
X132247500Y99910000D02*
X130007500Y99910000D01*
X130007500Y96270000D02*
X132247500Y96270000D01*
X130007500Y96390000D02*
X132247500Y96390000D01*
X130007500Y99910000D02*
X130007500Y95670000D01*
%TO.C,D3*%
X112077500Y100560000D02*
X112077500Y99910000D01*
X113197500Y95670000D02*
X113197500Y99910000D01*
X110957500Y95670000D02*
X113197500Y95670000D01*
X112077500Y95020000D02*
X112077500Y95670000D01*
X110957500Y96510000D02*
X113197500Y96510000D01*
X113197500Y99910000D02*
X110957500Y99910000D01*
X110957500Y96270000D02*
X113197500Y96270000D01*
X110957500Y96390000D02*
X113197500Y96390000D01*
X110957500Y99910000D02*
X110957500Y95670000D01*
%TO.C,D2*%
X93027500Y100560000D02*
X93027500Y99910000D01*
X94147500Y95670000D02*
X94147500Y99910000D01*
X91907500Y95670000D02*
X94147500Y95670000D01*
X93027500Y95020000D02*
X93027500Y95670000D01*
X91907500Y96510000D02*
X94147500Y96510000D01*
X94147500Y99910000D02*
X91907500Y99910000D01*
X91907500Y96270000D02*
X94147500Y96270000D01*
X91907500Y96390000D02*
X94147500Y96390000D01*
X91907500Y99910000D02*
X91907500Y95670000D01*
D10*
%TO.C,U1*%
X8572500Y88900000D02*
X41592500Y88900000D01*
X41592500Y88900000D02*
X41592500Y106680000D01*
X41592500Y106680000D02*
X8572500Y106680000D01*
X8572500Y106680000D02*
X8572500Y88900000D01*
X12152500Y101340000D02*
X8572500Y101340000D01*
X12152500Y101340000D02*
X12152500Y94240000D01*
X12152500Y94240000D02*
X8572500Y94240000D01*
D11*
%TO.C,D1*%
X69215000Y100560000D02*
X69215000Y99910000D01*
X70335000Y95670000D02*
X70335000Y99910000D01*
X68095000Y95670000D02*
X70335000Y95670000D01*
X69215000Y95020000D02*
X69215000Y95670000D01*
X68095000Y96510000D02*
X70335000Y96510000D01*
X70335000Y99910000D02*
X68095000Y99910000D01*
X68095000Y96270000D02*
X70335000Y96270000D01*
X68095000Y96390000D02*
X70335000Y96390000D01*
X68095000Y99910000D02*
X68095000Y95670000D01*
%TD*%
M02*
