M48
; DRILL file {KiCad 7.0.8+dfsg-1} date ven. 03 nov. 2023 17:24:58
; FORMAT={-:-/ absolute / metric / decimal}
; #@! TF.CreationDate,2023-11-03T17:24:58+01:00
; #@! TF.GenerationSoftware,Kicad,Pcbnew,7.0.8+dfsg-1
; #@! TF.FileFunction,Plated,1,2,PTH
FMAT,2
METRIC
; #@! TA.AperFunction,Plated,PTH,ComponentDrill
T1C0.800
; #@! TA.AperFunction,Plated,PTH,ComponentDrill
T2C1.000
; #@! TA.AperFunction,Plated,PTH,ComponentDrill
T3C1.524
%
G90
G05
T1
X31.115Y77.787
X31.115Y70.167
X31.115Y20.637
X31.115Y13.018
X33.496Y58.737
X33.496Y51.117
X50.165Y39.688
X50.165Y32.067
X54.927Y77.787
X54.927Y70.167
X57.309Y20.637
X57.309Y13.018
X59.69Y58.737
X59.69Y51.117
X69.215Y101.6
X69.215Y93.98
X69.215Y39.688
X69.215Y32.067
X73.977Y77.787
X73.977Y70.167
X78.74Y58.737
X78.74Y51.117
X81.121Y20.637
X81.121Y13.018
X88.265Y39.688
X88.265Y32.067
X93.027Y101.6
X93.027Y93.98
X93.027Y77.787
X93.027Y70.167
X97.79Y58.737
X97.79Y51.117
X107.315Y39.688
X107.315Y32.067
X112.078Y101.6
X112.078Y93.98
X112.078Y77.787
X112.078Y70.167
X116.84Y58.737
X116.84Y51.117
X126.365Y39.688
X126.365Y32.067
X131.127Y101.6
X131.127Y93.98
X131.127Y77.787
X131.127Y70.167
X135.89Y58.737
X135.89Y51.117
X135.89Y20.637
X135.89Y13.018
X144.115Y39.688
X144.115Y32.067
X150.177Y101.6
X150.177Y93.98
X150.177Y77.787
X150.177Y70.167
X154.94Y58.737
X154.94Y51.117
X164.465Y39.688
X164.465Y32.067
X169.227Y77.787
X169.227Y70.167
X173.99Y101.6
X173.99Y93.98
X173.99Y58.737
X173.99Y51.117
X178.752Y20.637
X178.752Y13.018
X183.515Y39.688
X183.515Y32.067
X188.278Y77.787
X188.278Y70.167
X193.04Y101.6
X193.04Y93.98
X193.04Y58.737
X193.04Y51.117
X200.184Y20.637
X200.184Y13.018
X202.565Y39.688
X202.565Y32.067
X207.327Y77.787
X207.327Y70.167
X208.28Y45.402
X212.09Y101.6
X212.09Y93.98
X212.09Y58.737
X212.09Y51.117
X215.9Y45.402
X221.615Y39.688
X221.615Y32.067
X223.996Y20.637
X223.996Y13.018
X226.377Y77.787
X226.377Y70.167
X231.14Y101.6
X231.14Y93.98
X235.903Y101.6
X235.903Y93.98
X247.809Y39.688
X247.809Y32.067
X250.19Y77.787
X250.19Y70.167
X250.19Y20.637
X250.19Y13.018
X252.571Y58.737
X252.571Y51.117
T2
X12.383Y105.41
X12.383Y90.17
X14.922Y105.41
X14.922Y90.17
X17.462Y105.41
X17.462Y90.17
X20.002Y105.41
X20.002Y90.17
X22.543Y105.41
X22.543Y90.17
X25.082Y105.41
X25.082Y90.17
X27.622Y105.41
X27.622Y90.17
X30.162Y105.41
X30.162Y90.17
X32.703Y105.41
X32.703Y90.17
X35.242Y105.41
X35.242Y90.17
X37.782Y105.41
X37.782Y90.17
X40.322Y105.41
X40.322Y90.17
T3
X17.78Y76.517
X17.78Y19.367
X19.09Y77.977
X19.09Y20.828
X20.161Y57.467
X21.471Y58.927
X24.09Y78.477
X24.09Y21.328
X24.13Y79.057
X24.13Y21.907
X24.924Y38.417
X26.234Y39.877
X26.471Y59.427
X26.511Y60.008
X31.234Y40.377
X31.274Y40.957
X41.593Y76.517
X42.902Y77.977
X43.974Y19.367
X45.284Y20.828
X46.355Y57.467
X47.665Y58.927
X47.902Y78.477
X47.942Y79.057
X50.284Y21.328
X50.324Y21.907
X52.665Y59.427
X52.705Y60.008
X55.88Y100.33
X55.88Y38.417
X57.19Y101.79
X57.19Y39.877
X60.642Y76.517
X61.953Y77.977
X62.19Y102.29
X62.19Y40.377
X62.23Y102.87
X62.23Y40.957
X65.405Y57.467
X66.715Y58.927
X66.953Y78.477
X66.992Y79.057
X67.828Y19.367
X69.138Y20.828
X71.715Y59.427
X71.755Y60.008
X74.138Y21.328
X74.177Y21.907
X74.93Y38.417
X76.24Y39.877
X79.692Y100.33
X79.692Y76.517
X81.002Y101.79
X81.002Y77.977
X81.24Y40.377
X81.28Y40.957
X84.455Y57.467
X85.765Y58.927
X86.002Y102.29
X86.002Y78.477
X86.042Y102.87
X86.042Y79.057
X90.765Y59.427
X90.805Y60.008
X93.98Y38.417
X95.29Y39.877
X98.742Y100.33
X98.742Y76.517
X100.052Y101.79
X100.052Y77.977
X100.29Y40.377
X100.33Y40.957
X103.505Y57.467
X104.815Y58.927
X105.052Y102.29
X105.052Y78.477
X105.093Y102.87
X105.093Y79.057
X105.886Y19.367
X107.196Y20.828
X109.815Y59.427
X109.855Y60.008
X112.196Y21.328
X112.236Y21.907
X113.03Y38.417
X114.34Y39.877
X117.792Y100.33
X117.792Y76.517
X119.102Y101.79
X119.102Y77.977
X119.34Y40.377
X119.38Y40.957
X122.555Y57.467
X123.865Y58.927
X124.102Y102.29
X124.102Y78.477
X124.142Y102.87
X124.142Y79.057
X128.865Y59.427
X128.905Y60.008
X132.08Y38.417
X133.39Y39.877
X136.843Y100.33
X136.843Y76.517
X138.153Y101.79
X138.153Y77.977
X138.39Y40.377
X138.43Y40.957
X141.605Y57.467
X142.915Y58.927
X143.153Y102.29
X143.153Y78.477
X143.192Y102.87
X143.192Y79.057
X147.915Y59.427
X147.955Y60.008
X151.13Y38.417
X152.44Y39.877
X153.511Y19.367
X154.821Y20.828
X155.892Y76.517
X157.202Y77.977
X157.44Y40.377
X157.48Y40.957
X159.821Y21.328
X159.861Y21.907
X160.655Y100.33
X160.655Y57.467
X161.965Y101.79
X161.965Y58.927
X162.202Y78.477
X162.243Y79.057
X166.965Y102.29
X166.965Y59.427
X167.005Y102.87
X167.005Y60.008
X170.18Y38.417
X171.49Y39.877
X174.942Y76.517
X176.252Y77.977
X176.49Y40.377
X176.53Y40.957
X179.705Y100.33
X179.705Y57.467
X181.015Y101.79
X181.015Y58.927
X181.252Y78.477
X181.292Y79.057
X186.015Y102.29
X186.015Y59.427
X186.055Y102.87
X186.055Y60.008
X186.849Y19.367
X188.159Y20.828
X189.23Y38.417
X190.54Y39.877
X193.159Y21.328
X193.199Y21.907
X193.992Y76.517
X195.302Y77.977
X195.54Y40.377
X195.58Y40.957
X198.755Y100.33
X198.755Y57.467
X200.065Y101.79
X200.065Y58.927
X200.302Y78.477
X200.343Y79.057
X205.065Y102.29
X205.065Y59.427
X205.105Y102.87
X205.105Y60.008
X208.28Y38.417
X209.59Y39.877
X210.661Y19.367
X211.971Y20.828
X213.042Y76.517
X214.352Y77.977
X214.59Y40.377
X214.63Y40.957
X216.971Y21.328
X217.011Y21.907
X217.805Y100.33
X217.805Y57.467
X219.115Y101.79
X219.115Y58.927
X219.352Y78.477
X219.392Y79.057
X224.115Y102.29
X224.115Y59.427
X224.155Y102.87
X224.155Y60.008
X229.711Y57.467
X231.021Y58.927
X234.474Y38.417
X235.784Y39.877
X236.021Y59.427
X236.061Y60.008
X236.855Y76.517
X236.855Y19.367
X238.165Y77.977
X238.165Y20.828
X239.236Y57.467
X240.546Y58.927
X240.784Y40.377
X240.824Y40.957
X241.617Y100.33
X242.927Y101.79
X243.165Y78.477
X243.165Y21.328
X243.205Y79.057
X243.205Y21.907
X245.546Y59.427
X245.586Y60.008
X247.927Y102.29
X247.968Y102.87
T0
M30
