M48
; DRILL file {KiCad 7.0.8+dfsg-1} date ven. 03 nov. 2023 17:24:58
; FORMAT={-:-/ absolute / metric / decimal}
; #@! TF.CreationDate,2023-11-03T17:24:58+01:00
; #@! TF.GenerationSoftware,Kicad,Pcbnew,7.0.8+dfsg-1
; #@! TF.FileFunction,NonPlated,1,2,NPTH
FMAT,2
METRIC
; #@! TA.AperFunction,NonPlated,NPTH,ComponentDrill
T1C1.702
; #@! TA.AperFunction,NonPlated,NPTH,ComponentDrill
T2C2.200
; #@! TA.AperFunction,NonPlated,NPTH,ComponentDrill
T3C3.048
; #@! TA.AperFunction,NonPlated,NPTH,ComponentDrill
T4C3.988
%
G90
G05
T1
X16.51Y73.977
X16.51Y16.828
X18.891Y54.927
X23.654Y35.877
X26.67Y73.977
X26.67Y16.828
X29.051Y54.927
X33.814Y35.877
X40.322Y73.977
X42.704Y16.828
X45.085Y54.927
X50.482Y73.977
X52.864Y16.828
X54.61Y97.79
X54.61Y35.877
X55.245Y54.927
X59.372Y73.977
X64.135Y54.927
X64.77Y97.79
X64.77Y35.877
X66.557Y16.828
X69.532Y73.977
X73.66Y35.877
X74.295Y54.927
X76.718Y16.828
X78.422Y97.79
X78.422Y73.977
X83.185Y54.927
X83.82Y35.877
X88.582Y97.79
X88.582Y73.977
X92.71Y35.877
X93.345Y54.927
X97.472Y97.79
X97.472Y73.977
X102.235Y54.927
X102.87Y35.877
X104.616Y16.828
X107.632Y97.79
X107.632Y73.977
X111.76Y35.877
X112.395Y54.927
X114.776Y16.828
X116.522Y97.79
X116.522Y73.977
X121.285Y54.927
X121.92Y35.877
X126.682Y97.79
X126.682Y73.977
X130.81Y35.877
X131.445Y54.927
X135.572Y97.79
X135.572Y73.977
X140.335Y54.927
X140.97Y35.877
X145.732Y97.79
X145.732Y73.977
X149.86Y35.877
X150.495Y54.927
X152.241Y16.828
X154.623Y73.977
X159.385Y97.79
X159.385Y54.927
X160.02Y35.877
X162.401Y16.828
X164.782Y73.977
X168.91Y35.877
X169.545Y97.79
X169.545Y54.927
X173.672Y73.977
X178.435Y97.79
X178.435Y54.927
X179.07Y35.877
X183.832Y73.977
X185.579Y16.828
X187.96Y35.877
X188.595Y97.79
X188.595Y54.927
X192.722Y73.977
X195.739Y16.828
X197.485Y97.79
X197.485Y54.927
X198.12Y35.877
X202.882Y73.977
X207.01Y35.877
X207.645Y97.79
X207.645Y54.927
X209.391Y16.828
X211.772Y73.977
X216.535Y97.79
X216.535Y54.927
X217.17Y35.877
X219.551Y16.828
X221.932Y73.977
X226.695Y97.79
X226.695Y54.927
X228.441Y54.927
X233.204Y35.877
X235.585Y73.977
X235.585Y16.828
X237.966Y54.927
X238.601Y54.927
X240.347Y97.79
X243.364Y35.877
X245.745Y73.977
X245.745Y16.828
X248.126Y54.927
X250.507Y97.79
T2
X4.921Y109.696
X4.921Y4.921
X257.334Y109.696
X257.334Y4.921
T3
X16.796Y28.892
X40.672Y28.892
X97.758Y9.842
X121.634Y9.842
X145.383Y9.842
X169.259Y9.842
X221.583Y47.942
X245.459Y47.942
T4
X16.796Y44.133
X21.59Y73.977
X21.59Y16.828
X23.971Y54.927
X28.734Y35.877
X40.672Y44.133
X45.402Y73.977
X47.784Y16.828
X50.165Y54.927
X59.69Y97.79
X59.69Y35.877
X64.453Y73.977
X69.215Y54.927
X71.638Y16.828
X78.74Y35.877
X83.502Y97.79
X83.502Y73.977
X88.265Y54.927
X97.758Y25.082
X97.79Y35.877
X102.552Y97.79
X102.552Y73.977
X107.315Y54.927
X109.696Y16.828
X116.84Y35.877
X121.602Y97.79
X121.602Y73.977
X121.634Y25.082
X126.365Y54.927
X135.89Y35.877
X140.653Y97.79
X140.653Y73.977
X145.383Y25.082
X145.415Y54.927
X154.94Y35.877
X157.321Y16.828
X159.702Y73.977
X164.465Y97.79
X164.465Y54.927
X169.259Y25.082
X173.99Y35.877
X178.752Y73.977
X183.515Y97.79
X183.515Y54.927
X190.659Y16.828
X193.04Y35.877
X197.802Y73.977
X202.565Y97.79
X202.565Y54.927
X212.09Y35.877
X214.471Y16.828
X216.852Y73.977
X221.583Y63.182
X221.615Y97.79
X221.615Y54.927
X233.521Y54.927
X238.284Y35.877
X240.665Y73.977
X240.665Y16.828
X243.046Y54.927
X245.427Y97.79
X245.459Y63.182
T0
M30
