%TF.GenerationSoftware,KiCad,Pcbnew,7.0.8+dfsg-1*%
%TF.CreationDate,2023-11-03T17:26:11+01:00*%
%TF.ProjectId,plopplop-rounded,706c6f70-706c-46f7-902d-726f756e6465,rev?*%
%TF.SameCoordinates,PXfbec30PY8198450*%
%TF.FileFunction,Soldermask,Bot*%
%TF.FilePolarity,Negative*%
%FSLAX46Y46*%
G04 Gerber Fmt 4.6, Leading zero omitted, Abs format (unit mm)*
G04 Created by KiCad (PCBNEW 7.0.8+dfsg-1) date 2023-11-03 17:26:11*
%MOMM*%
%LPD*%
G01*
G04 APERTURE LIST*
G04 Aperture macros list*
%AMRoundRect*
0 Rectangle with rounded corners*
0 $1 Rounding radius*
0 $2 $3 $4 $5 $6 $7 $8 $9 X,Y pos of 4 corners*
0 Add a 4 corners polygon primitive as box body*
4,1,4,$2,$3,$4,$5,$6,$7,$8,$9,$2,$3,0*
0 Add four circle primitives for the rounded corners*
1,1,$1+$1,$2,$3*
1,1,$1+$1,$4,$5*
1,1,$1+$1,$6,$7*
1,1,$1+$1,$8,$9*
0 Add four rect primitives between the rounded corners*
20,1,$1+$1,$2,$3,$4,$5,0*
20,1,$1+$1,$4,$5,$6,$7,0*
20,1,$1+$1,$6,$7,$8,$9,0*
20,1,$1+$1,$8,$9,$2,$3,0*%
%AMHorizOval*
0 Thick line with rounded ends*
0 $1 width*
0 $2 $3 position (X,Y) of the first rounded end (center of the circle)*
0 $4 $5 position (X,Y) of the second rounded end (center of the circle)*
0 Add line between two ends*
20,1,$1,$2,$3,$4,$5,0*
0 Add two circle primitives to create the rounded ends*
1,1,$1,$2,$3*
1,1,$1,$4,$5*%
G04 Aperture macros list end*
%ADD10C,3.987800*%
%ADD11C,3.048000*%
%ADD12C,2.300000*%
%ADD13HorizOval,2.300000X0.020004X0.290000X-0.020004X-0.290000X0*%
%ADD14HorizOval,2.300000X0.655008X0.729993X-0.655008X-0.729993X0*%
%ADD15C,1.701800*%
%ADD16C,2.200000*%
%ADD17O,1.600000X1.600000*%
%ADD18R,1.600000X1.600000*%
%ADD19C,1.800000*%
%ADD20RoundRect,0.450000X0.450000X-0.450000X0.450000X0.450000X-0.450000X0.450000X-0.450000X-0.450000X0*%
G04 APERTURE END LIST*
D10*
%TO.C,MX34-1*%
X245459250Y63182500D03*
X221583250Y63182500D03*
D11*
X245459250Y47942500D03*
X221583250Y47942500D03*
D12*
X236061250Y60007500D03*
D13*
X236041254Y59717500D03*
D14*
X230366258Y58197493D03*
D12*
X231021250Y58927500D03*
D15*
X238601250Y54927500D03*
X228441250Y54927500D03*
D10*
X233521250Y54927500D03*
%TD*%
D16*
%TO.C,REF\u002A\u002A*%
X257333750Y4921250D03*
%TD*%
%TO.C,REF\u002A\u002A*%
X4921250Y4921250D03*
%TD*%
%TO.C,REF\u002A\u002A*%
X257333750Y109696250D03*
%TD*%
%TO.C,REF\u002A\u002A*%
X4921250Y109696250D03*
%TD*%
D12*
%TO.C,MX53*%
X243205000Y21907500D03*
D13*
X243185004Y21617500D03*
D14*
X237510008Y20097493D03*
D12*
X238165000Y20827500D03*
D15*
X245745000Y16827500D03*
X235585000Y16827500D03*
D10*
X240665000Y16827500D03*
%TD*%
D12*
%TO.C,MX52*%
X217011250Y21907500D03*
D13*
X216991254Y21617500D03*
D14*
X211316258Y20097493D03*
D12*
X211971250Y20827500D03*
D15*
X219551250Y16827500D03*
X209391250Y16827500D03*
D10*
X214471250Y16827500D03*
%TD*%
D12*
%TO.C,MX51*%
X193198750Y21907500D03*
D13*
X193178754Y21617500D03*
D14*
X187503758Y20097493D03*
D12*
X188158750Y20827500D03*
D15*
X195738750Y16827500D03*
X185578750Y16827500D03*
D10*
X190658750Y16827500D03*
%TD*%
%TO.C,MX50*%
X169259250Y25082500D03*
X145383250Y25082500D03*
D11*
X169259250Y9842500D03*
X145383250Y9842500D03*
D12*
X159861250Y21907500D03*
D13*
X159841254Y21617500D03*
D14*
X154166258Y20097493D03*
D12*
X154821250Y20827500D03*
D15*
X162401250Y16827500D03*
X152241250Y16827500D03*
D10*
X157321250Y16827500D03*
%TD*%
%TO.C,MX49*%
X121634250Y25082500D03*
X97758250Y25082500D03*
D11*
X121634250Y9842500D03*
X97758250Y9842500D03*
D12*
X112236250Y21907500D03*
D13*
X112216254Y21617500D03*
D14*
X106541258Y20097493D03*
D12*
X107196250Y20827500D03*
D15*
X114776250Y16827500D03*
X104616250Y16827500D03*
D10*
X109696250Y16827500D03*
%TD*%
D12*
%TO.C,MX48*%
X74177500Y21907500D03*
D13*
X74157504Y21617500D03*
D14*
X68482508Y20097493D03*
D12*
X69137500Y20827500D03*
D15*
X76717500Y16827500D03*
X66557500Y16827500D03*
D10*
X71637500Y16827500D03*
%TD*%
D12*
%TO.C,MX47*%
X50323750Y21907500D03*
D13*
X50303754Y21617500D03*
D14*
X44628758Y20097493D03*
D12*
X45283750Y20827500D03*
D15*
X52863750Y16827500D03*
X42703750Y16827500D03*
D10*
X47783750Y16827500D03*
%TD*%
D12*
%TO.C,MX46*%
X24130000Y21907500D03*
D13*
X24110004Y21617500D03*
D14*
X18435008Y20097493D03*
D12*
X19090000Y20827500D03*
D15*
X26670000Y16827500D03*
X16510000Y16827500D03*
D10*
X21590000Y16827500D03*
%TD*%
D17*
%TO.C,D53*%
X250190000Y20637500D03*
D18*
X250190000Y13017500D03*
%TD*%
D17*
%TO.C,D52*%
X223996250Y20637500D03*
D18*
X223996250Y13017500D03*
%TD*%
D17*
%TO.C,D51*%
X200183750Y20637500D03*
D18*
X200183750Y13017500D03*
%TD*%
D17*
%TO.C,D50*%
X178752500Y20637500D03*
D18*
X178752500Y13017500D03*
%TD*%
D17*
%TO.C,D49*%
X135890000Y20637500D03*
D18*
X135890000Y13017500D03*
%TD*%
D17*
%TO.C,D48*%
X81121250Y20637500D03*
D18*
X81121250Y13017500D03*
%TD*%
D17*
%TO.C,D47*%
X57308750Y20637500D03*
D18*
X57308750Y13017500D03*
%TD*%
D17*
%TO.C,D46*%
X31115000Y20637500D03*
D18*
X31115000Y13017500D03*
%TD*%
D12*
%TO.C,MX45*%
X240823750Y40957500D03*
D13*
X240803754Y40667500D03*
D14*
X235128758Y39147493D03*
D12*
X235783750Y39877500D03*
D15*
X243363750Y35877500D03*
X233203750Y35877500D03*
D10*
X238283750Y35877500D03*
%TD*%
D12*
%TO.C,MX44*%
X214630000Y40957500D03*
D13*
X214610004Y40667500D03*
D14*
X208935008Y39147493D03*
D12*
X209590000Y39877500D03*
D15*
X217170000Y35877500D03*
X207010000Y35877500D03*
D10*
X212090000Y35877500D03*
%TD*%
D12*
%TO.C,MX43*%
X195580000Y40957500D03*
D13*
X195560004Y40667500D03*
D14*
X189885008Y39147493D03*
D12*
X190540000Y39877500D03*
D15*
X198120000Y35877500D03*
X187960000Y35877500D03*
D10*
X193040000Y35877500D03*
%TD*%
D12*
%TO.C,MX42*%
X176530000Y40957500D03*
D13*
X176510004Y40667500D03*
D14*
X170835008Y39147493D03*
D12*
X171490000Y39877500D03*
D15*
X179070000Y35877500D03*
X168910000Y35877500D03*
D10*
X173990000Y35877500D03*
%TD*%
D12*
%TO.C,MX41*%
X157480000Y40957500D03*
D13*
X157460004Y40667500D03*
D14*
X151785008Y39147493D03*
D12*
X152440000Y39877500D03*
D15*
X160020000Y35877500D03*
X149860000Y35877500D03*
D10*
X154940000Y35877500D03*
%TD*%
D12*
%TO.C,MX40*%
X138430000Y40957500D03*
D13*
X138410004Y40667500D03*
D14*
X132735008Y39147493D03*
D12*
X133390000Y39877500D03*
D15*
X140970000Y35877500D03*
X130810000Y35877500D03*
D10*
X135890000Y35877500D03*
%TD*%
D12*
%TO.C,MX39*%
X119380000Y40957500D03*
D13*
X119360004Y40667500D03*
D14*
X113685008Y39147493D03*
D12*
X114340000Y39877500D03*
D15*
X121920000Y35877500D03*
X111760000Y35877500D03*
D10*
X116840000Y35877500D03*
%TD*%
D12*
%TO.C,MX38*%
X100330000Y40957500D03*
D13*
X100310004Y40667500D03*
D14*
X94635008Y39147493D03*
D12*
X95290000Y39877500D03*
D15*
X102870000Y35877500D03*
X92710000Y35877500D03*
D10*
X97790000Y35877500D03*
%TD*%
D12*
%TO.C,MX37*%
X81280000Y40957500D03*
D13*
X81260004Y40667500D03*
D14*
X75585008Y39147493D03*
D12*
X76240000Y39877500D03*
D15*
X83820000Y35877500D03*
X73660000Y35877500D03*
D10*
X78740000Y35877500D03*
%TD*%
D12*
%TO.C,MX36*%
X62230000Y40957500D03*
D13*
X62210004Y40667500D03*
D14*
X56535008Y39147493D03*
D12*
X57190000Y39877500D03*
D15*
X64770000Y35877500D03*
X54610000Y35877500D03*
D10*
X59690000Y35877500D03*
%TD*%
%TO.C,MX35*%
X40671750Y44132500D03*
X16795750Y44132500D03*
D11*
X40671750Y28892500D03*
X16795750Y28892500D03*
D12*
X31273750Y40957500D03*
D13*
X31253754Y40667500D03*
D14*
X25578758Y39147493D03*
D12*
X26233750Y39877500D03*
D15*
X33813750Y35877500D03*
X23653750Y35877500D03*
D10*
X28733750Y35877500D03*
%TD*%
D17*
%TO.C,D45*%
X247808750Y39687500D03*
D18*
X247808750Y32067500D03*
%TD*%
D17*
%TO.C,D44*%
X221615000Y39687500D03*
D18*
X221615000Y32067500D03*
%TD*%
D17*
%TO.C,D43*%
X202565000Y39687500D03*
D18*
X202565000Y32067500D03*
%TD*%
D17*
%TO.C,D42*%
X183515000Y39687500D03*
D18*
X183515000Y32067500D03*
%TD*%
D17*
%TO.C,D41*%
X164465000Y39687500D03*
D18*
X164465000Y32067500D03*
%TD*%
D17*
%TO.C,D40*%
X144115000Y39687500D03*
D18*
X144115000Y32067500D03*
%TD*%
D17*
%TO.C,D39*%
X126365000Y39687500D03*
D18*
X126365000Y32067500D03*
%TD*%
D17*
%TO.C,D38*%
X107315000Y39687500D03*
D18*
X107315000Y32067500D03*
%TD*%
D17*
%TO.C,D37*%
X88265000Y39687500D03*
D18*
X88265000Y32067500D03*
%TD*%
D17*
%TO.C,D36*%
X69215000Y39687500D03*
D18*
X69215000Y32067500D03*
%TD*%
D17*
%TO.C,D35*%
X50165000Y39687500D03*
D18*
X50165000Y32067500D03*
%TD*%
D12*
%TO.C,MX34*%
X245586250Y60007500D03*
D13*
X245566254Y59717500D03*
D14*
X239891258Y58197493D03*
D12*
X240546250Y58927500D03*
D15*
X248126250Y54927500D03*
X237966250Y54927500D03*
D10*
X243046250Y54927500D03*
%TD*%
D12*
%TO.C,MX33*%
X224155000Y60007500D03*
D13*
X224135004Y59717500D03*
D14*
X218460008Y58197493D03*
D12*
X219115000Y58927500D03*
D15*
X226695000Y54927500D03*
X216535000Y54927500D03*
D10*
X221615000Y54927500D03*
%TD*%
D12*
%TO.C,MX32*%
X205105000Y60007500D03*
D13*
X205085004Y59717500D03*
D14*
X199410008Y58197493D03*
D12*
X200065000Y58927500D03*
D15*
X207645000Y54927500D03*
X197485000Y54927500D03*
D10*
X202565000Y54927500D03*
%TD*%
D12*
%TO.C,MX31*%
X186055000Y60007500D03*
D13*
X186035004Y59717500D03*
D14*
X180360008Y58197493D03*
D12*
X181015000Y58927500D03*
D15*
X188595000Y54927500D03*
X178435000Y54927500D03*
D10*
X183515000Y54927500D03*
%TD*%
D12*
%TO.C,MX30*%
X167005000Y60007500D03*
D13*
X166985004Y59717500D03*
D14*
X161310008Y58197493D03*
D12*
X161965000Y58927500D03*
D15*
X169545000Y54927500D03*
X159385000Y54927500D03*
D10*
X164465000Y54927500D03*
%TD*%
D12*
%TO.C,MX29*%
X147955000Y60007500D03*
D13*
X147935004Y59717500D03*
D14*
X142260008Y58197493D03*
D12*
X142915000Y58927500D03*
D15*
X150495000Y54927500D03*
X140335000Y54927500D03*
D10*
X145415000Y54927500D03*
%TD*%
D12*
%TO.C,MX28*%
X128905000Y60007500D03*
D13*
X128885004Y59717500D03*
D14*
X123210008Y58197493D03*
D12*
X123865000Y58927500D03*
D15*
X131445000Y54927500D03*
X121285000Y54927500D03*
D10*
X126365000Y54927500D03*
%TD*%
D12*
%TO.C,MX27*%
X109855000Y60007500D03*
D13*
X109835004Y59717500D03*
D14*
X104160008Y58197493D03*
D12*
X104815000Y58927500D03*
D15*
X112395000Y54927500D03*
X102235000Y54927500D03*
D10*
X107315000Y54927500D03*
%TD*%
D12*
%TO.C,MX26*%
X90805000Y60007500D03*
D13*
X90785004Y59717500D03*
D14*
X85110008Y58197493D03*
D12*
X85765000Y58927500D03*
D15*
X93345000Y54927500D03*
X83185000Y54927500D03*
D10*
X88265000Y54927500D03*
%TD*%
D12*
%TO.C,MX25*%
X71755000Y60007500D03*
D13*
X71735004Y59717500D03*
D14*
X66060008Y58197493D03*
D12*
X66715000Y58927500D03*
D15*
X74295000Y54927500D03*
X64135000Y54927500D03*
D10*
X69215000Y54927500D03*
%TD*%
D12*
%TO.C,MX24*%
X52705000Y60007500D03*
D13*
X52685004Y59717500D03*
D14*
X47010008Y58197493D03*
D12*
X47665000Y58927500D03*
D15*
X55245000Y54927500D03*
X45085000Y54927500D03*
D10*
X50165000Y54927500D03*
%TD*%
D12*
%TO.C,MX23*%
X26511250Y60007500D03*
D13*
X26491254Y59717500D03*
D14*
X20816258Y58197493D03*
D12*
X21471250Y58927500D03*
D15*
X29051250Y54927500D03*
X18891250Y54927500D03*
D10*
X23971250Y54927500D03*
%TD*%
D17*
%TO.C,D34*%
X252571250Y58737500D03*
D18*
X252571250Y51117500D03*
%TD*%
D17*
%TO.C,D33*%
X215900000Y45402500D03*
D18*
X208280000Y45402500D03*
%TD*%
D17*
%TO.C,D32*%
X212090000Y58737500D03*
D18*
X212090000Y51117500D03*
%TD*%
D17*
%TO.C,D31*%
X193040000Y58737500D03*
D18*
X193040000Y51117500D03*
%TD*%
D17*
%TO.C,D30*%
X173990000Y58737500D03*
D18*
X173990000Y51117500D03*
%TD*%
D17*
%TO.C,D29*%
X154940000Y58737500D03*
D18*
X154940000Y51117500D03*
%TD*%
D17*
%TO.C,D28*%
X135890000Y58737500D03*
D18*
X135890000Y51117500D03*
%TD*%
D17*
%TO.C,D27*%
X116840000Y58737500D03*
D18*
X116840000Y51117500D03*
%TD*%
D17*
%TO.C,D26*%
X97790000Y58737500D03*
D18*
X97790000Y51117500D03*
%TD*%
D17*
%TO.C,D25*%
X78740000Y58737500D03*
D18*
X78740000Y51117500D03*
%TD*%
D17*
%TO.C,D24*%
X59690000Y58737500D03*
D18*
X59690000Y51117500D03*
%TD*%
D17*
%TO.C,D23*%
X33496250Y58737500D03*
D18*
X33496250Y51117500D03*
%TD*%
D12*
%TO.C,MX22*%
X243205000Y79057500D03*
D13*
X243185004Y78767500D03*
D14*
X237510008Y77247493D03*
D12*
X238165000Y77977500D03*
D15*
X245745000Y73977500D03*
X235585000Y73977500D03*
D10*
X240665000Y73977500D03*
%TD*%
D12*
%TO.C,MX21*%
X219392500Y79057500D03*
D13*
X219372504Y78767500D03*
D14*
X213697508Y77247493D03*
D12*
X214352500Y77977500D03*
D15*
X221932500Y73977500D03*
X211772500Y73977500D03*
D10*
X216852500Y73977500D03*
%TD*%
D12*
%TO.C,MX20*%
X200342500Y79057500D03*
D13*
X200322504Y78767500D03*
D14*
X194647508Y77247493D03*
D12*
X195302500Y77977500D03*
D15*
X202882500Y73977500D03*
X192722500Y73977500D03*
D10*
X197802500Y73977500D03*
%TD*%
D12*
%TO.C,MX19*%
X181292500Y79057500D03*
D13*
X181272504Y78767500D03*
D14*
X175597508Y77247493D03*
D12*
X176252500Y77977500D03*
D15*
X183832500Y73977500D03*
X173672500Y73977500D03*
D10*
X178752500Y73977500D03*
%TD*%
D17*
%TO.C,D22*%
X250190000Y77787500D03*
D18*
X250190000Y70167500D03*
%TD*%
D17*
%TO.C,D21*%
X226377500Y77787500D03*
D18*
X226377500Y70167500D03*
%TD*%
D17*
%TO.C,D20*%
X207327500Y77787500D03*
D18*
X207327500Y70167500D03*
%TD*%
D17*
%TO.C,D19*%
X188277500Y77787500D03*
D18*
X188277500Y70167500D03*
%TD*%
D12*
%TO.C,MX18*%
X162242500Y79057500D03*
D13*
X162222504Y78767500D03*
D14*
X156547508Y77247493D03*
D12*
X157202500Y77977500D03*
D15*
X164782500Y73977500D03*
X154622500Y73977500D03*
D10*
X159702500Y73977500D03*
%TD*%
D12*
%TO.C,MX17*%
X143192500Y79057500D03*
D13*
X143172504Y78767500D03*
D14*
X137497508Y77247493D03*
D12*
X138152500Y77977500D03*
D15*
X145732500Y73977500D03*
X135572500Y73977500D03*
D10*
X140652500Y73977500D03*
%TD*%
D12*
%TO.C,MX16*%
X124142500Y79057500D03*
D13*
X124122504Y78767500D03*
D14*
X118447508Y77247493D03*
D12*
X119102500Y77977500D03*
D15*
X126682500Y73977500D03*
X116522500Y73977500D03*
D10*
X121602500Y73977500D03*
%TD*%
D12*
%TO.C,MX15*%
X105092500Y79057500D03*
D13*
X105072504Y78767500D03*
D14*
X99397508Y77247493D03*
D12*
X100052500Y77977500D03*
D15*
X107632500Y73977500D03*
X97472500Y73977500D03*
D10*
X102552500Y73977500D03*
%TD*%
D12*
%TO.C,MX14*%
X86042500Y79057500D03*
D13*
X86022504Y78767500D03*
D14*
X80347508Y77247493D03*
D12*
X81002500Y77977500D03*
D15*
X88582500Y73977500D03*
X78422500Y73977500D03*
D10*
X83502500Y73977500D03*
%TD*%
D12*
%TO.C,MX13*%
X66992500Y79057500D03*
D13*
X66972504Y78767500D03*
D14*
X61297508Y77247493D03*
D12*
X61952500Y77977500D03*
D15*
X69532500Y73977500D03*
X59372500Y73977500D03*
D10*
X64452500Y73977500D03*
%TD*%
D12*
%TO.C,MX12*%
X47942500Y79057500D03*
D13*
X47922504Y78767500D03*
D14*
X42247508Y77247493D03*
D12*
X42902500Y77977500D03*
D15*
X50482500Y73977500D03*
X40322500Y73977500D03*
D10*
X45402500Y73977500D03*
%TD*%
D12*
%TO.C,MX11*%
X24130000Y79057500D03*
D13*
X24110004Y78767500D03*
D14*
X18435008Y77247493D03*
D12*
X19090000Y77977500D03*
D15*
X26670000Y73977500D03*
X16510000Y73977500D03*
D10*
X21590000Y73977500D03*
%TD*%
D17*
%TO.C,D18*%
X169227500Y77787500D03*
D18*
X169227500Y70167500D03*
%TD*%
D17*
%TO.C,D17*%
X150177500Y77787500D03*
D18*
X150177500Y70167500D03*
%TD*%
D17*
%TO.C,D16*%
X131127500Y77787500D03*
D18*
X131127500Y70167500D03*
%TD*%
D17*
%TO.C,D15*%
X112077500Y77787500D03*
D18*
X112077500Y70167500D03*
%TD*%
D17*
%TO.C,D14*%
X93027500Y77787500D03*
D18*
X93027500Y70167500D03*
%TD*%
D17*
%TO.C,D13*%
X73977500Y77787500D03*
D18*
X73977500Y70167500D03*
%TD*%
D17*
%TO.C,D12*%
X54927500Y77787500D03*
D18*
X54927500Y70167500D03*
%TD*%
D17*
%TO.C,D11*%
X31115000Y77787500D03*
D18*
X31115000Y70167500D03*
%TD*%
D12*
%TO.C,MX10*%
X247967500Y102870000D03*
D13*
X247947504Y102580000D03*
D14*
X242272508Y101059993D03*
D12*
X242927500Y101790000D03*
D15*
X250507500Y97790000D03*
X240347500Y97790000D03*
D10*
X245427500Y97790000D03*
%TD*%
D12*
%TO.C,MX9*%
X224155000Y102870000D03*
D13*
X224135004Y102580000D03*
D14*
X218460008Y101059993D03*
D12*
X219115000Y101790000D03*
D15*
X226695000Y97790000D03*
X216535000Y97790000D03*
D10*
X221615000Y97790000D03*
%TD*%
D12*
%TO.C,MX8*%
X205105000Y102870000D03*
D13*
X205085004Y102580000D03*
D14*
X199410008Y101059993D03*
D12*
X200065000Y101790000D03*
D15*
X207645000Y97790000D03*
X197485000Y97790000D03*
D10*
X202565000Y97790000D03*
%TD*%
D12*
%TO.C,MX7*%
X186055000Y102870000D03*
D13*
X186035004Y102580000D03*
D14*
X180360008Y101059993D03*
D12*
X181015000Y101790000D03*
D15*
X188595000Y97790000D03*
X178435000Y97790000D03*
D10*
X183515000Y97790000D03*
%TD*%
D12*
%TO.C,MX6*%
X167005000Y102870000D03*
D13*
X166985004Y102580000D03*
D14*
X161310008Y101059993D03*
D12*
X161965000Y101790000D03*
D15*
X169545000Y97790000D03*
X159385000Y97790000D03*
D10*
X164465000Y97790000D03*
%TD*%
D12*
%TO.C,MX5*%
X143192500Y102870000D03*
D13*
X143172504Y102580000D03*
D14*
X137497508Y101059993D03*
D12*
X138152500Y101790000D03*
D15*
X145732500Y97790000D03*
X135572500Y97790000D03*
D10*
X140652500Y97790000D03*
%TD*%
D12*
%TO.C,MX4*%
X124142500Y102870000D03*
D13*
X124122504Y102580000D03*
D14*
X118447508Y101059993D03*
D12*
X119102500Y101790000D03*
D15*
X126682500Y97790000D03*
X116522500Y97790000D03*
D10*
X121602500Y97790000D03*
%TD*%
D12*
%TO.C,MX3*%
X105092500Y102870000D03*
D13*
X105072504Y102580000D03*
D14*
X99397508Y101059993D03*
D12*
X100052500Y101790000D03*
D15*
X107632500Y97790000D03*
X97472500Y97790000D03*
D10*
X102552500Y97790000D03*
%TD*%
D12*
%TO.C,MX1*%
X62230000Y102870000D03*
D13*
X62210004Y102580000D03*
D14*
X56535008Y101059993D03*
D12*
X57190000Y101790000D03*
D15*
X64770000Y97790000D03*
X54610000Y97790000D03*
D10*
X59690000Y97790000D03*
%TD*%
D17*
%TO.C,D10*%
X235902500Y101600000D03*
D18*
X235902500Y93980000D03*
%TD*%
D17*
%TO.C,D9*%
X231140000Y101600000D03*
D18*
X231140000Y93980000D03*
%TD*%
D17*
%TO.C,D8*%
X212090000Y101600000D03*
D18*
X212090000Y93980000D03*
%TD*%
D17*
%TO.C,D7*%
X193040000Y101600000D03*
D18*
X193040000Y93980000D03*
%TD*%
D17*
%TO.C,D6*%
X173990000Y101600000D03*
D18*
X173990000Y93980000D03*
%TD*%
D17*
%TO.C,D5*%
X150177500Y101600000D03*
D18*
X150177500Y93980000D03*
%TD*%
D17*
%TO.C,D4*%
X131127500Y101600000D03*
D18*
X131127500Y93980000D03*
%TD*%
D17*
%TO.C,D3*%
X112077500Y101600000D03*
D18*
X112077500Y93980000D03*
%TD*%
D10*
%TO.C,MX2*%
X83502500Y97790000D03*
D15*
X78422500Y97790000D03*
X88582500Y97790000D03*
D12*
X81002500Y101790000D03*
D14*
X80347508Y101059993D03*
D13*
X86022504Y102580000D03*
D12*
X86042500Y102870000D03*
%TD*%
D17*
%TO.C,D2*%
X93027500Y101600000D03*
D18*
X93027500Y93980000D03*
%TD*%
D19*
%TO.C,U1*%
X40322500Y105410000D03*
X37782500Y105410000D03*
X35242500Y105410000D03*
X32702500Y105410000D03*
X30162500Y105410000D03*
X27622500Y105410000D03*
X25082500Y105410000D03*
X22542500Y105410000D03*
X20002500Y105410000D03*
X17462500Y105410000D03*
D20*
X14922500Y105410000D03*
D19*
X12382500Y105410000D03*
X40322500Y90170000D03*
X37782500Y90170000D03*
X35242500Y90170000D03*
X32702500Y90170000D03*
X30162500Y90170000D03*
X27622500Y90170000D03*
X25082500Y90170000D03*
X22542500Y90170000D03*
D20*
X20002500Y90170000D03*
X17462500Y90170000D03*
D19*
X14922500Y90170000D03*
X12382500Y90170000D03*
%TD*%
D17*
%TO.C,D1*%
X69215000Y101600000D03*
D18*
X69215000Y93980000D03*
%TD*%
M02*
