999
dxfrw 0.6.3
  0
SECTION
  2
HEADER
  9
$ACADVER
  1
AC1021
  9
$DWGCODEPAGE
  3
ANSI_1252
  9
$INSBASE
 10
0
 20
0
 30
0
  9
$EXTMIN
 10
-139.4793762839699
 20
-62
 30
0
  9
$EXTMAX
 10
139.4793762839699
 20
50.41261895465743
 30
0
  9
$LIMMIN
 10
0
 20
0
  9
$LIMMAX
 10
420
 20
297
  9
$ORTHOMODE
 70
    0
  9
$REGENMODE
 70
    1
  9
$FILLMODE
 70
    1
  9
$QTEXTMODE
 70
    0
  9
$MIRRTEXT
 70
    0
  9
$LTSCALE
 40
1
  9
$ATTMODE
 70
    0
  9
$TEXTSIZE
 40
2.5
  9
$TRACEWID
 40
15.68
  9
$TEXTSTYLE
  7
STANDARD
  9
$CLAYER
  8
0
  9
$CELTYPE
  6
BYLAYER
  9
$CECOLOR
 62
  256
  9
$CELTSCALE
 40
1
  9
$DISPSILH
 70
    0
  9
$DIMSCALE
 40
2.5
  9
$DIMASZ
 40
2.5
  9
$DIMEXO
 40
0.625
  9
$DIMDLI
 40
3.75
  9
$DIMRND
 40
0
  9
$DIMDLE
 40
0
  9
$DIMEXE
 40
1.25
  9
$DIMTP
 40
0
  9
$DIMTM
 40
0
  9
$DIMTXT
 40
2.5
  9
$DIMCEN
 40
2.5
  9
$DIMTSZ
 40
0
  9
$DIMTOL
 70
    0
  9
$DIMLIM
 70
    0
  9
$DIMTIH
 70
    0
  9
$DIMTOH
 70
    0
  9
$DIMSE1
 70
    0
  9
$DIMSE2
 70
    0
  9
$DIMTAD
 70
    1
  9
$DIMZIN
 70
    8
  9
$DIMBLK
  1

  9
$DIMASO
 70
    1
  9
$DIMSHO
 70
    1
  9
$DIMPOST
  1

  9
$DIMAPOST
  1

  9
$DIMALT
 70
    0
  9
$DIMALTD
 70
    3
  9
$DIMALTF
 40
0.03937
  9
$DIMLFAC
 40
1
  9
$DIMTOFL
 70
    1
  9
$DIMTVP
 40
0
  9
$DIMTIX
 70
    0
  9
$DIMSOXD
 70
    0
  9
$DIMSAH
 70
    0
  9
$DIMBLK1
  1

  9
$DIMBLK2
  1

  9
$DIMSTYLE
  2
STANDARD
  9
$DIMCLRD
 70
    0
  9
$DIMCLRE
 70
    0
  9
$DIMCLRT
 70
    0
  9
$DIMTFAC
 40
1
  9
$DIMGAP
 40
0.625
  9
$DIMJUST
 70
    0
  9
$DIMSD1
 70
    0
  9
$DIMSD2
 70
    0
  9
$DIMTOLJ
 70
    0
  9
$DIMTZIN
 70
    8
  9
$DIMALTZ
 70
    0
  9
$DIMALTTZ
 70
    0
  9
$DIMUPT
 70
    0
  9
$DIMDEC
 70
    2
  9
$DIMTDEC
 70
    2
  9
$DIMALTU
 70
    2
  9
$DIMALTTD
 70
    3
  9
$DIMTXSTY
  7
STANDARD
  9
$DIMAUNIT
 70
    0
  9
$DIMADEC
 70
    0
  9
$DIMALTRND
 40
0
  9
$DIMAZIN
 70
    0
  9
$DIMDSEP
 70
   44
  9
$DIMATFIT
 70
    3
  9
$DIMFRAC
 70
    0
  9
$DIMLDRBLK
  1
STANDARD
  9
$DIMLUNIT
 70
    2
  9
$DIMLWD
 70
   -2
  9
$DIMLWE
 70
   -2
  9
$DIMTMOVE
 70
    0
  9
$DIMFXL
 40
1
  9
$DIMFXLON
 70
    0
  9
$DIMJOGANG
 40
0.7854
  9
$DIMTFILL
 70
    0
  9
$DIMTFILLCLR
 70
    0
  9
$DIMARCSYM
 70
    0
  9
$DIMLTYPE
  6

  9
$DIMLTEX1
  6

  9
$DIMLTEX2
  6

  9
$LUNITS
 70
    2
  9
$LUPREC
 70
    4
  9
$SKETCHINC
 40
1
  9
$FILLETRAD
 40
0
  9
$AUNITS
 70
    0
  9
$AUPREC
 70
    2
  9
$MENU
  1
.
  9
$ELEVATION
 40
0
  9
$PELEVATION
 40
0
  9
$THICKNESS
 40
0
  9
$LIMCHECK
 70
    0
  9
$CHAMFERA
 40
0
  9
$CHAMFERB
 40
0
  9
$CHAMFERC
 40
0
  9
$CHAMFERD
 40
0
  9
$SKPOLY
 70
    0
  9
$USRTIMER
 70
    1
  9
$ANGBASE
 50
0
  9
$ANGDIR
 70
    0
  9
$PDMODE
 70
   34
  9
$PDSIZE
 40
0
  9
$PLINEWID
 40
0
  9
$SPLFRAME
 70
    0
  9
$SPLINETYPE
 70
    2
  9
$SPLINESEGS
 70
    8
  9
$HANDSEED
  5
20000
  9
$SURFTAB1
 70
    6
  9
$SURFTAB2
 70
    6
  9
$SURFTYPE
 70
    6
  9
$SURFU
 70
    6
  9
$SURFV
 70
    6
  9
$UCSBASE
  2

  9
$UCSNAME
  2

  9
$UCSORG
 10
0
 20
0
 30
0
  9
$UCSXDIR
 10
1
 20
0
 30
0
  9
$UCSYDIR
 10
0
 20
1
 30
0
  9
$UCSORTHOREF
  2

  9
$UCSORTHOVIEW
 70
    0
  9
$UCSORGTOP
 10
0
 20
0
 30
0
  9
$UCSORGBOTTOM
 10
0
 20
0
 30
0
  9
$UCSORGLEFT
 10
0
 20
0
 30
0
  9
$UCSORGRIGHT
 10
0
 20
0
 30
0
  9
$UCSORGFRONT
 10
0
 20
0
 30
0
  9
$UCSORGBACK
 10
0
 20
0
 30
0
  9
$PUCSBASE
  2

  9
$PUCSNAME
  2

  9
$PUCSORG
 10
0
 20
0
 30
0
  9
$PUCSXDIR
 10
1
 20
0
 30
0
  9
$PUCSYDIR
 10
0
 20
1
 30
0
  9
$PUCSORTHOREF
  2

  9
$PUCSORTHOVIEW
 70
    0
  9
$PUCSORGTOP
 10
0
 20
0
 30
0
  9
$PUCSORGBOTTOM
 10
0
 20
0
 30
0
  9
$PUCSORGLEFT
 10
0
 20
0
 30
0
  9
$PUCSORGRIGHT
 10
0
 20
0
 30
0
  9
$PUCSORGFRONT
 10
0
 20
0
 30
0
  9
$PUCSORGBACK
 10
0
 20
0
 30
0
  9
$USERI1
 70
    0
  9
$USERI2
 70
    0
  9
$USERI3
 70
    0
  9
$USERI4
 70
    0
  9
$USERI5
 70
    0
  9
$USERR1
 40
0
  9
$USERR2
 40
0
  9
$USERR3
 40
0
  9
$USERR4
 40
0
  9
$USERR5
 40
0
  9
$WORLDVIEW
 70
    1
  9
$SHADEDGE
 70
    3
  9
$SHADEDIF
 70
   70
  9
$TILEMODE
 70
    1
  9
$MAXACTVP
 70
   64
  9
$PINSBASE
 10
0
 20
0
 30
0
  9
$PLIMCHECK
 70
    0
  9
$PEXTMIN
 10
0
 20
0
 30
0
  9
$PEXTMAX
 10
0
 20
0
 30
0
  9
$GRIDMODE
 70
    1
  9
$SNAPSTYLE
 70
    0
  9
$PLIMMIN
 10
0
 20
0
  9
$PLIMMAX
 10
297
 20
210
  9
$UNITMODE
 70
    0
  9
$VISRETAIN
 70
    1
  9
$PLINEGEN
 70
    0
  9
$PSLTSCALE
 70
    1
  9
$TREEDEPTH
 70
 3020
  9
$CMLSTYLE
  2
Standard
  9
$CMLJUST
 70
    0
  9
$CMLSCALE
 40
20
  9
$PROXYGRAPHICS
 70
    1
  9
$MEASUREMENT
 70
    1
  9
$CELWEIGHT
370
   -1
  9
$ENDCAPS
280
    0
  9
$JOINSTYLE
280
    0
  9
$LWDISPLAY
290
    0
  9
$INSUNITS
 70
    0
  9
$HYPERLINKBASE
  1

  9
$STYLESHEET
  1

  9
$XEDIT
290
    1
  9
$CEPSNTYPE
380
    0
  9
$PSTYLEMODE
290
    1
  9
$EXTNAMES
290
    1
  9
$PSVPSCALE
 40
1
  9
$OLESTARTUP
290
    0
  9
$SORTENTS
280
  127
  9
$INDEXCTL
280
    0
  9
$HIDETEXT
280
    1
  9
$XCLIPFRAME
290
    0
  9
$HALOGAP
280
    0
  9
$OBSCOLOR
 70
  257
  9
$OBSLTYPE
280
    0
  9
$INTERSECTIONDISPLAY
280
    0
  9
$INTERSECTIONCOLOR
 70
  257
  9
$DIMASSOC
280
    1
  9
$PROJECTNAME
  1

  9
$CAMERADISPLAY
290
    0
  9
$LENSLENGTH
 40
50
  9
$CAMERAHEIGHT
 40
0
  9
$STEPSPERSEC
 40
2
  9
$STEPSIZE
 40
50
  9
$3DDWFPREC
 40
2
  9
$PSOLWIDTH
 40
5
  9
$PSOLHEIGHT
 40
80
  9
$LOFTANG1
 40
1.570796326794897
  9
$LOFTANG2
 40
1.570796326794897
  9
$LOFTMAG1
 40
0
  9
$LOFTMAG2
 40
0
  9
$LOFTPARAM
 70
    7
  9
$LOFTNORMALS
280
    1
  9
$LATITUDE
 40
1
  9
$LONGITUDE
 40
1
  9
$NORTHDIRECTION
 40
0
  9
$TIMEZONE
 70
-8000
  9
$LIGHTGLYPHDISPLAY
280
    1
  9
$TILEMODELIGHTSYNCH
280
    1
  9
$SOLIDHIST
280
    1
  9
$SHOWHIST
280
    1
  9
$DWFFRAME
280
    2
  9
$DGNFRAME
280
    0
  9
$REALWORLDSCALE
290
    1
  9
$INTERFERECOLOR
 62
    1
  9
$CSHADOW
280
    0
  9
$SHADOWPLANELOCATION
 40
0
  0
ENDSEC
  0
SECTION
  2
CLASSES
  0
ENDSEC
  0
SECTION
  2
TABLES
  0
TABLE
  2
VPORT
  5
8
330
0
100
AcDbSymbolTable
 70
    1
  0
VPORT
  5
31
330
2
100
AcDbSymbolTableRecord
100
AcDbViewportTableRecord
  2
*ACTIVE
 70
    0
 10
0
 20
0
 11
1
 21
1
 12
133.9016525858871
 22
89.88171452807829
 13
0
 23
0
 14
10
 24
10
 15
10
 25
10
 16
0
 26
0
 36
1
 17
0
 27
0
 37
0
 40
307.9553825634158
 41
1.745215311004785
 42
50
 43
0
 44
0
 50
0
 51
0
 71
    0
 72
  100
 73
    1
 74
    3
 75
    0
 76
    1
 77
    0
 78
    0
281
    0
 65
    1
110
0
120
0
130
0
111
1
121
0
131
0
112
0
122
1
132
0
 79
    0
146
0
348
10020
 60
    7
 61
    5
292
1
282
    1
141
0
142
0
 63
  250
421
3358443
  0
ENDTAB
  0
TABLE
  2
LTYPE
  5
5
330
0
100
AcDbSymbolTable
 70
    4
  0
LTYPE
  5
14
330
5
100
AcDbSymbolTableRecord
100
AcDbLinetypeTableRecord
  2
ByBlock
 70
    0
  3

 72
   65
 73
    0
 40
0
  0
LTYPE
  5
15
330
5
100
AcDbSymbolTableRecord
100
AcDbLinetypeTableRecord
  2
ByLayer
 70
    0
  3

 72
   65
 73
    0
 40
0
  0
LTYPE
  5
16
330
5
100
AcDbSymbolTableRecord
100
AcDbLinetypeTableRecord
  2
Continuous
 70
    0
  3
Solid line
 72
   65
 73
    0
 40
0
  0
LTYPE
  5
32
330
5
100
AcDbSymbolTableRecord
100
AcDbLinetypeTableRecord
  2
DOT
 70
    0
  3
Dot . . . . . . . . . . . . . . . . . . . . . .
 72
   65
 73
    2
 40
6.35
 49
0
 74
    0
 49
-6.35
 74
    0
  0
LTYPE
  5
33
330
5
100
AcDbSymbolTableRecord
100
AcDbLinetypeTableRecord
  2
DOTTINY
 70
    0
  3
Dot (.15x) .....................................
 72
   65
 73
    2
 40
0.9525
 49
0
 74
    0
 49
-0.9525
 74
    0
  0
LTYPE
  5
34
330
5
100
AcDbSymbolTableRecord
100
AcDbLinetypeTableRecord
  2
DOT2
 70
    0
  3
Dot (.5x) .....................................
 72
   65
 73
    2
 40
3.175
 49
0
 74
    0
 49
-3.175
 74
    0
  0
LTYPE
  5
35
330
5
100
AcDbSymbolTableRecord
100
AcDbLinetypeTableRecord
  2
DOTX2
 70
    0
  3
Dot (2x) .  .  .  .  .  .  .  .  .  .  .  .  .
 72
   65
 73
    2
 40
12.7
 49
0
 74
    0
 49
-12.7
 74
    0
  0
LTYPE
  5
36
330
5
100
AcDbSymbolTableRecord
100
AcDbLinetypeTableRecord
  2
DASHED
 70
    0
  3
Dashed _ _ _ _ _ _ _ _ _ _ _ _ _ _ _ _ _
 72
   65
 73
    2
 40
19.05
 49
12.7
 74
    0
 49
-6.35
 74
    0
  0
LTYPE
  5
37
330
5
100
AcDbSymbolTableRecord
100
AcDbLinetypeTableRecord
  2
DASHEDTINY
 70
    0
  3
Dashed (.15x) _ _ _ _ _ _ _ _ _ _ _ _ _ _ _ _ _
 72
   65
 73
    2
 40
2.8575
 49
1.905
 74
    0
 49
-0.9525
 74
    0
  0
LTYPE
  5
38
330
5
100
AcDbSymbolTableRecord
100
AcDbLinetypeTableRecord
  2
DASHED2
 70
    0
  3
Dashed (.5x) _ _ _ _ _ _ _ _ _ _ _ _ _ _ _ _ _
 72
   65
 73
    2
 40
9.524999999999999
 49
6.35
 74
    0
 49
-3.175
 74
    0
  0
LTYPE
  5
39
330
5
100
AcDbSymbolTableRecord
100
AcDbLinetypeTableRecord
  2
DASHEDX2
 70
    0
  3
Dashed (2x) ____  ____  ____  ____  ____  ___
 72
   65
 73
    2
 40
38.09999999999999
 49
25.4
 74
    0
 49
-12.7
 74
    0
  0
LTYPE
  5
3A
330
5
100
AcDbSymbolTableRecord
100
AcDbLinetypeTableRecord
  2
DASHDOT
 70
    0
  3
Dash dot __ . __ . __ . __ . __ . __ . __ . __
 72
   65
 73
    4
 40
25.4
 49
12.7
 74
    0
 49
-6.35
 74
    0
 49
0
 74
    0
 49
-6.35
 74
    0
  0
LTYPE
  5
3B
330
5
100
AcDbSymbolTableRecord
100
AcDbLinetypeTableRecord
  2
DASHDOTTINY
 70
    0
  3
Dash dot (.15x) _._._._._._._._._._._._._._._.
 72
   65
 73
    4
 40
3.81
 49
1.905
 74
    0
 49
-0.9525
 74
    0
 49
0
 74
    0
 49
-0.9525
 74
    0
  0
LTYPE
  5
3C
330
5
100
AcDbSymbolTableRecord
100
AcDbLinetypeTableRecord
  2
DASHDOT2
 70
    0
  3
Dash dot (.5x) _._._._._._._._._._._._._._._.
 72
   65
 73
    4
 40
12.7
 49
6.35
 74
    0
 49
-3.175
 74
    0
 49
0
 74
    0
 49
-3.175
 74
    0
  0
LTYPE
  5
3D
330
5
100
AcDbSymbolTableRecord
100
AcDbLinetypeTableRecord
  2
DASHDOTX2
 70
    0
  3
Dash dot (2x) ____  .  ____  .  ____  .  ___
 72
   65
 73
    4
 40
50.8
 49
25.4
 74
    0
 49
-12.7
 74
    0
 49
0
 74
    0
 49
-12.7
 74
    0
  0
LTYPE
  5
3E
330
5
100
AcDbSymbolTableRecord
100
AcDbLinetypeTableRecord
  2
DIVIDE
 70
    0
  3
Divide ____ . . ____ . . ____ . . ____ . . ____
 72
   65
 73
    6
 40
31.75
 49
12.7
 74
    0
 49
-6.35
 74
    0
 49
0
 74
    0
 49
-6.35
 74
    0
 49
0
 74
    0
 49
-6.35
 74
    0
  0
LTYPE
  5
3F
330
5
100
AcDbSymbolTableRecord
100
AcDbLinetypeTableRecord
  2
DIVIDETINY
 70
    0
  3
Divide (.15x) __..__..__..__..__..__..__..__.._
 72
   65
 73
    6
 40
4.7625
 49
1.905
 74
    0
 49
-0.9525
 74
    0
 49
0
 74
    0
 49
-0.9525
 74
    0
 49
0
 74
    0
 49
-0.9525
 74
    0
  0
LTYPE
  5
40
330
5
100
AcDbSymbolTableRecord
100
AcDbLinetypeTableRecord
  2
DIVIDE2
 70
    0
  3
Divide (.5x) __..__..__..__..__..__..__..__.._
 72
   65
 73
    6
 40
15.875
 49
6.35
 74
    0
 49
-3.175
 74
    0
 49
0
 74
    0
 49
-3.175
 74
    0
 49
0
 74
    0
 49
-3.175
 74
    0
  0
LTYPE
  5
41
330
5
100
AcDbSymbolTableRecord
100
AcDbLinetypeTableRecord
  2
DIVIDEX2
 70
    0
  3
Divide (2x) ________  .  .  ________  .  .  _
 72
   65
 73
    6
 40
63.5
 49
25.4
 74
    0
 49
-12.7
 74
    0
 49
0
 74
    0
 49
-12.7
 74
    0
 49
0
 74
    0
 49
-12.7
 74
    0
  0
LTYPE
  5
42
330
5
100
AcDbSymbolTableRecord
100
AcDbLinetypeTableRecord
  2
BORDER
 70
    0
  3
Border __ __ . __ __ . __ __ . __ __ . __ __ .
 72
   65
 73
    6
 40
44.45
 49
12.7
 74
    0
 49
-6.35
 74
    0
 49
12.7
 74
    0
 49
-6.35
 74
    0
 49
0
 74
    0
 49
-6.35
 74
    0
  0
LTYPE
  5
43
330
5
100
AcDbSymbolTableRecord
100
AcDbLinetypeTableRecord
  2
BORDERTINY
 70
    0
  3
Border (.15x) __.__.__.__.__.__.__.__.__.__.__.
 72
   65
 73
    6
 40
6.6675
 49
1.905
 74
    0
 49
-0.9525
 74
    0
 49
1.905
 74
    0
 49
-0.9525
 74
    0
 49
0
 74
    0
 49
-0.9525
 74
    0
  0
LTYPE
  5
44
330
5
100
AcDbSymbolTableRecord
100
AcDbLinetypeTableRecord
  2
BORDER2
 70
    0
  3
Border (.5x) __.__.__.__.__.__.__.__.__.__.__.
 72
   65
 73
    6
 40
22.225
 49
6.35
 74
    0
 49
-3.175
 74
    0
 49
6.35
 74
    0
 49
-3.175
 74
    0
 49
0
 74
    0
 49
-3.175
 74
    0
  0
LTYPE
  5
45
330
5
100
AcDbSymbolTableRecord
100
AcDbLinetypeTableRecord
  2
BORDERX2
 70
    0
  3
Border (2x) ____  ____  .  ____  ____  .  ___
 72
   65
 73
    6
 40
88.89999999999999
 49
25.4
 74
    0
 49
-12.7
 74
    0
 49
25.4
 74
    0
 49
-12.7
 74
    0
 49
0
 74
    0
 49
-12.7
 74
    0
  0
LTYPE
  5
46
330
5
100
AcDbSymbolTableRecord
100
AcDbLinetypeTableRecord
  2
CENTER
 70
    0
  3
Center ____ _ ____ _ ____ _ ____ _ ____ _ ____
 72
   65
 73
    4
 40
50.8
 49
31.75
 74
    0
 49
-6.35
 74
    0
 49
6.35
 74
    0
 49
-6.35
 74
    0
  0
LTYPE
  5
47
330
5
100
AcDbSymbolTableRecord
100
AcDbLinetypeTableRecord
  2
CENTERTINY
 70
    0
  3
Center (.15x) ___ _ ___ _ ___ _ ___ _ ___ _ ___
 72
   65
 73
    4
 40
7.619999999999999
 49
4.7625
 74
    0
 49
-0.9525
 74
    0
 49
0.9525
 74
    0
 49
-0.9525
 74
    0
  0
LTYPE
  5
48
330
5
100
AcDbSymbolTableRecord
100
AcDbLinetypeTableRecord
  2
CENTER2
 70
    0
  3
Center (.5x) ___ _ ___ _ ___ _ ___ _ ___ _ ___
 72
   65
 73
    4
 40
28.575
 49
19.05
 74
    0
 49
-3.175
 74
    0
 49
3.175
 74
    0
 49
-3.175
 74
    0
  0
LTYPE
  5
49
330
5
100
AcDbSymbolTableRecord
100
AcDbLinetypeTableRecord
  2
CENTERX2
 70
    0
  3
Center (2x) ________  __  ________  __  _____
 72
   65
 73
    4
 40
101.6
 49
63.5
 74
    0
 49
-12.7
 74
    0
 49
12.7
 74
    0
 49
-12.7
 74
    0
  0
ENDTAB
  0
TABLE
  2
LAYER
  5
2
330
0
100
AcDbSymbolTable
 70
    1
  0
LAYER
  5
10
330
2
100
AcDbSymbolTableRecord
100
AcDbLayerTableRecord
  2
0
 70
    0
 62
    7
  6
CONTINUOUS
370
    0
390
F
  0
LAYER
  5
4A
330
2
100
AcDbSymbolTableRecord
100
AcDbLayerTableRecord
  2
BLACK
 70
    0
 62
    7
  6
CONTINUOUS
370
   -3
390
F
  0
ENDTAB
  0
TABLE
  2
STYLE
  5
3
330
0
100
AcDbSymbolTable
 70
    3
  0
STYLE
  5
4B
330
2
100
AcDbSymbolTableRecord
100
AcDbTextStyleTableRecord
  2
Standard
 70
    0
 40
0
 41
1
 50
0
 71
    0
 42
1
  3
txt
  4

  0
ENDTAB
  0
TABLE
  2
VIEW
  5
6
330
0
100
AcDbSymbolTable
 70
    0
  0
ENDTAB
  0
TABLE
  2
UCS
  5
7
330
0
100
AcDbSymbolTable
 70
    0
  0
ENDTAB
  0
TABLE
  2
APPID
  5
9
330
0
100
AcDbSymbolTable
 70
    1
  0
APPID
  5
12
330
9
100
AcDbSymbolTableRecord
100
AcDbRegAppTableRecord
  2
ACAD
 70
    0
  0
APPID
  5
4C
330
9
100
AcDbSymbolTableRecord
100
AcDbRegAppTableRecord
  2
LibreCad
 70
    0
  0
ENDTAB
  0
TABLE
  2
DIMSTYLE
  5
A
330
0
100
AcDbSymbolTable
 70
    1
100
AcDbDimStyleTable
 71
    1
  0
DIMSTYLE
105
4D
330
A
100
AcDbSymbolTableRecord
100
AcDbDimStyleTableRecord
  2
Standard
 70
    0
 40
2.5
 41
2.5
 42
0.625
 43
0.38
 44
1.25
 45
0
 46
0
 47
0
 48
0
 49
1
140
2.5
141
0.09
142
0
143
25.4
144
1
145
0
146
1
147
0.625
148
0
 71
    0
 72
    0
 73
    0
 74
    1
 75
    0
 76
    0
 77
    0
 78
    8
 79
    0
170
    0
171
    2
172
    0
173
    0
174
    0
175
    0
176
    0
177
    0
178
    0
179
    0
271
    2
272
    4
273
    2
274
    2
275
    0
276
    0
277
    2
278
   44
279
    0
280
    0
281
    0
282
    0
283
    1
284
    0
285
    0
286
    0
288
    0
289
    3
340
STANDARD
341

371
   -2
372
   -2
  0
ENDTAB
  0
TABLE
  2
BLOCK_RECORD
  5
1
330
0
100
AcDbSymbolTable
 70
    2
  0
BLOCK_RECORD
  5
1F
330
1
100
AcDbSymbolTableRecord
100
AcDbBlockTableRecord
  2
*Model_Space
 70
    0
280
    1
281
    0
  0
BLOCK_RECORD
  5
1E
330
1
100
AcDbSymbolTableRecord
100
AcDbBlockTableRecord
  2
*Paper_Space
 70
    0
280
    1
281
    0
  0
BLOCK_RECORD
  5
4E
330
1
100
AcDbSymbolTableRecord
100
AcDbBlockTableRecord
  2
plate-2023-11-09T21_13_35.895Z-0
 70
    0
280
    1
281
    0
  0
ENDTAB
  0
ENDSEC
  0
SECTION
  2
BLOCKS
  0
BLOCK
  5
20
330
1F
100
AcDbEntity
  8
0
100
AcDbBlockBegin
  2
*Model_Space
 70
    0
 10
0
 20
0
 30
0
  3
*Model_Space
  1

  0
ENDBLK
  5
21
330
1F
100
AcDbEntity
  8
0
100
AcDbBlockEnd
  0
BLOCK
  5
1C
330
1B
100
AcDbEntity
  8
0
100
AcDbBlockBegin
  2
*Paper_Space
 70
    0
 10
0
 20
0
 30
0
  3
*Paper_Space
  1

  0
ENDBLK
  5
1D
330
1F
100
AcDbEntity
  8
0
100
AcDbBlockEnd
  0
BLOCK
  5
4F
330
4E
100
AcDbEntity
  8
0
100
AcDbBlockBegin
  2
plate-2023-11-09T21_13_35.895Z-0
 70
    0
 10
0
 20
0
  3
plate-2023-11-09T21_13_35.895Z-0
  1

  0
LINE
  5
51
100
AcDbEntity
  8
0
  6
ByLayer
 62
  256
370
   -1
100
AcDbLine
 10
36.0244095
 20
-51.96626759999999
 11
49.0244095
 21
-51.96626759999999
  0
LINE
  5
52
100
AcDbEntity
  8
0
  6
ByLayer
 62
  256
370
   -1
100
AcDbLine
 10
36.0244095
 20
-65.96626759999998
 11
49.0244095
 21
-65.96626759999998
  0
LINE
  5
53
100
AcDbEntity
  8
0
  6
ByLayer
 62
  256
370
   -1
100
AcDbLine
 10
35.5244095
 20
-52.46626759999999
 11
35.5244095
 21
-65.46626759999998
  0
LINE
  5
54
100
AcDbEntity
  8
0
  6
ByLayer
 62
  256
370
   -1
100
AcDbLine
 10
49.5244095
 20
-52.46626759999999
 11
49.5244095
 21
-65.46626759999998
  0
ARC
  5
55
100
AcDbEntity
  8
0
  6
ByLayer
 62
  256
370
   -1
100
AcDbCircle
 10
36.0244095
 20
-52.46626759999999
 40
0.5
100
AcDbArc
 50
90
 51
180
  0
ARC
  5
56
100
AcDbEntity
  8
0
  6
ByLayer
 62
  256
370
   -1
100
AcDbCircle
 10
49.0244095
 20
-52.46626759999999
 40
0.5
100
AcDbArc
 50
0
 51
90
  0
ARC
  5
57
100
AcDbEntity
  8
0
  6
ByLayer
 62
  256
370
   -1
100
AcDbCircle
 10
36.0244095
 20
-65.46626759999998
 40
0.5
100
AcDbArc
 50
180
 51
270
  0
ARC
  5
58
100
AcDbEntity
  8
0
  6
ByLayer
 62
  256
370
   -1
100
AcDbCircle
 10
49.0244095
 20
-65.46626759999998
 40
0.5
100
AcDbArc
 50
270
 51
0
  0
LINE
  5
59
100
AcDbEntity
  8
0
  6
ByLayer
 62
  256
370
   -1
100
AcDbLine
 10
178.8994095
 20
-51.96626759999999
 11
191.8994095
 21
-51.96626759999999
  0
LINE
  5
5A
100
AcDbEntity
  8
0
  6
ByLayer
 62
  256
370
   -1
100
AcDbLine
 10
178.8994095
 20
-65.96626759999998
 11
191.8994095
 21
-65.96626759999998
  0
LINE
  5
5B
100
AcDbEntity
  8
0
  6
ByLayer
 62
  256
370
   -1
100
AcDbLine
 10
178.3994095
 20
-52.46626759999999
 11
178.3994095
 21
-65.46626759999998
  0
LINE
  5
5C
100
AcDbEntity
  8
0
  6
ByLayer
 62
  256
370
   -1
100
AcDbLine
 10
192.3994095
 20
-52.46626759999999
 11
192.3994095
 21
-65.46626759999998
  0
ARC
  5
5D
100
AcDbEntity
  8
0
  6
ByLayer
 62
  256
370
   -1
100
AcDbCircle
 10
178.8994095
 20
-52.46626759999999
 40
0.5
100
AcDbArc
 50
90
 51
180
  0
ARC
  5
5E
100
AcDbEntity
  8
0
  6
ByLayer
 62
  256
370
   -1
100
AcDbCircle
 10
191.8994095
 20
-52.46626759999999
 40
0.5
100
AcDbArc
 50
0
 51
90
  0
ARC
  5
5F
100
AcDbEntity
  8
0
  6
ByLayer
 62
  256
370
   -1
100
AcDbCircle
 10
178.8994095
 20
-65.46626759999998
 40
0.5
100
AcDbArc
 50
180
 51
270
  0
ARC
  5
60
100
AcDbEntity
  8
0
  6
ByLayer
 62
  256
370
   -1
100
AcDbCircle
 10
191.8994095
 20
-65.46626759999998
 40
0.5
100
AcDbArc
 50
270
 51
0
  0
LINE
  5
61
100
AcDbEntity
  8
0
  6
ByLayer
 62
  256
370
   -1
100
AcDbLine
 10
53.57704819999999
 20
12.16881480000001
 11
66.379549
 21
9.911388500000008
  0
LINE
  5
62
100
AcDbEntity
  8
0
  6
ByLayer
 62
  256
370
   -1
100
AcDbLine
 10
51.14597379999999
 20
-1.618493699999995
 11
63.9484746
 21
-3.875919999999994
  0
LINE
  5
63
100
AcDbEntity
  8
0
  6
ByLayer
 62
  256
370
   -1
100
AcDbLine
 10
52.9978203
 20
11.76323500000001
 11
50.74039399999999
 21
-1.039265799999992
  0
LINE
  5
64
100
AcDbEntity
  8
0
  6
ByLayer
 62
  256
370
   -1
100
AcDbLine
 10
66.7851288
 20
9.332160600000005
 11
64.5277025
 21
-3.470340199999992
  0
ARC
  5
65
100
AcDbEntity
  8
0
  6
ByLayer
 62
  256
370
   -1
100
AcDbCircle
 10
53.4902242
 20
11.67641090000001
 40
0.5
100
AcDbArc
 50
80
 51
170
  0
ARC
  5
66
100
AcDbEntity
  8
0
  6
ByLayer
 62
  256
370
   -1
100
AcDbCircle
 10
66.2927249
 20
9.418984600000005
 40
0.5
100
AcDbArc
 50
350
 51
80
  0
ARC
  5
67
100
AcDbEntity
  8
0
  6
ByLayer
 62
  256
370
   -1
100
AcDbCircle
 10
51.23279789999999
 20
-1.126089799999992
 40
0.5
100
AcDbArc
 50
170
 51
260
  0
ARC
  5
68
100
AcDbEntity
  8
0
  6
ByLayer
 62
  256
370
   -1
100
AcDbCircle
 10
64.0352986
 20
-3.383516099999994
 40
0.5
100
AcDbArc
 50
260
 51
350
  0
LINE
  5
69
100
AcDbEntity
  8
0
  6
ByLayer
 62
  256
370
   -1
100
AcDbLine
 10
33.989461
 20
10.78666570000001
 11
46.7919618
 21
8.529239400000005
  0
LINE
  5
6A
100
AcDbEntity
  8
0
  6
ByLayer
 62
  256
370
   -1
100
AcDbLine
 10
31.5583866
 20
-3.000642799999994
 11
44.3608874
 21
-5.258069099999993
  0
LINE
  5
6B
100
AcDbEntity
  8
0
  6
ByLayer
 62
  256
370
   -1
100
AcDbLine
 10
33.4102331
 20
10.38108590000001
 11
31.1528068
 21
-2.421414899999995
  0
LINE
  5
6C
100
AcDbEntity
  8
0
  6
ByLayer
 62
  256
370
   -1
100
AcDbLine
 10
47.1975416
 20
7.950011500000006
 11
44.9401153
 21
-4.852489299999995
  0
ARC
  5
6D
100
AcDbEntity
  8
0
  6
ByLayer
 62
  256
370
   -1
100
AcDbCircle
 10
33.902637
 20
10.29426180000001
 40
0.5
100
AcDbArc
 50
80
 51
170
  0
ARC
  5
6E
100
AcDbEntity
  8
0
  6
ByLayer
 62
  256
370
   -1
100
AcDbCircle
 10
46.7051377
 20
8.036835500000006
 40
0.5
100
AcDbArc
 50
350
 51
80
  0
ARC
  5
6F
100
AcDbEntity
  8
0
  6
ByLayer
 62
  256
370
   -1
100
AcDbCircle
 10
31.6452107
 20
-2.508238899999995
 40
0.5
100
AcDbArc
 50
170
 51
260
  0
ARC
  5
70
100
AcDbEntity
  8
0
  6
ByLayer
 62
  256
370
   -1
100
AcDbCircle
 10
44.4477114
 20
-4.765665199999994
 40
0.5
100
AcDbArc
 50
260
 51
350
  0
LINE
  5
71
100
AcDbEntity
  8
0
  6
ByLayer
 62
  256
370
   -1
100
AcDbLine
 10
71.5106364
 20
4.170670100000006
 11
84.3131372
 21
1.913243800000007
  0
LINE
  5
72
100
AcDbEntity
  8
0
  6
ByLayer
 62
  256
370
   -1
100
AcDbLine
 10
69.079562
 20
-9.616638399999992
 11
81.8820628
 21
-11.87406469999999
  0
LINE
  5
73
100
AcDbEntity
  8
0
  6
ByLayer
 62
  256
370
   -1
100
AcDbLine
 10
70.9314085
 20
3.765090300000008
 11
68.6739822
 21
-9.037410499999993
  0
LINE
  5
74
100
AcDbEntity
  8
0
  6
ByLayer
 62
  256
370
   -1
100
AcDbLine
 10
84.718717
 20
1.334015900000008
 11
82.46129069999999
 21
-11.46848489999999
  0
ARC
  5
75
100
AcDbEntity
  8
0
  6
ByLayer
 62
  256
370
   -1
100
AcDbCircle
 10
71.4238124
 20
3.678266200000007
 40
0.5
100
AcDbArc
 50
80
 51
170
  0
ARC
  5
76
100
AcDbEntity
  8
0
  6
ByLayer
 62
  256
370
   -1
100
AcDbCircle
 10
84.2263131
 20
1.420839900000008
 40
0.5
100
AcDbArc
 50
350
 51
80
  0
ARC
  5
77
100
AcDbEntity
  8
0
  6
ByLayer
 62
  256
370
   -1
100
AcDbCircle
 10
69.1663861
 20
-9.124234499999993
 40
0.5
100
AcDbArc
 50
170
 51
260
  0
ARC
  5
78
100
AcDbEntity
  8
0
  6
ByLayer
 62
  256
370
   -1
100
AcDbCircle
 10
81.96888679999999
 20
-11.38166079999999
 40
0.5
100
AcDbArc
 50
260
 51
350
  0
LINE
  5
79
100
AcDbEntity
  8
0
  6
ByLayer
 62
  256
370
   -1
100
AcDbLine
 10
14.4018739
 20
9.404516500000007
 11
27.2043747
 21
7.147090200000008
  0
LINE
  5
7A
100
AcDbEntity
  8
0
  6
ByLayer
 62
  256
370
   -1
100
AcDbLine
 10
11.9707995
 20
-4.382791999999995
 11
24.7733003
 21
-6.640218299999994
  0
LINE
  5
7B
100
AcDbEntity
  8
0
  6
ByLayer
 62
  256
370
   -1
100
AcDbLine
 10
13.822646
 20
8.998936700000005
 11
11.5652197
 21
-3.803564099999992
  0
LINE
  5
7C
100
AcDbEntity
  8
0
  6
ByLayer
 62
  256
370
   -1
100
AcDbLine
 10
27.6099545
 20
6.567862300000005
 11
25.3525282
 21
-6.234638499999996
  0
ARC
  5
7D
100
AcDbEntity
  8
0
  6
ByLayer
 62
  256
370
   -1
100
AcDbCircle
 10
14.3150499
 20
8.912112600000007
 40
0.5
100
AcDbArc
 50
80
 51
170
  0
ARC
  5
7E
100
AcDbEntity
  8
0
  6
ByLayer
 62
  256
370
   -1
100
AcDbCircle
 10
27.1175506
 20
6.654686300000005
 40
0.5
100
AcDbArc
 50
350
 51
80
  0
ARC
  5
7F
100
AcDbEntity
  8
0
  6
ByLayer
 62
  256
370
   -1
100
AcDbCircle
 10
12.0576236
 20
-3.890388099999992
 40
0.5
100
AcDbArc
 50
170
 51
260
  0
ARC
  5
80
100
AcDbEntity
  8
0
  6
ByLayer
 62
  256
370
   -1
100
AcDbCircle
 10
24.8601243
 20
-6.147814399999994
 40
0.5
100
AcDbArc
 50
260
 51
350
  0
LINE
  5
81
100
AcDbEntity
  8
0
  6
ByLayer
 62
  256
370
   -1
100
AcDbLine
 10
89.44422469999999
 20
-3.827474599999995
 11
102.2467255
 21
-6.084900899999994
  0
LINE
  5
82
100
AcDbEntity
  8
0
  6
ByLayer
 62
  256
370
   -1
100
AcDbLine
 10
87.01315029999999
 20
-17.6147831
 11
99.8156511
 21
-19.8722094
  0
LINE
  5
83
100
AcDbEntity
  8
0
  6
ByLayer
 62
  256
370
   -1
100
AcDbLine
 10
88.8649968
 20
-4.233054399999993
 11
86.60757049999999
 21
-17.03555519999999
  0
LINE
  5
84
100
AcDbEntity
  8
0
  6
ByLayer
 62
  256
370
   -1
100
AcDbLine
 10
102.6523053
 20
-6.664128799999993
 11
100.394879
 21
-19.46662959999999
  0
ARC
  5
85
100
AcDbEntity
  8
0
  6
ByLayer
 62
  256
370
   -1
100
AcDbCircle
 10
89.3574007
 20
-4.319878499999994
 40
0.5
100
AcDbArc
 50
80
 51
170
  0
ARC
  5
86
100
AcDbEntity
  8
0
  6
ByLayer
 62
  256
370
   -1
100
AcDbCircle
 10
102.1599014
 20
-6.577304799999993
 40
0.5
100
AcDbArc
 50
350
 51
80
  0
ARC
  5
87
100
AcDbEntity
  8
0
  6
ByLayer
 62
  256
370
   -1
100
AcDbCircle
 10
87.09997439999999
 20
-17.12237919999999
 40
0.5
100
AcDbArc
 50
170
 51
260
  0
ARC
  5
88
100
AcDbEntity
  8
0
  6
ByLayer
 62
  256
370
   -1
100
AcDbCircle
 10
99.9024751
 20
-19.3798055
 40
0.5
100
AcDbArc
 50
260
 51
350
  0
LINE
  5
89
100
AcDbEntity
  8
0
  6
ByLayer
 62
  256
370
   -1
100
AcDbLine
 10
-5.185713200000002
 20
8.022367400000007
 11
7.616787599999999
 21
5.764941100000005
  0
LINE
  5
8A
100
AcDbEntity
  8
0
  6
ByLayer
 62
  256
370
   -1
100
AcDbLine
 10
-7.616787600000001
 20
-5.764941099999994
 11
5.185713199999999
 21
-8.022367399999993
  0
LINE
  5
8B
100
AcDbEntity
  8
0
  6
ByLayer
 62
  256
370
   -1
100
AcDbLine
 10
-5.764941100000001
 20
7.616787600000006
 11
-8.0223674
 21
-5.185713199999995
  0
LINE
  5
8C
100
AcDbEntity
  8
0
  6
ByLayer
 62
  256
370
   -1
100
AcDbLine
 10
8.0223674
 20
5.185713200000006
 11
5.764941099999998
 21
-7.616787599999995
  0
ARC
  5
8D
100
AcDbEntity
  8
0
  6
ByLayer
 62
  256
370
   -1
100
AcDbCircle
 10
-5.272537200000002
 20
7.529963500000008
 40
0.5
100
AcDbArc
 50
80
 51
170
  0
ARC
  5
8E
100
AcDbEntity
  8
0
  6
ByLayer
 62
  256
370
   -1
100
AcDbCircle
 10
7.529963499999997
 20
5.272537200000006
 40
0.5
100
AcDbArc
 50
350
 51
80
  0
ARC
  5
8F
100
AcDbEntity
  8
0
  6
ByLayer
 62
  256
370
   -1
100
AcDbCircle
 10
-7.529963500000001
 20
-5.272537199999995
 40
0.5
100
AcDbArc
 50
170
 51
260
  0
ARC
  5
90
100
AcDbEntity
  8
0
  6
ByLayer
 62
  256
370
   -1
100
AcDbCircle
 10
5.272537199999999
 20
-7.529963499999994
 40
0.5
100
AcDbArc
 50
260
 51
350
  0
LINE
  5
91
100
AcDbEntity
  8
0
  6
ByLayer
 62
  256
370
   -1
100
AcDbLine
 10
50.2690504
 20
-6.591772899999995
 11
63.0715512
 21
-8.849199199999994
  0
LINE
  5
92
100
AcDbEntity
  8
0
  6
ByLayer
 62
  256
370
   -1
100
AcDbLine
 10
47.837976
 20
-20.3790814
 11
60.6404768
 21
-22.6365077
  0
LINE
  5
93
100
AcDbEntity
  8
0
  6
ByLayer
 62
  256
370
   -1
100
AcDbLine
 10
49.68982250000001
 20
-6.997352699999993
 11
47.4323962
 21
-19.79985349999999
  0
LINE
  5
94
100
AcDbEntity
  8
0
  6
ByLayer
 62
  256
370
   -1
100
AcDbLine
 10
63.477131
 20
-9.428427099999993
 11
61.21970469999999
 21
-22.23092789999999
  0
ARC
  5
95
100
AcDbEntity
  8
0
  6
ByLayer
 62
  256
370
   -1
100
AcDbCircle
 10
50.1822264
 20
-7.084176799999995
 40
0.5
100
AcDbArc
 50
80
 51
170
  0
ARC
  5
96
100
AcDbEntity
  8
0
  6
ByLayer
 62
  256
370
   -1
100
AcDbCircle
 10
62.9847271
 20
-9.341603099999993
 40
0.5
100
AcDbArc
 50
350
 51
80
  0
ARC
  5
97
100
AcDbEntity
  8
0
  6
ByLayer
 62
  256
370
   -1
100
AcDbCircle
 10
47.9248001
 20
-19.88667749999999
 40
0.5
100
AcDbArc
 50
170
 51
260
  0
ARC
  5
98
100
AcDbEntity
  8
0
  6
ByLayer
 62
  256
370
   -1
100
AcDbCircle
 10
60.72730079999999
 20
-22.1441038
 40
0.5
100
AcDbArc
 50
260
 51
350
  0
LINE
  5
99
100
AcDbEntity
  8
0
  6
ByLayer
 62
  256
370
   -1
100
AcDbLine
 10
30.6814633
 20
-7.973921999999995
 11
43.4839641
 21
-10.23134829999999
  0
LINE
  5
9A
100
AcDbEntity
  8
0
  6
ByLayer
 62
  256
370
   -1
100
AcDbLine
 10
28.2503889
 20
-21.7612305
 11
41.0528897
 21
-24.0186568
  0
LINE
  5
9B
100
AcDbEntity
  8
0
  6
ByLayer
 62
  256
370
   -1
100
AcDbLine
 10
30.1022354
 20
-8.379501799999993
 11
27.8448091
 21
-21.18200259999999
  0
LINE
  5
9C
100
AcDbEntity
  8
0
  6
ByLayer
 62
  256
370
   -1
100
AcDbLine
 10
43.8895439
 20
-10.81057619999999
 11
41.6321176
 21
-23.61307699999999
  0
ARC
  5
9D
100
AcDbEntity
  8
0
  6
ByLayer
 62
  256
370
   -1
100
AcDbCircle
 10
30.5946393
 20
-8.466325899999994
 40
0.5
100
AcDbArc
 50
80
 51
170
  0
ARC
  5
9E
100
AcDbEntity
  8
0
  6
ByLayer
 62
  256
370
   -1
100
AcDbCircle
 10
43.39714
 20
-10.72375219999999
 40
0.5
100
AcDbArc
 50
350
 51
80
  0
ARC
  5
9F
100
AcDbEntity
  8
0
  6
ByLayer
 62
  256
370
   -1
100
AcDbCircle
 10
28.337213
 20
-21.26882659999999
 40
0.5
100
AcDbArc
 50
170
 51
260
  0
ARC
  5
A0
100
AcDbEntity
  8
0
  6
ByLayer
 62
  256
370
   -1
100
AcDbCircle
 10
41.1397137
 20
-23.5262529
 40
0.5
100
AcDbArc
 50
260
 51
350
  0
LINE
  5
A1
100
AcDbEntity
  8
0
  6
ByLayer
 62
  256
370
   -1
100
AcDbLine
 10
68.20263869999999
 20
-14.58991759999999
 11
81.0051395
 21
-16.84734389999999
  0
LINE
  5
A2
100
AcDbEntity
  8
0
  6
ByLayer
 62
  256
370
   -1
100
AcDbLine
 10
65.77156429999999
 20
-28.37722609999999
 11
78.5740651
 21
-30.63465239999999
  0
LINE
  5
A3
100
AcDbEntity
  8
0
  6
ByLayer
 62
  256
370
   -1
100
AcDbLine
 10
67.6234108
 20
-14.99549739999999
 11
65.3659845
 21
-27.79799819999999
  0
LINE
  5
A4
100
AcDbEntity
  8
0
  6
ByLayer
 62
  256
370
   -1
100
AcDbLine
 10
81.4107193
 20
-17.42657179999999
 11
79.15329300000001
 21
-30.22907259999999
  0
ARC
  5
A5
100
AcDbEntity
  8
0
  6
ByLayer
 62
  256
370
   -1
100
AcDbCircle
 10
68.1158147
 20
-15.08232149999999
 40
0.5
100
AcDbArc
 50
80
 51
170
  0
ARC
  5
A6
100
AcDbEntity
  8
0
  6
ByLayer
 62
  256
370
   -1
100
AcDbCircle
 10
80.9183154
 20
-17.33974779999999
 40
0.5
100
AcDbArc
 50
350
 51
80
  0
ARC
  5
A7
100
AcDbEntity
  8
0
  6
ByLayer
 62
  256
370
   -1
100
AcDbCircle
 10
65.8583884
 20
-27.8848222
 40
0.5
100
AcDbArc
 50
170
 51
260
  0
ARC
  5
A8
100
AcDbEntity
  8
0
  6
ByLayer
 62
  256
370
   -1
100
AcDbCircle
 10
78.66088910000001
 20
-30.14224849999999
 40
0.5
100
AcDbArc
 50
260
 51
350
  0
LINE
  5
A9
100
AcDbEntity
  8
0
  6
ByLayer
 62
  256
370
   -1
100
AcDbLine
 10
11.0938761
 20
-9.356071199999995
 11
23.8963769
 21
-11.61349749999999
  0
LINE
  5
AA
100
AcDbEntity
  8
0
  6
ByLayer
 62
  256
370
   -1
100
AcDbLine
 10
8.662801699999999
 20
-23.14337969999999
 11
21.4653025
 21
-25.400806
  0
LINE
  5
AB
100
AcDbEntity
  8
0
  6
ByLayer
 62
  256
370
   -1
100
AcDbLine
 10
10.5146482
 20
-9.761650999999993
 11
8.257221899999998
 21
-22.56415179999999
  0
LINE
  5
AC
100
AcDbEntity
  8
0
  6
ByLayer
 62
  256
370
   -1
100
AcDbLine
 10
24.3019567
 20
-12.19272539999999
 11
22.0445304
 21
-24.99522619999999
  0
ARC
  5
AD
100
AcDbEntity
  8
0
  6
ByLayer
 62
  256
370
   -1
100
AcDbCircle
 10
11.0070521
 20
-9.848475099999995
 40
0.5
100
AcDbArc
 50
80
 51
170
  0
ARC
  5
AE
100
AcDbEntity
  8
0
  6
ByLayer
 62
  256
370
   -1
100
AcDbCircle
 10
23.8095528
 20
-12.10590139999999
 40
0.5
100
AcDbArc
 50
350
 51
80
  0
ARC
  5
AF
100
AcDbEntity
  8
0
  6
ByLayer
 62
  256
370
   -1
100
AcDbCircle
 10
8.7496258
 20
-22.65097579999999
 40
0.5
100
AcDbArc
 50
170
 51
260
  0
ARC
  5
B0
100
AcDbEntity
  8
0
  6
ByLayer
 62
  256
370
   -1
100
AcDbCircle
 10
21.5521265
 20
-24.9084021
 40
0.5
100
AcDbArc
 50
260
 51
350
  0
LINE
  5
B1
100
AcDbEntity
  8
0
  6
ByLayer
 62
  256
370
   -1
100
AcDbLine
 10
86.1362269
 20
-22.58806229999999
 11
98.9387277
 21
-24.8454886
  0
LINE
  5
B2
100
AcDbEntity
  8
0
  6
ByLayer
 62
  256
370
   -1
100
AcDbLine
 10
83.7051525
 20
-36.37537079999999
 11
96.5076533
 21
-38.6327971
  0
LINE
  5
B3
100
AcDbEntity
  8
0
  6
ByLayer
 62
  256
370
   -1
100
AcDbLine
 10
85.556999
 20
-22.9936421
 11
83.2995727
 21
-35.79614289999999
  0
LINE
  5
B4
100
AcDbEntity
  8
0
  6
ByLayer
 62
  256
370
   -1
100
AcDbLine
 10
99.3443075
 20
-25.4247165
 11
97.08688119999999
 21
-38.2272173
  0
ARC
  5
B5
100
AcDbEntity
  8
0
  6
ByLayer
 62
  256
370
   -1
100
AcDbCircle
 10
86.0494029
 20
-23.0804662
 40
0.5
100
AcDbArc
 50
80
 51
170
  0
ARC
  5
B6
100
AcDbEntity
  8
0
  6
ByLayer
 62
  256
370
   -1
100
AcDbCircle
 10
98.8519036
 20
-25.3378925
 40
0.5
100
AcDbArc
 50
350
 51
80
  0
ARC
  5
B7
100
AcDbEntity
  8
0
  6
ByLayer
 62
  256
370
   -1
100
AcDbCircle
 10
83.7919766
 20
-35.88296689999999
 40
0.5
100
AcDbArc
 50
170
 51
260
  0
ARC
  5
B8
100
AcDbEntity
  8
0
  6
ByLayer
 62
  256
370
   -1
100
AcDbCircle
 10
96.59447729999999
 20
-38.1403932
 40
0.5
100
AcDbArc
 50
260
 51
350
  0
LINE
  5
B9
100
AcDbEntity
  8
0
  6
ByLayer
 62
  256
370
   -1
100
AcDbLine
 10
-8.493711000000001
 20
-10.73822029999999
 11
4.3087898
 21
-12.99564659999999
  0
LINE
  5
BA
100
AcDbEntity
  8
0
  6
ByLayer
 62
  256
370
   -1
100
AcDbLine
 10
-10.9247854
 20
-24.5255288
 11
1.8777154
 21
-26.7829551
  0
LINE
  5
BB
100
AcDbEntity
  8
0
  6
ByLayer
 62
  256
370
   -1
100
AcDbLine
 10
-9.0729389
 20
-11.14380009999999
 11
-11.3303652
 21
-23.94630089999999
  0
LINE
  5
BC
100
AcDbEntity
  8
0
  6
ByLayer
 62
  256
370
   -1
100
AcDbLine
 10
4.714369599999998
 20
-13.57487449999999
 11
2.456943299999999
 21
-26.37737529999999
  0
ARC
  5
BD
100
AcDbEntity
  8
0
  6
ByLayer
 62
  256
370
   -1
100
AcDbCircle
 10
-8.580535000000001
 20
-11.23062419999999
 40
0.5
100
AcDbArc
 50
80
 51
170
  0
ARC
  5
BE
100
AcDbEntity
  8
0
  6
ByLayer
 62
  256
370
   -1
100
AcDbCircle
 10
4.221965699999998
 20
-13.48805049999999
 40
0.5
100
AcDbArc
 50
350
 51
80
  0
ARC
  5
BF
100
AcDbEntity
  8
0
  6
ByLayer
 62
  256
370
   -1
100
AcDbCircle
 10
-10.8379613
 20
-24.03312489999999
 40
0.5
100
AcDbArc
 50
170
 51
260
  0
ARC
  5
C0
100
AcDbEntity
  8
0
  6
ByLayer
 62
  256
370
   -1
100
AcDbCircle
 10
1.9645394
 20
-26.2905512
 40
0.5
100
AcDbArc
 50
260
 51
350
  0
LINE
  5
C1
100
AcDbEntity
  8
0
  6
ByLayer
 62
  256
370
   -1
100
AcDbLine
 10
46.9610526
 20
-25.35236059999999
 11
59.76355339999999
 21
-27.6097869
  0
LINE
  5
C2
100
AcDbEntity
  8
0
  6
ByLayer
 62
  256
370
   -1
100
AcDbLine
 10
44.5299782
 20
-39.1396691
 11
57.33247899999999
 21
-41.39709539999999
  0
LINE
  5
C3
100
AcDbEntity
  8
0
  6
ByLayer
 62
  256
370
   -1
100
AcDbLine
 10
46.3818247
 20
-25.7579404
 11
44.1243984
 21
-38.56044119999999
  0
LINE
  5
C4
100
AcDbEntity
  8
0
  6
ByLayer
 62
  256
370
   -1
100
AcDbLine
 10
60.1691332
 20
-28.1890148
 11
57.9117069
 21
-40.99151559999999
  0
ARC
  5
C5
100
AcDbEntity
  8
0
  6
ByLayer
 62
  256
370
   -1
100
AcDbCircle
 10
46.8742286
 20
-25.8447645
 40
0.5
100
AcDbArc
 50
80
 51
170
  0
ARC
  5
C6
100
AcDbEntity
  8
0
  6
ByLayer
 62
  256
370
   -1
100
AcDbCircle
 10
59.67672930000001
 20
-28.1021908
 40
0.5
100
AcDbArc
 50
350
 51
80
  0
ARC
  5
C7
100
AcDbEntity
  8
0
  6
ByLayer
 62
  256
370
   -1
100
AcDbCircle
 10
44.6168023
 20
-38.6472652
 40
0.5
100
AcDbArc
 50
170
 51
260
  0
ARC
  5
C8
100
AcDbEntity
  8
0
  6
ByLayer
 62
  256
370
   -1
100
AcDbCircle
 10
57.419303
 20
-40.90469149999999
 40
0.5
100
AcDbArc
 50
260
 51
350
  0
LINE
  5
C9
100
AcDbEntity
  8
0
  6
ByLayer
 62
  256
370
   -1
100
AcDbLine
 10
27.3734655
 20
-26.7345097
 11
40.1759663
 21
-28.991936
  0
LINE
  5
CA
100
AcDbEntity
  8
0
  6
ByLayer
 62
  256
370
   -1
100
AcDbLine
 10
24.9423911
 20
-40.52181819999999
 11
37.7448919
 21
-42.7792445
  0
LINE
  5
CB
100
AcDbEntity
  8
0
  6
ByLayer
 62
  256
370
   -1
100
AcDbLine
 10
26.7942376
 20
-27.14008949999999
 11
24.5368113
 21
-39.9425903
  0
LINE
  5
CC
100
AcDbEntity
  8
0
  6
ByLayer
 62
  256
370
   -1
100
AcDbLine
 10
40.5815461
 20
-29.57116389999999
 11
38.3241198
 21
-42.3736647
  0
ARC
  5
CD
100
AcDbEntity
  8
0
  6
ByLayer
 62
  256
370
   -1
100
AcDbCircle
 10
27.2866415
 20
-27.2269136
 40
0.5
100
AcDbArc
 50
80
 51
170
  0
ARC
  5
CE
100
AcDbEntity
  8
0
  6
ByLayer
 62
  256
370
   -1
100
AcDbCircle
 10
40.0891422
 20
-29.48433989999999
 40
0.5
100
AcDbArc
 50
350
 51
80
  0
ARC
  5
CF
100
AcDbEntity
  8
0
  6
ByLayer
 62
  256
370
   -1
100
AcDbCircle
 10
25.0292152
 20
-40.02941429999999
 40
0.5
100
AcDbArc
 50
170
 51
260
  0
ARC
  5
D0
100
AcDbEntity
  8
0
  6
ByLayer
 62
  256
370
   -1
100
AcDbCircle
 10
37.8317159
 20
-42.2868406
 40
0.5
100
AcDbArc
 50
260
 51
350
  0
LINE
  5
D1
100
AcDbEntity
  8
0
  6
ByLayer
 62
  256
370
   -1
100
AcDbLine
 10
64.8946409
 20
-33.35050529999999
 11
77.6971417
 21
-35.60793159999999
  0
LINE
  5
D2
100
AcDbEntity
  8
0
  6
ByLayer
 62
  256
370
   -1
100
AcDbLine
 10
62.4635665
 20
-47.1378138
 11
75.2660673
 21
-49.39524009999999
  0
LINE
  5
D3
100
AcDbEntity
  8
0
  6
ByLayer
 62
  256
370
   -1
100
AcDbLine
 10
64.31541299999999
 20
-33.75608509999999
 11
62.0579867
 21
-46.55858589999999
  0
LINE
  5
D4
100
AcDbEntity
  8
0
  6
ByLayer
 62
  256
370
   -1
100
AcDbLine
 10
78.1027215
 20
-36.18715949999999
 11
75.8452952
 21
-48.98966029999999
  0
ARC
  5
D5
100
AcDbEntity
  8
0
  6
ByLayer
 62
  256
370
   -1
100
AcDbCircle
 10
64.80781689999999
 20
-33.84290919999999
 40
0.5
100
AcDbArc
 50
80
 51
170
  0
ARC
  5
D6
100
AcDbEntity
  8
0
  6
ByLayer
 62
  256
370
   -1
100
AcDbCircle
 10
77.6103176
 20
-36.10033549999999
 40
0.5
100
AcDbArc
 50
350
 51
80
  0
ARC
  5
D7
100
AcDbEntity
  8
0
  6
ByLayer
 62
  256
370
   -1
100
AcDbCircle
 10
62.5503906
 20
-46.6454099
 40
0.5
100
AcDbArc
 50
170
 51
260
  0
ARC
  5
D8
100
AcDbEntity
  8
0
  6
ByLayer
 62
  256
370
   -1
100
AcDbCircle
 10
75.3528913
 20
-48.90283619999999
 40
0.5
100
AcDbArc
 50
260
 51
350
  0
LINE
  5
D9
100
AcDbEntity
  8
0
  6
ByLayer
 62
  256
370
   -1
100
AcDbLine
 10
7.7858783
 20
-28.11665889999999
 11
20.5883791
 21
-30.3740852
  0
LINE
  5
DA
100
AcDbEntity
  8
0
  6
ByLayer
 62
  256
370
   -1
100
AcDbLine
 10
5.3548039
 20
-41.90396739999999
 11
18.1573047
 21
-44.1613937
  0
LINE
  5
DB
100
AcDbEntity
  8
0
  6
ByLayer
 62
  256
370
   -1
100
AcDbLine
 10
7.206650399999997
 20
-28.5222387
 11
4.949224099999999
 21
-41.3247395
  0
LINE
  5
DC
100
AcDbEntity
  8
0
  6
ByLayer
 62
  256
370
   -1
100
AcDbLine
 10
20.9939589
 20
-30.9533131
 11
18.7365326
 21
-43.7558139
  0
ARC
  5
DD
100
AcDbEntity
  8
0
  6
ByLayer
 62
  256
370
   -1
100
AcDbCircle
 10
7.6990543
 20
-28.6090628
 40
0.5
100
AcDbArc
 50
80
 51
170
  0
ARC
  5
DE
100
AcDbEntity
  8
0
  6
ByLayer
 62
  256
370
   -1
100
AcDbCircle
 10
20.501555
 20
-30.8664891
 40
0.5
100
AcDbArc
 50
350
 51
80
  0
ARC
  5
DF
100
AcDbEntity
  8
0
  6
ByLayer
 62
  256
370
   -1
100
AcDbCircle
 10
5.441627999999998
 20
-41.41156349999999
 40
0.5
100
AcDbArc
 50
170
 51
260
  0
ARC
  5
E0
100
AcDbEntity
  8
0
  6
ByLayer
 62
  256
370
   -1
100
AcDbCircle
 10
18.2441287
 20
-43.6689898
 40
0.5
100
AcDbArc
 50
260
 51
350
  0
LINE
  5
E1
100
AcDbEntity
  8
0
  6
ByLayer
 62
  256
370
   -1
100
AcDbLine
 10
82.8282291
 20
-41.34865
 11
95.63072990000001
 21
-43.60607629999999
  0
LINE
  5
E2
100
AcDbEntity
  8
0
  6
ByLayer
 62
  256
370
   -1
100
AcDbLine
 10
80.3971547
 20
-55.13595849999999
 11
93.19965550000001
 21
-57.3933848
  0
LINE
  5
E3
100
AcDbEntity
  8
0
  6
ByLayer
 62
  256
370
   -1
100
AcDbLine
 10
82.2490012
 20
-41.7542298
 11
79.9915749
 21
-54.55673059999999
  0
LINE
  5
E4
100
AcDbEntity
  8
0
  6
ByLayer
 62
  256
370
   -1
100
AcDbLine
 10
96.0363097
 20
-44.1853042
 11
93.7788834
 21
-56.98780499999999
  0
ARC
  5
E5
100
AcDbEntity
  8
0
  6
ByLayer
 62
  256
370
   -1
100
AcDbCircle
 10
82.74140509999999
 20
-41.8410539
 40
0.5
100
AcDbArc
 50
80
 51
170
  0
ARC
  5
E6
100
AcDbEntity
  8
0
  6
ByLayer
 62
  256
370
   -1
100
AcDbCircle
 10
95.5439058
 20
-44.09848019999999
 40
0.5
100
AcDbArc
 50
350
 51
80
  0
ARC
  5
E7
100
AcDbEntity
  8
0
  6
ByLayer
 62
  256
370
   -1
100
AcDbCircle
 10
80.4839788
 20
-54.64355459999999
 40
0.5
100
AcDbArc
 50
170
 51
260
  0
ARC
  5
E8
100
AcDbEntity
  8
0
  6
ByLayer
 62
  256
370
   -1
100
AcDbCircle
 10
93.2864795
 20
-56.9009809
 40
0.5
100
AcDbArc
 50
260
 51
350
  0
LINE
  5
E9
100
AcDbEntity
  8
0
  6
ByLayer
 62
  256
370
   -1
100
AcDbLine
 10
-11.8017088
 20
-29.498808
 11
1.000791999999999
 21
-31.7562343
  0
LINE
  5
EA
100
AcDbEntity
  8
0
  6
ByLayer
 62
  256
370
   -1
100
AcDbLine
 10
-14.2327832
 20
-43.2861165
 11
-1.430282400000001
 21
-45.54354279999999
  0
LINE
  5
EB
100
AcDbEntity
  8
0
  6
ByLayer
 62
  256
370
   -1
100
AcDbLine
 10
-12.3809367
 20
-29.90438779999999
 11
-14.638363
 21
-42.70688859999999
  0
LINE
  5
EC
100
AcDbEntity
  8
0
  6
ByLayer
 62
  256
370
   -1
100
AcDbLine
 10
1.406371799999999
 20
-32.33546219999999
 11
-0.8510545000000018
 21
-45.13796299999999
  0
ARC
  5
ED
100
AcDbEntity
  8
0
  6
ByLayer
 62
  256
370
   -1
100
AcDbCircle
 10
-11.8885328
 20
-29.9912119
 40
0.5
100
AcDbArc
 50
80
 51
170
  0
ARC
  5
EE
100
AcDbEntity
  8
0
  6
ByLayer
 62
  256
370
   -1
100
AcDbCircle
 10
0.9139678999999994
 20
-32.24863819999999
 40
0.5
100
AcDbArc
 50
350
 51
80
  0
ARC
  5
EF
100
AcDbEntity
  8
0
  6
ByLayer
 62
  256
370
   -1
100
AcDbCircle
 10
-14.1459591
 20
-42.7937126
 40
0.5
100
AcDbArc
 50
170
 51
260
  0
ARC
  5
F0
100
AcDbEntity
  8
0
  6
ByLayer
 62
  256
370
   -1
100
AcDbCircle
 10
-1.343458400000001
 20
-45.05113889999999
 40
0.5
100
AcDbArc
 50
260
 51
350
  0
LINE
  5
F1
100
AcDbEntity
  8
0
  6
ByLayer
 62
  256
370
   -1
100
AcDbLine
 10
64.6227911
 20
-62.31838629999999
 11
77.4252919
 21
-64.57581260000001
  0
LINE
  5
F2
100
AcDbEntity
  8
0
  6
ByLayer
 62
  256
370
   -1
100
AcDbLine
 10
62.1917167
 20
-76.10569479999998
 11
74.9942175
 21
-78.3631211
  0
LINE
  5
F3
100
AcDbEntity
  8
0
  6
ByLayer
 62
  256
370
   -1
100
AcDbLine
 10
64.04356319999999
 20
-62.72396609999999
 11
61.7861369
 21
-75.5264669
  0
LINE
  5
F4
100
AcDbEntity
  8
0
  6
ByLayer
 62
  256
370
   -1
100
AcDbLine
 10
77.8308717
 20
-65.15504049999998
 11
75.5734454
 21
-77.9575413
  0
ARC
  5
F5
100
AcDbEntity
  8
0
  6
ByLayer
 62
  256
370
   -1
100
AcDbCircle
 10
64.53596709999999
 20
-62.81079019999999
 40
0.5
100
AcDbArc
 50
80
 51
170
  0
ARC
  5
F6
100
AcDbEntity
  8
0
  6
ByLayer
 62
  256
370
   -1
100
AcDbCircle
 10
77.3384678
 20
-65.06821650000001
 40
0.5
100
AcDbArc
 50
350
 51
80
  0
ARC
  5
F7
100
AcDbEntity
  8
0
  6
ByLayer
 62
  256
370
   -1
100
AcDbCircle
 10
62.2785408
 20
-75.61329089999998
 40
0.5
100
AcDbArc
 50
170
 51
260
  0
ARC
  5
F8
100
AcDbEntity
  8
0
  6
ByLayer
 62
  256
370
   -1
100
AcDbCircle
 10
75.0810415
 20
-77.8707172
 40
0.5
100
AcDbArc
 50
260
 51
350
  0
LINE
  5
F9
100
AcDbEntity
  8
0
  6
ByLayer
 62
  256
370
   -1
100
AcDbLine
 10
161.54427
 20
9.911388500000008
 11
174.3467708
 21
12.16881480000001
  0
LINE
  5
FA
100
AcDbEntity
  8
0
  6
ByLayer
 62
  256
370
   -1
100
AcDbLine
 10
163.9753444
 20
-3.875919999999994
 11
176.7778452
 21
-1.618493699999995
  0
LINE
  5
FB
100
AcDbEntity
  8
0
  6
ByLayer
 62
  256
370
   -1
100
AcDbLine
 10
161.1386902
 20
9.332160600000005
 11
163.3961165
 21
-3.470340199999992
  0
LINE
  5
FC
100
AcDbEntity
  8
0
  6
ByLayer
 62
  256
370
   -1
100
AcDbLine
 10
174.9259987
 20
11.76323500000001
 11
177.183425
 21
-1.039265799999992
  0
ARC
  5
FD
100
AcDbEntity
  8
0
  6
ByLayer
 62
  256
370
   -1
100
AcDbCircle
 10
161.6310941
 20
9.418984600000005
 40
0.5
100
AcDbArc
 50
100
 51
190
  0
ARC
  5
FE
100
AcDbEntity
  8
0
  6
ByLayer
 62
  256
370
   -1
100
AcDbCircle
 10
174.4335948
 20
11.67641090000001
 40
0.5
100
AcDbArc
 50
9.999999999999989
 51
100
  0
ARC
  5
FF
100
AcDbEntity
  8
0
  6
ByLayer
 62
  256
370
   -1
100
AcDbCircle
 10
163.8885204
 20
-3.383516099999994
 40
0.5
100
AcDbArc
 50
190
 51
280
  0
ARC
  5
100
100
AcDbEntity
  8
0
  6
ByLayer
 62
  256
370
   -1
100
AcDbCircle
 10
176.6910211
 20
-1.126089799999992
 40
0.5
100
AcDbArc
 50
280
 51
9.999999999999989
  0
LINE
  5
101
100
AcDbEntity
  8
0
  6
ByLayer
 62
  256
370
   -1
100
AcDbLine
 10
143.6106818
 20
1.913243800000007
 11
156.4131826
 21
4.170670100000006
  0
LINE
  5
102
100
AcDbEntity
  8
0
  6
ByLayer
 62
  256
370
   -1
100
AcDbLine
 10
146.0417562
 20
-11.87406469999999
 11
158.844257
 21
-9.616638399999992
  0
LINE
  5
103
100
AcDbEntity
  8
0
  6
ByLayer
 62
  256
370
   -1
100
AcDbLine
 10
143.205102
 20
1.334015900000008
 11
145.4625283
 21
-11.46848489999999
  0
LINE
  5
104
100
AcDbEntity
  8
0
  6
ByLayer
 62
  256
370
   -1
100
AcDbLine
 10
156.9924105
 20
3.765090300000008
 11
159.2498368
 21
-9.037410499999993
  0
ARC
  5
105
100
AcDbEntity
  8
0
  6
ByLayer
 62
  256
370
   -1
100
AcDbCircle
 10
143.6975059
 20
1.420839900000008
 40
0.5
100
AcDbArc
 50
100
 51
190
  0
ARC
  5
106
100
AcDbEntity
  8
0
  6
ByLayer
 62
  256
370
   -1
100
AcDbCircle
 10
156.5000066
 20
3.678266200000007
 40
0.5
100
AcDbArc
 50
9.999999999999989
 51
100
  0
ARC
  5
107
100
AcDbEntity
  8
0
  6
ByLayer
 62
  256
370
   -1
100
AcDbCircle
 10
145.9549322
 20
-11.38166079999999
 40
0.5
100
AcDbArc
 50
190
 51
280
  0
ARC
  5
108
100
AcDbEntity
  8
0
  6
ByLayer
 62
  256
370
   -1
100
AcDbCircle
 10
158.7574329
 20
-9.124234499999993
 40
0.5
100
AcDbArc
 50
280
 51
9.999999999999989
  0
LINE
  5
109
100
AcDbEntity
  8
0
  6
ByLayer
 62
  256
370
   -1
100
AcDbLine
 10
181.1318572
 20
8.529239400000005
 11
193.934358
 21
10.78666570000001
  0
LINE
  5
10A
100
AcDbEntity
  8
0
  6
ByLayer
 62
  256
370
   -1
100
AcDbLine
 10
183.5629316
 20
-5.258069099999993
 11
196.3654324
 21
-3.000642799999994
  0
LINE
  5
10B
100
AcDbEntity
  8
0
  6
ByLayer
 62
  256
370
   -1
100
AcDbLine
 10
180.7262774
 20
7.950011500000006
 11
182.9837037
 21
-4.852489299999995
  0
LINE
  5
10C
100
AcDbEntity
  8
0
  6
ByLayer
 62
  256
370
   -1
100
AcDbLine
 10
194.5135859
 20
10.38108590000001
 11
196.7710122
 21
-2.421414899999995
  0
ARC
  5
10D
100
AcDbEntity
  8
0
  6
ByLayer
 62
  256
370
   -1
100
AcDbCircle
 10
181.2186813
 20
8.036835500000006
 40
0.5
100
AcDbArc
 50
100
 51
190
  0
ARC
  5
10E
100
AcDbEntity
  8
0
  6
ByLayer
 62
  256
370
   -1
100
AcDbCircle
 10
194.021182
 20
10.29426180000001
 40
0.5
100
AcDbArc
 50
9.999999999999989
 51
100
  0
ARC
  5
10F
100
AcDbEntity
  8
0
  6
ByLayer
 62
  256
370
   -1
100
AcDbCircle
 10
183.4761076
 20
-4.765665199999994
 40
0.5
100
AcDbArc
 50
190
 51
280
  0
ARC
  5
110
100
AcDbEntity
  8
0
  6
ByLayer
 62
  256
370
   -1
100
AcDbCircle
 10
196.2786083
 20
-2.508238899999995
 40
0.5
100
AcDbArc
 50
280
 51
9.999999999999989
  0
LINE
  5
111
100
AcDbEntity
  8
0
  6
ByLayer
 62
  256
370
   -1
100
AcDbLine
 10
125.6770935
 20
-6.084900899999994
 11
138.4795943
 21
-3.827474599999995
  0
LINE
  5
112
100
AcDbEntity
  8
0
  6
ByLayer
 62
  256
370
   -1
100
AcDbLine
 10
128.1081679
 20
-19.8722094
 11
140.9106687
 21
-17.6147831
  0
LINE
  5
113
100
AcDbEntity
  8
0
  6
ByLayer
 62
  256
370
   -1
100
AcDbLine
 10
125.2715137
 20
-6.664128799999993
 11
127.52894
 21
-19.46662959999999
  0
LINE
  5
114
100
AcDbEntity
  8
0
  6
ByLayer
 62
  256
370
   -1
100
AcDbLine
 10
139.0588222
 20
-4.233054399999993
 11
141.3162485
 21
-17.03555519999999
  0
ARC
  5
115
100
AcDbEntity
  8
0
  6
ByLayer
 62
  256
370
   -1
100
AcDbCircle
 10
125.7639176
 20
-6.577304799999993
 40
0.5
100
AcDbArc
 50
100
 51
190
  0
ARC
  5
116
100
AcDbEntity
  8
0
  6
ByLayer
 62
  256
370
   -1
100
AcDbCircle
 10
138.5664183
 20
-4.319878499999994
 40
0.5
100
AcDbArc
 50
9.999999999999989
 51
100
  0
ARC
  5
117
100
AcDbEntity
  8
0
  6
ByLayer
 62
  256
370
   -1
100
AcDbCircle
 10
128.0213439
 20
-19.3798055
 40
0.5
100
AcDbArc
 50
190
 51
280
  0
ARC
  5
118
100
AcDbEntity
  8
0
  6
ByLayer
 62
  256
370
   -1
100
AcDbCircle
 10
140.8238446
 20
-17.12237919999999
 40
0.5
100
AcDbArc
 50
280
 51
9.999999999999989
  0
LINE
  5
119
100
AcDbEntity
  8
0
  6
ByLayer
 62
  256
370
   -1
100
AcDbLine
 10
200.7194443
 20
7.147090200000008
 11
213.5219451
 21
9.404516500000007
  0
LINE
  5
11A
100
AcDbEntity
  8
0
  6
ByLayer
 62
  256
370
   -1
100
AcDbLine
 10
203.1505187
 20
-6.640218299999994
 11
215.9530195
 21
-4.382791999999995
  0
LINE
  5
11B
100
AcDbEntity
  8
0
  6
ByLayer
 62
  256
370
   -1
100
AcDbLine
 10
200.3138645
 20
6.567862300000005
 11
202.5712908
 21
-6.234638499999996
  0
LINE
  5
11C
100
AcDbEntity
  8
0
  6
ByLayer
 62
  256
370
   -1
100
AcDbLine
 10
214.101173
 20
8.998936700000005
 11
216.3585993
 21
-3.803564099999992
  0
ARC
  5
11D
100
AcDbEntity
  8
0
  6
ByLayer
 62
  256
370
   -1
100
AcDbCircle
 10
200.8062684
 20
6.654686300000005
 40
0.5
100
AcDbArc
 50
100
 51
190
  0
ARC
  5
11E
100
AcDbEntity
  8
0
  6
ByLayer
 62
  256
370
   -1
100
AcDbCircle
 10
213.6087691
 20
8.912112600000007
 40
0.5
100
AcDbArc
 50
9.999999999999989
 51
100
  0
ARC
  5
11F
100
AcDbEntity
  8
0
  6
ByLayer
 62
  256
370
   -1
100
AcDbCircle
 10
203.0636947
 20
-6.147814399999994
 40
0.5
100
AcDbArc
 50
190
 51
280
  0
ARC
  5
120
100
AcDbEntity
  8
0
  6
ByLayer
 62
  256
370
   -1
100
AcDbCircle
 10
215.8661954
 20
-3.890388099999992
 40
0.5
100
AcDbArc
 50
280
 51
9.999999999999989
  0
LINE
  5
121
100
AcDbEntity
  8
0
  6
ByLayer
 62
  256
370
   -1
100
AcDbLine
 10
220.3070314
 20
5.764941100000005
 11
233.1095322
 21
8.022367400000007
  0
LINE
  5
122
100
AcDbEntity
  8
0
  6
ByLayer
 62
  256
370
   -1
100
AcDbLine
 10
222.7381058
 20
-8.022367399999993
 11
235.5406066
 21
-5.764941099999994
  0
LINE
  5
123
100
AcDbEntity
  8
0
  6
ByLayer
 62
  256
370
   -1
100
AcDbLine
 10
219.9014516
 20
5.185713200000006
 11
222.1588779
 21
-7.616787599999995
  0
LINE
  5
124
100
AcDbEntity
  8
0
  6
ByLayer
 62
  256
370
   -1
100
AcDbLine
 10
233.6887601
 20
7.616787600000006
 11
235.9461864
 21
-5.185713199999995
  0
ARC
  5
125
100
AcDbEntity
  8
0
  6
ByLayer
 62
  256
370
   -1
100
AcDbCircle
 10
220.3938555
 20
5.272537200000006
 40
0.5
100
AcDbArc
 50
100
 51
190
  0
ARC
  5
126
100
AcDbEntity
  8
0
  6
ByLayer
 62
  256
370
   -1
100
AcDbCircle
 10
233.1963562
 20
7.529963500000008
 40
0.5
100
AcDbArc
 50
9.999999999999989
 51
100
  0
ARC
  5
127
100
AcDbEntity
  8
0
  6
ByLayer
 62
  256
370
   -1
100
AcDbCircle
 10
222.6512818
 20
-7.529963499999994
 40
0.5
100
AcDbArc
 50
190
 51
280
  0
ARC
  5
128
100
AcDbEntity
  8
0
  6
ByLayer
 62
  256
370
   -1
100
AcDbCircle
 10
235.4537825
 20
-5.272537199999995
 40
0.5
100
AcDbArc
 50
280
 51
9.999999999999989
  0
LINE
  5
129
100
AcDbEntity
  8
0
  6
ByLayer
 62
  256
370
   -1
100
AcDbLine
 10
164.8522678
 20
-8.849199199999994
 11
177.6547686
 21
-6.591772899999995
  0
LINE
  5
12A
100
AcDbEntity
  8
0
  6
ByLayer
 62
  256
370
   -1
100
AcDbLine
 10
167.2833422
 20
-22.6365077
 11
180.085843
 21
-20.3790814
  0
LINE
  5
12B
100
AcDbEntity
  8
0
  6
ByLayer
 62
  256
370
   -1
100
AcDbLine
 10
164.446688
 20
-9.428427099999993
 11
166.7041143
 21
-22.23092789999999
  0
LINE
  5
12C
100
AcDbEntity
  8
0
  6
ByLayer
 62
  256
370
   -1
100
AcDbLine
 10
178.2339965
 20
-6.997352699999993
 11
180.4914228
 21
-19.79985349999999
  0
ARC
  5
12D
100
AcDbEntity
  8
0
  6
ByLayer
 62
  256
370
   -1
100
AcDbCircle
 10
164.9390919
 20
-9.341603099999993
 40
0.5
100
AcDbArc
 50
100
 51
190
  0
ARC
  5
12E
100
AcDbEntity
  8
0
  6
ByLayer
 62
  256
370
   -1
100
AcDbCircle
 10
177.7415926
 20
-7.084176799999995
 40
0.5
100
AcDbArc
 50
9.999999999999989
 51
100
  0
ARC
  5
12F
100
AcDbEntity
  8
0
  6
ByLayer
 62
  256
370
   -1
100
AcDbCircle
 10
167.1965182
 20
-22.1441038
 40
0.5
100
AcDbArc
 50
190
 51
280
  0
ARC
  5
130
100
AcDbEntity
  8
0
  6
ByLayer
 62
  256
370
   -1
100
AcDbCircle
 10
179.9990189
 20
-19.88667749999999
 40
0.5
100
AcDbArc
 50
280
 51
9.999999999999989
  0
LINE
  5
131
100
AcDbEntity
  8
0
  6
ByLayer
 62
  256
370
   -1
100
AcDbLine
 10
146.9186795
 20
-16.84734389999999
 11
159.7211803
 21
-14.58991759999999
  0
LINE
  5
132
100
AcDbEntity
  8
0
  6
ByLayer
 62
  256
370
   -1
100
AcDbLine
 10
149.3497539
 20
-30.63465239999999
 11
162.1522547
 21
-28.37722609999999
  0
LINE
  5
133
100
AcDbEntity
  8
0
  6
ByLayer
 62
  256
370
   -1
100
AcDbLine
 10
146.5130997
 20
-17.42657179999999
 11
148.770526
 21
-30.22907259999999
  0
LINE
  5
134
100
AcDbEntity
  8
0
  6
ByLayer
 62
  256
370
   -1
100
AcDbLine
 10
160.3004082
 20
-14.99549739999999
 11
162.5578345
 21
-27.79799819999999
  0
ARC
  5
135
100
AcDbEntity
  8
0
  6
ByLayer
 62
  256
370
   -1
100
AcDbCircle
 10
147.0055036
 20
-17.33974779999999
 40
0.5
100
AcDbArc
 50
100
 51
190
  0
ARC
  5
136
100
AcDbEntity
  8
0
  6
ByLayer
 62
  256
370
   -1
100
AcDbCircle
 10
159.8080043
 20
-15.08232149999999
 40
0.5
100
AcDbArc
 50
9.999999999999989
 51
100
  0
ARC
  5
137
100
AcDbEntity
  8
0
  6
ByLayer
 62
  256
370
   -1
100
AcDbCircle
 10
149.2629299
 20
-30.14224849999999
 40
0.5
100
AcDbArc
 50
190
 51
280
  0
ARC
  5
138
100
AcDbEntity
  8
0
  6
ByLayer
 62
  256
370
   -1
100
AcDbCircle
 10
162.0654306
 20
-27.8848222
 40
0.5
100
AcDbArc
 50
280
 51
9.999999999999989
  0
LINE
  5
139
100
AcDbEntity
  8
0
  6
ByLayer
 62
  256
370
   -1
100
AcDbLine
 10
184.4398549
 20
-10.23134829999999
 11
197.2423557
 21
-7.973921999999995
  0
LINE
  5
13A
100
AcDbEntity
  8
0
  6
ByLayer
 62
  256
370
   -1
100
AcDbLine
 10
186.8709293
 20
-24.0186568
 11
199.6734301
 21
-21.7612305
  0
LINE
  5
13B
100
AcDbEntity
  8
0
  6
ByLayer
 62
  256
370
   -1
100
AcDbLine
 10
184.0342751
 20
-10.81057619999999
 11
186.2917014
 21
-23.61307699999999
  0
LINE
  5
13C
100
AcDbEntity
  8
0
  6
ByLayer
 62
  256
370
   -1
100
AcDbLine
 10
197.8215836
 20
-8.379501799999993
 11
200.0790099
 21
-21.18200259999999
  0
ARC
  5
13D
100
AcDbEntity
  8
0
  6
ByLayer
 62
  256
370
   -1
100
AcDbCircle
 10
184.526679
 20
-10.72375219999999
 40
0.5
100
AcDbArc
 50
100
 51
190
  0
ARC
  5
13E
100
AcDbEntity
  8
0
  6
ByLayer
 62
  256
370
   -1
100
AcDbCircle
 10
197.3291797
 20
-8.466325899999994
 40
0.5
100
AcDbArc
 50
9.999999999999989
 51
100
  0
ARC
  5
13F
100
AcDbEntity
  8
0
  6
ByLayer
 62
  256
370
   -1
100
AcDbCircle
 10
186.7841053
 20
-23.5262529
 40
0.5
100
AcDbArc
 50
190
 51
280
  0
ARC
  5
140
100
AcDbEntity
  8
0
  6
ByLayer
 62
  256
370
   -1
100
AcDbCircle
 10
199.586606
 20
-21.26882659999999
 40
0.5
100
AcDbArc
 50
280
 51
9.999999999999989
  0
LINE
  5
141
100
AcDbEntity
  8
0
  6
ByLayer
 62
  256
370
   -1
100
AcDbLine
 10
128.9850913
 20
-24.8454886
 11
141.7875921
 21
-22.58806229999999
  0
LINE
  5
142
100
AcDbEntity
  8
0
  6
ByLayer
 62
  256
370
   -1
100
AcDbLine
 10
131.4161657
 20
-38.6327971
 11
144.2186665
 21
-36.37537079999999
  0
LINE
  5
143
100
AcDbEntity
  8
0
  6
ByLayer
 62
  256
370
   -1
100
AcDbLine
 10
128.5795115
 20
-25.4247165
 11
130.8369378
 21
-38.2272173
  0
LINE
  5
144
100
AcDbEntity
  8
0
  6
ByLayer
 62
  256
370
   -1
100
AcDbLine
 10
142.36682
 20
-22.9936421
 11
144.6242463
 21
-35.79614289999999
  0
ARC
  5
145
100
AcDbEntity
  8
0
  6
ByLayer
 62
  256
370
   -1
100
AcDbCircle
 10
129.0719154
 20
-25.3378925
 40
0.5
100
AcDbArc
 50
100
 51
190
  0
ARC
  5
146
100
AcDbEntity
  8
0
  6
ByLayer
 62
  256
370
   -1
100
AcDbCircle
 10
141.8744161
 20
-23.0804662
 40
0.5
100
AcDbArc
 50
9.999999999999989
 51
100
  0
ARC
  5
147
100
AcDbEntity
  8
0
  6
ByLayer
 62
  256
370
   -1
100
AcDbCircle
 10
131.3293417
 20
-38.1403932
 40
0.5
100
AcDbArc
 50
190
 51
280
  0
ARC
  5
148
100
AcDbEntity
  8
0
  6
ByLayer
 62
  256
370
   -1
100
AcDbCircle
 10
144.1318424
 20
-35.88296689999999
 40
0.5
100
AcDbArc
 50
280
 51
9.999999999999989
  0
LINE
  5
149
100
AcDbEntity
  8
0
  6
ByLayer
 62
  256
370
   -1
100
AcDbLine
 10
204.0274421
 20
-11.61349749999999
 11
216.8299429
 21
-9.356071199999995
  0
LINE
  5
14A
100
AcDbEntity
  8
0
  6
ByLayer
 62
  256
370
   -1
100
AcDbLine
 10
206.4585165
 20
-25.400806
 11
219.2610173
 21
-23.14337969999999
  0
LINE
  5
14B
100
AcDbEntity
  8
0
  6
ByLayer
 62
  256
370
   -1
100
AcDbLine
 10
203.6218623
 20
-12.19272539999999
 11
205.8792886
 21
-24.99522619999999
  0
LINE
  5
14C
100
AcDbEntity
  8
0
  6
ByLayer
 62
  256
370
   -1
100
AcDbLine
 10
217.4091708
 20
-9.761650999999993
 11
219.6665971
 21
-22.56415179999999
  0
ARC
  5
14D
100
AcDbEntity
  8
0
  6
ByLayer
 62
  256
370
   -1
100
AcDbCircle
 10
204.1142662
 20
-12.10590139999999
 40
0.5
100
AcDbArc
 50
100
 51
190
  0
ARC
  5
14E
100
AcDbEntity
  8
0
  6
ByLayer
 62
  256
370
   -1
100
AcDbCircle
 10
216.9167669
 20
-9.848475099999995
 40
0.5
100
AcDbArc
 50
9.999999999999989
 51
100
  0
ARC
  5
14F
100
AcDbEntity
  8
0
  6
ByLayer
 62
  256
370
   -1
100
AcDbCircle
 10
206.3716925
 20
-24.9084021
 40
0.5
100
AcDbArc
 50
190
 51
280
  0
ARC
  5
150
100
AcDbEntity
  8
0
  6
ByLayer
 62
  256
370
   -1
100
AcDbCircle
 10
219.1741932
 20
-22.65097579999999
 40
0.5
100
AcDbArc
 50
280
 51
9.999999999999989
  0
LINE
  5
151
100
AcDbEntity
  8
0
  6
ByLayer
 62
  256
370
   -1
100
AcDbLine
 10
223.6150292
 20
-12.99564659999999
 11
236.41753
 21
-10.73822029999999
  0
LINE
  5
152
100
AcDbEntity
  8
0
  6
ByLayer
 62
  256
370
   -1
100
AcDbLine
 10
226.0461036
 20
-26.7829551
 11
238.8486044
 21
-24.5255288
  0
LINE
  5
153
100
AcDbEntity
  8
0
  6
ByLayer
 62
  256
370
   -1
100
AcDbLine
 10
223.2094494
 20
-13.57487449999999
 11
225.4668757
 21
-26.37737529999999
  0
LINE
  5
154
100
AcDbEntity
  8
0
  6
ByLayer
 62
  256
370
   -1
100
AcDbLine
 10
236.9967579
 20
-11.14380009999999
 11
239.2541842
 21
-23.94630089999999
  0
ARC
  5
155
100
AcDbEntity
  8
0
  6
ByLayer
 62
  256
370
   -1
100
AcDbCircle
 10
223.7018533
 20
-13.48805049999999
 40
0.5
100
AcDbArc
 50
100
 51
190
  0
ARC
  5
156
100
AcDbEntity
  8
0
  6
ByLayer
 62
  256
370
   -1
100
AcDbCircle
 10
236.504354
 20
-11.23062419999999
 40
0.5
100
AcDbArc
 50
9.999999999999989
 51
100
  0
ARC
  5
157
100
AcDbEntity
  8
0
  6
ByLayer
 62
  256
370
   -1
100
AcDbCircle
 10
225.9592796
 20
-26.2905512
 40
0.5
100
AcDbArc
 50
190
 51
280
  0
ARC
  5
158
100
AcDbEntity
  8
0
  6
ByLayer
 62
  256
370
   -1
100
AcDbCircle
 10
238.7617803
 20
-24.03312489999999
 40
0.5
100
AcDbArc
 50
280
 51
9.999999999999989
  0
LINE
  5
159
100
AcDbEntity
  8
0
  6
ByLayer
 62
  256
370
   -1
100
AcDbLine
 10
168.1602656
 20
-27.6097869
 11
180.9627664
 21
-25.35236059999999
  0
LINE
  5
15A
100
AcDbEntity
  8
0
  6
ByLayer
 62
  256
370
   -1
100
AcDbLine
 10
170.59134
 20
-41.39709539999999
 11
183.3938408
 21
-39.1396691
  0
LINE
  5
15B
100
AcDbEntity
  8
0
  6
ByLayer
 62
  256
370
   -1
100
AcDbLine
 10
167.7546858
 20
-28.1890148
 11
170.0121121
 21
-40.99151559999999
  0
LINE
  5
15C
100
AcDbEntity
  8
0
  6
ByLayer
 62
  256
370
   -1
100
AcDbLine
 10
181.5419943
 20
-25.7579404
 11
183.7994206
 21
-38.56044119999999
  0
ARC
  5
15D
100
AcDbEntity
  8
0
  6
ByLayer
 62
  256
370
   -1
100
AcDbCircle
 10
168.2470897
 20
-28.1021908
 40
0.5
100
AcDbArc
 50
100
 51
190
  0
ARC
  5
15E
100
AcDbEntity
  8
0
  6
ByLayer
 62
  256
370
   -1
100
AcDbCircle
 10
181.0495904
 20
-25.8447645
 40
0.5
100
AcDbArc
 50
9.999999999999989
 51
100
  0
ARC
  5
15F
100
AcDbEntity
  8
0
  6
ByLayer
 62
  256
370
   -1
100
AcDbCircle
 10
170.504516
 20
-40.90469149999999
 40
0.5
100
AcDbArc
 50
190
 51
280
  0
ARC
  5
160
100
AcDbEntity
  8
0
  6
ByLayer
 62
  256
370
   -1
100
AcDbCircle
 10
183.3070167
 20
-38.6472652
 40
0.5
100
AcDbArc
 50
280
 51
9.999999999999989
  0
LINE
  5
161
100
AcDbEntity
  8
0
  6
ByLayer
 62
  256
370
   -1
100
AcDbLine
 10
150.2266773
 20
-35.60793159999999
 11
163.0291781
 21
-33.35050529999999
  0
LINE
  5
162
100
AcDbEntity
  8
0
  6
ByLayer
 62
  256
370
   -1
100
AcDbLine
 10
152.6577517
 20
-49.39524009999999
 11
165.4602525
 21
-47.1378138
  0
LINE
  5
163
100
AcDbEntity
  8
0
  6
ByLayer
 62
  256
370
   -1
100
AcDbLine
 10
149.8210975
 20
-36.18715949999999
 11
152.0785238
 21
-48.98966029999999
  0
LINE
  5
164
100
AcDbEntity
  8
0
  6
ByLayer
 62
  256
370
   -1
100
AcDbLine
 10
163.608406
 20
-33.75608509999999
 11
165.8658323
 21
-46.55858589999999
  0
ARC
  5
165
100
AcDbEntity
  8
0
  6
ByLayer
 62
  256
370
   -1
100
AcDbCircle
 10
150.3135014
 20
-36.10033549999999
 40
0.5
100
AcDbArc
 50
100
 51
190
  0
ARC
  5
166
100
AcDbEntity
  8
0
  6
ByLayer
 62
  256
370
   -1
100
AcDbCircle
 10
163.1160021
 20
-33.84290919999999
 40
0.5
100
AcDbArc
 50
9.999999999999989
 51
100
  0
ARC
  5
167
100
AcDbEntity
  8
0
  6
ByLayer
 62
  256
370
   -1
100
AcDbCircle
 10
152.5709277
 20
-48.90283619999999
 40
0.5
100
AcDbArc
 50
190
 51
280
  0
ARC
  5
168
100
AcDbEntity
  8
0
  6
ByLayer
 62
  256
370
   -1
100
AcDbCircle
 10
165.3734284
 20
-46.6454099
 40
0.5
100
AcDbArc
 50
280
 51
9.999999999999989
  0
LINE
  5
169
100
AcDbEntity
  8
0
  6
ByLayer
 62
  256
370
   -1
100
AcDbLine
 10
187.7478527
 20
-28.991936
 11
200.5503535
 21
-26.7345097
  0
LINE
  5
16A
100
AcDbEntity
  8
0
  6
ByLayer
 62
  256
370
   -1
100
AcDbLine
 10
190.1789271
 20
-42.7792445
 11
202.9814279
 21
-40.52181819999999
  0
LINE
  5
16B
100
AcDbEntity
  8
0
  6
ByLayer
 62
  256
370
   -1
100
AcDbLine
 10
187.3422729
 20
-29.57116389999999
 11
189.5996992
 21
-42.3736647
  0
LINE
  5
16C
100
AcDbEntity
  8
0
  6
ByLayer
 62
  256
370
   -1
100
AcDbLine
 10
201.1295814
 20
-27.14008949999999
 11
203.3870077
 21
-39.9425903
  0
ARC
  5
16D
100
AcDbEntity
  8
0
  6
ByLayer
 62
  256
370
   -1
100
AcDbCircle
 10
187.8346768
 20
-29.48433989999999
 40
0.5
100
AcDbArc
 50
100
 51
190
  0
ARC
  5
16E
100
AcDbEntity
  8
0
  6
ByLayer
 62
  256
370
   -1
100
AcDbCircle
 10
200.6371775
 20
-27.2269136
 40
0.5
100
AcDbArc
 50
9.999999999999989
 51
100
  0
ARC
  5
16F
100
AcDbEntity
  8
0
  6
ByLayer
 62
  256
370
   -1
100
AcDbCircle
 10
190.0921031
 20
-42.2868406
 40
0.5
100
AcDbArc
 50
190
 51
280
  0
ARC
  5
170
100
AcDbEntity
  8
0
  6
ByLayer
 62
  256
370
   -1
100
AcDbCircle
 10
202.8946038
 20
-40.02941429999999
 40
0.5
100
AcDbArc
 50
280
 51
9.999999999999989
  0
LINE
  5
171
100
AcDbEntity
  8
0
  6
ByLayer
 62
  256
370
   -1
100
AcDbLine
 10
132.2930891
 20
-43.60607629999999
 11
145.0955899
 21
-41.34865
  0
LINE
  5
172
100
AcDbEntity
  8
0
  6
ByLayer
 62
  256
370
   -1
100
AcDbLine
 10
134.7241635
 20
-57.3933848
 11
147.5266643
 21
-55.13595849999999
  0
LINE
  5
173
100
AcDbEntity
  8
0
  6
ByLayer
 62
  256
370
   -1
100
AcDbLine
 10
131.8875093
 20
-44.1853042
 11
134.1449356
 21
-56.98780499999999
  0
LINE
  5
174
100
AcDbEntity
  8
0
  6
ByLayer
 62
  256
370
   -1
100
AcDbLine
 10
145.6748178
 20
-41.7542298
 11
147.9322441
 21
-54.55673059999999
  0
ARC
  5
175
100
AcDbEntity
  8
0
  6
ByLayer
 62
  256
370
   -1
100
AcDbCircle
 10
132.3799132
 20
-44.09848019999999
 40
0.5
100
AcDbArc
 50
100
 51
190
  0
ARC
  5
176
100
AcDbEntity
  8
0
  6
ByLayer
 62
  256
370
   -1
100
AcDbCircle
 10
145.1824139
 20
-41.8410539
 40
0.5
100
AcDbArc
 50
9.999999999999989
 51
100
  0
ARC
  5
177
100
AcDbEntity
  8
0
  6
ByLayer
 62
  256
370
   -1
100
AcDbCircle
 10
134.6373395
 20
-56.9009809
 40
0.5
100
AcDbArc
 50
190
 51
280
  0
ARC
  5
178
100
AcDbEntity
  8
0
  6
ByLayer
 62
  256
370
   -1
100
AcDbCircle
 10
147.4398402
 20
-54.64355459999999
 40
0.5
100
AcDbArc
 50
280
 51
9.999999999999989
  0
LINE
  5
179
100
AcDbEntity
  8
0
  6
ByLayer
 62
  256
370
   -1
100
AcDbLine
 10
207.3354399
 20
-30.3740852
 11
220.1379407
 21
-28.11665889999999
  0
LINE
  5
17A
100
AcDbEntity
  8
0
  6
ByLayer
 62
  256
370
   -1
100
AcDbLine
 10
209.7665143
 20
-44.1613937
 11
222.5690151
 21
-41.90396739999999
  0
LINE
  5
17B
100
AcDbEntity
  8
0
  6
ByLayer
 62
  256
370
   -1
100
AcDbLine
 10
206.9298601
 20
-30.9533131
 11
209.1872864
 21
-43.7558139
  0
LINE
  5
17C
100
AcDbEntity
  8
0
  6
ByLayer
 62
  256
370
   -1
100
AcDbLine
 10
220.7171686
 20
-28.5222387
 11
222.9745949
 21
-41.3247395
  0
ARC
  5
17D
100
AcDbEntity
  8
0
  6
ByLayer
 62
  256
370
   -1
100
AcDbCircle
 10
207.422264
 20
-30.8664891
 40
0.5
100
AcDbArc
 50
100
 51
190
  0
ARC
  5
17E
100
AcDbEntity
  8
0
  6
ByLayer
 62
  256
370
   -1
100
AcDbCircle
 10
220.2247647
 20
-28.6090628
 40
0.5
100
AcDbArc
 50
9.999999999999989
 51
100
  0
ARC
  5
17F
100
AcDbEntity
  8
0
  6
ByLayer
 62
  256
370
   -1
100
AcDbCircle
 10
209.6796903
 20
-43.6689898
 40
0.5
100
AcDbArc
 50
190
 51
280
  0
ARC
  5
180
100
AcDbEntity
  8
0
  6
ByLayer
 62
  256
370
   -1
100
AcDbCircle
 10
222.482191
 20
-41.41156349999999
 40
0.5
100
AcDbArc
 50
280
 51
9.999999999999989
  0
LINE
  5
181
100
AcDbEntity
  8
0
  6
ByLayer
 62
  256
370
   -1
100
AcDbLine
 10
226.923027
 20
-31.7562343
 11
239.7255278
 21
-29.498808
  0
LINE
  5
182
100
AcDbEntity
  8
0
  6
ByLayer
 62
  256
370
   -1
100
AcDbLine
 10
229.3541014
 20
-45.54354279999999
 11
242.1566022
 21
-43.2861165
  0
LINE
  5
183
100
AcDbEntity
  8
0
  6
ByLayer
 62
  256
370
   -1
100
AcDbLine
 10
226.5174472
 20
-32.33546219999999
 11
228.7748735
 21
-45.13796299999999
  0
LINE
  5
184
100
AcDbEntity
  8
0
  6
ByLayer
 62
  256
370
   -1
100
AcDbLine
 10
240.3047557
 20
-29.90438779999999
 11
242.562182
 21
-42.70688859999999
  0
ARC
  5
185
100
AcDbEntity
  8
0
  6
ByLayer
 62
  256
370
   -1
100
AcDbCircle
 10
227.0098511
 20
-32.24863819999999
 40
0.5
100
AcDbArc
 50
100
 51
190
  0
ARC
  5
186
100
AcDbEntity
  8
0
  6
ByLayer
 62
  256
370
   -1
100
AcDbCircle
 10
239.8123518
 20
-29.9912119
 40
0.5
100
AcDbArc
 50
9.999999999999989
 51
100
  0
ARC
  5
187
100
AcDbEntity
  8
0
  6
ByLayer
 62
  256
370
   -1
100
AcDbCircle
 10
229.2672774
 20
-45.05113889999999
 40
0.5
100
AcDbArc
 50
190
 51
280
  0
ARC
  5
188
100
AcDbEntity
  8
0
  6
ByLayer
 62
  256
370
   -1
100
AcDbCircle
 10
242.0697781
 20
-42.7937126
 40
0.5
100
AcDbArc
 50
280
 51
9.999999999999989
  0
LINE
  5
189
100
AcDbEntity
  8
0
  6
ByLayer
 62
  256
370
   -1
100
AcDbLine
 10
150.4985271
 20
-64.57581260000001
 11
163.3010279
 21
-62.31838629999999
  0
LINE
  5
18A
100
AcDbEntity
  8
0
  6
ByLayer
 62
  256
370
   -1
100
AcDbLine
 10
152.9296015
 20
-78.3631211
 11
165.7321023
 21
-76.10569479999998
  0
LINE
  5
18B
100
AcDbEntity
  8
0
  6
ByLayer
 62
  256
370
   -1
100
AcDbLine
 10
150.0929473
 20
-65.15504049999998
 11
152.3503736
 21
-77.9575413
  0
LINE
  5
18C
100
AcDbEntity
  8
0
  6
ByLayer
 62
  256
370
   -1
100
AcDbLine
 10
163.8802558
 20
-62.72396609999999
 11
166.1376821
 21
-75.5264669
  0
ARC
  5
18D
100
AcDbEntity
  8
0
  6
ByLayer
 62
  256
370
   -1
100
AcDbCircle
 10
150.5853512
 20
-65.06821650000001
 40
0.5
100
AcDbArc
 50
100
 51
190
  0
ARC
  5
18E
100
AcDbEntity
  8
0
  6
ByLayer
 62
  256
370
   -1
100
AcDbCircle
 10
163.3878519
 20
-62.81079019999999
 40
0.5
100
AcDbArc
 50
9.999999999999989
 51
100
  0
ARC
  5
18F
100
AcDbEntity
  8
0
  6
ByLayer
 62
  256
370
   -1
100
AcDbCircle
 10
152.8427775
 20
-77.8707172
 40
0.5
100
AcDbArc
 50
190
 51
280
  0
ARC
  5
190
100
AcDbEntity
  8
0
  6
ByLayer
 62
  256
370
   -1
100
AcDbCircle
 10
165.6452782
 20
-75.61329089999998
 40
0.5
100
AcDbArc
 50
280
 51
9.999999999999989
  0
ENDBLK
  5
50
330
4E
100
AcDbEntity
  8
0
100
AcDbBlockEnd
  0
ENDSEC
  0
SECTION
  2
ENTITIES
  0
ARC
  5
191
100
AcDbEntity
  8
0
  6
ByLayer
 62
  256
370
   -1
100
AcDbCircle
 10
-123.8861632585108
 20
41.07577328178041
 40
5
100
AcDbArc
 50
94.03624345252992
 51
169.9999999189941
  0
LINE
  5
192
100
AcDbEntity
  8
0
  6
ByLayer
 62
  256
370
   -1
100
AcDbLine
 10
-128.8102020223443
 20
41.94401417707677
 11
-139.4034150478034
 21
-18.13308176886081
  0
ARC
  5
193
100
AcDbEntity
  8
0
  6
ByLayer
 62
  256
370
   -1
100
AcDbCircle
 10
-134.4793762839699
 20
-19.00132266415718
 40
5
100
AcDbArc
 50
169.9999999189939
 51
259.9999999189941
  0
LINE
  5
194
100
AcDbEntity
  8
0
  6
ByLayer
 62
  256
370
   -1
100
AcDbLine
 10
-135.3476171792662
 20
-23.92536142799069
 11
-92.56925910470363
 21
-31.46834020930523
  0
ARC
  5
195
100
AcDbEntity
  8
0
  6
ByLayer
 62
  256
370
   -1
100
AcDbCircle
 10
-93.43749999999999
 20
-36.39237897313873
 40
5
100
AcDbArc
 50
0
 51
79.99999991899412
  0
LINE
  5
196
100
AcDbEntity
  8
0
  6
ByLayer
 62
  256
370
   -1
100
AcDbLine
 10
-88.43749999999999
 20
-36.39237897313873
 11
-88.43749999999999
 21
-47.34525954248092
  0
ARC
  5
197
100
AcDbEntity
  8
0
  6
ByLayer
 62
  256
370
   -1
100
AcDbCircle
 10
-83.43749999999999
 20
-47.34525954248092
 40
5
100
AcDbArc
 50
180
 51
259.999999918994
  0
LINE
  5
198
100
AcDbEntity
  8
0
  6
ByLayer
 62
  256
370
   -1
100
AcDbLine
 10
-124.2381006906203
 20
46.06337190675819
 11
-64.35879868121197
 21
50.28860520443513
  0
ARC
  5
199
100
AcDbEntity
  8
0
  6
ByLayer
 62
  256
370
   -1
100
AcDbCircle
 10
-60.83942436011641
 20
0.4126189546574324
 40
50
100
AcDbArc
 50
65.96375655561985
 51
94.03624345252989
  0
LINE
  5
19A
100
AcDbEntity
  8
0
  6
ByLayer
 62
  256
370
   -1
100
AcDbLine
 10
-84.30574089529635
 20
-52.26929830631443
 11
-33.42816548507076
 21
-61.24038763833503
  0
ARC
  5
19B
100
AcDbEntity
  8
0
  6
ByLayer
 62
  256
370
   -1
100
AcDbCircle
 10
-24.74575653210709
 20
-12
 40
50
100
AcDbArc
 50
259.999999918994
 51
270
  0
ARC
  5
19C
100
AcDbEntity
  8
0
  6
ByLayer
 62
  256
370
   -1
100
AcDbCircle
 10
123.8861632585108
 20
41.07577328178041
 40
5
100
AcDbArc
 50
10.00000008100587
 51
85.96375654747008
  0
LINE
  5
19D
100
AcDbEntity
  8
0
  6
ByLayer
 62
  256
370
   -1
100
AcDbLine
 10
128.8102020223443
 20
41.9440141770768
 11
139.4034150478034
 21
-18.13308176886081
  0
ARC
  5
19E
100
AcDbEntity
  8
0
  6
ByLayer
 62
  256
370
   -1
100
AcDbCircle
 10
134.4793762839699
 20
-19.00132266415718
 40
5
100
AcDbArc
 50
280.0000000810059
 51
10.00000008100612
  0
LINE
  5
19F
100
AcDbEntity
  8
0
  6
ByLayer
 62
  256
370
   -1
100
AcDbLine
 10
135.3476171792663
 20
-23.92536142799069
 11
92.56925910470363
 21
-31.46834020930523
  0
ARC
  5
1A0
100
AcDbEntity
  8
0
  6
ByLayer
 62
  256
370
   -1
100
AcDbCircle
 10
93.4375
 20
-36.39237897313873
 40
5
100
AcDbArc
 50
100.0000000810059
 51
180
  0
LINE
  5
1A1
100
AcDbEntity
  8
0
  6
ByLayer
 62
  256
370
   -1
100
AcDbLine
 10
88.4375
 20
-36.39237897313873
 11
88.4375
 21
-47.34525954248092
  0
ARC
  5
1A2
100
AcDbEntity
  8
0
  6
ByLayer
 62
  256
370
   -1
100
AcDbCircle
 10
83.4375
 20
-47.34525954248092
 40
5
100
AcDbArc
 50
280.000000081006
 51
0
  0
LINE
  5
1A3
100
AcDbEntity
  8
0
  6
ByLayer
 62
  256
370
   -1
100
AcDbLine
 10
124.2381006906203
 20
46.06337190675819
 11
64.35879868121197
 21
50.28860520443516
  0
ARC
  5
1A4
100
AcDbEntity
  8
0
  6
ByLayer
 62
  256
370
   -1
100
AcDbCircle
 10
60.83942436011642
 20
0.4126189546574182
 40
50
100
AcDbArc
 50
85.96375654747011
 51
114.0362434443801
  0
LINE
  5
1A5
100
AcDbEntity
  8
0
  6
ByLayer
 62
  256
370
   -1
100
AcDbLine
 10
84.30574089529637
 20
-52.26929830631443
 11
33.42816548507076
 21
-61.24038763833504
  0
ARC
  5
1A6
100
AcDbEntity
  8
0
  6
ByLayer
 62
  256
370
   -1
100
AcDbCircle
 10
24.74575653210709
 20
-12
 40
50
100
AcDbArc
 50
270
 51
280.000000081006
  0
LINE
  5
1A7
100
AcDbEntity
  8
0
  6
ByLayer
 62
  256
370
   -1
100
AcDbLine
 10
10
 20
10
 11
10
 21
10
  0
LINE
  5
1A8
100
AcDbEntity
  8
0
  6
ByLayer
 62
  256
370
   -1
100
AcDbLine
 10
-10
 20
10
 11
-10
 21
10
  0
CIRCLE
  5
1A9
100
AcDbEntity
  8
0
  6
ByLayer
 62
  256
370
   -1
100
AcDbCircle
 10
123.8861632585108
 20
41.07577328178041
 40
1.1
  0
CIRCLE
  5
1AA
100
AcDbEntity
  8
0
  6
ByLayer
 62
  256
370
   -1
100
AcDbCircle
 10
134.4793762839699
 20
-19.00132266415718
 40
1.1
  0
CIRCLE
  5
1AB
100
AcDbEntity
  8
0
  6
ByLayer
 62
  256
370
   -1
100
AcDbCircle
 10
83.4375
 20
-47.34525954248092
 40
1.1
  0
CIRCLE
  5
1AC
100
AcDbEntity
  8
0
  6
ByLayer
 62
  256
370
   -1
100
AcDbCircle
 10
20
 20
-57
 40
1.1
  0
CIRCLE
  5
1AD
100
AcDbEntity
  8
0
  6
ByLayer
 62
  256
370
   -1
100
AcDbCircle
 10
-20
 20
-57
 40
1.1
  0
CIRCLE
  5
1AE
100
AcDbEntity
  8
0
  6
ByLayer
 62
  256
370
   -1
100
AcDbCircle
 10
-83.43749999999999
 20
-47.34525954248092
 40
1.1
  0
CIRCLE
  5
1AF
100
AcDbEntity
  8
0
  6
ByLayer
 62
  256
370
   -1
100
AcDbCircle
 10
-134.4793762839699
 20
-19.00132266415718
 40
1.1
  0
CIRCLE
  5
1B0
100
AcDbEntity
  8
0
  6
ByLayer
 62
  256
370
   -1
100
AcDbCircle
 10
-64.77
 20
41.99499999999933
 40
1.1
  0
CIRCLE
  5
1B1
100
AcDbEntity
  8
0
  6
ByLayer
 62
  256
370
   -1
100
AcDbCircle
 10
-123.8861632585108
 20
41.07577328178041
 40
1.1
  0
CIRCLE
  5
1B2
100
AcDbEntity
  8
0
  6
ByLayer
 62
  256
370
   -1
100
AcDbCircle
 10
64.77
 20
41.99499999999932
 40
1.1
  0
INSERT
  5
1B3
100
AcDbEntity
  8
0
  6
ByLayer
 62
  256
370
   -1
100
AcDbBlockReference
  2
plate-2023-11-09T21_13_35.895Z-0
 10
-113.9618632585107
 20
28.28897328178052
 30
0
 41
1
 42
1
 43
0
 50
0
 70
    1
 71
    1
 44
0
 45
0
  0
ARC
  5
1B4
100
AcDbEntity
  8
0
  6
ByLayer
 62
  256
370
   -1
100
AcDbCircle
 10
-15.93547092830036
 20
24.18384078147155
 40
10
100
AcDbArc
 50
350.0000000502694
 51
65.96375655561985
  0
ARC
  5
1B5
100
AcDbEntity
  8
0
  6
ByLayer
 62
  256
370
   -1
100
AcDbCircle
 10
15.93547092830036
 20
24.18384078147151
 40
10
100
AcDbArc
 50
114.0362434443801
 51
189.9999999497306
  0
LINE
  5
1B6
100
AcDbEntity
  8
0
  6
ByLayer
 62
  256
370
   -1
100
AcDbLine
 10
-40.47370232163674
 20
46.07701828117199
 11
-11.86232652060442
 21
33.31672064677446
  0
LINE
  5
1B7
100
AcDbEntity
  8
0
  6
ByLayer
 62
  256
370
   -1
100
AcDbLine
 10
11.86232652060442
 20
33.31672064677443
 11
40.47370232163679
 21
46.077018281172
  0
ARC
  5
1B8
100
AcDbEntity
  8
0
  6
ByLayer
 62
  256
370
   -1
100
AcDbCircle
 10
-14.93795375851074
 20
-53.46479431821948
 40
1.5
100
AcDbArc
 50
180
 51
270
  0
LINE
  5
1B9
100
AcDbEntity
  8
0
  6
ByLayer
 62
  256
370
   -1
100
AcDbLine
 10
-14.93795375851074
 20
-54.96479431821948
 11
-8.937953758510744
 21
-54.96479431821948
  0
ARC
  5
1BA
100
AcDbEntity
  8
0
  6
ByLayer
 62
  256
370
   -1
100
AcDbCircle
 10
-8.937953758510744
 20
-53.46479431821948
 40
1.5
100
AcDbArc
 50
270
 51
0
  0
LINE
  5
1BB
100
AcDbEntity
  8
0
  6
ByLayer
 62
  256
370
   -1
100
AcDbLine
 10
-7.437953758510744
 20
-52.96497290527666
 11
-7.437953758510744
 21
-53.46479431821948
  0
ARC
  5
1BC
100
AcDbEntity
  8
0
  6
ByLayer
 62
  256
370
   -1
100
AcDbCircle
 10
-6.437953758510744
 20
-52.96497290527666
 40
1
100
AcDbArc
 50
89.83862887125272
 51
180
  0
ARC
  5
1BD
100
AcDbEntity
  8
0
  6
ByLayer
 62
  256
370
   -1
100
AcDbCircle
 10
14.93795375851074
 20
-53.46479431821948
 40
1.5
100
AcDbArc
 50
270
 51
0
  0
LINE
  5
1BE
100
AcDbEntity
  8
0
  6
ByLayer
 62
  256
370
   -1
100
AcDbLine
 10
14.93795375851074
 20
-54.96479431821948
 11
8.937953758510744
 21
-54.96479431821948
  0
ARC
  5
1BF
100
AcDbEntity
  8
0
  6
ByLayer
 62
  256
370
   -1
100
AcDbCircle
 10
8.937953758510744
 20
-53.46479431821948
 40
1.5
100
AcDbArc
 50
180
 51
270
  0
LINE
  5
1C0
100
AcDbEntity
  8
0
  6
ByLayer
 62
  256
370
   -1
100
AcDbLine
 10
7.437953758510744
 20
-52.96497290527666
 11
7.437953758510744
 21
-53.46479431821948
  0
ARC
  5
1C1
100
AcDbEntity
  8
0
  6
ByLayer
 62
  256
370
   -1
100
AcDbCircle
 10
6.437953758510744
 20
-52.96497290527666
 40
1
100
AcDbArc
 50
0
 51
90.16137112874728
  0
LINE
  5
1C2
100
AcDbEntity
  8
0
  6
ByLayer
 62
  256
370
   -1
100
AcDbLine
 10
-24.7457565321071
 20
-62
 11
24.74575653210708
 21
-62
  0
LINE
  5
1C3
100
AcDbEntity
  8
0
  6
ByLayer
 62
  256
370
   -1
100
AcDbLine
 10
-6.435137304720003
 20
-51.96497687149051
 11
6.435137304720003
 21
-51.96497687149051
  0
LINE
  5
1C4
100
AcDbEntity
  8
0
  6
ByLayer
 62
  256
370
   -1
100
AcDbLine
 10
-6.087393396654746
 20
22.44735901344262
 11
-15.6783414167388
 21
-31.94561040482141
  0
LINE
  5
1C5
100
AcDbEntity
  8
0
  6
ByLayer
 62
  256
370
   -1
100
AcDbLine
 10
-16.43795375851074
 20
-40.62801924496605
 11
-16.43795375851074
 21
-53.46479431821948
  0
ARC
  5
1C6
100
AcDbEntity
  8
0
  6
ByLayer
 62
  256
370
   -1
100
AcDbCircle
 10
33.56204624148926
 20
-40.62801924496605
 40
50
100
AcDbArc
 50
170.0000000502694
 51
180
  0
LINE
  5
1C7
100
AcDbEntity
  8
0
  6
ByLayer
 62
  256
370
   -1
100
AcDbLine
 10
16.43795375851074
 20
-40.62801924496607
 11
16.43795375851074
 21
-53.46479431821948
  0
LINE
  5
1C8
100
AcDbEntity
  8
0
  6
ByLayer
 62
  256
370
   -1
100
AcDbLine
 10
6.087393396654746
 20
22.44735901344263
 11
15.6783414167388
 21
-31.94561040482143
  0
ARC
  5
1C9
100
AcDbEntity
  8
0
  6
ByLayer
 62
  256
370
   -1
100
AcDbCircle
 10
-33.56204624148926
 20
-40.62801924496608
 40
50
100
AcDbArc
 50
2.544443745170813e-14
 51
9.99999994973061
  0
ENDSEC
  0
SECTION
  2
OBJECTS
  0
DICTIONARY
  5
C
330
0
100
AcDbDictionary
281
    1
  3
ACAD_GROUP
350
D
  0
DICTIONARY
  5
D
330
C
100
AcDbDictionary
281
    1
  0
PLOTSETTINGS
  5
1CA
100
AcDbPlotSettings
  6
1x1
 40
0
 41
0
 42
0
 43
0
  0
ENDSEC
  0
EOF
