999
dxfrw 0.6.3
  0
SECTION
  2
HEADER
  9
$ACADVER
  1
AC1021
  9
$DWGCODEPAGE
  3
ANSI_1252
  9
$INSBASE
 10
0
 20
0
 30
0
  9
$EXTMIN
 10
-137.4982204471726
 20
-51.84351652652703
 30
0
  9
$EXTMAX
 10
137.4982204471726
 20
66.18859117926718
 30
0
  9
$LIMMIN
 10
0
 20
0
  9
$LIMMAX
 10
420
 20
297
  9
$ORTHOMODE
 70
    0
  9
$REGENMODE
 70
    1
  9
$FILLMODE
 70
    1
  9
$QTEXTMODE
 70
    0
  9
$MIRRTEXT
 70
    0
  9
$LTSCALE
 40
1
  9
$ATTMODE
 70
    0
  9
$TEXTSIZE
 40
2.5
  9
$TRACEWID
 40
15.68
  9
$TEXTSTYLE
  7
STANDARD
  9
$CLAYER
  8
noname3
  9
$CELTYPE
  6
BYLAYER
  9
$CECOLOR
 62
  256
  9
$CELTSCALE
 40
1
  9
$DISPSILH
 70
    0
  9
$DIMSCALE
 40
2.5
  9
$DIMASZ
 40
2.5
  9
$DIMEXO
 40
0.625
  9
$DIMDLI
 40
3.75
  9
$DIMRND
 40
0
  9
$DIMDLE
 40
0
  9
$DIMEXE
 40
1.25
  9
$DIMTP
 40
0
  9
$DIMTM
 40
0
  9
$DIMTXT
 40
2.5
  9
$DIMCEN
 40
2.5
  9
$DIMTSZ
 40
0
  9
$DIMTOL
 70
    0
  9
$DIMLIM
 70
    0
  9
$DIMTIH
 70
    0
  9
$DIMTOH
 70
    0
  9
$DIMSE1
 70
    0
  9
$DIMSE2
 70
    0
  9
$DIMTAD
 70
    1
  9
$DIMZIN
 70
    8
  9
$DIMBLK
  1

  9
$DIMASO
 70
    1
  9
$DIMSHO
 70
    1
  9
$DIMPOST
  1

  9
$DIMAPOST
  1

  9
$DIMALT
 70
    0
  9
$DIMALTD
 70
    3
  9
$DIMALTF
 40
0.03937
  9
$DIMLFAC
 40
1
  9
$DIMTOFL
 70
    1
  9
$DIMTVP
 40
0
  9
$DIMTIX
 70
    0
  9
$DIMSOXD
 70
    0
  9
$DIMSAH
 70
    0
  9
$DIMBLK1
  1

  9
$DIMBLK2
  1

  9
$DIMSTYLE
  2
Standard
  9
$DIMCLRD
 70
    0
  9
$DIMCLRE
 70
    0
  9
$DIMCLRT
 70
    0
  9
$DIMTFAC
 40
1
  9
$DIMGAP
 40
0.625
  9
$DIMJUST
 70
    0
  9
$DIMSD1
 70
    0
  9
$DIMSD2
 70
    0
  9
$DIMTOLJ
 70
    0
  9
$DIMTZIN
 70
    8
  9
$DIMALTZ
 70
    0
  9
$DIMALTTZ
 70
    0
  9
$DIMUPT
 70
    0
  9
$DIMDEC
 70
    2
  9
$DIMTDEC
 70
    2
  9
$DIMALTU
 70
    2
  9
$DIMALTTD
 70
    3
  9
$DIMTXSTY
  7
STANDARD
  9
$DIMAUNIT
 70
    0
  9
$DIMADEC
 70
    0
  9
$DIMALTRND
 40
0
  9
$DIMAZIN
 70
    0
  9
$DIMDSEP
 70
   44
  9
$DIMATFIT
 70
    3
  9
$DIMFRAC
 70
    0
  9
$DIMLDRBLK
  1
STANDARD
  9
$DIMLUNIT
 70
    2
  9
$DIMLWD
 70
   -2
  9
$DIMLWE
 70
   -2
  9
$DIMTMOVE
 70
    0
  9
$DIMFXL
 40
1
  9
$DIMFXLON
 70
    0
  9
$DIMJOGANG
 40
0.7854
  9
$DIMTFILL
 70
    0
  9
$DIMTFILLCLR
 70
    0
  9
$DIMARCSYM
 70
    0
  9
$DIMLTYPE
  6

  9
$DIMLTEX1
  6

  9
$DIMLTEX2
  6

  9
$LUNITS
 70
    2
  9
$LUPREC
 70
    4
  9
$SKETCHINC
 40
1
  9
$FILLETRAD
 40
0
  9
$AUNITS
 70
    0
  9
$AUPREC
 70
    2
  9
$MENU
  1
.
  9
$ELEVATION
 40
0
  9
$PELEVATION
 40
0
  9
$THICKNESS
 40
0
  9
$LIMCHECK
 70
    0
  9
$CHAMFERA
 40
0
  9
$CHAMFERB
 40
0
  9
$CHAMFERC
 40
0
  9
$CHAMFERD
 40
0
  9
$SKPOLY
 70
    0
  9
$USRTIMER
 70
    1
  9
$ANGBASE
 50
0
  9
$ANGDIR
 70
    0
  9
$PDMODE
 70
   34
  9
$PDSIZE
 40
0
  9
$PLINEWID
 40
0
  9
$SPLFRAME
 70
    0
  9
$SPLINETYPE
 70
    2
  9
$SPLINESEGS
 70
    8
  9
$HANDSEED
  5
20000
  9
$SURFTAB1
 70
    6
  9
$SURFTAB2
 70
    6
  9
$SURFTYPE
 70
    6
  9
$SURFU
 70
    6
  9
$SURFV
 70
    6
  9
$UCSBASE
  2

  9
$UCSNAME
  2

  9
$UCSORG
 10
0
 20
0
 30
0
  9
$UCSXDIR
 10
1
 20
0
 30
0
  9
$UCSYDIR
 10
0
 20
1
 30
0
  9
$UCSORTHOREF
  2

  9
$UCSORTHOVIEW
 70
    0
  9
$UCSORGTOP
 10
0
 20
0
 30
0
  9
$UCSORGBOTTOM
 10
0
 20
0
 30
0
  9
$UCSORGLEFT
 10
0
 20
0
 30
0
  9
$UCSORGRIGHT
 10
0
 20
0
 30
0
  9
$UCSORGFRONT
 10
0
 20
0
 30
0
  9
$UCSORGBACK
 10
0
 20
0
 30
0
  9
$PUCSBASE
  2

  9
$PUCSNAME
  2

  9
$PUCSORG
 10
0
 20
0
 30
0
  9
$PUCSXDIR
 10
1
 20
0
 30
0
  9
$PUCSYDIR
 10
0
 20
1
 30
0
  9
$PUCSORTHOREF
  2

  9
$PUCSORTHOVIEW
 70
    0
  9
$PUCSORGTOP
 10
0
 20
0
 30
0
  9
$PUCSORGBOTTOM
 10
0
 20
0
 30
0
  9
$PUCSORGLEFT
 10
0
 20
0
 30
0
  9
$PUCSORGRIGHT
 10
0
 20
0
 30
0
  9
$PUCSORGFRONT
 10
0
 20
0
 30
0
  9
$PUCSORGBACK
 10
0
 20
0
 30
0
  9
$USERI1
 70
    0
  9
$USERI2
 70
    0
  9
$USERI3
 70
    0
  9
$USERI4
 70
    0
  9
$USERI5
 70
    0
  9
$USERR1
 40
0
  9
$USERR2
 40
0
  9
$USERR3
 40
0
  9
$USERR4
 40
0
  9
$USERR5
 40
0
  9
$WORLDVIEW
 70
    1
  9
$SHADEDGE
 70
    3
  9
$SHADEDIF
 70
   70
  9
$TILEMODE
 70
    1
  9
$MAXACTVP
 70
   64
  9
$PINSBASE
 10
0
 20
0
 30
0
  9
$PLIMCHECK
 70
    0
  9
$PEXTMIN
 10
0
 20
0
 30
0
  9
$PEXTMAX
 10
0
 20
0
 30
0
  9
$SNAPSTYLE
 70
    0
  9
$PLIMMIN
 10
0
 20
0
  9
$PLIMMAX
 10
210
 20
297
  9
$UNITMODE
 70
    0
  9
$VISRETAIN
 70
    1
  9
$PLINEGEN
 70
    0
  9
$PSLTSCALE
 70
    1
  9
$TREEDEPTH
 70
 3020
  9
$CMLSTYLE
  2
Standard
  9
$CMLJUST
 70
    0
  9
$CMLSCALE
 40
20
  9
$PROXYGRAPHICS
 70
    1
  9
$MEASUREMENT
 70
    1
  9
$CELWEIGHT
370
   -1
  9
$ENDCAPS
280
    0
  9
$JOINSTYLE
280
    0
  9
$LWDISPLAY
290
    0
  9
$INSUNITS
 70
    4
  9
$HYPERLINKBASE
  1

  9
$STYLESHEET
  1

  9
$XEDIT
290
    1
  9
$CEPSNTYPE
380
    0
  9
$PSTYLEMODE
290
    1
  9
$EXTNAMES
290
    1
  9
$PSVPSCALE
 40
1
  9
$OLESTARTUP
290
    0
  9
$SORTENTS
280
  127
  9
$INDEXCTL
280
    0
  9
$HIDETEXT
280
    1
  9
$XCLIPFRAME
290
    0
  9
$HALOGAP
280
    0
  9
$OBSCOLOR
 70
  257
  9
$OBSLTYPE
280
    0
  9
$INTERSECTIONDISPLAY
280
    0
  9
$INTERSECTIONCOLOR
 70
  257
  9
$DIMASSOC
280
    1
  9
$PROJECTNAME
  1

  9
$CAMERADISPLAY
290
    0
  9
$LENSLENGTH
 40
50
  9
$CAMERAHEIGHT
 40
0
  9
$STEPSPERSEC
 40
2
  9
$STEPSIZE
 40
50
  9
$3DDWFPREC
 40
2
  9
$PSOLWIDTH
 40
5
  9
$PSOLHEIGHT
 40
80
  9
$LOFTANG1
 40
1.570796326794897
  9
$LOFTANG2
 40
1.570796326794897
  9
$LOFTMAG1
 40
0
  9
$LOFTMAG2
 40
0
  9
$LOFTPARAM
 70
    7
  9
$LOFTNORMALS
280
    1
  9
$LATITUDE
 40
1
  9
$LONGITUDE
 40
1
  9
$NORTHDIRECTION
 40
0
  9
$TIMEZONE
 70
-8000
  9
$LIGHTGLYPHDISPLAY
280
    1
  9
$TILEMODELIGHTSYNCH
280
    1
  9
$SOLIDHIST
280
    1
  9
$SHOWHIST
280
    1
  9
$DWFFRAME
280
    2
  9
$DGNFRAME
280
    0
  9
$REALWORLDSCALE
290
    1
  9
$INTERFERECOLOR
 62
    1
  9
$CSHADOW
280
    0
  9
$SHADOWPLANELOCATION
 40
0
  0
ENDSEC
  0
SECTION
  2
CLASSES
  0
ENDSEC
  0
SECTION
  2
TABLES
  0
TABLE
  2
VPORT
  5
8
330
0
100
AcDbSymbolTable
 70
    1
  0
VPORT
  5
31
330
2
100
AcDbSymbolTableRecord
100
AcDbViewportTableRecord
  2
*ACTIVE
 70
    0
 10
0
 20
0
 11
1
 21
1
 12
69.80354442946951
 22
46.39510505886191
 13
0
 23
0
 14
10
 24
10
 15
10
 25
10
 16
0
 26
0
 36
1
 17
0
 27
0
 37
0
 40
170.8183413530825
 41
1.634567901234568
 42
50
 43
0
 44
0
 50
0
 51
0
 71
    0
 72
  100
 73
    1
 74
    3
 75
    0
 76
    1
 77
    0
 78
    0
281
    0
 65
    1
110
0
120
0
130
0
111
1
121
0
131
0
112
0
122
1
132
0
 79
    0
146
0
348
10020
 60
    7
 61
    5
292
1
282
    1
141
0
142
0
 63
  250
421
3358443
  0
ENDTAB
  0
TABLE
  2
LTYPE
  5
5
330
0
100
AcDbSymbolTable
 70
    4
  0
LTYPE
  5
14
330
5
100
AcDbSymbolTableRecord
100
AcDbLinetypeTableRecord
  2
ByBlock
 70
    0
  3

 72
   65
 73
    0
 40
0
  0
LTYPE
  5
15
330
5
100
AcDbSymbolTableRecord
100
AcDbLinetypeTableRecord
  2
ByLayer
 70
    0
  3

 72
   65
 73
    0
 40
0
  0
LTYPE
  5
16
330
5
100
AcDbSymbolTableRecord
100
AcDbLinetypeTableRecord
  2
Continuous
 70
    0
  3
Solid line
 72
   65
 73
    0
 40
0
  0
LTYPE
  5
32
330
5
100
AcDbSymbolTableRecord
100
AcDbLinetypeTableRecord
  2
DOT
 70
    0
  3
Dot . . . . . . . . . . . . . . . . . . . . . .
 72
   65
 73
    2
 40
6.35
 49
0
 74
    0
 49
-6.35
 74
    0
  0
LTYPE
  5
33
330
5
100
AcDbSymbolTableRecord
100
AcDbLinetypeTableRecord
  2
DOTTINY
 70
    0
  3
Dot (.15x) .....................................
 72
   65
 73
    2
 40
0.9525
 49
0
 74
    0
 49
-0.9525
 74
    0
  0
LTYPE
  5
34
330
5
100
AcDbSymbolTableRecord
100
AcDbLinetypeTableRecord
  2
DOT2
 70
    0
  3
Dot (.5x) .....................................
 72
   65
 73
    2
 40
3.175
 49
0
 74
    0
 49
-3.175
 74
    0
  0
LTYPE
  5
35
330
5
100
AcDbSymbolTableRecord
100
AcDbLinetypeTableRecord
  2
DOTX2
 70
    0
  3
Dot (2x) .  .  .  .  .  .  .  .  .  .  .  .  .
 72
   65
 73
    2
 40
12.7
 49
0
 74
    0
 49
-12.7
 74
    0
  0
LTYPE
  5
36
330
5
100
AcDbSymbolTableRecord
100
AcDbLinetypeTableRecord
  2
DASHED
 70
    0
  3
Dashed _ _ _ _ _ _ _ _ _ _ _ _ _ _ _ _ _
 72
   65
 73
    2
 40
19.05
 49
12.7
 74
    0
 49
-6.35
 74
    0
  0
LTYPE
  5
37
330
5
100
AcDbSymbolTableRecord
100
AcDbLinetypeTableRecord
  2
DASHEDTINY
 70
    0
  3
Dashed (.15x) _ _ _ _ _ _ _ _ _ _ _ _ _ _ _ _ _
 72
   65
 73
    2
 40
2.8575
 49
1.905
 74
    0
 49
-0.9525
 74
    0
  0
LTYPE
  5
38
330
5
100
AcDbSymbolTableRecord
100
AcDbLinetypeTableRecord
  2
DASHED2
 70
    0
  3
Dashed (.5x) _ _ _ _ _ _ _ _ _ _ _ _ _ _ _ _ _
 72
   65
 73
    2
 40
9.524999999999999
 49
6.35
 74
    0
 49
-3.175
 74
    0
  0
LTYPE
  5
39
330
5
100
AcDbSymbolTableRecord
100
AcDbLinetypeTableRecord
  2
DASHEDX2
 70
    0
  3
Dashed (2x) ____  ____  ____  ____  ____  ___
 72
   65
 73
    2
 40
38.09999999999999
 49
25.4
 74
    0
 49
-12.7
 74
    0
  0
LTYPE
  5
3A
330
5
100
AcDbSymbolTableRecord
100
AcDbLinetypeTableRecord
  2
DASHDOT
 70
    0
  3
Dash dot __ . __ . __ . __ . __ . __ . __ . __
 72
   65
 73
    4
 40
25.4
 49
12.7
 74
    0
 49
-6.35
 74
    0
 49
0
 74
    0
 49
-6.35
 74
    0
  0
LTYPE
  5
3B
330
5
100
AcDbSymbolTableRecord
100
AcDbLinetypeTableRecord
  2
DASHDOTTINY
 70
    0
  3
Dash dot (.15x) _._._._._._._._._._._._._._._.
 72
   65
 73
    4
 40
3.81
 49
1.905
 74
    0
 49
-0.9525
 74
    0
 49
0
 74
    0
 49
-0.9525
 74
    0
  0
LTYPE
  5
3C
330
5
100
AcDbSymbolTableRecord
100
AcDbLinetypeTableRecord
  2
DASHDOT2
 70
    0
  3
Dash dot (.5x) _._._._._._._._._._._._._._._.
 72
   65
 73
    4
 40
12.7
 49
6.35
 74
    0
 49
-3.175
 74
    0
 49
0
 74
    0
 49
-3.175
 74
    0
  0
LTYPE
  5
3D
330
5
100
AcDbSymbolTableRecord
100
AcDbLinetypeTableRecord
  2
DASHDOTX2
 70
    0
  3
Dash dot (2x) ____  .  ____  .  ____  .  ___
 72
   65
 73
    4
 40
50.8
 49
25.4
 74
    0
 49
-12.7
 74
    0
 49
0
 74
    0
 49
-12.7
 74
    0
  0
LTYPE
  5
3E
330
5
100
AcDbSymbolTableRecord
100
AcDbLinetypeTableRecord
  2
DIVIDE
 70
    0
  3
Divide ____ . . ____ . . ____ . . ____ . . ____
 72
   65
 73
    6
 40
31.75
 49
12.7
 74
    0
 49
-6.35
 74
    0
 49
0
 74
    0
 49
-6.35
 74
    0
 49
0
 74
    0
 49
-6.35
 74
    0
  0
LTYPE
  5
3F
330
5
100
AcDbSymbolTableRecord
100
AcDbLinetypeTableRecord
  2
DIVIDETINY
 70
    0
  3
Divide (.15x) __..__..__..__..__..__..__..__.._
 72
   65
 73
    6
 40
4.7625
 49
1.905
 74
    0
 49
-0.9525
 74
    0
 49
0
 74
    0
 49
-0.9525
 74
    0
 49
0
 74
    0
 49
-0.9525
 74
    0
  0
LTYPE
  5
40
330
5
100
AcDbSymbolTableRecord
100
AcDbLinetypeTableRecord
  2
DIVIDE2
 70
    0
  3
Divide (.5x) __..__..__..__..__..__..__..__.._
 72
   65
 73
    6
 40
15.875
 49
6.35
 74
    0
 49
-3.175
 74
    0
 49
0
 74
    0
 49
-3.175
 74
    0
 49
0
 74
    0
 49
-3.175
 74
    0
  0
LTYPE
  5
41
330
5
100
AcDbSymbolTableRecord
100
AcDbLinetypeTableRecord
  2
DIVIDEX2
 70
    0
  3
Divide (2x) ________  .  .  ________  .  .  _
 72
   65
 73
    6
 40
63.5
 49
25.4
 74
    0
 49
-12.7
 74
    0
 49
0
 74
    0
 49
-12.7
 74
    0
 49
0
 74
    0
 49
-12.7
 74
    0
  0
LTYPE
  5
42
330
5
100
AcDbSymbolTableRecord
100
AcDbLinetypeTableRecord
  2
BORDER
 70
    0
  3
Border __ __ . __ __ . __ __ . __ __ . __ __ .
 72
   65
 73
    6
 40
44.45
 49
12.7
 74
    0
 49
-6.35
 74
    0
 49
12.7
 74
    0
 49
-6.35
 74
    0
 49
0
 74
    0
 49
-6.35
 74
    0
  0
LTYPE
  5
43
330
5
100
AcDbSymbolTableRecord
100
AcDbLinetypeTableRecord
  2
BORDERTINY
 70
    0
  3
Border (.15x) __.__.__.__.__.__.__.__.__.__.__.
 72
   65
 73
    6
 40
6.6675
 49
1.905
 74
    0
 49
-0.9525
 74
    0
 49
1.905
 74
    0
 49
-0.9525
 74
    0
 49
0
 74
    0
 49
-0.9525
 74
    0
  0
LTYPE
  5
44
330
5
100
AcDbSymbolTableRecord
100
AcDbLinetypeTableRecord
  2
BORDER2
 70
    0
  3
Border (.5x) __.__.__.__.__.__.__.__.__.__.__.
 72
   65
 73
    6
 40
22.225
 49
6.35
 74
    0
 49
-3.175
 74
    0
 49
6.35
 74
    0
 49
-3.175
 74
    0
 49
0
 74
    0
 49
-3.175
 74
    0
  0
LTYPE
  5
45
330
5
100
AcDbSymbolTableRecord
100
AcDbLinetypeTableRecord
  2
BORDERX2
 70
    0
  3
Border (2x) ____  ____  .  ____  ____  .  ___
 72
   65
 73
    6
 40
88.89999999999999
 49
25.4
 74
    0
 49
-12.7
 74
    0
 49
25.4
 74
    0
 49
-12.7
 74
    0
 49
0
 74
    0
 49
-12.7
 74
    0
  0
LTYPE
  5
46
330
5
100
AcDbSymbolTableRecord
100
AcDbLinetypeTableRecord
  2
CENTER
 70
    0
  3
Center ____ _ ____ _ ____ _ ____ _ ____ _ ____
 72
   65
 73
    4
 40
50.8
 49
31.75
 74
    0
 49
-6.35
 74
    0
 49
6.35
 74
    0
 49
-6.35
 74
    0
  0
LTYPE
  5
47
330
5
100
AcDbSymbolTableRecord
100
AcDbLinetypeTableRecord
  2
CENTERTINY
 70
    0
  3
Center (.15x) ___ _ ___ _ ___ _ ___ _ ___ _ ___
 72
   65
 73
    4
 40
7.619999999999999
 49
4.7625
 74
    0
 49
-0.9525
 74
    0
 49
0.9525
 74
    0
 49
-0.9525
 74
    0
  0
LTYPE
  5
48
330
5
100
AcDbSymbolTableRecord
100
AcDbLinetypeTableRecord
  2
CENTER2
 70
    0
  3
Center (.5x) ___ _ ___ _ ___ _ ___ _ ___ _ ___
 72
   65
 73
    4
 40
28.575
 49
19.05
 74
    0
 49
-3.175
 74
    0
 49
3.175
 74
    0
 49
-3.175
 74
    0
  0
LTYPE
  5
49
330
5
100
AcDbSymbolTableRecord
100
AcDbLinetypeTableRecord
  2
CENTERX2
 70
    0
  3
Center (2x) ________  __  ________  __  _____
 72
   65
 73
    4
 40
101.6
 49
63.5
 74
    0
 49
-12.7
 74
    0
 49
12.7
 74
    0
 49
-12.7
 74
    0
  0
ENDTAB
  0
TABLE
  2
LAYER
  5
2
330
0
100
AcDbSymbolTable
 70
    1
  0
LAYER
  5
10
330
2
100
AcDbSymbolTableRecord
100
AcDbLayerTableRecord
  2
0
 70
    0
 62
    7
  6
CONTINUOUS
370
    0
390
F
  0
LAYER
  5
4A
330
2
100
AcDbSymbolTableRecord
100
AcDbLayerTableRecord
  2
noname
 70
    4
 62
    2
  6
CONTINUOUS
370
   -3
390
F
  0
LAYER
  5
4B
330
2
100
AcDbSymbolTableRecord
100
AcDbLayerTableRecord
  2
noname1
 70
    4
 62
    1
  6
CONTINUOUS
370
   -3
390
F
  0
LAYER
  5
4C
330
2
100
AcDbSymbolTableRecord
100
AcDbLayerTableRecord
  2
noname2
 70
    0
 62
    3
  6
CONTINUOUS
370
   -3
390
F
  0
LAYER
  5
4D
330
2
100
AcDbSymbolTableRecord
100
AcDbLayerTableRecord
  2
noname3
 70
    0
 62
  151
420
8571391
  6
CONTINUOUS
370
   -3
390
F
  0
LAYER
  5
4E
330
2
100
AcDbSymbolTableRecord
100
AcDbLayerTableRecord
  2
noname4
 70
    0
 62
    6
  6
CONTINUOUS
370
   -3
390
F
  0
ENDTAB
  0
TABLE
  2
STYLE
  5
3
330
0
100
AcDbSymbolTable
 70
    3
  0
STYLE
  5
4F
330
2
100
AcDbSymbolTableRecord
100
AcDbTextStyleTableRecord
  2
Standard
 70
    0
 40
0
 41
1
 50
0
 71
    0
 42
1
  3
txt
  4

  0
ENDTAB
  0
TABLE
  2
VIEW
  5
6
330
0
100
AcDbSymbolTable
 70
    0
  0
ENDTAB
  0
TABLE
  2
UCS
  5
7
330
0
100
AcDbSymbolTable
 70
    0
  0
ENDTAB
  0
TABLE
  2
APPID
  5
9
330
0
100
AcDbSymbolTable
 70
    1
  0
APPID
  5
12
330
9
100
AcDbSymbolTableRecord
100
AcDbRegAppTableRecord
  2
ACAD
 70
    0
  0
APPID
  5
50
330
9
100
AcDbSymbolTableRecord
100
AcDbRegAppTableRecord
  2
LibreCad
 70
    0
  0
ENDTAB
  0
TABLE
  2
DIMSTYLE
  5
A
330
0
100
AcDbSymbolTable
 70
    1
100
AcDbDimStyleTable
 71
    1
  0
DIMSTYLE
105
51
330
A
100
AcDbSymbolTableRecord
100
AcDbDimStyleTableRecord
  2
Standard
 70
    0
 40
1
 41
2.5
 42
0.625
 43
0.38
 44
1.25
 45
0
 46
0
 47
0
 48
0
 49
1
140
2.5
141
0.09
142
2.5
143
25.4
144
1
145
0
146
1
147
0.625
148
0
 71
    0
 72
    0
 73
    0
 74
    1
 75
    0
 76
    0
 77
    0
 78
    1
 79
    0
170
    0
171
    2
172
    0
173
    0
174
    0
175
    0
176
    0
177
    0
178
    0
179
    0
271
    2
272
    4
273
    2
274
    2
275
    0
276
    0
277
    2
278
    0
279
    0
280
    0
281
    0
282
    0
283
    1
284
    0
285
    0
286
    0
288
    0
289
    3
340
standard
341

371
   -2
372
   -2
  0
ENDTAB
  0
TABLE
  2
BLOCK_RECORD
  5
1
330
0
100
AcDbSymbolTable
 70
    2
  0
BLOCK_RECORD
  5
1F
330
1
100
AcDbSymbolTableRecord
100
AcDbBlockTableRecord
  2
*Model_Space
 70
    0
280
    1
281
    0
  0
BLOCK_RECORD
  5
1E
330
1
100
AcDbSymbolTableRecord
100
AcDbBlockTableRecord
  2
*Paper_Space
 70
    0
280
    1
281
    0
  0
ENDTAB
  0
ENDSEC
  0
SECTION
  2
BLOCKS
  0
BLOCK
  5
20
330
1F
100
AcDbEntity
  8
0
100
AcDbBlockBegin
  2
*Model_Space
 70
    0
 10
0
 20
0
 30
0
  3
*Model_Space
  1

  0
ENDBLK
  5
21
330
1F
100
AcDbEntity
  8
0
100
AcDbBlockEnd
  0
BLOCK
  5
1C
330
1B
100
AcDbEntity
  8
0
100
AcDbBlockBegin
  2
*Paper_Space
 70
    0
 10
0
 20
0
 30
0
  3
*Paper_Space
  1

  0
ENDBLK
  5
1D
330
1F
100
AcDbEntity
  8
0
100
AcDbBlockEnd
  0
ENDSEC
  0
SECTION
  2
ENTITIES
  0
ARC
  5
52
100
AcDbEntity
  8
noname
  6
ByLayer
 62
  256
370
   -1
100
AcDbCircle
 10
-113.018908678
 20
55.51077834242747
 40
5
100
AcDbArc
 50
84.46232214348895
 51
165.0000000082534
  0
ARC
  5
53
100
AcDbEntity
  8
noname
  6
ByLayer
 62
  256
370
   -1
100
AcDbCircle
 10
113.018908678
 20
55.51077834242747
 40
5
100
AcDbArc
 50
14.99999999174662
 51
95.53767785651107
  0
LINE
  5
54
100
AcDbEntity
  8
noname
  6
ByLayer
 62
  256
370
   -1
100
AcDbLine
 10
38.8120597112692
 20
53.33966194242309
 11
112.5364071433586
 21
60.48744311605537
  0
ARC
  5
55
100
AcDbEntity
  8
noname
  6
ByLayer
 62
  256
370
   -1
100
AcDbCircle
 10
36.88205357270374
 20
73.24632103693465
 40
20
100
AcDbArc
 50
255.0000000082534
 51
275.5376778565112
  0
LINE
  5
56
100
AcDbEntity
  8
noname
  6
ByLayer
 62
  256
370
   -1
100
AcDbLine
 10
-13.79787304697776
 20
66.12044283191987
 11
31.70567267343613
 21
53.92780451040763
  0
ARC
  5
57
100
AcDbEntity
  8
noname
  6
ByLayer
 62
  256
370
   -1
100
AcDbCircle
 10
-14.31551113690452
 20
64.18859117926718
 40
2
100
AcDbArc
 50
75.00000000825334
 51
164.9999947667472
  0
ARC
  5
58
100
AcDbEntity
  8
noname
  6
ByLayer
 62
  256
370
   -1
100
AcDbCircle
 10
19.84381736012465
 20
-31.84351652652703
 40
20
100
AcDbArc
 50
270
 51
284.9999999917466
  0
LINE
  5
59
100
AcDbEntity
  8
noname
  6
ByLayer
 62
  256
370
   -1
100
AcDbLine
 10
-19.84381736012472
 20
-51.84351652652702
 11
19.84381736012464
 21
-51.84351652652703
  0
ARC
  5
5A
100
AcDbEntity
  8
noname
  6
ByLayer
 62
  256
370
   -1
100
AcDbCircle
 10
-19.84381736012472
 20
-31.84351652652702
 40
20
100
AcDbArc
 50
255.0000000082534
 51
270
  0
LINE
  5
5B
100
AcDbEntity
  8
noname
  6
ByLayer
 62
  256
370
   -1
100
AcDbLine
 10
-117.8485378096317
 20
56.80487356724437
 11
-137.3278495788043
 21
-15.89290769367011
  0
LINE
  5
5C
100
AcDbEntity
  8
noname
  6
ByLayer
 62
  256
370
   -1
100
AcDbLine
 10
-133.7923156719895
 20
-22.01663205011875
 11
-25.02019825939232
 21
-51.16203305305403
  0
ARC
  5
5D
100
AcDbEntity
  8
noname
  6
ByLayer
 62
  256
370
   -1
100
AcDbCircle
 10
-132.4982204471726
 20
-17.187002918487
 40
5
100
AcDbArc
 50
165.0000000082536
 51
255.0000000082533
  0
LINE
  5
5E
100
AcDbEntity
  8
noname
  6
ByLayer
 62
  256
370
   -1
100
AcDbLine
 10
133.7923156719895
 20
-22.01663205011878
 11
25.02019825939226
 21
-51.16203305305405
  0
LINE
  5
5F
100
AcDbEntity
  8
noname
  6
ByLayer
 62
  256
370
   -1
100
AcDbLine
 10
117.8485378096317
 20
56.80487356724434
 11
137.3278495788043
 21
-15.89290769367011
  0
ARC
  5
60
100
AcDbEntity
  8
noname
  6
ByLayer
 62
  256
370
   -1
100
AcDbCircle
 10
132.4982204471726
 20
-17.18700291848701
 40
5
100
AcDbArc
 50
284.9999999917467
 51
14.99999999174672
  0
LINE
  5
61
100
AcDbEntity
  8
noname1
  6
ByLayer
 62
  256
370
   -1
100
AcDbLine
 10
-108.9268861
 20
56.14863829999999
 11
-99.73449789999999
 21
40.2269549
  0
LINE
  5
62
100
AcDbEntity
  8
noname1
  6
ByLayer
 62
  256
370
   -1
100
AcDbLine
 10
-116.1574998
 20
38.36406409999999
 11
-106.9651116
 21
22.4423807
  0
LINE
  5
63
100
AcDbEntity
  8
noname1
  6
ByLayer
 62
  256
370
   -1
100
AcDbLine
 10
-90.52599909999999
 20
51.21813549999999
 11
-81.3336109
 21
35.2964521
  0
LINE
  5
64
100
AcDbEntity
  8
noname1
  6
ByLayer
 62
  256
370
   -1
100
AcDbLine
 10
-95.45650189999999
 20
32.81724849999999
 11
-86.2641137
 21
16.8955651
  0
LINE
  5
65
100
AcDbEntity
  8
noname1
  6
ByLayer
 62
  256
370
   -1
100
AcDbLine
 10
-70.8924864
 20
50.88785439999999
 11
-61.7000982
 21
34.966171
  0
LINE
  5
66
100
AcDbEntity
  8
noname1
  6
ByLayer
 62
  256
370
   -1
100
AcDbLine
 10
-75.82298919999999
 20
32.4869674
 11
-66.630601
 21
16.56528400000001
  0
LINE
  5
67
100
AcDbEntity
  8
noname1
  6
ByLayer
 62
  256
370
   -1
100
AcDbLine
 10
-100.3870047
 20
14.41636149999999
 11
-91.1946165
 21
-1.505321899999998
  0
LINE
  5
68
100
AcDbEntity
  8
noname1
  6
ByLayer
 62
  256
370
   -1
100
AcDbLine
 10
-80.75349199999999
 20
14.08608039999999
 11
-71.5611038
 21
-1.835602999999999
  0
LINE
  5
69
100
AcDbEntity
  8
noname1
  6
ByLayer
 62
  256
370
   -1
100
AcDbLine
 10
-56.1894765
 20
32.15668629999999
 11
-46.9970883
 21
16.2350029
  0
LINE
  5
6A
100
AcDbEntity
  8
noname1
  6
ByLayer
 62
  256
370
   -1
100
AcDbLine
 10
-51.2589737
 20
50.5575733
 11
-42.0665855
 21
34.63588990000001
  0
LINE
  5
6B
100
AcDbEntity
  8
noname1
  6
ByLayer
 62
  256
370
   -1
100
AcDbLine
 10
-61.1199793
 20
13.75579939999999
 11
-51.9275911
 21
-2.165883999999998
  0
LINE
  5
6C
100
AcDbEntity
  8
noname1
  6
ByLayer
 62
  256
370
   -1
100
AcDbLine
 10
-80.01628789999999
 20
-10.7639669
 11
-70.8238997
 21
-26.68565029999999
  0
LINE
  5
6D
100
AcDbEntity
  8
noname1
  6
ByLayer
 62
  256
370
   -1
100
AcDbLine
 10
-103.0173966
 20
-4.600838400000001
 11
-93.8250084
 21
-20.52252179999999
  0
LINE
  5
6E
100
AcDbEntity
  8
noname1
  6
ByLayer
 62
  256
370
   -1
100
AcDbLine
 10
-126.0185054
 20
1.562290099999998
 11
-116.8261172
 21
-14.35939329999999
  0
LINE
  5
6F
100
AcDbEntity
  8
noname1
  6
ByLayer
 62
  256
370
   -1
100
AcDbLine
 10
-121.0880026
 20
19.9631771
 11
-111.8956144
 21
4.041493700000004
  0
LINE
  5
70
100
AcDbEntity
  8
noname1
  6
ByLayer
 62
  256
370
   -1
100
AcDbLine
 10
-34.0907124
 20
41.0268488
 11
-24.8983242
 21
25.1051654
  0
LINE
  5
71
100
AcDbEntity
  8
noname1
  6
ByLayer
 62
  256
370
   -1
100
AcDbLine
 10
-39.0212152
 20
22.62596179999999
 11
-29.828827
 21
6.7042784
  0
LINE
  5
72
100
AcDbEntity
  8
noname1
  6
ByLayer
 62
  256
370
   -1
100
AcDbLine
 10
-43.951718
 20
4.225074799999987
 11
-34.7593298
 21
-11.6966086
  0
LINE
  5
73
100
AcDbEntity
  8
noname1
  6
ByLayer
 62
  256
370
   -1
100
AcDbLine
 10
-26.78345669999999
 20
-5.305649800000012
 11
-17.59106849999999
 21
-21.2273332
  0
LINE
  5
74
100
AcDbEntity
  8
noname1
  6
ByLayer
 62
  256
370
   -1
100
AcDbLine
 10
-21.85295389999999
 20
13.09523719999999
 11
-12.66056569999999
 21
-2.826446199999999
  0
LINE
  5
75
100
AcDbEntity
  8
noname1
  6
ByLayer
 62
  256
370
   -1
100
AcDbLine
 10
-16.92245109999999
 20
31.4961242
 11
-7.730062899999993
 21
15.5744408
  0
LINE
  5
76
100
AcDbEntity
  8
noname1
  6
ByLayer
 62
  256
370
   -1
100
AcDbLine
 10
-46.74725049999999
 20
-24.6088814
 11
-37.5548623
 21
-40.53056479999999
  0
LINE
  5
77
100
AcDbEntity
  8
noname1
  6
ByLayer
 62
  256
370
   -1
100
AcDbLine
 10
108.9268861
 20
56.14863829999999
 11
99.73449789999999
 21
40.22695490000002
  0
LINE
  5
78
100
AcDbEntity
  8
noname1
  6
ByLayer
 62
  256
370
   -1
100
AcDbLine
 10
116.1574998
 20
38.36406409999996
 11
106.9651116
 21
22.44238070000003
  0
LINE
  5
79
100
AcDbEntity
  8
noname1
  6
ByLayer
 62
  256
370
   -1
100
AcDbLine
 10
90.52599909999999
 20
51.21813550000002
 11
81.3336109
 21
35.2964521
  0
LINE
  5
7A
100
AcDbEntity
  8
noname1
  6
ByLayer
 62
  256
370
   -1
100
AcDbLine
 10
95.45650189999999
 20
32.81724849999999
 11
86.2641137
 21
16.8955651
  0
LINE
  5
7B
100
AcDbEntity
  8
noname1
  6
ByLayer
 62
  256
370
   -1
100
AcDbLine
 10
70.8924864
 20
50.88785439999999
 11
61.7000982
 21
34.96617099999997
  0
LINE
  5
7C
100
AcDbEntity
  8
noname1
  6
ByLayer
 62
  256
370
   -1
100
AcDbLine
 10
75.82298919999999
 20
32.4869674
 11
66.630601
 21
16.56528400000001
  0
LINE
  5
7D
100
AcDbEntity
  8
noname1
  6
ByLayer
 62
  256
370
   -1
100
AcDbLine
 10
100.3870047
 20
14.41636149999997
 11
91.1946165
 21
-1.505321900000027
  0
LINE
  5
7E
100
AcDbEntity
  8
noname1
  6
ByLayer
 62
  256
370
   -1
100
AcDbLine
 10
80.75349199999999
 20
14.08608040000001
 11
71.5611038
 21
-1.835602999999985
  0
LINE
  5
7F
100
AcDbEntity
  8
noname1
  6
ByLayer
 62
  256
370
   -1
100
AcDbLine
 10
56.1894765
 20
32.15668629999999
 11
46.9970883
 21
16.2350029
  0
LINE
  5
80
100
AcDbEntity
  8
noname1
  6
ByLayer
 62
  256
370
   -1
100
AcDbLine
 10
51.2589737
 20
50.55757329999997
 11
42.0665855
 21
34.63588990000001
  0
LINE
  5
81
100
AcDbEntity
  8
noname1
  6
ByLayer
 62
  256
370
   -1
100
AcDbLine
 10
61.1199793
 20
13.75579940000001
 11
51.9275911
 21
-2.165884000000013
  0
LINE
  5
82
100
AcDbEntity
  8
noname1
  6
ByLayer
 62
  256
370
   -1
100
AcDbLine
 10
121.0880026
 20
19.9631771
 11
111.8956144
 21
4.041493699999975
  0
LINE
  5
83
100
AcDbEntity
  8
noname1
  6
ByLayer
 62
  256
370
   -1
100
AcDbLine
 10
34.0907124
 20
41.02684880000002
 11
24.8983242
 21
25.1051654
  0
LINE
  5
84
100
AcDbEntity
  8
noname1
  6
ByLayer
 62
  256
370
   -1
100
AcDbLine
 10
39.0212152
 20
22.62596180000001
 11
29.828827
 21
6.704278399999986
  0
LINE
  5
85
100
AcDbEntity
  8
noname1
  6
ByLayer
 62
  256
370
   -1
100
AcDbLine
 10
43.951718
 20
4.225074799999987
 11
34.7593298
 21
-11.69660859999998
  0
LINE
  5
86
100
AcDbEntity
  8
noname1
  6
ByLayer
 62
  256
370
   -1
100
AcDbLine
 10
26.78345669999999
 20
-5.30564980000004
 11
17.59106849999999
 21
-21.2273332
  0
LINE
  5
87
100
AcDbEntity
  8
noname1
  6
ByLayer
 62
  256
370
   -1
100
AcDbLine
 10
21.85295389999999
 20
13.09523719999998
 11
12.66056569999999
 21
-2.826446199999985
  0
LINE
  5
88
100
AcDbEntity
  8
noname1
  6
ByLayer
 62
  256
370
   -1
100
AcDbLine
 10
16.92245109999999
 20
31.49612420000003
 11
7.730062899999993
 21
15.5744408
  0
LINE
  5
89
100
AcDbEntity
  8
noname1
  6
ByLayer
 62
  256
370
   -1
100
AcDbLine
 10
46.74725049999999
 20
-24.6088814
 11
37.5548623
 21
-40.53056479999991
  0
LINE
  5
8A
100
AcDbEntity
  8
noname1
  6
ByLayer
 62
  256
370
   -1
100
AcDbLine
 10
86.91662049999999
 20
-8.915028300000003
 11
77.72423230000001
 21
-24.83671170000001
  0
LINE
  5
8B
100
AcDbEntity
  8
noname1
  6
ByLayer
 62
  256
370
   -1
100
AcDbLine
 10
105.3175075
 20
-3.984525500000004
 11
96.12511929999999
 21
-19.90620890000001
  0
LINE
  5
8C
100
AcDbEntity
  8
noname1
  6
ByLayer
 62
  256
370
   -1
100
AcDbLine
 10
123.7183945
 20
0.9459772999999956
 11
114.5260063
 21
-14.97570610000001
  0
LINE
  5
8D
100
AcDbEntity
  8
noname
  6
ByLayer
 62
  256
370
   -1
100
AcDbLine
 10
-24.00312802142929
 20
51.90389469834207
 11
-112.5364071433586
 21
60.48744311605537
  0
LINE
  5
8E
100
AcDbEntity
  8
noname
  6
ByLayer
 62
  256
370
   -1
100
AcDbLine
 10
-18.69099747354201
 20
55.58646380533115
 11
-16.24736274220288
 21
64.7062294459227
  0
ARC
  5
8F
100
AcDbEntity
  8
noname
  6
ByLayer
 62
  256
370
   -1
100
AcDbCircle
 10
-23.52062648678793
 20
56.88055947196995
 40
5
100
AcDbArc
 50
264.4623221434888
 51
344.9999947667474
  0
LINE
  5
90
100
AcDbEntity
  8
noname1
  6
ByLayer
 62
  256
370
   -1
100
AcDbLine
 10
-6.5
 20
-33.5
 11
6.5
 21
-46.5
  0
LINE
  5
91
100
AcDbEntity
  8
noname1
  6
ByLayer
 62
  256
370
   -1
100
AcDbLine
 10
-14.31551113690452
 20
64.18859117926719
 11
14.31551188525017
 21
35.81140807902189
  0
LINE
  5
92
100
AcDbEntity
  8
noname1
  6
ByLayer
 62
  256
370
   -1
100
AcDbLine
 10
-93.9550357473473
 20
52.13694311007323
 11
-97.31968334734729
 21
39.57990731007324
  0
LINE
  5
93
100
AcDbEntity
  8
noname1
  6
ByLayer
 62
  256
370
   -1
100
AcDbLine
 10
-75.5541487473473
 20
47.20644031007323
 11
-78.9187963473473
 21
34.64940451007324
  0
LINE
  5
94
100
AcDbEntity
  8
noname1
  6
ByLayer
 62
  256
370
   -1
100
AcDbLine
 10
-55.92063604734729
 20
46.87615921007323
 11
-59.28528364734729
 21
34.31912341007323
  0
LINE
  5
95
100
AcDbEntity
  8
noname1
  6
ByLayer
 62
  256
370
   -1
100
AcDbLine
 10
-101.1856494473473
 20
34.35236891007322
 11
-104.5502970473473
 21
21.79533311007323
  0
LINE
  5
96
100
AcDbEntity
  8
noname1
  6
ByLayer
 62
  256
370
   -1
100
AcDbLine
 10
-80.4846515473473
 20
28.80555331007322
 11
-83.8492991473473
 21
16.24851751007323
  0
LINE
  5
97
100
AcDbEntity
  8
noname1
  6
ByLayer
 62
  256
370
   -1
100
AcDbLine
 10
-60.85113884734729
 20
28.47527221007323
 11
-64.2157864473473
 21
15.91823641007324
  0
LINE
  5
98
100
AcDbEntity
  8
noname1
  6
ByLayer
 62
  256
370
   -1
100
AcDbLine
 10
-106.1161522473473
 20
15.95148191007324
 11
-109.4807998473473
 21
3.394446110073234
  0
LINE
  5
99
100
AcDbEntity
  8
noname1
  6
ByLayer
 62
  256
370
   -1
100
AcDbLine
 10
-85.4151543473473
 20
10.40466631007323
 11
-88.77980194734729
 21
-2.152369489926768
  0
LINE
  5
9A
100
AcDbEntity
  8
noname1
  6
ByLayer
 62
  256
370
   -1
100
AcDbLine
 10
-65.7816416473473
 20
10.07438521007323
 11
-69.1462892473473
 21
-2.482650589926762
  0
LINE
  5
9B
100
AcDbEntity
  8
noname1
  6
ByLayer
 62
  256
370
   -1
100
AcDbLine
 10
-46.1481289473473
 20
9.744104210073234
 11
-49.51277654734729
 21
-2.812931589926761
  0
LINE
  5
9C
100
AcDbEntity
  8
noname1
  6
ByLayer
 62
  256
370
   -1
100
AcDbLine
 10
-111.0466550473473
 20
-2.449405089926769
 11
-114.4113026473473
 21
-15.00644088992676
  0
LINE
  5
9D
100
AcDbEntity
  8
noname1
  6
ByLayer
 62
  256
370
   -1
100
AcDbLine
 10
-88.0455462473473
 20
-8.612533589926768
 11
-91.4101938473473
 21
-21.16956938992676
  0
LINE
  5
9E
100
AcDbEntity
  8
noname1
  6
ByLayer
 62
  256
370
   -1
100
AcDbLine
 10
-65.0444375473473
 20
-14.77566208992677
 11
-68.4090851473473
 21
-27.33269788992676
  0
LINE
  5
9F
100
AcDbEntity
  8
noname1
  6
ByLayer
 62
  256
370
   -1
100
AcDbLine
 10
-28.97986764734729
 20
0.2133796100732323
 11
-32.3445152473473
 21
-12.34365618992676
  0
LINE
  5
A0
100
AcDbEntity
  8
noname1
  6
ByLayer
 62
  256
370
   -1
100
AcDbLine
 10
-24.04936484734729
 20
18.61426661007323
 11
-27.4140124473473
 21
6.05723081007323
  0
LINE
  5
A1
100
AcDbEntity
  8
noname1
  6
ByLayer
 62
  256
370
   -1
100
AcDbLine
 10
-19.11886204734729
 20
37.01515361007323
 11
-22.4835096473473
 21
24.45811781007323
  0
LINE
  5
A2
100
AcDbEntity
  8
noname1
  6
ByLayer
 62
  256
370
   -1
100
AcDbLine
 10
-11.81160634734729
 20
-9.317344989926763
 11
-15.17625394734729
 21
-21.87438078992677
  0
LINE
  5
A3
100
AcDbEntity
  8
noname1
  6
ByLayer
 62
  256
370
   -1
100
AcDbLine
 10
-6.881103547347289
 20
9.083542010073232
 11
-10.24575114734729
 21
-3.473493789926762
  0
LINE
  5
A4
100
AcDbEntity
  8
noname1
  6
ByLayer
 62
  256
370
   -1
100
AcDbLine
 10
-1.950600747347303
 20
27.48442901007323
 11
-5.315248347347286
 21
14.92739321007324
  0
LINE
  5
A5
100
AcDbEntity
  8
noname1
  6
ByLayer
 62
  256
370
   -1
100
AcDbLine
 10
1.950600747347304
 20
27.48442901007323
 11
5.315248347347317
 21
14.92739321007323
  0
LINE
  5
A6
100
AcDbEntity
  8
noname1
  6
ByLayer
 62
  256
370
   -1
100
AcDbLine
 10
6.881103547347304
 20
9.083542010073231
 11
10.24575114734732
 21
-3.473493789926764
  0
LINE
  5
A7
100
AcDbEntity
  8
noname1
  6
ByLayer
 62
  256
370
   -1
100
AcDbLine
 10
11.8116063473473
 20
-9.317344989926765
 11
15.17625394734731
 21
-21.87438078992677
  0
LINE
  5
A8
100
AcDbEntity
  8
noname1
  6
ByLayer
 62
  256
370
   -1
100
AcDbLine
 10
-31.77540014734729
 20
-28.62057658992677
 11
-35.14004774734729
 21
-41.17761238992676
  0
LINE
  5
A9
100
AcDbEntity
  8
noname1
  6
ByLayer
 62
  256
370
   -1
100
AcDbLine
 10
31.77540014734729
 20
-28.62057658992677
 11
35.1400477473473
 21
-41.17761238992676
  0
LINE
  5
AA
100
AcDbEntity
  8
noname1
  6
ByLayer
 62
  256
370
   -1
100
AcDbLine
 10
28.97986764734731
 20
0.2133796100732386
 11
32.3445152473473
 21
-12.34365618992676
  0
LINE
  5
AB
100
AcDbEntity
  8
noname1
  6
ByLayer
 62
  256
370
   -1
100
AcDbLine
 10
24.04936484734731
 20
18.61426661007324
 11
27.4140124473473
 21
6.057230810073235
  0
LINE
  5
AC
100
AcDbEntity
  8
noname1
  6
ByLayer
 62
  256
370
   -1
100
AcDbLine
 10
19.11886204734731
 20
37.01515361007323
 11
22.4835096473473
 21
24.45811781007324
  0
LINE
  5
AD
100
AcDbEntity
  8
noname1
  6
ByLayer
 62
  256
370
   -1
100
AcDbLine
 10
46.1481289473473
 20
9.744104210073232
 11
49.51277654734731
 21
-2.812931589926763
  0
LINE
  5
AE
100
AcDbEntity
  8
noname1
  6
ByLayer
 62
  256
370
   -1
100
AcDbLine
 10
41.2176261473473
 20
28.14499111007324
 11
44.58227374734731
 21
15.58795531007324
  0
LINE
  5
AF
100
AcDbEntity
  8
noname1
  6
ByLayer
 62
  256
370
   -1
100
AcDbLine
 10
36.2871233473473
 20
46.54587811007323
 11
39.65177094734731
 21
33.98884231007322
  0
LINE
  5
B0
100
AcDbEntity
  8
noname1
  6
ByLayer
 62
  256
370
   -1
100
AcDbLine
 10
55.92063604734731
 20
46.87615921007323
 11
59.28528364734729
 21
34.31912341007324
  0
LINE
  5
B1
100
AcDbEntity
  8
noname1
  6
ByLayer
 62
  256
370
   -1
100
AcDbLine
 10
60.85113884734731
 20
28.47527221007324
 11
64.2157864473473
 21
15.91823641007324
  0
LINE
  5
B2
100
AcDbEntity
  8
noname1
  6
ByLayer
 62
  256
370
   -1
100
AcDbLine
 10
65.78164164734731
 20
10.07438521007324
 11
69.1462892473473
 21
-2.482650589926757
  0
LINE
  5
B3
100
AcDbEntity
  8
noname1
  6
ByLayer
 62
  256
370
   -1
100
AcDbLine
 10
71.94477014734731
 20
-12.92672348992677
 11
75.3094177473473
 21
-25.48375928992676
  0
LINE
  5
B4
100
AcDbEntity
  8
noname1
  6
ByLayer
 62
  256
370
   -1
100
AcDbLine
 10
90.3456571473473
 20
-7.996220689926774
 11
93.71030474734731
 21
-20.55325648992677
  0
LINE
  5
B5
100
AcDbEntity
  8
noname1
  6
ByLayer
 62
  256
370
   -1
100
AcDbLine
 10
85.4151543473473
 20
10.40466631007323
 11
88.77980194734731
 21
-2.152369489926767
  0
LINE
  5
B6
100
AcDbEntity
  8
noname1
  6
ByLayer
 62
  256
370
   -1
100
AcDbLine
 10
80.4846515473473
 20
28.80555331007322
 11
83.84929914734731
 21
16.24851751007323
  0
LINE
  5
B7
100
AcDbEntity
  8
noname1
  6
ByLayer
 62
  256
370
   -1
100
AcDbLine
 10
75.5541487473473
 20
47.20644031007323
 11
78.91879634734731
 21
34.64940451007324
  0
LINE
  5
B8
100
AcDbEntity
  8
noname1
  6
ByLayer
 62
  256
370
   -1
100
AcDbLine
 10
93.95503574734731
 20
52.13694311007323
 11
97.31968334734732
 21
39.57990731007324
  0
LINE
  5
B9
100
AcDbEntity
  8
noname1
  6
ByLayer
 62
  256
370
   -1
100
AcDbLine
 10
101.1856494473473
 20
34.35236891007322
 11
104.5502970473473
 21
21.79533311007323
  0
LINE
  5
BA
100
AcDbEntity
  8
noname1
  6
ByLayer
 62
  256
370
   -1
100
AcDbLine
 10
106.1161522473473
 20
15.95148191007324
 11
109.4807998473473
 21
3.394446110073235
  0
LINE
  5
BB
100
AcDbEntity
  8
noname1
  6
ByLayer
 62
  256
370
   -1
100
AcDbLine
 10
108.7465441473473
 20
-3.065717889926774
 11
112.1111917473473
 21
-15.62275368992677
  0
LINE
  5
BC
100
AcDbEntity
  8
noname1
  6
ByLayer
 62
  256
370
   -1
100
AcDbLine
 10
17.43800000000002
 20
-34.5
 11
17.43800000000002
 21
-48.5
  0
LINE
  5
BD
100
AcDbEntity
  8
noname1
  6
ByLayer
 62
  256
370
   -1
100
AcDbLine
 10
-41.2176261473473
 20
28.14499111007324
 11
-44.58227374734729
 21
15.58795531007324
  0
LINE
  5
BE
100
AcDbEntity
  8
noname1
  6
ByLayer
 62
  256
370
   -1
100
AcDbLine
 10
-36.2871233473473
 20
46.54587811007323
 11
-39.65177094734729
 21
33.98884231007322
  0
CIRCLE
  5
BF
100
AcDbEntity
  8
noname3
  6
ByLayer
 62
  256
370
   -1
100
AcDbCircle
 10
121.7103908348901
 20
-16.67412267897904
 40
1.1
  0
CIRCLE
  5
C0
100
AcDbEntity
  8
noname3
  6
ByLayer
 62
  256
370
   -1
100
AcDbCircle
 10
47.40006722268911
 20
-16.37174645212945
 40
1.1
  0
CIRCLE
  5
C1
100
AcDbEntity
  8
noname3
  6
ByLayer
 62
  256
370
   -1
100
AcDbCircle
 10
31.95976968430745
 20
23.86556362223506
 40
1.1
  0
CIRCLE
  5
C2
100
AcDbEntity
  8
noname3
  6
ByLayer
 62
  256
370
   -1
100
AcDbCircle
 10
98.10261096016959
 20
36.65798167345822
 40
1.1
  0
CIRCLE
  5
C3
100
AcDbEntity
  8
noname3
  6
ByLayer
 62
  256
370
   -1
100
AcDbCircle
 10
0
 20
0
 40
1.1
  0
CIRCLE
  5
C4
100
AcDbEntity
  8
noname3
  6
ByLayer
 62
  256
370
   -1
100
AcDbCircle
 10
-121.7103908348901
 20
-16.67412267897905
 40
1.1
  0
CIRCLE
  5
C5
100
AcDbEntity
  8
noname3
  6
ByLayer
 62
  256
370
   -1
100
AcDbCircle
 10
-47.40006722268911
 20
-16.37174645212944
 40
1.1
  0
CIRCLE
  5
C6
100
AcDbEntity
  8
noname3
  6
ByLayer
 62
  256
370
   -1
100
AcDbCircle
 10
-31.95976968430745
 20
23.86556362223506
 40
1.1
  0
CIRCLE
  5
C7
100
AcDbEntity
  8
noname3
  6
ByLayer
 62
  256
370
   -1
100
AcDbCircle
 10
-98.10261096016959
 20
36.65798167345822
 40
1.1
  0
ENDSEC
  0
SECTION
  2
OBJECTS
  0
DICTIONARY
  5
C
330
0
100
AcDbDictionary
281
    1
  3
ACAD_GROUP
350
D
  0
DICTIONARY
  5
D
330
C
100
AcDbDictionary
281
    1
  0
PLOTSETTINGS
  5
C8
100
AcDbPlotSettings
  6
1x1
 40
0
 41
0
 42
0
 43
0
  0
ENDSEC
  0
EOF
