999
dxfrw 0.6.3
  0
SECTION
  2
HEADER
  9
$ACADVER
  1
AC1021
  9
$DWGCODEPAGE
  3
ANSI_1252
  9
$INSBASE
 10
0
 20
0
 30
0
  9
$EXTMIN
 10
-152.4580031822246
 20
-69.67505412315725
 30
0
  9
$EXTMAX
 10
152.4580031822246
 20
49.10162803496106
 30
0
  9
$LIMMIN
 10
0
 20
0
  9
$LIMMAX
 10
420
 20
297
  9
$ORTHOMODE
 70
    0
  9
$REGENMODE
 70
    1
  9
$FILLMODE
 70
    1
  9
$QTEXTMODE
 70
    0
  9
$MIRRTEXT
 70
    0
  9
$LTSCALE
 40
1
  9
$ATTMODE
 70
    0
  9
$TEXTSIZE
 40
2.5
  9
$TRACEWID
 40
15.68
  9
$TEXTSTYLE
  7
STANDARD
  9
$CLAYER
  8
diode
  9
$CELTYPE
  6
BYLAYER
  9
$CECOLOR
 62
  256
  9
$CELTSCALE
 40
1
  9
$DISPSILH
 70
    0
  9
$DIMSCALE
 40
2.5
  9
$DIMASZ
 40
2.5
  9
$DIMEXO
 40
0.625
  9
$DIMDLI
 40
3.75
  9
$DIMRND
 40
0
  9
$DIMDLE
 40
0
  9
$DIMEXE
 40
1.25
  9
$DIMTP
 40
0
  9
$DIMTM
 40
0
  9
$DIMTXT
 40
2.5
  9
$DIMCEN
 40
2.5
  9
$DIMTSZ
 40
0
  9
$DIMTOL
 70
    0
  9
$DIMLIM
 70
    0
  9
$DIMTIH
 70
    0
  9
$DIMTOH
 70
    0
  9
$DIMSE1
 70
    0
  9
$DIMSE2
 70
    0
  9
$DIMTAD
 70
    1
  9
$DIMZIN
 70
    8
  9
$DIMBLK
  1

  9
$DIMASO
 70
    1
  9
$DIMSHO
 70
    1
  9
$DIMPOST
  1

  9
$DIMAPOST
  1

  9
$DIMALT
 70
    0
  9
$DIMALTD
 70
    3
  9
$DIMALTF
 40
0.03937
  9
$DIMLFAC
 40
1
  9
$DIMTOFL
 70
    1
  9
$DIMTVP
 40
0
  9
$DIMTIX
 70
    0
  9
$DIMSOXD
 70
    0
  9
$DIMSAH
 70
    0
  9
$DIMBLK1
  1

  9
$DIMBLK2
  1

  9
$DIMSTYLE
  2
Standard
  9
$DIMCLRD
 70
    0
  9
$DIMCLRE
 70
    0
  9
$DIMCLRT
 70
    0
  9
$DIMTFAC
 40
1
  9
$DIMGAP
 40
0.625
  9
$DIMJUST
 70
    0
  9
$DIMSD1
 70
    0
  9
$DIMSD2
 70
    0
  9
$DIMTOLJ
 70
    0
  9
$DIMTZIN
 70
    8
  9
$DIMALTZ
 70
    0
  9
$DIMALTTZ
 70
    0
  9
$DIMUPT
 70
    0
  9
$DIMDEC
 70
    2
  9
$DIMTDEC
 70
    2
  9
$DIMALTU
 70
    2
  9
$DIMALTTD
 70
    3
  9
$DIMTXSTY
  7
STANDARD
  9
$DIMAUNIT
 70
    0
  9
$DIMADEC
 70
    0
  9
$DIMALTRND
 40
0
  9
$DIMAZIN
 70
    0
  9
$DIMDSEP
 70
   44
  9
$DIMATFIT
 70
    3
  9
$DIMFRAC
 70
    0
  9
$DIMLDRBLK
  1
STANDARD
  9
$DIMLUNIT
 70
    2
  9
$DIMLWD
 70
   -2
  9
$DIMLWE
 70
   -2
  9
$DIMTMOVE
 70
    0
  9
$DIMFXL
 40
1
  9
$DIMFXLON
 70
    0
  9
$DIMJOGANG
 40
0.7854
  9
$DIMTFILL
 70
    0
  9
$DIMTFILLCLR
 70
    0
  9
$DIMARCSYM
 70
    0
  9
$DIMLTYPE
  6

  9
$DIMLTEX1
  6

  9
$DIMLTEX2
  6

  9
$LUNITS
 70
    2
  9
$LUPREC
 70
    4
  9
$SKETCHINC
 40
1
  9
$FILLETRAD
 40
0
  9
$AUNITS
 70
    0
  9
$AUPREC
 70
    2
  9
$MENU
  1
.
  9
$ELEVATION
 40
0
  9
$PELEVATION
 40
0
  9
$THICKNESS
 40
0
  9
$LIMCHECK
 70
    0
  9
$CHAMFERA
 40
0
  9
$CHAMFERB
 40
0
  9
$CHAMFERC
 40
0
  9
$CHAMFERD
 40
0
  9
$SKPOLY
 70
    0
  9
$USRTIMER
 70
    1
  9
$ANGBASE
 50
0
  9
$ANGDIR
 70
    0
  9
$PDMODE
 70
   34
  9
$PDSIZE
 40
0
  9
$PLINEWID
 40
0
  9
$SPLFRAME
 70
    0
  9
$SPLINETYPE
 70
    2
  9
$SPLINESEGS
 70
    8
  9
$HANDSEED
  5
20000
  9
$SURFTAB1
 70
    6
  9
$SURFTAB2
 70
    6
  9
$SURFTYPE
 70
    6
  9
$SURFU
 70
    6
  9
$SURFV
 70
    6
  9
$UCSBASE
  2

  9
$UCSNAME
  2

  9
$UCSORG
 10
0
 20
0
 30
0
  9
$UCSXDIR
 10
1
 20
0
 30
0
  9
$UCSYDIR
 10
0
 20
1
 30
0
  9
$UCSORTHOREF
  2

  9
$UCSORTHOVIEW
 70
    0
  9
$UCSORGTOP
 10
0
 20
0
 30
0
  9
$UCSORGBOTTOM
 10
0
 20
0
 30
0
  9
$UCSORGLEFT
 10
0
 20
0
 30
0
  9
$UCSORGRIGHT
 10
0
 20
0
 30
0
  9
$UCSORGFRONT
 10
0
 20
0
 30
0
  9
$UCSORGBACK
 10
0
 20
0
 30
0
  9
$PUCSBASE
  2

  9
$PUCSNAME
  2

  9
$PUCSORG
 10
0
 20
0
 30
0
  9
$PUCSXDIR
 10
1
 20
0
 30
0
  9
$PUCSYDIR
 10
0
 20
1
 30
0
  9
$PUCSORTHOREF
  2

  9
$PUCSORTHOVIEW
 70
    0
  9
$PUCSORGTOP
 10
0
 20
0
 30
0
  9
$PUCSORGBOTTOM
 10
0
 20
0
 30
0
  9
$PUCSORGLEFT
 10
0
 20
0
 30
0
  9
$PUCSORGRIGHT
 10
0
 20
0
 30
0
  9
$PUCSORGFRONT
 10
0
 20
0
 30
0
  9
$PUCSORGBACK
 10
0
 20
0
 30
0
  9
$USERI1
 70
    0
  9
$USERI2
 70
    0
  9
$USERI3
 70
    0
  9
$USERI4
 70
    0
  9
$USERI5
 70
    0
  9
$USERR1
 40
0
  9
$USERR2
 40
0
  9
$USERR3
 40
0
  9
$USERR4
 40
0
  9
$USERR5
 40
0
  9
$WORLDVIEW
 70
    1
  9
$SHADEDGE
 70
    3
  9
$SHADEDIF
 70
   70
  9
$TILEMODE
 70
    1
  9
$MAXACTVP
 70
   64
  9
$PINSBASE
 10
0
 20
0
 30
0
  9
$PLIMCHECK
 70
    0
  9
$PEXTMIN
 10
0
 20
0
 30
0
  9
$PEXTMAX
 10
0
 20
0
 30
0
  9
$GRIDMODE
 70
    1
  9
$SNAPSTYLE
 70
    0
  9
$PLIMMIN
 10
0
 20
0
  9
$PLIMMAX
 10
297
 20
210
  9
$UNITMODE
 70
    0
  9
$VISRETAIN
 70
    1
  9
$PLINEGEN
 70
    0
  9
$PSLTSCALE
 70
    1
  9
$TREEDEPTH
 70
 3020
  9
$CMLSTYLE
  2
Standard
  9
$CMLJUST
 70
    0
  9
$CMLSCALE
 40
20
  9
$PROXYGRAPHICS
 70
    1
  9
$MEASUREMENT
 70
    1
  9
$CELWEIGHT
370
   -1
  9
$ENDCAPS
280
    0
  9
$JOINSTYLE
280
    0
  9
$LWDISPLAY
290
    0
  9
$INSUNITS
 70
    4
  9
$HYPERLINKBASE
  1

  9
$STYLESHEET
  1

  9
$XEDIT
290
    1
  9
$CEPSNTYPE
380
    0
  9
$PSTYLEMODE
290
    1
  9
$EXTNAMES
290
    1
  9
$PSVPSCALE
 40
1
  9
$OLESTARTUP
290
    0
  9
$SORTENTS
280
  127
  9
$INDEXCTL
280
    0
  9
$HIDETEXT
280
    1
  9
$XCLIPFRAME
290
    0
  9
$HALOGAP
280
    0
  9
$OBSCOLOR
 70
  257
  9
$OBSLTYPE
280
    0
  9
$INTERSECTIONDISPLAY
280
    0
  9
$INTERSECTIONCOLOR
 70
  257
  9
$DIMASSOC
280
    1
  9
$PROJECTNAME
  1

  9
$CAMERADISPLAY
290
    0
  9
$LENSLENGTH
 40
50
  9
$CAMERAHEIGHT
 40
0
  9
$STEPSPERSEC
 40
2
  9
$STEPSIZE
 40
50
  9
$3DDWFPREC
 40
2
  9
$PSOLWIDTH
 40
5
  9
$PSOLHEIGHT
 40
80
  9
$LOFTANG1
 40
1.570796326794897
  9
$LOFTANG2
 40
1.570796326794897
  9
$LOFTMAG1
 40
0
  9
$LOFTMAG2
 40
0
  9
$LOFTPARAM
 70
    7
  9
$LOFTNORMALS
280
    1
  9
$LATITUDE
 40
1
  9
$LONGITUDE
 40
1
  9
$NORTHDIRECTION
 40
0
  9
$TIMEZONE
 70
-8000
  9
$LIGHTGLYPHDISPLAY
280
    1
  9
$TILEMODELIGHTSYNCH
280
    1
  9
$SOLIDHIST
280
    1
  9
$SHOWHIST
280
    1
  9
$DWFFRAME
280
    2
  9
$DGNFRAME
280
    0
  9
$REALWORLDSCALE
290
    1
  9
$INTERFERECOLOR
 62
    1
  9
$CSHADOW
280
    0
  9
$SHADOWPLANELOCATION
 40
0
  0
ENDSEC
  0
SECTION
  2
CLASSES
  0
ENDSEC
  0
SECTION
  2
TABLES
  0
TABLE
  2
VPORT
  5
8
330
0
100
AcDbSymbolTable
 70
    1
  0
VPORT
  5
31
330
2
100
AcDbSymbolTableRecord
100
AcDbViewportTableRecord
  2
*ACTIVE
 70
    0
 10
0
 20
0
 11
1
 21
1
 12
77.28424815236038
 22
37.28537849743264
 13
0
 23
0
 14
10
 24
10
 15
10
 25
10
 16
0
 26
0
 36
1
 17
0
 27
0
 37
0
 40
169.4424478346939
 41
1.823250296559905
 42
50
 43
0
 44
0
 50
0
 51
0
 71
    0
 72
  100
 73
    1
 74
    3
 75
    0
 76
    1
 77
    0
 78
    0
281
    0
 65
    1
110
0
120
0
130
0
111
1
121
0
131
0
112
0
122
1
132
0
 79
    0
146
0
348
10020
 60
    7
 61
    5
292
1
282
    1
141
0
142
0
 63
  250
421
3358443
  0
ENDTAB
  0
TABLE
  2
LTYPE
  5
5
330
0
100
AcDbSymbolTable
 70
    4
  0
LTYPE
  5
14
330
5
100
AcDbSymbolTableRecord
100
AcDbLinetypeTableRecord
  2
ByBlock
 70
    0
  3

 72
   65
 73
    0
 40
0
  0
LTYPE
  5
15
330
5
100
AcDbSymbolTableRecord
100
AcDbLinetypeTableRecord
  2
ByLayer
 70
    0
  3

 72
   65
 73
    0
 40
0
  0
LTYPE
  5
16
330
5
100
AcDbSymbolTableRecord
100
AcDbLinetypeTableRecord
  2
Continuous
 70
    0
  3
Solid line
 72
   65
 73
    0
 40
0
  0
LTYPE
  5
32
330
5
100
AcDbSymbolTableRecord
100
AcDbLinetypeTableRecord
  2
DOT
 70
    0
  3
Dot . . . . . . . . . . . . . . . . . . . . . .
 72
   65
 73
    2
 40
6.35
 49
0
 74
    0
 49
-6.35
 74
    0
  0
LTYPE
  5
33
330
5
100
AcDbSymbolTableRecord
100
AcDbLinetypeTableRecord
  2
DOTTINY
 70
    0
  3
Dot (.15x) .....................................
 72
   65
 73
    2
 40
0.9525
 49
0
 74
    0
 49
-0.9525
 74
    0
  0
LTYPE
  5
34
330
5
100
AcDbSymbolTableRecord
100
AcDbLinetypeTableRecord
  2
DOT2
 70
    0
  3
Dot (.5x) .....................................
 72
   65
 73
    2
 40
3.175
 49
0
 74
    0
 49
-3.175
 74
    0
  0
LTYPE
  5
35
330
5
100
AcDbSymbolTableRecord
100
AcDbLinetypeTableRecord
  2
DOTX2
 70
    0
  3
Dot (2x) .  .  .  .  .  .  .  .  .  .  .  .  .
 72
   65
 73
    2
 40
12.7
 49
0
 74
    0
 49
-12.7
 74
    0
  0
LTYPE
  5
36
330
5
100
AcDbSymbolTableRecord
100
AcDbLinetypeTableRecord
  2
DASHED
 70
    0
  3
Dashed _ _ _ _ _ _ _ _ _ _ _ _ _ _ _ _ _
 72
   65
 73
    2
 40
19.05
 49
12.7
 74
    0
 49
-6.35
 74
    0
  0
LTYPE
  5
37
330
5
100
AcDbSymbolTableRecord
100
AcDbLinetypeTableRecord
  2
DASHEDTINY
 70
    0
  3
Dashed (.15x) _ _ _ _ _ _ _ _ _ _ _ _ _ _ _ _ _
 72
   65
 73
    2
 40
2.8575
 49
1.905
 74
    0
 49
-0.9525
 74
    0
  0
LTYPE
  5
38
330
5
100
AcDbSymbolTableRecord
100
AcDbLinetypeTableRecord
  2
DASHED2
 70
    0
  3
Dashed (.5x) _ _ _ _ _ _ _ _ _ _ _ _ _ _ _ _ _
 72
   65
 73
    2
 40
9.524999999999999
 49
6.35
 74
    0
 49
-3.175
 74
    0
  0
LTYPE
  5
39
330
5
100
AcDbSymbolTableRecord
100
AcDbLinetypeTableRecord
  2
DASHEDX2
 70
    0
  3
Dashed (2x) ____  ____  ____  ____  ____  ___
 72
   65
 73
    2
 40
38.09999999999999
 49
25.4
 74
    0
 49
-12.7
 74
    0
  0
LTYPE
  5
3A
330
5
100
AcDbSymbolTableRecord
100
AcDbLinetypeTableRecord
  2
DASHDOT
 70
    0
  3
Dash dot __ . __ . __ . __ . __ . __ . __ . __
 72
   65
 73
    4
 40
25.4
 49
12.7
 74
    0
 49
-6.35
 74
    0
 49
0
 74
    0
 49
-6.35
 74
    0
  0
LTYPE
  5
3B
330
5
100
AcDbSymbolTableRecord
100
AcDbLinetypeTableRecord
  2
DASHDOTTINY
 70
    0
  3
Dash dot (.15x) _._._._._._._._._._._._._._._.
 72
   65
 73
    4
 40
3.81
 49
1.905
 74
    0
 49
-0.9525
 74
    0
 49
0
 74
    0
 49
-0.9525
 74
    0
  0
LTYPE
  5
3C
330
5
100
AcDbSymbolTableRecord
100
AcDbLinetypeTableRecord
  2
DASHDOT2
 70
    0
  3
Dash dot (.5x) _._._._._._._._._._._._._._._.
 72
   65
 73
    4
 40
12.7
 49
6.35
 74
    0
 49
-3.175
 74
    0
 49
0
 74
    0
 49
-3.175
 74
    0
  0
LTYPE
  5
3D
330
5
100
AcDbSymbolTableRecord
100
AcDbLinetypeTableRecord
  2
DASHDOTX2
 70
    0
  3
Dash dot (2x) ____  .  ____  .  ____  .  ___
 72
   65
 73
    4
 40
50.8
 49
25.4
 74
    0
 49
-12.7
 74
    0
 49
0
 74
    0
 49
-12.7
 74
    0
  0
LTYPE
  5
3E
330
5
100
AcDbSymbolTableRecord
100
AcDbLinetypeTableRecord
  2
DIVIDE
 70
    0
  3
Divide ____ . . ____ . . ____ . . ____ . . ____
 72
   65
 73
    6
 40
31.75
 49
12.7
 74
    0
 49
-6.35
 74
    0
 49
0
 74
    0
 49
-6.35
 74
    0
 49
0
 74
    0
 49
-6.35
 74
    0
  0
LTYPE
  5
3F
330
5
100
AcDbSymbolTableRecord
100
AcDbLinetypeTableRecord
  2
DIVIDETINY
 70
    0
  3
Divide (.15x) __..__..__..__..__..__..__..__.._
 72
   65
 73
    6
 40
4.7625
 49
1.905
 74
    0
 49
-0.9525
 74
    0
 49
0
 74
    0
 49
-0.9525
 74
    0
 49
0
 74
    0
 49
-0.9525
 74
    0
  0
LTYPE
  5
40
330
5
100
AcDbSymbolTableRecord
100
AcDbLinetypeTableRecord
  2
DIVIDE2
 70
    0
  3
Divide (.5x) __..__..__..__..__..__..__..__.._
 72
   65
 73
    6
 40
15.875
 49
6.35
 74
    0
 49
-3.175
 74
    0
 49
0
 74
    0
 49
-3.175
 74
    0
 49
0
 74
    0
 49
-3.175
 74
    0
  0
LTYPE
  5
41
330
5
100
AcDbSymbolTableRecord
100
AcDbLinetypeTableRecord
  2
DIVIDEX2
 70
    0
  3
Divide (2x) ________  .  .  ________  .  .  _
 72
   65
 73
    6
 40
63.5
 49
25.4
 74
    0
 49
-12.7
 74
    0
 49
0
 74
    0
 49
-12.7
 74
    0
 49
0
 74
    0
 49
-12.7
 74
    0
  0
LTYPE
  5
42
330
5
100
AcDbSymbolTableRecord
100
AcDbLinetypeTableRecord
  2
BORDER
 70
    0
  3
Border __ __ . __ __ . __ __ . __ __ . __ __ .
 72
   65
 73
    6
 40
44.45
 49
12.7
 74
    0
 49
-6.35
 74
    0
 49
12.7
 74
    0
 49
-6.35
 74
    0
 49
0
 74
    0
 49
-6.35
 74
    0
  0
LTYPE
  5
43
330
5
100
AcDbSymbolTableRecord
100
AcDbLinetypeTableRecord
  2
BORDERTINY
 70
    0
  3
Border (.15x) __.__.__.__.__.__.__.__.__.__.__.
 72
   65
 73
    6
 40
6.6675
 49
1.905
 74
    0
 49
-0.9525
 74
    0
 49
1.905
 74
    0
 49
-0.9525
 74
    0
 49
0
 74
    0
 49
-0.9525
 74
    0
  0
LTYPE
  5
44
330
5
100
AcDbSymbolTableRecord
100
AcDbLinetypeTableRecord
  2
BORDER2
 70
    0
  3
Border (.5x) __.__.__.__.__.__.__.__.__.__.__.
 72
   65
 73
    6
 40
22.225
 49
6.35
 74
    0
 49
-3.175
 74
    0
 49
6.35
 74
    0
 49
-3.175
 74
    0
 49
0
 74
    0
 49
-3.175
 74
    0
  0
LTYPE
  5
45
330
5
100
AcDbSymbolTableRecord
100
AcDbLinetypeTableRecord
  2
BORDERX2
 70
    0
  3
Border (2x) ____  ____  .  ____  ____  .  ___
 72
   65
 73
    6
 40
88.89999999999999
 49
25.4
 74
    0
 49
-12.7
 74
    0
 49
25.4
 74
    0
 49
-12.7
 74
    0
 49
0
 74
    0
 49
-12.7
 74
    0
  0
LTYPE
  5
46
330
5
100
AcDbSymbolTableRecord
100
AcDbLinetypeTableRecord
  2
CENTER
 70
    0
  3
Center ____ _ ____ _ ____ _ ____ _ ____ _ ____
 72
   65
 73
    4
 40
50.8
 49
31.75
 74
    0
 49
-6.35
 74
    0
 49
6.35
 74
    0
 49
-6.35
 74
    0
  0
LTYPE
  5
47
330
5
100
AcDbSymbolTableRecord
100
AcDbLinetypeTableRecord
  2
CENTERTINY
 70
    0
  3
Center (.15x) ___ _ ___ _ ___ _ ___ _ ___ _ ___
 72
   65
 73
    4
 40
7.619999999999999
 49
4.7625
 74
    0
 49
-0.9525
 74
    0
 49
0.9525
 74
    0
 49
-0.9525
 74
    0
  0
LTYPE
  5
48
330
5
100
AcDbSymbolTableRecord
100
AcDbLinetypeTableRecord
  2
CENTER2
 70
    0
  3
Center (.5x) ___ _ ___ _ ___ _ ___ _ ___ _ ___
 72
   65
 73
    4
 40
28.575
 49
19.05
 74
    0
 49
-3.175
 74
    0
 49
3.175
 74
    0
 49
-3.175
 74
    0
  0
LTYPE
  5
49
330
5
100
AcDbSymbolTableRecord
100
AcDbLinetypeTableRecord
  2
CENTERX2
 70
    0
  3
Center (2x) ________  __  ________  __  _____
 72
   65
 73
    4
 40
101.6
 49
63.5
 74
    0
 49
-12.7
 74
    0
 49
12.7
 74
    0
 49
-12.7
 74
    0
  0
ENDTAB
  0
TABLE
  2
LAYER
  5
2
330
0
100
AcDbSymbolTable
 70
    1
  0
LAYER
  5
10
330
2
100
AcDbSymbolTableRecord
100
AcDbLayerTableRecord
  2
0
 70
    0
 62
    7
  6
CONTINUOUS
370
    0
390
F
  0
LAYER
  5
4A
330
2
100
AcDbSymbolTableRecord
100
AcDbLayerTableRecord
  2
diode
 70
    0
 62
    3
  6
CONTINUOUS
370
   -3
390
F
  0
LAYER
  5
4B
330
2
100
AcDbSymbolTableRecord
100
AcDbLayerTableRecord
  2
edge
 70
    0
 62
    2
  6
CONTINUOUS
370
   -3
390
F
  0
LAYER
  5
4C
330
2
100
AcDbSymbolTableRecord
100
AcDbLayerTableRecord
  2
noname
 70
    0
 62
    6
  6
DOTTINY
370
   -3
390
F
1001
LibreCad
1070
    1
  0
LAYER
  5
4D
330
2
100
AcDbSymbolTableRecord
100
AcDbLayerTableRecord
  2
placement
 70
    0
 62
    1
  6
CONTINUOUS
370
   -3
390
F
  0
LAYER
  5
4E
330
2
100
AcDbSymbolTableRecord
100
AcDbLayerTableRecord
  2
promicro
 70
    0
 62
    4
  6
CONTINUOUS
370
   -3
390
F
  0
ENDTAB
  0
TABLE
  2
STYLE
  5
3
330
0
100
AcDbSymbolTable
 70
    3
  0
STYLE
  5
4F
330
2
100
AcDbSymbolTableRecord
100
AcDbTextStyleTableRecord
  2
Standard
 70
    0
 40
0
 41
1
 50
0
 71
    0
 42
1
  3
txt
  4

  0
ENDTAB
  0
TABLE
  2
VIEW
  5
6
330
0
100
AcDbSymbolTable
 70
    0
  0
ENDTAB
  0
TABLE
  2
UCS
  5
7
330
0
100
AcDbSymbolTable
 70
    0
  0
ENDTAB
  0
TABLE
  2
APPID
  5
9
330
0
100
AcDbSymbolTable
 70
    1
  0
APPID
  5
12
330
9
100
AcDbSymbolTableRecord
100
AcDbRegAppTableRecord
  2
ACAD
 70
    0
  0
APPID
  5
50
330
9
100
AcDbSymbolTableRecord
100
AcDbRegAppTableRecord
  2
LibreCad
 70
    0
  0
ENDTAB
  0
TABLE
  2
DIMSTYLE
  5
A
330
0
100
AcDbSymbolTable
 70
    1
100
AcDbDimStyleTable
 71
    1
  0
DIMSTYLE
105
51
330
A
100
AcDbSymbolTableRecord
100
AcDbDimStyleTableRecord
  2
Standard
 70
    0
 40
2.5
 41
2.5
 42
0.625
 43
0.38
 44
1.25
 45
0
 46
0
 47
0
 48
0
 49
1
140
2.5
141
0.09
142
0
143
25.4
144
1
145
0
146
1
147
0.625
148
0
 71
    0
 72
    0
 73
    0
 74
    1
 75
    0
 76
    0
 77
    0
 78
    8
 79
    0
170
    0
171
    2
172
    0
173
    0
174
    0
175
    0
176
    0
177
    0
178
    0
179
    0
271
    2
272
    4
273
    2
274
    2
275
    0
276
    0
277
    2
278
   44
279
    0
280
    0
281
    0
282
    0
283
    1
284
    0
285
    0
286
    0
288
    0
289
    3
340
STANDARD
341

371
   -2
372
   -2
  0
ENDTAB
  0
TABLE
  2
BLOCK_RECORD
  5
1
330
0
100
AcDbSymbolTable
 70
    2
  0
BLOCK_RECORD
  5
1F
330
1
100
AcDbSymbolTableRecord
100
AcDbBlockTableRecord
  2
*Model_Space
 70
    0
280
    1
281
    0
  0
BLOCK_RECORD
  5
1E
330
1
100
AcDbSymbolTableRecord
100
AcDbBlockTableRecord
  2
*Paper_Space
 70
    0
280
    1
281
    0
  0
ENDTAB
  0
ENDSEC
  0
SECTION
  2
BLOCKS
  0
BLOCK
  5
20
330
1F
100
AcDbEntity
  8
0
100
AcDbBlockBegin
  2
*Model_Space
 70
    0
 10
0
 20
0
 30
0
  3
*Model_Space
  1

  0
ENDBLK
  5
21
330
1F
100
AcDbEntity
  8
0
100
AcDbBlockEnd
  0
BLOCK
  5
1C
330
1B
100
AcDbEntity
  8
0
100
AcDbBlockBegin
  2
*Paper_Space
 70
    0
 10
0
 20
0
 30
0
  3
*Paper_Space
  1

  0
ENDBLK
  5
1D
330
1F
100
AcDbEntity
  8
0
100
AcDbBlockEnd
  0
ENDSEC
  0
SECTION
  2
ENTITIES
  0
LINE
  5
52
100
AcDbEntity
  8
0
  6
ByLayer
 62
  256
370
   -1
100
AcDbLine
 10
-77.93750000000003
 20
-30.02326324526224
 11
-64.93750000000003
 21
-30.02326324526224
  0
LINE
  5
53
100
AcDbEntity
  8
0
  6
ByLayer
 62
  256
370
   -1
100
AcDbLine
 10
-77.93750000000003
 20
-44.02326324526224
 11
-64.93750000000003
 21
-44.02326324526224
  0
LINE
  5
54
100
AcDbEntity
  8
0
  6
ByLayer
 62
  256
370
   -1
100
AcDbLine
 10
-78.43750000000003
 20
-30.52326324526224
 11
-78.43750000000003
 21
-43.52326324526224
  0
LINE
  5
55
100
AcDbEntity
  8
0
  6
ByLayer
 62
  256
370
   -1
100
AcDbLine
 10
-64.43750000000003
 20
-30.52326324526224
 11
-64.43750000000003
 21
-43.52326324526224
  0
ARC
  5
56
100
AcDbEntity
  8
0
  6
ByLayer
 62
  256
370
   -1
100
AcDbCircle
 10
-77.93750000000003
 20
-30.52326324526224
 40
0.5
100
AcDbArc
 50
90
 51
180
  0
ARC
  5
57
100
AcDbEntity
  8
0
  6
ByLayer
 62
  256
370
   -1
100
AcDbCircle
 10
-64.93750000000003
 20
-30.52326324526224
 40
0.5
100
AcDbArc
 50
0
 51
90
  0
ARC
  5
58
100
AcDbEntity
  8
0
  6
ByLayer
 62
  256
370
   -1
100
AcDbCircle
 10
-77.93750000000003
 20
-43.52326324526224
 40
0.5
100
AcDbArc
 50
180
 51
270
  0
ARC
  5
59
100
AcDbEntity
  8
0
  6
ByLayer
 62
  256
370
   -1
100
AcDbCircle
 10
-64.93750000000003
 20
-43.52326324526224
 40
0.5
100
AcDbArc
 50
270
 51
0
  0
LINE
  5
5A
100
AcDbEntity
  8
0
  6
ByLayer
 62
  256
370
   -1
100
AcDbLine
 10
64.93749999999997
 20
-30.02326324526224
 11
77.93749999999997
 21
-30.02326324526224
  0
LINE
  5
5B
100
AcDbEntity
  8
0
  6
ByLayer
 62
  256
370
   -1
100
AcDbLine
 10
64.93749999999997
 20
-44.02326324526224
 11
77.93749999999997
 21
-44.02326324526224
  0
LINE
  5
5C
100
AcDbEntity
  8
0
  6
ByLayer
 62
  256
370
   -1
100
AcDbLine
 10
64.43749999999997
 20
-30.52326324526224
 11
64.43749999999997
 21
-43.52326324526224
  0
LINE
  5
5D
100
AcDbEntity
  8
0
  6
ByLayer
 62
  256
370
   -1
100
AcDbLine
 10
78.43749999999997
 20
-30.52326324526224
 11
78.43749999999997
 21
-43.52326324526224
  0
ARC
  5
5E
100
AcDbEntity
  8
0
  6
ByLayer
 62
  256
370
   -1
100
AcDbCircle
 10
64.93749999999997
 20
-30.52326324526224
 40
0.5
100
AcDbArc
 50
90
 51
180
  0
ARC
  5
5F
100
AcDbEntity
  8
0
  6
ByLayer
 62
  256
370
   -1
100
AcDbCircle
 10
77.93749999999997
 20
-30.52326324526224
 40
0.5
100
AcDbArc
 50
0
 51
90
  0
ARC
  5
60
100
AcDbEntity
  8
0
  6
ByLayer
 62
  256
370
   -1
100
AcDbCircle
 10
64.93749999999997
 20
-43.52326324526224
 40
0.5
100
AcDbArc
 50
180
 51
270
  0
ARC
  5
61
100
AcDbEntity
  8
0
  6
ByLayer
 62
  256
370
   -1
100
AcDbCircle
 10
77.93749999999997
 20
-43.52326324526224
 40
0.5
100
AcDbArc
 50
270
 51
0
  0
LINE
  5
62
100
AcDbEntity
  8
0
  6
ByLayer
 62
  256
370
   -1
100
AcDbLine
 10
-58.88750000000003
 20
-34.78576324526225
 11
-45.88750000000003
 21
-34.78576324526225
  0
LINE
  5
63
100
AcDbEntity
  8
0
  6
ByLayer
 62
  256
370
   -1
100
AcDbLine
 10
-58.88750000000003
 20
-48.78576324526225
 11
-45.88750000000003
 21
-48.78576324526225
  0
LINE
  5
64
100
AcDbEntity
  8
0
  6
ByLayer
 62
  256
370
   -1
100
AcDbLine
 10
-59.38750000000003
 20
-35.28576324526225
 11
-59.38750000000003
 21
-48.28576324526225
  0
LINE
  5
65
100
AcDbEntity
  8
0
  6
ByLayer
 62
  256
370
   -1
100
AcDbLine
 10
-45.38750000000003
 20
-35.28576324526225
 11
-45.38750000000003
 21
-48.28576324526225
  0
ARC
  5
66
100
AcDbEntity
  8
0
  6
ByLayer
 62
  256
370
   -1
100
AcDbCircle
 10
-58.88750000000003
 20
-35.28576324526225
 40
0.5
100
AcDbArc
 50
90
 51
180
  0
ARC
  5
67
100
AcDbEntity
  8
0
  6
ByLayer
 62
  256
370
   -1
100
AcDbCircle
 10
-45.88750000000003
 20
-35.28576324526225
 40
0.5
100
AcDbArc
 50
0
 51
90
  0
ARC
  5
68
100
AcDbEntity
  8
0
  6
ByLayer
 62
  256
370
   -1
100
AcDbCircle
 10
-58.88750000000003
 20
-48.28576324526225
 40
0.5
100
AcDbArc
 50
180
 51
270
  0
ARC
  5
69
100
AcDbEntity
  8
0
  6
ByLayer
 62
  256
370
   -1
100
AcDbCircle
 10
-45.88750000000003
 20
-48.28576324526225
 40
0.5
100
AcDbArc
 50
270
 51
0
  0
LINE
  5
6A
100
AcDbEntity
  8
0
  6
ByLayer
 62
  256
370
   -1
100
AcDbLine
 10
45.88749999999996
 20
-34.78576324526225
 11
58.88749999999996
 21
-34.78576324526225
  0
LINE
  5
6B
100
AcDbEntity
  8
0
  6
ByLayer
 62
  256
370
   -1
100
AcDbLine
 10
45.88749999999996
 20
-48.78576324526225
 11
58.88749999999996
 21
-48.78576324526225
  0
LINE
  5
6C
100
AcDbEntity
  8
0
  6
ByLayer
 62
  256
370
   -1
100
AcDbLine
 10
45.38749999999996
 20
-35.28576324526225
 11
45.38749999999996
 21
-48.28576324526225
  0
LINE
  5
6D
100
AcDbEntity
  8
0
  6
ByLayer
 62
  256
370
   -1
100
AcDbLine
 10
59.38749999999996
 20
-35.28576324526225
 11
59.38749999999996
 21
-48.28576324526225
  0
ARC
  5
6E
100
AcDbEntity
  8
0
  6
ByLayer
 62
  256
370
   -1
100
AcDbCircle
 10
45.88749999999996
 20
-35.28576324526225
 40
0.5
100
AcDbArc
 50
90
 51
180
  0
ARC
  5
6F
100
AcDbEntity
  8
0
  6
ByLayer
 62
  256
370
   -1
100
AcDbCircle
 10
58.88749999999996
 20
-35.28576324526225
 40
0.5
100
AcDbArc
 50
0
 51
90
  0
ARC
  5
70
100
AcDbEntity
  8
0
  6
ByLayer
 62
  256
370
   -1
100
AcDbCircle
 10
45.88749999999996
 20
-48.28576324526225
 40
0.5
100
AcDbArc
 50
180
 51
270
  0
ARC
  5
71
100
AcDbEntity
  8
0
  6
ByLayer
 62
  256
370
   -1
100
AcDbCircle
 10
58.88749999999996
 20
-48.28576324526225
 40
0.5
100
AcDbArc
 50
270
 51
0
  0
LINE
  5
72
100
AcDbEntity
  8
0
  6
ByLayer
 62
  256
370
   -1
100
AcDbLine
 10
-27.93125000000003
 20
-39.54826324526223
 11
-14.93125000000003
 21
-39.54826324526223
  0
LINE
  5
73
100
AcDbEntity
  8
0
  6
ByLayer
 62
  256
370
   -1
100
AcDbLine
 10
-27.93125000000003
 20
-53.54826324526223
 11
-14.93125000000003
 21
-53.54826324526223
  0
LINE
  5
74
100
AcDbEntity
  8
0
  6
ByLayer
 62
  256
370
   -1
100
AcDbLine
 10
-28.43125000000003
 20
-40.04826324526223
 11
-28.43125000000003
 21
-53.04826324526223
  0
LINE
  5
75
100
AcDbEntity
  8
0
  6
ByLayer
 62
  256
370
   -1
100
AcDbLine
 10
-14.43125000000003
 20
-40.04826324526223
 11
-14.43125000000003
 21
-53.04826324526223
  0
ARC
  5
76
100
AcDbEntity
  8
0
  6
ByLayer
 62
  256
370
   -1
100
AcDbCircle
 10
-27.93125000000003
 20
-40.04826324526223
 40
0.5
100
AcDbArc
 50
90
 51
180
  0
ARC
  5
77
100
AcDbEntity
  8
0
  6
ByLayer
 62
  256
370
   -1
100
AcDbCircle
 10
-14.93125000000003
 20
-40.04826324526223
 40
0.5
100
AcDbArc
 50
0
 51
90
  0
ARC
  5
78
100
AcDbEntity
  8
0
  6
ByLayer
 62
  256
370
   -1
100
AcDbCircle
 10
-27.93125000000003
 20
-53.04826324526223
 40
0.5
100
AcDbArc
 50
180
 51
270
  0
ARC
  5
79
100
AcDbEntity
  8
0
  6
ByLayer
 62
  256
370
   -1
100
AcDbCircle
 10
-14.93125000000003
 20
-53.04826324526223
 40
0.5
100
AcDbArc
 50
270
 51
0
  0
LINE
  5
7A
100
AcDbEntity
  8
0
  6
ByLayer
 62
  256
370
   -1
100
AcDbLine
 10
-36.36925000000004
 20
-40.54826324526223
 11
-30.36925000000004
 21
-40.54826324526223
  0
LINE
  5
7B
100
AcDbEntity
  8
0
  6
ByLayer
 62
  256
370
   -1
100
AcDbLine
 10
-36.36925000000004
 20
-55.54826324526223
 11
-30.36925000000004
 21
-55.54826324526223
  0
LINE
  5
7C
100
AcDbEntity
  8
0
  6
ByLayer
 62
  256
370
   -1
100
AcDbLine
 10
-36.86925000000004
 20
-41.04826324526223
 11
-36.86925000000004
 21
-55.04826324526223
  0
LINE
  5
7D
100
AcDbEntity
  8
0
  6
ByLayer
 62
  256
370
   -1
100
AcDbLine
 10
-29.86925000000004
 20
-41.04826324526223
 11
-29.86925000000004
 21
-55.04826324526223
  0
ARC
  5
7E
100
AcDbEntity
  8
0
  6
ByLayer
 62
  256
370
   -1
100
AcDbCircle
 10
-36.36925000000004
 20
-41.04826324526223
 40
0.5
100
AcDbArc
 50
90
 51
180
  0
ARC
  5
7F
100
AcDbEntity
  8
0
  6
ByLayer
 62
  256
370
   -1
100
AcDbCircle
 10
-30.36925000000004
 20
-41.04826324526223
 40
0.5
100
AcDbArc
 50
0
 51
90
  0
ARC
  5
80
100
AcDbEntity
  8
0
  6
ByLayer
 62
  256
370
   -1
100
AcDbCircle
 10
-36.36925000000004
 20
-55.04826324526223
 40
0.5
100
AcDbArc
 50
180
 51
270
  0
ARC
  5
81
100
AcDbEntity
  8
0
  6
ByLayer
 62
  256
370
   -1
100
AcDbCircle
 10
-30.36925000000004
 20
-55.04826324526223
 40
0.5
100
AcDbArc
 50
270
 51
0
  0
LINE
  5
82
100
AcDbEntity
  8
0
  6
ByLayer
 62
  256
370
   -1
100
AcDbLine
 10
-12.49325000000005
 20
-40.54826324526223
 11
-6.493250000000046
 21
-40.54826324526223
  0
LINE
  5
83
100
AcDbEntity
  8
0
  6
ByLayer
 62
  256
370
   -1
100
AcDbLine
 10
-12.49325000000005
 20
-55.54826324526223
 11
-6.493250000000046
 21
-55.54826324526223
  0
LINE
  5
84
100
AcDbEntity
  8
0
  6
ByLayer
 62
  256
370
   -1
100
AcDbLine
 10
-12.99325000000005
 20
-41.04826324526223
 11
-12.99325000000005
 21
-55.04826324526223
  0
LINE
  5
85
100
AcDbEntity
  8
0
  6
ByLayer
 62
  256
370
   -1
100
AcDbLine
 10
-5.993250000000046
 20
-41.04826324526223
 11
-5.993250000000046
 21
-55.04826324526223
  0
ARC
  5
86
100
AcDbEntity
  8
0
  6
ByLayer
 62
  256
370
   -1
100
AcDbCircle
 10
-12.49325000000005
 20
-41.04826324526223
 40
0.5
100
AcDbArc
 50
90
 51
180
  0
ARC
  5
87
100
AcDbEntity
  8
0
  6
ByLayer
 62
  256
370
   -1
100
AcDbCircle
 10
-6.493250000000046
 20
-41.04826324526223
 40
0.5
100
AcDbArc
 50
0
 51
90
  0
ARC
  5
88
100
AcDbEntity
  8
0
  6
ByLayer
 62
  256
370
   -1
100
AcDbCircle
 10
-12.49325000000005
 20
-55.04826324526223
 40
0.5
100
AcDbArc
 50
180
 51
270
  0
ARC
  5
89
100
AcDbEntity
  8
0
  6
ByLayer
 62
  256
370
   -1
100
AcDbCircle
 10
-6.493250000000046
 20
-55.04826324526223
 40
0.5
100
AcDbArc
 50
270
 51
0
  0
LINE
  5
8A
100
AcDbEntity
  8
0
  6
ByLayer
 62
  256
370
   -1
100
AcDbLine
 10
14.93124999999998
 20
-39.54826324526223
 11
27.93124999999998
 21
-39.54826324526223
  0
LINE
  5
8B
100
AcDbEntity
  8
0
  6
ByLayer
 62
  256
370
   -1
100
AcDbLine
 10
14.93124999999998
 20
-53.54826324526223
 11
27.93124999999998
 21
-53.54826324526223
  0
LINE
  5
8C
100
AcDbEntity
  8
0
  6
ByLayer
 62
  256
370
   -1
100
AcDbLine
 10
14.43124999999998
 20
-40.04826324526223
 11
14.43124999999998
 21
-53.04826324526223
  0
LINE
  5
8D
100
AcDbEntity
  8
0
  6
ByLayer
 62
  256
370
   -1
100
AcDbLine
 10
28.43124999999998
 20
-40.04826324526223
 11
28.43124999999998
 21
-53.04826324526223
  0
ARC
  5
8E
100
AcDbEntity
  8
0
  6
ByLayer
 62
  256
370
   -1
100
AcDbCircle
 10
14.93124999999998
 20
-40.04826324526223
 40
0.5
100
AcDbArc
 50
90
 51
180
  0
ARC
  5
8F
100
AcDbEntity
  8
0
  6
ByLayer
 62
  256
370
   -1
100
AcDbCircle
 10
27.93124999999998
 20
-40.04826324526223
 40
0.5
100
AcDbArc
 50
0
 51
90
  0
ARC
  5
90
100
AcDbEntity
  8
0
  6
ByLayer
 62
  256
370
   -1
100
AcDbCircle
 10
14.93124999999998
 20
-53.04826324526223
 40
0.5
100
AcDbArc
 50
180
 51
270
  0
ARC
  5
91
100
AcDbEntity
  8
0
  6
ByLayer
 62
  256
370
   -1
100
AcDbCircle
 10
27.93124999999998
 20
-53.04826324526223
 40
0.5
100
AcDbArc
 50
270
 51
0
  0
LINE
  5
92
100
AcDbEntity
  8
0
  6
ByLayer
 62
  256
370
   -1
100
AcDbLine
 10
6.493249999999961
 20
-40.54826324526223
 11
12.49324999999996
 21
-40.54826324526223
  0
LINE
  5
93
100
AcDbEntity
  8
0
  6
ByLayer
 62
  256
370
   -1
100
AcDbLine
 10
6.493249999999961
 20
-55.54826324526223
 11
12.49324999999996
 21
-55.54826324526223
  0
LINE
  5
94
100
AcDbEntity
  8
0
  6
ByLayer
 62
  256
370
   -1
100
AcDbLine
 10
5.993249999999961
 20
-41.04826324526223
 11
5.993249999999961
 21
-55.04826324526223
  0
LINE
  5
95
100
AcDbEntity
  8
0
  6
ByLayer
 62
  256
370
   -1
100
AcDbLine
 10
12.99324999999996
 20
-41.04826324526223
 11
12.99324999999996
 21
-55.04826324526223
  0
ARC
  5
96
100
AcDbEntity
  8
0
  6
ByLayer
 62
  256
370
   -1
100
AcDbCircle
 10
6.493249999999961
 20
-41.04826324526223
 40
0.5
100
AcDbArc
 50
90
 51
180
  0
ARC
  5
97
100
AcDbEntity
  8
0
  6
ByLayer
 62
  256
370
   -1
100
AcDbCircle
 10
12.49324999999996
 20
-41.04826324526223
 40
0.5
100
AcDbArc
 50
0
 51
90
  0
ARC
  5
98
100
AcDbEntity
  8
0
  6
ByLayer
 62
  256
370
   -1
100
AcDbCircle
 10
6.493249999999961
 20
-55.04826324526223
 40
0.5
100
AcDbArc
 50
180
 51
270
  0
ARC
  5
99
100
AcDbEntity
  8
0
  6
ByLayer
 62
  256
370
   -1
100
AcDbCircle
 10
12.49324999999996
 20
-55.04826324526223
 40
0.5
100
AcDbArc
 50
270
 51
0
  0
LINE
  5
9A
100
AcDbEntity
  8
0
  6
ByLayer
 62
  256
370
   -1
100
AcDbLine
 10
30.36924999999997
 20
-40.54826324526223
 11
36.36924999999997
 21
-40.54826324526223
  0
LINE
  5
9B
100
AcDbEntity
  8
0
  6
ByLayer
 62
  256
370
   -1
100
AcDbLine
 10
30.36924999999997
 20
-55.54826324526223
 11
36.36924999999997
 21
-55.54826324526223
  0
LINE
  5
9C
100
AcDbEntity
  8
0
  6
ByLayer
 62
  256
370
   -1
100
AcDbLine
 10
29.86924999999997
 20
-41.04826324526223
 11
29.86924999999997
 21
-55.04826324526223
  0
LINE
  5
9D
100
AcDbEntity
  8
0
  6
ByLayer
 62
  256
370
   -1
100
AcDbLine
 10
36.86924999999997
 20
-41.04826324526223
 11
36.86924999999997
 21
-55.04826324526223
  0
ARC
  5
9E
100
AcDbEntity
  8
0
  6
ByLayer
 62
  256
370
   -1
100
AcDbCircle
 10
30.36924999999997
 20
-41.04826324526223
 40
0.5
100
AcDbArc
 50
90
 51
180
  0
ARC
  5
9F
100
AcDbEntity
  8
0
  6
ByLayer
 62
  256
370
   -1
100
AcDbCircle
 10
36.36924999999997
 20
-41.04826324526223
 40
0.5
100
AcDbArc
 50
0
 51
90
  0
ARC
  5
A0
100
AcDbEntity
  8
0
  6
ByLayer
 62
  256
370
   -1
100
AcDbCircle
 10
30.36924999999997
 20
-55.04826324526223
 40
0.5
100
AcDbArc
 50
180
 51
270
  0
ARC
  5
A1
100
AcDbEntity
  8
0
  6
ByLayer
 62
  256
370
   -1
100
AcDbCircle
 10
36.36924999999997
 20
-55.04826324526223
 40
0.5
100
AcDbArc
 50
270
 51
0
  0
LINE
  5
A2
100
AcDbEntity
  8
0
  6
ByLayer
 62
  256
370
   -1
100
AcDbLine
 10
-70.84777010000003
 20
39.72709635473776
 11
-58.04526930000003
 21
37.46967005473776
  0
LINE
  5
A3
100
AcDbEntity
  8
0
  6
ByLayer
 62
  256
370
   -1
100
AcDbLine
 10
-73.27884450000003
 20
25.93978785473776
 11
-60.47634370000003
 21
23.68236155473776
  0
LINE
  5
A4
100
AcDbEntity
  8
0
  6
ByLayer
 62
  256
370
   -1
100
AcDbLine
 10
-71.42699800000004
 20
39.32151655473776
 11
-73.68442430000003
 21
26.51901575473776
  0
LINE
  5
A5
100
AcDbEntity
  8
0
  6
ByLayer
 62
  256
370
   -1
100
AcDbLine
 10
-57.63968950000003
 20
36.89044215473776
 11
-59.89711580000004
 21
24.08794135473776
  0
ARC
  5
A6
100
AcDbEntity
  8
0
  6
ByLayer
 62
  256
370
   -1
100
AcDbCircle
 10
-70.93459410000004
 20
39.23469245473776
 40
0.5
100
AcDbArc
 50
80
 51
170
  0
ARC
  5
A7
100
AcDbEntity
  8
0
  6
ByLayer
 62
  256
370
   -1
100
AcDbCircle
 10
-58.13209340000003
 20
36.97726615473776
 40
0.5
100
AcDbArc
 50
350
 51
80
  0
ARC
  5
A8
100
AcDbEntity
  8
0
  6
ByLayer
 62
  256
370
   -1
100
AcDbCircle
 10
-73.19202040000003
 20
26.43219175473776
 40
0.5
100
AcDbArc
 50
170
 51
260
  0
ARC
  5
A9
100
AcDbEntity
  8
0
  6
ByLayer
 62
  256
370
   -1
100
AcDbCircle
 10
-60.38951970000004
 20
24.17476545473776
 40
0.5
100
AcDbArc
 50
260
 51
350
  0
LINE
  5
AA
100
AcDbEntity
  8
0
  6
ByLayer
 62
  256
370
   -1
100
AcDbLine
 10
-90.43535730000004
 20
38.34494725473776
 11
-77.63285650000003
 21
36.08752095473776
  0
LINE
  5
AB
100
AcDbEntity
  8
0
  6
ByLayer
 62
  256
370
   -1
100
AcDbLine
 10
-92.86643170000004
 20
24.55763875473776
 11
-80.06393090000003
 21
22.30021245473776
  0
LINE
  5
AC
100
AcDbEntity
  8
0
  6
ByLayer
 62
  256
370
   -1
100
AcDbLine
 10
-91.01458520000003
 20
37.93936745473776
 11
-93.27201150000003
 21
25.13686665473776
  0
LINE
  5
AD
100
AcDbEntity
  8
0
  6
ByLayer
 62
  256
370
   -1
100
AcDbLine
 10
-77.22727670000003
 20
35.50829305473776
 11
-79.48470300000004
 21
22.70579225473776
  0
ARC
  5
AE
100
AcDbEntity
  8
0
  6
ByLayer
 62
  256
370
   -1
100
AcDbCircle
 10
-90.52218130000003
 20
37.85254335473776
 40
0.5
100
AcDbArc
 50
80
 51
170
  0
ARC
  5
AF
100
AcDbEntity
  8
0
  6
ByLayer
 62
  256
370
   -1
100
AcDbCircle
 10
-77.71968060000003
 20
35.59511705473776
 40
0.5
100
AcDbArc
 50
350
 51
80
  0
ARC
  5
B0
100
AcDbEntity
  8
0
  6
ByLayer
 62
  256
370
   -1
100
AcDbCircle
 10
-92.77960760000003
 20
25.05004265473776
 40
0.5
100
AcDbArc
 50
170
 51
260
  0
ARC
  5
B1
100
AcDbEntity
  8
0
  6
ByLayer
 62
  256
370
   -1
100
AcDbCircle
 10
-79.97710690000004
 20
22.79261635473776
 40
0.5
100
AcDbArc
 50
260
 51
350
  0
LINE
  5
B2
100
AcDbEntity
  8
0
  6
ByLayer
 62
  256
370
   -1
100
AcDbLine
 10
-52.91418190000003
 20
31.72895165473776
 11
-40.11168110000004
 21
29.47152535473776
  0
LINE
  5
B3
100
AcDbEntity
  8
0
  6
ByLayer
 62
  256
370
   -1
100
AcDbLine
 10
-55.34525630000003
 20
17.94164315473776
 11
-42.54275550000004
 21
15.68421685473776
  0
LINE
  5
B4
100
AcDbEntity
  8
0
  6
ByLayer
 62
  256
370
   -1
100
AcDbLine
 10
-53.49340980000004
 20
31.32337185473776
 11
-55.75083610000003
 21
18.52087105473776
  0
LINE
  5
B5
100
AcDbEntity
  8
0
  6
ByLayer
 62
  256
370
   -1
100
AcDbLine
 10
-39.70610130000003
 20
28.89229745473776
 11
-41.96352760000003
 21
16.08979665473776
  0
ARC
  5
B6
100
AcDbEntity
  8
0
  6
ByLayer
 62
  256
370
   -1
100
AcDbCircle
 10
-53.00100590000004
 20
31.23654775473776
 40
0.5
100
AcDbArc
 50
80
 51
170
  0
ARC
  5
B7
100
AcDbEntity
  8
0
  6
ByLayer
 62
  256
370
   -1
100
AcDbCircle
 10
-40.19850520000003
 20
28.97912145473776
 40
0.5
100
AcDbArc
 50
350
 51
80
  0
ARC
  5
B8
100
AcDbEntity
  8
0
  6
ByLayer
 62
  256
370
   -1
100
AcDbCircle
 10
-55.25843220000003
 20
18.43404705473776
 40
0.5
100
AcDbArc
 50
170
 51
260
  0
ARC
  5
B9
100
AcDbEntity
  8
0
  6
ByLayer
 62
  256
370
   -1
100
AcDbCircle
 10
-42.45593150000003
 20
16.17662075473776
 40
0.5
100
AcDbArc
 50
260
 51
350
  0
LINE
  5
BA
100
AcDbEntity
  8
0
  6
ByLayer
 62
  256
370
   -1
100
AcDbLine
 10
-34.98059360000003
 20
23.73080695473776
 11
-22.17809280000003
 21
21.47338065473776
  0
LINE
  5
BB
100
AcDbEntity
  8
0
  6
ByLayer
 62
  256
370
   -1
100
AcDbLine
 10
-37.41166800000003
 20
9.94349845473776
 11
-24.60916720000003
 21
7.686072154737762
  0
LINE
  5
BC
100
AcDbEntity
  8
0
  6
ByLayer
 62
  256
370
   -1
100
AcDbLine
 10
-35.55982150000004
 20
23.32522715473776
 11
-37.81724780000003
 21
10.52272635473776
  0
LINE
  5
BD
100
AcDbEntity
  8
0
  6
ByLayer
 62
  256
370
   -1
100
AcDbLine
 10
-21.77251300000003
 20
20.89415275473776
 11
-24.02993930000002
 21
8.09165195473776
  0
ARC
  5
BE
100
AcDbEntity
  8
0
  6
ByLayer
 62
  256
370
   -1
100
AcDbCircle
 10
-35.06741760000003
 20
23.23840305473776
 40
0.5
100
AcDbArc
 50
80
 51
170
  0
ARC
  5
BF
100
AcDbEntity
  8
0
  6
ByLayer
 62
  256
370
   -1
100
AcDbCircle
 10
-22.26491690000003
 20
20.98097675473776
 40
0.5
100
AcDbArc
 50
350
 51
80
  0
ARC
  5
C0
100
AcDbEntity
  8
0
  6
ByLayer
 62
  256
370
   -1
100
AcDbCircle
 10
-37.32484390000003
 20
10.43590235473776
 40
0.5
100
AcDbArc
 50
170
 51
260
  0
ARC
  5
C1
100
AcDbEntity
  8
0
  6
ByLayer
 62
  256
370
   -1
100
AcDbCircle
 10
-24.52234320000004
 20
8.178476054737761
 40
0.5
100
AcDbArc
 50
260
 51
350
  0
LINE
  5
C2
100
AcDbEntity
  8
0
  6
ByLayer
 62
  256
370
   -1
100
AcDbLine
 10
-129.6105316
 20
35.58064895473776
 11
-116.8080308
 21
33.32322265473776
  0
LINE
  5
C3
100
AcDbEntity
  8
0
  6
ByLayer
 62
  256
370
   -1
100
AcDbLine
 10
-132.041606
 20
21.79334045473776
 11
-119.2391052
 21
19.53591415473776
  0
LINE
  5
C4
100
AcDbEntity
  8
0
  6
ByLayer
 62
  256
370
   -1
100
AcDbLine
 10
-130.1897595
 20
35.17506915473776
 11
-132.4471858
 21
22.37256835473776
  0
LINE
  5
C5
100
AcDbEntity
  8
0
  6
ByLayer
 62
  256
370
   -1
100
AcDbLine
 10
-116.402451
 20
32.74399475473776
 11
-118.6598773
 21
19.94149395473776
  0
ARC
  5
C6
100
AcDbEntity
  8
0
  6
ByLayer
 62
  256
370
   -1
100
AcDbCircle
 10
-129.6973556
 20
35.08824505473776
 40
0.5
100
AcDbArc
 50
80
 51
170
  0
ARC
  5
C7
100
AcDbEntity
  8
0
  6
ByLayer
 62
  256
370
   -1
100
AcDbCircle
 10
-116.8948549
 20
32.83081875473776
 40
0.5
100
AcDbArc
 50
350
 51
80
  0
ARC
  5
C8
100
AcDbEntity
  8
0
  6
ByLayer
 62
  256
370
   -1
100
AcDbCircle
 10
-131.9547819
 20
22.28574435473776
 40
0.5
100
AcDbArc
 50
170
 51
260
  0
ARC
  5
C9
100
AcDbEntity
  8
0
  6
ByLayer
 62
  256
370
   -1
100
AcDbCircle
 10
-119.1522812
 20
20.02831805473776
 40
0.5
100
AcDbArc
 50
260
 51
350
  0
LINE
  5
CA
100
AcDbEntity
  8
0
  6
ByLayer
 62
  256
370
   -1
100
AcDbLine
 10
-110.8499439
 20
32.27265115473776
 11
-98.04744310000004
 21
30.01522485473776
  0
LINE
  5
CB
100
AcDbEntity
  8
0
  6
ByLayer
 62
  256
370
   -1
100
AcDbLine
 10
-113.2810183
 20
18.48534265473776
 11
-100.4785175
 21
16.22791635473776
  0
LINE
  5
CC
100
AcDbEntity
  8
0
  6
ByLayer
 62
  256
370
   -1
100
AcDbLine
 10
-111.4291718
 20
31.86707135473776
 11
-113.6865981
 21
19.06457055473776
  0
LINE
  5
CD
100
AcDbEntity
  8
0
  6
ByLayer
 62
  256
370
   -1
100
AcDbLine
 10
-97.64186330000004
 20
29.43599695473776
 11
-99.89928960000003
 21
16.63349615473776
  0
ARC
  5
CE
100
AcDbEntity
  8
0
  6
ByLayer
 62
  256
370
   -1
100
AcDbCircle
 10
-110.9367679
 20
31.78024725473776
 40
0.5
100
AcDbArc
 50
80
 51
170
  0
ARC
  5
CF
100
AcDbEntity
  8
0
  6
ByLayer
 62
  256
370
   -1
100
AcDbCircle
 10
-98.13426720000004
 20
29.52282095473776
 40
0.5
100
AcDbArc
 50
350
 51
80
  0
ARC
  5
D0
100
AcDbEntity
  8
0
  6
ByLayer
 62
  256
370
   -1
100
AcDbCircle
 10
-113.1941942
 20
18.97774655473776
 40
0.5
100
AcDbArc
 50
170
 51
260
  0
ARC
  5
D1
100
AcDbEntity
  8
0
  6
ByLayer
 62
  256
370
   -1
100
AcDbCircle
 10
-100.3916935
 20
16.72032025473776
 40
0.5
100
AcDbArc
 50
260
 51
350
  0
LINE
  5
D2
100
AcDbEntity
  8
0
  6
ByLayer
 62
  256
370
   -1
100
AcDbLine
 10
-74.15576790000003
 20
20.96650875473776
 11
-61.35326710000004
 21
18.70908245473776
  0
LINE
  5
D3
100
AcDbEntity
  8
0
  6
ByLayer
 62
  256
370
   -1
100
AcDbLine
 10
-76.58684230000003
 20
7.179200254737761
 11
-63.78434150000004
 21
4.921773954737759
  0
LINE
  5
D4
100
AcDbEntity
  8
0
  6
ByLayer
 62
  256
370
   -1
100
AcDbLine
 10
-74.73499580000004
 20
20.56092895473776
 11
-76.99242210000003
 21
7.758428154737761
  0
LINE
  5
D5
100
AcDbEntity
  8
0
  6
ByLayer
 62
  256
370
   -1
100
AcDbLine
 10
-60.94768730000004
 20
18.12985455473776
 11
-63.20511360000003
 21
5.327353754737757
  0
ARC
  5
D6
100
AcDbEntity
  8
0
  6
ByLayer
 62
  256
370
   -1
100
AcDbCircle
 10
-74.24259190000004
 20
20.47410485473776
 40
0.5
100
AcDbArc
 50
80
 51
170
  0
ARC
  5
D7
100
AcDbEntity
  8
0
  6
ByLayer
 62
  256
370
   -1
100
AcDbCircle
 10
-61.44009120000004
 20
18.21667855473776
 40
0.5
100
AcDbArc
 50
350
 51
80
  0
ARC
  5
D8
100
AcDbEntity
  8
0
  6
ByLayer
 62
  256
370
   -1
100
AcDbCircle
 10
-76.50001820000003
 20
7.671604154737761
 40
0.5
100
AcDbArc
 50
170
 51
260
  0
ARC
  5
D9
100
AcDbEntity
  8
0
  6
ByLayer
 62
  256
370
   -1
100
AcDbCircle
 10
-63.69751750000003
 20
5.414177854737758
 40
0.5
100
AcDbArc
 50
260
 51
350
  0
LINE
  5
DA
100
AcDbEntity
  8
0
  6
ByLayer
 62
  256
370
   -1
100
AcDbLine
 10
-93.74335510000003
 20
19.58435955473776
 11
-80.94085430000004
 21
17.32693325473776
  0
LINE
  5
DB
100
AcDbEntity
  8
0
  6
ByLayer
 62
  256
370
   -1
100
AcDbLine
 10
-96.17442950000003
 20
5.797051054737757
 11
-83.37192870000004
 21
3.539624754737758
  0
LINE
  5
DC
100
AcDbEntity
  8
0
  6
ByLayer
 62
  256
370
   -1
100
AcDbLine
 10
-94.32258300000004
 20
19.17877975473776
 11
-96.58000930000003
 21
6.376278954737764
  0
LINE
  5
DD
100
AcDbEntity
  8
0
  6
ByLayer
 62
  256
370
   -1
100
AcDbLine
 10
-80.53527450000003
 20
16.74770535473776
 11
-82.79270080000003
 21
3.945204554737764
  0
ARC
  5
DE
100
AcDbEntity
  8
0
  6
ByLayer
 62
  256
370
   -1
100
AcDbCircle
 10
-93.83017910000004
 20
19.09195565473776
 40
0.5
100
AcDbArc
 50
80
 51
170
  0
ARC
  5
DF
100
AcDbEntity
  8
0
  6
ByLayer
 62
  256
370
   -1
100
AcDbCircle
 10
-81.02767840000003
 20
16.83452935473776
 40
0.5
100
AcDbArc
 50
350
 51
80
  0
ARC
  5
E0
100
AcDbEntity
  8
0
  6
ByLayer
 62
  256
370
   -1
100
AcDbCircle
 10
-96.08760540000003
 20
6.289454954737764
 40
0.5
100
AcDbArc
 50
170
 51
260
  0
ARC
  5
E1
100
AcDbEntity
  8
0
  6
ByLayer
 62
  256
370
   -1
100
AcDbCircle
 10
-83.28510470000003
 20
4.032028654737758
 40
0.5
100
AcDbArc
 50
260
 51
350
  0
LINE
  5
E2
100
AcDbEntity
  8
0
  6
ByLayer
 62
  256
370
   -1
100
AcDbLine
 10
-56.22217970000004
 20
12.96836395473776
 11
-43.41967890000004
 21
10.71093765473776
  0
LINE
  5
E3
100
AcDbEntity
  8
0
  6
ByLayer
 62
  256
370
   -1
100
AcDbLine
 10
-58.65325410000004
 20
-0.8189445452622408
 11
-45.85075330000004
 21
-3.07637084526224
  0
LINE
  5
E4
100
AcDbEntity
  8
0
  6
ByLayer
 62
  256
370
   -1
100
AcDbLine
 10
-56.80140760000003
 20
12.56278415473776
 11
-59.05883390000004
 21
-0.2397166452622415
  0
LINE
  5
E5
100
AcDbEntity
  8
0
  6
ByLayer
 62
  256
370
   -1
100
AcDbLine
 10
-43.01409910000004
 20
10.13170975473776
 11
-45.27152540000003
 21
-2.670791045262241
  0
ARC
  5
E6
100
AcDbEntity
  8
0
  6
ByLayer
 62
  256
370
   -1
100
AcDbCircle
 10
-56.30900370000003
 20
12.47596005473776
 40
0.5
100
AcDbArc
 50
80
 51
170
  0
ARC
  5
E7
100
AcDbEntity
  8
0
  6
ByLayer
 62
  256
370
   -1
100
AcDbCircle
 10
-43.50650300000004
 20
10.21853375473776
 40
0.5
100
AcDbArc
 50
350
 51
80
  0
ARC
  5
E8
100
AcDbEntity
  8
0
  6
ByLayer
 62
  256
370
   -1
100
AcDbCircle
 10
-58.56643000000004
 20
-0.3265406452622415
 40
0.5
100
AcDbArc
 50
170
 51
260
  0
ARC
  5
E9
100
AcDbEntity
  8
0
  6
ByLayer
 62
  256
370
   -1
100
AcDbCircle
 10
-45.76392930000003
 20
-2.58396694526224
 40
0.5
100
AcDbArc
 50
260
 51
350
  0
LINE
  5
EA
100
AcDbEntity
  8
0
  6
ByLayer
 62
  256
370
   -1
100
AcDbLine
 10
-38.28859140000003
 20
4.970219254737763
 11
-25.48609060000004
 21
2.712792954737758
  0
LINE
  5
EB
100
AcDbEntity
  8
0
  6
ByLayer
 62
  256
370
   -1
100
AcDbLine
 10
-40.71966580000003
 20
-8.817089245262238
 11
-27.91716500000004
 21
-11.07451554526224
  0
LINE
  5
EC
100
AcDbEntity
  8
0
  6
ByLayer
 62
  256
370
   -1
100
AcDbLine
 10
-38.86781930000004
 20
4.564639454737758
 11
-41.12524560000003
 21
-8.237861345262239
  0
LINE
  5
ED
100
AcDbEntity
  8
0
  6
ByLayer
 62
  256
370
   -1
100
AcDbLine
 10
-25.08051080000003
 20
2.133565054737758
 11
-27.33793710000003
 21
-10.66893574526224
  0
ARC
  5
EE
100
AcDbEntity
  8
0
  6
ByLayer
 62
  256
370
   -1
100
AcDbCircle
 10
-38.37541540000004
 20
4.477815354737757
 40
0.5
100
AcDbArc
 50
80
 51
170
  0
ARC
  5
EF
100
AcDbEntity
  8
0
  6
ByLayer
 62
  256
370
   -1
100
AcDbCircle
 10
-25.57291470000004
 20
2.220389054737758
 40
0.5
100
AcDbArc
 50
350
 51
80
  0
ARC
  5
F0
100
AcDbEntity
  8
0
  6
ByLayer
 62
  256
370
   -1
100
AcDbCircle
 10
-40.63284170000003
 20
-8.324685345262239
 40
0.5
100
AcDbArc
 50
170
 51
260
  0
ARC
  5
F1
100
AcDbEntity
  8
0
  6
ByLayer
 62
  256
370
   -1
100
AcDbCircle
 10
-27.83034100000003
 20
-10.58211164526224
 40
0.5
100
AcDbArc
 50
260
 51
350
  0
LINE
  5
F2
100
AcDbEntity
  8
0
  6
ByLayer
 62
  256
370
   -1
100
AcDbLine
 10
-132.9185293
 20
16.82006125473776
 11
-120.1160285
 21
14.56263495473776
  0
LINE
  5
F3
100
AcDbEntity
  8
0
  6
ByLayer
 62
  256
370
   -1
100
AcDbLine
 10
-135.3496037
 20
3.032752754737757
 11
-122.5471029
 21
0.7753264547377583
  0
LINE
  5
F4
100
AcDbEntity
  8
0
  6
ByLayer
 62
  256
370
   -1
100
AcDbLine
 10
-133.4977572
 20
16.41448145473776
 11
-135.7551835
 21
3.611980654737764
  0
LINE
  5
F5
100
AcDbEntity
  8
0
  6
ByLayer
 62
  256
370
   -1
100
AcDbLine
 10
-119.7104487
 20
13.98340705473776
 11
-121.967875
 21
1.180906254737764
  0
ARC
  5
F6
100
AcDbEntity
  8
0
  6
ByLayer
 62
  256
370
   -1
100
AcDbCircle
 10
-133.0053533
 20
16.32765735473776
 40
0.5
100
AcDbArc
 50
80
 51
170
  0
ARC
  5
F7
100
AcDbEntity
  8
0
  6
ByLayer
 62
  256
370
   -1
100
AcDbCircle
 10
-120.2028526
 20
14.07023105473776
 40
0.5
100
AcDbArc
 50
350
 51
80
  0
ARC
  5
F8
100
AcDbEntity
  8
0
  6
ByLayer
 62
  256
370
   -1
100
AcDbCircle
 10
-135.2627796
 20
3.525156654737764
 40
0.5
100
AcDbArc
 50
170
 51
260
  0
ARC
  5
F9
100
AcDbEntity
  8
0
  6
ByLayer
 62
  256
370
   -1
100
AcDbCircle
 10
-122.4602789
 20
1.267730354737758
 40
0.5
100
AcDbArc
 50
260
 51
350
  0
LINE
  5
FA
100
AcDbEntity
  8
0
  6
ByLayer
 62
  256
370
   -1
100
AcDbLine
 10
-114.1579416
 20
13.51206345473776
 11
-101.3554408
 21
11.25463715473776
  0
LINE
  5
FB
100
AcDbEntity
  8
0
  6
ByLayer
 62
  256
370
   -1
100
AcDbLine
 10
-116.589016
 20
-0.2752450452622384
 11
-103.7865152
 21
-2.532671345262237
  0
LINE
  5
FC
100
AcDbEntity
  8
0
  6
ByLayer
 62
  256
370
   -1
100
AcDbLine
 10
-114.7371695
 20
13.10648365473776
 11
-116.9945958
 21
0.303982854737761
  0
LINE
  5
FD
100
AcDbEntity
  8
0
  6
ByLayer
 62
  256
370
   -1
100
AcDbLine
 10
-100.949861
 20
10.67540925473776
 11
-103.2072873
 21
-2.127091545262239
  0
ARC
  5
FE
100
AcDbEntity
  8
0
  6
ByLayer
 62
  256
370
   -1
100
AcDbCircle
 10
-114.2447656
 20
13.01965955473776
 40
0.5
100
AcDbArc
 50
80
 51
170
  0
ARC
  5
FF
100
AcDbEntity
  8
0
  6
ByLayer
 62
  256
370
   -1
100
AcDbCircle
 10
-101.4422649
 20
10.76223325473776
 40
0.5
100
AcDbArc
 50
350
 51
80
  0
ARC
  5
100
100
AcDbEntity
  8
0
  6
ByLayer
 62
  256
370
   -1
100
AcDbCircle
 10
-116.5021919
 20
0.217158854737761
 40
0.5
100
AcDbArc
 50
170
 51
260
  0
ARC
  5
101
100
AcDbEntity
  8
0
  6
ByLayer
 62
  256
370
   -1
100
AcDbCircle
 10
-103.6996912
 20
-2.040267445262238
 40
0.5
100
AcDbArc
 50
260
 51
350
  0
LINE
  5
102
100
AcDbEntity
  8
0
  6
ByLayer
 62
  256
370
   -1
100
AcDbLine
 10
-77.46376570000004
 20
2.205921054737757
 11
-64.66126490000003
 21
-0.05150524526224132
  0
LINE
  5
103
100
AcDbEntity
  8
0
  6
ByLayer
 62
  256
370
   -1
100
AcDbLine
 10
-79.89484010000004
 20
-11.58138744526224
 11
-67.09233930000003
 21
-13.83881374526224
  0
LINE
  5
104
100
AcDbEntity
  8
0
  6
ByLayer
 62
  256
370
   -1
100
AcDbLine
 10
-78.04299360000003
 20
1.800341254737759
 11
-80.30041990000004
 21
-11.00215954526224
  0
LINE
  5
105
100
AcDbEntity
  8
0
  6
ByLayer
 62
  256
370
   -1
100
AcDbLine
 10
-64.25568510000004
 20
-0.6307331452622407
 11
-66.51311140000003
 21
-13.43323394526224
  0
ARC
  5
106
100
AcDbEntity
  8
0
  6
ByLayer
 62
  256
370
   -1
100
AcDbCircle
 10
-77.55058970000003
 20
1.713517154737758
 40
0.5
100
AcDbArc
 50
80
 51
170
  0
ARC
  5
107
100
AcDbEntity
  8
0
  6
ByLayer
 62
  256
370
   -1
100
AcDbCircle
 10
-64.74808900000004
 20
-0.5439091452622407
 40
0.5
100
AcDbArc
 50
350
 51
80
  0
ARC
  5
108
100
AcDbEntity
  8
0
  6
ByLayer
 62
  256
370
   -1
100
AcDbCircle
 10
-79.80801600000004
 20
-11.08898354526224
 40
0.5
100
AcDbArc
 50
170
 51
260
  0
ARC
  5
109
100
AcDbEntity
  8
0
  6
ByLayer
 62
  256
370
   -1
100
AcDbCircle
 10
-67.00551530000003
 20
-13.34640984526224
 40
0.5
100
AcDbArc
 50
260
 51
350
  0
LINE
  5
10A
100
AcDbEntity
  8
0
  6
ByLayer
 62
  256
370
   -1
100
AcDbLine
 10
-97.05135280000003
 20
0.8237718547377568
 11
-84.24885200000003
 21
-1.433654445262242
  0
LINE
  5
10B
100
AcDbEntity
  8
0
  6
ByLayer
 62
  256
370
   -1
100
AcDbLine
 10
-99.48242720000003
 20
-12.96353664526224
 11
-86.67992640000003
 21
-15.22096294526224
  0
LINE
  5
10C
100
AcDbEntity
  8
0
  6
ByLayer
 62
  256
370
   -1
100
AcDbLine
 10
-97.63058070000002
 20
0.4181920547377587
 11
-99.88800700000004
 21
-12.38430874526224
  0
LINE
  5
10D
100
AcDbEntity
  8
0
  6
ByLayer
 62
  256
370
   -1
100
AcDbLine
 10
-83.84327220000003
 20
-2.012882345262241
 11
-86.10069850000004
 21
-14.81538314526224
  0
ARC
  5
10E
100
AcDbEntity
  8
0
  6
ByLayer
 62
  256
370
   -1
100
AcDbCircle
 10
-97.13817680000002
 20
0.3313679547377575
 40
0.5
100
AcDbArc
 50
80
 51
170
  0
ARC
  5
10F
100
AcDbEntity
  8
0
  6
ByLayer
 62
  256
370
   -1
100
AcDbCircle
 10
-84.33567610000003
 20
-1.926058345262241
 40
0.5
100
AcDbArc
 50
350
 51
80
  0
ARC
  5
110
100
AcDbEntity
  8
0
  6
ByLayer
 62
  256
370
   -1
100
AcDbCircle
 10
-99.39560310000003
 20
-12.47113274526224
 40
0.5
100
AcDbArc
 50
170
 51
260
  0
ARC
  5
111
100
AcDbEntity
  8
0
  6
ByLayer
 62
  256
370
   -1
100
AcDbCircle
 10
-86.59310240000003
 20
-14.72855904526224
 40
0.5
100
AcDbArc
 50
260
 51
350
  0
LINE
  5
112
100
AcDbEntity
  8
0
  6
ByLayer
 62
  256
370
   -1
100
AcDbLine
 10
-59.53017750000004
 20
-5.792223745262241
 11
-46.72767670000003
 21
-8.04965004526224
  0
LINE
  5
113
100
AcDbEntity
  8
0
  6
ByLayer
 62
  256
370
   -1
100
AcDbLine
 10
-61.96125190000004
 20
-19.57953224526224
 11
-49.15875110000003
 21
-21.83695854526224
  0
LINE
  5
114
100
AcDbEntity
  8
0
  6
ByLayer
 62
  256
370
   -1
100
AcDbLine
 10
-60.10940540000003
 20
-6.197803545262239
 11
-62.36683170000003
 21
-19.00030434526224
  0
LINE
  5
115
100
AcDbEntity
  8
0
  6
ByLayer
 62
  256
370
   -1
100
AcDbLine
 10
-46.32209690000003
 20
-8.628877945262239
 11
-48.57952320000004
 21
-21.43137874526224
  0
ARC
  5
116
100
AcDbEntity
  8
0
  6
ByLayer
 62
  256
370
   -1
100
AcDbCircle
 10
-59.61700150000003
 20
-6.28462764526224
 40
0.5
100
AcDbArc
 50
80
 51
170
  0
ARC
  5
117
100
AcDbEntity
  8
0
  6
ByLayer
 62
  256
370
   -1
100
AcDbCircle
 10
-46.81450080000003
 20
-8.542053945262239
 40
0.5
100
AcDbArc
 50
350
 51
80
  0
ARC
  5
118
100
AcDbEntity
  8
0
  6
ByLayer
 62
  256
370
   -1
100
AcDbCircle
 10
-61.87442780000003
 20
-19.08712834526224
 40
0.5
100
AcDbArc
 50
170
 51
260
  0
ARC
  5
119
100
AcDbEntity
  8
0
  6
ByLayer
 62
  256
370
   -1
100
AcDbCircle
 10
-49.07192710000004
 20
-21.34455464526224
 40
0.5
100
AcDbArc
 50
260
 51
350
  0
LINE
  5
11A
100
AcDbEntity
  8
0
  6
ByLayer
 62
  256
370
   -1
100
AcDbLine
 10
-41.59658920000004
 20
-13.79036844526224
 11
-28.79408840000004
 21
-16.04779474526224
  0
LINE
  5
11B
100
AcDbEntity
  8
0
  6
ByLayer
 62
  256
370
   -1
100
AcDbLine
 10
-44.02766360000004
 20
-27.57767694526224
 11
-31.22516280000004
 21
-29.83510324526225
  0
LINE
  5
11C
100
AcDbEntity
  8
0
  6
ByLayer
 62
  256
370
   -1
100
AcDbLine
 10
-42.17581710000003
 20
-14.19594824526224
 11
-44.43324340000004
 21
-26.99844904526223
  0
LINE
  5
11D
100
AcDbEntity
  8
0
  6
ByLayer
 62
  256
370
   -1
100
AcDbLine
 10
-28.38850860000004
 20
-16.62702264526224
 11
-30.64593490000003
 21
-29.42952344526223
  0
ARC
  5
11E
100
AcDbEntity
  8
0
  6
ByLayer
 62
  256
370
   -1
100
AcDbCircle
 10
-41.68341320000003
 20
-14.28277234526224
 40
0.5
100
AcDbArc
 50
80
 51
170
  0
ARC
  5
11F
100
AcDbEntity
  8
0
  6
ByLayer
 62
  256
370
   -1
100
AcDbCircle
 10
-28.88091250000004
 20
-16.54019864526224
 40
0.5
100
AcDbArc
 50
350
 51
80
  0
ARC
  5
120
100
AcDbEntity
  8
0
  6
ByLayer
 62
  256
370
   -1
100
AcDbCircle
 10
-43.94083950000004
 20
-27.08527304526224
 40
0.5
100
AcDbArc
 50
170
 51
260
  0
ARC
  5
121
100
AcDbEntity
  8
0
  6
ByLayer
 62
  256
370
   -1
100
AcDbCircle
 10
-31.13833880000003
 20
-29.34269934526223
 40
0.5
100
AcDbArc
 50
260
 51
350
  0
LINE
  5
122
100
AcDbEntity
  8
0
  6
ByLayer
 62
  256
370
   -1
100
AcDbLine
 10
-136.2265271
 20
-1.940526445262236
 11
-123.4240263
 21
-4.197952745262242
  0
LINE
  5
123
100
AcDbEntity
  8
0
  6
ByLayer
 62
  256
370
   -1
100
AcDbLine
 10
-138.6576015
 20
-15.72783494526224
 11
-125.8551007
 21
-17.98526124526224
  0
LINE
  5
124
100
AcDbEntity
  8
0
  6
ByLayer
 62
  256
370
   -1
100
AcDbLine
 10
-136.805755
 20
-2.346106245262241
 11
-139.0631813
 21
-15.14860704526224
  0
LINE
  5
125
100
AcDbEntity
  8
0
  6
ByLayer
 62
  256
370
   -1
100
AcDbLine
 10
-123.0184465
 20
-4.777180645262241
 11
-125.2758728
 21
-17.57968144526224
  0
ARC
  5
126
100
AcDbEntity
  8
0
  6
ByLayer
 62
  256
370
   -1
100
AcDbCircle
 10
-136.3133511
 20
-2.432930345262243
 40
0.5
100
AcDbArc
 50
80
 51
170
  0
ARC
  5
127
100
AcDbEntity
  8
0
  6
ByLayer
 62
  256
370
   -1
100
AcDbCircle
 10
-123.5108504
 20
-4.690356645262241
 40
0.5
100
AcDbArc
 50
350
 51
80
  0
ARC
  5
128
100
AcDbEntity
  8
0
  6
ByLayer
 62
  256
370
   -1
100
AcDbCircle
 10
-138.5707774
 20
-15.23543104526224
 40
0.5
100
AcDbArc
 50
170
 51
260
  0
ARC
  5
129
100
AcDbEntity
  8
0
  6
ByLayer
 62
  256
370
   -1
100
AcDbCircle
 10
-125.7682767
 20
-17.49285734526224
 40
0.5
100
AcDbArc
 50
260
 51
350
  0
LINE
  5
12A
100
AcDbEntity
  8
0
  6
ByLayer
 62
  256
370
   -1
100
AcDbLine
 10
-117.4659394
 20
-5.248524145262238
 11
-104.6634386
 21
-7.505950445262236
  0
LINE
  5
12B
100
AcDbEntity
  8
0
  6
ByLayer
 62
  256
370
   -1
100
AcDbLine
 10
-119.8970138
 20
-19.03583264526224
 11
-107.094513
 21
-21.29325894526224
  0
LINE
  5
12C
100
AcDbEntity
  8
0
  6
ByLayer
 62
  256
370
   -1
100
AcDbLine
 10
-118.0451673
 20
-5.654103945262243
 11
-120.3025936
 21
-18.45660474526224
  0
LINE
  5
12D
100
AcDbEntity
  8
0
  6
ByLayer
 62
  256
370
   -1
100
AcDbLine
 10
-104.2578588
 20
-8.085178345262243
 11
-106.5152851
 21
-20.88767914526224
  0
ARC
  5
12E
100
AcDbEntity
  8
0
  6
ByLayer
 62
  256
370
   -1
100
AcDbCircle
 10
-117.5527634
 20
-5.740928045262237
 40
0.5
100
AcDbArc
 50
80
 51
170
  0
ARC
  5
12F
100
AcDbEntity
  8
0
  6
ByLayer
 62
  256
370
   -1
100
AcDbCircle
 10
-104.7502627
 20
-7.998354345262243
 40
0.5
100
AcDbArc
 50
350
 51
80
  0
ARC
  5
130
100
AcDbEntity
  8
0
  6
ByLayer
 62
  256
370
   -1
100
AcDbCircle
 10
-119.8101897
 20
-18.54342874526224
 40
0.5
100
AcDbArc
 50
170
 51
260
  0
ARC
  5
131
100
AcDbEntity
  8
0
  6
ByLayer
 62
  256
370
   -1
100
AcDbCircle
 10
-107.007689
 20
-20.80085504526224
 40
0.5
100
AcDbArc
 50
260
 51
350
  0
LINE
  5
132
100
AcDbEntity
  8
0
  6
ByLayer
 62
  256
370
   -1
100
AcDbLine
 10
-100.3593506
 20
-17.93681584526224
 11
-87.55684980000004
 21
-20.19424214526224
  0
LINE
  5
133
100
AcDbEntity
  8
0
  6
ByLayer
 62
  256
370
   -1
100
AcDbLine
 10
-102.790425
 20
-31.72412434526224
 11
-89.98792420000004
 21
-33.98155064526225
  0
LINE
  5
134
100
AcDbEntity
  8
0
  6
ByLayer
 62
  256
370
   -1
100
AcDbLine
 10
-100.9385785
 20
-18.34239564526224
 11
-103.1960048
 21
-31.14489644526223
  0
LINE
  5
135
100
AcDbEntity
  8
0
  6
ByLayer
 62
  256
370
   -1
100
AcDbLine
 10
-87.15127000000004
 20
-20.77347004526224
 11
-89.40869630000003
 21
-33.57597084526223
  0
ARC
  5
136
100
AcDbEntity
  8
0
  6
ByLayer
 62
  256
370
   -1
100
AcDbCircle
 10
-100.4461746
 20
-18.42921974526224
 40
0.5
100
AcDbArc
 50
80
 51
170
  0
ARC
  5
137
100
AcDbEntity
  8
0
  6
ByLayer
 62
  256
370
   -1
100
AcDbCircle
 10
-87.64367390000004
 20
-20.68664604526224
 40
0.5
100
AcDbArc
 50
350
 51
80
  0
ARC
  5
138
100
AcDbEntity
  8
0
  6
ByLayer
 62
  256
370
   -1
100
AcDbCircle
 10
-102.7036009
 20
-31.23172044526224
 40
0.5
100
AcDbArc
 50
170
 51
260
  0
ARC
  5
139
100
AcDbEntity
  8
0
  6
ByLayer
 62
  256
370
   -1
100
AcDbCircle
 10
-89.90110020000003
 20
-33.48914674526225
 40
0.5
100
AcDbArc
 50
260
 51
350
  0
LINE
  5
13A
100
AcDbEntity
  8
0
  6
ByLayer
 62
  256
370
   -1
100
AcDbLine
 10
-139.5345249
 20
-20.70111414526224
 11
-126.7320241
 21
-22.95854044526224
  0
LINE
  5
13B
100
AcDbEntity
  8
0
  6
ByLayer
 62
  256
370
   -1
100
AcDbLine
 10
-141.9655993
 20
-34.48842264526223
 11
-129.1630985
 21
-36.74584894526224
  0
LINE
  5
13C
100
AcDbEntity
  8
0
  6
ByLayer
 62
  256
370
   -1
100
AcDbLine
 10
-140.1137528
 20
-21.10669394526224
 11
-142.3711791
 21
-33.90919474526224
  0
LINE
  5
13D
100
AcDbEntity
  8
0
  6
ByLayer
 62
  256
370
   -1
100
AcDbLine
 10
-126.3264443
 20
-23.53776834526224
 11
-128.5838706
 21
-36.34026914526224
  0
ARC
  5
13E
100
AcDbEntity
  8
0
  6
ByLayer
 62
  256
370
   -1
100
AcDbCircle
 10
-139.6213489
 20
-21.19351804526224
 40
0.5
100
AcDbArc
 50
80
 51
170
  0
ARC
  5
13F
100
AcDbEntity
  8
0
  6
ByLayer
 62
  256
370
   -1
100
AcDbCircle
 10
-126.8188482
 20
-23.45094434526224
 40
0.5
100
AcDbArc
 50
350
 51
80
  0
ARC
  5
140
100
AcDbEntity
  8
0
  6
ByLayer
 62
  256
370
   -1
100
AcDbCircle
 10
-141.8787752
 20
-33.99601874526223
 40
0.5
100
AcDbArc
 50
170
 51
260
  0
ARC
  5
141
100
AcDbEntity
  8
0
  6
ByLayer
 62
  256
370
   -1
100
AcDbCircle
 10
-129.0762745
 20
-36.25344504526224
 40
0.5
100
AcDbArc
 50
260
 51
350
  0
LINE
  5
142
100
AcDbEntity
  8
0
  6
ByLayer
 62
  256
370
   -1
100
AcDbLine
 10
-120.7739372
 20
-24.00911184526224
 11
-107.9714364
 21
-26.26653814526225
  0
LINE
  5
143
100
AcDbEntity
  8
0
  6
ByLayer
 62
  256
370
   -1
100
AcDbLine
 10
-123.2050116
 20
-37.79642034526223
 11
-110.4025108
 21
-40.05384664526224
  0
LINE
  5
144
100
AcDbEntity
  8
0
  6
ByLayer
 62
  256
370
   -1
100
AcDbLine
 10
-121.3531651
 20
-24.41469164526224
 11
-123.6105914
 21
-37.21719244526224
  0
LINE
  5
145
100
AcDbEntity
  8
0
  6
ByLayer
 62
  256
370
   -1
100
AcDbLine
 10
-107.5658566
 20
-26.84576604526224
 11
-109.8232829
 21
-39.64826684526224
  0
ARC
  5
146
100
AcDbEntity
  8
0
  6
ByLayer
 62
  256
370
   -1
100
AcDbCircle
 10
-120.8607612
 20
-24.50151574526224
 40
0.5
100
AcDbArc
 50
80
 51
170
  0
ARC
  5
147
100
AcDbEntity
  8
0
  6
ByLayer
 62
  256
370
   -1
100
AcDbCircle
 10
-108.0582605
 20
-26.75894204526224
 40
0.5
100
AcDbArc
 50
350
 51
80
  0
ARC
  5
148
100
AcDbEntity
  8
0
  6
ByLayer
 62
  256
370
   -1
100
AcDbCircle
 10
-123.1181875
 20
-37.30401644526223
 40
0.5
100
AcDbArc
 50
170
 51
260
  0
ARC
  5
149
100
AcDbEntity
  8
0
  6
ByLayer
 62
  256
370
   -1
100
AcDbCircle
 10
-110.3156868
 20
-39.56144274526224
 40
0.5
100
AcDbArc
 50
260
 51
350
  0
LINE
  5
14A
100
AcDbEntity
  8
0
  6
ByLayer
 62
  256
370
   -1
100
AcDbLine
 10
58.04526929999997
 20
37.46967005473776
 11
70.84777009999996
 21
39.72709635473776
  0
LINE
  5
14B
100
AcDbEntity
  8
0
  6
ByLayer
 62
  256
370
   -1
100
AcDbLine
 10
60.47634369999997
 20
23.68236155473776
 11
73.27884449999996
 21
25.93978785473776
  0
LINE
  5
14C
100
AcDbEntity
  8
0
  6
ByLayer
 62
  256
370
   -1
100
AcDbLine
 10
57.63968949999997
 20
36.89044215473776
 11
59.89711579999997
 21
24.08794135473776
  0
LINE
  5
14D
100
AcDbEntity
  8
0
  6
ByLayer
 62
  256
370
   -1
100
AcDbLine
 10
71.42699799999997
 20
39.32151655473776
 11
73.68442429999996
 21
26.51901575473776
  0
ARC
  5
14E
100
AcDbEntity
  8
0
  6
ByLayer
 62
  256
370
   -1
100
AcDbCircle
 10
58.13209339999997
 20
36.97726615473776
 40
0.5
100
AcDbArc
 50
100
 51
190
  0
ARC
  5
14F
100
AcDbEntity
  8
0
  6
ByLayer
 62
  256
370
   -1
100
AcDbCircle
 10
70.93459409999997
 20
39.23469245473776
 40
0.5
100
AcDbArc
 50
10
 51
100
  0
ARC
  5
150
100
AcDbEntity
  8
0
  6
ByLayer
 62
  256
370
   -1
100
AcDbCircle
 10
60.38951969999997
 20
24.17476545473776
 40
0.5
100
AcDbArc
 50
190
 51
280
  0
ARC
  5
151
100
AcDbEntity
  8
0
  6
ByLayer
 62
  256
370
   -1
100
AcDbCircle
 10
73.19202039999996
 20
26.43219175473776
 40
0.5
100
AcDbArc
 50
280
 51
10
  0
LINE
  5
152
100
AcDbEntity
  8
0
  6
ByLayer
 62
  256
370
   -1
100
AcDbLine
 10
40.11168109999997
 20
29.47152535473776
 11
52.91418189999996
 21
31.72895165473776
  0
LINE
  5
153
100
AcDbEntity
  8
0
  6
ByLayer
 62
  256
370
   -1
100
AcDbLine
 10
42.54275549999997
 20
15.68421685473776
 11
55.34525629999996
 21
17.94164315473776
  0
LINE
  5
154
100
AcDbEntity
  8
0
  6
ByLayer
 62
  256
370
   -1
100
AcDbLine
 10
39.70610129999997
 20
28.89229745473776
 11
41.96352759999996
 21
16.08979665473776
  0
LINE
  5
155
100
AcDbEntity
  8
0
  6
ByLayer
 62
  256
370
   -1
100
AcDbLine
 10
53.49340979999997
 20
31.32337185473776
 11
55.75083609999996
 21
18.52087105473776
  0
ARC
  5
156
100
AcDbEntity
  8
0
  6
ByLayer
 62
  256
370
   -1
100
AcDbCircle
 10
40.19850519999997
 20
28.97912145473776
 40
0.5
100
AcDbArc
 50
100
 51
190
  0
ARC
  5
157
100
AcDbEntity
  8
0
  6
ByLayer
 62
  256
370
   -1
100
AcDbCircle
 10
53.00100589999997
 20
31.23654775473776
 40
0.5
100
AcDbArc
 50
10
 51
100
  0
ARC
  5
158
100
AcDbEntity
  8
0
  6
ByLayer
 62
  256
370
   -1
100
AcDbCircle
 10
42.45593149999996
 20
16.17662075473776
 40
0.5
100
AcDbArc
 50
190
 51
280
  0
ARC
  5
159
100
AcDbEntity
  8
0
  6
ByLayer
 62
  256
370
   -1
100
AcDbCircle
 10
55.25843219999996
 20
18.43404705473776
 40
0.5
100
AcDbArc
 50
280
 51
10
  0
LINE
  5
15A
100
AcDbEntity
  8
0
  6
ByLayer
 62
  256
370
   -1
100
AcDbLine
 10
77.63285649999997
 20
36.08752095473776
 11
90.43535729999996
 21
38.34494725473776
  0
LINE
  5
15B
100
AcDbEntity
  8
0
  6
ByLayer
 62
  256
370
   -1
100
AcDbLine
 10
80.06393089999997
 20
22.30021245473776
 11
92.86643169999996
 21
24.55763875473776
  0
LINE
  5
15C
100
AcDbEntity
  8
0
  6
ByLayer
 62
  256
370
   -1
100
AcDbLine
 10
77.22727669999998
 20
35.50829305473776
 11
79.48470299999997
 21
22.70579225473776
  0
LINE
  5
15D
100
AcDbEntity
  8
0
  6
ByLayer
 62
  256
370
   -1
100
AcDbLine
 10
91.01458519999997
 20
37.93936745473776
 11
93.27201149999996
 21
25.13686665473776
  0
ARC
  5
15E
100
AcDbEntity
  8
0
  6
ByLayer
 62
  256
370
   -1
100
AcDbCircle
 10
77.71968059999998
 20
35.59511705473776
 40
0.5
100
AcDbArc
 50
100
 51
190
  0
ARC
  5
15F
100
AcDbEntity
  8
0
  6
ByLayer
 62
  256
370
   -1
100
AcDbCircle
 10
90.52218129999997
 20
37.85254335473776
 40
0.5
100
AcDbArc
 50
10
 51
100
  0
ARC
  5
160
100
AcDbEntity
  8
0
  6
ByLayer
 62
  256
370
   -1
100
AcDbCircle
 10
79.97710689999997
 20
22.79261635473776
 40
0.5
100
AcDbArc
 50
190
 51
280
  0
ARC
  5
161
100
AcDbEntity
  8
0
  6
ByLayer
 62
  256
370
   -1
100
AcDbCircle
 10
92.77960759999996
 20
25.05004265473776
 40
0.5
100
AcDbArc
 50
280
 51
10
  0
LINE
  5
162
100
AcDbEntity
  8
0
  6
ByLayer
 62
  256
370
   -1
100
AcDbLine
 10
22.17809279999997
 20
21.47338065473776
 11
34.98059359999996
 21
23.73080695473776
  0
LINE
  5
163
100
AcDbEntity
  8
0
  6
ByLayer
 62
  256
370
   -1
100
AcDbLine
 10
24.60916719999997
 20
7.686072154737762
 11
37.41166799999996
 21
9.94349845473776
  0
LINE
  5
164
100
AcDbEntity
  8
0
  6
ByLayer
 62
  256
370
   -1
100
AcDbLine
 10
21.77251299999998
 20
20.89415275473776
 11
24.02993929999997
 21
8.09165195473776
  0
LINE
  5
165
100
AcDbEntity
  8
0
  6
ByLayer
 62
  256
370
   -1
100
AcDbLine
 10
35.55982149999997
 20
23.32522715473776
 11
37.81724779999996
 21
10.52272635473776
  0
ARC
  5
166
100
AcDbEntity
  8
0
  6
ByLayer
 62
  256
370
   -1
100
AcDbCircle
 10
22.26491689999997
 20
20.98097675473776
 40
0.5
100
AcDbArc
 50
100
 51
190
  0
ARC
  5
167
100
AcDbEntity
  8
0
  6
ByLayer
 62
  256
370
   -1
100
AcDbCircle
 10
35.06741759999997
 20
23.23840305473776
 40
0.5
100
AcDbArc
 50
10
 51
100
  0
ARC
  5
168
100
AcDbEntity
  8
0
  6
ByLayer
 62
  256
370
   -1
100
AcDbCircle
 10
24.52234319999997
 20
8.178476054737761
 40
0.5
100
AcDbArc
 50
190
 51
280
  0
ARC
  5
169
100
AcDbEntity
  8
0
  6
ByLayer
 62
  256
370
   -1
100
AcDbCircle
 10
37.32484389999996
 20
10.43590235473776
 40
0.5
100
AcDbArc
 50
280
 51
10
  0
LINE
  5
16A
100
AcDbEntity
  8
0
  6
ByLayer
 62
  256
370
   -1
100
AcDbLine
 10
98.04744309999995
 20
30.01522485473776
 11
110.8499439
 21
32.27265115473776
  0
LINE
  5
16B
100
AcDbEntity
  8
0
  6
ByLayer
 62
  256
370
   -1
100
AcDbLine
 10
100.4785175
 20
16.22791635473776
 11
113.2810183
 21
18.48534265473776
  0
LINE
  5
16C
100
AcDbEntity
  8
0
  6
ByLayer
 62
  256
370
   -1
100
AcDbLine
 10
97.64186329999995
 20
29.43599695473776
 11
99.89928959999997
 21
16.63349615473776
  0
LINE
  5
16D
100
AcDbEntity
  8
0
  6
ByLayer
 62
  256
370
   -1
100
AcDbLine
 10
111.4291717999999
 20
31.86707135473776
 11
113.6865981
 21
19.06457055473776
  0
ARC
  5
16E
100
AcDbEntity
  8
0
  6
ByLayer
 62
  256
370
   -1
100
AcDbCircle
 10
98.13426719999995
 20
29.52282095473776
 40
0.5
100
AcDbArc
 50
100
 51
190
  0
ARC
  5
16F
100
AcDbEntity
  8
0
  6
ByLayer
 62
  256
370
   -1
100
AcDbCircle
 10
110.9367678999999
 20
31.78024725473776
 40
0.5
100
AcDbArc
 50
10
 51
100
  0
ARC
  5
170
100
AcDbEntity
  8
0
  6
ByLayer
 62
  256
370
   -1
100
AcDbCircle
 10
100.3916935
 20
16.72032025473776
 40
0.5
100
AcDbArc
 50
190
 51
280
  0
ARC
  5
171
100
AcDbEntity
  8
0
  6
ByLayer
 62
  256
370
   -1
100
AcDbCircle
 10
113.1941942
 20
18.97774655473776
 40
0.5
100
AcDbArc
 50
280
 51
10
  0
LINE
  5
172
100
AcDbEntity
  8
0
  6
ByLayer
 62
  256
370
   -1
100
AcDbLine
 10
116.8080308
 20
33.32322265473776
 11
129.6105315999999
 21
35.58064895473776
  0
LINE
  5
173
100
AcDbEntity
  8
0
  6
ByLayer
 62
  256
370
   -1
100
AcDbLine
 10
119.2391052
 20
19.53591415473776
 11
132.0416059999999
 21
21.79334045473776
  0
LINE
  5
174
100
AcDbEntity
  8
0
  6
ByLayer
 62
  256
370
   -1
100
AcDbLine
 10
116.402451
 20
32.74399475473776
 11
118.6598772999999
 21
19.94149395473776
  0
LINE
  5
175
100
AcDbEntity
  8
0
  6
ByLayer
 62
  256
370
   -1
100
AcDbLine
 10
130.1897595
 20
35.17506915473776
 11
132.4471857999999
 21
22.37256835473776
  0
ARC
  5
176
100
AcDbEntity
  8
0
  6
ByLayer
 62
  256
370
   -1
100
AcDbCircle
 10
116.8948549
 20
32.83081875473776
 40
0.5
100
AcDbArc
 50
100
 51
190
  0
ARC
  5
177
100
AcDbEntity
  8
0
  6
ByLayer
 62
  256
370
   -1
100
AcDbCircle
 10
129.6973556
 20
35.08824505473776
 40
0.5
100
AcDbArc
 50
10
 51
100
  0
ARC
  5
178
100
AcDbEntity
  8
0
  6
ByLayer
 62
  256
370
   -1
100
AcDbCircle
 10
119.1522811999999
 20
20.02831805473776
 40
0.5
100
AcDbArc
 50
190
 51
280
  0
ARC
  5
179
100
AcDbEntity
  8
0
  6
ByLayer
 62
  256
370
   -1
100
AcDbCircle
 10
131.9547818999999
 20
22.28574435473776
 40
0.5
100
AcDbArc
 50
280
 51
10
  0
LINE
  5
17A
100
AcDbEntity
  8
0
  6
ByLayer
 62
  256
370
   -1
100
AcDbLine
 10
61.35326709999995
 20
18.70908245473776
 11
74.15576789999997
 21
20.96650875473776
  0
LINE
  5
17B
100
AcDbEntity
  8
0
  6
ByLayer
 62
  256
370
   -1
100
AcDbLine
 10
63.78434149999995
 20
4.921773954737759
 11
76.58684229999997
 21
7.179200254737761
  0
LINE
  5
17C
100
AcDbEntity
  8
0
  6
ByLayer
 62
  256
370
   -1
100
AcDbLine
 10
60.94768729999996
 20
18.12985455473776
 11
63.20511359999998
 21
5.327353754737757
  0
LINE
  5
17D
100
AcDbEntity
  8
0
  6
ByLayer
 62
  256
370
   -1
100
AcDbLine
 10
74.73499579999998
 20
20.56092895473776
 11
76.99242209999997
 21
7.758428154737761
  0
ARC
  5
17E
100
AcDbEntity
  8
0
  6
ByLayer
 62
  256
370
   -1
100
AcDbCircle
 10
61.44009119999996
 20
18.21667855473776
 40
0.5
100
AcDbArc
 50
100
 51
190
  0
ARC
  5
17F
100
AcDbEntity
  8
0
  6
ByLayer
 62
  256
370
   -1
100
AcDbCircle
 10
74.24259189999998
 20
20.47410485473776
 40
0.5
100
AcDbArc
 50
10
 51
100
  0
ARC
  5
180
100
AcDbEntity
  8
0
  6
ByLayer
 62
  256
370
   -1
100
AcDbCircle
 10
63.69751749999998
 20
5.414177854737758
 40
0.5
100
AcDbArc
 50
190
 51
280
  0
ARC
  5
181
100
AcDbEntity
  8
0
  6
ByLayer
 62
  256
370
   -1
100
AcDbCircle
 10
76.50001819999997
 20
7.671604154737761
 40
0.5
100
AcDbArc
 50
280
 51
10
  0
LINE
  5
182
100
AcDbEntity
  8
0
  6
ByLayer
 62
  256
370
   -1
100
AcDbLine
 10
43.41967889999998
 20
10.71093765473776
 11
56.22217969999997
 21
12.96836395473776
  0
LINE
  5
183
100
AcDbEntity
  8
0
  6
ByLayer
 62
  256
370
   -1
100
AcDbLine
 10
45.85075329999998
 20
-3.07637084526224
 11
58.65325409999997
 21
-0.8189445452622408
  0
LINE
  5
184
100
AcDbEntity
  8
0
  6
ByLayer
 62
  256
370
   -1
100
AcDbLine
 10
43.01409909999995
 20
10.13170975473776
 11
45.27152539999997
 21
-2.670791045262241
  0
LINE
  5
185
100
AcDbEntity
  8
0
  6
ByLayer
 62
  256
370
   -1
100
AcDbLine
 10
56.80140759999998
 20
12.56278415473776
 11
59.05883389999997
 21
-0.2397166452622415
  0
ARC
  5
186
100
AcDbEntity
  8
0
  6
ByLayer
 62
  256
370
   -1
100
AcDbCircle
 10
43.50650299999995
 20
10.21853375473776
 40
0.5
100
AcDbArc
 50
100
 51
190
  0
ARC
  5
187
100
AcDbEntity
  8
0
  6
ByLayer
 62
  256
370
   -1
100
AcDbCircle
 10
56.30900369999998
 20
12.47596005473776
 40
0.5
100
AcDbArc
 50
10
 51
100
  0
ARC
  5
188
100
AcDbEntity
  8
0
  6
ByLayer
 62
  256
370
   -1
100
AcDbCircle
 10
45.76392929999997
 20
-2.58396694526224
 40
0.5
100
AcDbArc
 50
190
 51
280
  0
ARC
  5
189
100
AcDbEntity
  8
0
  6
ByLayer
 62
  256
370
   -1
100
AcDbCircle
 10
58.56642999999997
 20
-0.3265406452622415
 40
0.5
100
AcDbArc
 50
280
 51
10
  0
LINE
  5
18A
100
AcDbEntity
  8
0
  6
ByLayer
 62
  256
370
   -1
100
AcDbLine
 10
80.94085429999996
 20
17.32693325473776
 11
93.74335509999997
 21
19.58435955473776
  0
LINE
  5
18B
100
AcDbEntity
  8
0
  6
ByLayer
 62
  256
370
   -1
100
AcDbLine
 10
83.37192869999996
 20
3.539624754737758
 11
96.17442949999997
 21
5.797051054737757
  0
LINE
  5
18C
100
AcDbEntity
  8
0
  6
ByLayer
 62
  256
370
   -1
100
AcDbLine
 10
80.53527449999996
 20
16.74770535473776
 11
82.79270079999998
 21
3.945204554737764
  0
LINE
  5
18D
100
AcDbEntity
  8
0
  6
ByLayer
 62
  256
370
   -1
100
AcDbLine
 10
94.32258299999995
 20
19.17877975473776
 11
96.58000929999997
 21
6.376278954737764
  0
ARC
  5
18E
100
AcDbEntity
  8
0
  6
ByLayer
 62
  256
370
   -1
100
AcDbCircle
 10
81.02767839999996
 20
16.83452935473776
 40
0.5
100
AcDbArc
 50
100
 51
190
  0
ARC
  5
18F
100
AcDbEntity
  8
0
  6
ByLayer
 62
  256
370
   -1
100
AcDbCircle
 10
93.83017909999995
 20
19.09195565473776
 40
0.5
100
AcDbArc
 50
10
 51
100
  0
ARC
  5
190
100
AcDbEntity
  8
0
  6
ByLayer
 62
  256
370
   -1
100
AcDbCircle
 10
83.28510469999998
 20
4.032028654737758
 40
0.5
100
AcDbArc
 50
190
 51
280
  0
ARC
  5
191
100
AcDbEntity
  8
0
  6
ByLayer
 62
  256
370
   -1
100
AcDbCircle
 10
96.08760539999997
 20
6.289454954737764
 40
0.5
100
AcDbArc
 50
280
 51
10
  0
LINE
  5
192
100
AcDbEntity
  8
0
  6
ByLayer
 62
  256
370
   -1
100
AcDbLine
 10
25.48609059999995
 20
2.712792954737758
 11
38.28859139999997
 21
4.970219254737763
  0
LINE
  5
193
100
AcDbEntity
  8
0
  6
ByLayer
 62
  256
370
   -1
100
AcDbLine
 10
27.91716499999995
 20
-11.07451554526224
 11
40.71966579999997
 21
-8.817089245262238
  0
LINE
  5
194
100
AcDbEntity
  8
0
  6
ByLayer
 62
  256
370
   -1
100
AcDbLine
 10
25.08051079999996
 20
2.133565054737758
 11
27.33793709999998
 21
-10.66893574526224
  0
LINE
  5
195
100
AcDbEntity
  8
0
  6
ByLayer
 62
  256
370
   -1
100
AcDbLine
 10
38.86781929999998
 20
4.564639454737758
 11
41.12524559999997
 21
-8.237861345262239
  0
ARC
  5
196
100
AcDbEntity
  8
0
  6
ByLayer
 62
  256
370
   -1
100
AcDbCircle
 10
25.57291469999996
 20
2.220389054737758
 40
0.5
100
AcDbArc
 50
100
 51
190
  0
ARC
  5
197
100
AcDbEntity
  8
0
  6
ByLayer
 62
  256
370
   -1
100
AcDbCircle
 10
38.37541539999998
 20
4.477815354737757
 40
0.5
100
AcDbArc
 50
10
 51
100
  0
ARC
  5
198
100
AcDbEntity
  8
0
  6
ByLayer
 62
  256
370
   -1
100
AcDbCircle
 10
27.83034099999998
 20
-10.58211164526224
 40
0.5
100
AcDbArc
 50
190
 51
280
  0
ARC
  5
199
100
AcDbEntity
  8
0
  6
ByLayer
 62
  256
370
   -1
100
AcDbCircle
 10
40.63284169999997
 20
-8.324685345262239
 40
0.5
100
AcDbArc
 50
280
 51
10
  0
LINE
  5
19A
100
AcDbEntity
  8
0
  6
ByLayer
 62
  256
370
   -1
100
AcDbLine
 10
101.3554408
 20
11.25463715473776
 11
114.1579416
 21
13.51206345473776
  0
LINE
  5
19B
100
AcDbEntity
  8
0
  6
ByLayer
 62
  256
370
   -1
100
AcDbLine
 10
103.7865151999999
 20
-2.532671345262237
 11
116.589016
 21
-0.2752450452622384
  0
LINE
  5
19C
100
AcDbEntity
  8
0
  6
ByLayer
 62
  256
370
   -1
100
AcDbLine
 10
100.949861
 20
10.67540925473776
 11
103.2072873
 21
-2.127091545262239
  0
LINE
  5
19D
100
AcDbEntity
  8
0
  6
ByLayer
 62
  256
370
   -1
100
AcDbLine
 10
114.7371695
 20
13.10648365473776
 11
116.9945958
 21
0.303982854737761
  0
ARC
  5
19E
100
AcDbEntity
  8
0
  6
ByLayer
 62
  256
370
   -1
100
AcDbCircle
 10
101.4422649
 20
10.76223325473776
 40
0.5
100
AcDbArc
 50
100
 51
190
  0
ARC
  5
19F
100
AcDbEntity
  8
0
  6
ByLayer
 62
  256
370
   -1
100
AcDbCircle
 10
114.2447656
 20
13.01965955473776
 40
0.5
100
AcDbArc
 50
10
 51
100
  0
ARC
  5
1A0
100
AcDbEntity
  8
0
  6
ByLayer
 62
  256
370
   -1
100
AcDbCircle
 10
103.6996912
 20
-2.040267445262238
 40
0.5
100
AcDbArc
 50
190
 51
280
  0
ARC
  5
1A1
100
AcDbEntity
  8
0
  6
ByLayer
 62
  256
370
   -1
100
AcDbCircle
 10
116.5021919
 20
0.217158854737761
 40
0.5
100
AcDbArc
 50
280
 51
10
  0
LINE
  5
1A2
100
AcDbEntity
  8
0
  6
ByLayer
 62
  256
370
   -1
100
AcDbLine
 10
120.1160285
 20
14.56263495473776
 11
132.9185293
 21
16.82006125473776
  0
LINE
  5
1A3
100
AcDbEntity
  8
0
  6
ByLayer
 62
  256
370
   -1
100
AcDbLine
 10
122.5471029
 20
0.7753264547377583
 11
135.3496037
 21
3.032752754737757
  0
LINE
  5
1A4
100
AcDbEntity
  8
0
  6
ByLayer
 62
  256
370
   -1
100
AcDbLine
 10
119.7104487
 20
13.98340705473776
 11
121.967875
 21
1.180906254737764
  0
LINE
  5
1A5
100
AcDbEntity
  8
0
  6
ByLayer
 62
  256
370
   -1
100
AcDbLine
 10
133.4977572
 20
16.41448145473776
 11
135.7551835
 21
3.611980654737764
  0
ARC
  5
1A6
100
AcDbEntity
  8
0
  6
ByLayer
 62
  256
370
   -1
100
AcDbCircle
 10
120.2028526
 20
14.07023105473776
 40
0.5
100
AcDbArc
 50
100
 51
190
  0
ARC
  5
1A7
100
AcDbEntity
  8
0
  6
ByLayer
 62
  256
370
   -1
100
AcDbCircle
 10
133.0053533
 20
16.32765735473776
 40
0.5
100
AcDbArc
 50
10
 51
100
  0
ARC
  5
1A8
100
AcDbEntity
  8
0
  6
ByLayer
 62
  256
370
   -1
100
AcDbCircle
 10
122.4602789
 20
1.267730354737758
 40
0.5
100
AcDbArc
 50
190
 51
280
  0
ARC
  5
1A9
100
AcDbEntity
  8
0
  6
ByLayer
 62
  256
370
   -1
100
AcDbCircle
 10
135.2627796
 20
3.525156654737764
 40
0.5
100
AcDbArc
 50
280
 51
10
  0
LINE
  5
1AA
100
AcDbEntity
  8
0
  6
ByLayer
 62
  256
370
   -1
100
AcDbLine
 10
64.66126489999996
 20
-0.05150524526224132
 11
77.46376569999995
 21
2.205921054737757
  0
LINE
  5
1AB
100
AcDbEntity
  8
0
  6
ByLayer
 62
  256
370
   -1
100
AcDbLine
 10
67.09233929999996
 20
-13.83881374526224
 11
79.89484009999995
 21
-11.58138744526224
  0
LINE
  5
1AC
100
AcDbEntity
  8
0
  6
ByLayer
 62
  256
370
   -1
100
AcDbLine
 10
64.25568509999997
 20
-0.6307331452622407
 11
66.51311139999996
 21
-13.43323394526224
  0
LINE
  5
1AD
100
AcDbEntity
  8
0
  6
ByLayer
 62
  256
370
   -1
100
AcDbLine
 10
78.04299359999996
 20
1.800341254737759
 11
80.30041989999998
 21
-11.00215954526224
  0
ARC
  5
1AE
100
AcDbEntity
  8
0
  6
ByLayer
 62
  256
370
   -1
100
AcDbCircle
 10
64.74808899999996
 20
-0.5439091452622407
 40
0.5
100
AcDbArc
 50
100
 51
190
  0
ARC
  5
1AF
100
AcDbEntity
  8
0
  6
ByLayer
 62
  256
370
   -1
100
AcDbCircle
 10
77.55058969999996
 20
1.713517154737758
 40
0.5
100
AcDbArc
 50
10
 51
100
  0
ARC
  5
1B0
100
AcDbEntity
  8
0
  6
ByLayer
 62
  256
370
   -1
100
AcDbCircle
 10
67.00551529999996
 20
-13.34640984526224
 40
0.5
100
AcDbArc
 50
190
 51
280
  0
ARC
  5
1B1
100
AcDbEntity
  8
0
  6
ByLayer
 62
  256
370
   -1
100
AcDbCircle
 10
79.80801599999995
 20
-11.08898354526224
 40
0.5
100
AcDbArc
 50
280
 51
10
  0
LINE
  5
1B2
100
AcDbEntity
  8
0
  6
ByLayer
 62
  256
370
   -1
100
AcDbLine
 10
46.72767669999996
 20
-8.04965004526224
 11
59.53017749999998
 21
-5.792223745262241
  0
LINE
  5
1B3
100
AcDbEntity
  8
0
  6
ByLayer
 62
  256
370
   -1
100
AcDbLine
 10
49.15875109999996
 20
-21.83695854526224
 11
61.96125189999998
 21
-19.57953224526224
  0
LINE
  5
1B4
100
AcDbEntity
  8
0
  6
ByLayer
 62
  256
370
   -1
100
AcDbLine
 10
46.32209689999996
 20
-8.628877945262239
 11
48.57952319999995
 21
-21.43137874526224
  0
LINE
  5
1B5
100
AcDbEntity
  8
0
  6
ByLayer
 62
  256
370
   -1
100
AcDbLine
 10
60.10940539999996
 20
-6.197803545262239
 11
62.36683169999998
 21
-19.00030434526224
  0
ARC
  5
1B6
100
AcDbEntity
  8
0
  6
ByLayer
 62
  256
370
   -1
100
AcDbCircle
 10
46.81450079999996
 20
-8.542053945262239
 40
0.5
100
AcDbArc
 50
100
 51
190
  0
ARC
  5
1B7
100
AcDbEntity
  8
0
  6
ByLayer
 62
  256
370
   -1
100
AcDbCircle
 10
59.61700149999996
 20
-6.28462764526224
 40
0.5
100
AcDbArc
 50
10
 51
100
  0
ARC
  5
1B8
100
AcDbEntity
  8
0
  6
ByLayer
 62
  256
370
   -1
100
AcDbCircle
 10
49.07192709999995
 20
-21.34455464526224
 40
0.5
100
AcDbArc
 50
190
 51
280
  0
ARC
  5
1B9
100
AcDbEntity
  8
0
  6
ByLayer
 62
  256
370
   -1
100
AcDbCircle
 10
61.87442779999998
 20
-19.08712834526224
 40
0.5
100
AcDbArc
 50
280
 51
10
  0
LINE
  5
1BA
100
AcDbEntity
  8
0
  6
ByLayer
 62
  256
370
   -1
100
AcDbLine
 10
84.24885199999997
 20
-1.433654445262242
 11
97.05135279999996
 21
0.8237718547377568
  0
LINE
  5
1BB
100
AcDbEntity
  8
0
  6
ByLayer
 62
  256
370
   -1
100
AcDbLine
 10
86.67992639999997
 20
-15.22096294526224
 11
99.48242719999996
 21
-12.96353664526224
  0
LINE
  5
1BC
100
AcDbEntity
  8
0
  6
ByLayer
 62
  256
370
   -1
100
AcDbLine
 10
83.84327219999997
 20
-2.012882345262241
 11
86.10069849999996
 21
-14.81538314526224
  0
LINE
  5
1BD
100
AcDbEntity
  8
0
  6
ByLayer
 62
  256
370
   -1
100
AcDbLine
 10
97.63058069999997
 20
0.4181920547377587
 11
99.88800699999996
 21
-12.38430874526224
  0
ARC
  5
1BE
100
AcDbEntity
  8
0
  6
ByLayer
 62
  256
370
   -1
100
AcDbCircle
 10
84.33567609999997
 20
-1.926058345262241
 40
0.5
100
AcDbArc
 50
100
 51
190
  0
ARC
  5
1BF
100
AcDbEntity
  8
0
  6
ByLayer
 62
  256
370
   -1
100
AcDbCircle
 10
97.13817679999997
 20
0.3313679547377575
 40
0.5
100
AcDbArc
 50
10
 51
100
  0
ARC
  5
1C0
100
AcDbEntity
  8
0
  6
ByLayer
 62
  256
370
   -1
100
AcDbCircle
 10
99.39560309999996
 20
-12.47113274526224
 40
0.5
100
AcDbArc
 50
280
 51
10
  0
LINE
  5
1C1
100
AcDbEntity
  8
0
  6
ByLayer
 62
  256
370
   -1
100
AcDbLine
 10
28.79408839999996
 20
-16.04779474526224
 11
41.59658919999995
 21
-13.79036844526224
  0
LINE
  5
1C2
100
AcDbEntity
  8
0
  6
ByLayer
 62
  256
370
   -1
100
AcDbLine
 10
31.22516279999996
 20
-29.83510324526225
 11
44.02766359999995
 21
-27.57767694526224
  0
LINE
  5
1C3
100
AcDbEntity
  8
0
  6
ByLayer
 62
  256
370
   -1
100
AcDbLine
 10
28.38850859999997
 20
-16.62702264526224
 11
30.64593489999996
 21
-29.42952344526223
  0
LINE
  5
1C4
100
AcDbEntity
  8
0
  6
ByLayer
 62
  256
370
   -1
100
AcDbLine
 10
42.17581709999996
 20
-14.19594824526224
 11
44.43324339999995
 21
-26.99844904526223
  0
ARC
  5
1C5
100
AcDbEntity
  8
0
  6
ByLayer
 62
  256
370
   -1
100
AcDbCircle
 10
28.88091249999997
 20
-16.54019864526224
 40
0.5
100
AcDbArc
 50
100
 51
190
  0
ARC
  5
1C6
100
AcDbEntity
  8
0
  6
ByLayer
 62
  256
370
   -1
100
AcDbCircle
 10
41.68341319999996
 20
-14.28277234526224
 40
0.5
100
AcDbArc
 50
10
 51
100
  0
ARC
  5
1C7
100
AcDbEntity
  8
0
  6
ByLayer
 62
  256
370
   -1
100
AcDbCircle
 10
31.13833879999996
 20
-29.34269934526223
 40
0.5
100
AcDbArc
 50
190
 51
280
  0
ARC
  5
1C8
100
AcDbEntity
  8
0
  6
ByLayer
 62
  256
370
   -1
100
AcDbCircle
 10
43.94083949999995
 20
-27.08527304526224
 40
0.5
100
AcDbArc
 50
280
 51
10
  0
LINE
  5
1C9
100
AcDbEntity
  8
0
  6
ByLayer
 62
  256
370
   -1
100
AcDbLine
 10
104.6634385999999
 20
-7.505950445262236
 11
117.4659394
 21
-5.248524145262238
  0
LINE
  5
1CA
100
AcDbEntity
  8
0
  6
ByLayer
 62
  256
370
   -1
100
AcDbLine
 10
107.0945129999999
 20
-21.29325894526224
 11
119.8970138
 21
-19.03583264526224
  0
LINE
  5
1CB
100
AcDbEntity
  8
0
  6
ByLayer
 62
  256
370
   -1
100
AcDbLine
 10
104.2578588
 20
-8.085178345262243
 11
106.5152851
 21
-20.88767914526224
  0
LINE
  5
1CC
100
AcDbEntity
  8
0
  6
ByLayer
 62
  256
370
   -1
100
AcDbLine
 10
118.0451672999999
 20
-5.654103945262243
 11
120.3025936
 21
-18.45660474526224
  0
ARC
  5
1CD
100
AcDbEntity
  8
0
  6
ByLayer
 62
  256
370
   -1
100
AcDbCircle
 10
104.7502627
 20
-7.998354345262243
 40
0.5
100
AcDbArc
 50
100
 51
190
  0
ARC
  5
1CE
100
AcDbEntity
  8
0
  6
ByLayer
 62
  256
370
   -1
100
AcDbCircle
 10
117.5527633999999
 20
-5.740928045262237
 40
0.5
100
AcDbArc
 50
10
 51
100
  0
ARC
  5
1CF
100
AcDbEntity
  8
0
  6
ByLayer
 62
  256
370
   -1
100
AcDbCircle
 10
107.007689
 20
-20.80085504526224
 40
0.5
100
AcDbArc
 50
190
 51
280
  0
ARC
  5
1D0
100
AcDbEntity
  8
0
  6
ByLayer
 62
  256
370
   -1
100
AcDbCircle
 10
119.8101897
 20
-18.54342874526224
 40
0.5
100
AcDbArc
 50
280
 51
10
  0
LINE
  5
1D1
100
AcDbEntity
  8
0
  6
ByLayer
 62
  256
370
   -1
100
AcDbLine
 10
123.4240263
 20
-4.197952745262242
 11
136.2265270999999
 21
-1.940526445262236
  0
LINE
  5
1D2
100
AcDbEntity
  8
0
  6
ByLayer
 62
  256
370
   -1
100
AcDbLine
 10
125.8551007
 20
-17.98526124526224
 11
138.6576014999999
 21
-15.72783494526224
  0
LINE
  5
1D3
100
AcDbEntity
  8
0
  6
ByLayer
 62
  256
370
   -1
100
AcDbLine
 10
123.0184465
 20
-4.777180645262241
 11
125.2758727999999
 21
-17.57968144526224
  0
LINE
  5
1D4
100
AcDbEntity
  8
0
  6
ByLayer
 62
  256
370
   -1
100
AcDbLine
 10
136.805755
 20
-2.346106245262241
 11
139.0631812999999
 21
-15.14860704526224
  0
ARC
  5
1D5
100
AcDbEntity
  8
0
  6
ByLayer
 62
  256
370
   -1
100
AcDbCircle
 10
123.5108504
 20
-4.690356645262241
 40
0.5
100
AcDbArc
 50
100
 51
190
  0
ARC
  5
1D6
100
AcDbEntity
  8
0
  6
ByLayer
 62
  256
370
   -1
100
AcDbCircle
 10
136.3133511
 20
-2.432930345262243
 40
0.5
100
AcDbArc
 50
10
 51
100
  0
ARC
  5
1D7
100
AcDbEntity
  8
0
  6
ByLayer
 62
  256
370
   -1
100
AcDbCircle
 10
125.7682766999999
 20
-17.49285734526224
 40
0.5
100
AcDbArc
 50
190
 51
280
  0
ARC
  5
1D8
100
AcDbEntity
  8
0
  6
ByLayer
 62
  256
370
   -1
100
AcDbCircle
 10
138.5707773999999
 20
-15.23543104526224
 40
0.5
100
AcDbArc
 50
280
 51
10
  0
LINE
  5
1D9
100
AcDbEntity
  8
0
  6
ByLayer
 62
  256
370
   -1
100
AcDbLine
 10
87.55684979999995
 20
-20.19424214526224
 11
100.3593506
 21
-17.93681584526224
  0
LINE
  5
1DA
100
AcDbEntity
  8
0
  6
ByLayer
 62
  256
370
   -1
100
AcDbLine
 10
89.98792419999995
 20
-33.98155064526225
 11
102.790425
 21
-31.72412434526224
  0
LINE
  5
1DB
100
AcDbEntity
  8
0
  6
ByLayer
 62
  256
370
   -1
100
AcDbLine
 10
87.15126999999995
 20
-20.77347004526224
 11
89.40869629999997
 21
-33.57597084526223
  0
LINE
  5
1DC
100
AcDbEntity
  8
0
  6
ByLayer
 62
  256
370
   -1
100
AcDbLine
 10
100.9385785
 20
-18.34239564526224
 11
103.1960048
 21
-31.14489644526223
  0
ARC
  5
1DD
100
AcDbEntity
  8
0
  6
ByLayer
 62
  256
370
   -1
100
AcDbCircle
 10
87.64367389999995
 20
-20.68664604526224
 40
0.5
100
AcDbArc
 50
100
 51
190
  0
ARC
  5
1DE
100
AcDbEntity
  8
0
  6
ByLayer
 62
  256
370
   -1
100
AcDbCircle
 10
100.4461746
 20
-18.42921974526224
 40
0.5
100
AcDbArc
 50
10
 51
100
  0
ARC
  5
1DF
100
AcDbEntity
  8
0
  6
ByLayer
 62
  256
370
   -1
100
AcDbCircle
 10
89.90110019999997
 20
-33.48914674526225
 40
0.5
100
AcDbArc
 50
190
 51
280
  0
ARC
  5
1E0
100
AcDbEntity
  8
0
  6
ByLayer
 62
  256
370
   -1
100
AcDbCircle
 10
102.7036009
 20
-31.23172044526224
 40
0.5
100
AcDbArc
 50
280
 51
10
  0
LINE
  5
1E1
100
AcDbEntity
  8
0
  6
ByLayer
 62
  256
370
   -1
100
AcDbLine
 10
107.9714364
 20
-26.26653814526225
 11
120.7739372
 21
-24.00911184526224
  0
LINE
  5
1E2
100
AcDbEntity
  8
0
  6
ByLayer
 62
  256
370
   -1
100
AcDbLine
 10
110.4025108
 20
-40.05384664526224
 11
123.2050116
 21
-37.79642034526223
  0
LINE
  5
1E3
100
AcDbEntity
  8
0
  6
ByLayer
 62
  256
370
   -1
100
AcDbLine
 10
107.5658566
 20
-26.84576604526224
 11
109.8232829
 21
-39.64826684526224
  0
LINE
  5
1E4
100
AcDbEntity
  8
0
  6
ByLayer
 62
  256
370
   -1
100
AcDbLine
 10
121.3531651
 20
-24.41469164526224
 11
123.6105914
 21
-37.21719244526224
  0
ARC
  5
1E5
100
AcDbEntity
  8
0
  6
ByLayer
 62
  256
370
   -1
100
AcDbCircle
 10
108.0582605
 20
-26.75894204526224
 40
0.5
100
AcDbArc
 50
100
 51
190
  0
ARC
  5
1E6
100
AcDbEntity
  8
0
  6
ByLayer
 62
  256
370
   -1
100
AcDbCircle
 10
120.8607612
 20
-24.50151574526224
 40
0.5
100
AcDbArc
 50
10
 51
100
  0
ARC
  5
1E7
100
AcDbEntity
  8
0
  6
ByLayer
 62
  256
370
   -1
100
AcDbCircle
 10
110.3156868
 20
-39.56144274526224
 40
0.5
100
AcDbArc
 50
190
 51
280
  0
ARC
  5
1E8
100
AcDbEntity
  8
0
  6
ByLayer
 62
  256
370
   -1
100
AcDbCircle
 10
123.1181875
 20
-37.30401644526223
 40
0.5
100
AcDbArc
 50
280
 51
10
  0
LINE
  5
1E9
100
AcDbEntity
  8
0
  6
ByLayer
 62
  256
370
   -1
100
AcDbLine
 10
126.7320241
 20
-22.95854044526224
 11
139.5345249
 21
-20.70111414526224
  0
LINE
  5
1EA
100
AcDbEntity
  8
0
  6
ByLayer
 62
  256
370
   -1
100
AcDbLine
 10
129.1630985
 20
-36.74584894526224
 11
141.9655993
 21
-34.48842264526223
  0
LINE
  5
1EB
100
AcDbEntity
  8
0
  6
ByLayer
 62
  256
370
   -1
100
AcDbLine
 10
126.3264443
 20
-23.53776834526224
 11
128.5838706
 21
-36.34026914526224
  0
LINE
  5
1EC
100
AcDbEntity
  8
0
  6
ByLayer
 62
  256
370
   -1
100
AcDbLine
 10
140.1137528
 20
-21.10669394526224
 11
142.3711790999999
 21
-33.90919474526224
  0
ARC
  5
1ED
100
AcDbEntity
  8
0
  6
ByLayer
 62
  256
370
   -1
100
AcDbCircle
 10
126.8188482
 20
-23.45094434526224
 40
0.5
100
AcDbArc
 50
100
 51
190
  0
ARC
  5
1EE
100
AcDbEntity
  8
0
  6
ByLayer
 62
  256
370
   -1
100
AcDbCircle
 10
139.6213489
 20
-21.19351804526224
 40
0.5
100
AcDbArc
 50
10
 51
100
  0
ARC
  5
1EF
100
AcDbEntity
  8
0
  6
ByLayer
 62
  256
370
   -1
100
AcDbCircle
 10
129.0762745
 20
-36.25344504526224
 40
0.5
100
AcDbArc
 50
190
 51
280
  0
ARC
  5
1F0
100
AcDbEntity
  8
0
  6
ByLayer
 62
  256
370
   -1
100
AcDbCircle
 10
141.8787752
 20
-33.99601874526223
 40
0.5
100
AcDbArc
 50
280
 51
10
  0
LINE
  5
1F1
100
AcDbEntity
  8
noname
  6
ByLayer
 62
  256
370
   -1
100
AcDbLine
 10
-8.526512829121202e-14
 20
-69.67505412315725
 11
-5.684341886080801e-14
 21
-46.54826324526225
  0
ARC
  5
1F2
100
AcDbEntity
  8
edge
  6
ByLayer
 62
  256
370
   -1
100
AcDbCircle
 10
130.2114655050676
 20
35.05196828218985
 40
10
100
AcDbArc
 50
9.999999949730457
 51
85.96375665818242
  0
LINE
  5
1F3
100
AcDbEntity
  8
edge
  6
ByLayer
 62
  256
370
   -1
100
AcDbLine
 10
140.0595430367132
 20
36.78845005021874
 11
152.3060807138701
 21
-32.66511678783702
  0
ARC
  5
1F4
100
AcDbEntity
  8
edge
  6
ByLayer
 62
  256
370
   -1
100
AcDbCircle
 10
142.4580031822246
 20
-34.40159855586592
 40
10
100
AcDbArc
 50
279.9999999497305
 51
9.999999949730432
  0
LINE
  5
1F5
100
AcDbEntity
  8
edge
  6
ByLayer
 62
  256
370
   -1
100
AcDbLine
 10
74.93023749308011
 20
48.97761429153911
 11
130.9153403500117
 21
45.02716553350548
  0
ARC
  5
1F6
100
AcDbEntity
  8
edge
  6
ByLayer
 62
  256
370
   -1
100
AcDbCircle
 10
71.41086326835978
 20
-0.898371965039054
 40
50
100
AcDbArc
 50
85.96375665818259
 51
114.0362434443802
  0
ARC
  5
1F7
100
AcDbEntity
  8
edge
  6
ByLayer
 62
  256
370
   -1
100
AcDbCircle
 10
-130.2114655050676
 20
35.05196828219005
 40
10
100
AcDbArc
 50
94.0362433418175
 51
170.0000000502695
  0
LINE
  5
1F8
100
AcDbEntity
  8
edge
  6
ByLayer
 62
  256
370
   -1
100
AcDbLine
 10
-140.0595430367131
 20
36.78845005021897
 11
-152.3060807138702
 21
-32.66511678783677
  0
ARC
  5
1F9
100
AcDbEntity
  8
edge
  6
ByLayer
 62
  256
370
   -1
100
AcDbCircle
 10
-142.4580031822246
 20
-34.40159855586569
 40
10
100
AcDbArc
 50
170.0000000502695
 51
260.0000000502694
  0
LINE
  5
1FA
100
AcDbEntity
  8
edge
  6
ByLayer
 62
  256
370
   -1
100
AcDbLine
 10
-74.93023749308006
 20
48.97761429153923
 11
-130.9153403500117
 21
45.02716553350568
  0
ARC
  5
1FB
100
AcDbEntity
  8
edge
  6
ByLayer
 62
  256
370
   -1
100
AcDbCircle
 10
-71.41086326835978
 20
-0.8983719650389403
 40
50
100
AcDbArc
 50
65.96375655561971
 51
94.0362433418173
  0
LINE
  5
1FC
100
AcDbEntity
  8
edge
  6
ByLayer
 62
  256
370
   -1
100
AcDbLine
 10
20.36572203847977
 20
31.08340955046511
 11
51.04514122988007
 21
44.76602736147549
  0
LINE
  5
1FD
100
AcDbEntity
  8
edge
  6
ByLayer
 62
  256
370
   -1
100
AcDbLine
 10
-20.36572203847971
 20
31.08340955046513
 11
-51.04514122988002
 21
44.76602736147557
  0
ARC
  5
1FE
100
AcDbEntity
  8
edge
  6
ByLayer
 62
  256
370
   -1
100
AcDbCircle
 10
5.684341886080801e-14
 20
76.74780887697965
 40
50
100
AcDbArc
 50
245.9637565556197
 51
294.0362434443802
  0
ARC
  5
1FF
100
AcDbEntity
  8
promicro
  6
ByLayer
 62
  256
370
   -1
100
AcDbCircle
 10
9.000000000000005
 20
4.451736754737766
 40
1
100
AcDbArc
 50
359.9999999999992
 51
89.9999999999999
  0
ARC
  5
200
100
AcDbEntity
  8
promicro
  6
ByLayer
 62
  256
370
   -1
100
AcDbCircle
 10
8.999999999999963
 20
-28.54826324526223
 40
1
100
AcDbArc
 50
270
 51
0
  0
LINE
  5
201
100
AcDbEntity
  8
promicro
  6
ByLayer
 62
  256
370
   -1
100
AcDbLine
 10
8.999999999999963
 20
-29.54826324526223
 11
-9.000000000000037
 21
-29.54826324526223
  0
ARC
  5
202
100
AcDbEntity
  8
promicro
  6
ByLayer
 62
  256
370
   -1
100
AcDbCircle
 10
-9.000000000000036
 20
-28.54826324526223
 40
1
100
AcDbArc
 50
180
 51
269.9999999999999
  0
LINE
  5
203
100
AcDbEntity
  8
promicro
  6
ByLayer
 62
  256
370
   -1
100
AcDbLine
 10
-10.00000000000003
 20
-28.54826324526223
 11
-9.999999999999995
 21
4.45173675473777
  0
LINE
  5
204
100
AcDbEntity
  8
promicro
  6
ByLayer
 62
  256
370
   -1
100
AcDbLine
 10
-8.999999999999995
 20
5.451736754737766
 11
9.000000000000007
 21
5.451736754737766
  0
ARC
  5
205
100
AcDbEntity
  8
promicro
  6
ByLayer
 62
  256
370
   -1
100
AcDbCircle
 10
-8.999999999999995
 20
4.451736754737766
 40
1
100
AcDbArc
 50
90
 51
179.9999999999998
  0
CIRCLE
  5
206
100
AcDbEntity
  8
edge
  6
ByLayer
 62
  256
370
   -1
100
AcDbCircle
 10
145.9333709721269
 20
-36.83507728495092
 40
1.5
  0
LINE
  5
207
100
AcDbEntity
  8
promicro
  6
ByLayer
 62
  256
370
   -1
100
AcDbLine
 10
10.00000000000001
 20
4.451736754737752
 11
9.999999999999963
 21
-28.54826324526223
  0
CIRCLE
  5
208
100
AcDbEntity
  8
edge
  6
ByLayer
 62
  256
370
   -1
100
AcDbCircle
 10
10.00000000000003
 20
20.63185749058684
 40
1.5
  0
CIRCLE
  5
209
100
AcDbEntity
  8
edge
  6
ByLayer
 62
  256
370
   -1
100
AcDbCircle
 10
51.89967198674616
 20
37.48252272684397
 40
1.5
  0
CIRCLE
  5
20A
100
AcDbEntity
  8
edge
  6
ByLayer
 62
  256
370
   -1
100
AcDbCircle
 10
21.43124999999998
 20
-32.54826324526223
 40
1.5
  0
CIRCLE
  5
20B
100
AcDbEntity
  8
edge
  6
ByLayer
 62
  256
370
   -1
100
AcDbCircle
 10
86.20478077183657
 20
-47.36683920290821
 40
1.5
  0
CIRCLE
  5
20C
100
AcDbEntity
  8
edge
  6
ByLayer
 62
  256
370
   -1
100
AcDbCircle
 10
-145.9333709721269
 20
-36.83507728495093
 40
1.5
  0
CIRCLE
  5
20D
100
AcDbEntity
  8
edge
  6
ByLayer
 62
  256
370
   -1
100
AcDbCircle
 10
-10.00000000000003
 20
20.63185749058684
 40
1.5
  0
CIRCLE
  5
20E
100
AcDbEntity
  8
edge
  6
ByLayer
 62
  256
370
   -1
100
AcDbCircle
 10
-51.89967198674616
 20
37.48252272684397
 40
1.5
  0
CIRCLE
  5
20F
100
AcDbEntity
  8
edge
  6
ByLayer
 62
  256
370
   -1
100
AcDbCircle
 10
-21.43124999999998
 20
-32.54826324526223
 40
1.5
  0
CIRCLE
  5
210
100
AcDbEntity
  8
edge
  6
ByLayer
 62
  256
370
   -1
100
AcDbCircle
 10
-86.20478077183657
 20
-47.36683920290821
 40
1.5
  0
LINE
  5
211
100
AcDbEntity
  8
edge
  6
ByLayer
 62
  256
370
   -1
100
AcDbLine
 10
17.36481768028945
 20
-66.61316826674781
 11
144.1944849502535
 21
-44.24967608751152
  0
LINE
  5
212
100
AcDbEntity
  8
edge
  6
ByLayer
 62
  256
370
   -1
100
AcDbLine
 10
-17.36481768028949
 20
-66.61316826674779
 11
-144.1944849502535
 21
-44.24967608751129
  0
ARC
  5
213
100
AcDbEntity
  8
edge
  6
ByLayer
 62
  256
370
   -1
100
AcDbCircle
 10
5.684341886080801e-14
 20
31.86760704970829
 40
100
100
AcDbArc
 50
260.0000000502693
 51
279.9999999497306
  0
CIRCLE
  5
214
100
AcDbEntity
  8
edge
  6
ByLayer
 62
  256
370
   -1
100
AcDbCircle
 10
-8.881784197001252e-14
 20
-61.1323929502917
 40
1.5
  0
CIRCLE
  5
215
100
AcDbEntity
  8
edge
  6
ByLayer
 62
  256
370
   -1
100
AcDbCircle
 10
102.8893624671809
 20
39.9873434731762
 40
1.5
  0
CIRCLE
  5
216
100
AcDbEntity
  8
edge
  6
ByLayer
 62
  256
370
   -1
100
AcDbCircle
 10
132.7591475648821
 20
37.87965679546323
 40
1.5
  0
CIRCLE
  5
217
100
AcDbEntity
  8
edge
  6
ByLayer
 62
  256
370
   -1
100
AcDbCircle
 10
-102.8893624671809
 20
39.9873434731762
 40
1.5
  0
CIRCLE
  5
218
100
AcDbEntity
  8
edge
  6
ByLayer
 62
  256
370
   -1
100
AcDbCircle
 10
-132.7591475648821
 20
37.87965679546327
 40
1.5
  0
CIRCLE
  5
219
100
AcDbEntity
  8
edge
  6
ByLayer
 62
  256
370
   -1
100
AcDbCircle
 10
75.13613672645789
 20
-22.02544738222556
 40
1.5
  0
CIRCLE
  5
21A
100
AcDbEntity
  8
edge
  6
ByLayer
 62
  256
370
   -1
100
AcDbCircle
 10
-75.13613672645789
 20
-22.02544738222554
 40
1.5
  0
LINE
  5
21B
100
AcDbEntity
  8
placement
  6
ByLayer
 62
  256
370
   -1
100
AcDbLine
 10
-129.6973556
 20
35.08824505473776
 11
-119.1522812
 21
20.02831805473776
  0
LINE
  5
21C
100
AcDbEntity
  8
placement
  6
ByLayer
 62
  256
370
   -1
100
AcDbLine
 10
-110.9367679
 20
31.78024725473776
 11
-100.3916935
 21
16.72032025473776
  0
LINE
  5
21D
100
AcDbEntity
  8
placement
  6
ByLayer
 62
  256
370
   -1
100
AcDbLine
 10
-90.52218130000003
 20
37.85254335473776
 11
-79.97710690000002
 21
22.79261635473776
  0
LINE
  5
21E
100
AcDbEntity
  8
placement
  6
ByLayer
 62
  256
370
   -1
100
AcDbLine
 10
-70.93459410000004
 20
39.23469245473776
 11
-60.38951970000004
 21
24.17476545473776
  0
LINE
  5
21F
100
AcDbEntity
  8
placement
  6
ByLayer
 62
  256
370
   -1
100
AcDbLine
 10
-53.00100590000004
 20
31.23654775473776
 11
-42.45593150000003
 21
16.17662075473776
  0
LINE
  5
220
100
AcDbEntity
  8
placement
  6
ByLayer
 62
  256
370
   -1
100
AcDbLine
 10
-35.06741760000003
 20
23.23840305473776
 11
-24.52234320000002
 21
8.178476054737757
  0
LINE
  5
221
100
AcDbEntity
  8
placement
  6
ByLayer
 62
  256
370
   -1
100
AcDbLine
 10
-38.37541540000004
 20
4.477815354737757
 11
-27.83034100000003
 21
-10.58211164526224
  0
LINE
  5
222
100
AcDbEntity
  8
placement
  6
ByLayer
 62
  256
370
   -1
100
AcDbLine
 10
-56.30900370000003
 20
12.47596005473776
 11
-45.76392930000002
 21
-2.583966945262242
  0
LINE
  5
223
100
AcDbEntity
  8
placement
  6
ByLayer
 62
  256
370
   -1
100
AcDbLine
 10
-74.24259190000004
 20
20.47410485473776
 11
-63.69751750000003
 21
5.414177854737758
  0
LINE
  5
224
100
AcDbEntity
  8
placement
  6
ByLayer
 62
  256
370
   -1
100
AcDbLine
 10
-93.83017910000004
 20
19.09195565473776
 11
-83.28510470000003
 21
4.032028654737758
  0
LINE
  5
225
100
AcDbEntity
  8
placement
  6
ByLayer
 62
  256
370
   -1
100
AcDbLine
 10
-114.2447656
 20
13.01965955473776
 11
-103.6996912
 21
-2.040267445262241
  0
LINE
  5
226
100
AcDbEntity
  8
placement
  6
ByLayer
 62
  256
370
   -1
100
AcDbLine
 10
-133.0053533
 20
16.32765735473776
 11
-122.4602789
 21
1.267730354737758
  0
LINE
  5
227
100
AcDbEntity
  8
placement
  6
ByLayer
 62
  256
370
   -1
100
AcDbLine
 10
-136.3133511
 20
-2.432930345262243
 11
-125.7682767
 21
-17.49285734526224
  0
LINE
  5
228
100
AcDbEntity
  8
placement
  6
ByLayer
 62
  256
370
   -1
100
AcDbLine
 10
-117.5527634
 20
-5.740928045262237
 11
-107.007689
 21
-20.80085504526224
  0
LINE
  5
229
100
AcDbEntity
  8
placement
  6
ByLayer
 62
  256
370
   -1
100
AcDbLine
 10
-120.8607612
 20
-24.50151574526224
 11
-110.3156868
 21
-39.56144274526224
  0
LINE
  5
22A
100
AcDbEntity
  8
placement
  6
ByLayer
 62
  256
370
   -1
100
AcDbLine
 10
-139.6213489
 20
-21.19351804526224
 11
-129.0762745
 21
-36.25344504526224
  0
LINE
  5
22B
100
AcDbEntity
  8
placement
  6
ByLayer
 62
  256
370
   -1
100
AcDbLine
 10
-100.4461746
 20
-18.42921974526224
 11
-89.9011002
 21
-33.48914674526225
  0
LINE
  5
22C
100
AcDbEntity
  8
placement
  6
ByLayer
 62
  256
370
   -1
100
AcDbLine
 10
-97.13817680000002
 20
0.3313679547377575
 11
-86.59310240000002
 21
-14.72855904526224
  0
LINE
  5
22D
100
AcDbEntity
  8
placement
  6
ByLayer
 62
  256
370
   -1
100
AcDbLine
 10
-77.55058970000003
 20
1.713517154737758
 11
-67.00551530000003
 21
-13.34640984526224
  0
LINE
  5
22E
100
AcDbEntity
  8
placement
  6
ByLayer
 62
  256
370
   -1
100
AcDbLine
 10
-59.61700150000003
 20
-6.28462764526224
 11
-49.07192710000002
 21
-21.34455464526224
  0
LINE
  5
22F
100
AcDbEntity
  8
placement
  6
ByLayer
 62
  256
370
   -1
100
AcDbLine
 10
-41.68341320000003
 20
-14.28277234526224
 11
-31.13833880000003
 21
-29.34269934526224
  0
LINE
  5
230
100
AcDbEntity
  8
placement
  6
ByLayer
 62
  256
370
   -1
100
AcDbLine
 10
-77.93750000000003
 20
-30.52326324526224
 11
-64.93750000000003
 21
-43.52326324526224
  0
LINE
  5
231
100
AcDbEntity
  8
placement
  6
ByLayer
 62
  256
370
   -1
100
AcDbLine
 10
-58.88750000000003
 20
-35.28576324526225
 11
-45.88750000000003
 21
-48.28576324526225
  0
LINE
  5
232
100
AcDbEntity
  8
placement
  6
ByLayer
 62
  256
370
   -1
100
AcDbLine
 10
-27.93125000000003
 20
-40.04826324526223
 11
-14.93125000000003
 21
-53.04826324526223
  0
LINE
  5
233
100
AcDbEntity
  8
placement
  6
ByLayer
 62
  256
370
   -1
100
AcDbLine
 10
14.93124999999998
 20
-40.04826324526223
 11
27.93124999999998
 21
-53.04826324526223
  0
LINE
  5
234
100
AcDbEntity
  8
placement
  6
ByLayer
 62
  256
370
   -1
100
AcDbLine
 10
45.88749999999996
 20
-35.28576324526225
 11
58.88749999999996
 21
-48.28576324526225
  0
LINE
  5
235
100
AcDbEntity
  8
placement
  6
ByLayer
 62
  256
370
   -1
100
AcDbLine
 10
64.93749999999997
 20
-30.52326324526224
 11
77.93749999999997
 21
-43.52326324526224
  0
LINE
  5
236
100
AcDbEntity
  8
placement
  6
ByLayer
 62
  256
370
   -1
100
AcDbLine
 10
22.26491689999997
 20
20.98097675473776
 11
37.32484389999996
 21
10.43590235473776
  0
LINE
  5
237
100
AcDbEntity
  8
placement
  6
ByLayer
 62
  256
370
   -1
100
AcDbLine
 10
25.57291469999996
 20
2.220389054737758
 11
40.63284169999995
 21
-8.324685345262242
  0
LINE
  5
238
100
AcDbEntity
  8
placement
  6
ByLayer
 62
  256
370
   -1
100
AcDbLine
 10
28.88091249999997
 20
-16.54019864526224
 11
43.94083949999996
 21
-27.08527304526224
  0
LINE
  5
239
100
AcDbEntity
  8
placement
  6
ByLayer
 62
  256
370
   -1
100
AcDbLine
 10
40.19850519999997
 20
28.97912145473776
 11
55.25843219999996
 21
18.43404705473776
  0
LINE
  5
23A
100
AcDbEntity
  8
placement
  6
ByLayer
 62
  256
370
   -1
100
AcDbLine
 10
43.50650299999996
 20
10.21853375473776
 11
58.56642999999995
 21
-0.3265406452622415
  0
LINE
  5
23B
100
AcDbEntity
  8
placement
  6
ByLayer
 62
  256
370
   -1
100
AcDbLine
 10
46.81450079999997
 20
-8.542053945262243
 11
61.87442779999996
 21
-19.08712834526224
  0
LINE
  5
23C
100
AcDbEntity
  8
placement
  6
ByLayer
 62
  256
370
   -1
100
AcDbLine
 10
58.13209339999997
 20
36.97726615473776
 11
73.19202039999996
 21
26.43219175473776
  0
LINE
  5
23D
100
AcDbEntity
  8
placement
  6
ByLayer
 62
  256
370
   -1
100
AcDbLine
 10
61.44009119999996
 20
18.21667845473776
 11
76.50001819999994
 21
7.67160405473776
  0
LINE
  5
23E
100
AcDbEntity
  8
placement
  6
ByLayer
 62
  256
370
   -1
100
AcDbLine
 10
64.74808899999996
 20
-0.5439092452622418
 11
79.80801599999995
 21
-11.08898364526224
  0
LINE
  5
23F
100
AcDbEntity
  8
placement
  6
ByLayer
 62
  256
370
   -1
100
AcDbLine
 10
77.71968059999998
 20
35.59511705473776
 11
92.77960759999996
 21
25.05004265473776
  0
LINE
  5
240
100
AcDbEntity
  8
placement
  6
ByLayer
 62
  256
370
   -1
100
AcDbLine
 10
81.02767839999996
 20
16.83452935473776
 11
96.08760539999996
 21
6.28945495473776
  0
LINE
  5
241
100
AcDbEntity
  8
placement
  6
ByLayer
 62
  256
370
   -1
100
AcDbLine
 10
84.33567619999997
 20
-1.926058345262241
 11
99.39560319999997
 21
-12.47113274526224
  0
LINE
  5
242
100
AcDbEntity
  8
placement
  6
ByLayer
 62
  256
370
   -1
100
AcDbLine
 10
98.13426719999995
 20
29.52282095473776
 11
113.1941941999999
 21
18.97774655473776
  0
LINE
  5
243
100
AcDbEntity
  8
placement
  6
ByLayer
 62
  256
370
   -1
100
AcDbLine
 10
101.4422649999999
 20
10.76223325473776
 11
116.5021919999999
 21
0.2171588547377574
  0
LINE
  5
244
100
AcDbEntity
  8
placement
  6
ByLayer
 62
  256
370
   -1
100
AcDbLine
 10
104.7502627999999
 20
-7.998354445262244
 11
119.8101897999999
 21
-18.54342884526224
  0
ARC
  5
245
100
AcDbEntity
  8
0
  6
ByLayer
 62
  256
370
   -1
100
AcDbCircle
 10
86.59310239999996
 20
-14.72855904526224
 40
0.5
100
AcDbArc
 50
190
 51
280
  0
LINE
  5
246
100
AcDbEntity
  8
placement
  6
ByLayer
 62
  256
370
   -1
100
AcDbLine
 10
116.8948548
 20
32.83081875473776
 11
131.9547818
 21
22.28574435473776
  0
LINE
  5
247
100
AcDbEntity
  8
placement
  6
ByLayer
 62
  256
370
   -1
100
AcDbLine
 10
120.2028526
 20
14.07023105473776
 11
135.2627796
 21
3.52515665473776
  0
LINE
  5
248
100
AcDbEntity
  8
placement
  6
ByLayer
 62
  256
370
   -1
100
AcDbLine
 10
123.5108504
 20
-4.690356645262241
 11
138.5707774
 21
-15.23543104526224
  0
LINE
  5
249
100
AcDbEntity
  8
placement
  6
ByLayer
 62
  256
370
   -1
100
AcDbLine
 10
87.64367389999995
 20
-20.68664604526224
 11
102.7036009
 21
-31.23172044526224
  0
LINE
  5
24A
100
AcDbEntity
  8
placement
  6
ByLayer
 62
  256
370
   -1
100
AcDbLine
 10
108.0582605
 20
-26.75894204526224
 11
123.1181875
 21
-37.30401644526223
  0
LINE
  5
24B
100
AcDbEntity
  8
placement
  6
ByLayer
 62
  256
370
   -1
100
AcDbLine
 10
126.8188482
 20
-23.45094434526224
 11
141.8787752
 21
-33.99601874526223
  0
LINE
  5
24C
100
AcDbEntity
  8
placement
  6
ByLayer
 62
  256
370
   -1
100
AcDbLine
 10
-8.999999999999995
 20
4.451736754737766
 11
8.999999999999963
 21
-28.54826324526223
  0
LINE
  5
24D
100
AcDbEntity
  8
diode
  6
ByLayer
 62
  256
370
   -1
100
AcDbLine
 10
-132.3889023536058
 20
19.82372494840864
 11
-119.5864015536058
 21
17.56629864840864
  0
LINE
  5
24E
100
AcDbEntity
  8
diode
  6
ByLayer
 62
  256
370
   -1
100
AcDbLine
 10
-113.6283146536058
 20
16.51572714840864
 11
-100.8258138536058
 21
14.25830084840864
  0
LINE
  5
24F
100
AcDbEntity
  8
diode
  6
ByLayer
 62
  256
370
   -1
100
AcDbLine
 10
-135.6969000536058
 20
1.063137248408635
 11
-122.8943992536058
 21
-1.194289051591364
  0
LINE
  5
250
100
AcDbEntity
  8
diode
  6
ByLayer
 62
  256
370
   -1
100
AcDbLine
 10
-116.9363123536058
 20
-2.24486055159136
 11
-104.1338115536058
 21
-4.502286851591359
  0
LINE
  5
251
100
AcDbEntity
  8
diode
  6
ByLayer
 62
  256
370
   -1
100
AcDbLine
 10
-93.21372805360582
 20
22.58802324840864
 11
-80.41122725360582
 21
20.33059694840864
  0
LINE
  5
252
100
AcDbEntity
  8
diode
  6
ByLayer
 62
  256
370
   -1
100
AcDbLine
 10
-96.52172585360582
 20
3.827435548408635
 11
-83.71922505360583
 21
1.570009248408636
  0
LINE
  5
253
100
AcDbEntity
  8
diode
  6
ByLayer
 62
  256
370
   -1
100
AcDbLine
 10
-73.62614085360582
 20
23.97017234840864
 11
-60.82364005360581
 21
21.71274604840864
  0
LINE
  5
254
100
AcDbEntity
  8
diode
  6
ByLayer
 62
  256
370
   -1
100
AcDbLine
 10
-55.69255265360582
 20
15.97202764840864
 11
-42.89005185360583
 21
13.71460134840864
  0
LINE
  5
255
100
AcDbEntity
  8
diode
  6
ByLayer
 62
  256
370
   -1
100
AcDbLine
 10
-37.75896435360581
 20
7.973882948408638
 11
-24.95646355360582
 21
5.716456648408641
  0
LINE
  5
256
100
AcDbEntity
  8
diode
  6
ByLayer
 62
  256
370
   -1
100
AcDbLine
 10
-41.06696215360581
 20
-10.78670475159136
 11
-28.26446135360583
 21
-13.04413105159136
  0
LINE
  5
257
100
AcDbEntity
  8
diode
  6
ByLayer
 62
  256
370
   -1
100
AcDbLine
 10
-59.00055045360583
 20
-2.788560051591363
 11
-46.19804965360582
 21
-5.045986351591361
  0
LINE
  5
258
100
AcDbEntity
  8
diode
  6
ByLayer
 62
  256
370
   -1
100
AcDbLine
 10
-76.93413865360581
 20
5.209584748408639
 11
-64.13163785360582
 21
2.952158448408637
  0
LINE
  5
259
100
AcDbEntity
  8
diode
  6
ByLayer
 62
  256
370
   -1
100
AcDbLine
 10
-80.24213645360582
 20
-13.55100295159136
 11
-67.43963565360582
 21
-15.80842925159136
  0
LINE
  5
25A
100
AcDbEntity
  8
diode
  6
ByLayer
 62
  256
370
   -1
100
AcDbLine
 10
-99.82972355360582
 20
-14.93315215159136
 11
-87.02722275360581
 21
-17.19057845159136
  0
LINE
  5
25B
100
AcDbEntity
  8
diode
  6
ByLayer
 62
  256
370
   -1
100
AcDbLine
 10
-120.2443101536058
 20
-21.00544815159136
 11
-107.4418093536058
 21
-23.26287445159137
  0
LINE
  5
25C
100
AcDbEntity
  8
diode
  6
ByLayer
 62
  256
370
   -1
100
AcDbLine
 10
-139.0048978536058
 20
-17.69745045159136
 11
-126.2023970536058
 21
-19.95487675159136
  0
LINE
  5
25D
100
AcDbEntity
  8
diode
  6
ByLayer
 62
  256
370
   -1
100
AcDbLine
 10
-142.3128956536058
 20
-36.45803815159135
 11
-129.5103948536058
 21
-38.71546445159136
  0
LINE
  5
25E
100
AcDbEntity
  8
diode
  6
ByLayer
 62
  256
370
   -1
100
AcDbLine
 10
-123.5523079536058
 20
-39.76603585159135
 11
-110.7498071536058
 21
-42.02346215159136
  0
LINE
  5
25F
100
AcDbEntity
  8
diode
  6
ByLayer
 62
  256
370
   -1
100
AcDbLine
 10
-103.1377213536058
 20
-33.69373985159136
 11
-90.33522055360582
 21
-35.95116615159137
  0
LINE
  5
260
100
AcDbEntity
  8
diode
  6
ByLayer
 62
  256
370
   -1
100
AcDbLine
 10
-77.93750000000003
 20
-46.02326324526224
 11
-64.93750000000003
 21
-46.02326324526224
  0
LINE
  5
261
100
AcDbEntity
  8
diode
  6
ByLayer
 62
  256
370
   -1
100
AcDbLine
 10
-58.88750000000003
 20
-50.78576324526225
 11
-45.88750000000003
 21
-50.78576324526225
  0
LINE
  5
262
100
AcDbEntity
  8
diode
  6
ByLayer
 62
  256
370
   -1
100
AcDbLine
 10
-27.93125000000003
 20
-55.54826324526223
 11
-14.93125000000003
 21
-55.54826324526223
  0
LINE
  5
263
100
AcDbEntity
  8
diode
  6
ByLayer
 62
  256
370
   -1
100
AcDbLine
 10
-44.37495995360582
 20
-29.54729245159136
 11
-31.57245915360583
 21
-31.80471875159137
  0
LINE
  5
264
100
AcDbEntity
  8
diode
  6
ByLayer
 62
  256
370
   -1
100
AcDbLine
 10
-62.30854825360583
 20
-21.54914775159136
 11
-49.50604745360582
 21
-23.80657405159136
  0
LINE
  5
265
100
AcDbEntity
  8
diode
  6
ByLayer
 62
  256
370
   -1
100
AcDbLine
 10
132.3889023536058
 20
19.82372494840867
 11
119.5864015536058
 21
17.56629864840863
  0
LINE
  5
266
100
AcDbEntity
  8
diode
  6
ByLayer
 62
  256
370
   -1
100
AcDbLine
 10
113.6283146536058
 20
16.51572714840865
 11
100.8258138536058
 21
14.25830084840866
  0
LINE
  5
267
100
AcDbEntity
  8
diode
  6
ByLayer
 62
  256
370
   -1
100
AcDbLine
 10
135.6969000536058
 20
1.06313724840861
 11
122.8943992536058
 21
-1.194289051591374
  0
LINE
  5
268
100
AcDbEntity
  8
diode
  6
ByLayer
 62
  256
370
   -1
100
AcDbLine
 10
116.9363123536058
 20
-2.244860551591357
 11
104.1338115536058
 21
-4.502286851591341
  0
LINE
  5
269
100
AcDbEntity
  8
diode
  6
ByLayer
 62
  256
370
   -1
100
AcDbLine
 10
93.21372805360582
 20
22.58802324840862
 11
80.41122725360582
 21
20.33059694840864
  0
LINE
  5
26A
100
AcDbEntity
  8
diode
  6
ByLayer
 62
  256
370
   -1
100
AcDbLine
 10
96.52172585360582
 20
3.827435548408625
 11
83.71922505360583
 21
1.570009248408641
  0
LINE
  5
26B
100
AcDbEntity
  8
diode
  6
ByLayer
 62
  256
370
   -1
100
AcDbLine
 10
73.62614085360582
 20
23.97017234840867
 11
60.82364005360581
 21
21.71274604840863
  0
LINE
  5
26C
100
AcDbEntity
  8
diode
  6
ByLayer
 62
  256
370
   -1
100
AcDbLine
 10
55.69255265360582
 20
15.97202764840864
 11
42.89005185360583
 21
13.71460134840866
  0
LINE
  5
26D
100
AcDbEntity
  8
diode
  6
ByLayer
 62
  256
370
   -1
100
AcDbLine
 10
37.75896435360581
 20
7.973882948408621
 11
24.95646355360582
 21
5.716456648408635
  0
LINE
  5
26E
100
AcDbEntity
  8
diode
  6
ByLayer
 62
  256
370
   -1
100
AcDbLine
 10
41.06696215360581
 20
-10.78670475159138
 11
28.26446135360583
 21
-13.04413105159137
  0
LINE
  5
26F
100
AcDbEntity
  8
diode
  6
ByLayer
 62
  256
370
   -1
100
AcDbLine
 10
59.00055045360583
 20
-2.788560051591302
 11
46.19804965360582
 21
-5.045986351591344
  0
LINE
  5
270
100
AcDbEntity
  8
diode
  6
ByLayer
 62
  256
370
   -1
100
AcDbLine
 10
76.93413865360581
 20
5.20958474840865
 11
64.13163785360582
 21
2.952158448408669
  0
LINE
  5
271
100
AcDbEntity
  8
diode
  6
ByLayer
 62
  256
370
   -1
100
AcDbLine
 10
80.24213645360582
 20
-13.55100295159135
 11
67.43963565360582
 21
-15.80842925159139
  0
LINE
  5
272
100
AcDbEntity
  8
diode
  6
ByLayer
 62
  256
370
   -1
100
AcDbLine
 10
99.82972355360582
 20
-14.93315215159138
 11
87.02722275360581
 21
-17.19057845159136
  0
LINE
  5
273
100
AcDbEntity
  8
diode
  6
ByLayer
 62
  256
370
   -1
100
AcDbLine
 10
120.2443101536058
 20
-21.00544815159137
 11
107.4418093536058
 21
-23.26287445159135
  0
LINE
  5
274
100
AcDbEntity
  8
diode
  6
ByLayer
 62
  256
370
   -1
100
AcDbLine
 10
139.0048978536058
 20
-17.69745045159134
 11
126.2023970536058
 21
-19.95487675159138
  0
LINE
  5
275
100
AcDbEntity
  8
diode
  6
ByLayer
 62
  256
370
   -1
100
AcDbLine
 10
142.3128956536058
 20
-36.45803815159138
 11
129.5103948536058
 21
-38.71546445159136
  0
LINE
  5
276
100
AcDbEntity
  8
diode
  6
ByLayer
 62
  256
370
   -1
100
AcDbLine
 10
123.5523079536058
 20
-39.76603585159136
 11
110.7498071536058
 21
-42.02346215159139
  0
LINE
  5
277
100
AcDbEntity
  8
diode
  6
ByLayer
 62
  256
370
   -1
100
AcDbLine
 10
103.1377213536058
 20
-33.69373985159136
 11
90.33522055360582
 21
-35.95116615159139
  0
LINE
  5
278
100
AcDbEntity
  8
diode
  6
ByLayer
 62
  256
370
   -1
100
AcDbLine
 10
77.93750000000003
 20
-46.02326324526224
 11
64.93750000000003
 21
-46.02326324526224
  0
LINE
  5
279
100
AcDbEntity
  8
diode
  6
ByLayer
 62
  256
370
   -1
100
AcDbLine
 10
58.88750000000003
 20
-50.78576324526224
 11
45.88750000000003
 21
-50.78576324526224
  0
LINE
  5
27A
100
AcDbEntity
  8
diode
  6
ByLayer
 62
  256
370
   -1
100
AcDbLine
 10
27.93125000000003
 20
-55.54826324526221
 11
14.93125000000003
 21
-55.54826324526221
  0
LINE
  5
27B
100
AcDbEntity
  8
diode
  6
ByLayer
 62
  256
370
   -1
100
AcDbLine
 10
44.37495995360582
 20
-29.54729245159139
 11
31.57245915360583
 21
-31.80471875159136
  0
LINE
  5
27C
100
AcDbEntity
  8
diode
  6
ByLayer
 62
  256
370
   -1
100
AcDbLine
 10
62.30854825360583
 20
-21.54914775159136
 11
49.50604745360582
 21
-23.80657405159135
  0
ENDSEC
  0
SECTION
  2
OBJECTS
  0
DICTIONARY
  5
C
330
0
100
AcDbDictionary
281
    1
  3
ACAD_GROUP
350
D
  0
DICTIONARY
  5
D
330
C
100
AcDbDictionary
281
    1
  0
PLOTSETTINGS
  5
27D
100
AcDbPlotSettings
  6
1x1
 40
0
 41
0
 42
0
 43
0
  0
ENDSEC
  0
EOF
