0
SECTION
2
HEADER
9
$INSUNITS
70
4
0
ENDSEC
0
SECTION
2
TABLES
0
TABLE
2
LTYPE
0
LTYPE
72
65
70
64
2
CONTINUOUS
3
______
73
0
40
0
0
ENDTAB
0
TABLE
2
LAYER
0
ENDTAB
0
ENDSEC
0
SECTION
2
ENTITIES
0
LINE
8
0
10
103.0375
20
-83.4875
11
116.0375
21
-83.4875
0
LINE
8
0
10
103.0375
20
-97.4875
11
116.0375
21
-97.4875
0
LINE
8
0
10
102.5375
20
-83.9875
11
102.5375
21
-96.9875
0
LINE
8
0
10
116.5375
20
-83.9875
11
116.5375
21
-96.9875
0
ARC
8
0
10
103.0375
20
-83.9875
40
0.5
50
90
51
180
0
ARC
8
0
10
116.0375
20
-83.9875
40
0.5
50
0
51
90
0
ARC
8
0
10
103.0375
20
-96.9875
40
0.5
50
180
51
270
0
ARC
8
0
10
116.0375
20
-96.9875
40
0.5
50
270
51
0
0
LINE
8
0
10
131.6125
20
-83.4875
11
144.6125
21
-83.4875
0
LINE
8
0
10
131.6125
20
-97.4875
11
144.6125
21
-97.4875
0
LINE
8
0
10
131.1125
20
-83.9875
11
131.1125
21
-96.9875
0
LINE
8
0
10
145.1125
20
-83.9875
11
145.1125
21
-96.9875
0
ARC
8
0
10
131.6125
20
-83.9875
40
0.5
50
90
51
180
0
ARC
8
0
10
144.6125
20
-83.9875
40
0.5
50
0
51
90
0
ARC
8
0
10
131.6125
20
-96.9875
40
0.5
50
180
51
270
0
ARC
8
0
10
144.6125
20
-96.9875
40
0.5
50
270
51
0
0
LINE
8
0
10
42.4392868
20
-68.1776326
11
55.2417876
21
-70.4350589
0
LINE
8
0
10
40.0082124
20
-81.9649411
11
52.8107132
21
-84.2223674
0
LINE
8
0
10
41.8600589
20
-68.5832124
11
39.6026326
21
-81.3857132
0
LINE
8
0
10
55.6473674
20
-71.0142868
11
53.3899411
21
-83.8167876
0
ARC
8
0
10
42.3524628
20
-68.6700365
40
0.5
50
80
51
170
0
ARC
8
0
10
55.1549635
20
-70.9274628
40
0.5
50
350
51
80
0
ARC
8
0
10
40.0950365
20
-81.4725372
40
0.5
50
170
51
260
0
ARC
8
0
10
52.8975372
20
-83.7299635
40
0.5
50
260
51
350
0
LINE
8
0
10
70.0838187
20
-2.612932
11
82.8863195
21
-4.8703583
0
LINE
8
0
10
67.6527443
20
-16.4002405
11
80.4552451
21
-18.6576668
0
LINE
8
0
10
69.5045908
20
-3.0185118
11
67.2471645
21
-15.8210126
0
LINE
8
0
10
83.2918993
20
-5.4495862
11
81.034473
21
-18.252087
0
ARC
8
0
10
69.9969947
20
-3.1053359
40
0.5
50
80
51
170
0
ARC
8
0
10
82.7994954
20
-5.3627622
40
0.5
50
350
51
80
0
ARC
8
0
10
67.7395684
20
-15.9078366
40
0.5
50
170
51
260
0
ARC
8
0
10
80.5420691
20
-18.1652629
40
0.5
50
260
51
350
0
LINE
8
0
10
50.4962315
20
-3.9950811
11
63.2987323
21
-6.2525074
0
LINE
8
0
10
48.0651571
20
-17.7823896
11
60.8676579
21
-20.0398159
0
LINE
8
0
10
49.9170036
20
-4.4006609
11
47.6595773
21
-17.2031617
0
LINE
8
0
10
63.7043121
20
-6.8317353
11
61.4468858
21
-19.6342361
0
ARC
8
0
10
50.4094075
20
-4.487485
40
0.5
50
80
51
170
0
ARC
8
0
10
63.2119082
20
-6.7449113
40
0.5
50
350
51
80
0
ARC
8
0
10
48.1519812
20
-17.2899857
40
0.5
50
170
51
260
0
ARC
8
0
10
60.9544819
20
-19.547412
40
0.5
50
260
51
350
0
LINE
8
0
10
88.0174069
20
-10.6110767
11
100.8199077
21
-12.868503
0
LINE
8
0
10
85.5863325
20
-24.3983852
11
98.3888333
21
-26.6558115
0
LINE
8
0
10
87.438179
20
-11.0166565
11
85.1807527
21
-23.8191573
0
LINE
8
0
10
101.2254875
20
-13.4477309
11
98.9680612
21
-26.2502317
0
ARC
8
0
10
87.9305829
20
-11.1034806
40
0.5
50
80
51
170
0
ARC
8
0
10
100.7330836
20
-13.3609069
40
0.5
50
350
51
80
0
ARC
8
0
10
85.6731566
20
-23.9059813
40
0.5
50
170
51
260
0
ARC
8
0
10
98.4756573
20
-26.1634076
40
0.5
50
260
51
350
0
LINE
8
0
10
30.9086444
20
-5.3772303
11
43.7111452
21
-7.6346566
0
LINE
8
0
10
28.47757
20
-19.1645388
11
41.2800708
21
-21.4219651
0
LINE
8
0
10
30.3294165
20
-5.7828101
11
28.0719902
21
-18.5853109
0
LINE
8
0
10
44.116725
20
-8.2138845
11
41.8592987
21
-21.0163853
0
ARC
8
0
10
30.8218204
20
-5.8696342
40
0.5
50
80
51
170
0
ARC
8
0
10
43.6243211
20
-8.1270605
40
0.5
50
350
51
80
0
ARC
8
0
10
28.5643941
20
-18.6721349
40
0.5
50
170
51
260
0
ARC
8
0
10
41.3668948
20
-20.9295612
40
0.5
50
260
51
350
0
LINE
8
0
10
105.9509952
20
-18.6092214
11
118.753496
21
-20.8666477
0
LINE
8
0
10
103.5199208
20
-32.3965299
11
116.3224216
21
-34.6539562
0
LINE
8
0
10
105.3717673
20
-19.0148012
11
103.114341
21
-31.817302
0
LINE
8
0
10
119.1590758
20
-21.4458756
11
116.9016495
21
-34.2483764
0
ARC
8
0
10
105.8641712
20
-19.1016253
40
0.5
50
80
51
170
0
ARC
8
0
10
118.6666719
20
-21.3590516
40
0.5
50
350
51
80
0
ARC
8
0
10
103.6067449
20
-31.904126
40
0.5
50
170
51
260
0
ARC
8
0
10
116.4092456
20
-34.1615523
40
0.5
50
260
51
350
0
LINE
8
0
10
11.3210572
20
-6.7593794
11
24.123558
21
-9.0168057
0
LINE
8
0
10
8.8899828
20
-20.5466879
11
21.6924836
21
-22.8041142
0
LINE
8
0
10
10.7418293
20
-7.1649592
11
8.484403
21
-19.96746
0
LINE
8
0
10
24.5291378
20
-9.5960336
11
22.2717115
21
-22.3985344
0
ARC
8
0
10
11.2342332
20
-7.2517833
40
0.5
50
80
51
170
0
ARC
8
0
10
24.0367339
20
-9.5092096
40
0.5
50
350
51
80
0
ARC
8
0
10
8.9768069
20
-20.054284
40
0.5
50
170
51
260
0
ARC
8
0
10
21.7793076
20
-22.3117103
40
0.5
50
260
51
350
0
LINE
8
0
10
66.7758209
20
-21.3735197
11
79.5783217
21
-23.630946
0
LINE
8
0
10
64.3447465
20
-35.1608282
11
77.1472473
21
-37.4182545
0
LINE
8
0
10
66.196593
20
-21.7790995
11
63.9391667
21
-34.5816003
0
LINE
8
0
10
79.9839015
20
-24.2101739
11
77.7264752
21
-37.0126747
0
ARC
8
0
10
66.6889969
20
-21.8659236
40
0.5
50
80
51
170
0
ARC
8
0
10
79.4914976
20
-24.1233499
40
0.5
50
350
51
80
0
ARC
8
0
10
64.4315706
20
-34.6684243
40
0.5
50
170
51
260
0
ARC
8
0
10
77.2340713
20
-36.9258506
40
0.5
50
260
51
350
0
LINE
8
0
10
47.1882337
20
-22.7556688
11
59.9907345
21
-25.0130951
0
LINE
8
0
10
44.7571593
20
-36.5429773
11
57.5596601
21
-38.8004036
0
LINE
8
0
10
46.6090058
20
-23.1612486
11
44.3515795
21
-35.9637494
0
LINE
8
0
10
60.3963143
20
-25.592323
11
58.138888
21
-38.3948238
0
ARC
8
0
10
47.1014097
20
-23.2480727
40
0.5
50
80
51
170
0
ARC
8
0
10
59.9039104
20
-25.505499
40
0.5
50
350
51
80
0
ARC
8
0
10
44.8439834
20
-36.0505734
40
0.5
50
170
51
260
0
ARC
8
0
10
57.6464841
20
-38.3079997
40
0.5
50
260
51
350
0
LINE
8
0
10
84.7094091
20
-29.3716644
11
97.5119099
21
-31.6290907
0
LINE
8
0
10
82.2783347
20
-43.1589729
11
95.0808355
21
-45.4163992
0
LINE
8
0
10
84.1301812
20
-29.7772442
11
81.8727549
21
-42.579745
0
LINE
8
0
10
97.9174897
20
-32.2083186
11
95.6600634
21
-45.0108194
0
ARC
8
0
10
84.6225851
20
-29.8640683
40
0.5
50
80
51
170
0
ARC
8
0
10
97.4250858
20
-32.1214946
40
0.5
50
350
51
80
0
ARC
8
0
10
82.3651588
20
-42.666569
40
0.5
50
170
51
260
0
ARC
8
0
10
95.1676595
20
-44.9239953
40
0.5
50
260
51
350
0
LINE
8
0
10
27.6006466
20
-24.137818
11
40.4031474
21
-26.3952443
0
LINE
8
0
10
25.1695722
20
-37.9251265
11
37.972073
21
-40.1825528
0
LINE
8
0
10
27.0214187
20
-24.5433978
11
24.7639924
21
-37.3458986
0
LINE
8
0
10
40.8087272
20
-26.9744722
11
38.5513009
21
-39.776973
0
ARC
8
0
10
27.5138226
20
-24.6302219
40
0.5
50
80
51
170
0
ARC
8
0
10
40.3163233
20
-26.8876482
40
0.5
50
350
51
80
0
ARC
8
0
10
25.2563963
20
-37.4327226
40
0.5
50
170
51
260
0
ARC
8
0
10
38.058897
20
-39.6901489
40
0.5
50
260
51
350
0
LINE
8
0
10
102.6429974
20
-37.3698091
11
115.4454982
21
-39.6272354
0
LINE
8
0
10
100.211923
20
-51.1571176
11
113.0144238
21
-53.4145439
0
LINE
8
0
10
102.0637695
20
-37.7753889
11
99.8063432
21
-50.5778897
0
LINE
8
0
10
115.851078
20
-40.2064633
11
113.5936517
21
-53.0089641
0
ARC
8
0
10
102.5561734
20
-37.862213
40
0.5
50
80
51
170
0
ARC
8
0
10
115.3586741
20
-40.1196393
40
0.5
50
350
51
80
0
ARC
8
0
10
100.2987471
20
-50.6647137
40
0.5
50
170
51
260
0
ARC
8
0
10
113.1012478
20
-52.92214
40
0.5
50
260
51
350
0
LINE
8
0
10
8.0130595
20
-25.5199671
11
20.8155603
21
-27.7773934
0
LINE
8
0
10
5.5819851
20
-39.3072756
11
18.3844859
21
-41.5647019
0
LINE
8
0
10
7.4338316
20
-25.9255469
11
5.1764053
21
-38.7280477
0
LINE
8
0
10
21.2211401
20
-28.3566213
11
18.9637138
21
-41.1591221
0
ARC
8
0
10
7.9262355
20
-26.012371
40
0.5
50
80
51
170
0
ARC
8
0
10
20.7287362
20
-28.2697973
40
0.5
50
350
51
80
0
ARC
8
0
10
5.6688092
20
-38.8148717
40
0.5
50
170
51
260
0
ARC
8
0
10
18.4713099
20
-41.072298
40
0.5
50
260
51
350
0
LINE
8
0
10
63.4678231
20
-40.1341074
11
76.2703239
21
-42.3915337
0
LINE
8
0
10
61.0367487
20
-53.9214159
11
73.8392495
21
-56.1788422
0
LINE
8
0
10
62.8885952
20
-40.5396872
11
60.6311689
21
-53.342188
0
LINE
8
0
10
76.6759037
20
-42.9707616
11
74.4184774
21
-55.7732624
0
ARC
8
0
10
63.3809991
20
-40.6265113
40
0.5
50
80
51
170
0
ARC
8
0
10
76.1834998
20
-42.8839376
40
0.5
50
350
51
80
0
ARC
8
0
10
61.1235728
20
-53.429012
40
0.5
50
170
51
260
0
ARC
8
0
10
73.9260735
20
-55.6864383
40
0.5
50
260
51
350
0
LINE
8
0
10
43.880236
20
-41.5162565
11
56.6827368
21
-43.7736828
0
LINE
8
0
10
41.4491616
20
-55.303565
11
54.2516624
21
-57.5609913
0
LINE
8
0
10
43.3010081
20
-41.9218363
11
41.0435818
21
-54.7243371
0
LINE
8
0
10
57.0883166
20
-44.3529107
11
54.8308903
21
-57.1554115
0
ARC
8
0
10
43.793412
20
-42.0086604
40
0.5
50
80
51
170
0
ARC
8
0
10
56.5959127
20
-44.2660867
40
0.5
50
350
51
80
0
ARC
8
0
10
41.5359857
20
-54.8111611
40
0.5
50
170
51
260
0
ARC
8
0
10
54.3384864
20
-57.0685874
40
0.5
50
260
51
350
0
LINE
8
0
10
81.4014114
20
-48.1322521
11
94.2039122
21
-50.3896784
0
LINE
8
0
10
78.970337
20
-61.9195606
11
91.7728378
21
-64.1769869
0
LINE
8
0
10
80.8221835
20
-48.5378319
11
78.5647572
21
-61.3403327
0
LINE
8
0
10
94.609492
20
-50.9689063
11
92.3520657
21
-63.7714071
0
ARC
8
0
10
81.3145874
20
-48.624656
40
0.5
50
80
51
170
0
ARC
8
0
10
94.1170881
20
-50.8820823
40
0.5
50
350
51
80
0
ARC
8
0
10
79.0571611
20
-61.4271567
40
0.5
50
170
51
260
0
ARC
8
0
10
91.8596618
20
-63.684583
40
0.5
50
260
51
350
0
LINE
8
0
10
24.2926488
20
-42.8984057
11
37.0951496
21
-45.155832
0
LINE
8
0
10
21.8615744
20
-56.6857142
11
34.6640752
21
-58.9431405
0
LINE
8
0
10
23.7134209
20
-43.3039855
11
21.4559946
21
-56.1064863
0
LINE
8
0
10
37.5007294
20
-45.7350599
11
35.2433031
21
-58.5375607
0
ARC
8
0
10
24.2058248
20
-43.3908096
40
0.5
50
80
51
170
0
ARC
8
0
10
37.0083255
20
-45.6482359
40
0.5
50
350
51
80
0
ARC
8
0
10
21.9483985
20
-56.1933103
40
0.5
50
170
51
260
0
ARC
8
0
10
34.7508992
20
-58.4507366
40
0.5
50
260
51
350
0
LINE
8
0
10
99.3349996
20
-56.1303968
11
112.1375004
21
-58.3878231
0
LINE
8
0
10
96.9039252
20
-69.9177053
11
109.706426
21
-72.1751316
0
LINE
8
0
10
98.7557717
20
-56.5359766
11
96.4983454
21
-69.3384774
0
LINE
8
0
10
112.5430802
20
-58.967051
11
110.2856539
21
-71.7695518
0
ARC
8
0
10
99.2481756
20
-56.6228007
40
0.5
50
80
51
170
0
ARC
8
0
10
112.0506763
20
-58.880227
40
0.5
50
350
51
80
0
ARC
8
0
10
96.9907493
20
-69.4253014
40
0.5
50
170
51
260
0
ARC
8
0
10
109.79325
20
-71.6827277
40
0.5
50
260
51
350
0
LINE
8
0
10
4.7050617
20
-44.2805548
11
17.5075625
21
-46.5379811
0
LINE
8
0
10
2.2739873
20
-58.0678633
11
15.0764881
21
-60.3252896
0
LINE
8
0
10
4.1258338
20
-44.6861346
11
1.8684075
21
-57.4886354
0
LINE
8
0
10
17.9131423
20
-47.117209
11
15.655716
21
-59.9197098
0
ARC
8
0
10
4.6182377
20
-44.7729587
40
0.5
50
80
51
170
0
ARC
8
0
10
17.4207384
20
-47.030385
40
0.5
50
350
51
80
0
ARC
8
0
10
2.3608114
20
-57.5754594
40
0.5
50
170
51
260
0
ARC
8
0
10
15.1633121
20
-59.8328857
40
0.5
50
260
51
350
0
LINE
8
0
10
70.9222683
20
-80.1362811
11
83.7247691
21
-82.3937074
0
LINE
8
0
10
68.4911939
20
-93.9235896
11
81.2936947
21
-96.1810159
0
LINE
8
0
10
70.3430404
20
-80.5418609
11
68.0856141
21
-93.3443617
0
LINE
8
0
10
84.1303489
20
-82.9729353
11
81.8729226
21
-95.7754361
0
ARC
8
0
10
70.8354443
20
-80.628685
40
0.5
50
80
51
170
0
ARC
8
0
10
83.637945
20
-82.8861113
40
0.5
50
350
51
80
0
ARC
8
0
10
68.578018
20
-93.4311857
40
0.5
50
170
51
260
0
ARC
8
0
10
81.3805187
20
-95.688612
40
0.5
50
260
51
350
0
LINE
8
0
10
164.7636805
20
-4.8703583
11
177.5661813
21
-2.612932
0
LINE
8
0
10
167.1947549
20
-18.6576668
11
179.9972557
21
-16.4002405
0
LINE
8
0
10
164.3581007
20
-5.4495862
11
166.615527
21
-18.252087
0
LINE
8
0
10
178.1454092
20
-3.0185118
11
180.4028355
21
-15.8210126
0
ARC
8
0
10
164.8505046
20
-5.3627622
40
0.5
50
100
51
190
0
ARC
8
0
10
177.6530053
20
-3.1053359
40
0.5
50
10
51
100
0
ARC
8
0
10
167.1079309
20
-18.1652629
40
0.5
50
190
51
280
0
ARC
8
0
10
179.9104316
20
-15.9078366
40
0.5
50
280
51
10
0
LINE
8
0
10
146.8300923
20
-12.868503
11
159.6325931
21
-10.6110767
0
LINE
8
0
10
149.2611667
20
-26.6558115
11
162.0636675
21
-24.3983852
0
LINE
8
0
10
146.4245125
20
-13.4477309
11
148.6819388
21
-26.2502317
0
LINE
8
0
10
160.211821
20
-11.0166565
11
162.4692473
21
-23.8191573
0
ARC
8
0
10
146.9169164
20
-13.3609069
40
0.5
50
100
51
190
0
ARC
8
0
10
159.7194171
20
-11.1034806
40
0.5
50
10
51
100
0
ARC
8
0
10
149.1743427
20
-26.1634076
40
0.5
50
190
51
280
0
ARC
8
0
10
161.9768434
20
-23.9059813
40
0.5
50
280
51
10
0
LINE
8
0
10
184.3512677
20
-6.2525074
11
197.1537685
21
-3.9950811
0
LINE
8
0
10
186.7823421
20
-20.0398159
11
199.5848429
21
-17.7823896
0
LINE
8
0
10
183.9456879
20
-6.8317353
11
186.2031142
21
-19.6342361
0
LINE
8
0
10
197.7329964
20
-4.4006609
11
199.9904227
21
-17.2031617
0
ARC
8
0
10
184.4380918
20
-6.7449113
40
0.5
50
100
51
190
0
ARC
8
0
10
197.2405925
20
-4.487485
40
0.5
50
10
51
100
0
ARC
8
0
10
186.6955181
20
-19.547412
40
0.5
50
190
51
280
0
ARC
8
0
10
199.4980188
20
-17.2899857
40
0.5
50
280
51
10
0
LINE
8
0
10
128.896504
20
-20.8666477
11
141.6990048
21
-18.6092214
0
LINE
8
0
10
131.3275784
20
-34.6539562
11
144.1300792
21
-32.3965299
0
LINE
8
0
10
128.4909242
20
-21.4458756
11
130.7483505
21
-34.2483764
0
LINE
8
0
10
142.2782327
20
-19.0148012
11
144.535659
21
-31.817302
0
ARC
8
0
10
128.9833281
20
-21.3590516
40
0.5
50
100
51
190
0
ARC
8
0
10
141.7858288
20
-19.1016253
40
0.5
50
10
51
100
0
ARC
8
0
10
131.2407544
20
-34.1615523
40
0.5
50
190
51
280
0
ARC
8
0
10
144.0432551
20
-31.904126
40
0.5
50
280
51
10
0
LINE
8
0
10
203.9388548
20
-7.6346566
11
216.7413556
21
-5.3772303
0
LINE
8
0
10
206.3699292
20
-21.4219651
11
219.17243
21
-19.1645388
0
LINE
8
0
10
203.533275
20
-8.2138845
11
205.7907013
21
-21.0163853
0
LINE
8
0
10
217.3205835
20
-5.7828101
11
219.5780098
21
-18.5853109
0
ARC
8
0
10
204.0256789
20
-8.1270605
40
0.5
50
100
51
190
0
ARC
8
0
10
216.8281796
20
-5.8696342
40
0.5
50
10
51
100
0
ARC
8
0
10
206.2831052
20
-20.9295612
40
0.5
50
190
51
280
0
ARC
8
0
10
219.0856059
20
-18.6721349
40
0.5
50
280
51
10
0
LINE
8
0
10
223.526442
20
-9.0168057
11
236.3289428
21
-6.7593794
0
LINE
8
0
10
225.9575164
20
-22.8041142
11
238.7600172
21
-20.5466879
0
LINE
8
0
10
223.1208622
20
-9.5960336
11
225.3782885
21
-22.3985344
0
LINE
8
0
10
236.9081707
20
-7.1649592
11
239.165597
21
-19.96746
0
ARC
8
0
10
223.6132661
20
-9.5092096
40
0.5
50
100
51
190
0
ARC
8
0
10
236.4157668
20
-7.2517833
40
0.5
50
10
51
100
0
ARC
8
0
10
225.8706924
20
-22.3117103
40
0.5
50
190
51
280
0
ARC
8
0
10
238.6731931
20
-20.054284
40
0.5
50
280
51
10
0
LINE
8
0
10
168.0716783
20
-23.630946
11
180.8741791
21
-21.3735197
0
LINE
8
0
10
170.5027527
20
-37.4182545
11
183.3052535
21
-35.1608282
0
LINE
8
0
10
167.6660985
20
-24.2101739
11
169.9235248
21
-37.0126747
0
LINE
8
0
10
181.453407
20
-21.7790995
11
183.7108333
21
-34.5816003
0
ARC
8
0
10
168.1585024
20
-24.1233499
40
0.5
50
100
51
190
0
ARC
8
0
10
180.9610031
20
-21.8659236
40
0.5
50
10
51
100
0
ARC
8
0
10
170.4159287
20
-36.9258506
40
0.5
50
190
51
280
0
ARC
8
0
10
183.2184294
20
-34.6684243
40
0.5
50
280
51
10
0
LINE
8
0
10
150.1380901
20
-31.6290907
11
162.9405909
21
-29.3716644
0
LINE
8
0
10
152.5691645
20
-45.4163992
11
165.3716653
21
-43.1589729
0
LINE
8
0
10
149.7325103
20
-32.2083186
11
151.9899366
21
-45.0108194
0
LINE
8
0
10
163.5198188
20
-29.7772442
11
165.7772451
21
-42.579745
0
ARC
8
0
10
150.2249142
20
-32.1214946
40
0.5
50
100
51
190
0
ARC
8
0
10
163.0274149
20
-29.8640683
40
0.5
50
10
51
100
0
ARC
8
0
10
152.4823405
20
-44.9239953
40
0.5
50
190
51
280
0
ARC
8
0
10
165.2848412
20
-42.666569
40
0.5
50
280
51
10
0
LINE
8
0
10
187.6592655
20
-25.0130951
11
200.4617663
21
-22.7556688
0
LINE
8
0
10
190.0903399
20
-38.8004036
11
202.8928407
21
-36.5429773
0
LINE
8
0
10
187.2536857
20
-25.592323
11
189.511112
21
-38.3948238
0
LINE
8
0
10
201.0409942
20
-23.1612486
11
203.2984205
21
-35.9637494
0
ARC
8
0
10
187.7460896
20
-25.505499
40
0.5
50
100
51
190
0
ARC
8
0
10
200.5485903
20
-23.2480727
40
0.5
50
10
51
100
0
ARC
8
0
10
190.0035159
20
-38.3079997
40
0.5
50
190
51
280
0
ARC
8
0
10
202.8060166
20
-36.0505734
40
0.5
50
280
51
10
0
LINE
8
0
10
132.2045018
20
-39.6272354
11
145.0070026
21
-37.3698091
0
LINE
8
0
10
134.6355762
20
-53.4145439
11
147.438077
21
-51.1571176
0
LINE
8
0
10
131.798922
20
-40.2064633
11
134.0563483
21
-53.0089641
0
LINE
8
0
10
145.5862305
20
-37.7753889
11
147.8436568
21
-50.5778897
0
ARC
8
0
10
132.2913259
20
-40.1196393
40
0.5
50
100
51
190
0
ARC
8
0
10
145.0938266
20
-37.862213
40
0.5
50
10
51
100
0
ARC
8
0
10
134.5487522
20
-52.92214
40
0.5
50
190
51
280
0
ARC
8
0
10
147.3512529
20
-50.6647137
40
0.5
50
280
51
10
0
LINE
8
0
10
207.2468526
20
-26.3952443
11
220.0493534
21
-24.137818
0
LINE
8
0
10
209.677927
20
-40.1825528
11
222.4804278
21
-37.9251265
0
LINE
8
0
10
206.8412728
20
-26.9744722
11
209.0986991
21
-39.776973
0
LINE
8
0
10
220.6285813
20
-24.5433978
11
222.8860076
21
-37.3458986
0
ARC
8
0
10
207.3336767
20
-26.8876482
40
0.5
50
100
51
190
0
ARC
8
0
10
220.1361774
20
-24.6302219
40
0.5
50
10
51
100
0
ARC
8
0
10
209.591103
20
-39.6901489
40
0.5
50
190
51
280
0
ARC
8
0
10
222.3936037
20
-37.4327226
40
0.5
50
280
51
10
0
LINE
8
0
10
226.8344397
20
-27.7773934
11
239.6369405
21
-25.5199671
0
LINE
8
0
10
229.2655141
20
-41.5647019
11
242.0680149
21
-39.3072756
0
LINE
8
0
10
226.4288599
20
-28.3566213
11
228.6862862
21
-41.1591221
0
LINE
8
0
10
240.2161684
20
-25.9255469
11
242.4735947
21
-38.7280477
0
ARC
8
0
10
226.9212638
20
-28.2697973
40
0.5
50
100
51
190
0
ARC
8
0
10
239.7237645
20
-26.012371
40
0.5
50
10
51
100
0
ARC
8
0
10
229.1786901
20
-41.072298
40
0.5
50
190
51
280
0
ARC
8
0
10
241.9811908
20
-38.8148717
40
0.5
50
280
51
10
0
LINE
8
0
10
171.3796761
20
-42.3915337
11
184.1821769
21
-40.1341074
0
LINE
8
0
10
173.8107505
20
-56.1788422
11
186.6132513
21
-53.9214159
0
LINE
8
0
10
170.9740963
20
-42.9707616
11
173.2315226
21
-55.7732624
0
LINE
8
0
10
184.7614048
20
-40.5396872
11
187.0188311
21
-53.342188
0
ARC
8
0
10
171.4665002
20
-42.8839376
40
0.5
50
100
51
190
0
ARC
8
0
10
184.2690009
20
-40.6265113
40
0.5
50
10
51
100
0
ARC
8
0
10
173.7239265
20
-55.6864383
40
0.5
50
190
51
280
0
ARC
8
0
10
186.5264272
20
-53.429012
40
0.5
50
280
51
10
0
LINE
8
0
10
153.4460878
20
-50.3896784
11
166.2485886
21
-48.1322521
0
LINE
8
0
10
155.8771622
20
-64.1769869
11
168.679663
21
-61.9195606
0
LINE
8
0
10
153.040508
20
-50.9689063
11
155.2979343
21
-63.7714071
0
LINE
8
0
10
166.8278165
20
-48.5378319
11
169.0852428
21
-61.3403327
0
ARC
8
0
10
153.5329119
20
-50.8820823
40
0.5
50
100
51
190
0
ARC
8
0
10
166.3354126
20
-48.624656
40
0.5
50
10
51
100
0
ARC
8
0
10
155.7903382
20
-63.684583
40
0.5
50
190
51
280
0
ARC
8
0
10
168.5928389
20
-61.4271567
40
0.5
50
280
51
10
0
LINE
8
0
10
190.9672632
20
-43.7736828
11
203.769764
21
-41.5162565
0
LINE
8
0
10
193.3983376
20
-57.5609913
11
206.2008384
21
-55.303565
0
LINE
8
0
10
190.5616834
20
-44.3529107
11
192.8191097
21
-57.1554115
0
LINE
8
0
10
204.3489919
20
-41.9218363
11
206.6064182
21
-54.7243371
0
ARC
8
0
10
191.0540873
20
-44.2660867
40
0.5
50
100
51
190
0
ARC
8
0
10
203.856588
20
-42.0086604
40
0.5
50
10
51
100
0
ARC
8
0
10
193.3115136
20
-57.0685874
40
0.5
50
190
51
280
0
ARC
8
0
10
206.1140143
20
-54.8111611
40
0.5
50
280
51
10
0
LINE
8
0
10
135.5124996
20
-58.3878231
11
148.3150004
21
-56.1303968
0
LINE
8
0
10
137.943574
20
-72.1751316
11
150.7460748
21
-69.9177053
0
LINE
8
0
10
135.1069198
20
-58.967051
11
137.3643461
21
-71.7695518
0
LINE
8
0
10
148.8942283
20
-56.5359766
11
151.1516546
21
-69.3384774
0
ARC
8
0
10
135.5993237
20
-58.880227
40
0.5
50
100
51
190
0
ARC
8
0
10
148.4018244
20
-56.6228007
40
0.5
50
10
51
100
0
ARC
8
0
10
137.85675
20
-71.6827277
40
0.5
50
190
51
280
0
ARC
8
0
10
150.6592507
20
-69.4253014
40
0.5
50
280
51
10
0
LINE
8
0
10
210.5548504
20
-45.155832
11
223.3573512
21
-42.8984057
0
LINE
8
0
10
212.9859248
20
-58.9431405
11
225.7884256
21
-56.6857142
0
LINE
8
0
10
210.1492706
20
-45.7350599
11
212.4066969
21
-58.5375607
0
LINE
8
0
10
223.9365791
20
-43.3039855
11
226.1940054
21
-56.1064863
0
ARC
8
0
10
210.6416745
20
-45.6482359
40
0.5
50
100
51
190
0
ARC
8
0
10
223.4441752
20
-43.3908096
40
0.5
50
10
51
100
0
ARC
8
0
10
212.8991008
20
-58.4507366
40
0.5
50
190
51
280
0
ARC
8
0
10
225.7016015
20
-56.1933103
40
0.5
50
280
51
10
0
LINE
8
0
10
230.1424375
20
-46.5379811
11
242.9449383
21
-44.2805548
0
LINE
8
0
10
232.5735119
20
-60.3252896
11
245.3760127
21
-58.0678633
0
LINE
8
0
10
229.7368577
20
-47.117209
11
231.994284
21
-59.9197098
0
LINE
8
0
10
243.5241662
20
-44.6861346
11
245.7815925
21
-57.4886354
0
ARC
8
0
10
230.2292616
20
-47.030385
40
0.5
50
100
51
190
0
ARC
8
0
10
243.0317623
20
-44.7729587
40
0.5
50
10
51
100
0
ARC
8
0
10
232.4866879
20
-59.8328857
40
0.5
50
190
51
280
0
ARC
8
0
10
245.2891886
20
-57.5754594
40
0.5
50
280
51
10
0
LINE
8
0
10
163.9252309
20
-82.3937074
11
176.7277317
21
-80.1362811
0
LINE
8
0
10
166.3563053
20
-96.1810159
11
179.1588061
21
-93.9235896
0
LINE
8
0
10
163.5196511
20
-82.9729353
11
165.7770774
21
-95.7754361
0
LINE
8
0
10
177.3069596
20
-80.5418609
11
179.5643859
21
-93.3443617
0
ARC
8
0
10
164.012055
20
-82.8861113
40
0.5
50
100
51
190
0
ARC
8
0
10
176.8145557
20
-80.628685
40
0.5
50
10
51
100
0
ARC
8
0
10
166.2694813
20
-95.688612
40
0.5
50
190
51
280
0
ARC
8
0
10
179.071982
20
-93.4311857
40
0.5
50
280
51
10
0
LINE
8
0
10
192.4082124
20
-70.4350589
11
205.2107132
21
-68.1776326
0
LINE
8
0
10
194.8392868
20
-84.2223674
11
207.6417876
21
-81.9649411
0
LINE
8
0
10
192.0026326
20
-71.0142868
11
194.2600589
21
-83.8167876
0
LINE
8
0
10
205.7899411
20
-68.5832124
11
208.0473674
21
-81.3857132
0
ARC
8
0
10
192.4950365
20
-70.9274628
40
0.5
50
100
51
190
0
ARC
8
0
10
205.2975372
20
-68.6700365
40
0.5
50
10
51
100
0
ARC
8
0
10
194.7524628
20
-83.7299635
40
0.5
50
190
51
280
0
ARC
8
0
10
207.5549635
20
-81.4725372
40
0.5
50
280
51
10
0
LINE
8
0
10
0.3657749
20
-100.0125
11
247.2842251
21
-100.0125
0
LINE
8
0
10
0.3657749
20
-1.1102994
11
247.2842251
21
-1.1102994
0
LINE
8
0
10
0.3657749
20
-100.0125
11
0.3657749
21
-1.1102994
0
LINE
8
0
10
247.2842251
20
-100.0125
11
247.2842251
21
-1.1102994
0
ENDSEC
0
EOF