  0
SECTION
  2
HEADER
  9
$ACADVER
  1
AC1009
  9
$FILLMODE
 70
 0
  9
$SPLFRAME
 70
 1
  9
$EXTMIN
 10
0
 20
0
 30
0.0
  9
$EXTMAX
 10
1058.33
 20
1058.33
 30
0.0
  0
ENDSEC
  0
SECTION
  2
TABLES
  0
TABLE
  2
LAYER
 70
1
  0
LAYER
  2
0
 70
     0
 62
     7
  6
CONTINUOUS
  0
ENDTAB
  0
ENDSEC
  0
SECTION
  2
ENTITIES
  0
LINE
  8
0
 62
     0
 10
0.0950846
 20
76.4575
 30
0.0
 11
247.745
 21
76.4575
 31
0.0
  0
LINE
  8
0
 62
     0
 10
247.745
 20
76.4575
 30
0.0
 11
247.745
 21
0.257693
 31
0.0
  0
LINE
  8
0
 62
     0
 10
247.745
 20
0.257693
 30
0.0
 11
0.0950846
 21
0.257693
 31
0.0
  0
LINE
  8
0
 62
     0
 10
0.0950846
 20
0.257693
 30
0.0
 11
0.0950846
 21
76.4575
 31
0.0
  0
LINE
  8
0
 62
     0
 10
90.726
 20
16.7831
 30
0.0
 11
90.726
 21
12.0826
 31
0.0
  0
LINE
  8
0
 62
     0
 10
90.726
 20
12.0826
 30
0.0
 11
89.2006
 21
12.0826
 31
0.0
  0
LINE
  8
0
 62
     0
 10
89.2006
 20
12.0826
 30
0.0
 11
89.2006
 21
15.3128
 31
0.0
  0
LINE
  8
0
 62
     0
 10
89.2006
 20
15.3128
 30
0.0
 11
87.4751
 21
15.3128
 31
0.0
  0
LINE
  8
0
 62
     0
 10
87.4751
 20
15.3128
 30
0.0
 11
87.4751
 21
16.2347
 31
0.0
  0
LINE
  8
0
 62
     0
 10
87.4751
 20
16.2347
 30
0.0
 11
84.176
 21
16.2347
 31
0.0
  0
LINE
  8
0
 62
     0
 10
84.176
 20
16.2347
 30
0.0
 11
84.176
 21
15.3128
 31
0.0
  0
LINE
  8
0
 62
     0
 10
84.176
 20
15.3128
 30
0.0
 11
82.4509
 21
15.3128
 31
0.0
  0
LINE
  8
0
 62
     0
 10
82.4509
 20
15.3128
 30
0.0
 11
82.4509
 21
12.0826
 31
0.0
  0
LINE
  8
0
 62
     0
 10
82.4509
 20
12.0826
 30
0.0
 11
81.6254
 21
12.0826
 31
0.0
  0
LINE
  8
0
 62
     0
 10
81.6254
 20
12.0826
 30
0.0
 11
81.6254
 21
9.28384
 31
0.0
  0
LINE
  8
0
 62
     0
 10
81.6254
 20
9.28384
 30
0.0
 11
82.4509
 21
9.28384
 31
0.0
  0
LINE
  8
0
 62
     0
 10
82.4509
 20
9.28384
 30
0.0
 11
82.4509
 21
3.01377
 31
0.0
  0
LINE
  8
0
 62
     0
 10
82.4509
 20
3.01377
 30
0.0
 11
84.176
 21
3.01377
 31
0.0
  0
LINE
  8
0
 62
     0
 10
84.176
 20
3.01377
 30
0.0
 11
84.176
 21
2.03261
 31
0.0
  0
LINE
  8
0
 62
     0
 10
84.176
 20
2.03261
 30
0.0
 11
87.4751
 21
2.03261
 31
0.0
  0
LINE
  8
0
 62
     0
 10
87.4751
 20
2.03261
 30
0.0
 11
87.4751
 21
3.01377
 31
0.0
  0
LINE
  8
0
 62
     0
 10
87.4751
 20
3.01377
 30
0.0
 11
89.2006
 21
3.01377
 31
0.0
  0
LINE
  8
0
 62
     0
 10
89.2006
 20
3.01377
 30
0.0
 11
89.2006
 21
7.48273
 31
0.0
  0
LINE
  8
0
 62
     0
 10
89.2006
 20
7.48273
 30
0.0
 11
90.726
 21
7.48273
 31
0.0
  0
LINE
  8
0
 62
     0
 10
90.726
 20
7.48273
 30
0.0
 11
90.726
 21
2.78364
 31
0.0
  0
LINE
  8
0
 62
     0
 10
90.726
 20
2.78364
 30
0.0
 11
104.725
 21
2.78364
 31
0.0
  0
LINE
  8
0
 62
     0
 10
104.725
 20
2.78364
 30
0.0
 11
104.725
 21
7.48273
 31
0.0
  0
LINE
  8
0
 62
     0
 10
104.725
 20
7.48273
 30
0.0
 11
106.251
 21
7.48273
 31
0.0
  0
LINE
  8
0
 62
     0
 10
106.251
 20
7.48273
 30
0.0
 11
106.251
 21
3.01377
 31
0.0
  0
LINE
  8
0
 62
     0
 10
106.251
 20
3.01377
 30
0.0
 11
107.975
 21
3.01377
 31
0.0
  0
LINE
  8
0
 62
     0
 10
107.975
 20
3.01377
 30
0.0
 11
107.975
 21
2.03261
 31
0.0
  0
LINE
  8
0
 62
     0
 10
107.975
 20
2.03261
 30
0.0
 11
111.275
 21
2.03261
 31
0.0
  0
LINE
  8
0
 62
     0
 10
111.275
 20
2.03261
 30
0.0
 11
111.275
 21
3.01377
 31
0.0
  0
LINE
  8
0
 62
     0
 10
111.275
 20
3.01377
 30
0.0
 11
113
 21
3.01377
 31
0.0
  0
LINE
  8
0
 62
     0
 10
113
 20
3.01377
 30
0.0
 11
113
 21
9.28384
 31
0.0
  0
LINE
  8
0
 62
     0
 10
113
 20
9.28384
 30
0.0
 11
113.826
 21
9.28384
 31
0.0
  0
LINE
  8
0
 62
     0
 10
113.826
 20
9.28384
 30
0.0
 11
113.826
 21
12.0826
 31
0.0
  0
LINE
  8
0
 62
     0
 10
113.826
 20
12.0826
 30
0.0
 11
113
 21
12.0826
 31
0.0
  0
LINE
  8
0
 62
     0
 10
113
 20
12.0826
 30
0.0
 11
113
 21
15.3128
 31
0.0
  0
LINE
  8
0
 62
     0
 10
113
 20
15.3128
 30
0.0
 11
111.275
 21
15.3128
 31
0.0
  0
LINE
  8
0
 62
     0
 10
111.275
 20
15.3128
 30
0.0
 11
111.275
 21
16.2347
 31
0.0
  0
LINE
  8
0
 62
     0
 10
111.275
 20
16.2347
 30
0.0
 11
107.975
 21
16.2347
 31
0.0
  0
LINE
  8
0
 62
     0
 10
107.975
 20
16.2347
 30
0.0
 11
107.975
 21
15.3128
 31
0.0
  0
LINE
  8
0
 62
     0
 10
107.975
 20
15.3128
 30
0.0
 11
106.251
 21
15.3128
 31
0.0
  0
LINE
  8
0
 62
     0
 10
106.251
 20
15.3128
 30
0.0
 11
106.251
 21
12.0826
 31
0.0
  0
LINE
  8
0
 62
     0
 10
106.251
 20
12.0826
 30
0.0
 11
104.725
 21
12.0826
 31
0.0
  0
LINE
  8
0
 62
     0
 10
104.725
 20
12.0826
 30
0.0
 11
104.725
 21
16.7831
 31
0.0
  0
LINE
  8
0
 62
     0
 10
104.725
 20
16.7831
 30
0.0
 11
90.726
 21
16.7831
 31
0.0
  0
LINE
  8
0
 62
     0
 10
133.587
 20
16.7831
 30
0.0
 11
133.587
 21
12.0826
 31
0.0
  0
LINE
  8
0
 62
     0
 10
133.587
 20
12.0826
 30
0.0
 11
132.063
 21
12.0826
 31
0.0
  0
LINE
  8
0
 62
     0
 10
132.063
 20
12.0826
 30
0.0
 11
132.063
 21
15.3128
 31
0.0
  0
LINE
  8
0
 62
     0
 10
132.063
 20
15.3128
 30
0.0
 11
130.338
 21
15.3128
 31
0.0
  0
LINE
  8
0
 62
     0
 10
130.338
 20
15.3128
 30
0.0
 11
130.338
 21
16.2347
 31
0.0
  0
LINE
  8
0
 62
     0
 10
130.338
 20
16.2347
 30
0.0
 11
127.037
 21
16.2347
 31
0.0
  0
LINE
  8
0
 62
     0
 10
127.037
 20
16.2347
 30
0.0
 11
127.037
 21
15.3128
 31
0.0
  0
LINE
  8
0
 62
     0
 10
127.037
 20
15.3128
 30
0.0
 11
125.312
 21
15.3128
 31
0.0
  0
LINE
  8
0
 62
     0
 10
125.312
 20
15.3128
 30
0.0
 11
125.312
 21
12.0826
 31
0.0
  0
LINE
  8
0
 62
     0
 10
125.312
 20
12.0826
 30
0.0
 11
124.488
 21
12.0826
 31
0.0
  0
LINE
  8
0
 62
     0
 10
124.488
 20
12.0826
 30
0.0
 11
124.488
 21
9.28384
 31
0.0
  0
LINE
  8
0
 62
     0
 10
124.488
 20
9.28384
 30
0.0
 11
125.312
 21
9.28384
 31
0.0
  0
LINE
  8
0
 62
     0
 10
125.312
 20
9.28384
 30
0.0
 11
125.312
 21
3.01377
 31
0.0
  0
LINE
  8
0
 62
     0
 10
125.312
 20
3.01377
 30
0.0
 11
127.037
 21
3.01377
 31
0.0
  0
LINE
  8
0
 62
     0
 10
127.037
 20
3.01377
 30
0.0
 11
127.037
 21
2.03261
 31
0.0
  0
LINE
  8
0
 62
     0
 10
127.037
 20
2.03261
 30
0.0
 11
130.338
 21
2.03261
 31
0.0
  0
LINE
  8
0
 62
     0
 10
130.338
 20
2.03261
 30
0.0
 11
130.338
 21
3.01377
 31
0.0
  0
LINE
  8
0
 62
     0
 10
130.338
 20
3.01377
 30
0.0
 11
132.063
 21
3.01377
 31
0.0
  0
LINE
  8
0
 62
     0
 10
132.063
 20
3.01377
 30
0.0
 11
132.063
 21
7.48273
 31
0.0
  0
LINE
  8
0
 62
     0
 10
132.063
 20
7.48273
 30
0.0
 11
133.587
 21
7.48273
 31
0.0
  0
LINE
  8
0
 62
     0
 10
133.587
 20
7.48273
 30
0.0
 11
133.587
 21
2.78364
 31
0.0
  0
LINE
  8
0
 62
     0
 10
133.587
 20
2.78364
 30
0.0
 11
147.588
 21
2.78364
 31
0.0
  0
LINE
  8
0
 62
     0
 10
147.588
 20
2.78364
 30
0.0
 11
147.588
 21
7.48273
 31
0.0
  0
LINE
  8
0
 62
     0
 10
147.588
 20
7.48273
 30
0.0
 11
149.112
 21
7.48273
 31
0.0
  0
LINE
  8
0
 62
     0
 10
149.112
 20
7.48273
 30
0.0
 11
149.112
 21
3.01377
 31
0.0
  0
LINE
  8
0
 62
     0
 10
149.112
 20
3.01377
 30
0.0
 11
150.837
 21
3.01377
 31
0.0
  0
LINE
  8
0
 62
     0
 10
150.837
 20
3.01377
 30
0.0
 11
150.837
 21
2.03261
 31
0.0
  0
LINE
  8
0
 62
     0
 10
150.837
 20
2.03261
 30
0.0
 11
154.138
 21
2.03261
 31
0.0
  0
LINE
  8
0
 62
     0
 10
154.138
 20
2.03261
 30
0.0
 11
154.138
 21
3.01377
 31
0.0
  0
LINE
  8
0
 62
     0
 10
154.138
 20
3.01377
 30
0.0
 11
155.863
 21
3.01377
 31
0.0
  0
LINE
  8
0
 62
     0
 10
155.863
 20
3.01377
 30
0.0
 11
155.863
 21
9.28384
 31
0.0
  0
LINE
  8
0
 62
     0
 10
155.863
 20
9.28384
 30
0.0
 11
156.687
 21
9.28384
 31
0.0
  0
LINE
  8
0
 62
     0
 10
156.687
 20
9.28384
 30
0.0
 11
156.687
 21
12.0826
 31
0.0
  0
LINE
  8
0
 62
     0
 10
156.687
 20
12.0826
 30
0.0
 11
155.863
 21
12.0826
 31
0.0
  0
LINE
  8
0
 62
     0
 10
155.863
 20
12.0826
 30
0.0
 11
155.863
 21
15.3128
 31
0.0
  0
LINE
  8
0
 62
     0
 10
155.863
 20
15.3128
 30
0.0
 11
154.138
 21
15.3128
 31
0.0
  0
LINE
  8
0
 62
     0
 10
154.138
 20
15.3128
 30
0.0
 11
154.138
 21
16.2347
 31
0.0
  0
LINE
  8
0
 62
     0
 10
154.138
 20
16.2347
 30
0.0
 11
150.837
 21
16.2347
 31
0.0
  0
LINE
  8
0
 62
     0
 10
150.837
 20
16.2347
 30
0.0
 11
150.837
 21
15.3128
 31
0.0
  0
LINE
  8
0
 62
     0
 10
150.837
 20
15.3128
 30
0.0
 11
149.112
 21
15.3128
 31
0.0
  0
LINE
  8
0
 62
     0
 10
149.112
 20
15.3128
 30
0.0
 11
149.112
 21
12.0826
 31
0.0
  0
LINE
  8
0
 62
     0
 10
149.112
 20
12.0826
 30
0.0
 11
147.588
 21
12.0826
 31
0.0
  0
LINE
  8
0
 62
     0
 10
147.588
 20
12.0826
 30
0.0
 11
147.588
 21
16.7831
 31
0.0
  0
LINE
  8
0
 62
     0
 10
147.588
 20
16.7831
 30
0.0
 11
133.587
 21
16.7831
 31
0.0
  0
LINE
  8
0
 62
     0
 10
2.61965
 20
16.7831
 30
0.0
 11
16.6192
 21
16.7831
 31
0.0
  0
LINE
  8
0
 62
     0
 10
16.6192
 20
16.7831
 30
0.0
 11
16.6192
 21
2.78364
 31
0.0
  0
LINE
  8
0
 62
     0
 10
16.6192
 20
2.78364
 30
0.0
 11
2.61965
 21
2.78364
 31
0.0
  0
LINE
  8
0
 62
     0
 10
2.61965
 20
2.78364
 30
0.0
 11
2.61965
 21
16.7831
 31
0.0
  0
LINE
  8
0
 62
     0
 10
21.6697
 20
16.7831
 30
0.0
 11
35.669
 21
16.7831
 31
0.0
  0
LINE
  8
0
 62
     0
 10
35.669
 20
16.7831
 30
0.0
 11
35.669
 21
2.78364
 31
0.0
  0
LINE
  8
0
 62
     0
 10
35.669
 20
2.78364
 30
0.0
 11
21.6697
 21
2.78364
 31
0.0
  0
LINE
  8
0
 62
     0
 10
21.6697
 20
2.78364
 30
0.0
 11
21.6697
 21
16.7831
 31
0.0
  0
LINE
  8
0
 62
     0
 10
40.7197
 20
16.7831
 30
0.0
 11
54.719
 21
16.7831
 31
0.0
  0
LINE
  8
0
 62
     0
 10
54.719
 20
16.7831
 30
0.0
 11
54.719
 21
2.78364
 31
0.0
  0
LINE
  8
0
 62
     0
 10
54.719
 20
2.78364
 30
0.0
 11
40.7197
 21
2.78364
 31
0.0
  0
LINE
  8
0
 62
     0
 10
40.7197
 20
2.78364
 30
0.0
 11
40.7197
 21
16.7831
 31
0.0
  0
LINE
  8
0
 62
     0
 10
59.7697
 20
16.7831
 30
0.0
 11
73.769
 21
16.7831
 31
0.0
  0
LINE
  8
0
 62
     0
 10
73.769
 20
16.7831
 30
0.0
 11
73.769
 21
2.78364
 31
0.0
  0
LINE
  8
0
 62
     0
 10
73.769
 20
2.78364
 30
0.0
 11
59.7697
 21
2.78364
 31
0.0
  0
LINE
  8
0
 62
     0
 10
59.7697
 20
2.78364
 30
0.0
 11
59.7697
 21
16.7831
 31
0.0
  0
LINE
  8
0
 62
     0
 10
164.545
 20
16.7831
 30
0.0
 11
178.544
 21
16.7831
 31
0.0
  0
LINE
  8
0
 62
     0
 10
178.544
 20
16.7831
 30
0.0
 11
178.544
 21
2.78364
 31
0.0
  0
LINE
  8
0
 62
     0
 10
178.544
 20
2.78364
 30
0.0
 11
164.545
 21
2.78364
 31
0.0
  0
LINE
  8
0
 62
     0
 10
164.545
 20
2.78364
 30
0.0
 11
164.545
 21
16.7831
 31
0.0
  0
LINE
  8
0
 62
     0
 10
185.976
 20
16.7831
 30
0.0
 11
199.975
 21
16.7831
 31
0.0
  0
LINE
  8
0
 62
     0
 10
199.975
 20
16.7831
 30
0.0
 11
199.975
 21
2.78364
 31
0.0
  0
LINE
  8
0
 62
     0
 10
199.975
 20
2.78364
 30
0.0
 11
185.976
 21
2.78364
 31
0.0
  0
LINE
  8
0
 62
     0
 10
185.976
 20
2.78364
 30
0.0
 11
185.976
 21
16.7831
 31
0.0
  0
LINE
  8
0
 62
     0
 10
207.407
 20
16.7831
 30
0.0
 11
221.407
 21
16.7831
 31
0.0
  0
LINE
  8
0
 62
     0
 10
221.407
 20
16.7831
 30
0.0
 11
221.407
 21
2.78364
 31
0.0
  0
LINE
  8
0
 62
     0
 10
221.407
 20
2.78364
 30
0.0
 11
207.407
 21
2.78364
 31
0.0
  0
LINE
  8
0
 62
     0
 10
207.407
 20
2.78364
 30
0.0
 11
207.407
 21
16.7831
 31
0.0
  0
LINE
  8
0
 62
     0
 10
228.837
 20
16.7831
 30
0.0
 11
242.838
 21
16.7831
 31
0.0
  0
LINE
  8
0
 62
     0
 10
242.838
 20
16.7831
 30
0.0
 11
242.838
 21
2.78364
 31
0.0
  0
LINE
  8
0
 62
     0
 10
242.838
 20
2.78364
 30
0.0
 11
228.837
 21
2.78364
 31
0.0
  0
LINE
  8
0
 62
     0
 10
228.837
 20
2.78364
 30
0.0
 11
228.837
 21
16.7831
 31
0.0
  0
LINE
  8
0
 62
     0
 10
9.76203
 20
35.833
 30
0.0
 11
23.7629
 21
35.833
 31
0.0
  0
LINE
  8
0
 62
     0
 10
23.7629
 20
35.833
 30
0.0
 11
23.7629
 21
21.8336
 31
0.0
  0
LINE
  8
0
 62
     0
 10
23.7629
 20
21.8336
 30
0.0
 11
9.76203
 21
21.8336
 31
0.0
  0
LINE
  8
0
 62
     0
 10
9.76203
 20
21.8336
 30
0.0
 11
9.76203
 21
35.833
 31
0.0
  0
LINE
  8
0
 62
     0
 10
35.9572
 20
35.833
 30
0.0
 11
49.9565
 21
35.833
 31
0.0
  0
LINE
  8
0
 62
     0
 10
49.9565
 20
35.833
 30
0.0
 11
49.9565
 21
21.8336
 31
0.0
  0
LINE
  8
0
 62
     0
 10
49.9565
 20
21.8336
 30
0.0
 11
35.9572
 21
21.8336
 31
0.0
  0
LINE
  8
0
 62
     0
 10
35.9572
 20
21.8336
 30
0.0
 11
35.9572
 21
35.833
 31
0.0
  0
LINE
  8
0
 62
     0
 10
55.0072
 20
35.833
 30
0.0
 11
69.0065
 21
35.833
 31
0.0
  0
LINE
  8
0
 62
     0
 10
69.0065
 20
35.833
 30
0.0
 11
69.0065
 21
21.8336
 31
0.0
  0
LINE
  8
0
 62
     0
 10
69.0065
 20
21.8336
 30
0.0
 11
55.0072
 21
21.8336
 31
0.0
  0
LINE
  8
0
 62
     0
 10
55.0072
 20
21.8336
 30
0.0
 11
55.0072
 21
35.833
 31
0.0
  0
LINE
  8
0
 62
     0
 10
74.0572
 20
35.833
 30
0.0
 11
88.0565
 21
35.833
 31
0.0
  0
LINE
  8
0
 62
     0
 10
88.0565
 20
35.833
 30
0.0
 11
88.0565
 21
21.8336
 31
0.0
  0
LINE
  8
0
 62
     0
 10
88.0565
 20
21.8336
 30
0.0
 11
74.0572
 21
21.8336
 31
0.0
  0
LINE
  8
0
 62
     0
 10
74.0572
 20
21.8336
 30
0.0
 11
74.0572
 21
35.833
 31
0.0
  0
LINE
  8
0
 62
     0
 10
93.1072
 20
35.833
 30
0.0
 11
107.107
 21
35.833
 31
0.0
  0
LINE
  8
0
 62
     0
 10
107.107
 20
35.833
 30
0.0
 11
107.107
 21
21.8336
 31
0.0
  0
LINE
  8
0
 62
     0
 10
107.107
 20
21.8336
 30
0.0
 11
93.1072
 21
21.8336
 31
0.0
  0
LINE
  8
0
 62
     0
 10
93.1072
 20
21.8336
 30
0.0
 11
93.1072
 21
35.833
 31
0.0
  0
LINE
  8
0
 62
     0
 10
112.157
 20
35.833
 30
0.0
 11
126.157
 21
35.833
 31
0.0
  0
LINE
  8
0
 62
     0
 10
126.157
 20
35.833
 30
0.0
 11
126.157
 21
21.8336
 31
0.0
  0
LINE
  8
0
 62
     0
 10
126.157
 20
21.8336
 30
0.0
 11
112.157
 21
21.8336
 31
0.0
  0
LINE
  8
0
 62
     0
 10
112.157
 20
21.8336
 30
0.0
 11
112.157
 21
35.833
 31
0.0
  0
LINE
  8
0
 62
     0
 10
131.207
 20
35.833
 30
0.0
 11
145.207
 21
35.833
 31
0.0
  0
LINE
  8
0
 62
     0
 10
145.207
 20
35.833
 30
0.0
 11
145.207
 21
21.8336
 31
0.0
  0
LINE
  8
0
 62
     0
 10
145.207
 20
21.8336
 30
0.0
 11
131.207
 21
21.8336
 31
0.0
  0
LINE
  8
0
 62
     0
 10
131.207
 20
21.8336
 30
0.0
 11
131.207
 21
35.833
 31
0.0
  0
LINE
  8
0
 62
     0
 10
150.257
 20
35.833
 30
0.0
 11
164.257
 21
35.833
 31
0.0
  0
LINE
  8
0
 62
     0
 10
164.257
 20
35.833
 30
0.0
 11
164.257
 21
21.8336
 31
0.0
  0
LINE
  8
0
 62
     0
 10
164.257
 20
21.8336
 30
0.0
 11
150.257
 21
21.8336
 31
0.0
  0
LINE
  8
0
 62
     0
 10
150.257
 20
21.8336
 30
0.0
 11
150.257
 21
35.833
 31
0.0
  0
LINE
  8
0
 62
     0
 10
169.307
 20
35.833
 30
0.0
 11
183.307
 21
35.833
 31
0.0
  0
LINE
  8
0
 62
     0
 10
183.307
 20
35.833
 30
0.0
 11
183.307
 21
21.8336
 31
0.0
  0
LINE
  8
0
 62
     0
 10
183.307
 20
21.8336
 30
0.0
 11
169.307
 21
21.8336
 31
0.0
  0
LINE
  8
0
 62
     0
 10
169.307
 20
21.8336
 30
0.0
 11
169.307
 21
35.833
 31
0.0
  0
LINE
  8
0
 62
     0
 10
188.357
 20
35.833
 30
0.0
 11
202.357
 21
35.833
 31
0.0
  0
LINE
  8
0
 62
     0
 10
202.357
 20
35.833
 30
0.0
 11
202.357
 21
21.8336
 31
0.0
  0
LINE
  8
0
 62
     0
 10
202.357
 20
21.8336
 30
0.0
 11
188.357
 21
21.8336
 31
0.0
  0
LINE
  8
0
 62
     0
 10
188.357
 20
21.8336
 30
0.0
 11
188.357
 21
35.833
 31
0.0
  0
LINE
  8
0
 62
     0
 10
207.407
 20
35.833
 30
0.0
 11
221.407
 21
35.833
 31
0.0
  0
LINE
  8
0
 62
     0
 10
221.407
 20
35.833
 30
0.0
 11
221.407
 21
21.8336
 31
0.0
  0
LINE
  8
0
 62
     0
 10
221.407
 20
21.8336
 30
0.0
 11
207.407
 21
21.8336
 31
0.0
  0
LINE
  8
0
 62
     0
 10
207.407
 20
21.8336
 30
0.0
 11
207.407
 21
35.833
 31
0.0
  0
LINE
  8
0
 62
     0
 10
228.837
 20
35.833
 30
0.0
 11
242.838
 21
35.833
 31
0.0
  0
LINE
  8
0
 62
     0
 10
242.838
 20
35.833
 30
0.0
 11
242.838
 21
21.8336
 31
0.0
  0
LINE
  8
0
 62
     0
 10
242.838
 20
21.8336
 30
0.0
 11
228.837
 21
21.8336
 31
0.0
  0
LINE
  8
0
 62
     0
 10
228.837
 20
21.8336
 30
0.0
 11
228.837
 21
35.833
 31
0.0
  0
LINE
  8
0
 62
     0
 10
5.00091
 20
54.8831
 30
0.0
 11
19.0004
 21
54.8831
 31
0.0
  0
LINE
  8
0
 62
     0
 10
19.0004
 20
54.8831
 30
0.0
 11
19.0004
 21
40.8838
 31
0.0
  0
LINE
  8
0
 62
     0
 10
19.0004
 20
40.8838
 30
0.0
 11
5.00091
 21
40.8838
 31
0.0
  0
LINE
  8
0
 62
     0
 10
5.00091
 20
40.8838
 30
0.0
 11
5.00091
 21
54.8831
 31
0.0
  0
LINE
  8
0
 62
     0
 10
26.4322
 20
54.8831
 30
0.0
 11
40.4315
 21
54.8831
 31
0.0
  0
LINE
  8
0
 62
     0
 10
40.4315
 20
54.8831
 30
0.0
 11
40.4315
 21
40.8838
 31
0.0
  0
LINE
  8
0
 62
     0
 10
40.4315
 20
40.8838
 30
0.0
 11
26.4322
 21
40.8838
 31
0.0
  0
LINE
  8
0
 62
     0
 10
26.4322
 20
40.8838
 30
0.0
 11
26.4322
 21
54.8831
 31
0.0
  0
LINE
  8
0
 62
     0
 10
45.4822
 20
54.8831
 30
0.0
 11
59.4815
 21
54.8831
 31
0.0
  0
LINE
  8
0
 62
     0
 10
59.4815
 20
54.8831
 30
0.0
 11
59.4815
 21
40.8838
 31
0.0
  0
LINE
  8
0
 62
     0
 10
59.4815
 20
40.8838
 30
0.0
 11
45.4822
 21
40.8838
 31
0.0
  0
LINE
  8
0
 62
     0
 10
45.4822
 20
40.8838
 30
0.0
 11
45.4822
 21
54.8831
 31
0.0
  0
LINE
  8
0
 62
     0
 10
64.5322
 20
54.8831
 30
0.0
 11
78.5315
 21
54.8831
 31
0.0
  0
LINE
  8
0
 62
     0
 10
78.5315
 20
54.8831
 30
0.0
 11
78.5315
 21
40.8838
 31
0.0
  0
LINE
  8
0
 62
     0
 10
78.5315
 20
40.8838
 30
0.0
 11
64.5322
 21
40.8838
 31
0.0
  0
LINE
  8
0
 62
     0
 10
64.5322
 20
40.8838
 30
0.0
 11
64.5322
 21
54.8831
 31
0.0
  0
LINE
  8
0
 62
     0
 10
83.5822
 20
54.8831
 30
0.0
 11
97.5815
 21
54.8831
 31
0.0
  0
LINE
  8
0
 62
     0
 10
97.5815
 20
54.8831
 30
0.0
 11
97.5815
 21
40.8838
 31
0.0
  0
LINE
  8
0
 62
     0
 10
97.5815
 20
40.8838
 30
0.0
 11
83.5822
 21
40.8838
 31
0.0
  0
LINE
  8
0
 62
     0
 10
83.5822
 20
40.8838
 30
0.0
 11
83.5822
 21
54.8831
 31
0.0
  0
LINE
  8
0
 62
     0
 10
102.632
 20
54.8831
 30
0.0
 11
116.632
 21
54.8831
 31
0.0
  0
LINE
  8
0
 62
     0
 10
116.632
 20
54.8831
 30
0.0
 11
116.632
 21
40.8838
 31
0.0
  0
LINE
  8
0
 62
     0
 10
116.632
 20
40.8838
 30
0.0
 11
102.632
 21
40.8838
 31
0.0
  0
LINE
  8
0
 62
     0
 10
102.632
 20
40.8838
 30
0.0
 11
102.632
 21
54.8831
 31
0.0
  0
LINE
  8
0
 62
     0
 10
121.682
 20
54.8831
 30
0.0
 11
135.682
 21
54.8831
 31
0.0
  0
LINE
  8
0
 62
     0
 10
135.682
 20
54.8831
 30
0.0
 11
135.682
 21
40.8838
 31
0.0
  0
LINE
  8
0
 62
     0
 10
135.682
 20
40.8838
 30
0.0
 11
121.682
 21
40.8838
 31
0.0
  0
LINE
  8
0
 62
     0
 10
121.682
 20
40.8838
 30
0.0
 11
121.682
 21
54.8831
 31
0.0
  0
LINE
  8
0
 62
     0
 10
140.732
 20
54.8831
 30
0.0
 11
154.732
 21
54.8831
 31
0.0
  0
LINE
  8
0
 62
     0
 10
154.732
 20
54.8831
 30
0.0
 11
154.732
 21
40.8838
 31
0.0
  0
LINE
  8
0
 62
     0
 10
154.732
 20
40.8838
 30
0.0
 11
140.732
 21
40.8838
 31
0.0
  0
LINE
  8
0
 62
     0
 10
140.732
 20
40.8838
 30
0.0
 11
140.732
 21
54.8831
 31
0.0
  0
LINE
  8
0
 62
     0
 10
159.782
 20
54.8831
 30
0.0
 11
173.782
 21
54.8831
 31
0.0
  0
LINE
  8
0
 62
     0
 10
173.782
 20
54.8831
 30
0.0
 11
173.782
 21
40.8838
 31
0.0
  0
LINE
  8
0
 62
     0
 10
173.782
 20
40.8838
 30
0.0
 11
159.782
 21
40.8838
 31
0.0
  0
LINE
  8
0
 62
     0
 10
159.782
 20
40.8838
 30
0.0
 11
159.782
 21
54.8831
 31
0.0
  0
LINE
  8
0
 62
     0
 10
178.832
 20
54.8831
 30
0.0
 11
192.832
 21
54.8831
 31
0.0
  0
LINE
  8
0
 62
     0
 10
192.832
 20
54.8831
 30
0.0
 11
192.832
 21
40.8838
 31
0.0
  0
LINE
  8
0
 62
     0
 10
192.832
 20
40.8838
 30
0.0
 11
178.832
 21
40.8838
 31
0.0
  0
LINE
  8
0
 62
     0
 10
178.832
 20
40.8838
 30
0.0
 11
178.832
 21
54.8831
 31
0.0
  0
LINE
  8
0
 62
     0
 10
197.882
 20
54.8831
 30
0.0
 11
211.882
 21
54.8831
 31
0.0
  0
LINE
  8
0
 62
     0
 10
211.882
 20
54.8831
 30
0.0
 11
211.882
 21
40.8838
 31
0.0
  0
LINE
  8
0
 62
     0
 10
211.882
 20
40.8838
 30
0.0
 11
197.882
 21
40.8838
 31
0.0
  0
LINE
  8
0
 62
     0
 10
197.882
 20
40.8838
 30
0.0
 11
197.882
 21
54.8831
 31
0.0
  0
LINE
  8
0
 62
     0
 10
224.076
 20
54.8831
 30
0.0
 11
238.075
 21
54.8831
 31
0.0
  0
LINE
  8
0
 62
     0
 10
238.075
 20
54.8831
 30
0.0
 11
238.075
 21
40.8838
 31
0.0
  0
LINE
  8
0
 62
     0
 10
238.075
 20
40.8838
 30
0.0
 11
224.076
 21
40.8838
 31
0.0
  0
LINE
  8
0
 62
     0
 10
224.076
 20
40.8838
 30
0.0
 11
224.076
 21
54.8831
 31
0.0
  0
LINE
  8
0
 62
     0
 10
2.61965
 20
73.9331
 30
0.0
 11
16.6192
 21
73.9331
 31
0.0
  0
LINE
  8
0
 62
     0
 10
16.6192
 20
73.9331
 30
0.0
 11
16.6192
 21
59.9338
 31
0.0
  0
LINE
  8
0
 62
     0
 10
16.6192
 20
59.9338
 30
0.0
 11
2.61965
 21
59.9338
 31
0.0
  0
LINE
  8
0
 62
     0
 10
2.61965
 20
59.9338
 30
0.0
 11
2.61965
 21
73.9331
 31
0.0
  0
LINE
  8
0
 62
     0
 10
21.6697
 20
73.9331
 30
0.0
 11
35.669
 21
73.9331
 31
0.0
  0
LINE
  8
0
 62
     0
 10
35.669
 20
73.9331
 30
0.0
 11
35.669
 21
59.9338
 31
0.0
  0
LINE
  8
0
 62
     0
 10
35.669
 20
59.9338
 30
0.0
 11
21.6697
 21
59.9338
 31
0.0
  0
LINE
  8
0
 62
     0
 10
21.6697
 20
59.9338
 30
0.0
 11
21.6697
 21
73.9331
 31
0.0
  0
LINE
  8
0
 62
     0
 10
40.7197
 20
73.9331
 30
0.0
 11
54.719
 21
73.9331
 31
0.0
  0
LINE
  8
0
 62
     0
 10
54.719
 20
73.9331
 30
0.0
 11
54.719
 21
59.9338
 31
0.0
  0
LINE
  8
0
 62
     0
 10
54.719
 20
59.9338
 30
0.0
 11
40.7197
 21
59.9338
 31
0.0
  0
LINE
  8
0
 62
     0
 10
40.7197
 20
59.9338
 30
0.0
 11
40.7197
 21
73.9331
 31
0.0
  0
LINE
  8
0
 62
     0
 10
59.7697
 20
73.9331
 30
0.0
 11
73.769
 21
73.9331
 31
0.0
  0
LINE
  8
0
 62
     0
 10
73.769
 20
73.9331
 30
0.0
 11
73.769
 21
59.9338
 31
0.0
  0
LINE
  8
0
 62
     0
 10
73.769
 20
59.9338
 30
0.0
 11
59.7697
 21
59.9338
 31
0.0
  0
LINE
  8
0
 62
     0
 10
59.7697
 20
59.9338
 30
0.0
 11
59.7697
 21
73.9331
 31
0.0
  0
LINE
  8
0
 62
     0
 10
78.8197
 20
73.9331
 30
0.0
 11
92.819
 21
73.9331
 31
0.0
  0
LINE
  8
0
 62
     0
 10
92.819
 20
73.9331
 30
0.0
 11
92.819
 21
59.9338
 31
0.0
  0
LINE
  8
0
 62
     0
 10
92.819
 20
59.9338
 30
0.0
 11
78.8197
 21
59.9338
 31
0.0
  0
LINE
  8
0
 62
     0
 10
78.8197
 20
59.9338
 30
0.0
 11
78.8197
 21
73.9331
 31
0.0
  0
LINE
  8
0
 62
     0
 10
97.8683
 20
73.9331
 30
0.0
 11
111.869
 21
73.9331
 31
0.0
  0
LINE
  8
0
 62
     0
 10
111.869
 20
73.9331
 30
0.0
 11
111.869
 21
59.9338
 31
0.0
  0
LINE
  8
0
 62
     0
 10
111.869
 20
59.9338
 30
0.0
 11
97.8683
 21
59.9338
 31
0.0
  0
LINE
  8
0
 62
     0
 10
97.8683
 20
59.9338
 30
0.0
 11
97.8683
 21
73.9331
 31
0.0
  0
LINE
  8
0
 62
     0
 10
116.918
 20
73.9331
 30
0.0
 11
130.919
 21
73.9331
 31
0.0
  0
LINE
  8
0
 62
     0
 10
130.919
 20
73.9331
 30
0.0
 11
130.919
 21
59.9338
 31
0.0
  0
LINE
  8
0
 62
     0
 10
130.919
 20
59.9338
 30
0.0
 11
116.918
 21
59.9338
 31
0.0
  0
LINE
  8
0
 62
     0
 10
116.918
 20
59.9338
 30
0.0
 11
116.918
 21
73.9331
 31
0.0
  0
LINE
  8
0
 62
     0
 10
135.97
 20
73.9331
 30
0.0
 11
149.969
 21
73.9331
 31
0.0
  0
LINE
  8
0
 62
     0
 10
149.969
 20
73.9331
 30
0.0
 11
149.969
 21
59.9338
 31
0.0
  0
LINE
  8
0
 62
     0
 10
149.969
 20
59.9338
 30
0.0
 11
135.97
 21
59.9338
 31
0.0
  0
LINE
  8
0
 62
     0
 10
135.97
 20
59.9338
 30
0.0
 11
135.97
 21
73.9331
 31
0.0
  0
LINE
  8
0
 62
     0
 10
155.02
 20
73.9331
 30
0.0
 11
169.019
 21
73.9331
 31
0.0
  0
LINE
  8
0
 62
     0
 10
169.019
 20
73.9331
 30
0.0
 11
169.019
 21
59.9338
 31
0.0
  0
LINE
  8
0
 62
     0
 10
169.019
 20
59.9338
 30
0.0
 11
155.02
 21
59.9338
 31
0.0
  0
LINE
  8
0
 62
     0
 10
155.02
 20
59.9338
 30
0.0
 11
155.02
 21
73.9331
 31
0.0
  0
LINE
  8
0
 62
     0
 10
174.07
 20
73.9331
 30
0.0
 11
188.069
 21
73.9331
 31
0.0
  0
LINE
  8
0
 62
     0
 10
188.069
 20
73.9331
 30
0.0
 11
188.069
 21
59.9338
 31
0.0
  0
LINE
  8
0
 62
     0
 10
188.069
 20
59.9338
 30
0.0
 11
174.07
 21
59.9338
 31
0.0
  0
LINE
  8
0
 62
     0
 10
174.07
 20
59.9338
 30
0.0
 11
174.07
 21
73.9331
 31
0.0
  0
LINE
  8
0
 62
     0
 10
193.12
 20
73.9331
 30
0.0
 11
207.119
 21
73.9331
 31
0.0
  0
LINE
  8
0
 62
     0
 10
207.119
 20
73.9331
 30
0.0
 11
207.119
 21
59.9338
 31
0.0
  0
LINE
  8
0
 62
     0
 10
207.119
 20
59.9338
 30
0.0
 11
193.12
 21
59.9338
 31
0.0
  0
LINE
  8
0
 62
     0
 10
193.12
 20
59.9338
 30
0.0
 11
193.12
 21
73.9331
 31
0.0
  0
LINE
  8
0
 62
     0
 10
212.17
 20
73.9331
 30
0.0
 11
226.169
 21
73.9331
 31
0.0
  0
LINE
  8
0
 62
     0
 10
226.169
 20
73.9331
 30
0.0
 11
226.169
 21
59.9338
 31
0.0
  0
LINE
  8
0
 62
     0
 10
226.169
 20
59.9338
 30
0.0
 11
212.17
 21
59.9338
 31
0.0
  0
LINE
  8
0
 62
     0
 10
212.17
 20
59.9338
 30
0.0
 11
212.17
 21
73.9331
 31
0.0
  0
LINE
  8
0
 62
     0
 10
231.22
 20
73.9331
 30
0.0
 11
245.219
 21
73.9331
 31
0.0
  0
LINE
  8
0
 62
     0
 10
245.219
 20
73.9331
 30
0.0
 11
245.219
 21
59.9338
 31
0.0
  0
LINE
  8
0
 62
     0
 10
245.219
 20
59.9338
 30
0.0
 11
231.22
 21
59.9338
 31
0.0
  0
LINE
  8
0
 62
     0
 10
231.22
 20
59.9338
 30
0.0
 11
231.22
 21
73.9331
 31
0.0
  0
ENDSEC
  0
EOF
