999
dxfrw 0.6.3
  0
SECTION
  2
HEADER
  9
$ACADVER
  1
AC1021
  9
$DWGCODEPAGE
  3
ANSI_1252
  9
$INSBASE
 10
0
 20
0
 30
0
  9
$EXTMIN
 10
-146.093063310258
 20
-18.19366364961846
 30
0
  9
$EXTMAX
 10
146.0930632817761
 20
117.5361392506514
 30
0
  9
$LIMMIN
 10
0
 20
0
  9
$LIMMAX
 10
420
 20
297
  9
$ORTHOMODE
 70
    0
  9
$REGENMODE
 70
    1
  9
$FILLMODE
 70
    1
  9
$QTEXTMODE
 70
    0
  9
$MIRRTEXT
 70
    0
  9
$LTSCALE
 40
1
  9
$ATTMODE
 70
    0
  9
$TEXTSIZE
 40
2.5
  9
$TRACEWID
 40
15.68
  9
$TEXTSTYLE
  7
STANDARD
  9
$CLAYER
  8
noname5
  9
$CELTYPE
  6
BYLAYER
  9
$CECOLOR
 62
  256
  9
$CELTSCALE
 40
1
  9
$DISPSILH
 70
    0
  9
$DIMSCALE
 40
2.5
  9
$DIMASZ
 40
2.5
  9
$DIMEXO
 40
0.625
  9
$DIMDLI
 40
3.75
  9
$DIMRND
 40
0
  9
$DIMDLE
 40
0
  9
$DIMEXE
 40
1.25
  9
$DIMTP
 40
0
  9
$DIMTM
 40
0
  9
$DIMTXT
 40
2.5
  9
$DIMCEN
 40
2.5
  9
$DIMTSZ
 40
0
  9
$DIMTOL
 70
    0
  9
$DIMLIM
 70
    0
  9
$DIMTIH
 70
    0
  9
$DIMTOH
 70
    0
  9
$DIMSE1
 70
    0
  9
$DIMSE2
 70
    0
  9
$DIMTAD
 70
    1
  9
$DIMZIN
 70
    8
  9
$DIMBLK
  1

  9
$DIMASO
 70
    1
  9
$DIMSHO
 70
    1
  9
$DIMPOST
  1

  9
$DIMAPOST
  1

  9
$DIMALT
 70
    0
  9
$DIMALTD
 70
    3
  9
$DIMALTF
 40
0.03937
  9
$DIMLFAC
 40
1
  9
$DIMTOFL
 70
    1
  9
$DIMTVP
 40
0
  9
$DIMTIX
 70
    0
  9
$DIMSOXD
 70
    0
  9
$DIMSAH
 70
    0
  9
$DIMBLK1
  1

  9
$DIMBLK2
  1

  9
$DIMSTYLE
  2
Standard
  9
$DIMCLRD
 70
    0
  9
$DIMCLRE
 70
    0
  9
$DIMCLRT
 70
    0
  9
$DIMTFAC
 40
1
  9
$DIMGAP
 40
0.625
  9
$DIMJUST
 70
    0
  9
$DIMSD1
 70
    0
  9
$DIMSD2
 70
    0
  9
$DIMTOLJ
 70
    0
  9
$DIMTZIN
 70
    8
  9
$DIMALTZ
 70
    0
  9
$DIMALTTZ
 70
    0
  9
$DIMUPT
 70
    0
  9
$DIMDEC
 70
    2
  9
$DIMTDEC
 70
    2
  9
$DIMALTU
 70
    2
  9
$DIMALTTD
 70
    3
  9
$DIMTXSTY
  7
STANDARD
  9
$DIMAUNIT
 70
    0
  9
$DIMADEC
 70
    0
  9
$DIMALTRND
 40
0
  9
$DIMAZIN
 70
    0
  9
$DIMDSEP
 70
   44
  9
$DIMATFIT
 70
    3
  9
$DIMFRAC
 70
    0
  9
$DIMLDRBLK
  1
STANDARD
  9
$DIMLUNIT
 70
    2
  9
$DIMLWD
 70
   -2
  9
$DIMLWE
 70
   -2
  9
$DIMTMOVE
 70
    0
  9
$DIMFXL
 40
1
  9
$DIMFXLON
 70
    0
  9
$DIMJOGANG
 40
0.7854
  9
$DIMTFILL
 70
    0
  9
$DIMTFILLCLR
 70
    0
  9
$DIMARCSYM
 70
    0
  9
$DIMLTYPE
  6

  9
$DIMLTEX1
  6

  9
$DIMLTEX2
  6

  9
$LUNITS
 70
    2
  9
$LUPREC
 70
    4
  9
$SKETCHINC
 40
1
  9
$FILLETRAD
 40
0
  9
$AUNITS
 70
    0
  9
$AUPREC
 70
    2
  9
$MENU
  1
.
  9
$ELEVATION
 40
0
  9
$PELEVATION
 40
0
  9
$THICKNESS
 40
0
  9
$LIMCHECK
 70
    0
  9
$CHAMFERA
 40
0
  9
$CHAMFERB
 40
0
  9
$CHAMFERC
 40
0
  9
$CHAMFERD
 40
0
  9
$SKPOLY
 70
    0
  9
$USRTIMER
 70
    1
  9
$ANGBASE
 50
0
  9
$ANGDIR
 70
    0
  9
$PDMODE
 70
   34
  9
$PDSIZE
 40
0
  9
$PLINEWID
 40
0
  9
$SPLFRAME
 70
    0
  9
$SPLINETYPE
 70
    2
  9
$SPLINESEGS
 70
    8
  9
$HANDSEED
  5
20000
  9
$SURFTAB1
 70
    6
  9
$SURFTAB2
 70
    6
  9
$SURFTYPE
 70
    6
  9
$SURFU
 70
    6
  9
$SURFV
 70
    6
  9
$UCSBASE
  2

  9
$UCSNAME
  2

  9
$UCSORG
 10
0
 20
0
 30
0
  9
$UCSXDIR
 10
1
 20
0
 30
0
  9
$UCSYDIR
 10
0
 20
1
 30
0
  9
$UCSORTHOREF
  2

  9
$UCSORTHOVIEW
 70
    0
  9
$UCSORGTOP
 10
0
 20
0
 30
0
  9
$UCSORGBOTTOM
 10
0
 20
0
 30
0
  9
$UCSORGLEFT
 10
0
 20
0
 30
0
  9
$UCSORGRIGHT
 10
0
 20
0
 30
0
  9
$UCSORGFRONT
 10
0
 20
0
 30
0
  9
$UCSORGBACK
 10
0
 20
0
 30
0
  9
$PUCSBASE
  2

  9
$PUCSNAME
  2

  9
$PUCSORG
 10
0
 20
0
 30
0
  9
$PUCSXDIR
 10
1
 20
0
 30
0
  9
$PUCSYDIR
 10
0
 20
1
 30
0
  9
$PUCSORTHOREF
  2

  9
$PUCSORTHOVIEW
 70
    0
  9
$PUCSORGTOP
 10
0
 20
0
 30
0
  9
$PUCSORGBOTTOM
 10
0
 20
0
 30
0
  9
$PUCSORGLEFT
 10
0
 20
0
 30
0
  9
$PUCSORGRIGHT
 10
0
 20
0
 30
0
  9
$PUCSORGFRONT
 10
0
 20
0
 30
0
  9
$PUCSORGBACK
 10
0
 20
0
 30
0
  9
$USERI1
 70
    0
  9
$USERI2
 70
    0
  9
$USERI3
 70
    0
  9
$USERI4
 70
    0
  9
$USERI5
 70
    0
  9
$USERR1
 40
0
  9
$USERR2
 40
0
  9
$USERR3
 40
0
  9
$USERR4
 40
0
  9
$USERR5
 40
0
  9
$WORLDVIEW
 70
    1
  9
$SHADEDGE
 70
    3
  9
$SHADEDIF
 70
   70
  9
$TILEMODE
 70
    1
  9
$MAXACTVP
 70
   64
  9
$PINSBASE
 10
0
 20
0
 30
0
  9
$PLIMCHECK
 70
    0
  9
$PEXTMIN
 10
0
 20
0
 30
0
  9
$PEXTMAX
 10
0
 20
0
 30
0
  9
$GRIDMODE
 70
    1
  9
$SNAPSTYLE
 70
    0
  9
$PLIMMIN
 10
0
 20
0
  9
$PLIMMAX
 10
210
 20
297
  9
$UNITMODE
 70
    0
  9
$VISRETAIN
 70
    1
  9
$PLINEGEN
 70
    0
  9
$PSLTSCALE
 70
    1
  9
$TREEDEPTH
 70
 3020
  9
$CMLSTYLE
  2
Standard
  9
$CMLJUST
 70
    0
  9
$CMLSCALE
 40
20
  9
$PROXYGRAPHICS
 70
    1
  9
$MEASUREMENT
 70
    1
  9
$CELWEIGHT
370
   -1
  9
$ENDCAPS
280
    0
  9
$JOINSTYLE
280
    0
  9
$LWDISPLAY
290
    0
  9
$INSUNITS
 70
    4
  9
$HYPERLINKBASE
  1

  9
$STYLESHEET
  1

  9
$XEDIT
290
    1
  9
$CEPSNTYPE
380
    0
  9
$PSTYLEMODE
290
    1
  9
$EXTNAMES
290
    1
  9
$PSVPSCALE
 40
1
  9
$OLESTARTUP
290
    0
  9
$SORTENTS
280
  127
  9
$INDEXCTL
280
    0
  9
$HIDETEXT
280
    1
  9
$XCLIPFRAME
290
    0
  9
$HALOGAP
280
    0
  9
$OBSCOLOR
 70
  257
  9
$OBSLTYPE
280
    0
  9
$INTERSECTIONDISPLAY
280
    0
  9
$INTERSECTIONCOLOR
 70
  257
  9
$DIMASSOC
280
    1
  9
$PROJECTNAME
  1

  9
$CAMERADISPLAY
290
    0
  9
$LENSLENGTH
 40
50
  9
$CAMERAHEIGHT
 40
0
  9
$STEPSPERSEC
 40
2
  9
$STEPSIZE
 40
50
  9
$3DDWFPREC
 40
2
  9
$PSOLWIDTH
 40
5
  9
$PSOLHEIGHT
 40
80
  9
$LOFTANG1
 40
1.570796326794897
  9
$LOFTANG2
 40
1.570796326794897
  9
$LOFTMAG1
 40
0
  9
$LOFTMAG2
 40
0
  9
$LOFTPARAM
 70
    7
  9
$LOFTNORMALS
280
    1
  9
$LATITUDE
 40
1
  9
$LONGITUDE
 40
1
  9
$NORTHDIRECTION
 40
0
  9
$TIMEZONE
 70
-8000
  9
$LIGHTGLYPHDISPLAY
280
    1
  9
$TILEMODELIGHTSYNCH
280
    1
  9
$SOLIDHIST
280
    1
  9
$SHOWHIST
280
    1
  9
$DWFFRAME
280
    2
  9
$DGNFRAME
280
    0
  9
$REALWORLDSCALE
290
    1
  9
$INTERFERECOLOR
 62
    1
  9
$CSHADOW
280
    0
  9
$SHADOWPLANELOCATION
 40
0
  0
ENDSEC
  0
SECTION
  2
CLASSES
  0
ENDSEC
  0
SECTION
  2
TABLES
  0
TABLE
  2
VPORT
  5
8
330
0
100
AcDbSymbolTable
 70
    1
  0
VPORT
  5
31
330
2
100
AcDbSymbolTableRecord
100
AcDbViewportTableRecord
  2
*ACTIVE
 70
    0
 10
0
 20
0
 11
1
 21
1
 12
74.16687722543199
 22
70.35770226219228
 13
0
 23
0
 14
10
 24
10
 15
10
 25
10
 16
0
 26
0
 36
1
 17
0
 27
0
 37
0
 40
181.9441217735673
 41
1.630541871921182
 42
50
 43
0
 44
0
 50
0
 51
0
 71
    0
 72
  100
 73
    1
 74
    3
 75
    0
 76
    1
 77
    0
 78
    0
281
    0
 65
    1
110
0
120
0
130
0
111
1
121
0
131
0
112
0
122
1
132
0
 79
    0
146
0
348
10020
 60
    7
 61
    5
292
1
282
    1
141
0
142
0
 63
  250
421
3358443
  0
ENDTAB
  0
TABLE
  2
LTYPE
  5
5
330
0
100
AcDbSymbolTable
 70
    4
  0
LTYPE
  5
14
330
5
100
AcDbSymbolTableRecord
100
AcDbLinetypeTableRecord
  2
ByBlock
 70
    0
  3

 72
   65
 73
    0
 40
0
  0
LTYPE
  5
15
330
5
100
AcDbSymbolTableRecord
100
AcDbLinetypeTableRecord
  2
ByLayer
 70
    0
  3

 72
   65
 73
    0
 40
0
  0
LTYPE
  5
16
330
5
100
AcDbSymbolTableRecord
100
AcDbLinetypeTableRecord
  2
Continuous
 70
    0
  3
Solid line
 72
   65
 73
    0
 40
0
  0
LTYPE
  5
32
330
5
100
AcDbSymbolTableRecord
100
AcDbLinetypeTableRecord
  2
DOT
 70
    0
  3
Dot . . . . . . . . . . . . . . . . . . . . . .
 72
   65
 73
    2
 40
6.35
 49
0
 74
    0
 49
-6.35
 74
    0
  0
LTYPE
  5
33
330
5
100
AcDbSymbolTableRecord
100
AcDbLinetypeTableRecord
  2
DOTTINY
 70
    0
  3
Dot (.15x) .....................................
 72
   65
 73
    2
 40
0.9525
 49
0
 74
    0
 49
-0.9525
 74
    0
  0
LTYPE
  5
34
330
5
100
AcDbSymbolTableRecord
100
AcDbLinetypeTableRecord
  2
DOT2
 70
    0
  3
Dot (.5x) .....................................
 72
   65
 73
    2
 40
3.175
 49
0
 74
    0
 49
-3.175
 74
    0
  0
LTYPE
  5
35
330
5
100
AcDbSymbolTableRecord
100
AcDbLinetypeTableRecord
  2
DOTX2
 70
    0
  3
Dot (2x) .  .  .  .  .  .  .  .  .  .  .  .  .
 72
   65
 73
    2
 40
12.7
 49
0
 74
    0
 49
-12.7
 74
    0
  0
LTYPE
  5
36
330
5
100
AcDbSymbolTableRecord
100
AcDbLinetypeTableRecord
  2
DASHED
 70
    0
  3
Dashed _ _ _ _ _ _ _ _ _ _ _ _ _ _ _ _ _
 72
   65
 73
    2
 40
19.05
 49
12.7
 74
    0
 49
-6.35
 74
    0
  0
LTYPE
  5
37
330
5
100
AcDbSymbolTableRecord
100
AcDbLinetypeTableRecord
  2
DASHEDTINY
 70
    0
  3
Dashed (.15x) _ _ _ _ _ _ _ _ _ _ _ _ _ _ _ _ _
 72
   65
 73
    2
 40
2.8575
 49
1.905
 74
    0
 49
-0.9525
 74
    0
  0
LTYPE
  5
38
330
5
100
AcDbSymbolTableRecord
100
AcDbLinetypeTableRecord
  2
DASHED2
 70
    0
  3
Dashed (.5x) _ _ _ _ _ _ _ _ _ _ _ _ _ _ _ _ _
 72
   65
 73
    2
 40
9.524999999999999
 49
6.35
 74
    0
 49
-3.175
 74
    0
  0
LTYPE
  5
39
330
5
100
AcDbSymbolTableRecord
100
AcDbLinetypeTableRecord
  2
DASHEDX2
 70
    0
  3
Dashed (2x) ____  ____  ____  ____  ____  ___
 72
   65
 73
    2
 40
38.09999999999999
 49
25.4
 74
    0
 49
-12.7
 74
    0
  0
LTYPE
  5
3A
330
5
100
AcDbSymbolTableRecord
100
AcDbLinetypeTableRecord
  2
DASHDOT
 70
    0
  3
Dash dot __ . __ . __ . __ . __ . __ . __ . __
 72
   65
 73
    4
 40
25.4
 49
12.7
 74
    0
 49
-6.35
 74
    0
 49
0
 74
    0
 49
-6.35
 74
    0
  0
LTYPE
  5
3B
330
5
100
AcDbSymbolTableRecord
100
AcDbLinetypeTableRecord
  2
DASHDOTTINY
 70
    0
  3
Dash dot (.15x) _._._._._._._._._._._._._._._.
 72
   65
 73
    4
 40
3.81
 49
1.905
 74
    0
 49
-0.9525
 74
    0
 49
0
 74
    0
 49
-0.9525
 74
    0
  0
LTYPE
  5
3C
330
5
100
AcDbSymbolTableRecord
100
AcDbLinetypeTableRecord
  2
DASHDOT2
 70
    0
  3
Dash dot (.5x) _._._._._._._._._._._._._._._.
 72
   65
 73
    4
 40
12.7
 49
6.35
 74
    0
 49
-3.175
 74
    0
 49
0
 74
    0
 49
-3.175
 74
    0
  0
LTYPE
  5
3D
330
5
100
AcDbSymbolTableRecord
100
AcDbLinetypeTableRecord
  2
DASHDOTX2
 70
    0
  3
Dash dot (2x) ____  .  ____  .  ____  .  ___
 72
   65
 73
    4
 40
50.8
 49
25.4
 74
    0
 49
-12.7
 74
    0
 49
0
 74
    0
 49
-12.7
 74
    0
  0
LTYPE
  5
3E
330
5
100
AcDbSymbolTableRecord
100
AcDbLinetypeTableRecord
  2
DIVIDE
 70
    0
  3
Divide ____ . . ____ . . ____ . . ____ . . ____
 72
   65
 73
    6
 40
31.75
 49
12.7
 74
    0
 49
-6.35
 74
    0
 49
0
 74
    0
 49
-6.35
 74
    0
 49
0
 74
    0
 49
-6.35
 74
    0
  0
LTYPE
  5
3F
330
5
100
AcDbSymbolTableRecord
100
AcDbLinetypeTableRecord
  2
DIVIDETINY
 70
    0
  3
Divide (.15x) __..__..__..__..__..__..__..__.._
 72
   65
 73
    6
 40
4.7625
 49
1.905
 74
    0
 49
-0.9525
 74
    0
 49
0
 74
    0
 49
-0.9525
 74
    0
 49
0
 74
    0
 49
-0.9525
 74
    0
  0
LTYPE
  5
40
330
5
100
AcDbSymbolTableRecord
100
AcDbLinetypeTableRecord
  2
DIVIDE2
 70
    0
  3
Divide (.5x) __..__..__..__..__..__..__..__.._
 72
   65
 73
    6
 40
15.875
 49
6.35
 74
    0
 49
-3.175
 74
    0
 49
0
 74
    0
 49
-3.175
 74
    0
 49
0
 74
    0
 49
-3.175
 74
    0
  0
LTYPE
  5
41
330
5
100
AcDbSymbolTableRecord
100
AcDbLinetypeTableRecord
  2
DIVIDEX2
 70
    0
  3
Divide (2x) ________  .  .  ________  .  .  _
 72
   65
 73
    6
 40
63.5
 49
25.4
 74
    0
 49
-12.7
 74
    0
 49
0
 74
    0
 49
-12.7
 74
    0
 49
0
 74
    0
 49
-12.7
 74
    0
  0
LTYPE
  5
42
330
5
100
AcDbSymbolTableRecord
100
AcDbLinetypeTableRecord
  2
BORDER
 70
    0
  3
Border __ __ . __ __ . __ __ . __ __ . __ __ .
 72
   65
 73
    6
 40
44.45
 49
12.7
 74
    0
 49
-6.35
 74
    0
 49
12.7
 74
    0
 49
-6.35
 74
    0
 49
0
 74
    0
 49
-6.35
 74
    0
  0
LTYPE
  5
43
330
5
100
AcDbSymbolTableRecord
100
AcDbLinetypeTableRecord
  2
BORDERTINY
 70
    0
  3
Border (.15x) __.__.__.__.__.__.__.__.__.__.__.
 72
   65
 73
    6
 40
6.6675
 49
1.905
 74
    0
 49
-0.9525
 74
    0
 49
1.905
 74
    0
 49
-0.9525
 74
    0
 49
0
 74
    0
 49
-0.9525
 74
    0
  0
LTYPE
  5
44
330
5
100
AcDbSymbolTableRecord
100
AcDbLinetypeTableRecord
  2
BORDER2
 70
    0
  3
Border (.5x) __.__.__.__.__.__.__.__.__.__.__.
 72
   65
 73
    6
 40
22.225
 49
6.35
 74
    0
 49
-3.175
 74
    0
 49
6.35
 74
    0
 49
-3.175
 74
    0
 49
0
 74
    0
 49
-3.175
 74
    0
  0
LTYPE
  5
45
330
5
100
AcDbSymbolTableRecord
100
AcDbLinetypeTableRecord
  2
BORDERX2
 70
    0
  3
Border (2x) ____  ____  .  ____  ____  .  ___
 72
   65
 73
    6
 40
88.89999999999999
 49
25.4
 74
    0
 49
-12.7
 74
    0
 49
25.4
 74
    0
 49
-12.7
 74
    0
 49
0
 74
    0
 49
-12.7
 74
    0
  0
LTYPE
  5
46
330
5
100
AcDbSymbolTableRecord
100
AcDbLinetypeTableRecord
  2
CENTER
 70
    0
  3
Center ____ _ ____ _ ____ _ ____ _ ____ _ ____
 72
   65
 73
    4
 40
50.8
 49
31.75
 74
    0
 49
-6.35
 74
    0
 49
6.35
 74
    0
 49
-6.35
 74
    0
  0
LTYPE
  5
47
330
5
100
AcDbSymbolTableRecord
100
AcDbLinetypeTableRecord
  2
CENTERTINY
 70
    0
  3
Center (.15x) ___ _ ___ _ ___ _ ___ _ ___ _ ___
 72
   65
 73
    4
 40
7.619999999999999
 49
4.7625
 74
    0
 49
-0.9525
 74
    0
 49
0.9525
 74
    0
 49
-0.9525
 74
    0
  0
LTYPE
  5
48
330
5
100
AcDbSymbolTableRecord
100
AcDbLinetypeTableRecord
  2
CENTER2
 70
    0
  3
Center (.5x) ___ _ ___ _ ___ _ ___ _ ___ _ ___
 72
   65
 73
    4
 40
28.575
 49
19.05
 74
    0
 49
-3.175
 74
    0
 49
3.175
 74
    0
 49
-3.175
 74
    0
  0
LTYPE
  5
49
330
5
100
AcDbSymbolTableRecord
100
AcDbLinetypeTableRecord
  2
CENTERX2
 70
    0
  3
Center (2x) ________  __  ________  __  _____
 72
   65
 73
    4
 40
101.6
 49
63.5
 74
    0
 49
-12.7
 74
    0
 49
12.7
 74
    0
 49
-12.7
 74
    0
  0
ENDTAB
  0
TABLE
  2
LAYER
  5
2
330
0
100
AcDbSymbolTable
 70
    1
  0
LAYER
  5
10
330
2
100
AcDbSymbolTableRecord
100
AcDbLayerTableRecord
  2
0
 70
    0
 62
    7
  6
CONTINUOUS
370
    0
390
F
  0
LAYER
  5
4A
330
2
100
AcDbSymbolTableRecord
100
AcDbLayerTableRecord
  2
noname
 70
    0
 62
    1
  6
CONTINUOUS
370
    0
390
F
  0
LAYER
  5
4B
330
2
100
AcDbSymbolTableRecord
100
AcDbLayerTableRecord
  2
noname1
 70
    0
 62
    3
  6
CONTINUOUS
370
    0
390
F
  0
LAYER
  5
4C
330
2
100
AcDbSymbolTableRecord
100
AcDbLayerTableRecord
  2
noname3
 70
    0
 62
    2
  6
CONTINUOUS
370
    0
390
F
  0
LAYER
  5
4D
330
2
100
AcDbSymbolTableRecord
100
AcDbLayerTableRecord
  2
noname4
 70
    0
 62
    4
  6
CONTINUOUS
370
    0
390
F
  0
LAYER
  5
4E
330
2
100
AcDbSymbolTableRecord
100
AcDbLayerTableRecord
  2
noname5
 70
    0
 62
    6
  6
CONTINUOUS
370
    0
390
F
  0
ENDTAB
  0
TABLE
  2
STYLE
  5
3
330
0
100
AcDbSymbolTable
 70
    3
  0
STYLE
  5
4F
330
2
100
AcDbSymbolTableRecord
100
AcDbTextStyleTableRecord
  2
Standard
 70
    0
 40
0
 41
1
 50
0
 71
    0
 42
1
  3
txt
  4

  0
ENDTAB
  0
TABLE
  2
VIEW
  5
6
330
0
100
AcDbSymbolTable
 70
    0
  0
ENDTAB
  0
TABLE
  2
UCS
  5
7
330
0
100
AcDbSymbolTable
 70
    0
  0
ENDTAB
  0
TABLE
  2
APPID
  5
9
330
0
100
AcDbSymbolTable
 70
    1
  0
APPID
  5
12
330
9
100
AcDbSymbolTableRecord
100
AcDbRegAppTableRecord
  2
ACAD
 70
    0
  0
APPID
  5
50
330
9
100
AcDbSymbolTableRecord
100
AcDbRegAppTableRecord
  2
LibreCad
 70
    0
  0
ENDTAB
  0
TABLE
  2
DIMSTYLE
  5
A
330
0
100
AcDbSymbolTable
 70
    1
100
AcDbDimStyleTable
 71
    1
  0
DIMSTYLE
105
51
330
A
100
AcDbSymbolTableRecord
100
AcDbDimStyleTableRecord
  2
Standard
 70
    0
 40
2.5
 41
2.5
 42
0.625
 43
0.38
 44
1.25
 45
0
 46
0
 47
0
 48
0
 49
1
140
2.5
141
0.09
142
0
143
25.4
144
1
145
0
146
1
147
0.625
148
0
 71
    0
 72
    0
 73
    0
 74
    1
 75
    0
 76
    0
 77
    0
 78
    8
 79
    0
170
    0
171
    2
172
    0
173
    0
174
    0
175
    0
176
    0
177
    0
178
    0
179
    0
271
    2
272
    4
273
    2
274
    2
275
    0
276
    0
277
    2
278
   44
279
    0
280
    0
281
    0
282
    0
283
    1
284
    0
285
    0
286
    0
288
    0
289
    3
340
STANDARD
341

371
   -2
372
   -2
  0
ENDTAB
  0
TABLE
  2
BLOCK_RECORD
  5
1
330
0
100
AcDbSymbolTable
 70
    2
  0
BLOCK_RECORD
  5
1F
330
1
100
AcDbSymbolTableRecord
100
AcDbBlockTableRecord
  2
*Model_Space
 70
    0
280
    1
281
    0
  0
BLOCK_RECORD
  5
1E
330
1
100
AcDbSymbolTableRecord
100
AcDbBlockTableRecord
  2
*Paper_Space
 70
    0
280
    1
281
    0
  0
ENDTAB
  0
ENDSEC
  0
SECTION
  2
BLOCKS
  0
BLOCK
  5
20
330
1F
100
AcDbEntity
  8
0
100
AcDbBlockBegin
  2
*Model_Space
 70
    0
 10
0
 20
0
 30
0
  3
*Model_Space
  1

  0
ENDBLK
  5
21
330
1F
100
AcDbEntity
  8
0
100
AcDbBlockEnd
  0
BLOCK
  5
1C
330
1B
100
AcDbEntity
  8
0
100
AcDbBlockBegin
  2
*Paper_Space
 70
    0
 10
0
 20
0
 30
0
  3
*Paper_Space
  1

  0
ENDBLK
  5
1D
330
1F
100
AcDbEntity
  8
0
100
AcDbBlockEnd
  0
ENDSEC
  0
SECTION
  2
ENTITIES
  0
LINE
  5
52
100
AcDbEntity
  8
0
  6
ByLayer
 62
  256
370
   -1
100
AcDbLine
 10
-6.5
 20
7.000000000000014
 11
6.5
 21
7.000000000000014
  0
LINE
  5
53
100
AcDbEntity
  8
0
  6
ByLayer
 62
  256
370
   -1
100
AcDbLine
 10
-6.5
 20
-6.999999999999986
 11
6.5
 21
-6.999999999999986
  0
LINE
  5
54
100
AcDbEntity
  8
0
  6
ByLayer
 62
  256
370
   -1
100
AcDbLine
 10
-7
 20
6.500000000000014
 11
-7
 21
-6.499999999999986
  0
LINE
  5
55
100
AcDbEntity
  8
0
  6
ByLayer
 62
  256
370
   -1
100
AcDbLine
 10
7
 20
6.500000000000014
 11
7
 21
-6.499999999999986
  0
ARC
  5
56
100
AcDbEntity
  8
0
  6
ByLayer
 62
  256
370
   -1
100
AcDbCircle
 10
-6.5
 20
6.500000000000014
 40
0.5
100
AcDbArc
 50
90
 51
180
  0
ARC
  5
57
100
AcDbEntity
  8
0
  6
ByLayer
 62
  256
370
   -1
100
AcDbCircle
 10
6.5
 20
6.500000000000014
 40
0.5
100
AcDbArc
 50
0
 51
90
  0
ARC
  5
58
100
AcDbEntity
  8
0
  6
ByLayer
 62
  256
370
   -1
100
AcDbCircle
 10
-6.5
 20
-6.499999999999986
 40
0.5
100
AcDbArc
 50
180
 51
270
  0
ARC
  5
59
100
AcDbEntity
  8
0
  6
ByLayer
 62
  256
370
   -1
100
AcDbCircle
 10
6.5
 20
-6.499999999999986
 40
0.5
100
AcDbArc
 50
270
 51
0
  0
LINE
  5
5A
100
AcDbEntity
  8
0
  6
ByLayer
 62
  256
370
   -1
100
AcDbLine
 10
-14.93800000000002
 20
6.000000000000014
 11
-8.938000000000017
 21
6.000000000000014
  0
LINE
  5
5B
100
AcDbEntity
  8
0
  6
ByLayer
 62
  256
370
   -1
100
AcDbLine
 10
-14.93800000000002
 20
-8.999999999999986
 11
-8.938000000000017
 21
-8.999999999999986
  0
LINE
  5
5C
100
AcDbEntity
  8
0
  6
ByLayer
 62
  256
370
   -1
100
AcDbLine
 10
-15.43800000000002
 20
5.500000000000014
 11
-15.43800000000002
 21
-8.499999999999986
  0
LINE
  5
5D
100
AcDbEntity
  8
0
  6
ByLayer
 62
  256
370
   -1
100
AcDbLine
 10
-8.438000000000017
 20
5.500000000000014
 11
-8.438000000000017
 21
-8.499999999999986
  0
ARC
  5
5E
100
AcDbEntity
  8
0
  6
ByLayer
 62
  256
370
   -1
100
AcDbCircle
 10
-14.93800000000002
 20
5.500000000000014
 40
0.5
100
AcDbArc
 50
90
 51
180
  0
ARC
  5
5F
100
AcDbEntity
  8
0
  6
ByLayer
 62
  256
370
   -1
100
AcDbCircle
 10
-8.938000000000017
 20
5.500000000000014
 40
0.5
100
AcDbArc
 50
0
 51
90
  0
ARC
  5
60
100
AcDbEntity
  8
0
  6
ByLayer
 62
  256
370
   -1
100
AcDbCircle
 10
-14.93800000000002
 20
-8.499999999999986
 40
0.5
100
AcDbArc
 50
180
 51
270
  0
ARC
  5
61
100
AcDbEntity
  8
0
  6
ByLayer
 62
  256
370
   -1
100
AcDbCircle
 10
-8.938000000000017
 20
-8.499999999999986
 40
0.5
100
AcDbArc
 50
270
 51
0
  0
LINE
  5
62
100
AcDbEntity
  8
0
  6
ByLayer
 62
  256
370
   -1
100
AcDbLine
 10
8.937999999999988
 20
6.000000000000014
 11
14.93799999999999
 21
6.000000000000014
  0
LINE
  5
63
100
AcDbEntity
  8
0
  6
ByLayer
 62
  256
370
   -1
100
AcDbLine
 10
8.937999999999988
 20
-8.999999999999986
 11
14.93799999999999
 21
-8.999999999999986
  0
LINE
  5
64
100
AcDbEntity
  8
0
  6
ByLayer
 62
  256
370
   -1
100
AcDbLine
 10
8.437999999999988
 20
5.500000000000014
 11
8.437999999999988
 21
-8.499999999999986
  0
LINE
  5
65
100
AcDbEntity
  8
0
  6
ByLayer
 62
  256
370
   -1
100
AcDbLine
 10
15.43799999999999
 20
5.500000000000014
 11
15.43799999999999
 21
-8.499999999999986
  0
ARC
  5
66
100
AcDbEntity
  8
0
  6
ByLayer
 62
  256
370
   -1
100
AcDbCircle
 10
8.937999999999988
 20
5.500000000000014
 40
0.5
100
AcDbArc
 50
90
 51
180
  0
ARC
  5
67
100
AcDbEntity
  8
0
  6
ByLayer
 62
  256
370
   -1
100
AcDbCircle
 10
14.93799999999999
 20
5.500000000000014
 40
0.5
100
AcDbArc
 50
0
 51
90
  0
ARC
  5
68
100
AcDbEntity
  8
0
  6
ByLayer
 62
  256
370
   -1
100
AcDbCircle
 10
8.937999999999988
 20
-8.499999999999986
 40
0.5
100
AcDbArc
 50
180
 51
270
  0
ARC
  5
69
100
AcDbEntity
  8
0
  6
ByLayer
 62
  256
370
   -1
100
AcDbCircle
 10
14.93799999999999
 20
-8.499999999999986
 40
0.5
100
AcDbArc
 50
270
 51
0
  0
LINE
  5
6A
100
AcDbEntity
  8
0
  6
ByLayer
 62
  256
370
   -1
100
AcDbLine
 10
-60.52956750000001
 20
88.53108350000002
 11
-47.72706670000001
 21
86.27365720000002
  0
LINE
  5
6B
100
AcDbEntity
  8
0
  6
ByLayer
 62
  256
370
   -1
100
AcDbLine
 10
-62.96064190000001
 20
74.74377500000003
 11
-50.15814110000001
 21
72.48634870000002
  0
LINE
  5
6C
100
AcDbEntity
  8
0
  6
ByLayer
 62
  256
370
   -1
100
AcDbLine
 10
-61.10879540000001
 20
88.12550370000002
 11
-63.36622170000001
 21
75.32300290000002
  0
LINE
  5
6D
100
AcDbEntity
  8
0
  6
ByLayer
 62
  256
370
   -1
100
AcDbLine
 10
-47.32148690000001
 20
85.69442930000002
 11
-49.57891320000002
 21
72.89192850000002
  0
ARC
  5
6E
100
AcDbEntity
  8
0
  6
ByLayer
 62
  256
370
   -1
100
AcDbCircle
 10
-60.61639150000001
 20
88.03867960000002
 40
0.5
100
AcDbArc
 50
80
 51
170
  0
ARC
  5
6F
100
AcDbEntity
  8
0
  6
ByLayer
 62
  256
370
   -1
100
AcDbCircle
 10
-47.81389080000001
 20
85.78125330000002
 40
0.5
100
AcDbArc
 50
350
 51
80
  0
ARC
  5
70
100
AcDbEntity
  8
0
  6
ByLayer
 62
  256
370
   -1
100
AcDbCircle
 10
-62.87381780000001
 20
75.23617890000003
 40
0.5
100
AcDbArc
 50
170
 51
260
  0
ARC
  5
71
100
AcDbEntity
  8
0
  6
ByLayer
 62
  256
370
   -1
100
AcDbCircle
 10
-50.07131710000002
 20
72.97875260000002
 40
0.5
100
AcDbArc
 50
260
 51
350
  0
LINE
  5
72
100
AcDbEntity
  8
0
  6
ByLayer
 62
  256
370
   -1
100
AcDbLine
 10
-80.11715460000002
 20
87.14893440000002
 11
-67.31465380000002
 21
84.89150810000002
  0
LINE
  5
73
100
AcDbEntity
  8
0
  6
ByLayer
 62
  256
370
   -1
100
AcDbLine
 10
-82.54822900000002
 20
73.36162590000002
 11
-69.74572820000002
 21
71.10419960000002
  0
LINE
  5
74
100
AcDbEntity
  8
0
  6
ByLayer
 62
  256
370
   -1
100
AcDbLine
 10
-80.69638250000001
 20
86.74335460000002
 11
-82.95380880000002
 21
73.94085380000001
  0
LINE
  5
75
100
AcDbEntity
  8
0
  6
ByLayer
 62
  256
370
   -1
100
AcDbLine
 10
-66.90907400000002
 20
84.31228020000002
 11
-69.16650030000001
 21
71.50977940000001
  0
ARC
  5
76
100
AcDbEntity
  8
0
  6
ByLayer
 62
  256
370
   -1
100
AcDbCircle
 10
-80.20397860000001
 20
86.65653050000002
 40
0.5
100
AcDbArc
 50
80
 51
170
  0
ARC
  5
77
100
AcDbEntity
  8
0
  6
ByLayer
 62
  256
370
   -1
100
AcDbCircle
 10
-67.40147790000002
 20
84.39910420000002
 40
0.5
100
AcDbArc
 50
350
 51
80
  0
ARC
  5
78
100
AcDbEntity
  8
0
  6
ByLayer
 62
  256
370
   -1
100
AcDbCircle
 10
-82.46140490000002
 20
73.85402980000002
 40
0.5
100
AcDbArc
 50
170
 51
260
  0
ARC
  5
79
100
AcDbEntity
  8
0
  6
ByLayer
 62
  256
370
   -1
100
AcDbCircle
 10
-69.65890420000001
 20
71.59660350000001
 40
0.5
100
AcDbArc
 50
260
 51
350
  0
LINE
  5
7A
100
AcDbEntity
  8
0
  6
ByLayer
 62
  256
370
   -1
100
AcDbLine
 10
-42.59597920000002
 20
80.53293880000003
 11
-29.79347840000001
 21
78.27551250000002
  0
LINE
  5
7B
100
AcDbEntity
  8
0
  6
ByLayer
 62
  256
370
   -1
100
AcDbLine
 10
-45.02705360000002
 20
66.74563030000002
 11
-32.22455280000001
 21
64.48820400000002
  0
LINE
  5
7C
100
AcDbEntity
  8
0
  6
ByLayer
 62
  256
370
   -1
100
AcDbLine
 10
-43.17520710000001
 20
80.12735900000001
 11
-45.43263340000001
 21
67.32485820000002
  0
LINE
  5
7D
100
AcDbEntity
  8
0
  6
ByLayer
 62
  256
370
   -1
100
AcDbLine
 10
-29.38789860000001
 20
77.69628460000001
 11
-31.64532490000001
 21
64.89378380000002
  0
ARC
  5
7E
100
AcDbEntity
  8
0
  6
ByLayer
 62
  256
370
   -1
100
AcDbCircle
 10
-42.68280320000001
 20
80.04053490000001
 40
0.5
100
AcDbArc
 50
80
 51
170
  0
ARC
  5
7F
100
AcDbEntity
  8
0
  6
ByLayer
 62
  256
370
   -1
100
AcDbCircle
 10
-29.88030250000001
 20
77.78310860000002
 40
0.5
100
AcDbArc
 50
350
 51
80
  0
ARC
  5
80
100
AcDbEntity
  8
0
  6
ByLayer
 62
  256
370
   -1
100
AcDbCircle
 10
-44.94022950000002
 20
67.23803420000002
 40
0.5
100
AcDbArc
 50
170
 51
260
  0
ARC
  5
81
100
AcDbEntity
  8
0
  6
ByLayer
 62
  256
370
   -1
100
AcDbCircle
 10
-32.1377288
 20
64.98060790000002
 40
0.5
100
AcDbArc
 50
260
 51
350
  0
LINE
  5
82
100
AcDbEntity
  8
0
  6
ByLayer
 62
  256
370
   -1
100
AcDbLine
 10
-99.70474170000001
 20
85.76678520000002
 11
-86.90224090000001
 21
83.50935890000002
  0
LINE
  5
83
100
AcDbEntity
  8
0
  6
ByLayer
 62
  256
370
   -1
100
AcDbLine
 10
-102.1358161
 20
71.97947670000002
 11
-89.33331530000001
 21
69.72205040000003
  0
LINE
  5
84
100
AcDbEntity
  8
0
  6
ByLayer
 62
  256
370
   -1
100
AcDbLine
 10
-100.2839696
 20
85.36120540000002
 11
-102.5413959
 21
72.55870460000003
  0
LINE
  5
85
100
AcDbEntity
  8
0
  6
ByLayer
 62
  256
370
   -1
100
AcDbLine
 10
-86.49666110000001
 20
82.93013100000002
 11
-88.7540874
 21
70.12763020000003
  0
ARC
  5
86
100
AcDbEntity
  8
0
  6
ByLayer
 62
  256
370
   -1
100
AcDbCircle
 10
-99.79156570000001
 20
85.27438130000002
 40
0.5
100
AcDbArc
 50
80
 51
170
  0
ARC
  5
87
100
AcDbEntity
  8
0
  6
ByLayer
 62
  256
370
   -1
100
AcDbCircle
 10
-86.98906500000001
 20
83.01695500000002
 40
0.5
100
AcDbArc
 50
350
 51
80
  0
ARC
  5
88
100
AcDbEntity
  8
0
  6
ByLayer
 62
  256
370
   -1
100
AcDbCircle
 10
-102.048992
 20
72.47188060000002
 40
0.5
100
AcDbArc
 50
170
 51
260
  0
ARC
  5
89
100
AcDbEntity
  8
0
  6
ByLayer
 62
  256
370
   -1
100
AcDbCircle
 10
-89.2464913
 20
70.21445430000003
 40
0.5
100
AcDbArc
 50
260
 51
350
  0
LINE
  5
8A
100
AcDbEntity
  8
0
  6
ByLayer
 62
  256
370
   -1
100
AcDbLine
 10
-24.66239100000001
 20
72.53479410000003
 11
-11.85989020000001
 21
70.27736780000002
  0
LINE
  5
8B
100
AcDbEntity
  8
0
  6
ByLayer
 62
  256
370
   -1
100
AcDbLine
 10
-27.09346540000001
 20
58.74748560000002
 11
-14.29096460000001
 21
56.49005930000002
  0
LINE
  5
8C
100
AcDbEntity
  8
0
  6
ByLayer
 62
  256
370
   -1
100
AcDbLine
 10
-25.24161890000001
 20
72.12921430000003
 11
-27.49904520000001
 21
59.32671350000002
  0
LINE
  5
8D
100
AcDbEntity
  8
0
  6
ByLayer
 62
  256
370
   -1
100
AcDbLine
 10
-11.45431040000001
 20
69.69813990000003
 11
-13.71173670000002
 21
56.89563910000002
  0
ARC
  5
8E
100
AcDbEntity
  8
0
  6
ByLayer
 62
  256
370
   -1
100
AcDbCircle
 10
-24.74921500000001
 20
72.04239020000003
 40
0.5
100
AcDbArc
 50
80
 51
170
  0
ARC
  5
8F
100
AcDbEntity
  8
0
  6
ByLayer
 62
  256
370
   -1
100
AcDbCircle
 10
-11.94671430000001
 20
69.78496390000002
 40
0.5
100
AcDbArc
 50
350
 51
80
  0
ARC
  5
90
100
AcDbEntity
  8
0
  6
ByLayer
 62
  256
370
   -1
100
AcDbCircle
 10
-27.00664130000001
 20
59.23988950000002
 40
0.5
100
AcDbArc
 50
170
 51
260
  0
ARC
  5
91
100
AcDbEntity
  8
0
  6
ByLayer
 62
  256
370
   -1
100
AcDbCircle
 10
-14.20414060000002
 20
56.98246320000002
 40
0.5
100
AcDbArc
 50
260
 51
350
  0
LINE
  5
92
100
AcDbEntity
  8
0
  6
ByLayer
 62
  256
370
   -1
100
AcDbLine
 10
-119.2923289
 20
84.38463610000002
 11
-106.4898281
 21
82.12720980000002
  0
LINE
  5
93
100
AcDbEntity
  8
0
  6
ByLayer
 62
  256
370
   -1
100
AcDbLine
 10
-121.7234033
 20
70.59732760000003
 11
-108.9209025
 21
68.33990130000002
  0
LINE
  5
94
100
AcDbEntity
  8
0
  6
ByLayer
 62
  256
370
   -1
100
AcDbLine
 10
-119.8715568
 20
83.97905630000002
 11
-122.1289831
 21
71.17655550000002
  0
LINE
  5
95
100
AcDbEntity
  8
0
  6
ByLayer
 62
  256
370
   -1
100
AcDbLine
 10
-106.0842483
 20
81.54798190000002
 11
-108.3416746
 21
68.74548110000002
  0
ARC
  5
96
100
AcDbEntity
  8
0
  6
ByLayer
 62
  256
370
   -1
100
AcDbCircle
 10
-119.3791529
 20
83.89223220000002
 40
0.5
100
AcDbArc
 50
80
 51
170
  0
ARC
  5
97
100
AcDbEntity
  8
0
  6
ByLayer
 62
  256
370
   -1
100
AcDbCircle
 10
-106.5766522
 20
81.63480590000002
 40
0.5
100
AcDbArc
 50
350
 51
80
  0
ARC
  5
98
100
AcDbEntity
  8
0
  6
ByLayer
 62
  256
370
   -1
100
AcDbCircle
 10
-121.6365792
 20
71.08973150000003
 40
0.5
100
AcDbArc
 50
170
 51
260
  0
ARC
  5
99
100
AcDbEntity
  8
0
  6
ByLayer
 62
  256
370
   -1
100
AcDbCircle
 10
-108.8340785
 20
68.83230520000002
 40
0.5
100
AcDbArc
 50
260
 51
350
  0
LINE
  5
9A
100
AcDbEntity
  8
0
  6
ByLayer
 62
  256
370
   -1
100
AcDbLine
 10
-63.83756520000001
 20
69.77049580000002
 11
-51.03506440000001
 21
67.51306950000003
  0
LINE
  5
9B
100
AcDbEntity
  8
0
  6
ByLayer
 62
  256
370
   -1
100
AcDbLine
 10
-66.26863960000001
 20
55.98318730000002
 11
-53.46613880000001
 21
53.72576100000002
  0
LINE
  5
9C
100
AcDbEntity
  8
0
  6
ByLayer
 62
  256
370
   -1
100
AcDbLine
 10
-64.41679310000001
 20
69.36491600000002
 11
-66.67421940000001
 21
56.56241520000002
  0
LINE
  5
9D
100
AcDbEntity
  8
0
  6
ByLayer
 62
  256
370
   -1
100
AcDbLine
 10
-50.62948460000001
 20
66.93384160000002
 11
-52.88691090000002
 21
54.13134080000002
  0
ARC
  5
9E
100
AcDbEntity
  8
0
  6
ByLayer
 62
  256
370
   -1
100
AcDbCircle
 10
-63.92438920000001
 20
69.27809190000002
 40
0.5
100
AcDbArc
 50
80
 51
170
  0
ARC
  5
9F
100
AcDbEntity
  8
0
  6
ByLayer
 62
  256
370
   -1
100
AcDbCircle
 10
-51.12188850000001
 20
67.02066560000003
 40
0.5
100
AcDbArc
 50
350
 51
80
  0
ARC
  5
A0
100
AcDbEntity
  8
0
  6
ByLayer
 62
  256
370
   -1
100
AcDbCircle
 10
-66.18181550000001
 20
56.47559120000002
 40
0.5
100
AcDbArc
 50
170
 51
260
  0
ARC
  5
A1
100
AcDbEntity
  8
0
  6
ByLayer
 62
  256
370
   -1
100
AcDbCircle
 10
-53.37931480000002
 20
54.21816490000002
 40
0.5
100
AcDbArc
 50
260
 51
350
  0
LINE
  5
A2
100
AcDbEntity
  8
0
  6
ByLayer
 62
  256
370
   -1
100
AcDbLine
 10
-83.4251524
 20
68.38834670000003
 11
-70.62265160000001
 21
66.13092040000002
  0
LINE
  5
A3
100
AcDbEntity
  8
0
  6
ByLayer
 62
  256
370
   -1
100
AcDbLine
 10
-85.8562268
 20
54.60103820000002
 11
-73.05372600000001
 21
52.34361190000002
  0
LINE
  5
A4
100
AcDbEntity
  8
0
  6
ByLayer
 62
  256
370
   -1
100
AcDbLine
 10
-84.00438030000001
 20
67.98276690000003
 11
-86.26180660000001
 21
55.18026610000002
  0
LINE
  5
A5
100
AcDbEntity
  8
0
  6
ByLayer
 62
  256
370
   -1
100
AcDbLine
 10
-70.21707180000001
 20
65.55169250000003
 11
-72.47449810000001
 21
52.74919170000002
  0
ARC
  5
A6
100
AcDbEntity
  8
0
  6
ByLayer
 62
  256
370
   -1
100
AcDbCircle
 10
-83.51197640000001
 20
67.89594280000003
 40
0.5
100
AcDbArc
 50
80
 51
170
  0
ARC
  5
A7
100
AcDbEntity
  8
0
  6
ByLayer
 62
  256
370
   -1
100
AcDbCircle
 10
-70.70947570000001
 20
65.63851650000002
 40
0.5
100
AcDbArc
 50
350
 51
80
  0
ARC
  5
A8
100
AcDbEntity
  8
0
  6
ByLayer
 62
  256
370
   -1
100
AcDbCircle
 10
-85.76940270000001
 20
55.09344210000002
 40
0.5
100
AcDbArc
 50
170
 51
260
  0
ARC
  5
A9
100
AcDbEntity
  8
0
  6
ByLayer
 62
  256
370
   -1
100
AcDbCircle
 10
-72.966902
 20
52.83601580000002
 40
0.5
100
AcDbArc
 50
260
 51
350
  0
LINE
  5
AA
100
AcDbEntity
  8
0
  6
ByLayer
 62
  256
370
   -1
100
AcDbLine
 10
-45.90397700000001
 20
61.77235110000002
 11
-33.10147620000001
 21
59.51492480000002
  0
LINE
  5
AB
100
AcDbEntity
  8
0
  6
ByLayer
 62
  256
370
   -1
100
AcDbLine
 10
-48.33505140000001
 20
47.98504260000002
 11
-35.53255060000001
 21
45.72761630000002
  0
LINE
  5
AC
100
AcDbEntity
  8
0
  6
ByLayer
 62
  256
370
   -1
100
AcDbLine
 10
-46.48320490000002
 20
61.36677130000002
 11
-48.74063120000001
 21
48.56427050000002
  0
LINE
  5
AD
100
AcDbEntity
  8
0
  6
ByLayer
 62
  256
370
   -1
100
AcDbLine
 10
-32.69589640000001
 20
58.93569690000002
 11
-34.95332270000002
 21
46.13319610000002
  0
ARC
  5
AE
100
AcDbEntity
  8
0
  6
ByLayer
 62
  256
370
   -1
100
AcDbCircle
 10
-45.990801
 20
61.27994720000002
 40
0.5
100
AcDbArc
 50
80
 51
170
  0
ARC
  5
AF
100
AcDbEntity
  8
0
  6
ByLayer
 62
  256
370
   -1
100
AcDbCircle
 10
-33.18830030000001
 20
59.02252090000002
 40
0.5
100
AcDbArc
 50
350
 51
80
  0
ARC
  5
B0
100
AcDbEntity
  8
0
  6
ByLayer
 62
  256
370
   -1
100
AcDbCircle
 10
-48.24822730000001
 20
48.47744650000002
 40
0.5
100
AcDbArc
 50
170
 51
260
  0
ARC
  5
B1
100
AcDbEntity
  8
0
  6
ByLayer
 62
  256
370
   -1
100
AcDbCircle
 10
-35.44572660000001
 20
46.22002020000002
 40
0.5
100
AcDbArc
 50
260
 51
350
  0
LINE
  5
B2
100
AcDbEntity
  8
0
  6
ByLayer
 62
  256
370
   -1
100
AcDbLine
 10
-103.0127395
 20
67.00619750000001
 11
-90.21023870000002
 21
64.74877120000002
  0
LINE
  5
B3
100
AcDbEntity
  8
0
  6
ByLayer
 62
  256
370
   -1
100
AcDbLine
 10
-105.4438139
 20
53.21888900000002
 11
-92.64131310000002
 21
50.96146270000002
  0
LINE
  5
B4
100
AcDbEntity
  8
0
  6
ByLayer
 62
  256
370
   -1
100
AcDbLine
 10
-103.5919674
 20
66.60061770000002
 11
-105.8493937
 21
53.79811690000002
  0
LINE
  5
B5
100
AcDbEntity
  8
0
  6
ByLayer
 62
  256
370
   -1
100
AcDbLine
 10
-89.80465890000002
 20
64.16954330000002
 11
-92.06208520000001
 21
51.36704250000002
  0
ARC
  5
B6
100
AcDbEntity
  8
0
  6
ByLayer
 62
  256
370
   -1
100
AcDbCircle
 10
-103.0995635
 20
66.51379360000001
 40
0.5
100
AcDbArc
 50
80
 51
170
  0
ARC
  5
B7
100
AcDbEntity
  8
0
  6
ByLayer
 62
  256
370
   -1
100
AcDbCircle
 10
-90.29706280000002
 20
64.25636730000002
 40
0.5
100
AcDbArc
 50
350
 51
80
  0
ARC
  5
B8
100
AcDbEntity
  8
0
  6
ByLayer
 62
  256
370
   -1
100
AcDbCircle
 10
-105.3569898
 20
53.71129290000002
 40
0.5
100
AcDbArc
 50
170
 51
260
  0
ARC
  5
B9
100
AcDbEntity
  8
0
  6
ByLayer
 62
  256
370
   -1
100
AcDbCircle
 10
-92.55448910000001
 20
51.45386660000002
 40
0.5
100
AcDbArc
 50
260
 51
350
  0
LINE
  5
BA
100
AcDbEntity
  8
0
  6
ByLayer
 62
  256
370
   -1
100
AcDbLine
 10
-27.97038880000001
 20
53.77420640000002
 11
-15.167888
 21
51.51678010000002
  0
LINE
  5
BB
100
AcDbEntity
  8
0
  6
ByLayer
 62
  256
370
   -1
100
AcDbLine
 10
-30.40146320000001
 20
39.98689790000002
 11
-17.5989624
 21
37.72947160000002
  0
LINE
  5
BC
100
AcDbEntity
  8
0
  6
ByLayer
 62
  256
370
   -1
100
AcDbLine
 10
-28.54961670000002
 20
53.36862660000002
 11
-30.80704300000001
 21
40.56612580000002
  0
LINE
  5
BD
100
AcDbEntity
  8
0
  6
ByLayer
 62
  256
370
   -1
100
AcDbLine
 10
-14.76230820000001
 20
50.93755220000002
 11
-17.01973450000001
 21
38.13505140000002
  0
ARC
  5
BE
100
AcDbEntity
  8
0
  6
ByLayer
 62
  256
370
   -1
100
AcDbCircle
 10
-28.05721280000002
 20
53.28180250000002
 40
0.5
100
AcDbArc
 50
80
 51
170
  0
ARC
  5
BF
100
AcDbEntity
  8
0
  6
ByLayer
 62
  256
370
   -1
100
AcDbCircle
 10
-15.25471210000001
 20
51.02437620000002
 40
0.5
100
AcDbArc
 50
350
 51
80
  0
ARC
  5
C0
100
AcDbEntity
  8
0
  6
ByLayer
 62
  256
370
   -1
100
AcDbCircle
 10
-30.31463910000001
 20
40.47930180000002
 40
0.5
100
AcDbArc
 50
170
 51
260
  0
ARC
  5
C1
100
AcDbEntity
  8
0
  6
ByLayer
 62
  256
370
   -1
100
AcDbCircle
 10
-17.51213840000001
 20
38.22187550000002
 40
0.5
100
AcDbArc
 50
260
 51
350
  0
LINE
  5
C2
100
AcDbEntity
  8
0
  6
ByLayer
 62
  256
370
   -1
100
AcDbLine
 10
-124.9454001
 20
66.03754810000001
 11
-112.1428993
 21
63.78012180000002
  0
LINE
  5
C3
100
AcDbEntity
  8
0
  6
ByLayer
 62
  256
370
   -1
100
AcDbLine
 10
-127.3764745
 20
52.25023960000002
 11
-114.5739737
 21
49.99281330000002
  0
LINE
  5
C4
100
AcDbEntity
  8
0
  6
ByLayer
 62
  256
370
   -1
100
AcDbLine
 10
-125.524628
 20
65.63196830000001
 11
-127.7820543
 21
52.82946750000002
  0
LINE
  5
C5
100
AcDbEntity
  8
0
  6
ByLayer
 62
  256
370
   -1
100
AcDbLine
 10
-111.7373195
 20
63.20089390000002
 11
-113.9947458
 21
50.39839310000002
  0
ARC
  5
C6
100
AcDbEntity
  8
0
  6
ByLayer
 62
  256
370
   -1
100
AcDbCircle
 10
-125.0322241
 20
65.54514420000001
 40
0.5
100
AcDbArc
 50
80
 51
170
  0
ARC
  5
C7
100
AcDbEntity
  8
0
  6
ByLayer
 62
  256
370
   -1
100
AcDbCircle
 10
-112.2297234
 20
63.28771790000002
 40
0.5
100
AcDbArc
 50
350
 51
80
  0
ARC
  5
C8
100
AcDbEntity
  8
0
  6
ByLayer
 62
  256
370
   -1
100
AcDbCircle
 10
-127.2896504
 20
52.74264350000002
 40
0.5
100
AcDbArc
 50
170
 51
260
  0
ARC
  5
C9
100
AcDbEntity
  8
0
  6
ByLayer
 62
  256
370
   -1
100
AcDbCircle
 10
-114.4871497
 20
50.48521720000002
 40
0.5
100
AcDbArc
 50
260
 51
350
  0
LINE
  5
CA
100
AcDbEntity
  8
0
  6
ByLayer
 62
  256
370
   -1
100
AcDbLine
 10
-67.14556300000001
 20
51.00990810000002
 11
-54.34306220000001
 21
48.75248180000002
  0
LINE
  5
CB
100
AcDbEntity
  8
0
  6
ByLayer
 62
  256
370
   -1
100
AcDbLine
 10
-69.57663740000001
 20
37.22259960000002
 11
-56.77413660000001
 21
34.96517330000002
  0
LINE
  5
CC
100
AcDbEntity
  8
0
  6
ByLayer
 62
  256
370
   -1
100
AcDbLine
 10
-67.72479090000002
 20
50.60432830000002
 11
-69.98221720000001
 21
37.80182750000002
  0
LINE
  5
CD
100
AcDbEntity
  8
0
  6
ByLayer
 62
  256
370
   -1
100
AcDbLine
 10
-53.93748240000001
 20
48.17325390000002
 11
-56.19490870000001
 21
35.37075310000002
  0
ARC
  5
CE
100
AcDbEntity
  8
0
  6
ByLayer
 62
  256
370
   -1
100
AcDbCircle
 10
-67.23238700000002
 20
50.51750420000002
 40
0.5
100
AcDbArc
 50
80
 51
170
  0
ARC
  5
CF
100
AcDbEntity
  8
0
  6
ByLayer
 62
  256
370
   -1
100
AcDbCircle
 10
-54.42988630000001
 20
48.26007790000002
 40
0.5
100
AcDbArc
 50
350
 51
80
  0
ARC
  5
D0
100
AcDbEntity
  8
0
  6
ByLayer
 62
  256
370
   -1
100
AcDbCircle
 10
-69.48981330000001
 20
37.71500350000002
 40
0.5
100
AcDbArc
 50
170
 51
260
  0
ARC
  5
D1
100
AcDbEntity
  8
0
  6
ByLayer
 62
  256
370
   -1
100
AcDbCircle
 10
-56.68731260000001
 20
35.45757720000002
 40
0.5
100
AcDbArc
 50
260
 51
350
  0
LINE
  5
D2
100
AcDbEntity
  8
0
  6
ByLayer
 62
  256
370
   -1
100
AcDbLine
 10
-86.73315020000001
 20
49.62775900000002
 11
-73.93064940000001
 21
47.37033270000002
  0
LINE
  5
D3
100
AcDbEntity
  8
0
  6
ByLayer
 62
  256
370
   -1
100
AcDbLine
 10
-89.16422460000001
 20
35.84045050000002
 11
-76.36172380000002
 21
33.58302420000003
  0
LINE
  5
D4
100
AcDbEntity
  8
0
  6
ByLayer
 62
  256
370
   -1
100
AcDbLine
 10
-87.31237810000002
 20
49.22217920000002
 11
-89.56980440000001
 21
36.41967840000002
  0
LINE
  5
D5
100
AcDbEntity
  8
0
  6
ByLayer
 62
  256
370
   -1
100
AcDbLine
 10
-73.52506960000001
 20
46.79110480000002
 11
-75.78249590000001
 21
33.98860400000002
  0
ARC
  5
D6
100
AcDbEntity
  8
0
  6
ByLayer
 62
  256
370
   -1
100
AcDbCircle
 10
-86.81997420000002
 20
49.13535510000002
 40
0.5
100
AcDbArc
 50
80
 51
170
  0
ARC
  5
D7
100
AcDbEntity
  8
0
  6
ByLayer
 62
  256
370
   -1
100
AcDbCircle
 10
-74.01747350000001
 20
46.87792880000002
 40
0.5
100
AcDbArc
 50
350
 51
80
  0
ARC
  5
D8
100
AcDbEntity
  8
0
  6
ByLayer
 62
  256
370
   -1
100
AcDbCircle
 10
-89.07740050000001
 20
36.33285440000002
 40
0.5
100
AcDbArc
 50
170
 51
260
  0
ARC
  5
D9
100
AcDbEntity
  8
0
  6
ByLayer
 62
  256
370
   -1
100
AcDbCircle
 10
-76.27489980000001
 20
34.07542810000002
 40
0.5
100
AcDbArc
 50
260
 51
350
  0
LINE
  5
DA
100
AcDbEntity
  8
0
  6
ByLayer
 62
  256
370
   -1
100
AcDbLine
 10
-49.21197480000001
 20
43.01176340000002
 11
-36.40947400000002
 21
40.75433710000001
  0
LINE
  5
DB
100
AcDbEntity
  8
0
  6
ByLayer
 62
  256
370
   -1
100
AcDbLine
 10
-51.64304920000001
 20
29.22445490000003
 11
-38.84054840000002
 21
26.96702860000002
  0
LINE
  5
DC
100
AcDbEntity
  8
0
  6
ByLayer
 62
  256
370
   -1
100
AcDbLine
 10
-49.79120270000001
 20
42.60618360000002
 11
-52.04862900000001
 21
29.80368280000002
  0
LINE
  5
DD
100
AcDbEntity
  8
0
  6
ByLayer
 62
  256
370
   -1
100
AcDbLine
 10
-36.0038942
 20
40.17510920000002
 11
-38.26132050000001
 21
27.37260840000002
  0
ARC
  5
DE
100
AcDbEntity
  8
0
  6
ByLayer
 62
  256
370
   -1
100
AcDbCircle
 10
-49.29879880000001
 20
42.51935950000002
 40
0.5
100
AcDbArc
 50
80
 51
170
  0
ARC
  5
DF
100
AcDbEntity
  8
0
  6
ByLayer
 62
  256
370
   -1
100
AcDbCircle
 10
-36.49629810000002
 20
40.26193320000002
 40
0.5
100
AcDbArc
 50
350
 51
80
  0
ARC
  5
E0
100
AcDbEntity
  8
0
  6
ByLayer
 62
  256
370
   -1
100
AcDbCircle
 10
-51.55622510000001
 20
29.71685880000003
 40
0.5
100
AcDbArc
 50
170
 51
260
  0
ARC
  5
E1
100
AcDbEntity
  8
0
  6
ByLayer
 62
  256
370
   -1
100
AcDbCircle
 10
-38.75372440000001
 20
27.45943250000002
 40
0.5
100
AcDbArc
 50
260
 51
350
  0
LINE
  5
E2
100
AcDbEntity
  8
0
  6
ByLayer
 62
  256
370
   -1
100
AcDbLine
 10
-106.3207373
 20
48.24560990000002
 11
-93.51823650000001
 21
45.98818360000002
  0
LINE
  5
E3
100
AcDbEntity
  8
0
  6
ByLayer
 62
  256
370
   -1
100
AcDbLine
 10
-108.7518117
 20
34.45830140000002
 11
-95.94931090000001
 21
32.20087510000002
  0
LINE
  5
E4
100
AcDbEntity
  8
0
  6
ByLayer
 62
  256
370
   -1
100
AcDbLine
 10
-106.8999652
 20
47.84003010000002
 11
-109.1573915
 21
35.03752930000002
  0
LINE
  5
E5
100
AcDbEntity
  8
0
  6
ByLayer
 62
  256
370
   -1
100
AcDbLine
 10
-93.1126567
 20
45.40895570000002
 11
-95.37008300000001
 21
32.60645490000002
  0
ARC
  5
E6
100
AcDbEntity
  8
0
  6
ByLayer
 62
  256
370
   -1
100
AcDbCircle
 10
-106.4075613
 20
47.75320600000002
 40
0.5
100
AcDbArc
 50
80
 51
170
  0
ARC
  5
E7
100
AcDbEntity
  8
0
  6
ByLayer
 62
  256
370
   -1
100
AcDbCircle
 10
-93.6050606
 20
45.49577970000002
 40
0.5
100
AcDbArc
 50
350
 51
80
  0
ARC
  5
E8
100
AcDbEntity
  8
0
  6
ByLayer
 62
  256
370
   -1
100
AcDbCircle
 10
-108.6649876
 20
34.95070530000002
 40
0.5
100
AcDbArc
 50
170
 51
260
  0
ARC
  5
E9
100
AcDbEntity
  8
0
  6
ByLayer
 62
  256
370
   -1
100
AcDbCircle
 10
-95.86248690000002
 20
32.69327900000002
 40
0.5
100
AcDbArc
 50
260
 51
350
  0
LINE
  5
EA
100
AcDbEntity
  8
0
  6
ByLayer
 62
  256
370
   -1
100
AcDbLine
 10
-31.27838650000001
 20
35.01361870000002
 11
-18.47588570000001
 21
32.75619240000002
  0
LINE
  5
EB
100
AcDbEntity
  8
0
  6
ByLayer
 62
  256
370
   -1
100
AcDbLine
 10
-33.70946090000001
 20
21.22631020000001
 11
-20.90696010000001
 21
18.96888390000002
  0
LINE
  5
EC
100
AcDbEntity
  8
0
  6
ByLayer
 62
  256
370
   -1
100
AcDbLine
 10
-31.85761440000002
 20
34.60803890000003
 11
-34.11504070000001
 21
21.80553810000002
  0
LINE
  5
ED
100
AcDbEntity
  8
0
  6
ByLayer
 62
  256
370
   -1
100
AcDbLine
 10
-18.07030590000001
 20
32.17696450000003
 11
-20.32773220000001
 21
19.37446370000002
  0
ARC
  5
EE
100
AcDbEntity
  8
0
  6
ByLayer
 62
  256
370
   -1
100
AcDbCircle
 10
-31.36521050000002
 20
34.52121480000002
 40
0.5
100
AcDbArc
 50
80
 51
170
  0
ARC
  5
EF
100
AcDbEntity
  8
0
  6
ByLayer
 62
  256
370
   -1
100
AcDbCircle
 10
-18.56270980000001
 20
32.26378850000002
 40
0.5
100
AcDbArc
 50
350
 51
80
  0
ARC
  5
F0
100
AcDbEntity
  8
0
  6
ByLayer
 62
  256
370
   -1
100
AcDbCircle
 10
-33.62263680000001
 20
21.71871410000001
 40
0.5
100
AcDbArc
 50
170
 51
260
  0
ARC
  5
F1
100
AcDbEntity
  8
0
  6
ByLayer
 62
  256
370
   -1
100
AcDbCircle
 10
-20.82013610000001
 20
19.46128780000002
 40
0.5
100
AcDbArc
 50
260
 51
350
  0
LINE
  5
F2
100
AcDbEntity
  8
0
  6
ByLayer
 62
  256
370
   -1
100
AcDbLine
 10
-128.2533979
 20
47.27696040000002
 11
-115.4508971
 21
45.01953410000002
  0
LINE
  5
F3
100
AcDbEntity
  8
0
  6
ByLayer
 62
  256
370
   -1
100
AcDbLine
 10
-130.6844723
 20
33.48965190000003
 11
-117.8819715
 21
31.23222560000002
  0
LINE
  5
F4
100
AcDbEntity
  8
0
  6
ByLayer
 62
  256
370
   -1
100
AcDbLine
 10
-128.8326258
 20
46.87138060000002
 11
-131.0900521
 21
34.06887980000002
  0
LINE
  5
F5
100
AcDbEntity
  8
0
  6
ByLayer
 62
  256
370
   -1
100
AcDbLine
 10
-115.0453173
 20
44.44030620000002
 11
-117.3027436
 21
31.63780540000002
  0
ARC
  5
F6
100
AcDbEntity
  8
0
  6
ByLayer
 62
  256
370
   -1
100
AcDbCircle
 10
-128.3402219
 20
46.78455650000002
 40
0.5
100
AcDbArc
 50
80
 51
170
  0
ARC
  5
F7
100
AcDbEntity
  8
0
  6
ByLayer
 62
  256
370
   -1
100
AcDbCircle
 10
-115.5377212
 20
44.52713020000002
 40
0.5
100
AcDbArc
 50
350
 51
80
  0
ARC
  5
F8
100
AcDbEntity
  8
0
  6
ByLayer
 62
  256
370
   -1
100
AcDbCircle
 10
-130.5976482
 20
33.98205580000003
 40
0.5
100
AcDbArc
 50
170
 51
260
  0
ARC
  5
F9
100
AcDbEntity
  8
0
  6
ByLayer
 62
  256
370
   -1
100
AcDbCircle
 10
-117.7951475
 20
31.72462950000002
 40
0.5
100
AcDbArc
 50
260
 51
350
  0
LINE
  5
FA
100
AcDbEntity
  8
0
  6
ByLayer
 62
  256
370
   -1
100
AcDbLine
 10
-131.5613957
 20
28.51637270000002
 11
-118.7588949
 21
26.25894640000001
  0
LINE
  5
FB
100
AcDbEntity
  8
0
  6
ByLayer
 62
  256
370
   -1
100
AcDbLine
 10
-133.9924701
 20
14.72906420000002
 11
-121.1899693
 21
12.47163790000002
  0
LINE
  5
FC
100
AcDbEntity
  8
0
  6
ByLayer
 62
  256
370
   -1
100
AcDbLine
 10
-132.1406236
 20
28.11079290000002
 11
-134.3980499
 21
15.30829210000002
  0
LINE
  5
FD
100
AcDbEntity
  8
0
  6
ByLayer
 62
  256
370
   -1
100
AcDbLine
 10
-118.3533151
 20
25.67971850000002
 11
-120.6107414
 21
12.87721770000002
  0
ARC
  5
FE
100
AcDbEntity
  8
0
  6
ByLayer
 62
  256
370
   -1
100
AcDbCircle
 10
-131.6482197
 20
28.02396880000002
 40
0.5
100
AcDbArc
 50
80
 51
170
  0
ARC
  5
FF
100
AcDbEntity
  8
0
  6
ByLayer
 62
  256
370
   -1
100
AcDbCircle
 10
-118.845719
 20
25.76654250000001
 40
0.5
100
AcDbArc
 50
350
 51
80
  0
ARC
  5
100
100
AcDbEntity
  8
0
  6
ByLayer
 62
  256
370
   -1
100
AcDbCircle
 10
-133.905646
 20
15.22146810000002
 40
0.5
100
AcDbArc
 50
170
 51
260
  0
ARC
  5
101
100
AcDbEntity
  8
0
  6
ByLayer
 62
  256
370
   -1
100
AcDbCircle
 10
-121.1031453
 20
12.96404180000002
 40
0.5
100
AcDbArc
 50
260
 51
350
  0
LINE
  5
102
100
AcDbEntity
  8
0
  6
ByLayer
 62
  256
370
   -1
100
AcDbLine
 10
-110.4557345
 20
24.79487520000002
 11
-97.65323370000002
 21
22.53744890000002
  0
LINE
  5
103
100
AcDbEntity
  8
0
  6
ByLayer
 62
  256
370
   -1
100
AcDbLine
 10
-112.8868089
 20
11.00756670000003
 11
-100.0843081
 21
8.750140400000021
  0
LINE
  5
104
100
AcDbEntity
  8
0
  6
ByLayer
 62
  256
370
   -1
100
AcDbLine
 10
-111.0349624
 20
24.38929540000002
 11
-113.2923887
 21
11.58679460000002
  0
LINE
  5
105
100
AcDbEntity
  8
0
  6
ByLayer
 62
  256
370
   -1
100
AcDbLine
 10
-97.24765390000002
 20
21.95822100000002
 11
-99.50508020000001
 21
9.155720200000019
  0
ARC
  5
106
100
AcDbEntity
  8
0
  6
ByLayer
 62
  256
370
   -1
100
AcDbCircle
 10
-110.5425585
 20
24.30247130000002
 40
0.5
100
AcDbArc
 50
80
 51
170
  0
ARC
  5
107
100
AcDbEntity
  8
0
  6
ByLayer
 62
  256
370
   -1
100
AcDbCircle
 10
-97.74005780000002
 20
22.04504500000002
 40
0.5
100
AcDbArc
 50
350
 51
80
  0
ARC
  5
108
100
AcDbEntity
  8
0
  6
ByLayer
 62
  256
370
   -1
100
AcDbCircle
 10
-112.7999848
 20
11.49997060000003
 40
0.5
100
AcDbArc
 50
170
 51
260
  0
ARC
  5
109
100
AcDbEntity
  8
0
  6
ByLayer
 62
  256
370
   -1
100
AcDbCircle
 10
-99.99748410000001
 20
9.24254430000002
 40
0.5
100
AcDbArc
 50
260
 51
350
  0
LINE
  5
10A
100
AcDbEntity
  8
0
  6
ByLayer
 62
  256
370
   -1
100
AcDbLine
 10
-89.35007340000001
 20
21.07337770000002
 11
-76.54757260000001
 21
18.81595140000002
  0
LINE
  5
10B
100
AcDbEntity
  8
0
  6
ByLayer
 62
  256
370
   -1
100
AcDbLine
 10
-91.78114780000001
 20
7.286069200000014
 11
-78.97864700000001
 21
5.028642900000023
  0
LINE
  5
10C
100
AcDbEntity
  8
0
  6
ByLayer
 62
  256
370
   -1
100
AcDbLine
 10
-89.92930130000002
 20
20.66779790000002
 11
-92.18672760000001
 21
7.865297100000021
  0
LINE
  5
10D
100
AcDbEntity
  8
0
  6
ByLayer
 62
  256
370
   -1
100
AcDbLine
 10
-76.14199280000001
 20
18.23672350000002
 11
-78.39941910000002
 21
5.434222700000021
  0
ARC
  5
10E
100
AcDbEntity
  8
0
  6
ByLayer
 62
  256
370
   -1
100
AcDbCircle
 10
-89.43689740000002
 20
20.58097380000002
 40
0.5
100
AcDbArc
 50
80
 51
170
  0
ARC
  5
10F
100
AcDbEntity
  8
0
  6
ByLayer
 62
  256
370
   -1
100
AcDbCircle
 10
-76.63439670000001
 20
18.32354750000002
 40
0.5
100
AcDbArc
 50
350
 51
80
  0
ARC
  5
110
100
AcDbEntity
  8
0
  6
ByLayer
 62
  256
370
   -1
100
AcDbCircle
 10
-91.69432370000001
 20
7.778473100000014
 40
0.5
100
AcDbArc
 50
170
 51
260
  0
ARC
  5
111
100
AcDbEntity
  8
0
  6
ByLayer
 62
  256
370
   -1
100
AcDbCircle
 10
-78.89182300000002
 20
5.521046800000022
 40
0.5
100
AcDbArc
 50
260
 51
350
  0
LINE
  5
112
100
AcDbEntity
  8
0
  6
ByLayer
 62
  256
370
   -1
100
AcDbLine
 10
-54.17397150000001
 20
14.87088190000001
 11
-41.37147070000002
 21
12.61345560000002
  0
LINE
  5
113
100
AcDbEntity
  8
0
  6
ByLayer
 62
  256
370
   -1
100
AcDbLine
 10
-56.60504590000001
 20
1.08357340000002
 11
-43.80254510000002
 21
-1.173852899999986
  0
LINE
  5
114
100
AcDbEntity
  8
0
  6
ByLayer
 62
  256
370
   -1
100
AcDbLine
 10
-54.75319940000001
 20
14.46530210000002
 11
-57.01062570000001
 21
1.662801300000027
  0
LINE
  5
115
100
AcDbEntity
  8
0
  6
ByLayer
 62
  256
370
   -1
100
AcDbLine
 10
-40.96589090000001
 20
12.03422770000002
 11
-43.22331720000001
 21
-0.7682730999999734
  0
ARC
  5
116
100
AcDbEntity
  8
0
  6
ByLayer
 62
  256
370
   -1
100
AcDbCircle
 10
-54.26079550000001
 20
14.37847800000002
 40
0.5
100
AcDbArc
 50
80
 51
170
  0
ARC
  5
117
100
AcDbEntity
  8
0
  6
ByLayer
 62
  256
370
   -1
100
AcDbCircle
 10
-41.4582948
 20
12.12105170000002
 40
0.5
100
AcDbArc
 50
350
 51
80
  0
ARC
  5
118
100
AcDbEntity
  8
0
  6
ByLayer
 62
  256
370
   -1
100
AcDbCircle
 10
-56.51822180000001
 20
1.575977300000019
 40
0.5
100
AcDbArc
 50
170
 51
260
  0
ARC
  5
119
100
AcDbEntity
  8
0
  6
ByLayer
 62
  256
370
   -1
100
AcDbCircle
 10
-43.71572110000001
 20
-0.6814489999999864
 40
0.5
100
AcDbArc
 50
260
 51
350
  0
LINE
  5
11A
100
AcDbEntity
  8
0
  6
ByLayer
 62
  256
370
   -1
100
AcDbLine
 10
47.72706669999999
 20
86.27365720000002
 11
60.52956749999998
 21
88.53108350000002
  0
LINE
  5
11B
100
AcDbEntity
  8
0
  6
ByLayer
 62
  256
370
   -1
100
AcDbLine
 10
50.15814109999999
 20
72.48634870000002
 11
62.96064189999998
 21
74.74377500000003
  0
LINE
  5
11C
100
AcDbEntity
  8
0
  6
ByLayer
 62
  256
370
   -1
100
AcDbLine
 10
47.3214869
 20
85.69442930000002
 11
49.57891319999999
 21
72.89192850000002
  0
LINE
  5
11D
100
AcDbEntity
  8
0
  6
ByLayer
 62
  256
370
   -1
100
AcDbLine
 10
61.10879539999999
 20
88.12550370000002
 11
63.36622169999998
 21
75.32300290000002
  0
ARC
  5
11E
100
AcDbEntity
  8
0
  6
ByLayer
 62
  256
370
   -1
100
AcDbCircle
 10
47.8138908
 20
85.78125330000002
 40
0.5
100
AcDbArc
 50
100
 51
190
  0
ARC
  5
11F
100
AcDbEntity
  8
0
  6
ByLayer
 62
  256
370
   -1
100
AcDbCircle
 10
60.61639149999999
 20
88.03867960000002
 40
0.5
100
AcDbArc
 50
10
 51
100
  0
ARC
  5
120
100
AcDbEntity
  8
0
  6
ByLayer
 62
  256
370
   -1
100
AcDbCircle
 10
50.07131709999999
 20
72.97875260000002
 40
0.5
100
AcDbArc
 50
190
 51
280
  0
ARC
  5
121
100
AcDbEntity
  8
0
  6
ByLayer
 62
  256
370
   -1
100
AcDbCircle
 10
62.87381779999998
 20
75.23617890000003
 40
0.5
100
AcDbArc
 50
280
 51
10
  0
LINE
  5
122
100
AcDbEntity
  8
0
  6
ByLayer
 62
  256
370
   -1
100
AcDbLine
 10
29.7934784
 20
78.27551250000002
 11
42.59597919999999
 21
80.53293880000003
  0
LINE
  5
123
100
AcDbEntity
  8
0
  6
ByLayer
 62
  256
370
   -1
100
AcDbLine
 10
32.2245528
 20
64.48820400000002
 11
45.02705359999999
 21
66.74563030000002
  0
LINE
  5
124
100
AcDbEntity
  8
0
  6
ByLayer
 62
  256
370
   -1
100
AcDbLine
 10
29.3878986
 20
77.69628460000001
 11
31.64532489999999
 21
64.89378380000002
  0
LINE
  5
125
100
AcDbEntity
  8
0
  6
ByLayer
 62
  256
370
   -1
100
AcDbLine
 10
43.17520709999999
 20
80.12735900000001
 11
45.43263339999999
 21
67.32485820000002
  0
ARC
  5
126
100
AcDbEntity
  8
0
  6
ByLayer
 62
  256
370
   -1
100
AcDbCircle
 10
29.8803025
 20
77.78310860000002
 40
0.5
100
AcDbArc
 50
100
 51
190
  0
ARC
  5
127
100
AcDbEntity
  8
0
  6
ByLayer
 62
  256
370
   -1
100
AcDbCircle
 10
42.6828032
 20
80.04053490000001
 40
0.5
100
AcDbArc
 50
10
 51
100
  0
ARC
  5
128
100
AcDbEntity
  8
0
  6
ByLayer
 62
  256
370
   -1
100
AcDbCircle
 10
32.13772879999999
 20
64.98060790000002
 40
0.5
100
AcDbArc
 50
190
 51
280
  0
ARC
  5
129
100
AcDbEntity
  8
0
  6
ByLayer
 62
  256
370
   -1
100
AcDbCircle
 10
44.94022949999999
 20
67.23803420000002
 40
0.5
100
AcDbArc
 50
280
 51
10
  0
LINE
  5
12A
100
AcDbEntity
  8
0
  6
ByLayer
 62
  256
370
   -1
100
AcDbLine
 10
67.3146538
 20
84.89150810000002
 11
80.11715459999999
 21
87.14893440000002
  0
LINE
  5
12B
100
AcDbEntity
  8
0
  6
ByLayer
 62
  256
370
   -1
100
AcDbLine
 10
69.7457282
 20
71.10419960000002
 11
82.54822899999999
 21
73.36162590000002
  0
LINE
  5
12C
100
AcDbEntity
  8
0
  6
ByLayer
 62
  256
370
   -1
100
AcDbLine
 10
66.90907399999998
 20
84.31228020000002
 11
69.1665003
 21
71.50977940000001
  0
LINE
  5
12D
100
AcDbEntity
  8
0
  6
ByLayer
 62
  256
370
   -1
100
AcDbLine
 10
80.6963825
 20
86.74335460000002
 11
82.95380879999999
 21
73.94085380000001
  0
ARC
  5
12E
100
AcDbEntity
  8
0
  6
ByLayer
 62
  256
370
   -1
100
AcDbCircle
 10
67.40147789999997
 20
84.39910420000002
 40
0.5
100
AcDbArc
 50
100
 51
190
  0
ARC
  5
12F
100
AcDbEntity
  8
0
  6
ByLayer
 62
  256
370
   -1
100
AcDbCircle
 10
80.2039786
 20
86.65653050000002
 40
0.5
100
AcDbArc
 50
10
 51
100
  0
ARC
  5
130
100
AcDbEntity
  8
0
  6
ByLayer
 62
  256
370
   -1
100
AcDbCircle
 10
69.65890419999999
 20
71.59660350000001
 40
0.5
100
AcDbArc
 50
190
 51
280
  0
ARC
  5
131
100
AcDbEntity
  8
0
  6
ByLayer
 62
  256
370
   -1
100
AcDbCircle
 10
82.46140489999999
 20
73.85402980000002
 40
0.5
100
AcDbArc
 50
280
 51
10
  0
LINE
  5
132
100
AcDbEntity
  8
0
  6
ByLayer
 62
  256
370
   -1
100
AcDbLine
 10
11.8598902
 20
70.27736780000002
 11
24.66239099999999
 21
72.53479410000003
  0
LINE
  5
133
100
AcDbEntity
  8
0
  6
ByLayer
 62
  256
370
   -1
100
AcDbLine
 10
14.2909646
 20
56.49005930000002
 11
27.09346539999999
 21
58.74748560000002
  0
LINE
  5
134
100
AcDbEntity
  8
0
  6
ByLayer
 62
  256
370
   -1
100
AcDbLine
 10
11.4543104
 20
69.69813990000003
 11
13.71173669999999
 21
56.89563910000002
  0
LINE
  5
135
100
AcDbEntity
  8
0
  6
ByLayer
 62
  256
370
   -1
100
AcDbLine
 10
25.24161889999999
 20
72.12921430000003
 11
27.49904519999998
 21
59.32671350000002
  0
ARC
  5
136
100
AcDbEntity
  8
0
  6
ByLayer
 62
  256
370
   -1
100
AcDbCircle
 10
11.9467143
 20
69.78496390000002
 40
0.5
100
AcDbArc
 50
100
 51
190
  0
ARC
  5
137
100
AcDbEntity
  8
0
  6
ByLayer
 62
  256
370
   -1
100
AcDbCircle
 10
24.74921499999999
 20
72.04239020000003
 40
0.5
100
AcDbArc
 50
10
 51
100
  0
ARC
  5
138
100
AcDbEntity
  8
0
  6
ByLayer
 62
  256
370
   -1
100
AcDbCircle
 10
14.20414059999999
 20
56.98246320000002
 40
0.5
100
AcDbArc
 50
190
 51
280
  0
ARC
  5
139
100
AcDbEntity
  8
0
  6
ByLayer
 62
  256
370
   -1
100
AcDbCircle
 10
27.00664129999998
 20
59.23988950000002
 40
0.5
100
AcDbArc
 50
280
 51
10
  0
LINE
  5
13A
100
AcDbEntity
  8
0
  6
ByLayer
 62
  256
370
   -1
100
AcDbLine
 10
86.90224089999998
 20
83.50935890000002
 11
99.7047417
 21
85.76678520000002
  0
LINE
  5
13B
100
AcDbEntity
  8
0
  6
ByLayer
 62
  256
370
   -1
100
AcDbLine
 10
89.33331529999998
 20
69.72205040000003
 11
102.1358161
 21
71.97947670000002
  0
LINE
  5
13C
100
AcDbEntity
  8
0
  6
ByLayer
 62
  256
370
   -1
100
AcDbLine
 10
86.49666109999998
 20
82.93013100000002
 11
88.75408739999997
 21
70.12763020000003
  0
LINE
  5
13D
100
AcDbEntity
  8
0
  6
ByLayer
 62
  256
370
   -1
100
AcDbLine
 10
100.2839696
 20
85.36120540000002
 11
102.5413959
 21
72.55870460000003
  0
ARC
  5
13E
100
AcDbEntity
  8
0
  6
ByLayer
 62
  256
370
   -1
100
AcDbCircle
 10
86.98906499999998
 20
83.01695500000002
 40
0.5
100
AcDbArc
 50
100
 51
190
  0
ARC
  5
13F
100
AcDbEntity
  8
0
  6
ByLayer
 62
  256
370
   -1
100
AcDbCircle
 10
99.79156569999998
 20
85.27438130000002
 40
0.5
100
AcDbArc
 50
10
 51
100
  0
ARC
  5
140
100
AcDbEntity
  8
0
  6
ByLayer
 62
  256
370
   -1
100
AcDbCircle
 10
89.2464913
 20
70.21445430000003
 40
0.5
100
AcDbArc
 50
190
 51
280
  0
ARC
  5
141
100
AcDbEntity
  8
0
  6
ByLayer
 62
  256
370
   -1
100
AcDbCircle
 10
102.048992
 20
72.47188060000002
 40
0.5
100
AcDbArc
 50
280
 51
10
  0
LINE
  5
142
100
AcDbEntity
  8
0
  6
ByLayer
 62
  256
370
   -1
100
AcDbLine
 10
106.4898281
 20
82.12720980000002
 11
119.2923289
 21
84.38463610000002
  0
LINE
  5
143
100
AcDbEntity
  8
0
  6
ByLayer
 62
  256
370
   -1
100
AcDbLine
 10
108.9209025
 20
68.33990130000002
 11
121.7234033
 21
70.59732760000003
  0
LINE
  5
144
100
AcDbEntity
  8
0
  6
ByLayer
 62
  256
370
   -1
100
AcDbLine
 10
106.0842483
 20
81.54798190000002
 11
108.3416746
 21
68.74548110000002
  0
LINE
  5
145
100
AcDbEntity
  8
0
  6
ByLayer
 62
  256
370
   -1
100
AcDbLine
 10
119.8715568
 20
83.97905630000002
 11
122.1289831
 21
71.17655550000002
  0
ARC
  5
146
100
AcDbEntity
  8
0
  6
ByLayer
 62
  256
370
   -1
100
AcDbCircle
 10
106.5766522
 20
81.63480590000002
 40
0.5
100
AcDbArc
 50
100
 51
190
  0
ARC
  5
147
100
AcDbEntity
  8
0
  6
ByLayer
 62
  256
370
   -1
100
AcDbCircle
 10
119.3791529
 20
83.89223220000002
 40
0.5
100
AcDbArc
 50
10
 51
100
  0
ARC
  5
148
100
AcDbEntity
  8
0
  6
ByLayer
 62
  256
370
   -1
100
AcDbCircle
 10
108.8340785
 20
68.83230520000002
 40
0.5
100
AcDbArc
 50
190
 51
280
  0
ARC
  5
149
100
AcDbEntity
  8
0
  6
ByLayer
 62
  256
370
   -1
100
AcDbCircle
 10
121.6365792
 20
71.08973150000003
 40
0.5
100
AcDbArc
 50
280
 51
10
  0
LINE
  5
14A
100
AcDbEntity
  8
0
  6
ByLayer
 62
  256
370
   -1
100
AcDbLine
 10
51.03506439999998
 20
67.51306950000003
 11
63.8375652
 21
69.77049580000002
  0
LINE
  5
14B
100
AcDbEntity
  8
0
  6
ByLayer
 62
  256
370
   -1
100
AcDbLine
 10
53.46613879999998
 20
53.72576100000002
 11
66.2686396
 21
55.98318730000002
  0
LINE
  5
14C
100
AcDbEntity
  8
0
  6
ByLayer
 62
  256
370
   -1
100
AcDbLine
 10
50.62948459999998
 20
66.93384160000002
 11
52.88691089999998
 21
54.13134080000002
  0
LINE
  5
14D
100
AcDbEntity
  8
0
  6
ByLayer
 62
  256
370
   -1
100
AcDbLine
 10
64.41679309999998
 20
69.36491600000002
 11
66.6742194
 21
56.56241520000002
  0
ARC
  5
14E
100
AcDbEntity
  8
0
  6
ByLayer
 62
  256
370
   -1
100
AcDbCircle
 10
51.12188849999998
 20
67.02066560000003
 40
0.5
100
AcDbArc
 50
100
 51
190
  0
ARC
  5
14F
100
AcDbEntity
  8
0
  6
ByLayer
 62
  256
370
   -1
100
AcDbCircle
 10
63.92438919999998
 20
69.27809190000002
 40
0.5
100
AcDbArc
 50
10
 51
100
  0
ARC
  5
150
100
AcDbEntity
  8
0
  6
ByLayer
 62
  256
370
   -1
100
AcDbCircle
 10
53.37931479999997
 20
54.21816490000002
 40
0.5
100
AcDbArc
 50
190
 51
280
  0
ARC
  5
151
100
AcDbEntity
  8
0
  6
ByLayer
 62
  256
370
   -1
100
AcDbCircle
 10
66.1818155
 20
56.47559120000002
 40
0.5
100
AcDbArc
 50
280
 51
10
  0
LINE
  5
152
100
AcDbEntity
  8
0
  6
ByLayer
 62
  256
370
   -1
100
AcDbLine
 10
33.10147619999998
 20
59.51492480000002
 11
45.903977
 21
61.77235110000002
  0
LINE
  5
153
100
AcDbEntity
  8
0
  6
ByLayer
 62
  256
370
   -1
100
AcDbLine
 10
35.53255059999998
 20
45.72761630000002
 11
48.3350514
 21
47.98504260000002
  0
LINE
  5
154
100
AcDbEntity
  8
0
  6
ByLayer
 62
  256
370
   -1
100
AcDbLine
 10
32.69589639999998
 20
58.93569690000002
 11
34.9533227
 21
46.13319610000002
  0
LINE
  5
155
100
AcDbEntity
  8
0
  6
ByLayer
 62
  256
370
   -1
100
AcDbLine
 10
46.48320489999998
 20
61.36677130000002
 11
48.7406312
 21
48.56427050000002
  0
ARC
  5
156
100
AcDbEntity
  8
0
  6
ByLayer
 62
  256
370
   -1
100
AcDbCircle
 10
33.18830029999998
 20
59.02252090000002
 40
0.5
100
AcDbArc
 50
100
 51
190
  0
ARC
  5
157
100
AcDbEntity
  8
0
  6
ByLayer
 62
  256
370
   -1
100
AcDbCircle
 10
45.99080099999998
 20
61.27994720000002
 40
0.5
100
AcDbArc
 50
10
 51
100
  0
ARC
  5
158
100
AcDbEntity
  8
0
  6
ByLayer
 62
  256
370
   -1
100
AcDbCircle
 10
35.4457266
 20
46.22002020000002
 40
0.5
100
AcDbArc
 50
190
 51
280
  0
ARC
  5
159
100
AcDbEntity
  8
0
  6
ByLayer
 62
  256
370
   -1
100
AcDbCircle
 10
48.2482273
 20
48.47744650000002
 40
0.5
100
AcDbArc
 50
280
 51
10
  0
LINE
  5
15A
100
AcDbEntity
  8
0
  6
ByLayer
 62
  256
370
   -1
100
AcDbLine
 10
70.62265159999998
 20
66.13092040000002
 11
83.4251524
 21
68.38834670000003
  0
LINE
  5
15B
100
AcDbEntity
  8
0
  6
ByLayer
 62
  256
370
   -1
100
AcDbLine
 10
73.05372599999998
 20
52.34361190000002
 11
85.8562268
 21
54.60103820000002
  0
LINE
  5
15C
100
AcDbEntity
  8
0
  6
ByLayer
 62
  256
370
   -1
100
AcDbLine
 10
70.21707179999999
 20
65.55169250000003
 11
72.47449809999998
 21
52.74919170000002
  0
LINE
  5
15D
100
AcDbEntity
  8
0
  6
ByLayer
 62
  256
370
   -1
100
AcDbLine
 10
84.00438029999998
 20
67.98276690000003
 11
86.2618066
 21
55.18026610000002
  0
ARC
  5
15E
100
AcDbEntity
  8
0
  6
ByLayer
 62
  256
370
   -1
100
AcDbCircle
 10
70.70947569999998
 20
65.63851650000002
 40
0.5
100
AcDbArc
 50
100
 51
190
  0
ARC
  5
15F
100
AcDbEntity
  8
0
  6
ByLayer
 62
  256
370
   -1
100
AcDbCircle
 10
83.51197639999998
 20
67.89594280000003
 40
0.5
100
AcDbArc
 50
10
 51
100
  0
ARC
  5
160
100
AcDbEntity
  8
0
  6
ByLayer
 62
  256
370
   -1
100
AcDbCircle
 10
72.96690199999998
 20
52.83601580000002
 40
0.5
100
AcDbArc
 50
190
 51
280
  0
ARC
  5
161
100
AcDbEntity
  8
0
  6
ByLayer
 62
  256
370
   -1
100
AcDbCircle
 10
85.7694027
 20
55.09344210000002
 40
0.5
100
AcDbArc
 50
280
 51
10
  0
LINE
  5
162
100
AcDbEntity
  8
0
  6
ByLayer
 62
  256
370
   -1
100
AcDbLine
 10
15.16788799999998
 20
51.51678010000002
 11
27.97038879999999
 21
53.77420640000002
  0
LINE
  5
163
100
AcDbEntity
  8
0
  6
ByLayer
 62
  256
370
   -1
100
AcDbLine
 10
17.59896239999998
 20
37.72947160000002
 11
30.40146319999999
 21
39.98689790000002
  0
LINE
  5
164
100
AcDbEntity
  8
0
  6
ByLayer
 62
  256
370
   -1
100
AcDbLine
 10
14.76230819999998
 20
50.93755220000002
 11
17.0197345
 21
38.13505140000002
  0
LINE
  5
165
100
AcDbEntity
  8
0
  6
ByLayer
 62
  256
370
   -1
100
AcDbLine
 10
28.5496167
 20
53.36862660000002
 11
30.80704299999999
 21
40.56612580000002
  0
ARC
  5
166
100
AcDbEntity
  8
0
  6
ByLayer
 62
  256
370
   -1
100
AcDbCircle
 10
15.25471209999998
 20
51.02437620000002
 40
0.5
100
AcDbArc
 50
100
 51
190
  0
ARC
  5
167
100
AcDbEntity
  8
0
  6
ByLayer
 62
  256
370
   -1
100
AcDbCircle
 10
28.0572128
 20
53.28180250000002
 40
0.5
100
AcDbArc
 50
10
 51
100
  0
ARC
  5
168
100
AcDbEntity
  8
0
  6
ByLayer
 62
  256
370
   -1
100
AcDbCircle
 10
17.5121384
 20
38.22187550000002
 40
0.5
100
AcDbArc
 50
190
 51
280
  0
ARC
  5
169
100
AcDbEntity
  8
0
  6
ByLayer
 62
  256
370
   -1
100
AcDbCircle
 10
30.31463909999999
 20
40.47930180000002
 40
0.5
100
AcDbArc
 50
280
 51
10
  0
LINE
  5
16A
100
AcDbEntity
  8
0
  6
ByLayer
 62
  256
370
   -1
100
AcDbLine
 10
90.21023869999999
 20
64.74877120000002
 11
103.0127395
 21
67.00619750000001
  0
LINE
  5
16B
100
AcDbEntity
  8
0
  6
ByLayer
 62
  256
370
   -1
100
AcDbLine
 10
92.64131309999999
 20
50.96146270000002
 11
105.4438139
 21
53.21888900000002
  0
LINE
  5
16C
100
AcDbEntity
  8
0
  6
ByLayer
 62
  256
370
   -1
100
AcDbLine
 10
89.80465889999999
 20
64.16954330000002
 11
92.06208519999998
 21
51.36704250000002
  0
LINE
  5
16D
100
AcDbEntity
  8
0
  6
ByLayer
 62
  256
370
   -1
100
AcDbLine
 10
103.5919674
 20
66.60061770000002
 11
105.8493937
 21
53.79811690000002
  0
ARC
  5
16E
100
AcDbEntity
  8
0
  6
ByLayer
 62
  256
370
   -1
100
AcDbCircle
 10
90.29706279999999
 20
64.25636730000002
 40
0.5
100
AcDbArc
 50
100
 51
190
  0
ARC
  5
16F
100
AcDbEntity
  8
0
  6
ByLayer
 62
  256
370
   -1
100
AcDbCircle
 10
103.0995635
 20
66.51379360000001
 40
0.5
100
AcDbArc
 50
10
 51
100
  0
ARC
  5
170
100
AcDbEntity
  8
0
  6
ByLayer
 62
  256
370
   -1
100
AcDbCircle
 10
92.55448909999998
 20
51.45386660000002
 40
0.5
100
AcDbArc
 50
190
 51
280
  0
ARC
  5
171
100
AcDbEntity
  8
0
  6
ByLayer
 62
  256
370
   -1
100
AcDbCircle
 10
105.3569898
 20
53.71129290000002
 40
0.5
100
AcDbArc
 50
280
 51
10
  0
LINE
  5
172
100
AcDbEntity
  8
0
  6
ByLayer
 62
  256
370
   -1
100
AcDbLine
 10
112.1428993
 20
63.78012180000002
 11
124.9454001
 21
66.03754810000001
  0
LINE
  5
173
100
AcDbEntity
  8
0
  6
ByLayer
 62
  256
370
   -1
100
AcDbLine
 10
114.5739737
 20
49.99281330000002
 11
127.3764745
 21
52.25023960000002
  0
LINE
  5
174
100
AcDbEntity
  8
0
  6
ByLayer
 62
  256
370
   -1
100
AcDbLine
 10
111.7373195
 20
63.20089390000002
 11
113.9947458
 21
50.39839310000002
  0
LINE
  5
175
100
AcDbEntity
  8
0
  6
ByLayer
 62
  256
370
   -1
100
AcDbLine
 10
125.524628
 20
65.63196830000001
 11
127.7820543
 21
52.82946750000002
  0
ARC
  5
176
100
AcDbEntity
  8
0
  6
ByLayer
 62
  256
370
   -1
100
AcDbCircle
 10
112.2297234
 20
63.28771790000002
 40
0.5
100
AcDbArc
 50
100
 51
190
  0
ARC
  5
177
100
AcDbEntity
  8
0
  6
ByLayer
 62
  256
370
   -1
100
AcDbCircle
 10
125.0322241
 20
65.54514420000001
 40
0.5
100
AcDbArc
 50
10
 51
100
  0
ARC
  5
178
100
AcDbEntity
  8
0
  6
ByLayer
 62
  256
370
   -1
100
AcDbCircle
 10
114.4871497
 20
50.48521720000002
 40
0.5
100
AcDbArc
 50
190
 51
280
  0
ARC
  5
179
100
AcDbEntity
  8
0
  6
ByLayer
 62
  256
370
   -1
100
AcDbCircle
 10
127.2896504
 20
52.74264350000002
 40
0.5
100
AcDbArc
 50
280
 51
10
  0
LINE
  5
17A
100
AcDbEntity
  8
0
  6
ByLayer
 62
  256
370
   -1
100
AcDbLine
 10
54.34306219999999
 20
48.75248180000002
 11
67.14556299999998
 21
51.00990810000002
  0
LINE
  5
17B
100
AcDbEntity
  8
0
  6
ByLayer
 62
  256
370
   -1
100
AcDbLine
 10
56.77413659999999
 20
34.96517330000002
 11
69.57663739999998
 21
37.22259960000002
  0
LINE
  5
17C
100
AcDbEntity
  8
0
  6
ByLayer
 62
  256
370
   -1
100
AcDbLine
 10
53.93748239999999
 20
48.17325390000002
 11
56.19490869999998
 21
35.37075310000002
  0
LINE
  5
17D
100
AcDbEntity
  8
0
  6
ByLayer
 62
  256
370
   -1
100
AcDbLine
 10
67.72479089999999
 20
50.60432830000002
 11
69.98221719999998
 21
37.80182750000002
  0
ARC
  5
17E
100
AcDbEntity
  8
0
  6
ByLayer
 62
  256
370
   -1
100
AcDbCircle
 10
54.42988629999999
 20
48.26007790000002
 40
0.5
100
AcDbArc
 50
100
 51
190
  0
ARC
  5
17F
100
AcDbEntity
  8
0
  6
ByLayer
 62
  256
370
   -1
100
AcDbCircle
 10
67.23238699999999
 20
50.51750420000002
 40
0.5
100
AcDbArc
 50
10
 51
100
  0
ARC
  5
180
100
AcDbEntity
  8
0
  6
ByLayer
 62
  256
370
   -1
100
AcDbCircle
 10
56.68731259999998
 20
35.45757720000002
 40
0.5
100
AcDbArc
 50
190
 51
280
  0
ARC
  5
181
100
AcDbEntity
  8
0
  6
ByLayer
 62
  256
370
   -1
100
AcDbCircle
 10
69.48981329999998
 20
37.71500350000002
 40
0.5
100
AcDbArc
 50
280
 51
10
  0
LINE
  5
182
100
AcDbEntity
  8
0
  6
ByLayer
 62
  256
370
   -1
100
AcDbLine
 10
36.40947399999999
 20
40.75433710000001
 11
49.21197479999998
 21
43.01176340000002
  0
LINE
  5
183
100
AcDbEntity
  8
0
  6
ByLayer
 62
  256
370
   -1
100
AcDbLine
 10
38.84054839999999
 20
26.96702860000002
 11
51.64304919999998
 21
29.22445490000003
  0
LINE
  5
184
100
AcDbEntity
  8
0
  6
ByLayer
 62
  256
370
   -1
100
AcDbLine
 10
36.00389419999999
 20
40.17510920000002
 11
38.26132049999998
 21
27.37260840000002
  0
LINE
  5
185
100
AcDbEntity
  8
0
  6
ByLayer
 62
  256
370
   -1
100
AcDbLine
 10
49.79120269999999
 20
42.60618360000002
 11
52.04862899999998
 21
29.80368280000002
  0
ARC
  5
186
100
AcDbEntity
  8
0
  6
ByLayer
 62
  256
370
   -1
100
AcDbCircle
 10
36.49629809999999
 20
40.26193320000002
 40
0.5
100
AcDbArc
 50
100
 51
190
  0
ARC
  5
187
100
AcDbEntity
  8
0
  6
ByLayer
 62
  256
370
   -1
100
AcDbCircle
 10
49.29879879999999
 20
42.51935950000002
 40
0.5
100
AcDbArc
 50
10
 51
100
  0
ARC
  5
188
100
AcDbEntity
  8
0
  6
ByLayer
 62
  256
370
   -1
100
AcDbCircle
 10
38.75372439999998
 20
27.45943250000002
 40
0.5
100
AcDbArc
 50
190
 51
280
  0
ARC
  5
189
100
AcDbEntity
  8
0
  6
ByLayer
 62
  256
370
   -1
100
AcDbCircle
 10
51.55622509999998
 20
29.71685880000003
 40
0.5
100
AcDbArc
 50
280
 51
10
  0
LINE
  5
18A
100
AcDbEntity
  8
0
  6
ByLayer
 62
  256
370
   -1
100
AcDbLine
 10
73.93064939999999
 20
47.37033270000002
 11
86.73315019999998
 21
49.62775900000002
  0
LINE
  5
18B
100
AcDbEntity
  8
0
  6
ByLayer
 62
  256
370
   -1
100
AcDbLine
 10
76.36172379999999
 20
33.58302420000003
 11
89.16422459999998
 21
35.84045050000002
  0
LINE
  5
18C
100
AcDbEntity
  8
0
  6
ByLayer
 62
  256
370
   -1
100
AcDbLine
 10
73.52506959999999
 20
46.79110480000002
 11
75.78249589999999
 21
33.98860400000002
  0
LINE
  5
18D
100
AcDbEntity
  8
0
  6
ByLayer
 62
  256
370
   -1
100
AcDbLine
 10
87.31237809999999
 20
49.22217920000002
 11
89.56980439999998
 21
36.41967840000002
  0
ARC
  5
18E
100
AcDbEntity
  8
0
  6
ByLayer
 62
  256
370
   -1
100
AcDbCircle
 10
74.01747349999999
 20
46.87792880000002
 40
0.5
100
AcDbArc
 50
100
 51
190
  0
ARC
  5
18F
100
AcDbEntity
  8
0
  6
ByLayer
 62
  256
370
   -1
100
AcDbCircle
 10
86.81997419999999
 20
49.13535510000002
 40
0.5
100
AcDbArc
 50
10
 51
100
  0
ARC
  5
190
100
AcDbEntity
  8
0
  6
ByLayer
 62
  256
370
   -1
100
AcDbCircle
 10
76.27489979999999
 20
34.07542810000002
 40
0.5
100
AcDbArc
 50
190
 51
280
  0
ARC
  5
191
100
AcDbEntity
  8
0
  6
ByLayer
 62
  256
370
   -1
100
AcDbCircle
 10
89.07740049999998
 20
36.33285440000002
 40
0.5
100
AcDbArc
 50
280
 51
10
  0
LINE
  5
192
100
AcDbEntity
  8
0
  6
ByLayer
 62
  256
370
   -1
100
AcDbLine
 10
18.47588569999999
 20
32.75619240000002
 11
31.27838649999998
 21
35.01361870000002
  0
LINE
  5
193
100
AcDbEntity
  8
0
  6
ByLayer
 62
  256
370
   -1
100
AcDbLine
 10
20.90696009999999
 20
18.96888390000002
 11
33.70946089999998
 21
21.22631020000001
  0
LINE
  5
194
100
AcDbEntity
  8
0
  6
ByLayer
 62
  256
370
   -1
100
AcDbLine
 10
18.07030589999999
 20
32.17696450000003
 11
20.32773219999999
 21
19.37446370000002
  0
LINE
  5
195
100
AcDbEntity
  8
0
  6
ByLayer
 62
  256
370
   -1
100
AcDbLine
 10
31.85761439999999
 20
34.60803890000003
 11
34.11504069999998
 21
21.80553810000002
  0
ARC
  5
196
100
AcDbEntity
  8
0
  6
ByLayer
 62
  256
370
   -1
100
AcDbCircle
 10
18.56270979999999
 20
32.26378850000002
 40
0.5
100
AcDbArc
 50
100
 51
190
  0
ARC
  5
197
100
AcDbEntity
  8
0
  6
ByLayer
 62
  256
370
   -1
100
AcDbCircle
 10
31.36521049999999
 20
34.52121480000002
 40
0.5
100
AcDbArc
 50
10
 51
100
  0
ARC
  5
198
100
AcDbEntity
  8
0
  6
ByLayer
 62
  256
370
   -1
100
AcDbCircle
 10
20.82013609999998
 20
19.46128780000002
 40
0.5
100
AcDbArc
 50
190
 51
280
  0
ARC
  5
199
100
AcDbEntity
  8
0
  6
ByLayer
 62
  256
370
   -1
100
AcDbCircle
 10
33.62263679999998
 20
21.71871410000001
 40
0.5
100
AcDbArc
 50
280
 51
10
  0
LINE
  5
19A
100
AcDbEntity
  8
0
  6
ByLayer
 62
  256
370
   -1
100
AcDbLine
 10
94.345236
 20
41.29803660000002
 11
107.1477368
 21
43.55546290000002
  0
LINE
  5
19B
100
AcDbEntity
  8
0
  6
ByLayer
 62
  256
370
   -1
100
AcDbLine
 10
96.7763104
 20
27.51072810000002
 11
109.5788112
 21
29.76815440000001
  0
LINE
  5
19C
100
AcDbEntity
  8
0
  6
ByLayer
 62
  256
370
   -1
100
AcDbLine
 10
93.9396562
 20
40.71880870000003
 11
96.19708249999999
 21
27.91630790000002
  0
LINE
  5
19D
100
AcDbEntity
  8
0
  6
ByLayer
 62
  256
370
   -1
100
AcDbLine
 10
107.7269647
 20
43.14988310000002
 11
109.984391
 21
30.34738230000002
  0
ARC
  5
19E
100
AcDbEntity
  8
0
  6
ByLayer
 62
  256
370
   -1
100
AcDbCircle
 10
94.4320601
 20
40.80563270000002
 40
0.5
100
AcDbArc
 50
100
 51
190
  0
ARC
  5
19F
100
AcDbEntity
  8
0
  6
ByLayer
 62
  256
370
   -1
100
AcDbCircle
 10
107.2345608
 20
43.06305900000002
 40
0.5
100
AcDbArc
 50
10
 51
100
  0
ARC
  5
1A0
100
AcDbEntity
  8
0
  6
ByLayer
 62
  256
370
   -1
100
AcDbCircle
 10
96.68948639999999
 20
28.00313200000002
 40
0.5
100
AcDbArc
 50
190
 51
280
  0
ARC
  5
1A1
100
AcDbEntity
  8
0
  6
ByLayer
 62
  256
370
   -1
100
AcDbCircle
 10
109.4919871
 20
30.26055830000001
 40
0.5
100
AcDbArc
 50
280
 51
10
  0
LINE
  5
1A2
100
AcDbEntity
  8
0
  6
ByLayer
 62
  256
370
   -1
100
AcDbLine
 10
115.4508971
 20
45.01953410000002
 11
128.2533979
 21
47.27696040000002
  0
LINE
  5
1A3
100
AcDbEntity
  8
0
  6
ByLayer
 62
  256
370
   -1
100
AcDbLine
 10
117.8819715
 20
31.23222560000002
 11
130.6844723
 21
33.48965190000003
  0
LINE
  5
1A4
100
AcDbEntity
  8
0
  6
ByLayer
 62
  256
370
   -1
100
AcDbLine
 10
115.0453173
 20
44.44030620000002
 11
117.3027436
 21
31.63780540000002
  0
LINE
  5
1A5
100
AcDbEntity
  8
0
  6
ByLayer
 62
  256
370
   -1
100
AcDbLine
 10
128.8326258
 20
46.87138060000002
 11
131.0900521
 21
34.06887980000002
  0
ARC
  5
1A6
100
AcDbEntity
  8
0
  6
ByLayer
 62
  256
370
   -1
100
AcDbCircle
 10
115.5377212
 20
44.52713020000002
 40
0.5
100
AcDbArc
 50
100
 51
190
  0
ARC
  5
1A7
100
AcDbEntity
  8
0
  6
ByLayer
 62
  256
370
   -1
100
AcDbCircle
 10
128.3402219
 20
46.78455650000002
 40
0.5
100
AcDbArc
 50
10
 51
100
  0
ARC
  5
1A8
100
AcDbEntity
  8
0
  6
ByLayer
 62
  256
370
   -1
100
AcDbCircle
 10
117.7951475
 20
31.72462950000002
 40
0.5
100
AcDbArc
 50
190
 51
280
  0
ARC
  5
1A9
100
AcDbEntity
  8
0
  6
ByLayer
 62
  256
370
   -1
100
AcDbCircle
 10
130.5976482
 20
33.98205580000003
 40
0.5
100
AcDbArc
 50
280
 51
10
  0
LINE
  5
1AA
100
AcDbEntity
  8
0
  6
ByLayer
 62
  256
370
   -1
100
AcDbLine
 10
41.37147069999997
 20
12.61345560000002
 11
54.17397149999999
 21
14.87088190000001
  0
LINE
  5
1AB
100
AcDbEntity
  8
0
  6
ByLayer
 62
  256
370
   -1
100
AcDbLine
 10
43.80254509999997
 20
-1.173852899999986
 11
56.60504589999999
 21
1.08357340000002
  0
LINE
  5
1AC
100
AcDbEntity
  8
0
  6
ByLayer
 62
  256
370
   -1
100
AcDbLine
 10
40.96589089999998
 20
12.03422770000002
 11
43.2233172
 21
-0.7682730999999734
  0
LINE
  5
1AD
100
AcDbEntity
  8
0
  6
ByLayer
 62
  256
370
   -1
100
AcDbLine
 10
54.7531994
 20
14.46530210000002
 11
57.01062569999999
 21
1.662801300000027
  0
ARC
  5
1AE
100
AcDbEntity
  8
0
  6
ByLayer
 62
  256
370
   -1
100
AcDbCircle
 10
41.45829479999998
 20
12.12105170000002
 40
0.5
100
AcDbArc
 50
100
 51
190
  0
ARC
  5
1AF
100
AcDbEntity
  8
0
  6
ByLayer
 62
  256
370
   -1
100
AcDbCircle
 10
54.2607955
 20
14.37847800000002
 40
0.5
100
AcDbArc
 50
10
 51
100
  0
ARC
  5
1B0
100
AcDbEntity
  8
0
  6
ByLayer
 62
  256
370
   -1
100
AcDbCircle
 10
43.7157211
 20
-0.6814489999999864
 40
0.5
100
AcDbArc
 50
190
 51
280
  0
ARC
  5
1B1
100
AcDbEntity
  8
0
  6
ByLayer
 62
  256
370
   -1
100
AcDbCircle
 10
56.51822179999999
 20
1.575977300000019
 40
0.5
100
AcDbArc
 50
280
 51
10
  0
LINE
  5
1B2
100
AcDbEntity
  8
0
  6
ByLayer
 62
  256
370
   -1
100
AcDbLine
 10
78.89264609999998
 20
19.22945120000001
 11
91.6951469
 21
21.48687750000002
  0
LINE
  5
1B3
100
AcDbEntity
  8
0
  6
ByLayer
 62
  256
370
   -1
100
AcDbLine
 10
81.32372049999998
 20
5.442142700000019
 11
94.1262213
 21
7.699569000000025
  0
LINE
  5
1B4
100
AcDbEntity
  8
0
  6
ByLayer
 62
  256
370
   -1
100
AcDbLine
 10
78.48706629999998
 20
18.65022330000002
 11
80.7444926
 21
5.847722500000017
  0
LINE
  5
1B5
100
AcDbEntity
  8
0
  6
ByLayer
 62
  256
370
   -1
100
AcDbLine
 10
92.27437479999998
 20
21.08129770000002
 11
94.5318011
 21
8.278796900000017
  0
ARC
  5
1B6
100
AcDbEntity
  8
0
  6
ByLayer
 62
  256
370
   -1
100
AcDbCircle
 10
78.97947019999998
 20
18.73704730000001
 40
0.5
100
AcDbArc
 50
100
 51
190
  0
ARC
  5
1B7
100
AcDbEntity
  8
0
  6
ByLayer
 62
  256
370
   -1
100
AcDbCircle
 10
91.78197089999998
 20
20.99447360000002
 40
0.5
100
AcDbArc
 50
10
 51
100
  0
ARC
  5
1B8
100
AcDbEntity
  8
0
  6
ByLayer
 62
  256
370
   -1
100
AcDbCircle
 10
81.2368965
 20
5.934546600000019
 40
0.5
100
AcDbArc
 50
190
 51
280
  0
ARC
  5
1B9
100
AcDbEntity
  8
0
  6
ByLayer
 62
  256
370
   -1
100
AcDbCircle
 10
94.0393972
 20
8.191972900000025
 40
0.5
100
AcDbArc
 50
280
 51
10
  0
LINE
  5
1BA
100
AcDbEntity
  8
0
  6
ByLayer
 62
  256
370
   -1
100
AcDbLine
 10
97.65323369999999
 20
22.53744890000002
 11
110.4557345
 21
24.79487520000002
  0
LINE
  5
1BB
100
AcDbEntity
  8
0
  6
ByLayer
 62
  256
370
   -1
100
AcDbLine
 10
100.0843081
 20
8.750140400000021
 11
112.8868089
 21
11.00756670000003
  0
LINE
  5
1BC
100
AcDbEntity
  8
0
  6
ByLayer
 62
  256
370
   -1
100
AcDbLine
 10
97.24765389999999
 20
21.95822100000002
 11
99.50508019999998
 21
9.155720200000019
  0
LINE
  5
1BD
100
AcDbEntity
  8
0
  6
ByLayer
 62
  256
370
   -1
100
AcDbLine
 10
111.0349624
 20
24.38929540000002
 11
113.2923887
 21
11.58679460000002
  0
ARC
  5
1BE
100
AcDbEntity
  8
0
  6
ByLayer
 62
  256
370
   -1
100
AcDbCircle
 10
97.74005779999999
 20
22.04504500000002
 40
0.5
100
AcDbArc
 50
100
 51
190
  0
ARC
  5
1BF
100
AcDbEntity
  8
0
  6
ByLayer
 62
  256
370
   -1
100
AcDbCircle
 10
110.5425585
 20
24.30247130000002
 40
0.5
100
AcDbArc
 50
10
 51
100
  0
ARC
  5
1C0
100
AcDbEntity
  8
0
  6
ByLayer
 62
  256
370
   -1
100
AcDbCircle
 10
99.99748409999998
 20
9.24254430000002
 40
0.5
100
AcDbArc
 50
190
 51
280
  0
ARC
  5
1C1
100
AcDbEntity
  8
0
  6
ByLayer
 62
  256
370
   -1
100
AcDbCircle
 10
112.7999848
 20
11.49997060000003
 40
0.5
100
AcDbArc
 50
280
 51
10
  0
LINE
  5
1C2
100
AcDbEntity
  8
0
  6
ByLayer
 62
  256
370
   -1
100
AcDbLine
 10
116.4138214
 20
25.84544670000002
 11
129.2163222
 21
28.10287300000002
  0
LINE
  5
1C3
100
AcDbEntity
  8
0
  6
ByLayer
 62
  256
370
   -1
100
AcDbLine
 10
118.8448958
 20
12.05813820000002
 11
131.6473966
 21
14.31556450000002
  0
LINE
  5
1C4
100
AcDbEntity
  8
0
  6
ByLayer
 62
  256
370
   -1
100
AcDbLine
 10
116.0082416
 20
25.26621880000002
 11
118.2656679
 21
12.46371800000001
  0
LINE
  5
1C5
100
AcDbEntity
  8
0
  6
ByLayer
 62
  256
370
   -1
100
AcDbLine
 10
129.7955501
 20
27.69729320000002
 11
132.0529764
 21
14.89479240000001
  0
ARC
  5
1C6
100
AcDbEntity
  8
0
  6
ByLayer
 62
  256
370
   -1
100
AcDbCircle
 10
116.5006455
 20
25.35304280000003
 40
0.5
100
AcDbArc
 50
100
 51
190
  0
ARC
  5
1C7
100
AcDbEntity
  8
0
  6
ByLayer
 62
  256
370
   -1
100
AcDbCircle
 10
129.3031462
 20
27.61046910000002
 40
0.5
100
AcDbArc
 50
10
 51
100
  0
ARC
  5
1C8
100
AcDbEntity
  8
0
  6
ByLayer
 62
  256
370
   -1
100
AcDbCircle
 10
118.7580718
 20
12.55054210000002
 40
0.5
100
AcDbArc
 50
190
 51
280
  0
ARC
  5
1C9
100
AcDbEntity
  8
0
  6
ByLayer
 62
  256
370
   -1
100
AcDbCircle
 10
131.5605725
 20
14.80796840000002
 40
0.5
100
AcDbArc
 50
280
 51
10
  0
LINE
  5
1CA
100
AcDbEntity
  8
noname
  6
ByLayer
 62
  256
370
   -1
100
AcDbLine
 10
-6.5
 20
6.500000000000014
 11
6.5
 21
-6.499999999999986
  0
LINE
  5
1CB
100
AcDbEntity
  8
noname
  6
ByLayer
 62
  256
370
   -1
100
AcDbLine
 10
11.9467143
 20
69.78496390000002
 11
27.00664129999998
 21
59.23988950000002
  0
LINE
  5
1CC
100
AcDbEntity
  8
noname
  6
ByLayer
 62
  256
370
   -1
100
AcDbLine
 10
44.94022949999999
 20
67.23803420000002
 11
29.8803025
 21
77.78310860000002
  0
LINE
  5
1CD
100
AcDbEntity
  8
noname
  6
ByLayer
 62
  256
370
   -1
100
AcDbLine
 10
15.25471209999998
 20
51.02437620000002
 11
30.31463909999996
 21
40.47930180000002
  0
LINE
  5
1CE
100
AcDbEntity
  8
noname
  6
ByLayer
 62
  256
370
   -1
100
AcDbLine
 10
33.18830029999998
 20
59.02252090000002
 11
48.24822729999996
 21
48.47744650000001
  0
LINE
  5
1CF
100
AcDbEntity
  8
noname
  6
ByLayer
 62
  256
370
   -1
100
AcDbLine
 10
36.49629809999999
 20
40.26193320000002
 11
51.55622509999997
 21
29.71685880000002
  0
LINE
  5
1D0
100
AcDbEntity
  8
noname
  6
ByLayer
 62
  256
370
   -1
100
AcDbLine
 10
18.56270979999999
 20
32.26378850000002
 11
33.62263679999997
 21
21.71871410000001
  0
LINE
  5
1D1
100
AcDbEntity
  8
noname
  6
ByLayer
 62
  256
370
   -1
100
AcDbLine
 10
41.45829479999998
 20
12.12105170000002
 11
56.51822179999996
 21
1.575977300000016
  0
LINE
  5
1D2
100
AcDbEntity
  8
noname
  6
ByLayer
 62
  256
370
   -1
100
AcDbLine
 10
54.42988629999999
 20
48.26007790000002
 11
69.48981329999998
 21
37.71500350000002
  0
LINE
  5
1D3
100
AcDbEntity
  8
noname
  6
ByLayer
 62
  256
370
   -1
100
AcDbLine
 10
78.97947019999998
 20
18.73704730000001
 11
94.03939719999997
 21
8.191972900000007
  0
LINE
  5
1D4
100
AcDbEntity
  8
noname
  6
ByLayer
 62
  256
370
   -1
100
AcDbLine
 10
74.01747349999999
 20
46.87792880000002
 11
89.07740049999998
 21
36.33285440000002
  0
LINE
  5
1D5
100
AcDbEntity
  8
noname
  6
ByLayer
 62
  256
370
   -1
100
AcDbLine
 10
51.12188849999998
 20
67.02066560000003
 11
66.18181549999997
 21
56.47559120000003
  0
LINE
  5
1D6
100
AcDbEntity
  8
noname
  6
ByLayer
 62
  256
370
   -1
100
AcDbLine
 10
70.70947569999998
 20
65.63851650000002
 11
85.76940269999997
 21
55.09344210000002
  0
LINE
  5
1D7
100
AcDbEntity
  8
noname
  6
ByLayer
 62
  256
370
   -1
100
AcDbLine
 10
47.8138908
 20
85.78125330000002
 11
62.87381779999998
 21
75.23617890000001
  0
LINE
  5
1D8
100
AcDbEntity
  8
noname
  6
ByLayer
 62
  256
370
   -1
100
AcDbLine
 10
67.40147789999997
 20
84.39910420000002
 11
82.46140489999996
 21
73.85402980000002
  0
LINE
  5
1D9
100
AcDbEntity
  8
noname
  6
ByLayer
 62
  256
370
   -1
100
AcDbLine
 10
86.98906499999998
 20
83.01695500000002
 11
102.048992
 21
72.47188060000002
  0
LINE
  5
1DA
100
AcDbEntity
  8
noname
  6
ByLayer
 62
  256
370
   -1
100
AcDbLine
 10
90.29706279999999
 20
64.25636730000002
 11
105.3569898
 21
53.71129290000002
  0
LINE
  5
1DB
100
AcDbEntity
  8
noname
  6
ByLayer
 62
  256
370
   -1
100
AcDbLine
 10
94.4320601
 20
40.80563270000002
 11
109.4919871
 21
30.26055830000001
  0
LINE
  5
1DC
100
AcDbEntity
  8
noname
  6
ByLayer
 62
  256
370
   -1
100
AcDbLine
 10
97.74005779999999
 20
22.04504500000002
 11
112.7999848
 21
11.49997060000002
  0
LINE
  5
1DD
100
AcDbEntity
  8
noname
  6
ByLayer
 62
  256
370
   -1
100
AcDbLine
 10
116.5006455
 20
25.35304280000003
 11
131.5605725
 21
14.80796840000002
  0
LINE
  5
1DE
100
AcDbEntity
  8
noname
  6
ByLayer
 62
  256
370
   -1
100
AcDbLine
 10
115.5377212
 20
44.52713020000002
 11
130.5976482
 21
33.98205580000002
  0
LINE
  5
1DF
100
AcDbEntity
  8
noname
  6
ByLayer
 62
  256
370
   -1
100
AcDbLine
 10
112.2297234
 20
63.28771790000002
 11
127.2896504
 21
52.74264350000001
  0
LINE
  5
1E0
100
AcDbEntity
  8
noname
  6
ByLayer
 62
  256
370
   -1
100
AcDbLine
 10
106.5766522
 20
81.63480590000002
 11
121.6365792
 21
71.08973150000001
  0
LINE
  5
1E1
100
AcDbEntity
  8
noname
  6
ByLayer
 62
  256
370
   -1
100
AcDbLine
 10
-119.3791529
 20
83.89223220000002
 11
-108.8340785
 21
68.83230520000002
  0
LINE
  5
1E2
100
AcDbEntity
  8
noname
  6
ByLayer
 62
  256
370
   -1
100
AcDbLine
 10
-99.79156570000001
 20
85.27438130000002
 11
-89.24649130000002
 21
70.21445430000001
  0
LINE
  5
1E3
100
AcDbEntity
  8
noname
  6
ByLayer
 62
  256
370
   -1
100
AcDbLine
 10
-80.20397860000001
 20
86.65653050000002
 11
-69.65890420000002
 21
71.59660350000001
  0
LINE
  5
1E4
100
AcDbEntity
  8
noname
  6
ByLayer
 62
  256
370
   -1
100
AcDbLine
 10
-60.61639150000001
 20
88.03867960000002
 11
-50.07131710000002
 21
72.97875260000002
  0
LINE
  5
1E5
100
AcDbEntity
  8
noname
  6
ByLayer
 62
  256
370
   -1
100
AcDbLine
 10
-42.68280320000001
 20
80.04053490000001
 11
-32.13772880000002
 21
64.98060790000001
  0
LINE
  5
1E6
100
AcDbEntity
  8
noname
  6
ByLayer
 62
  256
370
   -1
100
AcDbLine
 10
-24.74921500000001
 20
72.04239020000003
 11
-14.20414060000002
 21
56.98246320000003
  0
LINE
  5
1E7
100
AcDbEntity
  8
noname
  6
ByLayer
 62
  256
370
   -1
100
AcDbLine
 10
-28.05721280000002
 20
53.28180250000002
 11
-17.51213840000003
 21
38.22187550000002
  0
LINE
  5
1E8
100
AcDbEntity
  8
noname
  6
ByLayer
 62
  256
370
   -1
100
AcDbLine
 10
-45.990801
 20
61.27994720000002
 11
-35.44572660000001
 21
46.22002020000001
  0
LINE
  5
1E9
100
AcDbEntity
  8
noname
  6
ByLayer
 62
  256
370
   -1
100
AcDbLine
 10
-63.92438920000001
 20
69.27809190000002
 11
-53.37931480000002
 21
54.21816490000002
  0
LINE
  5
1EA
100
AcDbEntity
  8
noname
  6
ByLayer
 62
  256
370
   -1
100
AcDbLine
 10
-83.51197640000001
 20
67.89594280000003
 11
-72.96690200000002
 21
52.83601580000003
  0
LINE
  5
1EB
100
AcDbEntity
  8
noname
  6
ByLayer
 62
  256
370
   -1
100
AcDbLine
 10
-103.0995635
 20
66.51379360000001
 11
-92.55448910000001
 21
51.45386660000001
  0
LINE
  5
1EC
100
AcDbEntity
  8
noname
  6
ByLayer
 62
  256
370
   -1
100
AcDbLine
 10
-125.0322241
 20
65.54514420000001
 11
-114.4871497
 21
50.48521720000001
  0
LINE
  5
1ED
100
AcDbEntity
  8
noname
  6
ByLayer
 62
  256
370
   -1
100
AcDbLine
 10
-128.3402219
 20
46.78455650000002
 11
-117.7951475
 21
31.72462950000002
  0
LINE
  5
1EE
100
AcDbEntity
  8
noname
  6
ByLayer
 62
  256
370
   -1
100
AcDbLine
 10
-106.4075613
 20
47.75320600000002
 11
-95.86248690000001
 21
32.69327900000002
  0
LINE
  5
1EF
100
AcDbEntity
  8
noname
  6
ByLayer
 62
  256
370
   -1
100
AcDbLine
 10
-86.81997420000002
 20
49.13535510000002
 11
-76.27489980000003
 21
34.07542810000002
  0
LINE
  5
1F0
100
AcDbEntity
  8
noname
  6
ByLayer
 62
  256
370
   -1
100
AcDbLine
 10
-67.23238700000002
 20
50.51750420000002
 11
-56.68731260000003
 21
35.45757720000002
  0
LINE
  5
1F1
100
AcDbEntity
  8
noname
  6
ByLayer
 62
  256
370
   -1
100
AcDbLine
 10
-49.29879880000001
 20
42.51935950000002
 11
-38.75372440000002
 21
27.45943250000002
  0
LINE
  5
1F2
100
AcDbEntity
  8
noname
  6
ByLayer
 62
  256
370
   -1
100
AcDbLine
 10
-31.36521050000002
 20
34.52121480000002
 11
-20.82013610000003
 21
19.46128780000002
  0
LINE
  5
1F3
100
AcDbEntity
  8
noname
  6
ByLayer
 62
  256
370
   -1
100
AcDbLine
 10
-54.26079550000001
 20
14.37847800000002
 11
-43.71572110000002
 21
-0.6814489999999811
  0
LINE
  5
1F4
100
AcDbEntity
  8
noname
  6
ByLayer
 62
  256
370
   -1
100
AcDbLine
 10
-89.43689740000002
 20
20.58097380000002
 11
-78.89182300000003
 21
5.521046800000018
  0
LINE
  5
1F5
100
AcDbEntity
  8
noname
  6
ByLayer
 62
  256
370
   -1
100
AcDbLine
 10
-110.5425585
 20
24.30247130000002
 11
-99.99748410000001
 21
9.242544300000016
  0
LINE
  5
1F6
100
AcDbEntity
  8
noname
  6
ByLayer
 62
  256
370
   -1
100
AcDbLine
 10
-131.6482197
 20
28.02396880000002
 11
-121.1031453
 21
12.96404180000002
  0
ARC
  5
1F7
100
AcDbEntity
  8
noname3
  6
ByLayer
 62
  256
370
   -1
100
AcDbCircle
 10
-135.093063310258
 20
14.39002950175857
 40
5
100
AcDbArc
 50
170.0000000502692
 51
260.0000000502691
  0
LINE
  5
1F8
100
AcDbEntity
  8
noname3
  6
ByLayer
 62
  256
370
   -1
100
AcDbLine
 10
-127.6382645198265
 20
85.46214712673915
 11
-140.0171020760808
 21
15.25827038577305
  0
ARC
  5
1F9
100
AcDbEntity
  8
noname3
  6
ByLayer
 62
  256
370
   -1
100
AcDbCircle
 10
-122.7142257540037
 20
84.59390624272469
 40
5
100
AcDbArc
 50
94.03624345252985
 51
170.0000000502693
  0
ARC
  5
1FA
100
AcDbEntity
  8
noname3
  6
ByLayer
 62
  256
370
   -1
100
AcDbCircle
 10
119.3991080840511
 20
103.3948727319527
 40
5
100
AcDbArc
 50
9.99999994973061
 51
85.96375654747017
  0
LINE
  5
1FB
100
AcDbEntity
  8
noname3
  6
ByLayer
 62
  256
370
   -1
100
AcDbLine
 10
124.3231468498738
 20
104.2631136159672
 11
140.0171020475989
 21
15.25827036857534
  0
ARC
  5
1FC
100
AcDbEntity
  8
noname3
  6
ByLayer
 62
  256
370
   -1
100
AcDbCircle
 10
135.0930632817761
 20
14.39002948456086
 40
5
100
AcDbArc
 50
279.9999999497305
 51
9.999999949730686
  0
ARC
  5
1FD
100
AcDbEntity
  8
noname3
  6
ByLayer
 62
  256
370
   -1
100
AcDbCircle
 10
64.38839542813614
 20
99.898864062595
 40
5
100
AcDbArc
 50
279.9999999497306
 51
355.9637565474702
  0
LINE
  5
1FE
100
AcDbEntity
  8
noname3
  6
ByLayer
 62
  256
370
   -1
100
AcDbLine
 10
69.37599405311391
 20
99.54692663048544
 11
69.89400395976318
 21
106.888076682761
  0
LINE
  5
1FF
100
AcDbEntity
  8
noname3
  6
ByLayer
 62
  256
370
   -1
100
AcDbLine
 10
75.23354001685053
 20
111.5237378756292
 11
119.7510455161606
 21
108.3824713569305
  0
ARC
  5
200
100
AcDbEntity
  8
noname3
  6
ByLayer
 62
  256
370
   -1
100
AcDbCircle
 10
74.88160258474096
 20
106.5361392506514
 40
5
100
AcDbArc
 50
85.96375654747001
 51
175.9637565474702
  0
LINE
  5
201
100
AcDbEntity
  8
noname1
  6
ByLayer
 62
  256
370
   -1
100
AcDbLine
 10
77.33073580732876
 20
108.3682951697314
 11
117.2315248071509
 21
105.552795712855
  0
LINE
  5
202
100
AcDbEntity
  8
noname1
  6
ByLayer
 62
  256
370
   -1
100
AcDbLine
 10
76.345310997422
 20
94.40301901979366
 11
77.33073580732876
 21
108.3682951697314
  0
LINE
  5
203
100
AcDbEntity
  8
noname1
  6
ByLayer
 62
  256
370
   -1
100
AcDbLine
 10
117.2315248071509
 20
105.552795712855
 11
116.2460999972442
 21
91.58751956291718
  0
LINE
  5
204
100
AcDbEntity
  8
noname1
  6
ByLayer
 62
  256
370
   -1
100
AcDbLine
 10
116.2460999972442
 20
91.58751956291718
 11
76.345310997422
 21
94.40301901979366
  0
LINE
  5
205
100
AcDbEntity
  8
noname
  6
ByLayer
 62
  256
370
   -1
100
AcDbLine
 10
77.33073580732876
 20
108.3682951697314
 11
116.2460999972442
 21
91.58751956291718
  0
ARC
  5
206
100
AcDbEntity
  8
noname3
  6
ByLayer
 62
  256
370
   -1
100
AcDbCircle
 10
-0.1833526894261013
 20
125.7840515777302
 40
50
100
AcDbArc
 50
245.9637565556198
 51
294.7904593280484
  0
LINE
  5
207
100
AcDbEntity
  8
noname3
  6
ByLayer
 62
  256
370
   -1
100
AcDbLine
 10
-65.33969635558091
 20
93.65482873128532
 11
-123.0661631861132
 21
89.58150486770244
  0
LINE
  5
208
100
AcDbEntity
  8
noname3
  6
ByLayer
 62
  256
370
   -1
100
AcDbLine
 10
-41.45459999600563
 20
89.44324180802218
 11
-20.54907472790581
 21
80.11965225121564
  0
ARC
  5
209
100
AcDbEntity
  8
noname3
  6
ByLayer
 62
  256
370
   -1
100
AcDbCircle
 10
-61.82032203448534
 20
43.77884248150764
 40
50
100
AcDbArc
 50
65.9637565556198
 51
94.03624345252992
  0
LINE
  5
20A
100
AcDbEntity
  8
noname3
  6
ByLayer
 62
  256
370
   -1
100
AcDbLine
 10
38.2512166291909
 20
88.46020933002249
 11
20.78169316214449
 21
80.39168600331288
  0
LINE
  5
20B
100
AcDbEntity
  8
noname3
  6
ByLayer
 62
  256
370
   -1
100
AcDbLine
 10
50.30697892474671
 20
92.26768792729466
 11
65.2566363121506
 21
94.9748252967722
  0
ARC
  5
20C
100
AcDbEntity
  8
noname3
  6
ByLayer
 62
  256
370
   -1
100
AcDbCircle
 10
59.21626248076147
 20
43.0678437556052
 40
50
100
AcDbArc
 50
100.2640980819849
 51
114.7904593280484
  0
LINE
  5
20D
100
AcDbEntity
  8
noname3
  6
ByLayer
 62
  256
370
   -1
100
AcDbLine
 10
26.04722655495941
 20
-9.914826624302581
 11
135.9613041657906
 21
9.465990718738057
  0
LINE
  5
20E
100
AcDbEntity
  8
noname3
  6
ByLayer
 62
  256
370
   -1
100
AcDbLine
 10
-135.9613041942725
 20
9.465990735935772
 11
-26.04722648590882
 21
-9.914826624302542
  0
ARC
  5
20F
100
AcDbEntity
  8
noname3
  6
ByLayer
 62
  256
370
   -1
100
AcDbCircle
 10
3.452532837400213e-08
 20
137.8063363503815
 40
150
100
AcDbArc
 50
260.0000000502693
 51
279.9999999497306
  0
CIRCLE
  5
210
100
AcDbEntity
  8
noname4
  6
ByLayer
 62
  256
370
   -1
100
AcDbCircle
 10
0
 20
60
 40
1.1
  0
CIRCLE
  5
211
100
AcDbEntity
  8
noname4
  6
ByLayer
 62
  256
370
   -1
100
AcDbCircle
 10
65
 20
25
 40
1.1
  0
CIRCLE
  5
212
100
AcDbEntity
  8
noname4
  6
ByLayer
 62
  256
370
   -1
100
AcDbCircle
 10
-65
 20
25
 40
1.1
  0
CIRCLE
  5
213
100
AcDbEntity
  8
noname4
  6
ByLayer
 62
  256
370
   -1
100
AcDbCircle
 10
-122.7142257540037
 20
84.59390624272469
 40
1.1
  0
CIRCLE
  5
214
100
AcDbEntity
  8
noname4
  6
ByLayer
 62
  256
370
   -1
100
AcDbCircle
 10
122.7142257540037
 20
84.59390624272469
 40
1.1
  0
LINE
  5
215
100
AcDbEntity
  8
noname
  6
ByLayer
 62
  256
370
   -1
100
AcDbLine
 10
-103.5976087232595
 20
81.10952025357271
 11
-105.8550350232595
 21
68.30701945357271
  0
LINE
  5
216
100
AcDbEntity
  8
noname
  6
ByLayer
 62
  256
370
   -1
100
AcDbLine
 10
-84.0100215232595
 20
82.4916693535727
 11
-86.26744782325949
 21
69.68916855357271
  0
LINE
  5
217
100
AcDbEntity
  8
noname
  6
ByLayer
 62
  256
370
   -1
100
AcDbLine
 10
-64.4224344232595
 20
83.8738185535727
 11
-66.67986072325949
 21
71.0713177535727
  0
LINE
  5
218
100
AcDbEntity
  8
noname
  6
ByLayer
 62
  256
370
   -1
100
AcDbLine
 10
-44.8348473232595
 20
85.25596765357271
 11
-47.0922736232595
 21
72.45346685357271
  0
LINE
  5
219
100
AcDbEntity
  8
noname
  6
ByLayer
 62
  256
370
   -1
100
AcDbLine
 10
-26.9012590232595
 20
77.2578229535727
 11
-29.15868532325949
 21
64.45532215357271
  0
LINE
  5
21A
100
AcDbEntity
  8
noname
  6
ByLayer
 62
  256
370
   -1
100
AcDbLine
 10
-8.967670823259493
 20
69.25967825357272
 11
-11.22509712325951
 21
56.45717745357271
  0
LINE
  5
21B
100
AcDbEntity
  8
noname
  6
ByLayer
 62
  256
370
   -1
100
AcDbLine
 10
-12.27566862325949
 20
50.49909055357271
 11
-14.53309492325949
 21
37.69658975357272
  0
LINE
  5
21C
100
AcDbEntity
  8
noname
  6
ByLayer
 62
  256
370
   -1
100
AcDbLine
 10
-15.58366632325949
 20
31.73850285357273
 11
-17.8410926232595
 21
18.93600205357271
  0
LINE
  5
21D
100
AcDbEntity
  8
noname
  6
ByLayer
 62
  256
370
   -1
100
AcDbLine
 10
-30.20925682325949
 20
58.4972352535727
 11
-32.46668312325951
 21
45.69473445357271
  0
LINE
  5
21E
100
AcDbEntity
  8
noname
  6
ByLayer
 62
  256
370
   -1
100
AcDbLine
 10
-33.51725462325948
 20
39.73664755357272
 11
-35.7746809232595
 21
26.93414675357271
  0
LINE
  5
21F
100
AcDbEntity
  8
noname
  6
ByLayer
 62
  256
370
   -1
100
AcDbLine
 10
-51.45084282325949
 20
47.73479225357271
 11
-53.7082691232595
 21
34.93229145357272
  0
LINE
  5
220
100
AcDbEntity
  8
noname
  6
ByLayer
 62
  256
370
   -1
100
AcDbLine
 10
-48.1428450232595
 20
66.49537995357271
 11
-50.4002713232595
 21
53.69287915357271
  0
LINE
  5
221
100
AcDbEntity
  8
noname
  6
ByLayer
 62
  256
370
   -1
100
AcDbLine
 10
-67.7304322232595
 20
65.11323085357273
 11
-69.98785852325949
 21
52.31073005357271
  0
LINE
  5
222
100
AcDbEntity
  8
noname
  6
ByLayer
 62
  256
370
   -1
100
AcDbLine
 10
-71.03843002325949
 20
46.35264315357271
 11
-73.2958563232595
 21
33.55014235357271
  0
LINE
  5
223
100
AcDbEntity
  8
noname
  6
ByLayer
 62
  256
370
   -1
100
AcDbLine
 10
-90.62601712325949
 20
44.97049405357271
 11
-92.88344342325949
 21
32.16799325357271
  0
LINE
  5
224
100
AcDbEntity
  8
noname
  6
ByLayer
 62
  256
370
   -1
100
AcDbLine
 10
-112.5586777232595
 20
44.00184455357272
 11
-114.8161040232595
 21
31.19934375357271
  0
LINE
  5
225
100
AcDbEntity
  8
noname
  6
ByLayer
 62
  256
370
   -1
100
AcDbLine
 10
-115.8666755232595
 20
25.24125685357271
 11
-118.1241018232595
 21
12.43875605357271
  0
LINE
  5
226
100
AcDbEntity
  8
noname
  6
ByLayer
 62
  256
370
   -1
100
AcDbLine
 10
-73.6553532232595
 20
17.79826185357271
 11
-75.9127795232595
 21
4.995761053572711
  0
LINE
  5
227
100
AcDbEntity
  8
noname
  6
ByLayer
 62
  256
370
   -1
100
AcDbLine
 10
-94.7610143232595
 20
21.51975935357271
 11
-97.01844062325949
 21
8.717258553572712
  0
LINE
  5
228
100
AcDbEntity
  8
noname
  6
ByLayer
 62
  256
370
   -1
100
AcDbLine
 10
-109.2506799232595
 20
62.76243225357271
 11
-111.5081062232595
 21
49.95993145357271
  0
LINE
  5
229
100
AcDbEntity
  8
noname
  6
ByLayer
 62
  256
370
   -1
100
AcDbLine
 10
-87.31801932325951
 20
63.73108165357271
 11
-89.5754456232595
 21
50.92858085357271
  0
LINE
  5
22A
100
AcDbEntity
  8
noname
  6
ByLayer
 62
  256
370
   -1
100
AcDbLine
 10
-38.4792513232595
 20
11.59576605357271
 11
-40.7366776232595
 21
-1.20673474642728
  0
LINE
  5
22B
100
AcDbEntity
  8
noname
  6
ByLayer
 62
  256
370
   -1
100
AcDbLine
 10
8.967670823259484
 20
69.25967825357273
 11
11.22509712325947
 21
56.45717745357272
  0
LINE
  5
22C
100
AcDbEntity
  8
noname
  6
ByLayer
 62
  256
370
   -1
100
AcDbLine
 10
12.27566862325946
 20
50.49909055357271
 11
14.53309492325948
 21
37.69658975357272
  0
LINE
  5
22D
100
AcDbEntity
  8
noname
  6
ByLayer
 62
  256
370
   -1
100
AcDbLine
 10
15.58366632325947
 20
31.73850285357273
 11
17.84109262325947
 21
18.93600205357271
  0
LINE
  5
22E
100
AcDbEntity
  8
noname
  6
ByLayer
 62
  256
370
   -1
100
AcDbLine
 10
26.90125902325948
 20
77.25782295357271
 11
29.15868532325948
 21
64.45532215357272
  0
LINE
  5
22F
100
AcDbEntity
  8
noname
  6
ByLayer
 62
  256
370
   -1
100
AcDbLine
 10
30.20925682325947
 20
58.49723525357271
 11
32.46668312325949
 21
45.69473445357271
  0
LINE
  5
230
100
AcDbEntity
  8
noname
  6
ByLayer
 62
  256
370
   -1
100
AcDbLine
 10
33.51725462325948
 20
39.73664755357272
 11
35.77468092325947
 21
26.93414675357272
  0
LINE
  5
231
100
AcDbEntity
  8
noname
  6
ByLayer
 62
  256
370
   -1
100
AcDbLine
 10
51.45084282325948
 20
47.73479225357272
 11
53.70826912325946
 21
34.93229145357272
  0
LINE
  5
232
100
AcDbEntity
  8
noname
  6
ByLayer
 62
  256
370
   -1
100
AcDbLine
 10
48.14284502325946
 20
66.49537995357272
 11
50.40027132325947
 21
53.69287915357271
  0
LINE
  5
233
100
AcDbEntity
  8
noname
  6
ByLayer
 62
  256
370
   -1
100
AcDbLine
 10
44.83484732325948
 20
85.25596765357272
 11
47.09227362325947
 21
72.45346685357272
  0
LINE
  5
234
100
AcDbEntity
  8
noname
  6
ByLayer
 62
  256
370
   -1
100
AcDbLine
 10
64.42243442325946
 20
83.8738185535727
 11
66.67986072325948
 21
71.0713177535727
  0
LINE
  5
235
100
AcDbEntity
  8
noname
  6
ByLayer
 62
  256
370
   -1
100
AcDbLine
 10
67.73043222325947
 20
65.11323085357273
 11
69.98785852325946
 21
52.31073005357272
  0
LINE
  5
236
100
AcDbEntity
  8
noname
  6
ByLayer
 62
  256
370
   -1
100
AcDbLine
 10
71.03843002325948
 20
46.35264315357272
 11
73.29585632325947
 21
33.55014235357272
  0
LINE
  5
237
100
AcDbEntity
  8
noname
  6
ByLayer
 62
  256
370
   -1
100
AcDbLine
 10
84.01002152325947
 20
82.49166935357272
 11
86.26744782325946
 21
69.68916855357273
  0
LINE
  5
238
100
AcDbEntity
  8
noname
  6
ByLayer
 62
  256
370
   -1
100
AcDbLine
 10
87.31801932325948
 20
63.73108165357271
 11
89.57544562325947
 21
50.92858085357271
  0
LINE
  5
239
100
AcDbEntity
  8
noname
  6
ByLayer
 62
  256
370
   -1
100
AcDbLine
 10
91.45301662325949
 20
40.28034705357273
 11
93.71044292325948
 21
27.47784625357272
  0
LINE
  5
23A
100
AcDbEntity
  8
noname
  6
ByLayer
 62
  256
370
   -1
100
AcDbLine
 10
103.5976087232595
 20
81.10952025357273
 11
105.8550350232595
 21
68.30701945357272
  0
LINE
  5
23B
100
AcDbEntity
  8
noname
  6
ByLayer
 62
  256
370
   -1
100
AcDbLine
 10
109.2506799232595
 20
62.76243225357271
 11
111.5081062232595
 21
49.95993145357271
  0
LINE
  5
23C
100
AcDbEntity
  8
noname
  6
ByLayer
 62
  256
370
   -1
100
AcDbLine
 10
112.5586777232595
 20
44.00184455357272
 11
114.8161040232595
 21
31.19934375357271
  0
LINE
  5
23D
100
AcDbEntity
  8
noname
  6
ByLayer
 62
  256
370
   -1
100
AcDbLine
 10
113.5216020232595
 20
24.82775715357272
 11
115.7790283232595
 21
12.02525635357271
  0
LINE
  5
23E
100
AcDbEntity
  8
noname
  6
ByLayer
 62
  256
370
   -1
100
AcDbLine
 10
94.76101432325947
 20
21.51975935357271
 11
97.01844062325947
 21
8.717258553572714
  0
LINE
  5
23F
100
AcDbEntity
  8
noname
  6
ByLayer
 62
  256
370
   -1
100
AcDbLine
 10
76.00042672325947
 20
18.21176165357271
 11
78.25785302325949
 21
5.409260853572706
  0
LINE
  5
240
100
AcDbEntity
  8
noname
  6
ByLayer
 62
  256
370
   -1
100
AcDbLine
 10
38.47925132325946
 20
11.59576605357271
 11
40.73667762325948
 21
-1.206734746427283
  0
LINE
  5
241
100
AcDbEntity
  8
noname
  6
ByLayer
 62
  256
370
   -1
100
AcDbLine
 10
-10
 20
45.00000000000001
 11
-10
 21
50.00000000000001
  0
LWPOLYLINE
  5
242
100
AcDbEntity
  8
noname1
  6
ByLayer
 62
  256
370
   -1
100
AcDbPolyline
 90
    4
 70
    1
 43
0
 10
10
 20
17.00000000000001
 10
-10
 20
17.00000000000001
 10
-10
 20
50.00000000000001
 10
10
 20
50.00000000000001
  0
LINE
  5
243
100
AcDbEntity
  8
noname
  6
ByLayer
 62
  256
370
   -1
100
AcDbLine
 10
-10
 20
50.00000000000001
 11
10
 21
17.00000000000001
  0
LINE
  5
244
100
AcDbEntity
  8
noname
  6
ByLayer
 62
  256
370
   -1
100
AcDbLine
 10
-6.5
 20
12.05000000000001
 11
6.5
 21
12.05000000000001
  0
CIRCLE
  5
245
100
AcDbEntity
  8
noname4
  6
ByLayer
 62
  256
370
   -1
100
AcDbCircle
 10
123.54914685
 20
29.66754930000003
 40
1.1
  0
CIRCLE
  5
246
100
AcDbEntity
  8
noname4
  6
ByLayer
 62
  256
370
   -1
100
AcDbCircle
 10
-123.54914685
 20
29.66754930000003
 40
1.1
  0
LINE
  5
247
100
AcDbEntity
  8
noname5
  6
ByLayer
 62
  256
370
   -1
100
AcDbLine
 10
75.58547744896009
 20
116.5113365006069
 11
120.1029829482702
 21
113.3700699819083
  0
ARC
  5
248
100
AcDbEntity
  8
noname5
  6
ByLayer
 62
  256
370
   -1
100
AcDbCircle
 10
119.3991080840511
 20
103.3948727319527
 40
10
100
AcDbArc
 50
9.99999994973061
 51
85.96375654747017
  0
LINE
  5
249
100
AcDbEntity
  8
noname5
  6
ByLayer
 62
  256
370
   -1
100
AcDbLine
 10
26.91546743897388
 20
-14.83886539012539
 11
136.8295450498051
 21
4.541951952915268
  0
LINE
  5
24A
100
AcDbEntity
  8
noname5
  6
ByLayer
 62
  256
370
   -1
100
AcDbLine
 10
129.2471856156967
 20
105.1313544999817
 11
144.9411408134217
 21
16.12651125258979
  0
ARC
  5
24B
100
AcDbEntity
  8
noname5
  6
ByLayer
 62
  256
370
   -1
100
AcDbCircle
 10
135.0930632817761
 20
14.39002948456087
 40
10
100
AcDbArc
 50
279.9999999497306
 51
9.999999949730585
  0
ARC
  5
24C
100
AcDbEntity
  8
noname5
  6
ByLayer
 62
  256
370
   -1
100
AcDbCircle
 10
-122.7142257540037
 20
84.59390624272466
 40
10
100
AcDbArc
 50
94.03624345253
 51
170.0000000502693
  0
LINE
  5
24D
100
AcDbEntity
  8
noname5
  6
ByLayer
 62
  256
370
   -1
100
AcDbLine
 10
-132.5623032856493
 20
86.33038801075361
 11
-144.9411408419036
 21
16.1265112697875
  0
LINE
  5
24E
100
AcDbEntity
  8
noname5
  6
ByLayer
 62
  256
370
   -1
100
AcDbLine
 10
-136.829545078287
 20
4.541951970112963
 11
-26.91546736992329
 21
-14.83886539012535
  0
ARC
  5
24F
100
AcDbEntity
  8
noname5
  6
ByLayer
 62
  256
370
   -1
100
AcDbCircle
 10
-135.093063310258
 20
14.39002950175857
 40
10
100
AcDbArc
 50
170.0000000502694
 51
260.0000000502694
  0
ARC
  5
250
100
AcDbEntity
  8
noname5
  6
ByLayer
 62
  256
370
   -1
100
AcDbCircle
 10
3.452532837400213e-08
 20
137.8063363503815
 40
155
100
AcDbArc
 50
260.0000000502693
 51
279.9999999497306
  0
LINE
  5
251
100
AcDbEntity
  8
noname5
  6
ByLayer
 62
  256
370
   -1
100
AcDbLine
 10
-39.41802779215765
 20
94.00968174067363
 11
-18.51250252405784
 21
84.68609218386709
  0
ARC
  5
252
100
AcDbEntity
  8
noname5
  6
ByLayer
 62
  256
370
   -1
100
AcDbCircle
 10
-0.1833526894261013
 20
125.7840515777302
 40
45
100
AcDbArc
 50
245.9637565556198
 51
294.7904593280484
  0
ARC
  5
253
100
AcDbEntity
  8
noname5
  6
ByLayer
 62
  256
370
   -1
100
AcDbCircle
 10
-61.82032203448534
 20
43.77884248150764
 40
55
100
AcDbArc
 50
65.9637565556198
 51
94.03624345252992
  0
LINE
  5
254
100
AcDbEntity
  8
noname5
  6
ByLayer
 62
  256
370
   -1
100
AcDbLine
 10
-65.69163538666085
 20
98.64242724343575
 11
-123.4181006182228
 21
94.5691034926802
  0
ARC
  5
255
100
AcDbEntity
  8
noname5
  6
ByLayer
 62
  256
370
   -1
100
AcDbCircle
 10
59.21626248076147
 20
43.0678437556052
 40
55
100
AcDbArc
 50
100.2640980819849
 51
114.7904593280484
  0
LINE
  5
256
100
AcDbEntity
  8
noname5
  6
ByLayer
 62
  256
370
   -1
100
AcDbLine
 10
36.15471124806129
 20
92.99944551983408
 11
18.68518857698744
 21
84.93092256075461
  0
LINE
  5
257
100
AcDbEntity
  8
noname5
  6
ByLayer
 62
  256
370
   -1
100
AcDbLine
 10
49.41605056914523
 20
97.18767234446361
 11
60.56521023619381
 21
99.20660200892331
  0
ARC
  5
258
100
AcDbEntity
  8
noname5
  6
ByLayer
 62
  256
370
   -1
100
AcDbCircle
 10
59.67428188059233
 20
104.1265864260923
 40
5
100
AcDbArc
 50
280.2640980819848
 51
355.9637565474702
  0
ARC
  5
259
100
AcDbEntity
  8
noname5
  6
ByLayer
 62
  256
370
   -1
100
AcDbCircle
 10
74.88160258474096
 20
106.5361392506514
 40
10
100
AcDbArc
 50
85.96375654747001
 51
175.9637565474702
  0
LINE
  5
25A
100
AcDbEntity
  8
noname5
  6
ByLayer
 62
  256
370
   -1
100
AcDbLine
 10
64.6618805055701
 20
103.7746489939827
 11
64.90640533478542
 21
107.2400141148705
  0
ARC
  5
25B
100
AcDbEntity
  8
noname5
  6
ByLayer
 62
  256
370
   -1
100
AcDbCircle
 10
-61.82032203448534
 20
43.77884248150764
 40
51
100
AcDbArc
 50
65.9637565556198
 51
94.03624345252992
  0
LINE
  5
25C
100
AcDbEntity
  8
noname5
  6
ByLayer
 62
  256
370
   -1
100
AcDbLine
 10
-41.04728555523603
 20
90.35652979455247
 11
-20.14176028713621
 21
81.03294023774593
  0
ARC
  5
25D
100
AcDbEntity
  8
noname5
  6
ByLayer
 62
  256
370
   -1
100
AcDbCircle
 10
-0.1833526894261013
 20
125.7840515777302
 40
49
100
AcDbArc
 50
245.9637565556198
 51
294.7904593280484
  0
LINE
  5
25E
100
AcDbEntity
  8
noname5
  6
ByLayer
 62
  256
370
   -1
100
AcDbLine
 10
37.83191571215949
 20
89.36805664151083
 11
20.36239224511308
 21
81.29953331480122
  0
ARC
  5
25F
100
AcDbEntity
  8
noname5
  6
ByLayer
 62
  256
370
   -1
100
AcDbCircle
 10
59.21626248076147
 20
43.0678437556052
 40
51
100
AcDbArc
 50
100.2640980819849
 51
114.7904593280484
  0
LINE
  5
260
100
AcDbEntity
  8
noname5
  6
ByLayer
 62
  256
370
   -1
100
AcDbLine
 10
50.12879325362641
 20
93.25168481072845
 11
65.07845064103032
 21
95.95882218020598
  0
ARC
  5
261
100
AcDbEntity
  8
noname5
  6
ByLayer
 62
  256
370
   -1
100
AcDbCircle
 10
64.38839542813614
 20
99.898864062595
 40
4
100
AcDbArc
 50
279.9999999497306
 51
355.9637565474702
  0
LINE
  5
262
100
AcDbEntity
  8
noname5
  6
ByLayer
 62
  256
370
   -1
100
AcDbLine
 10
68.37847432811836
 20
99.61731411690735
 11
68.89648423476763
 21
106.9584641691829
  0
ARC
  5
263
100
AcDbEntity
  8
noname5
  6
ByLayer
 62
  256
370
   -1
100
AcDbCircle
 10
74.88160258474096
 20
106.5361392506514
 40
6
100
AcDbArc
 50
85.96375654747001
 51
175.9637565474702
  0
LINE
  5
264
100
AcDbEntity
  8
noname5
  6
ByLayer
 62
  256
370
   -1
100
AcDbLine
 10
75.30392750327243
 20
112.5212576006247
 11
119.8214330025826
 21
109.3799910819261
  0
ARC
  5
265
100
AcDbEntity
  8
noname5
  6
ByLayer
 62
  256
370
   -1
100
AcDbCircle
 10
119.3991080840511
 20
103.3948727319527
 40
6
100
AcDbArc
 50
9.99999994973061
 51
85.96375654747017
  0
LINE
  5
266
100
AcDbEntity
  8
noname5
  6
ByLayer
 62
  256
370
   -1
100
AcDbLine
 10
125.3079546030384
 20
104.4367617927701
 11
141.0019098007635
 21
15.43191854537823
  0
ARC
  5
267
100
AcDbEntity
  8
noname5
  6
ByLayer
 62
  256
370
   -1
100
AcDbCircle
 10
135.0930632817761
 20
14.39002948456086
 40
6
100
AcDbArc
 50
279.9999999497305
 51
9.999999949730686
  0
LINE
  5
268
100
AcDbEntity
  8
noname5
  6
ByLayer
 62
  256
370
   -1
100
AcDbLine
 10
26.2208747317623
 20
-10.89963437746714
 11
136.1349523425934
 21
8.481182965573495
  0
ARC
  5
269
100
AcDbEntity
  8
noname5
  6
ByLayer
 62
  256
370
   -1
100
AcDbCircle
 10
3.452532837400213e-08
 20
137.8063363503815
 40
151
100
AcDbArc
 50
260.0000000502693
 51
279.9999999497306
  0
LINE
  5
26A
100
AcDbEntity
  8
noname5
  6
ByLayer
 62
  256
370
   -1
100
AcDbLine
 10
-136.1349523710754
 20
8.481182982771212
 11
-26.22087466271172
 21
-10.8996343774671
  0
ARC
  5
26B
100
AcDbEntity
  8
noname5
  6
ByLayer
 62
  256
370
   -1
100
AcDbCircle
 10
-135.093063310258
 20
14.39002950175857
 40
6
100
AcDbArc
 50
170.0000000502692
 51
260.0000000502691
  0
LINE
  5
26C
100
AcDbEntity
  8
noname5
  6
ByLayer
 62
  256
370
   -1
100
AcDbLine
 10
-128.623072272991
 20
85.63579530354205
 11
-141.0019098292454
 21
15.43191856257595
  0
ARC
  5
26D
100
AcDbEntity
  8
noname5
  6
ByLayer
 62
  256
370
   -1
100
AcDbCircle
 10
-122.7142257540037
 20
84.59390624272469
 40
6
100
AcDbArc
 50
94.03624345252985
 51
170.0000000502693
  0
LINE
  5
26E
100
AcDbEntity
  8
noname5
  6
ByLayer
 62
  256
370
   -1
100
AcDbLine
 10
-65.41008384200282
 20
94.65234845628088
 11
-123.1365506725351
 21
90.57902459269799
  0
ARC
  5
26F
100
AcDbEntity
  8
noname5
  6
ByLayer
 62
  256
370
   -1
100
AcDbCircle
 10
-0.1833526894261013
 20
125.7840515777302
 40
44
100
AcDbArc
 50
245.9637565556198
 51
294.7904593280484
  0
LINE
  5
270
100
AcDbEntity
  8
noname5
  6
ByLayer
 62
  256
370
   -1
100
AcDbLine
 10
35.73541033102988
 20
93.90729283132242
 11
18.26588765995603
 21
85.83876987224295
  0
ARC
  5
271
100
AcDbEntity
  8
noname5
  6
ByLayer
 62
  256
370
   -1
100
AcDbCircle
 10
59.21626248076147
 20
43.0678437556052
 40
56
100
AcDbArc
 50
100.2640980819849
 51
114.7904593280484
  0
LINE
  5
272
100
AcDbEntity
  8
noname5
  6
ByLayer
 62
  256
370
   -1
100
AcDbLine
 10
49.23786489802494
 20
98.1716692278974
 11
60.38702456507351
 21
100.1905988923571
  0
ARC
  5
273
100
AcDbEntity
  8
noname5
  6
ByLayer
 62
  256
370
   -1
100
AcDbCircle
 10
59.67428188059233
 20
104.1265864260923
 40
4
100
AcDbArc
 50
280.2640980819848
 51
355.9637565474702
  0
LINE
  5
274
100
AcDbEntity
  8
noname5
  6
ByLayer
 62
  256
370
   -1
100
AcDbLine
 10
63.66436078057454
 20
103.8450364804046
 11
63.90888560978986
 21
107.3104016012924
  0
ARC
  5
275
100
AcDbEntity
  8
noname5
  6
ByLayer
 62
  256
370
   -1
100
AcDbCircle
 10
74.88160258474096
 20
106.5361392506514
 40
11
100
AcDbArc
 50
85.96375654747001
 51
175.9637565474702
  0
LINE
  5
276
100
AcDbEntity
  8
noname5
  6
ByLayer
 62
  256
370
   -1
100
AcDbLine
 10
75.655864935382
 20
117.5088562256025
 11
120.1733704346921
 21
114.3675897069038
  0
ARC
  5
277
100
AcDbEntity
  8
noname5
  6
ByLayer
 62
  256
370
   -1
100
AcDbCircle
 10
119.3991080840511
 20
103.3948727319527
 40
11
100
AcDbArc
 50
9.99999994973061
 51
85.96375654747017
  0
LINE
  5
278
100
AcDbEntity
  8
noname5
  6
ByLayer
 62
  256
370
   -1
100
AcDbLine
 10
130.2319933688612
 20
105.3050026767846
 11
145.9259485665863
 21
16.30015942939269
  0
ARC
  5
279
100
AcDbEntity
  8
noname5
  6
ByLayer
 62
  256
370
   -1
100
AcDbCircle
 10
135.0930632817761
 20
14.39002948456087
 40
11
100
AcDbArc
 50
279.9999999497306
 51
9.999999949730585
  0
LINE
  5
27A
100
AcDbEntity
  8
noname5
  6
ByLayer
 62
  256
370
   -1
100
AcDbLine
 10
27.08911561577677
 20
-15.82367314328995
 11
137.0031932266079
 21
3.557144199750707
  0
ARC
  5
27B
100
AcDbEntity
  8
noname5
  6
ByLayer
 62
  256
370
   -1
100
AcDbCircle
 10
3.452532837400213e-08
 20
137.8063363503815
 40
156
100
AcDbArc
 50
260.0000000502693
 51
279.9999999497306
  0
LINE
  5
27C
100
AcDbEntity
  8
noname5
  6
ByLayer
 62
  256
370
   -1
100
AcDbLine
 10
-137.0031932550899
 20
3.557144216948402
 11
-27.08911554672618
 21
-15.82367314328991
  0
ARC
  5
27D
100
AcDbEntity
  8
noname5
  6
ByLayer
 62
  256
370
   -1
100
AcDbCircle
 10
-135.093063310258
 20
14.39002950175857
 40
11
100
AcDbArc
 50
170.0000000502694
 51
260.0000000502694
  0
LINE
  5
27E
100
AcDbEntity
  8
noname5
  6
ByLayer
 62
  256
370
   -1
100
AcDbLine
 10
-133.5471110388139
 20
86.50403618755651
 11
-145.9259485950682
 21
16.3001594465904
  0
ARC
  5
27F
100
AcDbEntity
  8
noname5
  6
ByLayer
 62
  256
370
   -1
100
AcDbCircle
 10
-122.7142257540037
 20
84.59390624272466
 40
11
100
AcDbArc
 50
94.03624345253
 51
170.0000000502693
  0
LINE
  5
280
100
AcDbEntity
  8
noname5
  6
ByLayer
 62
  256
370
   -1
100
AcDbLine
 10
-65.76202287308276
 20
99.6399469684313
 11
-123.4884881046447
 21
95.56662321767575
  0
ARC
  5
281
100
AcDbEntity
  8
noname5
  6
ByLayer
 62
  256
370
   -1
100
AcDbCircle
 10
-61.82032203448534
 20
43.77884248150764
 40
56
100
AcDbArc
 50
65.9637565556198
 51
94.03624345252992
  0
LINE
  5
282
100
AcDbEntity
  8
noname5
  6
ByLayer
 62
  256
370
   -1
100
AcDbLine
 10
-39.01071335138806
 20
94.92296972720392
 11
-18.10518808328824
 21
85.59938017039738
  0
ENDSEC
  0
SECTION
  2
OBJECTS
  0
DICTIONARY
  5
C
330
0
100
AcDbDictionary
281
    1
  3
ACAD_GROUP
350
D
  0
DICTIONARY
  5
D
330
C
100
AcDbDictionary
281
    1
  0
PLOTSETTINGS
  5
283
100
AcDbPlotSettings
  6
1x1
 40
0
 41
0
 42
0
 43
0
  0
ENDSEC
  0
EOF
